<svg width="601" height="470" viewBox="0 0 601 470" fill="none" xmlns="http://www.w3.org/2000/svg">
<g id="security_SVG" clip-path="url(#clip0)">
<g id="&#208;&#161;&#208;&#187;&#208;&#190;&#208;&#185; 2">
<g id="&#208;&#161;&#208;&#187;&#208;&#190;&#208;&#185; 1">
<path id="Vector" opacity="0.4" d="M420.125 387.945L304.145 321.097C303.477 320.715 302.925 320.159 302.547 319.489C302.168 318.819 301.977 318.059 301.995 317.29C302.012 316.52 302.237 315.77 302.645 315.117C303.053 314.465 303.629 313.935 304.313 313.583L318.904 306.046C319.542 305.72 320.251 305.559 320.967 305.575C321.683 305.592 322.384 305.787 323.006 306.142L442.883 375.243C443.551 375.626 444.102 376.183 444.48 376.854C444.858 377.525 445.049 378.285 445.031 379.055C445.014 379.825 444.79 380.577 444.382 381.23C443.975 381.883 443.399 382.415 442.715 382.768L432.13 388.222C430.266 389.188 428.19 389.668 426.092 389.62C423.994 389.571 421.942 388.996 420.125 387.945Z" fill="#D6D8E5"/>
<path id="Vector_2" d="M427.234 375.362L328.382 318.242C319.962 313.426 313.214 300.422 313.214 289.249V13.2449C313.214 2.07137 320.011 -3.06991 328.382 1.77036L427.234 58.9987C435.654 63.8149 442.402 76.8187 442.402 87.9922V363.96C442.402 375.073 435.606 380.203 427.234 375.362Z" fill="#B1B4C4"/>
<path id="Vector_3" d="M428.93 380.335L436.76 376.374L429.254 363.49L428.93 380.335Z" fill="#B1B4C4"/>
<path id="Vector_4" d="M311.711 4.57563L318.916 0.794922L317.46 11.4267L311.711 4.57563Z" fill="#B1B4C4"/>
<path id="Vector_5" d="M421.003 378.517L322.164 321.397C313.744 316.581 307.008 303.577 307.008 292.404V16.4481C307.008 5.2745 313.792 0.133216 322.164 4.97349L421.003 62.0935C429.423 66.9097 436.159 79.9134 436.159 91.087V367.055C436.099 378.228 429.315 383.357 421.003 378.517Z" fill="#616E84"/>
<path id="Vector_6" d="M435.04 91.7976V367.741C435.04 378.927 428.256 384.056 419.884 379.228L381.128 356.821L369.099 349.861L321.045 322.108C312.625 317.292 305.889 304.288 305.889 293.102V17.1587C305.889 6.0213 312.673 0.84389 321.045 5.67212L419.884 62.7921C428.22 67.6324 435.04 80.6722 435.04 91.7976Z" fill="#20232D"/>
<path id="Vector_7" d="M427.92 88.9923V357.76C427.92 364.527 423.168 367.284 417.31 363.888L386.409 346.032L383.714 344.455L382.8 343.925L376.124 340.06L356.794 328.911L348.771 324.275L345.547 322.409L323.571 309.754C317.713 306.371 312.974 298.123 312.974 291.357V22.589C312.974 15.8102 317.713 13.065 323.571 16.4484L362.159 38.7594V38.8678C362.325 41.7409 363.165 44.5343 364.611 47.0217C366.058 49.509 368.069 51.6201 370.483 53.1839C375.054 55.7967 378.758 53.6775 378.758 48.3677C378.758 48.3677 378.758 48.2834 378.758 48.2473L417.346 70.5583C423.168 73.9778 427.92 82.2135 427.92 88.9923Z" fill="white"/>
<path id="Vector_8" d="M374.159 50.6052C375.39 49.897 375.397 47.597 374.175 45.468C372.952 43.339 370.964 42.1872 369.732 42.8954C368.501 43.6036 368.494 45.9036 369.717 48.0326C370.939 50.1616 372.928 51.3134 374.159 50.6052Z" fill="#2B303F"/>
<path id="Vector_9" opacity="0.1" d="M370.483 48.0791C370.094 47.8249 369.771 47.4815 369.54 47.0774C369.31 46.6732 369.18 46.22 369.16 45.7552C369.16 44.9124 369.749 44.5512 370.471 44.9967C370.853 45.2453 371.172 45.5812 371.4 45.9768C371.628 46.3723 371.759 46.8163 371.782 47.2723C371.782 48.1633 371.193 48.5005 370.483 48.0791Z" fill="white"/>
<path id="Vector_10" d="M439.046 128.098C438.24 128.568 437.579 128.098 437.579 126.991V115.227C437.59 114.679 437.728 114.142 437.983 113.657C438.238 113.172 438.602 112.753 439.046 112.434C439.852 111.976 440.502 112.434 440.502 113.542V125.305C440.495 125.852 440.359 126.39 440.106 126.875C439.854 127.361 439.49 127.78 439.046 128.098Z" fill="#757B89"/>
<path id="Vector_11" d="M439.046 147.376C438.24 147.845 437.579 147.376 437.579 146.28V134.505C437.59 133.957 437.728 133.419 437.983 132.934C438.238 132.45 438.602 132.031 439.046 131.711C439.852 131.254 440.502 131.711 440.502 132.819V144.582C440.496 145.13 440.361 145.668 440.108 146.153C439.855 146.639 439.491 147.058 439.046 147.376Z" fill="#757B89"/>
<path id="Vector_12" opacity="0.4" d="M207.446 311.777L104.06 371.919L0 311.777L103.386 251.635L207.446 311.777Z" fill="#D6D8E5"/>
<path id="Vector_13" d="M215.421 297.713L215.397 308.056L112.011 368.198L112.035 357.843L215.421 297.713Z" fill="#D3D3DD"/>
<path id="Vector_14" d="M112.035 357.843L112.011 368.198L7.95093 308.056L7.97499 297.713L112.035 357.843Z" fill="#E0DEE9"/>
<path id="Vector_15" d="M215.421 297.712L112.035 357.843L7.9751 297.712L111.361 237.57L215.421 297.712Z" fill="#EAEAF4"/>
<path id="Vector_16" d="M199.303 140.875L198.858 296.113L111.843 346.731L112.288 191.493L199.303 140.875Z" fill="#D3D3DD"/>
<path id="Vector_17" d="M112.287 191.493L111.842 346.731L24.2617 296.113L24.6948 140.875L112.287 191.493Z" fill="#E0DEE9"/>
<path id="Vector_18" d="M199.303 140.874L112.288 191.492L24.6948 140.874L111.71 90.2559L199.303 140.874Z" fill="#EAEAF4"/>
<path id="Vector_19" d="M47.2727 208.747L47.2246 224.845L33.2473 216.766L33.2834 200.668L47.2727 208.747Z" fill="#2A313F"/>
<path id="Vector_20" d="M47.3328 186.362L47.2967 202.448L33.3074 194.369L33.3555 178.283L47.3328 186.362Z" fill="#2A313F"/>
<path id="Vector_21" d="M47.4051 163.968L47.357 180.066L33.3677 171.987L33.4158 155.889L47.4051 163.968Z" fill="#2A313F"/>
<path id="Vector_22" d="M103.783 263.843L103.747 279.942L53.5635 250.936L53.5996 234.838L103.783 263.843Z" fill="#2A313F"/>
<path id="Vector_23" d="M103.855 241.449L103.807 257.547L53.6238 228.541L53.6719 212.443L103.855 241.449Z" fill="#2A313F"/>
<path id="Vector_24" d="M103.916 219.064L103.867 235.15L53.6838 206.145L53.7319 190.059L103.916 219.064Z" fill="#2A313F"/>
<path id="Vector_25" d="M103.976 196.67L103.928 212.768L53.7561 183.762L53.7922 167.664L103.976 196.67Z" fill="#2A313F"/>
<path id="Vector_26" d="M47.1522 253.524L47.1041 269.623L33.1147 261.543L33.1629 245.445L47.1522 253.524Z" fill="#2A313F"/>
<path id="Vector_27" d="M47.2125 231.142L47.1644 247.24L33.175 239.161L33.2232 223.062L47.2125 231.142Z" fill="#2A313F"/>
<path id="Vector_28" d="M103.723 286.226L103.675 302.324L53.4915 273.319L53.5396 257.221L103.723 286.226Z" fill="#2A313F"/>
<path id="Vector_29" d="M134.372 211.154L134.42 227.252L120.431 235.332L120.383 219.233L134.372 211.154Z" fill="#2A313F"/>
<path id="Vector_30" d="M134.312 188.76L134.36 204.858L120.359 212.937L120.323 196.851L134.312 188.76Z" fill="#2A313F"/>
<path id="Vector_31" d="M191.135 245.627L191.184 261.713L141 290.719L140.952 274.632L191.135 245.627Z" fill="#2A313F"/>
<path id="Vector_32" d="M191.075 223.242L191.111 239.328L140.94 268.334L140.892 252.236L191.075 223.242Z" fill="#2A313F"/>
<path id="Vector_33" d="M191.003 200.848L191.051 216.934L140.868 245.939L140.82 229.853L191.003 200.848Z" fill="#2A313F"/>
<path id="Vector_34" d="M190.943 178.465L190.991 194.551L140.807 223.556L140.759 207.458L190.943 178.465Z" fill="#2A313F"/>
<path id="Vector_35" d="M190.883 156.068L190.931 172.154L140.747 201.16L140.699 185.062L190.883 156.068Z" fill="#2A313F"/>
<path id="Vector_36" d="M134.565 278.328L134.613 294.414L120.612 302.493L120.575 286.407L134.565 278.328Z" fill="#2A313F"/>
<path id="Vector_37" d="M134.505 255.932L134.553 272.03L120.551 280.109L120.503 264.011L134.505 255.932Z" fill="#2A313F"/>
<path id="Vector_38" d="M134.432 233.549L134.48 249.635L120.491 257.714L120.443 241.628L134.432 233.549Z" fill="#2A313F"/>
<path id="Vector_39" d="M198.894 283.59L198.858 296.112L111.854 346.73L111.879 333.907L198.894 283.59Z" fill="#9052FE"/>
<path id="Vector_40" d="M111.878 333.907L111.842 346.73L24.2617 296.112L24.2978 283.289L111.878 333.907Z" fill="#9052FE"/>
<path id="Vector_41" d="M111.301 142.934C111.638 142.934 111.963 142.934 112.288 142.934L117.267 145.799C113.71 146.876 109.914 146.876 106.357 145.799L111.301 142.934Z" fill="#2A313F"/>
<g id="Group">
<path id="Vector_42" d="M89.6736 124.68C102.364 118.539 120.948 118.539 133.711 124.68L129.224 127.292C118.975 122.561 104.373 122.561 94.1964 127.292L89.6736 124.68Z" fill="#2A313F"/>
<path id="Vector_43" d="M97.4321 129.122C106.633 125.378 116.931 125.378 126.133 129.122L121.61 131.747C115.276 129.4 108.312 129.4 101.979 131.747L97.4321 129.122Z" fill="#2A313F"/>
<path id="Vector_44" d="M106.285 134.275C109.845 133.192 113.647 133.192 117.207 134.275L112.263 137.153C111.927 137.129 111.589 137.129 111.253 137.153L106.285 134.275Z" fill="#2A313F"/>
<path id="Vector_45" d="M116.75 140.333C116.78 140.141 116.78 139.946 116.75 139.755L121.694 136.877C122.134 137.278 122.485 137.766 122.725 138.31C122.965 138.854 123.089 139.443 123.089 140.038C123.089 140.633 122.965 141.221 122.725 141.765C122.485 142.31 122.134 142.798 121.694 143.198L116.75 140.333Z" fill="#2A313F"/>
<path id="Vector_46" d="M126.108 145.691C130.138 142.283 130.114 137.732 126.108 134.312L130.631 131.688C137.115 136.576 137.151 143.439 130.715 148.327L126.108 145.691Z" fill="#2A313F"/>
<path id="Vector_47" d="M97.4321 134.347C93.4025 137.767 93.4386 142.318 97.5043 145.726L92.9815 148.363C86.4981 143.474 86.462 136.611 92.8853 131.723L97.4321 134.347Z" fill="#2A313F"/>
<path id="Vector_48" d="M133.831 150.194C141.95 144.282 141.89 135.806 133.723 129.894L138.209 127.281C148.831 134.65 148.903 145.438 138.354 152.807L133.831 150.194Z" fill="#2A313F"/>
<path id="Vector_49" d="M94.3407 152.795C104.577 157.515 119.18 157.515 129.368 152.795L133.879 155.408C121.201 161.548 102.604 161.548 89.854 155.408L94.3407 152.795Z" fill="#2A313F"/>
</g>
<path id="Vector_50" d="M89.7218 129.892C81.6145 135.804 81.6626 144.268 89.8421 150.192L85.4035 152.805C74.7702 145.436 74.7101 134.648 85.2472 127.279L89.7218 129.892Z" fill="#2A313F"/>
<path id="Vector_51" d="M102.015 148.326C108.344 150.674 115.304 150.674 121.634 148.326L126.193 150.963C116.991 154.707 106.693 154.707 97.4922 150.963L102.015 148.326Z" fill="#2A313F"/>
<path id="Vector_52" d="M106.79 139.755C106.76 139.946 106.76 140.141 106.79 140.333L101.847 143.21C101.407 142.809 101.055 142.319 100.815 141.774C100.575 141.229 100.45 140.64 100.45 140.044C100.45 139.448 100.575 138.858 100.815 138.313C101.055 137.768 101.407 137.279 101.847 136.877L106.79 139.755Z" fill="#2A313F"/>
<path id="Vector_53" d="M401.757 245.481C403.154 246.385 404.318 247.607 405.154 249.046C405.991 250.486 406.475 252.103 406.569 253.765V261.965C406.569 265.011 404.403 266.239 401.757 264.698L336.273 226.867C334.876 225.963 333.712 224.741 332.876 223.302C332.04 221.862 331.555 220.245 331.462 218.583V210.383C331.462 207.337 333.639 206.109 336.273 207.638L401.757 245.481Z" fill="#D5D7E2"/>
<path id="Vector_54" opacity="0.4" d="M263.957 432.084C289.181 432.084 309.63 420.268 309.63 405.692C309.63 391.115 289.181 379.299 263.957 379.299C238.733 379.299 218.284 391.115 218.284 405.692C218.284 420.268 238.733 432.084 263.957 432.084Z" fill="#D6D8E5"/>
<g id="Men 2">
<path id="Vector_55" d="M226.139 200.137C225.598 204.857 219.968 225.229 221.171 232.201C222.374 239.172 241.62 250.863 241.62 250.863L244.29 238.907L233.633 228.468L236.52 208.685L226.139 200.137Z" fill="#FFCEA9"/>
<path id="Vector_56" d="M240.994 180.054C239.123 179.189 237 179.041 235.027 179.638C233.054 180.235 231.368 181.535 230.289 183.293C227.462 187.989 224.527 204.075 224.274 206.82C224.274 206.82 228.244 212.311 234.198 211.396L240.994 180.054Z" fill="#EDEDED"/>
<path id="Vector_57" d="M262.959 407.198C267.159 408.373 271.654 407.832 275.456 405.693C278.464 405.79 294.702 398.818 296.94 404.67C298.876 409.799 291.827 414.543 288.062 415.506C279.847 417.493 273.772 421.599 270.465 422.297C268.059 422.815 264.823 423.152 262.862 421.225C260.457 418.853 260.661 410.257 262.959 407.198Z" fill="#38226D"/>
<path id="Vector_58" d="M270.404 420.826C273.712 420.128 279.787 416.01 288.002 414.035C291.166 413.265 296.603 409.809 297.144 405.691C297.878 410.411 291.515 414.601 288.002 415.456C279.787 417.443 273.712 421.549 270.404 422.247C267.999 422.765 264.763 423.102 262.802 421.175C262.297 420.61 261.93 419.933 261.732 419.201C262.95 420.131 264.369 420.762 265.875 421.044C267.381 421.326 268.932 421.252 270.404 420.826Z" fill="#9C73FF"/>
<path id="Vector_59" d="M236.568 395.338C240.746 396.493 245.211 395.952 248.993 393.833C252.001 393.93 268.239 386.946 270.477 392.81C272.413 397.939 265.376 402.683 261.611 403.646C253.384 405.633 247.309 409.739 244.002 410.437C241.596 410.955 238.36 411.292 236.399 409.353C234.066 406.969 234.27 398.397 236.568 395.338Z" fill="#38226D"/>
<path id="Vector_60" d="M244.013 408.967C247.321 408.269 253.396 404.151 261.623 402.176C264.775 401.405 270.212 397.95 270.753 393.832C271.487 398.552 265.136 402.742 261.623 403.597C253.396 405.584 247.321 409.689 244.013 410.388C241.608 410.905 238.372 411.243 236.411 409.304C235.903 408.745 235.536 408.072 235.341 407.341C236.559 408.271 237.978 408.902 239.484 409.185C240.99 409.467 242.541 409.392 244.013 408.967Z" fill="#9C73FF"/>
<path id="Vector_61" d="M236.243 351.088C236.943 345.037 238.2 339.064 239.996 333.244C239.996 333.244 238.877 317.856 238.324 303.263C237.686 286.696 231.937 272.115 236.472 258.906L287.485 270.272C287.485 270.272 284.394 336.302 283.72 344.297C283.341 350.52 282.574 356.713 281.423 362.84C279.089 375.651 275.312 406.185 275.312 406.185C269.911 409.316 262.826 407.582 262.826 407.582C262.826 407.582 263.211 369.053 263.56 359.781C263.981 348.511 264.33 349.366 264.33 349.366L262.646 321.276L261.539 307.297C261.539 307.297 260.12 317.555 259.206 326.718C258.4 334.701 256.475 341.937 254.322 356.819C252.458 369.727 249.426 395.638 249.426 395.638C244.026 398.78 236.7 396.18 236.7 396.18C236.7 396.18 234.787 362.274 236.243 351.088Z" fill="#8C50FF"/>
<path id="Vector_62" d="M243.701 180.342C247.586 180.522 250.485 181.546 250.918 180.342C251.341 178.335 251.638 176.305 251.808 174.261C251.363 173.13 250.978 171.913 250.978 171.913C246.094 168.915 244.555 163.63 243.905 157.465C242.811 146.954 248.488 137.755 258.989 136.647C268.865 135.623 276.13 142.571 278.067 152.107C279.113 156.815 281.194 165.713 278.379 173.455C276.816 177.789 274.771 181.221 272.762 181.883C270.805 181.826 268.853 181.653 266.916 181.365C266.916 181.365 266.387 184.279 266.026 186.181C265.665 188.084 265.809 189.047 269.538 191.347C273.267 193.646 263.897 198.366 257.786 197.909C251.676 197.451 244.843 193.851 242.979 189.83C240.85 185.423 241.03 180.209 243.701 180.342Z" fill="#FFCEA9"/>
<path id="Vector_63" d="M249.33 180.909C248.248 183.606 250.99 186.929 258.291 189.193C265.593 191.456 266.242 188.53 266.242 188.53C266.242 188.53 276.948 193.347 280.436 195.851C284.827 198.921 286.763 207.795 287.353 222.774C288.038 240.112 288.098 265.83 287.521 270.273C287.521 270.273 279.33 278.437 268.853 277.582C258.376 276.727 240.73 267.432 236.459 260.268C236.568 245.061 238.348 242.592 235.894 233.779C230.265 213.731 227.294 205.52 230.036 192.203C232.286 181.222 235.449 179.861 239.779 179.958C242.978 180.105 246.166 180.423 249.33 180.909Z" fill="#F4F4F4"/>
<path id="Vector_64" d="M328.996 224.291C320.347 222.28 309.101 221.281 305.263 218.68C295.977 212.383 288.339 206.037 282.71 202.787C276.07 198.946 273.424 199.764 269.839 201.053C265.629 202.582 265.304 207.579 272.497 213.587C281.014 220.679 287.75 224.989 299.429 231.949C302.485 233.767 336.454 236.945 345.451 237.295C347.857 237.391 349.685 237.559 354.328 237.74C358.971 237.921 364.348 237.018 367.764 235.187C371.18 233.357 372.131 232.153 372.059 231.298C371.974 230.227 370.988 229.95 369.328 230.612C366.779 231.849 364.029 232.616 361.209 232.876C361.209 232.876 364.913 231.672 367.055 230.672C368.968 229.833 370.761 228.739 372.383 227.421C373.923 226.121 373.646 223.147 371.962 223.809C370.278 224.471 369.136 225.374 365.948 226.735C364.255 227.46 362.483 227.982 360.667 228.288C362.766 227.249 364.778 226.041 366.682 224.676C368.256 223.67 369.508 222.232 370.29 220.534C370.687 219.643 369.99 217.982 368.005 219.041C366.213 219.98 364.396 221.931 360.667 223.207C357.985 224.122 355.964 224.411 356.181 223.869C356.397 223.328 358.009 222.918 359.717 221.136C361.425 219.354 361.942 216.778 360.92 215.935C359.898 215.092 360.066 215.273 358.117 216.766C356.169 218.259 353.967 218.981 351.393 221.305C349.754 223.036 347.719 224.342 345.463 225.11C342.504 226.121 337.211 226.193 328.996 224.291Z" fill="#FFCEA9"/>
<path id="Vector_65" d="M266.279 197.367C270.356 193.213 275.156 192.84 282.421 198.258C289.686 203.677 295.412 208.312 295.412 208.312C295.577 212.308 294.209 216.215 291.587 219.233C287.1 224.699 283.167 223.567 283.167 223.567C283.167 223.567 276.142 217.439 271.451 213.189C266.76 208.938 261.239 202.485 266.279 197.367Z" fill="#EDEDED"/>
<path id="Vector_66" d="M277.778 150.759C277.778 150.759 286.86 136.949 267.193 134.131C253.011 132.109 243.893 141.223 242.847 151.133C241.836 160.584 247.658 170.397 251.856 174.299C253.901 175.033 258.316 175.503 264.113 172.818C264.343 170.244 264.431 167.659 264.378 165.076C264.378 165.076 257.474 150.507 277.778 150.759Z" fill="#3A2C6D"/>
</g>
<g id="Group_2" opacity="0.4">
<path id="Vector_67" opacity="0.4" d="M579.781 433.904C594.011 442.127 606.088 441.272 592.905 450.989C559.056 475.925 542.781 471.928 528.551 463.704L466.628 427.908C452.386 419.684 460.902 401.418 475.048 393.219C489.193 385.019 503.616 389.884 517.858 398.119L579.781 433.904Z" fill="#D6D8E5"/>
</g>
<path id="Vector_68" d="M600.904 341.95C600.904 342.323 600.844 342.708 600.771 343.093C600.711 343.406 600.635 343.716 600.543 344.021C600.447 344.382 600.362 344.743 600.23 345.104C600.098 345.465 599.989 345.694 599.857 345.995C599.725 346.296 599.532 346.754 599.328 347.127C599.123 347.5 599.003 347.669 598.847 347.934C598.69 348.199 598.305 348.789 597.993 349.198C597.68 349.607 597.379 350.005 597.03 350.402C596.946 350.486 596.874 350.583 596.79 350.679C596.321 351.197 595.803 351.69 595.262 352.184C594.913 352.497 594.528 352.798 594.144 353.111C593.759 353.424 593.494 353.653 593.133 353.906C592.772 354.159 592.267 354.496 591.822 354.785C591.377 355.074 590.932 355.387 590.439 355.664C589.327 356.305 588.183 356.888 587.011 357.41L585.976 357.843C585.054 358.244 584.104 358.606 583.125 358.927C582.776 359.047 582.428 359.179 582.079 359.288C581.465 359.48 580.876 359.649 580.202 359.83C579.529 360.01 579.264 360.095 578.771 360.215C578.278 360.335 577.436 360.504 576.762 360.636C576.305 360.733 575.86 360.841 575.391 360.913C574.032 361.154 572.648 361.347 571.265 361.491L569.966 361.6C569.148 361.672 568.33 361.732 567.56 361.768C567.043 361.768 566.514 361.768 565.984 361.768C565.455 361.768 564.661 361.768 564 361.768C563.338 361.768 562.881 361.768 562.328 361.768C561.774 361.768 561.125 361.768 560.487 361.672L558.803 361.539L556.999 361.335L555.375 361.106L553.439 360.769L551.935 360.468C551.177 360.299 550.431 360.107 549.686 359.914L548.483 359.577C547.148 359.18 545.848 358.746 544.585 358.252C543.96 358.012 543.383 357.747 542.757 357.482C542.444 357.337 542.12 357.217 541.819 357.072C540.905 356.627 540.003 356.169 539.149 355.676L477.201 319.879C470.044 315.737 466.471 310.307 466.483 304.877L466.219 401.911C466.219 407.341 469.827 412.748 476.936 416.902L538.776 452.722C539.642 453.216 540.532 453.673 541.446 454.107C541.747 454.251 542.084 454.383 542.396 454.516C542.938 454.757 543.467 455.01 544.02 455.226L544.213 455.299C545.476 455.792 546.775 456.226 548.11 456.611L548.423 456.719L549.361 456.948C550.107 457.141 550.852 457.333 551.61 457.502C551.815 457.502 552.007 457.61 552.212 457.646L553.126 457.803C553.763 457.923 554.401 458.044 555.05 458.14L555.82 458.273C556.097 458.273 556.386 458.333 556.674 458.369C557.276 458.453 557.877 458.513 558.491 458.574L559.345 458.67H560.163L562.003 458.766H562.929H566.646H567.235C568.065 458.766 568.871 458.67 569.641 458.61L570.64 458.537H570.94C572.336 458.393 573.707 458.2 575.078 457.96H575.271C575.668 457.887 576.04 457.779 576.473 457.707C577.147 457.578 577.821 457.434 578.494 457.273L579.914 456.888C580.539 456.719 581.177 456.551 581.79 456.358L582.187 456.238C582.416 456.166 582.608 456.069 582.837 455.997C583.807 455.66 584.757 455.299 585.687 454.913L586.734 454.468C587.937 453.938 589.067 453.36 590.162 452.734L590.595 452.469C590.932 452.264 591.221 452.048 591.533 451.843C591.846 451.638 592.435 451.277 592.844 450.976C593.253 450.675 593.53 450.434 593.855 450.169C594.18 449.904 594.625 449.567 594.974 449.242L595.202 449.062C595.659 448.628 596.092 448.195 596.501 447.749L596.742 447.46C596.982 447.183 597.235 446.918 597.451 446.642C597.668 446.365 597.608 446.389 597.704 446.268C598.017 445.847 598.293 445.425 598.558 444.992C598.666 444.823 598.811 444.643 598.907 444.462C598.958 444.373 599.002 444.281 599.039 444.185C599.238 443.819 599.414 443.441 599.568 443.053C599.665 442.837 599.797 442.62 599.881 442.403C599.965 442.187 599.881 442.247 599.881 442.174C600.014 441.813 600.098 441.44 600.194 441.079C600.279 440.838 600.351 440.593 600.41 440.344C600.41 440.284 600.41 440.224 600.41 440.152C600.41 439.766 600.507 439.393 600.531 439.008C600.555 438.623 600.615 438.514 600.627 438.261V437.936L600.904 340.914C600.92 341.259 600.92 341.605 600.904 341.95Z" fill="#D5D7E2"/>
<path id="Vector_69" d="M590.282 325.924C604.5 334.148 604.585 347.488 590.439 355.712C576.293 363.936 553.282 363.948 539.052 355.712L477.105 319.916C462.887 311.692 462.803 298.351 476.96 290.116C491.118 281.88 514.105 281.892 528.335 290.116L590.282 325.924Z" fill="#E9EAF4"/>
<path id="Vector_70" d="M497.806 402.418L506.226 379.541C503.725 376.252 502.286 372.279 502.1 368.15C502.1 363.455 504.723 360.926 508.355 361.54C509.502 361.727 510.601 362.136 511.591 362.744C516.811 365.766 521.046 373.063 521.021 379.083C521.021 382.828 519.35 385.164 516.836 385.669L523.139 410.424L525.111 418.227L497.806 402.418Z" fill="#3A4151"/>
<path id="Vector_71" d="M503.532 399.069L511.952 376.192C509.441 372.909 508.001 368.933 507.826 364.802C507.814 363.692 507.993 362.588 508.355 361.539C509.502 361.726 510.601 362.135 511.591 362.743C516.811 365.765 521.045 373.062 521.021 379.082C521.021 382.827 519.349 385.162 516.835 385.668L523.138 410.423L503.532 399.069Z" fill="#323944"/>
<path id="Vector_72" d="M513.84 255.896C513.265 256.25 512.722 256.653 512.216 257.101L511.952 257.341C511.497 257.798 511.094 258.302 510.749 258.846L510.424 259.376L510.352 259.509C510.287 259.604 510.23 259.704 510.184 259.81C509.993 260.167 509.828 260.537 509.69 260.917C509.69 260.917 509.69 260.917 509.69 260.99C509.365 261.891 509.15 262.829 509.053 263.783V263.891C508.983 264.418 508.951 264.949 508.957 265.481L508.872 297.99V309.705C506.094 311.102 503.02 311.804 499.911 311.752V295.919V270.73C499.917 269.879 499.993 269.029 500.14 268.19C500.14 268.021 500.2 267.841 500.248 267.66C500.294 267.424 500.354 267.191 500.428 266.962C500.428 266.962 500.428 266.889 500.428 266.853C500.494 266.641 500.57 266.432 500.657 266.227C500.645 266.192 500.645 266.154 500.657 266.119C500.729 265.95 500.789 265.794 500.861 265.637C500.898 265.499 500.95 265.366 501.018 265.24C501.061 265.184 501.097 265.124 501.126 265.059C501.276 264.736 501.453 264.426 501.655 264.132C501.655 264.132 501.655 264.132 501.715 264.132C501.894 263.865 502.087 263.608 502.293 263.362C502.509 263.121 502.726 262.88 502.954 262.651C503.024 262.552 503.114 262.47 503.219 262.41C503.463 262.182 503.72 261.969 503.989 261.772C504.219 261.584 504.469 261.423 504.735 261.291C504.81 261.225 504.891 261.164 504.975 261.11L513.84 255.896Z" fill="#323944"/>
<path id="Vector_73" d="M579.637 305.262V306.369L579.553 338.553V350.389C576.799 351.74 573.766 352.421 570.7 352.376H570.591V336.543L570.651 311.595C570.656 310.275 570.584 308.957 570.435 307.646C570.363 307.007 570.279 306.345 570.17 305.683C570.17 305.599 570.17 305.49 570.17 305.394C570.086 304.888 570.002 304.359 569.882 303.853C569.893 303.781 569.893 303.708 569.882 303.636C569.617 302.36 569.304 301.059 568.931 299.759C568.931 299.578 568.823 299.422 568.775 299.253C568.607 298.675 568.426 298.122 568.234 297.556C568.041 296.99 567.789 296.231 567.548 295.569C567.308 294.907 567.079 294.365 566.838 293.763C566.538 292.968 566.177 292.174 565.828 291.355C565.782 291.271 565.745 291.182 565.72 291.09C565.72 291.09 565.72 291.03 565.648 290.982C565.01 289.573 564.312 288.14 563.543 286.731C563.254 286.153 562.941 285.599 562.616 285.034C562.195 284.275 561.774 283.529 561.317 282.782C560.86 282.036 560.295 281.217 559.79 280.446C559.549 280.049 559.308 279.651 559.044 279.242L558.779 278.845C558.735 278.775 558.682 278.71 558.623 278.652C556.794 275.963 554.827 273.37 552.729 270.886C552.596 270.717 552.44 270.561 552.308 270.404C551.333 269.2 550.347 268.129 549.313 267.057C549.173 266.885 549.02 266.724 548.856 266.576C548.326 266.022 547.797 265.468 547.244 264.914C546.69 264.36 545.969 263.638 545.307 263.024C544.309 262.096 543.322 261.169 542.288 260.266C540.508 258.725 538.679 257.264 536.803 255.884L535.708 255.089C533.685 253.632 531.589 252.277 529.429 251.031C528.696 250.61 527.998 250.237 527.288 249.827C526.578 249.418 525.7 249.008 524.882 248.623C524.341 248.358 523.788 248.117 523.259 247.877L522.573 247.564L521.755 247.239C520.288 246.624 518.832 246.035 517.401 245.649C517.345 245.637 517.289 245.629 517.232 245.625L516.703 245.493C516.462 245.396 516.222 245.36 516.005 245.288C515.789 245.216 515.404 245.107 515.127 245.047H515.055L514.466 244.915C513.936 244.782 513.443 244.674 512.938 244.59C512.661 244.517 512.349 244.481 512.06 244.433C512.008 244.422 511.955 244.422 511.904 244.433L510.833 244.253H510.58C509.918 244.157 509.252 244.097 508.584 244.072C508.16 244.024 507.735 244 507.309 244H506.671C506.02 243.995 505.37 244.027 504.722 244.096H504.602H504.109C503.903 244.107 503.698 244.131 503.495 244.168C503.309 244.183 503.124 244.211 502.942 244.253H502.882C502.726 244.253 502.569 244.325 502.413 244.337C502.04 244.409 501.667 244.469 501.294 244.578C501.234 244.568 501.174 244.568 501.114 244.578C501.009 244.578 500.907 244.603 500.813 244.65C500.542 244.708 500.277 244.788 500.019 244.891C499.811 244.933 499.606 244.989 499.406 245.059C499.406 245.059 499.334 245.059 499.31 245.059C499.285 245.059 499.31 245.059 499.31 245.059C498.866 245.209 498.432 245.386 498.01 245.589L497.854 245.649C497.574 245.775 497.301 245.916 497.036 246.071C496.852 246.142 496.674 246.231 496.507 246.336L505.492 241.11C506.393 240.592 507.34 240.157 508.319 239.81C508.354 239.798 508.392 239.798 508.427 239.81C509.213 239.534 510.017 239.312 510.833 239.147L511.098 239.075H511.398C511.952 238.967 512.529 238.907 513.094 238.834H513.467H513.588C514.261 238.834 514.947 238.75 515.669 238.75H516.029C516.583 238.75 517.136 238.75 517.713 238.75H517.798C518.086 238.75 518.387 238.822 518.676 238.834L519.806 238.955H519.915C520.288 238.955 520.66 239.087 521.057 239.135C521.454 239.183 521.611 239.22 521.887 239.292H521.984C522.645 239.424 523.319 239.581 524.028 239.749C524.69 239.906 525.364 240.099 526.025 240.303C526.061 240.293 526.098 240.293 526.133 240.303C526.367 240.363 526.596 240.44 526.819 240.532C527.264 240.664 527.685 240.797 528.094 240.953C528.178 240.97 528.259 240.999 528.335 241.038C528.622 241.122 528.904 241.227 529.177 241.351C529.501 241.483 529.838 241.592 530.187 241.724C530.315 241.79 530.448 241.847 530.584 241.893L531.486 242.29C531.751 242.398 532.015 242.495 532.28 242.627C532.487 242.709 532.688 242.805 532.882 242.916C533.203 243.041 533.516 243.186 533.82 243.349C534.024 243.434 534.217 243.53 534.421 243.638C534.626 243.747 534.974 243.903 535.227 244.036C535.48 244.168 535.853 244.361 536.153 244.541C536.308 244.599 536.457 244.672 536.598 244.758L538.318 245.709C538.487 245.818 538.667 245.902 538.824 246.022C539.594 246.456 540.339 246.925 541.085 247.407C541.47 247.624 541.843 247.889 542.216 248.13C542.397 248.268 542.586 248.396 542.781 248.515L543.358 248.9C544.128 249.43 544.874 249.96 545.632 250.514L546.33 251.067C546.546 251.224 546.775 251.368 546.991 251.549C547.208 251.73 547.605 252.019 547.917 252.283C548.711 252.873 549.457 253.488 550.227 254.15L550.467 254.366C550.616 254.485 550.757 254.614 550.888 254.752C551.418 255.185 551.947 255.631 552.476 256.112C553.005 256.594 553.619 257.148 554.172 257.702C554.284 257.785 554.385 257.882 554.473 257.991C554.535 258.022 554.589 258.067 554.629 258.123C555.335 258.789 556.021 259.464 556.686 260.146L557.733 261.254C557.889 261.398 558.045 261.579 558.202 261.735C558.358 261.892 558.466 262 558.599 262.157C559.188 262.795 559.802 263.481 560.379 264.131C560.668 264.444 560.932 264.782 561.197 265.083L561.594 265.564C561.75 265.745 561.919 265.925 562.051 266.094C562.652 266.804 563.194 267.491 563.747 268.189C563.952 268.454 564.144 268.719 564.36 268.984C564.577 269.249 564.697 269.405 564.854 269.622L565.491 270.465C566.02 271.187 566.526 271.946 567.055 272.668L567.644 273.523L567.801 273.752C568.113 274.185 568.378 274.679 568.679 275.112C569.256 276.039 569.882 276.942 570.399 277.845L570.603 278.183C571.241 279.218 571.806 280.278 572.384 281.325C572.384 281.421 572.468 281.506 572.516 281.59C572.579 281.699 572.636 281.811 572.684 281.927C572.949 282.433 573.214 282.914 573.466 283.42C573.719 283.926 573.971 284.444 574.212 284.949C574.344 285.226 574.453 285.515 574.585 285.78C574.629 285.865 574.665 285.954 574.693 286.045C574.765 286.177 574.825 286.334 574.898 286.466C575.114 286.948 575.307 287.418 575.511 287.899C575.716 288.381 575.884 288.826 576.076 289.284C576.173 289.525 576.257 289.778 576.341 290.018C576.363 290.102 576.395 290.183 576.437 290.259C576.485 290.407 576.541 290.552 576.606 290.693C576.762 291.186 576.942 291.644 577.099 292.113C577.255 292.583 577.4 293.053 577.532 293.522C577.604 293.739 577.664 293.956 577.736 294.184C577.809 294.413 577.736 294.341 577.797 294.425C577.858 294.591 577.91 294.76 577.953 294.931C578.085 295.412 578.218 295.882 578.326 296.34C578.434 296.797 578.542 297.243 578.639 297.688C578.639 297.881 578.723 298.11 578.771 298.302C578.765 298.37 578.765 298.439 578.771 298.507C578.771 298.675 578.843 298.856 578.867 299.013C578.951 299.446 579.023 299.892 579.108 300.313C579.192 300.734 579.216 301.144 579.288 301.517C579.36 301.89 579.288 302.023 579.348 302.288C579.36 302.339 579.36 302.393 579.348 302.444C579.354 302.548 579.354 302.653 579.348 302.757C579.348 303.155 579.42 303.564 579.444 303.961C579.468 304.359 579.613 304.888 579.637 305.262Z" fill="#323944"/>
<path id="Vector_74" d="M570.676 311.596L570.615 336.544V352.377C565.239 352.377 560.644 350.451 558.587 347.742V341.156L558.695 304.649C558.695 292.308 545.307 274.102 529.381 264.915C522.224 260.774 515.56 259.04 510.376 259.521C508.521 259.652 506.715 260.169 505.071 261.038C504.987 261.093 504.906 261.153 504.831 261.219C504.566 261.352 504.316 261.514 504.085 261.701C503.809 261.889 503.551 262.103 503.315 262.339C503.21 262.399 503.12 262.481 503.05 262.58C502.803 262.79 502.581 263.028 502.389 263.29C502.168 263.524 501.975 263.783 501.811 264.061C501.811 264.061 501.812 264.061 501.751 264.061C501.549 264.354 501.372 264.664 501.222 264.988C501.11 265.168 501.021 265.363 500.957 265.566C500.867 265.716 500.798 265.878 500.753 266.047C500.741 266.082 500.741 266.12 500.753 266.156C500.651 266.393 500.571 266.639 500.512 266.89C500.438 267.119 500.378 267.352 500.332 267.588C500.286 267.763 500.249 267.94 500.224 268.118C500.077 268.957 500.001 269.807 499.995 270.659V295.847V311.681C494.691 311.681 490.108 309.851 487.967 307.202V300.302L487.882 263.687C487.882 255.114 491.274 249.142 496.904 246.168C497.169 246.014 497.442 245.873 497.722 245.747L497.878 245.687C498.3 245.483 498.734 245.306 499.177 245.157C499.407 245.063 499.644 244.99 499.887 244.94C500.144 244.838 500.41 244.758 500.681 244.699C500.774 244.653 500.877 244.628 500.982 244.627C501.041 244.618 501.102 244.618 501.162 244.627L501.715 244.507C501.901 244.455 502.09 244.415 502.281 244.386C502.437 244.386 502.593 244.326 502.75 244.302H502.81C502.992 244.261 503.177 244.232 503.363 244.218C503.566 244.181 503.771 244.157 503.977 244.146C504.181 244.127 504.386 244.127 504.59 244.146C505.237 244.077 505.888 244.044 506.539 244.049H507.176C507.602 244.05 508.028 244.074 508.451 244.122C509.12 244.146 509.786 244.207 510.448 244.302C510.892 244.342 511.334 244.406 511.771 244.495C511.823 244.483 511.876 244.483 511.928 244.495C512.216 244.495 512.529 244.579 512.806 244.651C513.311 244.736 513.804 244.844 514.333 244.976C514.863 245.109 515.344 245.217 515.873 245.374C516.09 245.446 516.33 245.482 516.571 245.578L517.28 245.771C518.712 246.217 520.167 246.746 521.635 247.36C522.152 247.553 522.633 247.782 523.138 247.999C523.644 248.215 524.221 248.48 524.762 248.745L526.182 249.455C526.482 249.624 526.819 249.781 527.12 249.937C527.83 250.334 528.527 250.708 529.261 251.141C531.421 252.387 533.516 253.741 535.54 255.199L536.634 255.993C538.511 257.374 540.339 258.835 542.12 260.376C543.154 261.279 544.14 262.206 545.139 263.133C545.8 263.748 546.438 264.338 547.075 265.024C547.713 265.71 548.158 266.132 548.687 266.685C548.852 266.834 549.005 266.995 549.144 267.167C550.179 268.239 551.165 269.37 552.139 270.514C552.272 270.671 552.428 270.827 552.56 270.996C554.659 273.48 556.626 276.073 558.454 278.762C558.608 278.949 558.749 279.146 558.875 279.352C559.669 280.556 560.415 281.688 561.149 282.88C561.606 283.626 562.027 284.373 562.448 285.131C562.773 285.697 563.086 286.251 563.374 286.829C564.144 288.238 564.842 289.671 565.479 291.079C565.551 291.212 565.612 291.344 565.66 291.453C566.008 292.247 566.369 293.042 566.67 293.861C566.911 294.451 567.151 295.065 567.38 295.667C567.608 296.269 567.861 296.991 568.065 297.654C568.27 298.316 568.438 298.773 568.607 299.351C568.607 299.52 568.715 299.676 568.763 299.857C569.136 301.157 569.473 302.458 569.713 303.734C569.725 303.806 569.725 303.879 569.713 303.951C569.834 304.456 569.918 304.986 570.002 305.492C570.002 305.588 570.002 305.697 570.002 305.781C570.11 306.443 570.194 307.081 570.267 307.743C570.476 309.019 570.613 310.305 570.676 311.596Z" fill="#3A4151"/>
<path id="Vector_75" d="M407.832 148.868C408.435 149.266 408.937 149.8 409.297 150.427C409.656 151.055 409.863 151.758 409.901 152.48L409.732 212.598C409.732 217.896 405.955 220.052 401.312 217.415L342.817 183.557C340.391 181.974 338.372 179.84 336.924 177.33C335.475 174.82 334.638 172.003 334.481 169.108L334.649 108.99C334.649 107.666 335.6 107.124 336.742 107.786L343.021 111.398V101.766C343.021 83.1995 356.253 75.6862 372.383 85.0176C388.514 94.3489 401.613 117.033 401.553 135.588V145.22L407.832 148.868ZM389.007 138.032V128.399C389.007 117.78 381.561 104.824 372.347 99.5023C363.133 94.1804 355.591 98.4668 355.567 109.074V118.707L389.019 137.972L389.007 138.032ZM378.422 182.16L377.135 167.712C379.288 167.158 380.575 165.063 380.575 161.956C380.422 159.061 379.587 156.242 378.138 153.731C376.69 151.22 374.668 149.087 372.239 147.508C367.632 144.847 363.819 146.99 363.819 152.324C363.954 155.827 365.14 159.209 367.223 162.028L365.864 174.912C365.822 175.668 365.997 176.42 366.369 177.079C366.733 177.775 367.272 178.365 367.933 178.789L376.353 183.605C376.577 183.769 376.843 183.865 377.121 183.882C377.398 183.899 377.674 183.836 377.916 183.701C378.132 183.509 378.295 183.263 378.388 182.989C378.48 182.714 378.5 182.421 378.446 182.136" fill="#D5D7E2"/>
<path id="Vector_76" d="M403.465 281.073C404.361 281.639 405.11 282.41 405.649 283.323C406.189 284.236 406.504 285.264 406.569 286.322V294.751C406.569 296.677 405.185 297.46 403.513 296.497L334.397 256.582C333.513 256.006 332.776 255.229 332.248 254.315C331.719 253.401 331.413 252.375 331.354 251.321V242.892C331.354 240.954 332.737 240.183 334.409 241.158L403.465 281.073Z" fill="#D5D7E2"/>
</g>
</g>
</g>
<defs>
<clipPath id="clip0">
<rect width="601" height="470" fill="white"/>
</clipPath>
</defs>
</svg>
