<svg width="722" height="457" viewBox="0 0 722 457" fill="none" xmlns="http://www.w3.org/2000/svg">
<g id="Asset 123" clip-path="url(#clip0)">
<g id="Layer 2">
<g id="Layer 1">
<path id="Vector" d="M683.903 291.598C658.386 357.675 610.414 415.566 543.779 441.008C535.113 444.312 526.263 447.114 517.275 449.402C469.735 461.553 417.725 457.308 373.901 435.219C355.302 425.836 338.341 413.438 319.674 404.19C301.007 394.942 279.691 388.889 259.373 393.454C241.879 397.385 227.12 408.649 212.259 418.683C177.227 442.339 135.104 461.059 93.6214 452.934C74.5334 449.2 55.7372 438.857 46.8725 421.569C27.2792 383.347 64.2314 337.905 56.7478 295.635C51.9589 268.582 30.0863 248.323 16.4888 224.448C-6.78174 183.61 -4.03082 129.364 23.2539 91.0973C50.5386 52.831 100.909 32.5328 147.09 41.2136C203.4 51.7979 245.983 99.4693 300.744 116.331C334.99 126.871 372.172 123.726 404.88 109.846C457.726 87.4139 530.328 53.0107 589.799 58.6145C621.423 61.596 652.441 75.6336 673.314 99.604C699.701 129.863 707.611 172.824 703.21 212.724C700.189 239.736 693.7 266.246 683.903 291.598Z" fill="url(#paint0_linear)"/>
<path id="Vector_2" d="M700.88 343.863C699.707 343.862 698.538 343.72 697.399 343.442C693.796 342.556 690.667 340.328 688.65 337.213C686.634 334.098 685.883 330.33 686.549 326.68C687.216 323.029 689.251 319.771 692.239 317.57C695.226 315.37 698.941 314.392 702.624 314.838C706.308 315.284 709.682 317.119 712.059 319.968C714.435 322.818 715.635 326.468 715.412 330.172C715.19 333.876 713.562 337.356 710.861 339.9C708.16 342.445 704.59 343.862 700.88 343.863ZM700.84 321.302C698.908 321.308 697.044 322.021 695.601 323.307C694.158 324.594 693.236 326.364 693.009 328.283C692.782 330.203 693.265 332.139 694.367 333.727C695.47 335.314 697.115 336.443 698.993 336.901C700.002 337.145 701.049 337.189 702.075 337.029C703.101 336.869 704.085 336.508 704.972 335.968C705.858 335.428 706.63 334.718 707.242 333.879C707.854 333.041 708.295 332.09 708.54 331.081C708.785 330.071 708.828 329.024 708.669 327.998C708.509 326.972 708.148 325.988 707.608 325.101C707.067 324.214 706.358 323.443 705.519 322.831C704.681 322.218 703.73 321.777 702.721 321.532C702.106 321.379 701.474 321.3 700.84 321.296V321.302Z" fill="#E7F6FF"/>
<path id="Vector_3" d="M687.59 359.312C688.418 355.897 686.321 352.458 682.907 351.63C679.493 350.802 676.054 352.899 675.226 356.313C674.399 359.728 676.495 363.167 679.909 363.995C683.323 364.823 686.762 362.726 687.59 359.312Z" fill="#E7F6FF"/>
<path id="Vector_4" d="M30.9845 342.477C27.1284 342.393 23.4612 340.791 20.779 338.019C18.0967 335.247 16.616 331.529 16.6581 327.671C16.7002 323.814 18.2619 320.129 21.004 317.416C23.7462 314.703 27.4475 313.182 31.3045 313.182C35.1615 313.182 38.8628 314.703 41.605 317.416C44.3471 320.129 45.9088 323.814 45.9509 327.671C45.993 331.529 44.5123 335.247 41.83 338.019C39.1478 340.791 35.4806 342.393 31.6245 342.477H30.9845ZM30.9845 319.922H30.6533C28.5706 319.967 26.5899 320.832 25.141 322.329C23.6921 323.826 22.8921 325.834 22.9146 327.917C22.9372 330 23.7805 331.991 25.2614 333.456C26.7423 334.921 28.7414 335.743 30.8245 335.743C32.9076 335.743 34.9066 334.921 36.3876 333.456C37.8685 331.991 38.7118 330 38.7343 327.917C38.7569 325.834 37.9569 323.826 36.508 322.329C35.0591 320.832 33.0783 319.967 30.9957 319.922H30.9845Z" fill="#E7F6FF"/>
<path id="Vector_5" d="M20.5423 367.063C24.052 366.911 26.7745 363.943 26.6231 360.433C26.4717 356.922 23.5038 354.199 19.9941 354.351C16.4843 354.502 13.7619 357.471 13.9133 360.981C14.0647 364.491 17.0326 367.214 20.5423 367.063Z" fill="#E7F6FF"/>
<path id="Vector_6" d="M398.087 105.636C394.591 105.641 391.207 104.395 388.55 102.121C385.893 99.8482 384.138 96.6986 383.601 93.2428C383.065 89.787 383.784 86.2533 385.627 83.2815C387.47 80.3096 390.316 78.0959 393.65 77.0411C396.984 75.9863 400.585 76.16 403.802 77.5309C407.018 78.9018 409.638 81.3792 411.187 84.5147C412.735 87.6502 413.11 91.2366 412.244 94.6247C411.378 98.0129 409.327 100.979 406.463 102.986C404.009 104.706 401.085 105.631 398.087 105.636ZM398.042 83.103C395.999 83.101 394.033 83.8879 392.555 85.2996C391.078 86.7113 390.201 88.639 390.11 90.6808C390.018 92.7227 390.718 94.7212 392.063 96.2598C393.408 97.7984 395.295 98.7584 397.331 98.9397C399.366 99.121 401.393 98.5097 402.989 97.2331C404.585 95.9565 405.627 94.1132 405.897 92.0873C406.168 90.0613 405.646 88.0092 404.441 86.3584C403.236 84.7077 401.441 83.5858 399.429 83.2265C398.971 83.1449 398.507 83.1036 398.042 83.103Z" fill="#E7F6FF"/>
<path id="Vector_7" d="M368.228 104.827C371.105 102.81 371.801 98.8427 369.784 95.966C367.767 93.0893 363.8 92.3926 360.924 94.4099C358.048 96.4272 357.351 100.395 359.368 103.271C361.385 106.148 365.352 106.845 368.228 104.827Z" fill="#E7F6FF"/>
<path id="Vector_8" d="M721.977 181.095C721.977 174.921 719.525 169 715.16 164.634C710.795 160.268 704.874 157.815 698.701 157.815C698.185 157.815 697.674 157.815 697.169 157.866C697.202 157.36 697.219 156.849 697.219 156.333C697.23 153.016 696.533 149.735 695.173 146.71C693.813 143.685 691.823 140.985 689.335 138.792C686.848 136.598 683.92 134.962 680.749 133.992C677.577 133.022 674.236 132.741 670.947 133.168C667.658 133.595 664.499 134.72 661.68 136.468C658.861 138.215 656.448 140.545 654.603 143.301C652.758 146.056 651.523 149.175 650.98 152.447C650.438 155.719 650.601 159.069 651.458 162.274C648.645 160.233 645.411 158.849 641.993 158.221C638.575 157.594 635.06 157.741 631.706 158.65C628.352 159.559 625.244 161.207 622.61 163.474C619.976 165.742 617.883 168.57 616.485 171.752C615.086 174.933 614.418 178.388 614.529 181.862C614.64 185.336 615.527 188.74 617.125 191.827C618.724 194.913 620.992 197.602 623.766 199.696C626.539 201.791 629.745 203.238 633.151 203.931C634.541 207.619 636.845 210.894 639.846 213.448C642.847 216.002 646.448 217.752 650.31 218.534C654.173 219.316 658.17 219.105 661.928 217.92C665.687 216.735 669.083 214.615 671.798 211.759C674.577 213.856 677.79 215.304 681.202 215.995C684.614 216.686 688.137 216.602 691.512 215.751C694.888 214.9 698.029 213.302 700.705 211.076C703.382 208.85 705.525 206.051 706.976 202.887C711.392 201.206 715.193 198.221 717.872 194.329C720.551 190.436 721.983 185.821 721.977 181.095Z" fill="white"/>
<path id="Vector_9" d="M107.483 125.114C107.483 118.94 105.031 113.02 100.667 108.654C96.3033 104.289 90.3844 101.835 84.2121 101.834C83.6956 101.834 83.1848 101.834 82.6795 101.884C82.7132 101.379 82.73 100.868 82.73 100.351C82.7294 97.0428 82.0235 93.7722 80.6596 90.7578C79.2956 87.7434 77.3049 85.0544 74.82 82.8701C72.3352 80.6858 69.4133 79.0563 66.2492 78.0904C63.0852 77.1244 59.7516 76.8441 56.4706 77.2682C53.1897 77.6922 50.0369 78.8109 47.2223 80.5496C44.4077 82.2883 41.996 84.6071 40.148 87.3515C38.2999 90.0958 37.058 93.2026 36.5051 96.4648C35.9521 99.7269 36.1008 103.07 36.9411 106.27C34.128 104.229 30.8938 102.845 27.4758 102.218C24.0578 101.591 20.5427 101.737 17.1887 102.646C13.8346 103.555 10.7266 105.203 8.09268 107.471C5.4588 109.738 3.36591 112.566 1.96759 115.748C0.569268 118.93 -0.0989943 122.384 0.011844 125.858C0.122682 129.332 1.00981 132.737 2.60812 135.823C4.20643 138.909 6.47536 141.598 9.24841 143.693C12.0215 145.787 15.2283 147.234 18.6335 147.927C20.0251 151.612 22.3286 154.883 25.3286 157.435C28.3285 159.987 31.9267 161.735 35.7864 162.517C39.646 163.299 43.641 163.089 47.3974 161.906C51.1537 160.724 54.5486 158.607 57.2643 155.755C60.0427 157.852 63.2561 159.3 66.6678 159.991C70.0796 160.682 73.6029 160.598 76.9783 159.747C80.3536 158.896 83.4951 157.298 86.1714 155.072C88.8477 152.846 90.9907 150.047 92.4425 146.883C96.8622 145.21 100.668 142.231 103.355 138.343C106.041 134.454 107.481 129.84 107.483 125.114Z" fill="white"/>
<path id="Vector_10" d="M535.69 456.383H200.807V449.084H535.69C536.658 449.084 537.586 449.469 538.27 450.153C538.954 450.837 539.339 451.766 539.339 452.734C539.339 453.702 538.954 454.63 538.27 455.314C537.586 455.999 536.658 456.383 535.69 456.383Z" fill="#426572"/>
<path id="Vector_11" d="M185.828 456.383H165.353C164.385 456.383 163.457 455.999 162.773 455.314C162.089 454.63 161.704 453.702 161.704 452.734C161.704 451.766 162.089 450.837 162.773 450.153C163.457 449.469 164.385 449.084 165.353 449.084H185.828C186.796 449.084 187.724 449.469 188.408 450.153C189.093 450.837 189.477 451.766 189.477 452.734C189.477 453.702 189.093 454.63 188.408 455.314C187.724 455.999 186.796 456.383 185.828 456.383Z" fill="#426572"/>
<path id="Vector_12" d="M152.065 456.383H145.541C144.573 456.383 143.645 455.999 142.961 455.314C142.276 454.63 141.892 453.702 141.892 452.734C141.892 451.766 142.276 450.837 142.961 450.153C143.645 449.469 144.573 449.084 145.541 449.084H152.065C153.032 449.084 153.961 449.469 154.645 450.153C155.329 450.837 155.714 451.766 155.714 452.734C155.714 453.702 155.329 454.63 154.645 455.314C153.961 455.999 153.032 456.383 152.065 456.383Z" fill="#426572"/>
<path id="Vector_13" d="M653.115 456.383H550.185V449.084H653.115C654.082 449.084 655.011 449.469 655.695 450.153C656.379 450.837 656.764 451.766 656.764 452.734C656.764 453.702 656.379 454.63 655.695 455.314C655.011 455.999 654.082 456.383 653.115 456.383Z" fill="#426572"/>
<path id="Vector_14" d="M126.879 456.383H23.9443V449.084H126.879C127.847 449.084 128.775 449.469 129.46 450.153C130.144 450.837 130.529 451.766 130.529 452.734C130.529 453.702 130.144 454.63 129.46 455.314C128.775 455.999 127.847 456.383 126.879 456.383Z" fill="#426572"/>
<g id="Group" opacity="0.5">
<path id="Vector_15" opacity="0.5" d="M448.221 392.006H100.516V398.648H448.221V392.006Z" fill="white"/>
</g>
<path id="Vector_16" d="M478.51 184.301H130.804V315.439H478.51V184.301Z" fill="#FDE1CE"/>
<path id="Vector_17" d="M477.886 230.574H129.35V268.751H477.886V230.574Z" fill="white"/>
<path id="Vector_18" d="M477.886 208.166H129.35V211.069H477.886V208.166Z" fill="white"/>
<path id="Vector_19" d="M477.886 277.264H129.35V280.167H477.886V277.264Z" fill="white"/>
<path id="Vector_20" d="M477.886 286.602H129.35V289.505H477.886V286.602Z" fill="white"/>
<path id="Vector_21" d="M477.886 218.125H129.35V221.028H477.886V218.125Z" fill="white"/>
<path id="Vector_22" d="M476.432 184.717H128.727V191.359H476.432V184.717Z" fill="#EFC3A6"/>
<g id="Group_2" opacity="0.5">
<path id="Vector_23" opacity="0.5" d="M476.432 307.973H128.727V314.615H476.432V307.973Z" fill="white"/>
</g>
<path id="Vector_24" d="M480.946 318.185H126.498V180.314H480.946V318.185ZM133.24 311.447H474.209V187.052H133.235L133.24 311.447Z" fill="#426572"/>
<path id="Vector_25" d="M404.218 284.732L448.569 292.644C453.308 293.486 457.726 290.257 457.726 285.951V281.408L404.218 284.732Z" fill="#EFC3A6"/>
<path id="Vector_26" d="M330.796 284.732L375.148 292.644C379.886 293.486 384.305 290.257 384.305 285.951V281.408L330.796 284.732Z" fill="#EFC3A6"/>
<path id="Vector_27" d="M366.648 213.248H346.392C337.549 213.248 330.381 220.418 330.381 229.262V269.443C330.381 278.287 337.549 285.457 346.392 285.457H366.648C375.491 285.457 382.66 278.287 382.66 269.443V229.262C382.66 220.418 375.491 213.248 366.648 213.248Z" fill="#87D6FE"/>
<path id="Vector_28" d="M439.677 213.248H419.421C410.578 213.248 403.409 220.418 403.409 229.262V269.443C403.409 278.287 410.578 285.457 419.421 285.457H439.677C448.52 285.457 455.688 278.287 455.688 269.443V229.262C455.688 220.418 448.52 213.248 439.677 213.248Z" fill="#87D6FE"/>
<path id="Vector_29" d="M382.66 221.344V227.779C382.66 224.511 380.01 220.822 376.742 220.822L332.952 217.503C329.685 217.503 330.353 221.4 330.353 224.668V221.344C330.353 220.565 330.506 219.795 330.805 219.075C331.103 218.356 331.541 217.703 332.092 217.153C332.643 216.604 333.297 216.168 334.017 215.872C334.737 215.575 335.508 215.424 336.287 215.426H376.709C377.488 215.421 378.262 215.571 378.983 215.867C379.705 216.162 380.361 216.597 380.915 217.147C381.468 217.697 381.906 218.351 382.206 219.071C382.505 219.792 382.66 220.564 382.66 221.344Z" fill="#307FC3"/>
<path id="Vector_30" opacity="0.5" d="M382.452 220.725V230.742L331.032 217.654C331.559 216.785 332.301 216.067 333.186 215.569C334.071 215.07 335.069 214.808 336.085 214.807H376.506C377.286 214.803 378.058 214.953 378.78 215.249C379.501 215.545 380.156 215.98 380.709 216.53C381.261 217.08 381.7 217.734 381.999 218.454C382.298 219.173 382.452 219.945 382.452 220.725Z" fill="#4DA7DF"/>
<path id="Vector_31" d="M455.273 221.344V227.779C455.273 224.511 452.623 220.822 449.356 220.822L405.565 217.504C402.298 217.504 402.966 221.4 402.966 224.668V221.344C402.966 219.775 403.589 218.269 404.699 217.159C405.809 216.05 407.314 215.426 408.883 215.426H449.305C450.086 215.419 450.861 215.567 451.585 215.862C452.309 216.156 452.967 216.591 453.522 217.141C454.077 217.692 454.517 218.346 454.818 219.068C455.118 219.789 455.273 220.563 455.273 221.344Z" fill="#307FC3"/>
<path id="Vector_32" opacity="0.5" d="M455.065 220.727V230.744L403.656 217.65C404.183 216.781 404.925 216.063 405.81 215.565C406.695 215.066 407.693 214.804 408.709 214.803H449.131C449.91 214.801 450.681 214.952 451.402 215.249C452.122 215.546 452.776 215.982 453.328 216.532C453.879 217.083 454.316 217.736 454.615 218.456C454.913 219.176 455.066 219.948 455.065 220.727Z" fill="#4DA7DF"/>
<path id="Vector_33" d="M455.688 248.363H402.786V251.171H455.688V248.363Z" fill="#426572"/>
<path id="Vector_34" d="M431.368 212.629H428.561V284.422H431.368V212.629Z" fill="#426572"/>
<path id="Vector_35" d="M439.677 289.241H419.415C414.277 289.235 409.351 287.191 405.718 283.557C402.085 279.924 400.041 274.997 400.035 269.858V229.654C400.041 224.516 402.085 219.589 405.718 215.955C409.351 212.321 414.277 210.277 419.415 210.271H439.677C444.815 210.277 449.741 212.321 453.374 215.955C457.007 219.589 459.051 224.516 459.057 229.654V269.841C459.055 274.983 457.013 279.914 453.38 283.551C449.746 287.189 444.818 289.235 439.677 289.241ZM419.415 217.032C416.068 217.036 412.859 218.367 410.49 220.733C408.121 223.099 406.787 226.307 406.778 229.654V269.841C406.781 273.194 408.114 276.408 410.484 278.779C412.854 281.15 416.069 282.483 419.421 282.486H439.682C443.034 282.483 446.249 281.15 448.619 278.779C450.989 276.408 452.322 273.194 452.325 269.841V229.654C452.322 226.302 450.989 223.087 448.619 220.716C446.249 218.346 443.034 217.012 439.682 217.009L419.415 217.032Z" fill="#426572"/>
<path id="Vector_36" d="M382.66 248.363H329.758V251.171H382.66V248.363Z" fill="#426572"/>
<path id="Vector_37" d="M358.339 212.629H355.532V284.422H358.339V212.629Z" fill="#426572"/>
<path id="Vector_38" d="M366.654 289.24H346.392C341.254 289.234 336.328 287.19 332.695 283.556C329.062 279.923 327.018 274.996 327.012 269.857V229.654C327.024 224.519 329.07 219.598 332.703 215.969C336.335 212.34 341.258 210.299 346.392 210.293H366.654C371.787 210.3 376.708 212.342 380.339 215.971C383.971 219.599 386.016 224.52 386.028 229.654V269.84C386.027 274.981 383.986 279.911 380.353 283.548C376.721 287.186 371.794 289.233 366.654 289.24ZM346.392 217.031C343.044 217.034 339.833 218.364 337.463 220.73C335.094 223.096 333.758 226.305 333.749 229.654V269.84C333.748 273.196 335.079 276.415 337.45 278.789C339.82 281.164 343.037 282.499 346.392 282.502H366.654C370.006 282.499 373.22 281.166 375.59 278.795C377.961 276.424 379.294 273.21 379.297 269.857V229.654C379.294 226.301 377.961 223.086 375.59 220.715C373.22 218.345 370.006 217.012 366.654 217.009L346.392 217.031Z" fill="#426572"/>
<path id="Vector_39" d="M236.192 284.732L280.544 292.644C285.282 293.486 289.701 290.257 289.701 285.951V281.408L236.192 284.732Z" fill="#EFC3A6"/>
<path id="Vector_40" d="M162.754 284.732L207.106 292.644C211.844 293.486 216.262 290.257 216.262 285.951V281.408L162.754 284.732Z" fill="#EFC3A6"/>
<path id="Vector_41" d="M198.606 213.248H178.35C169.507 213.248 162.339 220.418 162.339 229.262V269.443C162.339 278.287 169.507 285.457 178.35 285.457H198.606C207.449 285.457 214.617 278.287 214.617 269.443V229.262C214.617 220.418 207.449 213.248 198.606 213.248Z" fill="#87D6FE"/>
<path id="Vector_42" d="M271.629 213.248H251.373C242.53 213.248 235.361 220.418 235.361 229.262V269.443C235.361 278.287 242.53 285.457 251.373 285.457H271.629C280.472 285.457 287.64 278.287 287.64 269.443V229.262C287.64 220.418 280.472 213.248 271.629 213.248Z" fill="#87D6FE"/>
<path id="Vector_43" d="M214.617 221.344V227.779C214.617 224.511 211.967 220.822 208.7 220.822L164.91 217.504C161.642 217.504 162.31 221.4 162.31 224.668V221.344C162.31 219.775 162.934 218.269 164.043 217.159C165.153 216.05 166.658 215.426 168.227 215.426H208.649C209.431 215.419 210.205 215.567 210.929 215.862C211.653 216.156 212.311 216.591 212.866 217.141C213.421 217.692 213.861 218.346 214.162 219.068C214.462 219.789 214.617 220.563 214.617 221.344Z" fill="#307FC3"/>
<path id="Vector_44" opacity="0.5" d="M214.41 220.725V230.742L162.99 217.654C163.517 216.785 164.259 216.067 165.143 215.569C166.028 215.07 167.027 214.808 168.042 214.807H208.464C209.244 214.803 210.016 214.953 210.737 215.249C211.458 215.545 212.114 215.98 212.667 216.53C213.219 217.08 213.657 217.734 213.957 218.454C214.256 219.173 214.41 219.945 214.41 220.725Z" fill="#4DA7DF"/>
<path id="Vector_45" d="M287.23 221.344V227.779C287.23 224.511 284.58 220.822 281.313 220.822L237.523 217.503C234.255 217.503 234.923 221.4 234.923 224.668V221.344C234.923 220.567 235.077 219.796 235.374 219.078C235.672 218.36 236.109 217.707 236.659 217.157C237.209 216.608 237.862 216.172 238.58 215.875C239.299 215.578 240.069 215.425 240.846 215.426H281.268C282.049 215.42 282.823 215.569 283.546 215.863C284.269 216.158 284.927 216.593 285.481 217.143C286.036 217.694 286.475 218.348 286.776 219.069C287.076 219.79 287.23 220.563 287.23 221.344Z" fill="#307FC3"/>
<path id="Vector_46" opacity="0.5" d="M287.023 220.725V230.742L235.603 217.654C236.13 216.785 236.872 216.067 237.757 215.569C238.642 215.07 239.64 214.808 240.656 214.807H281.077C281.857 214.803 282.629 214.953 283.351 215.249C284.072 215.545 284.727 215.98 285.28 216.53C285.832 217.08 286.271 217.734 286.57 218.454C286.869 219.173 287.023 219.945 287.023 220.725Z" fill="#4DA7DF"/>
<path id="Vector_47" d="M287.64 248.363H234.738V251.171H287.64V248.363Z" fill="#426572"/>
<path id="Vector_48" d="M263.32 212.629H260.513V284.422H263.32V212.629Z" fill="#426572"/>
<path id="Vector_49" d="M271.634 289.241H251.373C246.235 289.235 241.309 287.191 237.676 283.557C234.043 279.924 231.999 274.997 231.993 269.858V229.654C231.999 224.516 234.043 219.589 237.676 215.955C241.309 212.321 246.235 210.277 251.373 210.271H271.634C276.772 210.277 281.698 212.321 285.331 215.955C288.965 219.589 291.008 224.516 291.014 229.654V269.841C291.013 274.983 288.971 279.914 285.337 283.551C281.704 287.189 276.775 289.235 271.634 289.241ZM251.373 217.032C248.025 217.035 244.814 218.365 242.444 220.731C240.074 223.097 238.739 226.306 238.73 229.654V269.841C238.733 273.194 240.066 276.408 242.436 278.779C244.807 281.15 248.021 282.483 251.373 282.486H271.634C274.987 282.483 278.201 281.15 280.571 278.779C282.941 276.408 284.274 273.194 284.277 269.841V229.654C284.274 226.302 282.941 223.087 280.571 220.716C278.201 218.346 274.987 217.012 271.634 217.009L251.373 217.032Z" fill="#426572"/>
<path id="Vector_50" d="M214.617 248.363H161.715V251.171H214.617V248.363Z" fill="#426572"/>
<path id="Vector_51" d="M190.297 212.629H187.49V284.422H190.297V212.629Z" fill="#426572"/>
<path id="Vector_52" d="M198.606 289.241H178.344C173.206 289.235 168.28 287.191 164.647 283.557C161.014 279.924 158.97 274.997 158.964 269.858V229.654C158.97 224.516 161.014 219.589 164.647 215.955C168.28 212.321 173.206 210.277 178.344 210.271H198.606C203.744 210.277 208.67 212.321 212.303 215.955C215.936 219.589 217.98 224.516 217.986 229.654V269.841C217.984 274.983 215.942 279.914 212.309 283.551C208.675 287.189 203.747 289.235 198.606 289.241ZM178.344 217.032C174.997 217.036 171.788 218.367 169.419 220.733C167.051 223.099 165.716 226.307 165.707 229.654V269.841C165.71 273.194 167.043 276.408 169.413 278.779C171.784 281.15 174.998 282.483 178.35 282.486H198.611C201.964 282.483 205.178 281.15 207.548 278.779C209.918 276.408 211.251 273.194 211.254 269.841V229.654C211.251 226.302 209.918 223.087 207.548 220.716C205.178 218.346 201.964 217.012 198.611 217.009L178.344 217.032Z" fill="#426572"/>
<path id="Vector_53" d="M478.51 45.4922H130.804V176.631H478.51V45.4922Z" fill="#FDE1CE"/>
<path id="Vector_54" d="M477.886 93.6309H129.35V131.807H477.886V93.6309Z" fill="white"/>
<path id="Vector_55" d="M477.886 71.2207H129.35V74.1237H477.886V71.2207Z" fill="white"/>
<path id="Vector_56" d="M477.886 140.312H129.35V143.215H477.886V140.312Z" fill="white"/>
<path id="Vector_57" d="M477.886 149.652H129.35V152.555H477.886V149.652Z" fill="white"/>
<path id="Vector_58" d="M477.886 81.1816H129.35V84.0846H477.886V81.1816Z" fill="white"/>
<path id="Vector_59" d="M476.432 45.9023H128.727V52.5449H476.432V45.9023Z" fill="#EFC3A6"/>
<g id="Group_3" opacity="0.5">
<path id="Vector_60" opacity="0.5" d="M476.432 169.158H128.727V175.801H476.432V169.158Z" fill="white"/>
</g>
<path id="Vector_61" d="M480.946 179.371H126.498V41.5H480.946V179.371ZM133.24 172.633H474.209V48.238H133.235L133.24 172.633Z" fill="#426572"/>
<path id="Vector_62" d="M404.218 145.917L448.569 153.829C453.308 154.671 457.726 151.442 457.726 147.136V142.621L404.218 145.917Z" fill="#EFC3A6"/>
<path id="Vector_63" d="M330.796 145.917L375.148 153.829C379.886 154.671 384.305 151.442 384.305 147.136V142.621L330.796 145.917Z" fill="#EFC3A6"/>
<path id="Vector_64" d="M366.648 74.4375H346.392C337.549 74.4375 330.381 81.6072 330.381 90.4515V130.632C330.381 139.477 337.549 146.647 346.392 146.647H366.648C375.491 146.647 382.66 139.477 382.66 130.632V90.4515C382.66 81.6072 375.491 74.4375 366.648 74.4375Z" fill="#87D6FE"/>
<path id="Vector_65" d="M439.677 74.4375H419.421C410.578 74.4375 403.409 81.6072 403.409 90.4515V130.632C403.409 139.477 410.578 146.647 419.421 146.647H439.677C448.52 146.647 455.688 139.477 455.688 130.632V90.4515C455.688 81.6072 448.52 74.4375 439.677 74.4375Z" fill="#87D6FE"/>
<path id="Vector_66" d="M382.66 82.5411V88.9759C382.66 85.708 380.01 82.0189 376.742 82.0189L332.952 78.7005C329.685 78.7005 330.353 82.5973 330.353 85.8652V82.5411C330.352 81.762 330.505 80.9905 330.803 80.2707C331.101 79.5509 331.538 78.8971 332.09 78.3467C332.641 77.7963 333.296 77.3602 334.016 77.0635C334.736 76.7667 335.508 76.6151 336.287 76.6173H376.709C377.489 76.6128 378.262 76.7628 378.985 77.0586C379.707 77.3544 380.363 77.7901 380.917 78.3407C381.47 78.8913 381.908 79.5459 382.208 80.2668C382.507 80.9877 382.66 81.7606 382.66 82.5411Z" fill="#307FC3"/>
<path id="Vector_67" opacity="0.5" d="M382.452 81.9122V91.9294L331.032 78.8352C331.559 77.9668 332.301 77.2488 333.186 76.7502C334.071 76.2516 335.069 75.9893 336.085 75.9883H376.506C377.286 75.9846 378.059 76.1352 378.781 76.4313C379.502 76.7274 380.158 77.1633 380.711 77.7138C381.263 78.2643 381.702 78.9186 382 79.6391C382.299 80.3597 382.453 81.1322 382.452 81.9122Z" fill="#4DA7DF"/>
<path id="Vector_68" d="M455.273 82.5415V88.9763C455.273 85.7084 452.623 82.0193 449.356 82.0193L405.565 78.7008C402.298 78.7008 402.966 82.5976 402.966 85.8656V82.5415C402.966 80.9719 403.589 79.4665 404.699 78.3567C405.809 77.2468 407.314 76.6233 408.883 76.6233H449.305C450.086 76.6166 450.861 76.7647 451.585 77.0592C452.309 77.3536 452.967 77.7885 453.522 78.3387C454.077 78.8889 454.517 79.5436 454.818 80.2649C455.118 80.9863 455.273 81.76 455.273 82.5415Z" fill="#307FC3"/>
<path id="Vector_69" opacity="0.5" d="M455.065 81.9121V91.9293L403.656 78.8351C404.183 77.9668 404.925 77.2488 405.81 76.7502C406.695 76.2516 407.693 75.9892 408.709 75.9883H449.131C449.91 75.9861 450.681 76.1377 451.402 76.4345C452.122 76.7313 452.776 77.1674 453.328 77.7177C453.879 78.2681 454.316 78.9219 454.615 79.6417C454.913 80.3615 455.066 81.1331 455.065 81.9121Z" fill="#4DA7DF"/>
<path id="Vector_70" d="M455.688 109.549H402.786V112.356H455.688V109.549Z" fill="#426572"/>
<path id="Vector_71" d="M431.368 73.8145H428.561V145.608H431.368V73.8145Z" fill="#426572"/>
<path id="Vector_72" d="M439.677 150.426H419.415C414.277 150.42 409.351 148.376 405.718 144.742C402.085 141.108 400.041 136.181 400.035 131.043V90.8615C400.041 85.7227 402.085 80.796 405.718 77.1622C409.351 73.5285 414.277 71.4845 419.415 71.4785H439.677C444.815 71.4845 449.741 73.5285 453.374 77.1622C457.007 80.796 459.051 85.7227 459.057 90.8615V131.048C459.049 136.186 457.005 141.111 453.372 144.744C449.739 148.376 444.814 150.42 439.677 150.426ZM419.415 78.2165C416.063 78.2195 412.849 79.5527 410.478 81.9235C408.108 84.2942 406.775 87.5088 406.772 90.8615V131.048C406.775 134.401 408.108 137.615 410.478 139.986C412.849 142.357 416.063 143.69 419.415 143.693H439.677C443.029 143.69 446.243 142.357 448.613 139.986C450.984 137.615 452.317 134.401 452.32 131.048V90.8615C452.317 87.5088 450.984 84.2942 448.613 81.9235C446.243 79.5527 443.029 78.2195 439.677 78.2165H419.415Z" fill="#426572"/>
<path id="Vector_73" d="M382.66 109.549H329.758V112.356H382.66V109.549Z" fill="#426572"/>
<path id="Vector_74" d="M358.339 73.8145H355.532V145.608H358.339V73.8145Z" fill="#426572"/>
<path id="Vector_75" d="M366.654 150.426H346.392C341.254 150.42 336.328 148.376 332.695 144.742C329.062 141.108 327.018 136.181 327.012 131.043V90.8615C327.018 85.7227 329.062 80.796 332.695 77.1622C336.328 73.5285 341.254 71.4845 346.392 71.4785H366.654C371.792 71.4845 376.718 73.5285 380.351 77.1622C383.984 80.796 386.028 85.7227 386.034 90.8615V131.048C386.026 136.186 383.982 141.111 380.349 144.744C376.716 148.376 371.791 150.42 366.654 150.426ZM346.392 78.2165C343.04 78.2195 339.826 79.5527 337.456 81.9235C335.085 84.2942 333.752 87.5088 333.749 90.8615V131.048C333.754 134.4 335.087 137.613 337.457 139.983C339.828 142.352 343.041 143.685 346.392 143.688H366.654C370.006 143.685 373.22 142.351 375.59 139.981C377.961 137.61 379.294 134.395 379.297 131.043V90.8615C379.294 87.5088 377.961 84.2942 375.59 81.9235C373.22 79.5527 370.006 78.2195 366.654 78.2165H346.392Z" fill="#426572"/>
<path id="Vector_76" d="M236.192 145.917L280.544 153.829C285.282 154.671 289.701 151.442 289.701 147.136V142.621L236.192 145.917Z" fill="#EFC3A6"/>
<path id="Vector_77" d="M162.754 145.917L207.106 153.829C211.844 154.671 216.262 151.442 216.262 147.136V142.621L162.754 145.917Z" fill="#EFC3A6"/>
<path id="Vector_78" d="M198.606 74.4375H178.35C169.507 74.4375 162.339 81.6072 162.339 90.4515V130.632C162.339 139.477 169.507 146.647 178.35 146.647H198.606C207.449 146.647 214.617 139.477 214.617 130.632V90.4515C214.617 81.6072 207.449 74.4375 198.606 74.4375Z" fill="#87D6FE"/>
<path id="Vector_79" d="M271.629 74.4375H251.373C242.53 74.4375 235.361 81.6072 235.361 90.4515V130.632C235.361 139.477 242.53 146.647 251.373 146.647H271.629C280.472 146.647 287.64 139.477 287.64 130.632V90.4515C287.64 81.6072 280.472 74.4375 271.629 74.4375Z" fill="#87D6FE"/>
<path id="Vector_80" d="M214.617 82.5415V88.9763C214.617 85.7084 211.967 82.0193 208.7 82.0193L164.91 78.7008C161.642 78.7008 162.31 82.5976 162.31 85.8656V82.5415C162.31 80.9719 162.934 79.4665 164.043 78.3567C165.153 77.2468 166.658 76.6233 168.227 76.6233H208.649C209.431 76.6166 210.205 76.7647 210.929 77.0592C211.653 77.3536 212.311 77.7885 212.866 78.3387C213.421 78.8889 213.861 79.5436 214.162 80.2649C214.462 80.9863 214.617 81.76 214.617 82.5415Z" fill="#307FC3"/>
<path id="Vector_81" opacity="0.5" d="M214.41 81.9122V91.9294L162.99 78.8352C163.517 77.9668 164.259 77.2488 165.143 76.7502C166.028 76.2516 167.027 75.9893 168.042 75.9883H208.464C209.244 75.9846 210.017 76.1352 210.739 76.4313C211.46 76.7274 212.116 77.1633 212.669 77.7138C213.221 78.2643 213.659 78.9186 213.958 79.6391C214.257 80.3597 214.41 81.1322 214.41 81.9122Z" fill="#4DA7DF"/>
<path id="Vector_82" d="M287.23 82.5412V88.976C287.23 85.7081 284.58 82.019 281.313 82.019L237.523 78.7005C234.255 78.7005 234.923 82.5973 234.923 85.8653V82.5412C234.923 81.7631 235.075 80.9924 235.373 80.2734C235.67 79.5543 236.106 78.901 236.657 78.3508C237.207 77.8005 237.86 77.3642 238.579 77.0668C239.298 76.7693 240.068 76.6166 240.846 76.6174H281.268C282.049 76.6114 282.824 76.7603 283.548 77.0554C284.271 77.3505 284.929 77.786 285.483 78.3368C286.038 78.8875 286.477 79.5426 286.777 80.2642C287.077 80.9859 287.231 81.7597 287.23 82.5412Z" fill="#307FC3"/>
<path id="Vector_83" opacity="0.5" d="M287.023 81.9122V91.9294L235.597 78.8352C236.124 77.9669 236.866 77.2488 237.751 76.7503C238.636 76.2517 239.634 75.9893 240.65 75.9884H281.072C281.852 75.9839 282.626 76.1339 283.348 76.4297C284.07 76.7255 284.726 77.1612 285.28 77.7118C285.833 78.2624 286.272 78.917 286.571 79.6379C286.87 80.3588 287.023 81.1317 287.023 81.9122Z" fill="#4DA7DF"/>
<path id="Vector_84" d="M287.64 109.549H234.738V112.356H287.64V109.549Z" fill="#426572"/>
<path id="Vector_85" d="M263.32 73.8145H260.513V145.608H263.32V73.8145Z" fill="#426572"/>
<path id="Vector_86" d="M271.634 150.426H251.373C246.235 150.42 241.309 148.376 237.676 144.742C234.043 141.108 231.999 136.181 231.993 131.043V90.8615C231.999 85.7227 234.043 80.796 237.676 77.1622C241.309 73.5285 246.235 71.4845 251.373 71.4785H271.634C276.772 71.4845 281.698 73.5285 285.331 77.1622C288.965 80.796 291.008 85.7227 291.014 90.8615V131.048C291.007 136.186 288.962 141.111 285.329 144.744C281.696 148.376 276.771 150.42 271.634 150.426ZM251.373 78.2165C248.021 78.2195 244.807 79.5527 242.436 81.9235C240.066 84.2942 238.733 87.5088 238.73 90.8615V131.048C238.733 134.401 240.066 137.615 242.436 139.986C244.807 142.357 248.021 143.69 251.373 143.693H271.634C274.987 143.69 278.201 142.357 280.571 139.986C282.941 137.615 284.274 134.401 284.277 131.048V90.8615C284.274 87.5088 282.941 84.2942 280.571 81.9235C278.201 79.5527 274.987 78.2195 271.634 78.2165H251.373Z" fill="#426572"/>
<path id="Vector_87" d="M214.617 109.549H161.715V112.356H214.617V109.549Z" fill="#426572"/>
<path id="Vector_88" d="M190.297 73.8145H187.49V145.608H190.297V73.8145Z" fill="#426572"/>
<path id="Vector_89" d="M198.606 150.426H178.344C173.206 150.42 168.28 148.376 164.647 144.742C161.014 141.108 158.97 136.181 158.964 131.043V90.8615C158.97 85.7227 161.014 80.796 164.647 77.1622C168.28 73.5285 173.206 71.4845 178.344 71.4785H198.606C203.744 71.4845 208.67 73.5285 212.303 77.1622C215.936 80.796 217.98 85.7227 217.986 90.8615V131.048C217.978 136.186 215.934 141.111 212.301 144.744C208.668 148.376 203.743 150.42 198.606 150.426ZM178.344 78.2165C174.992 78.2195 171.778 79.5527 169.408 81.9235C167.037 84.2942 165.704 87.5088 165.701 90.8615V131.048C165.704 134.401 167.037 137.615 169.408 139.986C171.778 142.357 174.992 143.69 178.344 143.693H198.606C201.958 143.69 205.172 142.357 207.542 139.986C209.913 137.615 211.246 134.401 211.249 131.048V90.8615C211.246 87.5088 209.913 84.2942 207.542 81.9235C205.172 79.5527 201.958 78.2195 198.606 78.2165H178.344Z" fill="#426572"/>
<path id="Vector_90" d="M203.844 3.36914H171.877V32.9097H203.844V3.36914Z" fill="#DEE6F1"/>
<path id="Vector_91" d="M206 33.0213V33.2459H174.033V3.71094H176.132V33.0213H206Z" fill="white"/>
<path id="Vector_92" d="M201.02 29.2761V4.16016H198.185V29.2761H201.02Z" fill="#A7BCD5"/>
<path id="Vector_93" d="M206.729 36.2786H168.025V0H206.729V36.2786ZM174.762 29.5406H199.992V6.73801H174.762V29.5406Z" fill="#426572"/>
<path id="Vector_94" d="M496.273 25.9863H110.834V45.2851H496.273V25.9863Z" fill="#E8837E"/>
<path id="Vector_95" d="M496.941 25.3633H111.502V31.3826H496.941V25.3633Z" fill="#D87673"/>
<path id="Vector_96" d="M499.096 48.1327H106.927V22.1016H499.096V48.1327ZM113.658 41.3947H492.359V28.8396H113.664L113.658 41.3947Z" fill="#426572"/>
<path id="Vector_97" d="M496.278 34.959H110.396V37.7665H496.278V34.959Z" fill="#426572"/>
<path id="Vector_98" d="M130.815 35.9473H128.569V44.8695H130.815V35.9473Z" fill="#426572"/>
<path id="Vector_99" d="M138.074 35.9473H135.828V44.8695H138.074V35.9473Z" fill="#426572"/>
<path id="Vector_100" d="M145.339 35.9473H143.093V44.8695H145.339V35.9473Z" fill="#426572"/>
<path id="Vector_101" d="M152.598 35.9473H150.352V44.8695H152.598V35.9473Z" fill="#426572"/>
<path id="Vector_102" d="M159.857 35.9473H157.611V44.8695H159.857V35.9473Z" fill="#426572"/>
<path id="Vector_103" d="M165.202 35.9473H162.956V44.8695H165.202V35.9473Z" fill="#426572"/>
<path id="Vector_104" d="M172.461 35.9473H170.215V44.8695H172.461V35.9473Z" fill="#426572"/>
<path id="Vector_105" d="M179.725 35.9473H177.48V44.8695H179.725V35.9473Z" fill="#426572"/>
<path id="Vector_106" d="M186.985 35.9473H184.739V44.8695H186.985V35.9473Z" fill="#426572"/>
<path id="Vector_107" d="M194.249 35.9473H192.003V44.8695H194.249V35.9473Z" fill="#426572"/>
<path id="Vector_108" d="M199.588 35.9473H197.343V44.8695H199.588V35.9473Z" fill="#426572"/>
<path id="Vector_109" d="M206.847 35.9473H204.602V44.8695H206.847V35.9473Z" fill="#426572"/>
<path id="Vector_110" d="M214.112 35.9473H211.866V44.8695H214.112V35.9473Z" fill="#426572"/>
<path id="Vector_111" d="M221.371 35.9473H219.125V44.8695H221.371V35.9473Z" fill="#426572"/>
<path id="Vector_112" d="M228.636 35.9473H226.39V44.8695H228.636V35.9473Z" fill="#426572"/>
<path id="Vector_113" d="M233.975 35.9473H231.729V44.8695H233.975V35.9473Z" fill="#426572"/>
<path id="Vector_114" d="M241.234 35.9473H238.988V44.8695H241.234V35.9473Z" fill="#426572"/>
<path id="Vector_115" d="M248.499 35.9473H246.253V44.8695H248.499V35.9473Z" fill="#426572"/>
<path id="Vector_116" d="M255.758 35.9473H253.512V44.8695H255.758V35.9473Z" fill="#426572"/>
<path id="Vector_117" d="M263.022 35.9473H260.777V44.8695H263.022V35.9473Z" fill="#426572"/>
<path id="Vector_118" d="M268.361 35.9473H266.116V44.8695H268.361V35.9473Z" fill="#426572"/>
<path id="Vector_119" d="M275.626 35.9473H273.38V44.8695H275.626V35.9473Z" fill="#426572"/>
<path id="Vector_120" d="M282.885 35.9473H280.639V44.8695H282.885V35.9473Z" fill="#426572"/>
<path id="Vector_121" d="M290.144 35.9473H287.899V44.8695H290.144V35.9473Z" fill="#426572"/>
<path id="Vector_122" d="M297.409 35.9473H295.163V44.8695H297.409V35.9473Z" fill="#426572"/>
<path id="Vector_123" d="M304.46 35.9473H302.215V44.8695H304.46V35.9473Z" fill="#426572"/>
<path id="Vector_124" d="M311.719 35.9473H309.474V44.8695H311.719V35.9473Z" fill="#426572"/>
<path id="Vector_125" d="M318.984 35.9473H316.738V44.8695H318.984V35.9473Z" fill="#426572"/>
<path id="Vector_126" d="M326.243 35.9473H323.997V44.8695H326.243V35.9473Z" fill="#426572"/>
<path id="Vector_127" d="M333.508 35.9473H331.262V44.8695H333.508V35.9473Z" fill="#426572"/>
<path id="Vector_128" d="M338.847 35.9473H336.601V44.8695H338.847V35.9473Z" fill="#426572"/>
<path id="Vector_129" d="M346.111 35.9473H343.866V44.8695H346.111V35.9473Z" fill="#426572"/>
<path id="Vector_130" d="M353.371 35.9473H351.125V44.8695H353.371V35.9473Z" fill="#426572"/>
<path id="Vector_131" d="M360.629 35.9473H358.384V44.8695H360.629V35.9473Z" fill="#426572"/>
<path id="Vector_132" d="M367.894 35.9473H365.649V44.8695H367.894V35.9473Z" fill="#426572"/>
<path id="Vector_133" d="M373.233 35.9473H370.988V44.8695H373.233V35.9473Z" fill="#426572"/>
<path id="Vector_134" d="M380.498 35.9473H378.252V44.8695H380.498V35.9473Z" fill="#426572"/>
<path id="Vector_135" d="M387.757 35.9473H385.511V44.8695H387.757V35.9473Z" fill="#426572"/>
<path id="Vector_136" d="M395.016 35.9473H392.771V44.8695H395.016V35.9473Z" fill="#426572"/>
<path id="Vector_137" d="M402.281 35.9473H400.035V44.8695H402.281V35.9473Z" fill="#426572"/>
<path id="Vector_138" d="M407.62 35.9473H405.374V44.8695H407.62V35.9473Z" fill="#426572"/>
<path id="Vector_139" d="M414.885 35.9473H412.639V44.8695H414.885V35.9473Z" fill="#426572"/>
<path id="Vector_140" d="M422.144 35.9473H419.898V44.8695H422.144V35.9473Z" fill="#426572"/>
<path id="Vector_141" d="M429.403 35.9473H427.157V44.8695H429.403V35.9473Z" fill="#426572"/>
<path id="Vector_142" d="M436.667 35.9473H434.422V44.8695H436.667V35.9473Z" fill="#426572"/>
<path id="Vector_143" d="M442.006 35.9473H439.761V44.8695H442.006V35.9473Z" fill="#426572"/>
<path id="Vector_144" d="M449.271 35.9473H447.025V44.8695H449.271V35.9473Z" fill="#426572"/>
<path id="Vector_145" d="M456.53 35.9473H454.285V44.8695H456.53V35.9473Z" fill="#426572"/>
<path id="Vector_146" d="M463.789 35.9473H461.543V44.8695H463.789V35.9473Z" fill="#426572"/>
<path id="Vector_147" d="M471.054 35.9473H468.808V44.8695H471.054V35.9473Z" fill="#426572"/>
<path id="Vector_148" d="M478.51 323.115H130.804V454.254H478.51V323.115Z" fill="#FDE1CE"/>
<path id="Vector_149" d="M477.886 369.389H129.35V407.565H477.886V369.389Z" fill="white"/>
<path id="Vector_150" d="M477.886 346.98H129.35V349.883H477.886V346.98Z" fill="white"/>
<path id="Vector_151" d="M477.886 416.078H129.35V418.981H477.886V416.078Z" fill="white"/>
<path id="Vector_152" d="M477.886 425.41H129.35V428.313H477.886V425.41Z" fill="white"/>
<path id="Vector_153" d="M477.886 356.941H129.35V359.844H477.886V356.941Z" fill="white"/>
<path id="Vector_154" d="M476.432 325.193H128.727V331.836H476.432V325.193Z" fill="#EFC3A6"/>
<path id="Vector_155" d="M164.73 452.591V351.336H233.604V452.591" fill="#87D6FE"/>
<path id="Vector_156" d="M205.528 350.506L169.665 451.767H163.658L199.515 350.506H205.528Z" fill="#65AEE2"/>
<path id="Vector_157" d="M231.622 350.506L195.765 451.767H184.986L220.843 350.506H231.622Z" fill="#65AEE2"/>
<path id="Vector_158" d="M236.978 453.007H230.241V355.121H168.099V453.007H161.362V348.383H236.978V453.007Z" fill="#426572"/>
<path id="Vector_159" d="M480.946 457H126.498V319.123H480.946V457ZM133.24 450.262H474.209V325.861H133.235L133.24 450.262Z" fill="#426572"/>
<path id="Vector_160" d="M485.112 310.998H121.058C116.76 310.998 113.277 314.482 113.277 318.78C113.277 323.079 116.76 326.563 121.058 326.563H485.112C489.409 326.563 492.893 323.079 492.893 318.78C492.893 314.482 489.409 310.998 485.112 310.998Z" fill="#DEE6F1"/>
<path id="Vector_161" d="M119.02 312.15H488.845C490.145 312.15 491.392 312.667 492.311 313.586C493.23 314.505 493.746 315.752 493.746 317.052H114.13C114.13 315.752 114.646 314.505 115.565 313.586C116.485 312.667 117.731 312.15 119.031 312.15H119.02Z" fill="#A7BCD5"/>
<path id="Vector_162" d="M486.184 330.225H122.13C119.173 330.225 116.337 329.05 114.246 326.959C112.155 324.867 110.98 322.031 110.98 319.073C110.98 316.116 112.155 313.279 114.246 311.188C116.337 309.097 119.173 307.922 122.13 307.922H486.184C489.141 307.922 491.977 309.097 494.068 311.188C496.159 313.279 497.334 316.116 497.334 319.073C497.334 322.031 496.159 324.867 494.068 326.959C491.977 329.05 489.141 330.225 486.184 330.225ZM122.13 314.654C120.96 314.654 119.837 315.119 119.01 315.947C118.182 316.775 117.717 317.897 117.717 319.068C117.717 320.238 118.182 321.361 119.01 322.188C119.837 323.016 120.96 323.481 122.13 323.481H486.184C487.355 323.481 488.477 323.016 489.305 322.188C490.132 321.361 490.597 320.238 490.597 319.068C490.597 317.897 490.132 316.775 489.305 315.947C488.477 315.119 487.355 314.654 486.184 314.654H122.13Z" fill="#426572"/>
<path id="Vector_163" d="M485.112 171.561H121.058C116.76 171.561 113.277 175.045 113.277 179.343C113.277 183.641 116.76 187.125 121.058 187.125H485.112C489.409 187.125 492.893 183.641 492.893 179.343C492.893 175.045 489.409 171.561 485.112 171.561Z" fill="#DEE6F1"/>
<path id="Vector_164" d="M119.02 172.719H488.845C490.145 172.719 491.392 173.235 492.311 174.154C493.23 175.074 493.746 176.321 493.746 177.621H114.13C114.13 176.323 114.645 175.077 115.561 174.158C116.478 173.239 117.722 172.722 119.02 172.719Z" fill="#A7BCD5"/>
<path id="Vector_165" d="M486.184 190.787H122.13C119.173 190.787 116.337 189.612 114.246 187.521C112.155 185.43 110.98 182.593 110.98 179.636C110.98 176.678 112.155 173.842 114.246 171.751C116.337 169.659 119.173 168.484 122.13 168.484H486.184C489.141 168.484 491.977 169.659 494.068 171.751C496.159 173.842 497.334 176.678 497.334 179.636C497.334 182.593 496.159 185.43 494.068 187.521C491.977 189.612 489.141 190.787 486.184 190.787ZM122.13 175.217C120.96 175.217 119.837 175.682 119.01 176.509C118.182 177.337 117.717 178.46 117.717 179.63C117.717 180.801 118.182 181.923 119.01 182.751C119.837 183.579 120.96 184.044 122.13 184.044H486.184C487.355 184.044 488.477 183.579 489.305 182.751C490.132 181.923 490.597 180.801 490.597 179.63C490.597 178.46 490.132 177.337 489.305 176.509C488.477 175.682 487.355 175.217 486.184 175.217H122.13Z" fill="#426572"/>
<path id="Vector_166" d="M232.773 360.725H166.802V363.532H232.773V360.725Z" fill="#426572"/>
<path id="Vector_167" d="M232.364 369.439H166.392V372.247H232.364V369.439Z" fill="#426572"/>
<path id="Vector_168" d="M185.839 351.129H183.032V371.669H185.839V351.129Z" fill="#426572"/>
<path id="Vector_169" d="M216.549 351.129H213.741V371.669H216.549V351.129Z" fill="#426572"/>
<path id="Vector_170" d="M201.62 371.26H197.129V453.43H201.62V371.26Z" fill="#426572"/>
<path id="Vector_171" d="M349.121 342.414H269.17V428.318H349.121V342.414Z" fill="#87D6FE"/>
<path id="Vector_172" d="M316.356 340.797L297.751 426.701H282.273L300.878 340.797H316.356Z" fill="#65AEE2"/>
<path id="Vector_173" d="M336.758 340.797L318.147 426.701H313.112L331.717 340.797H336.758Z" fill="#65AEE2"/>
<path id="Vector_174" d="M292.042 340.006H289.235V428.156H292.042V340.006Z" fill="#426572"/>
<path id="Vector_175" d="M312.028 340.006H309.221V428.156H312.028V340.006Z" fill="#426572"/>
<path id="Vector_176" d="M332.02 340.006H329.213V428.156H332.02V340.006Z" fill="#426572"/>
<path id="Vector_177" d="M351.815 362.686H269.434V365.493H351.815V362.686Z" fill="#426572"/>
<path id="Vector_178" d="M351.815 382.674H269.434V385.481H351.815V382.674Z" fill="#426572"/>
<path id="Vector_179" d="M351.815 402.668H269.434V405.475H351.815V402.668Z" fill="#426572"/>
<path id="Vector_180" d="M353.971 430.402H267.283V337.754H353.971V430.402ZM274.02 423.664H347.234V344.492H274.02V423.664Z" fill="#426572"/>
<path id="Vector_181" d="M449.417 342.414H369.466V428.318H449.417V342.414Z" fill="#87D6FE"/>
<path id="Vector_182" d="M416.653 340.797L398.048 426.701H382.57L401.175 340.797H416.653Z" fill="#65AEE2"/>
<path id="Vector_183" d="M435.932 340.797L417.321 426.701H412.285L430.89 340.797H435.932Z" fill="#65AEE2"/>
<path id="Vector_184" d="M392.338 340.006H389.531V428.156H392.338V340.006Z" fill="#426572"/>
<path id="Vector_185" d="M412.324 340.006H409.517V428.156H412.324V340.006Z" fill="#426572"/>
<path id="Vector_186" d="M432.311 340.006H429.504V428.156H432.311V340.006Z" fill="#426572"/>
<path id="Vector_187" d="M452.112 362.686H369.73V365.493H452.112V362.686Z" fill="#426572"/>
<path id="Vector_188" d="M452.112 382.674H369.73V385.481H452.112V382.674Z" fill="#426572"/>
<path id="Vector_189" d="M452.112 402.668H369.73V405.475H452.112V402.668Z" fill="#426572"/>
<path id="Vector_190" d="M454.268 430.402H367.58V337.754H454.268V430.402ZM374.317 423.664H447.531V344.492H374.317V423.664Z" fill="#426572"/>
<path id="Vector_191" opacity="0.1" d="M513.267 114.688C512.387 115.096 511.429 115.307 510.459 115.305H513.267V114.688Z" fill="#606060"/>
<path id="Vector_192" opacity="0.2" d="M353.197 50.7325V119.376C353.197 121.163 353.906 122.877 355.17 124.141C356.433 125.404 358.147 126.114 359.933 126.114H482.035V113.761H513.267V35.572C513.267 33.785 512.557 32.0711 511.294 30.8075C510.03 29.5439 508.317 28.834 506.53 28.834H368.916V50.7325H353.197Z" fill="#606060"/>
<path id="Vector_193" d="M522.249 16.4805H375.72C372 16.4805 368.983 19.4972 368.983 23.2185V105.759C368.983 109.48 372 112.497 375.72 112.497H522.249C525.97 112.497 528.986 109.48 528.986 105.759V23.2185C528.986 19.4972 525.97 16.4805 522.249 16.4805Z" fill="white"/>
<path id="Vector_194" d="M473.968 104.355H370.106V110.532H473.968V104.355Z" fill="#DEE6F1"/>
<path id="Vector_195" d="M527.796 106.46V23.9197C527.796 22.1326 527.086 20.4188 525.823 19.1552C524.559 17.8915 522.846 17.1816 521.059 17.1816H473.406V113.198H521.059C522.846 113.198 524.559 112.488 525.823 111.225C527.086 109.961 527.796 108.247 527.796 106.46Z" fill="#E8837E"/>
<path id="Vector_196" d="M513.267 114.686C512.387 115.095 511.429 115.306 510.459 115.304H520.003C520.923 115.303 521.833 115.114 522.677 114.748C523.521 114.382 524.281 113.847 524.91 113.176C525.448 112.599 525.883 111.934 526.196 111.21C526.298 110.97 526.388 110.725 526.465 110.475C526.649 109.855 526.741 109.212 526.74 108.566V26.0251C526.74 24.2381 526.031 22.5243 524.767 21.2606C523.504 19.997 521.79 19.2871 520.003 19.2871H510.459C512.246 19.2871 513.96 19.997 515.223 21.2606C516.487 22.5243 517.196 24.2381 517.196 26.0251V108.566C517.198 109.978 516.752 111.354 515.922 112.496C515.752 112.743 515.564 112.978 515.361 113.198C515.17 113.395 514.97 113.583 514.76 113.76C514.306 114.134 513.803 114.445 513.267 114.686Z" fill="#D66765"/>
<path id="Vector_197" d="M522.182 117.13H375.653C374.04 117.127 372.451 116.738 371.02 115.996C369.588 115.253 368.354 114.179 367.423 112.862C366.2 111.157 365.544 109.11 365.547 107.011V24.482C365.545 23.9936 365.579 23.5056 365.649 23.0221C366.007 20.6225 367.213 18.4309 369.049 16.8445C370.884 15.258 373.227 14.3819 375.653 14.375H522.182C523.189 14.3735 524.19 14.525 525.152 14.8242H525.343L525.904 15.0993C527.78 15.8523 529.388 17.1468 530.525 18.8179C531.662 20.489 532.275 22.4608 532.287 24.482V107.023C532.282 108.974 531.711 110.881 530.645 112.515C529.579 114.149 528.063 115.44 526.28 116.231C524.994 116.819 523.596 117.125 522.182 117.13ZM375.653 21.113C374.841 21.1133 374.056 21.4073 373.443 21.9408C372.83 22.4742 372.431 23.2112 372.318 24.016C372.295 24.1703 372.284 24.3261 372.284 24.482V107.023C372.284 107.718 372.502 108.395 372.908 108.96C373.217 109.401 373.628 109.761 374.106 110.01C374.584 110.259 375.114 110.39 375.653 110.392H522.182C522.646 110.393 523.106 110.295 523.529 110.105C524.129 109.843 524.64 109.412 524.999 108.865C525.358 108.318 525.549 107.677 525.55 107.023V24.482C525.55 23.8912 525.394 23.311 525.098 22.7995C524.803 22.288 524.378 21.8632 523.866 21.5678L523.305 21.2983C522.944 21.1705 522.564 21.1078 522.182 21.113H375.653Z" fill="#426572"/>
<path id="Vector_198" d="M477.898 18.7266H471.161V113.059H477.898V18.7266Z" fill="#426572"/>
<path id="Vector_199" d="M392.686 82.4671C392.705 82.2927 392.737 82.12 392.782 81.9506L402.157 51.4218C402.274 51.0886 402.464 50.7858 402.712 50.5352C402.961 50.2846 403.262 50.0926 403.595 49.9731C404.416 49.6246 405.302 49.4524 406.194 49.4677C407.099 49.4544 407.995 49.6463 408.816 50.0292C409.163 50.1753 409.474 50.3974 409.724 50.6792C409.975 50.961 410.16 51.2953 410.264 51.6576L419.629 82.1864C419.674 82.3444 419.706 82.5059 419.724 82.6693C419.724 83.3805 419.288 83.9944 418.416 84.511C417.614 85.0071 416.692 85.275 415.749 85.2859C414.551 85.2859 413.84 84.8647 413.616 84.0225L411.769 77.5652H401.371L399.564 84.0225C399.309 84.861 398.508 85.2803 397.161 85.2803C396.1 85.279 395.057 85.0024 394.135 84.4773C393.169 83.9345 392.686 83.2645 392.686 82.4671ZM402.758 72.6016H411.151L406.929 57.6993L402.758 72.6016Z" fill="#426572"/>
<path id="Vector_200" d="M423.817 83.3267V51.7311C423.826 51.4588 423.902 51.1929 424.037 50.9562C424.172 50.7196 424.362 50.5192 424.591 50.3722C425.175 49.9725 425.873 49.7752 426.579 49.8107H435.168C438.63 49.8107 441.396 50.6998 443.466 52.4779C445.536 54.2559 446.571 57.0634 446.571 60.9004V74.1518C446.571 78.0037 445.536 80.8112 443.466 82.5743C441.396 84.3374 438.63 85.2265 435.168 85.2414H426.579C425.873 85.277 425.175 85.0797 424.591 84.6799C424.363 84.5335 424.173 84.334 424.038 84.0984C423.903 83.8628 423.827 83.598 423.817 83.3267ZM430.127 79.7331H435.18C438.578 79.7331 440.277 77.8727 440.277 74.1518V60.9004C440.277 57.1795 438.578 55.319 435.18 55.319H430.127V79.7331Z" fill="#426572"/>
<path id="Vector_201" opacity="0.2" d="M465.715 263.389C452.675 260.706 439.118 262.259 427.022 267.821C414.926 273.383 404.922 282.663 398.468 294.309C392.014 305.955 389.447 319.358 391.142 332.565C392.837 345.772 398.705 358.093 407.89 367.731C417.076 377.369 429.099 383.822 442.208 386.148C455.317 388.474 468.825 386.552 480.765 380.662C492.706 374.773 502.453 365.223 508.587 353.405C514.721 341.587 516.921 328.119 514.867 314.963C515.698 316.618 516.459 318.319 517.152 320.067C516.257 310.218 513.038 300.723 507.76 292.36C502.482 283.998 495.295 277.007 486.79 271.963C480.347 267.842 473.204 264.936 465.715 263.389Z" fill="#606060"/>
<path id="Vector_202" d="M458.86 251.418C442.729 251.446 427.269 257.879 415.878 269.302C404.486 280.725 398.096 296.204 398.11 312.338C398.124 328.472 404.542 343.94 415.953 355.343C427.365 366.746 442.836 373.151 458.967 373.151C475.098 373.151 490.569 366.746 501.98 355.343C513.392 343.94 519.81 328.472 519.824 312.338C519.838 296.204 513.447 280.725 502.056 269.302C490.664 257.879 475.205 251.446 459.073 251.418H458.86Z" fill="#87D6FE"/>
<path id="Vector_203" d="M520.346 312.991C520.328 327.38 515.22 341.298 505.927 352.282C496.634 363.266 483.755 370.608 469.57 373.007C455.385 375.406 440.809 372.708 428.422 365.39C416.035 358.073 406.635 346.608 401.888 333.026C402.205 332.862 402.533 332.721 402.87 332.605C409.085 330.437 414.66 336.659 419.297 341.319C429.083 351.151 443.59 356.384 457.255 354.037C470.919 351.69 483.175 341.403 486.903 328.045C490.271 316.023 487.122 302.11 493.842 291.593C495.795 288.619 498.418 286.145 501.502 284.371C504.585 282.597 508.042 281.572 511.594 281.379C517.365 290.91 520.393 301.849 520.346 312.991Z" fill="#37B5FF"/>
<path id="Vector_204" d="M460.544 377.361C443.491 377.361 427.137 370.586 415.078 358.526C403.02 346.466 396.246 330.109 396.246 313.053C396.246 295.997 403.02 279.64 415.078 267.58C427.137 255.52 443.491 248.744 460.544 248.744H460.758C477.811 248.772 494.154 255.575 506.192 267.655C518.231 279.735 524.978 296.104 524.95 313.159C524.921 330.215 518.12 346.561 506.042 358.601C493.963 370.642 477.597 377.39 460.544 377.361ZM460.544 255.482C445.326 255.51 430.741 261.579 419.994 272.356C409.247 283.134 403.219 297.738 403.232 312.959C403.246 328.18 409.301 342.772 420.067 353.53C430.833 364.288 445.43 370.331 460.648 370.331C475.867 370.331 490.463 364.288 501.229 353.53C511.995 342.772 518.05 328.18 518.064 312.959C518.078 297.738 512.049 283.134 501.302 272.356C490.556 261.579 475.971 255.51 460.752 255.482H460.544Z" fill="#426572"/>
<path id="Vector_205" d="M483.86 343.942C465.524 346.541 442.922 339.815 442.922 339.815L431.778 342.033C431.289 342.127 430.786 342.109 430.305 341.982C429.824 341.854 429.378 341.62 429 341.296C428.622 340.972 428.323 340.567 428.123 340.112C427.923 339.656 427.829 339.161 427.848 338.664C428.073 330.693 427.869 322.715 427.236 314.766C427.179 314.192 427.275 313.613 427.513 313.087C427.75 312.561 428.122 312.107 428.591 311.77C429.059 311.432 429.608 311.224 430.182 311.166C430.756 311.107 431.335 311.201 431.862 311.436C434.373 312.676 437.124 313.35 439.924 313.413C446.689 313.357 452.595 308.168 455.615 302.009C458.636 295.849 459.32 291.857 459.955 285.007C460.23 282.014 460.668 278.695 462.942 276.775C466.871 273.445 473.339 277.336 474.613 282.362C475.888 287.387 473.85 289.594 472.104 294.496C470.981 297.685 471.228 297.865 470.319 301.15C470.203 301.416 470.146 301.705 470.152 301.996C470.157 302.286 470.226 302.572 470.352 302.834C470.515 303.017 470.714 303.164 470.936 303.266C471.158 303.369 471.399 303.424 471.643 303.429C475.315 303.901 477.724 305.271 481.401 305.675C483.091 305.86 484.696 306.511 486.036 307.557C487.377 308.602 488.4 310 488.991 311.594V339.146C488.997 339.804 488.866 340.456 488.607 341.06C488.348 341.665 487.966 342.209 487.486 342.658C487.006 343.107 486.437 343.451 485.817 343.67C485.197 343.888 484.538 343.975 483.882 343.925L483.86 343.942Z" fill="white"/>
</g>
</g>
</g>
<defs>
<linearGradient id="paint0_linear" x1="0.741197" y1="247.649" x2="704.349" y2="247.649" gradientUnits="userSpaceOnUse">
<stop stop-color="#C5E9FA"/>
<stop offset="1" stop-color="#C4F4EA"/>
</linearGradient>
<clipPath id="clip0">
<rect width="722" height="457" fill="white"/>
</clipPath>
</defs>
</svg>
