<svg width="540" height="603" viewBox="0 0 540 603" fill="none" xmlns="http://www.w3.org/2000/svg">
<g id="Marketing_strategy_SVG" clip-path="url(#clip0)">
<g id="&#208;&#161;&#208;&#187;&#208;&#190;&#208;&#185; 2">
<g id="&#208;&#161;&#208;&#187;&#208;&#190;&#208;&#185; 1">
<path id="Vector" opacity="0.4" d="M310.14 415.829L294.26 407.11L308.358 398.957L324.238 407.676L310.14 415.829Z" fill="#D6D8E5"/>
<path id="Vector_2" opacity="0.4" d="M395.525 466.179L379.645 457.447L393.743 449.307L409.611 458.026L395.525 466.179Z" fill="#D6D8E5"/>
<path id="Vector_3" d="M316.34 412.162L301.363 403.502L349.064 250.871L364.041 259.53L316.34 412.162Z" fill="#B1B4C4"/>
<path id="Vector_4" d="M325.117 407.314L310.14 398.655L357.841 246.023L372.806 254.683L325.117 407.314Z" fill="#9EA2B2"/>
<path id="Vector_5" d="M316.34 412.162L301.363 403.502L349.064 250.871L364.041 259.53L316.34 412.162Z" fill="#B1B4C4"/>
<path id="Vector_6" d="M413.139 456.338L398.053 447.606L377.453 255.479L392.431 264.15L413.139 456.338Z" fill="#9EA2B2"/>
<path id="Vector_7" d="M402.652 462.332L387.567 453.6L366.967 261.473L381.944 270.132L402.652 462.332Z" fill="#B1B4C4"/>
<path id="Vector_8" d="M521.363 342.973L239.949 180.224L252.663 172.867L534.077 335.617L521.363 342.973Z" fill="#D6D8E5"/>
<path id="Vector_9" d="M521.363 357.652L239.949 194.903V180.189L521.363 342.939V357.652Z" fill="#B1B4C4"/>
<path id="Vector_10" d="M515.668 331.939L256.516 182.058V0L515.668 149.882V331.939Z" fill="#F4F4F4"/>
<path id="Vector_11" d="M534.281 350.186L521.363 357.652V342.709L534.281 335.244V350.186Z" fill="#9EA2B2"/>
<path id="Vector_12" d="M297.065 54.2454L275.598 41.8357V33.5625L297.065 45.9722V54.2454Z" fill="#D6D8E5"/>
<path id="Vector_13" d="M343.959 81.3697L306.203 59.5411V51.2559L343.959 73.0965V81.3697Z" fill="#D6D8E5"/>
<path id="Vector_14" d="M297.065 69.8763L275.598 57.4665V49.1934L297.065 61.6031V69.8763Z" fill="#D6D8E5"/>
<path id="Vector_15" d="M343.959 96.9986L306.203 75.17V66.8848L343.959 88.7254V96.9986Z" fill="#D6D8E5"/>
<path id="Vector_16" d="M297.065 87.8082L275.598 75.3985V67.1133L297.065 79.5351V87.8082Z" fill="#D6D8E5"/>
<path id="Vector_17" d="M343.959 114.932L306.203 93.0915V84.8184L343.959 106.659V114.932Z" fill="#D6D8E5"/>
<path id="Vector_18" d="M297.065 105.742L275.598 93.32V85.0469L297.065 97.4566V105.742Z" fill="#D6D8E5"/>
<path id="Vector_19" d="M343.959 132.866L306.203 111.025V102.752L343.959 124.593V132.866Z" fill="#D6D8E5"/>
<path id="Vector_20" d="M371.843 100.364C376.599 94.2137 385.087 93.2247 394.839 98.8447C395.778 99.3874 396.705 99.9783 397.608 100.605L394.899 130.104L371.759 100.485L371.843 100.364Z" fill="#9ACC12"/>
<path id="Vector_21" d="M420.098 133.614L394.814 130.104L397.584 100.605C407.938 107.805 416.57 120.734 420.098 133.614Z" fill="#E8BC05"/>
<path id="Vector_22" d="M421.867 145.733C421.867 158.999 414.644 166.235 404.567 164.921L394.899 130.104L420.182 133.613C421.291 137.558 421.858 141.635 421.867 145.733Z" fill="#EF6848"/>
<path id="Vector_23" d="M371.759 100.484C369.254 103.776 367.81 108.516 367.81 114.473C367.81 131.743 379.91 152.728 394.839 161.363C397.816 163.167 401.116 164.372 404.555 164.908L394.899 130.103L371.903 100.363L371.759 100.484Z" fill="#BE4AED"/>
<path id="Vector_24" d="M446.573 143.587C451.328 137.436 459.816 136.447 469.568 142.055C470.507 142.598 471.423 143.189 472.338 143.828L469.544 173.327L446.452 143.696L446.573 143.587Z" fill="#543526"/>
<path id="Vector_25" d="M494.827 176.824L469.544 173.327L472.313 143.828C482.667 151.016 491.288 163.944 494.827 176.824Z" fill="#1B96EA"/>
<path id="Vector_26" d="M496.597 188.956C496.597 202.222 489.374 209.458 479.296 208.131L469.544 173.326L494.827 176.824C495.959 180.77 496.554 184.851 496.597 188.956Z" fill="#FF5050"/>
<path id="Vector_27" d="M446.476 143.694C443.984 146.999 442.539 151.726 442.539 157.684C442.539 174.954 454.639 195.95 469.568 204.585C472.544 206.391 475.845 207.592 479.284 208.119L469.544 173.326L446.549 143.586L446.476 143.694Z" fill="#32CEC3"/>
<path id="Vector_28" d="M371.759 229.851C371.759 229.851 390.071 194.877 436.58 239.499C483.089 284.121 494.827 249.509 494.827 249.509" stroke="#D6D8E5" stroke-width="1.42" stroke-miterlimit="10"/>
<path id="Vector_29" d="M414.069 225.438C415.583 224.562 415.585 221.724 414.072 219.1C412.559 216.475 410.105 215.058 408.591 215.934C407.076 216.81 407.075 219.647 408.588 222.272C410.1 224.896 412.554 226.314 414.069 225.438Z" fill="#D6D8E5"/>
<path id="Vector_30" d="M381.183 225.373C382.697 224.498 382.699 221.66 381.186 219.035C379.673 216.411 377.219 214.993 375.705 215.869C374.19 216.745 374.189 219.583 375.702 222.207C377.214 224.832 379.668 226.249 381.183 225.373Z" fill="#D6D8E5"/>
<path id="Vector_31" d="M450.998 253.101C452.52 252.225 452.527 249.377 451.014 246.741C449.501 244.104 447.042 242.677 445.52 243.553C443.999 244.429 443.992 247.276 445.505 249.913C447.017 252.549 449.477 253.977 450.998 253.101Z" fill="#D6D8E5"/>
<path id="Vector_32" d="M488.814 264.172C490.329 263.296 490.33 260.459 488.817 257.834C487.305 255.21 484.851 253.792 483.336 254.668C481.822 255.544 481.82 258.382 483.333 261.006C484.846 263.631 487.3 265.048 488.814 264.172Z" fill="#D6D8E5"/>
<path id="Vector_33" d="M282.943 180.104L275.598 175.847V150.328L282.943 154.585V180.104Z" fill="#D6D8E5"/>
<path id="Vector_34" d="M303.29 191.862L295.933 187.605V153.125L303.29 157.382V191.862Z" fill="#D6D8E5"/>
<path id="Vector_35" d="M323.624 203.62L316.268 199.375V149.953L323.624 154.198V203.62Z" fill="#D6D8E5"/>
<path id="Vector_36" d="M343.959 215.38L336.603 211.135V149.762L343.959 154.007V215.38Z" fill="#D6D8E5"/>
<path id="Vector_37" d="M402.652 462.332L413.139 456.338L400.581 443.145L402.652 462.332Z" fill="#9EA2B2"/>
<path id="Vector_38" d="M316.34 412.163L325.117 407.315L321.746 394.869L316.34 412.163Z" fill="#9EA2B2"/>
<g id="Coin">
<path id="Vector_39" opacity="0.3" d="M158.935 555.894C182.181 555.894 201.025 544.992 201.025 531.544C201.025 518.097 182.181 507.195 158.935 507.195C135.689 507.195 116.844 518.097 116.844 531.544C116.844 544.992 135.689 555.894 158.935 555.894Z" fill="#D6D8E5"/>
<path id="Vector_40" d="M169.349 549.634C192.595 549.634 211.439 538.732 211.439 525.285C211.439 511.837 192.595 500.936 169.349 500.936C146.103 500.936 127.259 511.837 127.259 525.285C127.259 538.732 146.103 549.634 169.349 549.634Z" fill="#DD990E"/>
<path id="Vector_41" d="M127.271 525.646V514.562L135.59 521.979L127.271 525.646Z" fill="#DD990E"/>
<path id="Vector_42" d="M211.451 514.854V525.285L207.189 529.808L205.107 517.856L211.451 514.854Z" fill="#DD990E"/>
<path id="Vector_43" d="M169.349 539.202C192.595 539.202 211.439 528.301 211.439 514.853C211.439 501.405 192.595 490.504 169.349 490.504C146.103 490.504 127.259 501.405 127.259 514.853C127.259 528.301 146.103 539.202 169.349 539.202Z" fill="#F9CB07"/>
<path id="Vector_44" d="M199.436 515.6C199.003 519.7 196.089 523.74 190.659 526.876C178.896 533.678 159.814 533.678 148.039 526.876C142.621 523.74 139.695 519.7 139.286 515.6C138.768 510.776 141.694 505.952 148.039 502.237C159.814 495.423 178.896 495.423 190.659 502.237C197.004 505.904 199.93 510.8 199.436 515.6Z" fill="#CC8B09"/>
<path id="Vector_45" d="M199.436 515.601C199.002 519.702 196.089 523.742 190.659 526.878C178.896 533.679 159.814 533.679 148.039 526.878C142.621 523.742 139.695 519.702 139.286 515.601C139.695 511.501 142.621 507.461 148.039 504.325C159.814 497.511 178.896 497.511 190.659 504.325C196.089 507.461 199.002 511.501 199.436 515.601Z" fill="#E8A30A"/>
<path id="Vector_46" d="M168.916 509.896C168.544 509.895 168.174 509.928 167.808 509.992C167.314 510.052 166.76 510.161 166.146 510.281C165.532 510.402 164.882 510.583 164.22 510.776C163.575 510.975 162.943 511.217 162.33 511.5L167.146 514.297L168.025 513.996C169.229 513.586 170.433 513.236 171.504 512.947C172.528 512.669 173.576 512.496 174.634 512.428C175.602 512.37 176.573 512.435 177.524 512.621C178.491 512.832 179.418 513.199 180.269 513.707C181.113 514.126 181.835 514.758 182.364 515.54C182.537 515.82 182.652 516.131 182.704 516.456C182.756 516.781 182.742 517.113 182.665 517.433C182.461 518.146 182.07 518.791 181.533 519.302C180.865 519.97 180.122 520.556 179.318 521.051L182.4 522.824L180.726 523.801L177.62 522.004C176.138 522.732 174.59 523.317 172.997 523.753C171.329 524.214 169.626 524.532 167.904 524.705L166.279 521.787C166.58 521.787 167.037 521.787 167.639 521.69C168.241 521.594 168.928 521.497 169.674 521.341C170.42 521.184 171.203 520.979 172.082 520.738C172.905 520.499 173.71 520.2 174.49 519.845L169.674 517.071L169.036 517.288L168.386 517.481C167.293 517.857 166.179 518.172 165.051 518.422C164.119 518.644 163.167 518.773 162.209 518.808C161.368 518.84 160.525 518.759 159.705 518.567C158.893 518.372 158.115 518.059 157.394 517.638C156.597 517.22 155.905 516.626 155.371 515.901C154.983 515.358 154.792 514.699 154.829 514.032C154.904 513.341 155.18 512.686 155.624 512.151C156.183 511.458 156.845 510.856 157.586 510.366L154.733 508.714L156.406 507.749L159.236 509.377C160.561 508.72 161.953 508.21 163.389 507.857C164.755 507.51 166.143 507.256 167.543 507.098L168.916 509.896ZM160.68 514.961C161.321 515.321 162.056 515.476 162.787 515.407C163.768 515.298 164.733 515.079 165.665 514.756L161.138 512.139C159.477 513.216 159.324 514.157 160.68 514.961ZM176.573 516.287C175.883 515.907 175.088 515.763 174.309 515.877C173.239 516.014 172.183 516.248 171.155 516.577L175.658 519.182C177.572 518.024 177.885 517.059 176.573 516.311V516.287Z" fill="#CC8B09"/>
<path id="Vector_47" d="M166.303 521.788C166.303 521.68 166.303 520.16 166.303 520.16L168.157 521.366L167.35 522.572L166.303 521.788Z" fill="#CC8B09"/>
<path id="Vector_48" d="M182.424 522.825V521.197L178.415 521.499L180.714 523.067L182.424 522.825Z" fill="#CC8B09"/>
<path id="Vector_49" d="M182.761 516.832V515.18L179.763 516.265L182.761 516.832Z" fill="#CC8B09"/>
<path id="Vector_50" d="M170.348 516.734L171.348 515.781L174.863 518.193L174.646 518.905C174.646 518.905 172.022 517.795 171.937 517.699L170.348 516.734Z" fill="#CC8B09"/>
<path id="Vector_51" d="M161.15 511.584L165.809 514.238L166.773 513.538C166.773 513.538 166.183 512.875 166.134 512.802C165.715 512.332 165.228 511.925 164.69 511.596C164.341 511.536 162.125 510.535 162.125 510.535L161.15 511.584Z" fill="#CC8B09"/>
<path id="Vector_52" d="M168.916 509.896V508.268L166.773 507.568L166.303 508.847L166.423 509.438L168.916 509.896Z" fill="#CC8B09"/>
<path id="Vector_53" d="M154.673 508.714V507.086L157.153 507.351L156.358 508.931L154.673 508.714Z" fill="#CC8B09"/>
<path id="Vector_54" d="M154.757 514.261V512.549H157.61L156.912 514.08L155.708 515.431L154.757 514.261Z" fill="#CC8B09"/>
<path id="Vector_55" d="M168.916 508.269C168.545 508.263 168.174 508.291 167.808 508.353C167.314 508.425 166.76 508.522 166.146 508.655C165.532 508.787 164.882 508.944 164.22 509.149C163.573 509.339 162.941 509.577 162.33 509.861L167.146 512.671L168.025 512.357C169.229 511.947 170.433 511.597 171.504 511.32C172.528 511.043 173.576 510.869 174.634 510.801C175.602 510.737 176.574 510.802 177.524 510.994C178.492 511.196 179.42 511.558 180.269 512.068C181.111 512.491 181.831 513.122 182.364 513.901C182.536 514.181 182.651 514.492 182.703 514.817C182.755 515.142 182.742 515.474 182.665 515.794C182.463 516.508 182.072 517.154 181.533 517.663C180.865 518.331 180.122 518.917 179.318 519.412L182.4 521.197L180.726 522.162L177.62 520.365C176.14 521.098 174.591 521.683 172.997 522.114C171.331 522.581 169.626 522.899 167.904 523.066L166.279 520.16C166.734 520.148 167.188 520.112 167.639 520.051C168.323 519.971 169.002 519.854 169.674 519.702C170.42 519.545 171.203 519.34 172.082 519.099C172.905 518.864 173.71 518.57 174.49 518.218L169.674 515.432L169.036 515.649L168.386 515.854C167.182 516.252 166.062 516.566 165.051 516.795C164.118 517.013 163.167 517.138 162.209 517.169C161.368 517.199 160.527 517.122 159.705 516.94C158.891 516.746 158.112 516.429 157.394 515.999C156.597 515.581 155.905 514.987 155.371 514.262C154.981 513.72 154.79 513.06 154.829 512.393C154.904 511.702 155.18 511.047 155.624 510.512C156.18 509.82 156.842 509.222 157.586 508.739L154.733 507.087L156.406 506.11L159.236 507.75C160.56 507.089 161.953 506.575 163.389 506.218C164.754 505.869 166.142 505.619 167.543 505.471L168.916 508.269ZM160.68 513.346C161.32 513.71 162.055 513.87 162.787 513.804C163.766 513.684 164.73 513.466 165.665 513.153L161.138 510.524C159.477 511.625 159.324 512.566 160.68 513.346ZM176.573 514.672C175.883 514.292 175.088 514.148 174.309 514.262C173.24 514.405 172.184 514.639 171.155 514.962L175.658 517.567C177.572 516.397 177.885 515.432 176.573 514.672Z" fill="#F9CA06"/>
</g>
<g id="Coin_2">
<path id="Vector_56" d="M172.792 536.646C196.038 536.646 214.883 525.744 214.883 512.296C214.883 498.849 196.038 487.947 172.792 487.947C149.546 487.947 130.702 498.849 130.702 512.296C130.702 525.744 149.546 536.646 172.792 536.646Z" fill="#DD990E"/>
<path id="Vector_57" d="M130.714 512.669V501.574L139.021 508.991L130.714 512.669Z" fill="#DD990E"/>
<path id="Vector_58" d="M214.883 501.865V512.297L210.633 516.82L208.55 504.88L214.883 501.865Z" fill="#DD990E"/>
<path id="Vector_59" d="M172.792 526.214C196.038 526.214 214.883 515.312 214.883 501.865C214.883 488.417 196.038 477.516 172.792 477.516C149.546 477.516 130.702 488.417 130.702 501.865C130.702 515.312 149.546 526.214 172.792 526.214Z" fill="#F9CB07"/>
<path id="Vector_60" d="M202.867 502.625C202.446 506.726 199.532 510.766 194.102 513.901C182.328 520.703 163.257 520.703 151.482 513.901C146.052 510.766 143.139 506.726 142.729 502.625C142.212 497.801 145.137 492.977 151.482 489.263C163.257 482.449 182.328 482.449 194.102 489.263C200.447 492.917 203.373 497.825 202.867 502.625Z" fill="#CC8B09"/>
<path id="Vector_61" d="M202.867 502.625C202.446 506.725 199.532 510.765 194.102 513.901C182.328 520.703 163.257 520.703 151.482 513.901C146.052 510.765 143.139 506.725 142.729 502.625C143.139 498.524 146.052 494.484 151.482 491.349C163.257 484.535 182.328 484.535 194.102 491.349C199.532 494.46 202.446 498.524 202.867 502.625Z" fill="#E8A30A"/>
<path id="Vector_62" d="M172.347 496.873C171.976 496.868 171.605 496.896 171.239 496.957C170.746 497.03 170.192 497.126 169.578 497.259C168.964 497.391 168.374 497.548 167.663 497.753C167.016 497.947 166.385 498.189 165.773 498.477L170.589 501.275L171.456 500.961C172.66 500.551 173.864 500.201 174.947 499.924C175.971 499.647 177.02 499.473 178.078 499.405C179.041 499.341 180.009 499.406 180.955 499.598C181.926 499.805 182.857 500.167 183.712 500.672C184.551 501.095 185.268 501.726 185.795 502.505C185.969 502.784 186.087 503.095 186.14 503.42C186.194 503.745 186.183 504.077 186.108 504.398C185.902 505.11 185.511 505.755 184.976 506.267C184.311 506.938 183.568 507.525 182.761 508.016L185.843 509.801L184.158 510.766L181.051 508.969C179.575 509.702 178.031 510.288 176.44 510.718C174.774 511.182 173.07 511.501 171.348 511.67L169.758 508.812C170.213 508.8 170.668 508.764 171.119 508.704C171.799 508.622 172.474 508.505 173.141 508.354C173.888 508.197 174.683 507.992 175.549 507.751C176.374 507.522 177.179 507.227 177.957 506.87L173.141 504.085L172.515 504.302L171.853 504.507C170.649 504.909 169.542 505.222 168.53 505.447C167.598 505.665 166.646 505.79 165.689 505.821C164.848 505.858 164.005 505.781 163.185 505.592C162.368 505.396 161.584 505.079 160.861 504.651C160.071 504.233 159.385 503.644 158.85 502.927C158.463 502.384 158.271 501.724 158.309 501.058C158.375 500.36 158.653 499.7 159.103 499.164C159.655 498.473 160.313 497.874 161.054 497.391L158.2 495.739L159.886 494.762L162.715 496.402C164.04 495.741 165.432 495.227 166.869 494.871C168.234 494.521 169.622 494.271 171.022 494.123L172.347 496.873ZM164.124 501.95C164.757 502.319 165.49 502.479 166.219 502.408C167.201 502.289 168.169 502.071 169.108 501.757L164.569 499.14C162.908 500.258 162.759 501.21 164.124 501.998V501.95ZM180.016 503.277C179.325 502.901 178.53 502.761 177.753 502.879C176.679 503.016 175.62 503.246 174.586 503.566L179.089 506.171C181.015 505.049 181.316 504.109 180.016 503.325V503.277Z" fill="#CC8B09"/>
<path id="Vector_63" d="M169.758 508.812C169.758 508.691 169.758 507.172 169.758 507.172L171.612 508.378L170.806 509.584L169.758 508.812Z" fill="#CC8B09"/>
<path id="Vector_64" d="M185.867 509.849V508.209L181.858 508.523L184.158 510.09L185.867 509.849Z" fill="#CC8B09"/>
<path id="Vector_65" d="M186.204 503.844V502.191L183.207 503.277L186.204 503.844Z" fill="#CC8B09"/>
<path id="Vector_66" d="M173.792 503.757L174.791 502.805L178.306 505.217L178.09 505.928C178.09 505.928 175.453 504.819 175.369 504.722C175.285 504.626 173.792 503.757 173.792 503.757Z" fill="#CC8B09"/>
<path id="Vector_67" d="M164.581 498.608L169.253 501.249L170.204 500.562L169.578 499.826C169.16 499.349 168.668 498.941 168.121 498.62C167.772 498.548 165.569 497.559 165.569 497.559L164.581 498.608Z" fill="#CC8B09"/>
<path id="Vector_68" d="M172.347 496.92V495.28L170.204 494.58L169.746 495.871L169.855 496.449L172.347 496.92Z" fill="#CC8B09"/>
<path id="Vector_69" d="M158.104 495.738V494.098L160.596 494.363L159.79 495.955L158.104 495.738Z" fill="#CC8B09"/>
<path id="Vector_70" d="M158.2 501.286V499.586H161.054L160.355 501.106L159.151 502.468L158.2 501.286Z" fill="#CC8B09"/>
<path id="Vector_71" d="M172.347 495.28C171.976 495.281 171.605 495.313 171.239 495.377C170.746 495.437 170.192 495.546 169.578 495.666C168.964 495.787 168.374 495.968 167.663 496.161C167.018 496.36 166.387 496.602 165.773 496.884L170.589 499.682L171.456 499.381C172.66 498.971 173.864 498.621 174.947 498.332C175.971 498.054 177.02 497.881 178.078 497.813C179.041 497.754 180.008 497.819 180.955 498.006C181.926 498.217 182.857 498.583 183.712 499.091C184.553 499.511 185.271 500.143 185.795 500.924C185.969 501.204 186.087 501.515 186.14 501.84C186.194 502.165 186.183 502.497 186.108 502.818C185.899 503.529 185.509 504.173 184.976 504.687C184.308 505.354 183.565 505.941 182.761 506.436L185.843 508.209L184.158 509.186L181.051 507.389C179.573 508.116 178.029 508.702 176.44 509.137C174.772 509.596 173.069 509.915 171.348 510.09L169.758 507.172C170.059 507.172 170.505 507.172 171.119 507.075C171.733 506.979 172.395 506.882 173.141 506.725C173.888 506.569 174.683 506.364 175.549 506.122C176.373 505.884 177.177 505.585 177.957 505.23L173.141 502.456L172.515 502.673L171.853 502.878C170.763 503.247 169.654 503.557 168.53 503.807C167.598 504.028 166.646 504.157 165.689 504.193C164.847 504.225 164.005 504.144 163.185 503.951C162.37 503.755 161.587 503.442 160.861 503.023C160.07 502.601 159.383 502.008 158.85 501.286C158.463 500.743 158.271 500.084 158.309 499.417C158.378 498.724 158.655 498.068 159.103 497.536C159.658 496.843 160.316 496.241 161.054 495.751L158.2 494.098L159.886 493.134L162.715 494.762C164.04 494.104 165.433 493.595 166.869 493.242C168.235 492.895 169.622 492.641 171.022 492.482L172.347 495.28ZM164.124 500.37C164.761 500.727 165.491 500.883 166.219 500.816C167.203 500.709 168.173 500.49 169.108 500.165L164.569 497.548C162.908 498.633 162.759 499.574 164.124 500.37ZM180.016 501.696C179.326 501.316 178.532 501.172 177.753 501.286C176.678 501.423 175.618 501.657 174.586 501.986L179.089 504.591C181.015 503.409 181.316 502.444 180.016 501.696Z" fill="#F9CA06"/>
</g>
<g id="Coin_3">
<path id="Vector_72" d="M170.204 524.151C193.45 524.151 212.294 513.25 212.294 499.802C212.294 486.355 193.45 475.453 170.204 475.453C146.958 475.453 128.113 486.355 128.113 499.802C128.113 513.25 146.958 524.151 170.204 524.151Z" fill="#DD990E"/>
<path id="Vector_73" d="M128.125 500.177V489.082L136.445 496.499L128.125 500.177Z" fill="#DD990E"/>
<path id="Vector_74" d="M212.306 489.371V499.803L208.056 504.326L205.961 492.374L212.306 489.371Z" fill="#DD990E"/>
<path id="Vector_75" d="M170.204 513.72C193.45 513.72 212.294 502.818 212.294 489.371C212.294 475.923 193.45 465.021 170.204 465.021C146.958 465.021 128.113 475.923 128.113 489.371C128.113 502.818 146.958 513.72 170.204 513.72Z" fill="#F9CB07"/>
<path id="Vector_76" d="M200.291 490.117C199.869 494.218 196.944 498.258 191.526 501.406C179.751 508.207 160.668 508.207 148.906 501.406C143.476 498.258 140.562 494.17 140.141 490.117C139.635 485.293 142.549 480.469 148.906 476.755C160.668 469.941 179.751 469.941 191.526 476.755C197.859 480.421 200.796 485.318 200.291 490.117Z" fill="#CC8B09"/>
<path id="Vector_77" d="M200.291 490.119C199.869 494.219 196.944 498.259 191.526 501.407C179.751 508.209 160.668 508.209 148.906 501.407C143.476 498.259 140.562 494.171 140.141 490.119C140.562 486.019 143.476 481.991 148.906 478.843C160.668 472.029 179.751 472.029 191.526 478.843C196.944 481.991 199.857 486.019 200.291 490.119Z" fill="#E8A30A"/>
<path id="Vector_78" d="M169.758 484.425C169.387 484.42 169.017 484.448 168.651 484.51C168.157 484.582 167.603 484.678 166.989 484.811C166.343 484.942 165.704 485.107 165.075 485.306C164.427 485.494 163.795 485.731 163.185 486.017L168.001 488.815L168.867 488.514C170.071 488.104 171.275 487.754 172.347 487.464C173.372 487.194 174.42 487.02 175.477 486.946C176.445 486.891 177.416 486.96 178.367 487.151C179.338 487.354 180.27 487.717 181.124 488.224C181.963 488.647 182.679 489.278 183.207 490.057C183.379 490.337 183.495 490.649 183.547 490.974C183.598 491.299 183.585 491.631 183.508 491.951C183.303 492.664 182.913 493.309 182.376 493.82C181.712 494.487 180.973 495.074 180.173 495.569L183.243 497.341L181.569 498.318L178.463 496.521C176.984 497.256 175.435 497.842 173.84 498.27C172.172 498.731 170.468 499.05 168.747 499.223L167.134 496.316C167.585 496.304 168.035 496.268 168.482 496.208C169.166 496.127 169.845 496.011 170.517 495.858C171.263 495.701 172.046 495.496 172.925 495.255C173.747 495.02 174.552 494.726 175.333 494.375L170.517 491.589L169.891 491.806L169.229 492.011C168.025 492.409 166.905 492.722 165.894 492.952C164.964 493.163 164.017 493.288 163.064 493.325C162.223 493.356 161.382 493.279 160.56 493.096C159.743 492.9 158.96 492.583 158.236 492.156C157.44 491.738 156.748 491.144 156.214 490.419C155.824 489.877 155.633 489.217 155.672 488.55C155.747 487.858 156.023 487.204 156.467 486.668C157.028 485.979 157.69 485.377 158.429 484.883L155.576 483.243L157.249 482.266L160.078 483.907C161.403 483.245 162.796 482.732 164.232 482.375C165.598 482.028 166.986 481.774 168.386 481.615L169.758 484.425ZM161.535 489.502C162.169 489.87 162.902 490.026 163.63 489.949C164.609 489.839 165.574 489.625 166.508 489.31L161.981 486.68C160.331 487.778 160.127 488.719 161.547 489.502H161.535ZM177.428 490.829C176.734 490.446 175.935 490.302 175.152 490.419C174.083 490.561 173.027 490.795 171.998 491.119L176.501 493.723C178.427 492.542 178.74 491.581 177.44 490.841L177.428 490.829Z" fill="#CC8B09"/>
<path id="Vector_79" d="M167.17 496.318C167.17 496.197 167.17 494.678 167.17 494.678L169.012 495.884L168.205 497.09L167.17 496.318Z" fill="#CC8B09"/>
<path id="Vector_80" d="M183.279 497.343V495.715L179.282 496.016L181.581 497.596L183.279 497.343Z" fill="#CC8B09"/>
<path id="Vector_81" d="M183.616 491.35V489.697L180.618 490.783L183.616 491.35Z" fill="#CC8B09"/>
<path id="Vector_82" d="M171.203 491.264L172.202 490.299L175.718 492.711L175.501 493.434C175.501 493.434 172.877 492.325 172.792 492.228L171.203 491.264Z" fill="#CC8B09"/>
<path id="Vector_83" d="M162.005 486.114L166.676 488.755L167.627 488.068C167.627 488.068 167.037 487.392 167.001 487.32C166.965 487.248 165.894 486.174 165.544 486.114C165.195 486.054 162.98 485.053 162.98 485.053L162.005 486.114Z" fill="#CC8B09"/>
<path id="Vector_84" d="M169.77 484.426V482.785L167.627 482.086L167.17 483.364L167.278 483.955L169.77 484.426Z" fill="#CC8B09"/>
<path id="Vector_85" d="M155.527 483.244V481.604L158.008 481.869L157.213 483.461L155.527 483.244Z" fill="#CC8B09"/>
<path id="Vector_86" d="M155.624 488.792V487.092H158.465L157.779 488.611L156.575 489.974L155.624 488.792Z" fill="#CC8B09"/>
<path id="Vector_87" d="M169.758 482.786C169.388 482.787 169.017 482.815 168.651 482.87C168.157 482.943 167.603 483.039 166.989 483.172C166.375 483.304 165.785 483.473 165.075 483.666C164.429 483.863 163.797 484.105 163.185 484.39L168.001 487.188L168.867 486.874C170.071 486.464 171.275 486.126 172.347 485.837C173.371 485.561 174.419 485.387 175.477 485.318C176.445 485.254 177.416 485.319 178.367 485.511C179.337 485.72 180.268 486.082 181.124 486.585C181.977 487.006 182.707 487.642 183.243 488.43C183.415 488.712 183.531 489.026 183.582 489.353C183.634 489.68 183.621 490.014 183.544 490.335C183.339 491.045 182.948 491.686 182.412 492.193C181.751 492.863 181.011 493.451 180.209 493.941L183.279 495.726L181.605 496.691L178.499 494.906C177.019 495.637 175.471 496.219 173.876 496.643C172.209 497.108 170.505 497.431 168.783 497.608L167.17 494.689C167.621 494.677 168.071 494.641 168.518 494.581C169.203 494.506 169.882 494.389 170.553 494.231C171.299 494.074 172.082 493.869 172.961 493.628C173.785 493.398 174.59 493.104 175.369 492.747L170.553 489.962C170.348 490.045 170.139 490.117 169.927 490.179L169.265 490.384C168.061 490.782 166.941 491.095 165.93 491.324C165 491.539 164.053 491.669 163.1 491.71C162.259 491.737 161.417 491.656 160.596 491.469C159.778 491.278 158.994 490.96 158.273 490.528C157.474 490.118 156.782 489.528 156.25 488.804C155.862 488.261 155.671 487.601 155.708 486.935C155.78 486.238 156.057 485.579 156.503 485.041C157.065 484.356 157.727 483.758 158.465 483.268L155.612 481.616L157.285 480.639L160.115 482.279C161.439 481.618 162.832 481.104 164.268 480.748C165.633 480.398 167.021 480.148 168.422 480L169.758 482.786ZM161.535 487.863C162.167 488.235 162.901 488.395 163.63 488.321C164.61 488.207 165.574 487.989 166.508 487.67L161.981 485.053C160.331 486.139 160.127 487.079 161.547 487.863H161.535ZM177.428 489.19C176.731 488.817 175.934 488.677 175.152 488.792C174.083 488.929 173.027 489.159 171.998 489.479L176.5 492.084C178.427 490.918 178.74 489.954 177.44 489.19H177.428Z" fill="#F9CA06"/>
</g>
<g id="Coin_4">
<path id="Vector_88" d="M173.792 512.091C197.037 512.091 215.882 501.189 215.882 487.742C215.882 474.294 197.037 463.393 173.792 463.393C150.546 463.393 131.701 474.294 131.701 487.742C131.701 501.189 150.546 512.091 173.792 512.091Z" fill="#DD990E"/>
<path id="Vector_89" d="M131.701 488.115V477.02L140.02 484.436L131.701 488.115Z" fill="#DD990E"/>
<path id="Vector_90" d="M215.882 477.311V487.742L211.632 492.265L209.549 480.326L215.882 477.311Z" fill="#DD990E"/>
<path id="Vector_91" d="M173.792 501.659C197.037 501.659 215.882 490.758 215.882 477.31C215.882 463.862 197.037 452.961 173.792 452.961C150.546 452.961 131.701 463.862 131.701 477.31C131.701 490.758 150.546 501.659 173.792 501.659Z" fill="#F9CB07"/>
<path id="Vector_92" d="M203.866 478.071C203.445 482.171 200.532 486.211 195.102 489.347C183.327 496.149 164.256 496.149 152.481 489.347C147.052 486.211 144.138 482.171 143.717 478.071C143.211 473.247 146.125 468.362 152.481 464.708C164.256 457.894 183.327 457.894 195.102 464.708C201.447 468.362 204.372 473.271 203.866 478.071Z" fill="#CC8B09"/>
<path id="Vector_93" d="M203.866 478.07C203.445 482.171 200.532 486.211 195.102 489.346C183.327 496.148 164.256 496.148 152.481 489.346C147.052 486.211 144.138 482.171 143.717 478.07C144.138 473.97 147.052 469.93 152.481 466.794C164.256 459.98 183.327 459.98 195.102 466.794C200.532 469.93 203.469 473.958 203.866 478.07Z" fill="#E8A30A"/>
<path id="Vector_94" d="M173.37 472.366C172.999 472.361 172.628 472.389 172.263 472.451C171.769 472.523 171.215 472.62 170.601 472.752C169.987 472.885 169.397 473.054 168.687 473.247C168.04 473.441 167.408 473.683 166.797 473.97L171.612 476.768L172.479 476.455C173.683 476.045 174.887 475.707 175.959 475.417C176.987 475.141 178.039 474.967 179.101 474.899C180.065 474.835 181.032 474.899 181.979 475.092C182.949 475.299 183.88 475.661 184.736 476.165C185.574 476.589 186.291 477.22 186.818 477.998C186.993 478.278 187.11 478.589 187.164 478.914C187.218 479.239 187.207 479.571 187.131 479.892C186.925 480.604 186.535 481.249 186 481.761C185.335 482.432 184.591 483.019 183.784 483.51L186.867 485.295L185.181 486.259L182.075 484.475C180.598 485.203 179.054 485.785 177.464 486.211C175.796 486.674 174.092 486.997 172.371 487.176L170.746 484.257C171.201 484.246 171.655 484.209 172.106 484.149C172.787 484.073 173.462 483.956 174.129 483.799C174.875 483.642 175.67 483.437 176.537 483.196C177.361 482.967 178.166 482.673 178.945 482.316L174.129 479.53C173.925 479.615 173.716 479.687 173.503 479.747L172.84 479.952C171.637 480.354 170.529 480.668 169.518 480.893C168.584 481.107 167.633 481.236 166.676 481.279C165.835 481.305 164.993 481.224 164.172 481.037C163.355 480.842 162.572 480.525 161.848 480.097C161.055 479.683 160.368 479.093 159.838 478.372C159.45 477.829 159.259 477.17 159.296 476.503C159.357 475.804 159.635 475.142 160.091 474.609C160.645 473.921 161.303 473.323 162.041 472.837L159.188 471.184L160.873 470.208L163.69 471.848C165.019 471.186 166.416 470.673 167.856 470.316C169.221 469.967 170.609 469.717 172.01 469.568L173.37 472.366ZM165.147 477.444C165.78 477.813 166.513 477.973 167.242 477.902C168.226 477.789 169.194 477.571 170.132 477.251L165.593 474.634C163.915 475.719 163.759 476.656 165.123 477.444H165.147ZM181.039 478.77C180.347 478.398 179.554 478.259 178.776 478.372C177.703 478.51 176.643 478.74 175.61 479.06L180.112 481.665C182.015 480.495 182.316 479.53 181.015 478.782L181.039 478.77Z" fill="#CC8B09"/>
<path id="Vector_95" d="M170.746 484.257C170.746 484.137 170.746 482.617 170.746 482.617L172.6 483.823L171.793 485.029L170.746 484.257Z" fill="#CC8B09"/>
<path id="Vector_96" d="M186.867 485.294V483.654L182.857 483.968L185.157 485.536L186.867 485.294Z" fill="#CC8B09"/>
<path id="Vector_97" d="M187.204 479.289V477.637L184.206 478.722L187.204 479.289Z" fill="#CC8B09"/>
<path id="Vector_98" d="M174.791 479.203L175.778 478.25L179.294 480.662L179.077 481.374C179.077 481.374 176.452 480.264 176.368 480.168C176.284 480.071 174.791 479.203 174.791 479.203Z" fill="#CC8B09"/>
<path id="Vector_99" d="M165.581 474.053L170.252 476.706L171.203 476.007L170.577 475.271C170.159 474.794 169.667 474.387 169.12 474.065C168.771 474.005 166.556 473.004 166.556 473.004L165.581 474.053Z" fill="#CC8B09"/>
<path id="Vector_100" d="M173.346 472.365V470.725L171.203 470.037L170.746 471.315L170.854 471.906L173.346 472.365Z" fill="#CC8B09"/>
<path id="Vector_101" d="M159.103 471.183V469.543L161.595 469.808L160.789 471.4L159.103 471.183Z" fill="#CC8B09"/>
<path id="Vector_102" d="M159.2 476.732V475.031H162.053L161.355 476.551L160.151 477.914L159.2 476.732Z" fill="#CC8B09"/>
<path id="Vector_103" d="M173.37 470.726C172.999 470.726 172.628 470.758 172.263 470.822C171.769 470.894 171.215 470.991 170.601 471.124C169.987 471.256 169.397 471.413 168.687 471.606C168.042 471.805 167.41 472.047 166.797 472.33L171.612 475.128L172.479 474.826C173.683 474.416 174.887 474.066 175.959 473.777C176.988 473.506 178.04 473.333 179.101 473.258C180.064 473.2 181.031 473.265 181.979 473.451C182.95 473.662 183.881 474.029 184.736 474.537C185.574 474.96 186.291 475.591 186.818 476.37C186.993 476.649 187.11 476.96 187.164 477.285C187.218 477.61 187.207 477.942 187.131 478.263C186.923 478.974 186.533 479.618 186 480.132C185.332 480.8 184.588 481.386 183.784 481.881L186.867 483.654L185.181 484.631L182.075 482.834C180.597 483.562 179.053 484.147 177.464 484.583C175.796 485.042 174.092 485.36 172.371 485.535L170.746 482.617C171.201 482.617 171.655 482.584 172.106 482.52C172.708 482.448 173.382 482.327 174.129 482.171C174.875 482.014 175.67 481.809 176.537 481.568C177.36 481.329 178.165 481.031 178.945 480.675L174.129 477.901L173.503 478.118L172.84 478.323C171.75 478.692 170.641 479.002 169.518 479.252C168.585 479.472 167.634 479.602 166.676 479.638C165.835 479.669 164.994 479.592 164.172 479.409C163.358 479.203 162.577 478.886 161.848 478.468C161.057 478.046 160.371 477.453 159.838 476.732C159.448 476.189 159.257 475.529 159.296 474.862C159.36 474.168 159.637 473.51 160.091 472.981C160.645 472.289 161.303 471.687 162.041 471.196L159.188 469.544L160.873 468.579L163.69 470.207C165.022 469.555 166.418 469.045 167.856 468.688C169.222 468.34 170.61 468.086 172.01 467.928L173.37 470.726ZM165.147 475.815C165.782 476.18 166.514 476.336 167.242 476.261C168.225 476.153 169.194 475.939 170.132 475.622L165.593 472.993C163.907 474.09 163.739 475.019 165.123 475.815H165.147ZM181.039 477.142C180.35 476.761 179.555 476.617 178.776 476.732C177.702 476.868 176.642 477.102 175.61 477.431L180.112 480.036C182.015 478.854 182.316 477.889 181.015 477.142H181.039Z" fill="#F9CA06"/>
</g>
<g id="Coin_5">
<path id="Vector_104" d="M171.203 499.597C194.449 499.597 213.294 488.695 213.294 475.248C213.294 461.8 194.449 450.898 171.203 450.898C147.957 450.898 129.113 461.8 129.113 475.248C129.113 488.695 147.957 499.597 171.203 499.597Z" fill="#DD990E"/>
<path id="Vector_105" d="M129.125 475.621V464.525L137.444 471.942L129.125 475.621Z" fill="#DD990E"/>
<path id="Vector_106" d="M213.306 464.816V475.248L209.043 479.771L206.961 467.831L213.306 464.816Z" fill="#DD990E"/>
<path id="Vector_107" d="M171.203 489.165C194.449 489.165 213.294 478.264 213.294 464.816C213.294 451.368 194.449 440.467 171.203 440.467C147.957 440.467 129.113 451.368 129.113 464.816C129.113 478.264 147.957 489.165 171.203 489.165Z" fill="#F9CB07"/>
<path id="Vector_108" d="M201.29 465.575C200.857 469.675 197.943 473.703 192.513 476.851C180.75 483.653 161.668 483.653 149.893 476.851C144.475 473.703 141.562 469.675 141.14 465.575C140.635 460.751 143.548 455.867 149.893 452.2C161.668 445.386 180.75 445.386 192.513 452.2C198.858 455.867 201.784 460.775 201.29 465.575Z" fill="#CC8B09"/>
<path id="Vector_109" d="M201.29 465.576C200.857 469.677 197.943 473.705 192.513 476.852C180.75 483.654 161.668 483.654 149.893 476.852C144.475 473.705 141.562 469.677 141.14 465.576C141.562 461.476 144.475 457.436 149.893 454.288C161.668 447.474 180.75 447.474 192.513 454.288C197.943 457.436 200.857 461.476 201.29 465.576Z" fill="#E8A30A"/>
<path id="Vector_110" d="M170.77 459.871C170.399 459.865 170.028 459.894 169.662 459.955C169.168 460.027 168.615 460.124 168.001 460.256C167.387 460.389 166.797 460.546 166.074 460.751C165.431 460.939 164.803 461.177 164.196 461.462L169.012 464.272L169.879 463.959C171.083 463.549 172.287 463.199 173.358 462.91C174.382 462.637 175.431 462.467 176.488 462.403C177.456 462.339 178.428 462.404 179.378 462.596C180.35 462.799 181.281 463.162 182.135 463.669C182.968 464.101 183.68 464.736 184.206 465.515C184.379 465.795 184.494 466.106 184.546 466.431C184.598 466.756 184.584 467.088 184.507 467.408C184.303 468.121 183.912 468.766 183.375 469.277C182.707 469.945 181.964 470.531 181.16 471.026L184.242 472.811L182.568 473.776L179.462 471.979C177.983 472.714 176.434 473.3 174.839 473.727C173.173 474.194 171.469 474.513 169.746 474.68L168.133 471.774C168.584 471.762 169.034 471.726 169.481 471.665C170.165 471.585 170.845 471.468 171.516 471.315C172.263 471.159 173.045 470.954 173.924 470.712C174.748 470.48 175.552 470.186 176.332 469.832L171.516 467.046L170.89 467.263L170.228 467.468C169.024 467.866 167.904 468.18 166.893 468.409C165.959 468.621 165.008 468.746 164.052 468.783C163.211 468.812 162.369 468.735 161.547 468.554C160.733 468.36 159.954 468.043 159.236 467.613C158.439 467.195 157.747 466.601 157.213 465.876C156.823 465.334 156.632 464.674 156.671 464.007C156.746 463.315 157.022 462.661 157.466 462.126C158.025 461.437 158.687 460.839 159.428 460.353L156.515 458.689L158.188 457.712L161.018 459.352C162.342 458.691 163.735 458.177 165.171 457.82C166.537 457.473 167.925 457.219 169.325 457.061L170.77 459.871ZM162.535 464.948C163.173 465.314 163.91 465.471 164.641 465.394C165.621 465.285 166.585 465.07 167.519 464.755L162.992 462.126C161.331 463.227 161.178 464.168 162.535 464.948ZM178.427 466.274C177.737 465.894 176.942 465.75 176.163 465.864C175.094 466.007 174.039 466.241 173.009 466.564L177.512 469.169C179.39 467.999 179.739 467.022 178.427 466.274Z" fill="#CC8B09"/>
<path id="Vector_111" d="M168.169 471.763C168.169 471.643 168.169 470.123 168.169 470.123L170.011 471.329L169.204 472.535L168.169 471.763Z" fill="#CC8B09"/>
<path id="Vector_112" d="M184.278 472.8V471.16L180.281 471.474L182.58 473.042L184.278 472.8Z" fill="#CC8B09"/>
<path id="Vector_113" d="M184.615 466.795V465.143L181.617 466.228L184.615 466.795Z" fill="#CC8B09"/>
<path id="Vector_114" d="M172.166 466.721L173.166 465.756L176.681 468.168L176.464 468.891C176.464 468.891 173.84 467.782 173.755 467.685L172.166 466.721Z" fill="#CC8B09"/>
<path id="Vector_115" d="M163.004 461.559L167.663 464.2L168.627 463.513L167.988 462.777C167.578 462.297 167.089 461.889 166.544 461.571C166.195 461.499 163.979 460.51 163.979 460.51L163.004 461.559Z" fill="#CC8B09"/>
<path id="Vector_116" d="M170.77 459.871V458.231L168.627 457.531L168.169 458.81L168.277 459.401L170.77 459.871Z" fill="#CC8B09"/>
<path id="Vector_117" d="M156.527 458.689V457.049L159.007 457.314L158.212 458.906L156.527 458.689Z" fill="#CC8B09"/>
<path id="Vector_118" d="M156.611 464.238V462.537H159.452L158.754 464.057L157.55 465.419L156.611 464.238Z" fill="#CC8B09"/>
<path id="Vector_119" d="M170.77 458.279C170.399 458.28 170.029 458.308 169.662 458.363C169.168 458.436 168.615 458.532 168.001 458.665C167.387 458.798 166.797 458.966 166.074 459.159C165.432 459.357 164.805 459.598 164.196 459.883L169.012 462.681L169.879 462.367C171.083 461.969 172.287 461.62 173.358 461.33C174.382 461.054 175.43 460.88 176.488 460.812C177.456 460.747 178.428 460.812 179.378 461.005C180.347 461.218 181.277 461.58 182.135 462.078C182.972 462.509 183.688 463.143 184.218 463.923C184.391 464.203 184.506 464.515 184.558 464.84C184.61 465.165 184.596 465.497 184.519 465.817C184.315 466.53 183.924 467.175 183.387 467.686C182.722 468.353 181.978 468.936 181.172 469.422L184.254 471.207L182.58 472.184L179.498 470.339C178.017 471.069 176.469 471.654 174.875 472.088C173.206 472.543 171.503 472.862 169.782 473.04L168.169 470.122C168.62 470.11 169.07 470.074 169.518 470.013C170.201 469.937 170.881 469.825 171.552 469.676C172.299 469.507 173.081 469.302 173.96 469.061C174.785 468.834 175.591 468.539 176.368 468.18L171.552 465.394L170.926 465.624L170.264 465.817C169.06 466.215 167.94 466.528 166.929 466.757C165.996 466.973 165.045 467.102 164.088 467.143C163.246 467.169 162.405 467.088 161.583 466.902C160.77 466.708 159.99 466.391 159.272 465.961C158.473 465.551 157.781 464.961 157.249 464.237C156.861 463.694 156.67 463.034 156.707 462.367C156.779 461.675 157.056 461.02 157.502 460.486C158.061 459.793 158.722 459.191 159.464 458.701L156.515 457.073L158.188 456.108L161.018 457.736C162.344 457.08 163.737 456.567 165.171 456.205C166.537 455.861 167.925 455.611 169.325 455.457L170.77 458.279ZM162.535 463.308C163.172 463.678 163.909 463.838 164.641 463.766C165.622 463.657 166.587 463.439 167.519 463.115L162.992 460.498C161.331 461.583 161.178 462.52 162.535 463.308ZM178.427 464.635C177.736 464.259 176.941 464.119 176.163 464.237C175.094 464.374 174.039 464.604 173.009 464.924L177.512 467.529C179.39 466.359 179.739 465.394 178.427 464.635Z" fill="#F9CA06"/>
</g>
<g id="Coin_6">
<path id="Vector_120" opacity="0.3" d="M42.0904 603.001C65.3363 603.001 84.1809 592.1 84.1809 578.652C84.1809 565.204 65.3363 554.303 42.0904 554.303C18.8445 554.303 0 565.204 0 578.652C0 592.1 18.8445 603.001 42.0904 603.001Z" fill="#D6D8E5"/>
<path id="Vector_121" d="M52.5047 596.741C75.7506 596.741 94.5951 585.84 94.5951 572.392C94.5951 558.944 75.7506 548.043 52.5047 548.043C29.2588 548.043 10.4142 558.944 10.4142 572.392C10.4142 585.84 29.2588 596.741 52.5047 596.741Z" fill="#DD990E"/>
<path id="Vector_122" d="M10.4263 572.767V561.672L18.7456 569.089L10.4263 572.767Z" fill="#DD990E"/>
<path id="Vector_123" d="M94.6072 561.961V572.393L90.3572 576.915L88.2744 564.976L94.6072 561.961Z" fill="#DD990E"/>
<path id="Vector_124" d="M52.5047 586.31C75.7506 586.31 94.5951 575.408 94.5951 561.961C94.5951 548.513 75.7506 537.611 52.5047 537.611C29.2588 537.611 10.4142 548.513 10.4142 561.961C10.4142 575.408 29.2588 586.31 52.5047 586.31Z" fill="#F9CB07"/>
<path id="Vector_125" d="M82.5917 562.721C82.1703 566.821 79.2446 570.861 73.8268 573.997C62.0521 580.799 42.9693 580.799 31.2066 573.997C25.7768 570.861 22.8632 566.821 22.4418 562.721C21.9362 557.897 24.8497 553.013 31.2066 549.358C42.9693 542.545 62.0521 542.545 73.8268 549.358C80.1717 553.013 83.0732 557.921 82.5917 562.721Z" fill="#CC8B09"/>
<path id="Vector_126" d="M82.5916 562.72C82.1702 566.821 79.2446 570.861 73.8268 573.997C62.052 580.798 42.9693 580.798 31.2066 573.997C25.7767 570.861 22.8632 566.821 22.4418 562.72C22.8632 558.62 25.7767 554.58 31.2066 551.444C42.9693 544.631 62.052 544.631 73.8268 551.444C79.2446 554.58 82.1702 558.62 82.5916 562.72Z" fill="#E8A30A"/>
<path id="Vector_127" d="M52.0712 557.017C51.7002 557.011 51.3295 557.04 50.9636 557.101C50.47 557.173 49.9162 557.27 49.3021 557.403C48.6881 557.535 48.0982 557.692 47.3878 557.897C46.7401 558.089 46.1081 558.331 45.4976 558.621L50.3135 561.419L51.1803 561.105C52.3843 560.695 53.5882 560.345 54.6598 560.068C55.6849 559.805 56.7333 559.643 57.7901 559.585C58.7535 559.521 59.7212 559.586 60.6675 559.778C61.6383 559.985 62.5693 560.348 63.4246 560.852C64.2634 561.275 64.9803 561.906 65.5074 562.685C65.6817 562.964 65.7991 563.275 65.8528 563.6C65.9066 563.925 65.8956 564.258 65.8205 564.578C65.5927 565.298 65.177 565.943 64.6165 566.448C63.9585 567.121 63.2182 567.709 62.4133 568.196L65.4834 569.981L63.8098 570.946L60.7999 569.113C59.3261 569.851 57.7811 570.437 56.1888 570.862C54.522 571.326 52.818 571.645 51.096 571.814L49.4707 568.908C49.9258 568.896 50.3799 568.86 50.8312 568.799C51.5109 568.718 52.1861 568.601 52.8538 568.45C53.6003 568.293 54.3949 568.088 55.2617 567.847C56.0862 567.617 56.8913 567.322 57.6697 566.966L52.8538 564.18C52.6491 564.253 52.4445 564.337 52.2278 564.397L51.5656 564.602C50.3616 565 49.2419 565.314 48.2427 565.543C47.3099 565.76 46.3583 565.885 45.4013 565.917C44.5601 565.954 43.7178 565.876 42.8971 565.688C42.0793 565.494 41.2958 565.177 40.5734 564.747C39.7677 564.338 39.0672 563.748 38.5267 563.023C38.13 562.483 37.9341 561.822 37.9729 561.153C38.0447 560.457 38.3213 559.798 38.7675 559.26C39.3266 558.571 39.9886 557.973 40.7299 557.487L37.8766 555.835L39.5621 554.858L42.3794 556.498C43.7038 555.837 45.0967 555.323 46.533 554.967C47.9018 554.617 49.294 554.367 50.6987 554.219L52.0712 557.017ZM43.8482 562.094C44.4809 562.464 45.214 562.624 45.9431 562.552C46.9218 562.433 47.8858 562.215 48.8205 561.901L44.2937 559.284C42.6322 560.369 42.4837 561.306 43.8482 562.094ZM59.7405 563.421C59.0479 563.049 58.2546 562.909 57.477 563.023C56.4038 563.16 55.3444 563.39 54.3106 563.71L58.8134 566.315C60.7397 565.145 61.0407 564.18 59.7405 563.421Z" fill="#CC8B09"/>
<path id="Vector_128" d="M49.4707 568.908C49.4707 568.787 49.4707 567.268 49.4707 567.268L51.3128 568.474L50.5182 569.68L49.4707 568.908Z" fill="#CC8B09"/>
<path id="Vector_129" d="M65.5797 569.945V568.305L61.5825 568.618L63.8821 570.186L65.5797 569.945Z" fill="#CC8B09"/>
<path id="Vector_130" d="M65.9288 563.939V562.287L62.931 563.373L65.9288 563.939Z" fill="#CC8B09"/>
<path id="Vector_131" d="M53.504 563.855L54.5033 562.902L58.0188 565.314L57.8021 566.026C57.8021 566.026 55.1775 564.916 55.0932 564.82C55.0089 564.723 53.504 563.855 53.504 563.855Z" fill="#CC8B09"/>
<path id="Vector_132" d="M44.3057 558.704L48.9771 561.357L49.9282 560.657C49.9282 560.657 49.3383 559.982 49.3022 559.922C48.884 559.444 48.3922 559.037 47.8454 558.716C47.4962 558.643 45.2809 557.654 45.2809 557.654L44.3057 558.704Z" fill="#CC8B09"/>
<path id="Vector_133" d="M52.0713 557.015V555.375L49.9282 554.676L49.4707 555.966L49.5791 556.545L52.0713 557.015Z" fill="#CC8B09"/>
<path id="Vector_134" d="M37.8284 555.834V554.193L40.3206 554.459L39.5139 556.051L37.8284 555.834Z" fill="#CC8B09"/>
<path id="Vector_135" d="M37.9247 561.382V559.682H40.7661L40.0798 561.201L38.8759 562.564L37.9247 561.382Z" fill="#CC8B09"/>
<path id="Vector_136" d="M52.0712 555.376C51.6999 555.376 51.3294 555.408 50.9636 555.473C50.474 555.545 49.9202 555.641 49.3021 555.762C48.6881 555.895 48.0982 556.063 47.3878 556.256C46.7419 556.454 46.1103 556.695 45.4976 556.98L50.3135 559.778L51.1803 559.476C52.3843 559.066 53.5882 558.717 54.6598 558.427C55.6888 558.157 56.7408 557.983 57.8021 557.909C58.7655 557.851 59.7324 557.915 60.6796 558.102C61.6508 558.313 62.5818 558.679 63.4366 559.187C64.2754 559.61 64.9924 560.241 65.5195 561.02C65.6938 561.299 65.8112 561.611 65.8649 561.935C65.9186 562.26 65.9076 562.593 65.8325 562.914C65.6016 563.632 65.1864 564.276 64.6285 564.783C63.9674 565.453 63.2276 566.04 62.4253 566.532L65.4954 568.304L63.8219 569.281L60.7157 567.484C59.2644 568.207 57.7488 568.793 56.1888 569.233C54.5206 569.692 52.8171 570.011 51.096 570.186L49.4707 567.267C49.9256 567.261 50.3799 567.229 50.8312 567.171C51.4331 567.098 52.1074 566.978 52.8538 566.821C53.6003 566.664 54.3949 566.459 55.2617 566.218C56.0847 565.979 56.8894 565.68 57.6697 565.326L52.8538 562.552L52.2278 562.769L51.5656 562.974C50.4747 563.341 49.3656 563.651 48.2426 563.902C47.3102 564.123 46.3586 564.252 45.4013 564.288C44.5595 564.321 43.7172 564.24 42.8971 564.047C42.0815 563.853 41.2986 563.54 40.5734 563.119C39.7669 562.705 39.0664 562.111 38.5267 561.382C38.13 560.843 37.9341 560.181 37.9729 559.513C38.0478 558.821 38.3241 558.167 38.7675 557.631C39.3293 556.942 39.9907 556.34 40.7299 555.846L37.8766 554.194L39.5621 553.229L42.3794 554.857C43.7064 554.205 45.0987 553.696 46.533 553.338C47.9028 552.99 49.2946 552.737 50.6987 552.578L52.0712 555.376ZM43.8482 560.465C44.482 560.832 45.2153 560.988 45.9431 560.912C46.9237 560.804 47.8891 560.586 48.8205 560.26L44.2937 557.643C42.6322 558.729 42.4837 559.669 43.8482 560.465ZM59.7405 561.792C59.0507 561.412 58.256 561.268 57.477 561.382C56.4025 561.518 55.3427 561.752 54.3106 562.081L58.8134 564.686C60.7397 563.504 61.0407 562.54 59.7405 561.792Z" fill="#F9CA06"/>
</g>
<g id="Coin_7">
<path id="Vector_137" d="M55.948 583.765C79.1939 583.765 98.0384 572.863 98.0384 559.416C98.0384 545.968 79.1939 535.066 55.948 535.066C32.7021 535.066 13.8576 545.968 13.8576 559.416C13.8576 572.863 32.7021 583.765 55.948 583.765Z" fill="#DD990E"/>
<path id="Vector_138" d="M13.8696 559.791V548.695L22.189 556.112L13.8696 559.791Z" fill="#DD990E"/>
<path id="Vector_139" d="M98.0505 548.984V559.416L93.7884 563.939L91.7056 551.987L98.0505 548.984Z" fill="#DD990E"/>
<path id="Vector_140" d="M55.948 573.333C79.1939 573.333 98.0384 562.432 98.0384 548.984C98.0384 535.536 79.1939 524.635 55.948 524.635C32.7021 524.635 13.8576 535.536 13.8576 548.984C13.8576 562.432 32.7021 573.333 55.948 573.333Z" fill="#F9CB07"/>
<path id="Vector_141" d="M86.0349 549.731C85.6015 553.831 82.6879 557.871 77.2581 561.019C65.4954 567.821 46.4126 567.821 34.6379 561.019C29.2201 557.871 26.3065 553.783 25.8851 549.731C25.3795 544.907 28.293 540.083 34.6379 536.368C46.4126 529.554 65.4954 529.554 77.2581 536.368C83.6029 540.034 86.5286 544.931 86.0349 549.731Z" fill="#CC8B09"/>
<path id="Vector_142" d="M86.035 549.732C85.6015 553.833 82.688 557.873 77.2581 561.02C65.4954 567.822 46.4126 567.822 34.6379 561.02C29.2201 557.873 26.3065 553.784 25.8851 549.732C26.3065 545.632 29.2201 541.604 34.6379 538.456C46.4126 531.642 65.4954 531.642 77.2581 538.456C82.688 541.604 85.6015 545.632 86.035 549.732Z" fill="#E8A30A"/>
<path id="Vector_143" d="M55.5146 544.026C55.1436 544.033 54.7735 544.065 54.4069 544.123C53.9133 544.195 53.3595 544.292 52.7455 544.424C52.0951 544.555 51.4521 544.72 50.8191 544.919C50.1756 545.107 49.5476 545.345 48.941 545.63L53.7568 548.428L54.6236 548.127C55.8276 547.717 57.0316 547.367 58.1031 547.078C59.1281 546.807 60.1761 546.634 61.2334 546.559C62.2014 546.499 63.1731 546.567 64.1229 546.764C65.0914 546.965 66.0193 547.328 66.8679 547.837C67.7096 548.261 68.4304 548.892 68.9628 549.671C69.1357 549.95 69.2513 550.262 69.303 550.587C69.3547 550.912 69.3413 551.244 69.2638 551.564C69.0597 552.277 68.6689 552.922 68.1321 553.433C67.464 554.1 66.7206 554.687 65.9168 555.182L68.9989 556.955L67.3254 557.932L64.2192 556.135C62.7367 556.863 61.1887 557.448 59.596 557.883C57.9284 558.345 56.2247 558.663 54.5033 558.836L52.9742 555.966C53.4253 555.954 53.8754 555.918 54.3227 555.857C54.9367 555.785 55.6109 555.664 56.3574 555.508C57.1038 555.351 57.8864 555.146 58.7653 554.905C59.5888 554.672 60.3937 554.378 61.1732 554.024L56.3574 551.238L55.7193 551.455L55.0691 551.66C53.8652 552.058 52.7455 552.372 51.7341 552.601C50.8006 552.813 49.8494 552.939 48.8928 552.975C48.0518 553.004 47.2104 552.927 46.3886 552.746C45.5781 552.542 44.8 552.225 44.077 551.805C43.2801 551.387 42.5885 550.793 42.0543 550.069C41.6646 549.526 41.4733 548.866 41.5125 548.199C41.5383 547.525 41.7555 546.873 42.1386 546.318C42.7004 545.628 43.3618 545.027 44.101 544.533L41.2477 542.881L42.9212 541.916L45.7505 543.508C47.0775 542.856 48.4698 542.346 49.9041 541.988C51.2699 541.641 52.6576 541.387 54.0578 541.229L55.5146 544.026ZM47.2795 549.116C47.9176 549.482 48.6548 549.639 49.3864 549.562C50.3656 549.453 51.3303 549.238 52.2639 548.923L47.737 546.318C46.0755 547.391 45.919 548.32 47.2795 549.116ZM63.1718 550.442C62.4821 550.062 61.6873 549.918 60.9083 550.032C59.8378 550.169 58.782 550.403 57.7539 550.732L62.2568 553.337C64.1711 552.155 64.4841 551.142 63.1718 550.442Z" fill="#CC8B09"/>
<path id="Vector_144" d="M52.9742 555.966C52.9742 555.846 52.9742 554.326 52.9742 554.326L54.8163 555.532L54.0096 556.738L52.9742 555.966Z" fill="#CC8B09"/>
<path id="Vector_145" d="M69.023 556.956V555.328L65.0259 555.63L67.3254 557.197L69.023 556.956Z" fill="#CC8B09"/>
<path id="Vector_146" d="M69.3601 550.963V549.311L66.3623 550.396L69.3601 550.963Z" fill="#CC8B09"/>
<path id="Vector_147" d="M56.9473 550.877L57.9466 549.912L61.4621 552.324L61.2454 553.048C61.2454 553.048 58.6208 551.938 58.5365 551.842L56.9473 550.877Z" fill="#CC8B09"/>
<path id="Vector_148" d="M47.749 545.715L52.4083 548.368L53.3715 547.681C53.3715 547.681 52.7816 547.005 52.7334 546.933C52.3136 546.462 51.8268 546.056 51.2887 545.727C50.9395 545.667 48.7242 544.678 48.7242 544.678L47.749 545.715Z" fill="#CC8B09"/>
<path id="Vector_149" d="M55.5146 544.027V542.399L53.3715 541.699L52.914 542.978L53.0224 543.569L55.5146 544.027Z" fill="#CC8B09"/>
<path id="Vector_150" d="M41.2717 542.857V541.217L43.7519 541.482L42.9573 543.074L41.2717 542.857Z" fill="#CC8B09"/>
<path id="Vector_151" d="M41.356 548.406V546.705H44.1974L43.4991 548.225L42.2951 549.587L41.356 548.406Z" fill="#CC8B09"/>
<path id="Vector_152" d="M55.5146 542.399C55.1436 542.394 54.7728 542.422 54.4069 542.484C53.9133 542.556 53.3595 542.653 52.7455 542.785C52.1314 542.918 51.4813 543.075 50.8191 543.28C50.1752 543.472 49.5473 543.714 48.9409 544.003L53.7568 546.801L54.6236 546.488C55.8276 546.078 57.0316 545.74 58.1031 545.451C59.1268 545.174 60.1754 545.001 61.2334 544.932C62.2008 544.868 63.1725 544.933 64.1229 545.125C65.0898 545.332 66.0169 545.694 66.8679 546.198C67.7096 546.622 68.4304 547.253 68.9628 548.032C69.1351 548.312 69.2503 548.623 69.302 548.948C69.3536 549.273 69.3407 549.605 69.2638 549.925C69.0624 550.639 68.6712 551.285 68.1321 551.794C67.4753 552.468 66.7395 553.059 65.9409 553.555L69.023 555.34L67.3495 556.305L64.2433 554.508C62.7653 555.246 61.2163 555.832 59.6201 556.256C57.9527 556.722 56.2491 557.044 54.5273 557.221L52.9742 554.291C53.4253 554.279 53.8754 554.242 54.3226 554.182C55.0066 554.102 55.6857 553.985 56.3573 553.832C57.1038 553.676 57.8864 553.471 58.7653 553.229C59.5906 553.002 60.3959 552.708 61.1732 552.349L56.3573 549.563C56.1527 549.635 55.9359 549.72 55.7192 549.78L55.0691 549.985C53.8651 550.383 52.7455 550.697 51.7341 550.926C50.8009 551.142 49.8497 551.271 48.8928 551.312C48.0512 551.337 47.2098 551.256 46.3885 551.071C45.5746 550.877 44.7951 550.56 44.0769 550.13C43.2811 549.716 42.5895 549.126 42.0543 548.405C41.6664 547.862 41.4752 547.203 41.5125 546.536C41.5844 545.84 41.8609 545.181 42.3071 544.643C42.8695 543.957 43.531 543.36 44.2696 542.87L41.4162 541.218L43.0897 540.241L45.7505 541.881C47.0749 541.22 48.4678 540.706 49.9041 540.349C51.2688 540 52.657 539.75 54.0578 539.602L55.5146 542.399ZM47.2795 547.525C47.9165 547.895 48.6535 548.055 49.3864 547.983C50.3649 547.863 51.3288 547.645 52.2639 547.332L47.737 544.715C46.0755 545.784 45.923 546.721 47.2795 547.525ZM63.1718 548.852C62.4806 548.476 61.6859 548.336 60.9083 548.454C59.839 548.591 58.7836 548.821 57.7539 549.141L62.2567 551.746C64.171 550.528 64.4841 549.563 63.1718 548.803V548.852Z" fill="#F9CA06"/>
</g>
<g id="Coin_8">
<path id="Vector_153" opacity="0.3" d="M261.825 603.001C285.071 603.001 303.916 592.1 303.916 578.652C303.916 565.204 285.071 554.303 261.825 554.303C238.579 554.303 219.735 565.204 219.735 578.652C219.735 592.1 238.579 603.001 261.825 603.001Z" fill="#D6D8E5"/>
<path id="Vector_154" d="M272.239 596.741C295.485 596.741 314.33 585.84 314.33 572.392C314.33 558.944 295.485 548.043 272.239 548.043C248.993 548.043 230.149 558.944 230.149 572.392C230.149 585.84 248.993 596.741 272.239 596.741Z" fill="#DD990E"/>
<path id="Vector_155" d="M230.161 572.767V561.672L238.48 569.089L230.161 572.767Z" fill="#DD990E"/>
<path id="Vector_156" d="M314.342 561.961V572.393L310.092 576.915L308.009 564.976L314.342 561.961Z" fill="#DD990E"/>
<path id="Vector_157" d="M272.239 586.31C295.485 586.31 314.33 575.408 314.33 561.961C314.33 548.513 295.485 537.611 272.239 537.611C248.993 537.611 230.149 548.513 230.149 561.961C230.149 575.408 248.993 586.31 272.239 586.31Z" fill="#F9CB07"/>
<path id="Vector_158" d="M302.326 562.721C301.905 566.821 298.979 570.861 293.562 573.997C281.787 580.799 262.704 580.799 250.941 573.997C245.511 570.861 242.598 566.821 242.176 562.721C241.671 557.897 244.584 553.013 250.941 549.358C262.704 542.545 281.787 542.545 293.562 549.358C299.906 553.013 302.832 557.921 302.326 562.721Z" fill="#CC8B09"/>
<path id="Vector_159" d="M302.326 562.72C301.905 566.821 298.979 570.861 293.561 573.997C281.787 580.798 262.704 580.798 250.941 573.997C245.511 570.861 242.598 566.821 242.176 562.72C242.598 558.62 245.511 554.58 250.941 551.444C262.704 544.631 281.787 544.631 293.561 551.444C298.979 554.58 301.905 558.62 302.326 562.72Z" fill="#E8A30A"/>
<path id="Vector_160" d="M271.806 557.017C271.435 557.011 271.064 557.04 270.698 557.101C270.205 557.173 269.651 557.27 269.037 557.403C268.423 557.535 267.833 557.692 267.123 557.897C266.475 558.089 265.843 558.331 265.232 558.621L270.048 561.419L270.915 561.105C272.119 560.695 273.323 560.345 274.394 560.068C275.422 559.792 276.475 559.618 277.537 559.549C278.5 559.485 279.468 559.55 280.414 559.742C281.385 559.949 282.316 560.311 283.171 560.816C284.01 561.239 284.727 561.87 285.254 562.649C285.431 562.927 285.549 563.239 285.601 563.564C285.652 563.89 285.637 564.223 285.555 564.542C285.354 565.256 284.963 565.902 284.423 566.411C283.765 567.085 283.025 567.672 282.22 568.16L285.29 569.945L283.617 570.91L280.523 569.113C279.049 569.851 277.504 570.437 275.911 570.862C274.245 571.326 272.541 571.645 270.819 571.814L269.193 568.908C269.648 568.896 270.103 568.86 270.554 568.799C271.234 568.718 271.909 568.601 272.576 568.45C273.323 568.293 274.105 568.088 274.984 567.847C275.809 567.617 276.614 567.322 277.392 566.966L272.576 564.18C272.372 564.253 272.167 564.337 271.95 564.397L271.288 564.602C270.084 565 268.965 565.314 267.965 565.543C267.033 565.76 266.081 565.885 265.124 565.917C264.283 565.954 263.44 565.876 262.62 565.688C261.802 565.494 261.018 565.177 260.296 564.747C259.503 564.333 258.816 563.743 258.285 563.023C257.889 562.483 257.693 561.822 257.732 561.153C257.804 560.457 258.08 559.798 258.526 559.26C259.085 558.571 259.747 557.973 260.489 557.487L257.635 555.835L259.321 554.858L262.138 556.498C263.463 555.837 264.855 555.323 266.292 554.967C267.657 554.618 269.045 554.368 270.445 554.219L271.806 557.017ZM263.583 562.094C264.216 562.464 264.949 562.624 265.678 562.552C266.656 562.433 267.621 562.215 268.555 561.901L264.028 559.284C262.367 560.369 262.218 561.306 263.583 562.094ZM279.475 563.421C278.779 563.048 277.981 562.908 277.2 563.023C276.131 563.161 275.075 563.391 274.045 563.71L278.548 566.315C280.523 565.145 280.775 564.18 279.475 563.421Z" fill="#CC8B09"/>
<path id="Vector_161" d="M269.205 568.908C269.205 568.787 269.205 567.268 269.205 567.268L271.048 568.474L270.253 569.68L269.205 568.908Z" fill="#CC8B09"/>
<path id="Vector_162" d="M285.314 569.945V568.305L281.317 568.618L283.617 570.186L285.314 569.945Z" fill="#CC8B09"/>
<path id="Vector_163" d="M285.651 563.939V562.287L282.666 563.373L285.651 563.939Z" fill="#CC8B09"/>
<path id="Vector_164" d="M273.299 563.855L274.298 562.902L277.814 565.314L277.597 566.026C277.597 566.026 274.972 564.916 274.888 564.82C274.804 564.723 273.299 563.855 273.299 563.855Z" fill="#CC8B09"/>
<path id="Vector_165" d="M264.04 558.704L268.712 561.357L269.663 560.657C269.663 560.657 269.073 559.982 269.037 559.922C268.619 559.444 268.127 559.037 267.58 558.716C267.231 558.643 265.016 557.654 265.016 557.654L264.04 558.704Z" fill="#CC8B09"/>
<path id="Vector_166" d="M271.806 557.015V555.375L269.663 554.676L269.205 555.966L269.314 556.545L271.806 557.015Z" fill="#CC8B09"/>
<path id="Vector_167" d="M257.563 555.834V554.193L260.055 554.459L259.249 556.051L257.563 555.834Z" fill="#CC8B09"/>
<path id="Vector_168" d="M257.647 561.382V559.682H260.489L259.802 561.201L258.598 562.564L257.647 561.382Z" fill="#CC8B09"/>
<path id="Vector_169" d="M271.806 555.376C271.435 555.376 271.064 555.408 270.698 555.473C270.209 555.545 269.655 555.641 269.037 555.762C268.423 555.895 267.833 556.063 267.123 556.256C266.477 556.454 265.845 556.695 265.232 556.98L270.048 559.778L270.915 559.476C272.119 559.066 273.323 558.717 274.394 558.427C275.423 558.157 276.475 557.983 277.537 557.909C278.5 557.851 279.467 557.915 280.414 558.102C281.386 558.313 282.316 558.679 283.171 559.187C284.01 559.61 284.727 560.241 285.254 561.02C285.431 561.298 285.549 561.61 285.601 561.936C285.652 562.261 285.637 562.594 285.555 562.914C285.351 563.627 284.96 564.272 284.423 564.783C283.762 565.453 283.022 566.04 282.22 566.532L285.29 568.304L283.617 569.281L280.523 567.484C279.044 568.212 277.5 568.798 275.911 569.233C274.243 569.692 272.54 570.011 270.819 570.186L269.193 567.267C269.648 567.261 270.102 567.229 270.554 567.171C271.156 567.098 271.83 566.978 272.576 566.821C273.323 566.664 274.105 566.459 274.984 566.218C275.807 565.979 276.612 565.68 277.392 565.326L272.576 562.552L271.95 562.769L271.288 562.974C270.197 563.341 269.088 563.651 267.965 563.902C267.033 564.123 266.081 564.252 265.124 564.288C264.282 564.321 263.44 564.24 262.62 564.047C261.804 563.853 261.021 563.54 260.296 563.119C259.503 562.701 258.815 562.107 258.285 561.382C257.889 560.843 257.693 560.181 257.732 559.513C257.807 558.821 258.083 558.167 258.526 557.631C259.088 556.942 259.749 556.34 260.489 555.846L257.635 554.194L259.321 553.229L262.138 554.857C263.465 554.205 264.857 553.696 266.292 553.338C267.658 552.992 269.045 552.738 270.445 552.578L271.806 555.376ZM263.583 560.465C264.217 560.832 264.95 560.988 265.678 560.912C266.658 560.804 267.624 560.586 268.555 560.26L264.028 557.643C262.367 558.729 262.218 559.669 263.583 560.465ZM279.475 561.792C278.782 561.409 277.983 561.265 277.2 561.382C276.129 561.52 275.074 561.754 274.045 562.081L278.548 564.686C280.523 563.504 280.775 562.54 279.475 561.792Z" fill="#F9CA06"/>
</g>
<path id="Vector_170" opacity="0.4" d="M487.495 596.15C516.493 596.15 540 582.554 540 565.783C540 549.012 516.493 535.416 487.495 535.416C458.498 535.416 434.991 549.012 434.991 565.783C434.991 582.554 458.498 596.15 487.495 596.15Z" fill="#D6D8E5"/>
<g id="Girl 10">
<path id="&#60;&#208;&#154;&#208;&#190;&#208;&#189;&#209;&#130;&#209;&#131;&#209;&#128;&#62;" d="M485.087 249.931C487.435 246.157 505.362 243.672 511.261 258.892C513.501 264.657 513.152 279.394 515.018 288.668C516.884 297.942 521.302 303.14 522.88 310.702C524.457 318.263 521.88 330.83 503.797 333.049C485.713 335.268 471.808 328.912 467.534 323.136C463.26 317.359 463.175 305.046 467.618 298.497C472.061 291.949 475.42 286.546 475.311 277.995L485.087 249.931Z" fill="#3A2C6D"/>
<path id="Vector_171" d="M463.609 313.56C463.609 313.56 459.359 343.589 467.389 364.935C475.42 386.282 473.192 359.436 473.192 359.436L471.266 353.056C471.266 353.056 469.653 328.502 470.315 322.484C470.977 316.466 470.821 311.293 471.266 310.81C471.711 310.328 469.665 309.375 468.858 309.254C468.051 309.134 463.609 313.56 463.609 313.56Z" fill="#FFCEA9"/>
<path id="&#60;&#208;&#154;&#208;&#190;&#208;&#189;&#209;&#130;&#209;&#131;&#209;&#128;&#62;_2" d="M496.922 247.303C496.922 247.303 483.426 243.407 475.251 250.716C467.774 257.397 468.4 266.49 469.484 270.759C470.568 275.029 472.759 280.854 476.142 281.179C479.525 281.505 496.922 247.303 496.922 247.303Z" fill="#3A2C6D"/>
<path id="&#60;&#208;&#154;&#208;&#190;&#208;&#189;&#209;&#130;&#209;&#131;&#209;&#128;&#62;_3" d="M502.051 284.182C502.051 284.182 501.16 299.257 501.437 300.366C501.714 301.476 507.349 302.537 508.926 303.851C510.503 305.166 500.739 320.458 495.779 322.725C490.818 324.993 475.444 319.204 474.384 311.546C473.397 304.491 478.779 299.015 480.849 297.074C482.258 296.949 483.674 296.913 485.087 296.965L485.545 289.657C492.311 287.546 502.051 284.182 502.051 284.182Z" fill="#FFCEA9"/>
<path id="&#60;&#208;&#154;&#208;&#190;&#208;&#189;&#209;&#130;&#209;&#131;&#209;&#128;&#62;_4" d="M504.146 301.826C508.372 302.478 513.212 304.745 513.874 307.06C514.645 309.762 516.282 322.509 512.67 332.218C509.058 341.926 506.542 348.089 504.447 352.261C504.447 352.261 486.159 360.125 471.41 350.959C471.41 350.959 470.399 340.563 470.327 335.003C456.722 323.112 468.352 308.471 479.886 297.051C481.267 296.91 482.656 296.89 484.04 296.99C484.04 296.99 473.746 309.183 480.898 316.105C496.2 311.462 499.246 304.576 504.146 301.826Z" fill="#F4F4F4"/>
<path id="&#60;&#208;&#154;&#208;&#190;&#208;&#189;&#209;&#130;&#209;&#131;&#209;&#128;&#62;_5" d="M473.975 265.513C475.492 255.865 482.475 248.509 492.444 249.1C496.452 249.321 500.29 250.798 503.415 253.323C506.54 255.848 508.794 259.293 509.859 263.17C510.923 267.048 510.744 271.162 509.348 274.933C507.951 278.703 505.407 281.939 502.075 284.182C501.731 285.649 501.213 287.07 500.534 288.415C496.995 292.54 487.628 295.145 484.534 295.193C481.849 295.193 479.549 292.721 477.033 288.56C471.832 279.889 473.156 270.289 473.975 265.513Z" fill="#FFCEA9"/>
<path id="Vector_172" d="M495.538 249.28C502.533 250.643 508.276 252.62 510.178 259.495C511.478 264.234 513.176 273.255 511.563 277.066L510.551 279.816L502.123 284.181C502.123 284.181 498.174 280.889 499.402 271.217C499.35 269.921 498.932 268.667 498.199 267.599C497.651 266.693 497.245 265.709 496.995 264.68C495.999 262.063 494.032 259.933 491.505 258.735C485.208 255.189 475.973 258.252 474.649 259.531C478.947 250.727 487.399 247.688 495.538 249.28Z" fill="#3A2C6D"/>
<path id="Vector_173" d="M508.24 554.506C504.7 557.389 499.198 555.399 498.933 555.652C495.321 559.27 489.963 562.418 485.966 565.577C483.763 567.314 480.332 569.642 480.946 572.982C482.065 578.952 491.613 577.119 495.213 575.286C498.813 573.453 501.75 570.462 505.157 568.315C507.565 566.796 509.973 566.012 510.359 562.936C510.587 561.079 508.866 554.434 508.24 554.506Z" fill="#38226D"/>
<path id="Vector_174" d="M510.31 561.707C509.841 564.65 507.481 565.458 505.073 566.953C501.606 569.112 498.56 572.223 494.96 574.044C491.637 575.733 483.33 577.409 480.994 573.152C482.27 578.905 491.649 577.096 495.213 575.287C498.776 573.478 501.75 570.463 505.157 568.316C507.565 566.796 509.973 566.012 510.359 562.937C510.387 562.527 510.371 562.114 510.31 561.707Z" fill="#9C73FF"/>
<path id="Vector_175" d="M483.414 549.538C480.175 552.179 475.287 550.744 475.046 550.937C471.748 554.253 466.859 557.099 463.199 559.982C461.177 561.574 458.022 563.708 458.588 566.759C459.612 572.235 468.352 570.546 471.651 568.882C474.95 567.218 477.671 564.432 480.765 562.49C482.993 561.103 485.184 560.38 485.581 557.57C485.738 555.869 483.992 549.465 483.414 549.538Z" fill="#38226D"/>
<path id="Vector_176" d="M485.485 556.438C485.063 559.127 482.896 559.875 480.669 561.261C477.49 563.239 474.649 566.085 471.398 567.75C468.352 569.305 460.755 570.837 458.612 566.93C459.816 572.2 468.364 570.548 471.627 568.895C474.89 567.243 477.647 564.445 480.741 562.504C482.968 561.117 485.16 560.393 485.557 557.583C485.578 557.2 485.554 556.815 485.485 556.438Z" fill="#9C73FF"/>
<path id="Vector_177" d="M464.343 384.643C465.896 372.426 470.363 354.674 470.363 354.674C474.641 356.682 479.272 357.825 483.992 358.039C491.866 358.437 504.459 356.049 504.459 356.049C506.669 359.9 509.08 363.632 511.683 367.228C515.198 372.113 522.037 382.834 520.388 401.563C519.304 413.804 512.465 465.771 512.465 465.771C515.125 474.513 516.539 483.587 516.667 492.725C516.595 500.286 514.609 513.13 512.381 525.009L508.3 554.508C508.3 554.508 502.87 558.44 498.993 555.654L499.487 526.794C499.005 519.727 498.283 509.307 497.861 502.674C497.127 491.82 495.189 474.623 494.635 470.317C494.081 466.012 492.696 458.51 492.046 450.093C491.396 441.675 488.218 398.898 488.218 398.898L487.784 406.906C487.784 406.906 487.363 419.918 485.497 435.958C483.631 451.998 482.981 459.126 482.981 459.126C482.981 459.126 486.219 465.095 486.592 469.485C486.917 472.958 490.878 500.395 488.519 514.348L483.703 549.829C482.487 550.671 481.088 551.211 479.623 551.404C478.157 551.597 476.667 551.437 475.275 550.938L472.422 515.18C470.507 501.565 466.402 472.717 465.824 468.966C465.005 464.034 464.331 461.598 463.416 446.052C462.501 430.507 462.778 396.86 464.343 384.643Z" fill="#FFCEA9"/>
<path id="Vector_178" d="M504.459 352.261L514.958 373.402C514.958 373.402 530.994 396.907 514.38 457.34L517.498 475.984C517.498 475.984 486.051 496.197 465.005 475.984C465.005 475.984 457.709 420.135 461.586 394.386C463.746 379.575 467.022 364.949 471.386 350.633C471.386 350.633 476.539 356.337 503.062 352.574" fill="#8C50FF"/>
<path id="&#60;&#208;&#154;&#208;&#190;&#208;&#189;&#209;&#130;&#209;&#131;&#209;&#128;&#62;_6" d="M438.651 367.276C441.059 367.735 443.358 367.216 446.729 368.133C449.249 368.932 451.876 369.338 454.519 369.339C457.384 369.339 465.427 365.323 472.325 360.475C480.452 354.77 488.519 344.917 491.432 340.178C497.705 329.951 503.713 319.398 505.567 313.995C507.782 307.507 507.734 311.921 511.587 311.825C516.077 311.716 518.497 313.368 515.126 322.172C511.755 330.976 508.685 337.102 501.172 347.498C495.673 355.299 488.876 362.096 481.078 367.59C474.225 372.397 466.82 376.361 459.022 379.397C456.77 380.325 455.338 381.568 451.256 383.835C447.213 386.156 442.669 387.464 438.013 387.646C434.112 387.549 432.715 386.898 432.39 386.102C431.981 385.101 432.739 384.414 434.521 384.245C437.371 384.203 440.19 383.643 442.84 382.593C442.84 382.593 438.952 383.147 436.604 383.268C434.508 383.382 432.407 383.216 430.355 382.774C428.381 382.303 427.273 379.505 429.067 379.288C430.861 379.071 432.306 379.409 435.797 379.18C437.644 379.063 439.471 378.727 441.239 378.179C438.906 378.2 436.574 378.03 434.268 377.672C432.392 377.495 430.607 376.779 429.127 375.61C428.369 374.983 428.236 373.198 430.5 373.198C432.535 373.198 435.087 374.139 438.928 373.608C441.757 373.21 443.743 372.547 443.262 372.173C442.78 371.799 441.179 372.173 438.843 371.317C436.508 370.46 434.87 368.41 435.412 367.18C435.954 365.95 436.219 366.83 438.651 367.276Z" fill="#FFCEA9"/>
<path id="Vector_179" d="M513.043 330.517C513.043 330.517 502.749 331.06 496.898 324.596L503.243 311.33C503.243 311.33 506.169 303.985 513.031 305.794C519.894 307.603 520.002 317.276 513.043 330.517Z" fill="#EDEDED"/>
<path id="Vector_180" d="M479.874 297.051C479.874 297.051 471.519 294.494 462.646 313.031L465.969 315.033C465.969 315.033 474.697 301.803 479.874 297.051Z" fill="#EDEDED"/>
</g>
<path id="Vector_181" opacity="0.4" d="M234.893 408.833L98.1227 329.744C96.9551 329.069 95.9856 328.097 95.3115 326.928C94.6374 325.758 94.2826 324.431 94.2826 323.081C94.2826 321.73 94.6374 320.403 95.3115 319.234C95.9856 318.064 96.9551 317.093 98.1227 316.418C99.2904 315.742 100.615 315.387 101.963 315.387C103.312 315.387 104.636 315.742 105.804 316.418L242.574 395.567C243.813 396.285 244.827 397.334 245.503 398.598C246.178 399.862 246.488 401.29 246.396 402.721C246.305 404.151 245.816 405.528 244.986 406.696C244.155 407.863 243.015 408.775 241.695 409.328C240.6 409.778 239.416 409.967 238.236 409.881C237.055 409.795 235.911 409.437 234.893 408.833Z" fill="#D6D8E5"/>
<path id="Vector_182" d="M175.838 360.992C126.885 332.687 87.0704 263.595 87.0704 206.986C87.0704 150.376 126.885 127.39 175.838 155.659C224.791 183.927 264.606 253.043 264.606 309.665C264.606 366.286 224.779 389.297 175.838 360.992ZM175.838 174.062C135.65 150.822 102.951 169.733 102.951 216.212C102.951 262.691 135.65 319.409 175.838 342.649C216.027 365.888 248.714 346.99 248.714 300.511C248.714 254.032 216.027 197.265 175.838 174.026V174.062Z" fill="#D33D3D"/>
<path id="Vector_183" d="M100.916 156.299L117.181 147.398L114.749 158.566L100.916 156.299Z" fill="#D33D3D"/>
<path id="Vector_184" d="M223.479 375.404C223.876 375.224 241.261 365.479 241.261 365.479L227.825 363.32L223.479 375.404Z" fill="#D33D3D"/>
<path id="Vector_185" d="M221.653 363.783C253.215 345.53 253.214 286.338 221.65 231.575C190.085 176.811 138.912 147.214 107.349 165.467C75.7874 183.72 75.7891 242.912 107.353 297.675C138.917 352.439 190.091 382.036 221.653 363.783Z" fill="#F4F4F4"/>
<path id="Vector_186" d="M164.509 367.299C115.58 338.982 75.7411 269.903 75.7411 213.281C75.7411 156.659 115.568 133.685 164.509 161.954C213.45 190.222 253.277 259.35 253.277 315.96C253.277 372.569 213.462 395.568 164.509 367.299ZM164.509 180.369C124.333 157.13 91.6334 176.028 91.6334 222.507C91.6334 268.986 124.333 325.716 164.509 348.956C204.685 372.196 237.397 353.286 237.397 306.806C237.397 260.327 204.673 203.573 164.509 180.333V180.369Z" fill="#FF4D4D"/>
<path id="Vector_187" d="M164.509 328.225C134.193 310.69 109.56 267.889 109.56 232.818C109.56 197.748 134.229 183.481 164.545 201.016C194.861 218.551 219.542 261.316 219.542 296.423C219.542 331.529 194.837 345.772 164.509 328.225ZM164.509 219.395C142.946 206.925 125.404 217.068 125.404 242.008C125.404 266.948 142.946 297.387 164.509 309.857C186.072 322.327 203.614 312.173 203.614 287.233C203.614 262.293 186.072 231.865 164.509 219.395Z" fill="#FF4D4D"/>
<path id="Vector_188" d="M164.509 289.778C152.469 282.843 142.766 265.911 142.766 252.042C142.766 238.173 152.518 232.529 164.509 239.464C176.501 246.398 186.265 263.33 186.265 277.199C186.265 291.068 176.513 296.676 164.509 289.778ZM164.509 257.843C161.282 255.974 158.646 257.493 158.646 261.232C158.759 263.268 159.349 265.249 160.368 267.015C161.386 268.781 162.805 270.283 164.509 271.399C167.748 273.268 170.372 271.748 170.372 268.01C170.262 265.973 169.673 263.991 168.654 262.224C167.636 260.458 166.215 258.957 164.509 257.843Z" fill="#FF4D4D"/>
<path id="Vector_189" d="M13.2676 350.825L5.12888 350.933L31.5678 339.693L16.2414 349.233L13.2676 350.825Z" fill="#2B303F"/>
<path id="Vector_190" d="M16.8095 354.588C17.6214 354.119 17.622 352.597 16.8108 351.19C15.9996 349.782 14.6838 349.022 13.8718 349.492C13.0599 349.961 13.0593 351.483 13.8705 352.89C14.6817 354.298 15.9975 355.058 16.8095 354.588Z" fill="#E8A30A"/>
<path id="Vector_191" d="M166.358 267.918C167.17 267.449 167.171 265.927 166.359 264.52C165.548 263.112 164.232 262.352 163.42 262.822C162.609 263.291 162.608 264.813 163.419 266.22C164.23 267.628 165.546 268.388 166.358 267.918Z" fill="#E8A30A"/>
<path id="Vector_192" d="M18.8299 362.631L16.8916 354.515L38.1535 340.936L37.2264 342.853L18.8299 362.631Z" fill="#2B303F"/>
<path id="Vector_193" d="M16.8554 354.564C17.036 354.407 166.327 267.961 166.327 267.961L163.582 262.775L13.8335 349.607L16.8554 354.564Z" fill="#E8A30A"/>
</g>
</g>
</g>
<defs>
<clipPath id="clip0">
<rect width="540" height="603" fill="white"/>
</clipPath>
</defs>
</svg>
