<svg width="380" height="358" viewBox="0 0 380 358" fill="none" xmlns="http://www.w3.org/2000/svg">
<g id="Asset 96" clip-path="url(#clip0)">
<g id="Layer 2">
<g id="Layer 1">
<path id="Vector" d="M373.384 103.317C373.27 106.719 372.132 110.007 370.117 112.756L368.21 115.383L340.145 153.785C339.976 154.024 339.793 154.253 339.597 154.472C339.369 154.786 339.118 155.083 338.846 155.361C335.335 159.303 330.464 161.784 325.2 162.312C319.937 162.84 314.666 161.376 310.437 158.211L296.861 148.105V331.461C296.86 335.371 295.505 339.161 293.026 342.193C292.238 343.175 291.339 344.063 290.347 344.841C287.377 347.202 283.696 348.498 279.896 348.519L99.2917 349.974C97.0333 349.993 94.7935 349.566 92.7016 348.718C90.6097 347.87 88.7071 346.618 87.1035 345.034C85.4999 343.45 84.2271 341.566 83.3586 339.489C82.49 337.413 82.0428 335.186 82.0429 332.936V149.783L68.2439 159.262C63.717 162.394 58.1382 163.637 52.7028 162.722C47.2674 161.808 42.4076 158.81 39.1646 154.371L11.0187 115.97L10.6331 115.424C8.1592 112.056 6.7465 108.032 6.57459 103.863V103.56C6.43028 98.1635 8.38617 92.9204 12.0333 88.927L76.7465 17.4402L81.1703 12.6704L82.8749 10.7907C84.4804 9.02192 86.4405 7.608 88.6285 6.64022C90.8166 5.67243 93.184 5.17228 95.5781 5.17205H126.524C129.163 5.17549 131.778 5.66899 134.236 6.62725C135.89 7.27483 137.457 8.12338 138.903 9.15364C140.308 10.1663 141.582 11.3474 142.698 12.6704L143.306 13.4182L148.522 20.2091C150.77 23.1532 153.313 25.8619 156.111 28.2936L156.984 29.0212C166.407 36.6462 178.183 40.8008 190.324 40.7841C201.528 40.7971 212.445 37.2577 221.494 30.6785C222.529 29.9307 223.523 29.1425 224.477 28.2936C227.356 25.7488 229.967 22.918 232.269 19.8453L237.241 13.3373L237.85 12.5693C240.119 9.86867 243.037 7.78299 246.332 6.50598C248.782 5.54514 251.391 5.0515 254.023 5.05078H283.346C285.737 5.05259 288.101 5.55353 290.285 6.52131C292.47 7.48908 294.426 8.90219 296.029 10.6695L297.733 12.5491L300.331 15.4999L369.001 91.3119C371.976 94.5928 373.548 98.8998 373.384 103.317Z" fill="#FFC742"/>
<path id="Vector_2" opacity="0.5" d="M300.331 12.6762H268.188V12.373H265.043C263.455 12.3784 261.869 12.4796 260.294 12.6762H237.85L237.242 13.4442L232.27 19.9522C229.962 22.9895 227.351 25.7862 224.478 28.2994H233.772L232.047 30.3205C228.942 33.8743 225.341 36.9646 221.352 39.4964C212.024 45.1825 201.282 48.1512 190.345 48.0659C178.537 48.1894 166.974 44.7125 157.207 38.1018C154.139 35.9329 151.339 33.4091 148.867 30.5833L146.838 28.3803H156.03C153.232 25.9486 150.689 23.2398 148.441 20.2958L143.307 13.4038L142.698 12.656H120.376C118.814 12.4681 117.242 12.3736 115.668 12.373H114.796V12.6762H76.7471V28.2994H115.668C117.943 28.2651 120.2 28.7019 122.296 29.5822C124.391 30.4624 126.281 31.7669 127.844 33.4128L133.932 40.224C137.318 44.0971 141.153 47.5571 145.357 50.5317C158.645 59.4474 174.323 64.1665 190.345 64.0731C205.2 64.1853 219.788 60.145 232.453 52.4113C237.891 48.9972 242.806 44.8173 247.043 40.0017L252.867 33.4937C254.431 31.8487 256.32 30.5449 258.416 29.6647C260.512 28.7846 262.768 28.3472 265.043 28.3803H300.331V12.6762Z" fill="#F7EAD0"/>
<path id="Vector_3" d="M296.699 330.736H81.3535V345.107H296.699V330.736Z" fill="#EFA536"/>
<g id="Group" opacity="0.7">
<path id="Vector_4" opacity="0.7" d="M54.6075 87.2506C53.6645 87.2555 52.7396 86.9931 51.9406 86.4941C51.1417 85.9952 50.5017 85.2802 50.0953 84.4326C49.689 83.5851 49.5331 82.6399 49.6457 81.7074C49.7584 80.7749 50.135 79.8935 50.7316 79.1661L61.9129 65.3619C62.3232 64.855 62.8299 64.4335 63.4038 64.1216C63.9777 63.8096 64.6077 63.6133 65.2578 63.5439C65.9079 63.4745 66.5654 63.5332 67.1927 63.7169C67.82 63.9005 68.4048 64.2054 68.9138 64.6141C69.4228 65.0229 69.846 65.5275 70.1592 66.0991C70.4724 66.6707 70.6695 67.2982 70.7392 67.9457C70.8089 68.5932 70.7499 69.248 70.5655 69.8728C70.3811 70.4975 70.075 71.08 69.6646 71.587L58.4834 85.3912C58.0184 85.9704 57.4287 86.4382 56.7578 86.7601C56.087 87.0819 55.3521 87.2495 54.6075 87.2506Z" fill="white"/>
<path id="Vector_5" opacity="0.7" d="M75.0831 61.8429C74.1401 61.8478 73.2151 61.5854 72.4162 61.0865C71.6173 60.5875 70.9773 59.8725 70.5709 59.0249C70.1646 58.1774 70.0086 57.2322 70.1213 56.2997C70.234 55.3672 70.6106 54.4858 71.2072 53.7585L77.295 46.2803C77.708 45.7694 78.2181 45.3445 78.796 45.0299C79.3739 44.7153 80.0084 44.5172 80.6632 44.4468C81.318 44.3764 81.9803 44.4352 82.6124 44.6197C83.2444 44.8043 83.8337 45.111 84.3467 45.5224C84.8597 45.9338 85.2863 46.4418 85.6021 47.0174C85.918 47.593 86.1169 48.225 86.1876 48.8771C86.2583 49.5293 86.1993 50.189 86.014 50.8185C85.8287 51.4479 85.5207 52.0349 85.1076 52.5458L79.0199 60.0239C78.5444 60.6038 77.9431 61.0688 77.2613 61.3838C76.5794 61.6989 75.8347 61.8559 75.0831 61.8429Z" fill="white"/>
</g>
<path id="Vector_6" opacity="0.7" d="M46.3812 101.276C48.3298 98.8685 47.9504 95.344 45.5337 93.4032C43.117 91.4624 39.5782 91.8403 37.6296 94.2473C35.681 96.6542 36.0604 100.179 38.4771 102.12C40.8938 104.06 44.4326 103.682 46.3812 101.276Z" fill="white"/>
<path id="Vector_7" d="M99.109 358C92.8121 358 86.7731 355.509 82.3206 351.074C77.868 346.639 75.3666 340.625 75.3666 334.353V163.872L72.0386 166.156C66.0651 170.223 58.7391 171.819 51.6062 170.609C44.4733 169.398 38.0915 165.476 33.8072 159.668L5.27578 120.701C1.54716 115.567 -0.304954 109.316 0.0272969 102.988C0.359548 96.6605 2.85616 90.6364 7.10212 85.9176L77.8829 7.8015C80.1118 5.34611 82.8326 3.38326 85.8699 2.03953C88.9073 0.695798 92.1937 0.00101884 95.5172 0L140.161 0L155.157 19.5644C155.729 20.3215 156.345 21.0437 157.004 21.727C161.309 26.1676 166.471 29.6956 172.179 32.0991C177.888 34.5025 184.025 35.7318 190.223 35.7131C196.412 35.7362 202.541 34.5128 208.243 32.1162C213.944 29.7196 219.101 26.1995 223.401 21.7674C224.061 21.064 224.678 20.3215 225.248 19.5442L240.285 0H283.346C286.669 0.00101884 289.956 0.695798 292.993 2.03953C296.03 3.38326 298.751 5.34611 300.98 7.8015L373.912 88.3227C377.537 92.3685 379.663 97.5283 379.937 102.944C380.21 108.36 378.614 113.706 375.414 118.094L345.502 159.082C343.338 162.044 340.605 164.547 337.461 166.447C334.317 168.347 330.825 169.606 327.188 170.149C323.551 170.693 319.842 170.511 316.276 169.613C312.711 168.716 309.36 167.122 306.419 164.923L303.456 162.72V194.795C303.456 196.548 302.757 198.229 301.512 199.468C300.268 200.708 298.58 201.404 296.82 201.404C295.06 201.404 293.372 200.708 292.128 199.468C290.884 198.229 290.184 196.548 290.184 194.795V136.304L314.373 154.353C315.905 155.485 317.646 156.304 319.497 156.764C321.347 157.223 323.271 157.314 325.157 157.03C327.043 156.746 328.854 156.094 330.486 155.111C332.118 154.128 333.538 152.833 334.666 151.301L364.638 110.312C366.048 108.374 366.749 106.013 366.624 103.622C366.498 101.232 365.554 98.9564 363.948 97.1752L291.118 16.654C290.135 15.5727 288.936 14.7084 287.597 14.1166C286.259 13.5249 284.81 13.2188 283.346 13.2181H246.819L235.861 27.5478C234.959 28.7452 233.983 29.8859 232.939 30.9635C227.414 36.6572 220.792 41.1816 213.469 44.2655C206.147 47.3495 198.275 48.9295 190.324 48.911C182.351 48.936 174.456 47.3554 167.112 44.2643C159.768 41.1731 153.127 36.6351 147.588 30.923C146.56 29.8638 145.598 28.7434 144.707 27.568L133.688 13.2181H95.5172C94.0527 13.2188 92.6045 13.5249 91.266 14.1166C89.9274 14.7084 88.728 15.5727 87.7451 16.654L16.9643 94.7903C14.7372 97.2546 13.4272 100.406 13.2536 103.717C13.08 107.028 14.0533 110.298 16.0106 112.98L44.542 151.988C46.754 155.044 50.0852 157.109 53.8147 157.737C57.5442 158.365 61.3719 157.505 64.4694 155.343L88.638 138.669V334.393C88.6365 335.77 88.9103 337.133 89.4434 338.403C89.9765 339.673 90.7581 340.825 91.7427 341.791C92.7258 342.761 93.8916 343.528 95.1731 344.048C96.4546 344.568 97.8266 344.831 99.2104 344.822L279.815 343.367C282.575 343.335 285.211 342.224 287.155 340.273C289.099 338.321 290.194 335.687 290.205 332.938V272.85C290.205 271.098 290.904 269.417 292.148 268.177C293.393 266.938 295.081 266.241 296.84 266.241C298.6 266.241 300.288 266.938 301.533 268.177C302.777 269.417 303.476 271.098 303.476 272.85V332.898C303.456 339.111 300.989 345.068 296.607 349.49C292.224 353.911 286.275 356.444 280.038 356.545L99.4336 358H99.109Z" fill="#275563"/>
<path id="Vector_8" d="M191.451 267.103C229.405 265.995 259.269 234.397 258.154 196.529C257.039 158.66 225.367 128.86 187.413 129.969C149.459 131.078 119.595 162.675 120.71 200.544C121.826 238.412 153.497 268.212 191.451 267.103Z" fill="#908152"/>
<path id="Vector_9" d="M191.474 249.949C229.495 248.839 259.413 217.24 258.298 179.371C257.183 141.503 225.457 111.704 187.435 112.815C149.414 113.926 119.496 145.525 120.611 183.393C121.726 221.262 153.452 251.06 191.474 249.949Z" fill="white"/>
<path id="Vector_10" opacity="0.5" d="M259.381 178.828C259.673 188.766 257.793 198.648 253.87 207.79C249.948 216.932 244.077 225.116 236.664 231.774C229.252 238.433 220.475 243.407 210.941 246.352C201.407 249.297 191.344 250.143 181.45 248.831C171.555 247.52 162.065 244.081 153.636 238.755C145.208 233.428 138.043 226.34 132.637 217.983C127.232 209.625 123.715 200.197 122.33 190.351C120.945 180.505 121.726 170.477 124.618 160.962C131.192 192.471 161.307 220.12 191.583 219.251C221.86 218.382 248.991 194.634 255.099 157.162C257.699 164.105 259.145 171.423 259.381 178.828Z" fill="#D9F0FF"/>
<path id="Vector_11" d="M258.772 177.86C259.202 186.96 257.809 196.054 254.672 204.611C251.535 213.169 246.719 221.018 240.504 227.702C234.288 234.385 226.798 239.769 218.471 243.538C210.144 247.307 201.147 249.387 192.004 249.655C182.862 249.924 173.757 248.376 165.222 245.101C156.686 241.827 148.891 236.893 142.291 230.586C135.691 224.278 130.419 216.725 126.781 208.366C123.144 200.008 121.215 191.011 121.106 181.902C121.021 178.914 121.129 175.923 121.431 172.948C124.103 189.377 132.68 204.278 145.565 214.875C158.449 225.472 174.763 231.042 191.465 230.547C208.168 230.053 224.12 223.527 236.35 212.187C248.58 200.846 256.253 185.464 257.94 168.906C258.411 171.87 258.689 174.861 258.772 177.86Z" fill="#D9F0FF"/>
<path id="Vector_12" d="M190 255.366C170.041 255.073 151.007 246.932 137.049 232.719C123.091 218.506 115.341 199.373 115.488 179.492C115.635 159.611 123.668 140.594 137.835 126.587C152.002 112.581 171.155 104.721 191.117 104.721C211.078 104.721 230.231 112.581 244.398 126.587C258.565 140.594 266.598 159.611 266.745 179.492C266.892 199.373 259.142 218.506 245.184 232.719C231.226 246.932 212.192 255.073 192.233 255.366H190ZM190 118.193H188.134C171.731 118.439 156.092 125.132 144.624 136.814C133.155 148.496 126.789 164.22 126.912 180.558C127.036 196.896 133.638 212.522 145.281 224.032C156.924 235.541 172.663 242 189.067 242C205.471 242 221.21 235.541 232.853 224.032C244.496 212.522 251.098 196.896 251.222 180.558C251.345 164.22 244.978 148.496 233.51 136.814C222.042 125.132 206.403 118.439 190 118.193Z" fill="#275563"/>
<path id="Vector_13" d="M158.283 173.435L157.918 161.449C157.731 159.855 157.909 158.239 158.44 156.723C158.971 155.207 159.84 153.831 160.982 152.698C163.507 150.674 166.671 149.607 169.911 149.687C173.144 149.425 176.367 150.297 179.022 152.152C180.241 153.207 181.2 154.526 181.826 156.009C182.453 157.491 182.729 159.096 182.634 160.702L183 172.687C183.188 174.287 183.005 175.908 182.463 177.426C181.921 178.943 181.035 180.316 179.874 181.438C177.337 183.453 174.17 184.519 170.925 184.45C167.695 184.696 164.481 183.794 161.855 181.903C160.66 180.848 159.719 179.54 159.101 178.074C158.483 176.608 158.203 175.023 158.283 173.435ZM166.4 173.192C166.346 173.755 166.424 174.322 166.628 174.849C166.832 175.376 167.157 175.849 167.577 176.229C167.996 176.61 168.499 176.888 169.045 177.041C169.591 177.195 170.165 177.219 170.722 177.113C173.577 177.032 174.93 175.638 174.781 172.929L174.517 160.944C174.436 158.249 172.968 156.942 170.114 157.023C169.551 156.953 168.981 157.015 168.446 157.203C167.912 157.391 167.429 157.7 167.035 158.105C166.642 158.511 166.348 159.003 166.178 159.541C166.008 160.079 165.966 160.65 166.055 161.207L166.4 173.192ZM172.001 210.805C171.996 210.245 172.121 209.692 172.366 209.188L199.741 147.423C200.013 146.745 200.488 146.168 201.102 145.77C201.716 145.372 202.438 145.173 203.17 145.2C204.43 145.17 205.659 145.586 206.64 146.372C207.141 146.736 207.552 147.209 207.84 147.756C208.128 148.303 208.287 148.908 208.304 149.525C208.335 150.078 208.238 150.632 208.02 151.142L180.605 212.907C180.295 213.607 179.776 214.196 179.12 214.594C178.463 214.992 177.699 215.179 176.932 215.13C176.298 215.167 175.664 215.07 175.07 214.847C174.475 214.625 173.935 214.28 173.482 213.837C173.045 213.455 172.689 212.99 172.434 212.47C172.18 211.949 172.033 211.383 172.001 210.805ZM197.407 199.467L197.042 187.481C196.855 185.887 197.033 184.271 197.564 182.755C198.095 181.239 198.964 179.863 200.106 178.73C202.631 176.706 205.795 175.639 209.035 175.719C212.268 175.456 215.491 176.329 218.146 178.184C219.372 179.235 220.339 180.553 220.973 182.035C221.606 183.517 221.889 185.125 221.799 186.734L222.164 198.719C222.352 200.318 222.167 201.94 221.625 203.457C221.083 204.974 220.199 206.347 219.039 207.47C216.501 209.484 213.335 210.549 210.09 210.482C206.862 210.756 203.641 209.883 200.999 208.016C199.789 206.955 198.837 205.634 198.214 204.153C197.592 202.672 197.316 201.07 197.407 199.467ZM205.524 199.224C205.47 199.787 205.548 200.354 205.752 200.881C205.957 201.408 206.281 201.881 206.701 202.261C207.12 202.642 207.623 202.92 208.169 203.073C208.715 203.227 209.289 203.251 209.847 203.145C212.701 203.064 214.054 201.67 213.905 198.961L213.54 186.976C213.459 184.281 211.991 182.974 209.136 183.055C208.574 182.985 208.003 183.047 207.469 183.235C206.935 183.423 206.452 183.732 206.058 184.137C205.664 184.543 205.371 185.035 205.201 185.573C205.031 186.111 204.989 186.682 205.078 187.239L205.524 199.224Z" fill="#275563"/>
<path id="Vector_14" d="M295.786 256.44C294.026 256.44 292.338 255.744 291.094 254.505C289.849 253.265 289.15 251.584 289.15 249.831V237.705C289.15 235.952 289.849 234.271 291.094 233.031C292.338 231.792 294.026 231.096 295.786 231.096C297.546 231.096 299.233 231.792 300.478 233.031C301.722 234.271 302.421 235.952 302.421 237.705V249.831C302.421 251.584 301.722 253.265 300.478 254.505C299.233 255.744 297.546 256.44 295.786 256.44Z" fill="#275563"/>
<path id="Vector_15" d="M295.786 223.396C294.914 223.396 294.052 223.225 293.246 222.893C292.441 222.561 291.71 222.074 291.094 221.46C290.477 220.846 289.989 220.118 289.655 219.316C289.322 218.514 289.15 217.655 289.15 216.787V216.261C289.15 214.509 289.849 212.828 291.094 211.588C292.338 210.349 294.026 209.652 295.786 209.652C297.546 209.652 299.234 210.349 300.478 211.588C301.722 212.828 302.422 214.509 302.422 216.261V216.767C302.424 217.636 302.255 218.498 301.922 219.302C301.59 220.106 301.102 220.837 300.485 221.453C299.869 222.069 299.136 222.558 298.33 222.891C297.523 223.224 296.659 223.396 295.786 223.396Z" fill="#275563"/>
</g>
</g>
</g>
<defs>
<clipPath id="clip0">
<rect width="380" height="358" fill="white"/>
</clipPath>
</defs>
</svg>
