<svg width="602" height="467" viewBox="0 0 602 467" fill="none" xmlns="http://www.w3.org/2000/svg">
<g id="Virtual_reality_SVG" clip-path="url(#clip0)">
<g id="&#208;&#161;&#208;&#187;&#208;&#190;&#208;&#185; 2">
<g id="&#208;&#161;&#208;&#187;&#208;&#190;&#208;&#185; 1">
<path id="Vector" opacity="0.4" d="M350.52 329.673L165.213 226.133C157.917 221.923 158.832 214.562 167.26 209.702L242.16 166.497C250.588 161.685 263.351 161.108 270.647 165.294L455.955 268.87C463.263 273.08 462.348 280.429 453.908 285.3L379.007 328.494C370.579 333.366 357.829 333.895 350.52 329.673Z" fill="#D6D8E5"/>
<path id="Vector_2" opacity="0.4" d="M413.839 256.938C369.483 256.938 325.14 247.207 291.368 227.733C258.15 208.572 239.849 182.928 239.849 155.563C239.849 128.199 258.15 102.542 291.368 83.3931C358.888 44.4333 468.765 44.4453 536.298 83.3931C569.516 102.554 587.817 128.187 587.817 155.563C587.817 182.94 569.516 208.596 536.298 227.733C502.55 247.207 458.182 256.938 413.839 256.938ZM413.839 59.4326C370.495 59.4326 327.151 68.947 294.065 87.9999C262.58 106.163 245.231 130.099 245.231 155.539C245.231 180.979 262.58 204.915 294.065 223.078C360.116 261.172 467.585 261.184 533.661 223.078C565.158 204.927 582.495 180.979 582.495 155.539C582.495 130.099 565.145 106.223 533.661 87.9999C500.587 68.947 457.207 59.4326 413.827 59.4326H413.839Z" fill="#D6D8E5"/>
<path id="Vector_3" d="M280.773 76.2957C354.217 33.9079 473.413 33.9079 546.857 76.2957C573.73 91.8002 590.755 110.817 597.979 130.796C610.5 96.1545 593.464 58.6261 546.857 31.7909C473.413 -10.597 354.217 -10.597 280.773 31.7909C234.166 58.6742 217.129 96.1545 229.651 130.784C236.875 110.817 253.899 91.7882 280.773 76.2957Z" fill="#2B303F"/>
<path id="Vector_4" d="M600.146 93.291C598.194 101.195 594.938 108.719 590.514 115.555C581.423 129.905 566.891 143.329 546.953 154.84C473.509 197.228 354.313 197.228 280.869 154.84C260.847 143.329 246.314 129.905 237.188 115.58C234.136 110.815 231.613 105.734 229.663 100.424C227.872 105.334 226.66 110.437 226.051 115.628C222.632 145.698 240.848 176.491 280.749 199.513C354.193 241.901 473.389 241.901 546.833 199.513C583.819 178.187 602.217 150.197 601.94 122.219V108.531L600.146 93.291Z" fill="#333A47"/>
<path id="Vector_5" d="M514.457 115.207L512.049 113.812C466.02 96.1179 423.447 99.546 388.446 79.3865C353.446 59.227 345.897 19.1005 331.1 9.46582L322.214 4.32973C314.593 -0.0726445 308.405 4.59435 308.405 14.7583V106.763C308.405 116.927 314.593 128.727 322.214 133.129L514.457 244.006C522.078 248.409 528.267 243.742 528.267 233.578V141.573C528.267 131.409 522.078 119.609 514.457 115.207Z" fill="#2B303F"/>
<path id="Vector_6" d="M465.996 278.493L524.487 244.019L446.251 187.414L465.996 278.493Z" fill="#2B303F"/>
<path id="Vector_7" d="M250.962 40.246L313.81 3.29492L327.199 98.9322L250.962 40.246Z" fill="#2B303F"/>
<path id="Vector_8" d="M460.951 275.377L268.721 164.5C261.087 160.098 254.899 148.298 254.899 138.134V46.1294C254.899 35.9654 261.087 31.2984 268.721 35.7008L460.951 146.578C468.585 150.98 474.761 162.78 474.761 172.944V264.949C474.761 275.113 468.585 279.78 460.951 275.377Z" fill="#EBEEFC"/>
<path id="Vector_9" d="M186.403 77.2098C187.607 76.8489 260.329 34.834 260.329 34.834L327.199 203.676L186.403 77.2098Z" fill="#EBEEFC"/>
<path id="Vector_10" d="M387.098 323.658L470.62 275.833L385.774 136.617L354.867 171.223L327.199 239.447L387.098 323.658Z" fill="#EBEEFC"/>
<path id="Vector_11" d="M387.844 317.21L195.614 206.333C187.98 201.931 181.792 190.131 181.792 179.967V87.9625C181.792 77.7985 187.98 73.1315 195.614 77.5219L387.844 188.411C395.478 192.813 401.666 204.613 401.666 214.777V306.782C401.666 316.946 395.478 321.613 387.844 317.21Z" fill="#2B303F"/>
<path id="Vector_12" d="M170.45 86.5314L186.993 76.584V113.463L170.45 86.5314Z" fill="#2B303F"/>
<path id="Vector_13" d="M379.85 328.109L397.031 317.837L380.536 297.461L379.85 328.109Z" fill="#2B303F"/>
<path id="Vector_14" d="M370.904 327.339L178.661 216.51C171.04 212.107 164.852 200.295 164.852 190.131V98.0906C164.852 87.9267 171.04 83.2477 178.661 87.65L370.904 198.527C378.525 202.93 384.714 214.741 384.714 224.905V316.898C384.714 327.062 378.525 331.741 370.904 327.339Z" fill="#333A47"/>
<path id="Vector_15" d="M365.884 317.632L179.697 210.231C173.966 206.935 169.331 198.082 169.331 190.456V105.187C169.331 97.5615 173.966 94.0612 179.697 97.357L365.884 204.758C371.603 208.054 376.25 216.907 376.25 224.533V309.801C376.25 317.427 371.603 320.928 365.884 317.632Z" fill="#414854"/>
<path id="Vector_16" d="M452.246 264.215L422.472 281.392C417.656 284.146 413.839 281.223 413.839 274.872V243.598C413.839 237.248 417.704 229.874 422.472 227.12L452.246 209.943C457.062 207.189 460.891 210.112 460.891 216.463V247.736C460.891 254.087 457.026 261.461 452.246 264.215Z" fill="#CFD3E2"/>
<g id="Men 12">
<path id="Vector_17" d="M279.822 194.317C277.209 196.434 273.356 194.497 273.163 194.69C270.1 197.536 266.885 200.214 263.531 202.713C261.906 203.988 259.366 205.696 259.835 208.162C260.654 212.552 267.697 211.205 270.358 209.858C273.019 208.51 275.174 206.249 277.69 204.721C279.484 203.615 281.302 203.037 281.531 200.776C281.736 199.405 280.279 194.257 279.822 194.317Z" fill="#38226D"/>
<path id="Vector_18" d="M281.483 199.863C281.146 202.028 279.4 202.618 277.618 203.724C275.066 205.312 272.802 207.597 270.153 208.945C267.745 210.148 261.581 211.422 259.859 208.283C260.786 212.517 267.709 211.194 270.346 209.859C272.983 208.524 275.162 206.25 277.678 204.723C279.472 203.616 281.29 203.039 281.519 200.777C281.541 200.472 281.529 200.166 281.483 199.863Z" fill="#9C73FF"/>
<path id="Vector_19" d="M253.334 179.078C250.721 181.195 246.11 178.885 245.965 179.078C243.247 181.827 240.372 184.417 237.357 186.836C235.719 188.123 233.191 189.831 233.648 192.285C234.467 196.687 241.51 195.328 244.171 193.993C246.832 192.658 248.987 190.385 251.516 188.857C253.31 187.738 255.067 187.161 255.344 184.9C255.513 183.54 253.803 179.018 253.334 179.078Z" fill="#38226D"/>
<path id="Vector_20" d="M255.248 184.299C254.899 186.464 253.153 187.065 251.383 188.172C248.819 189.76 246.567 192.045 243.918 193.392C241.51 194.595 235.334 195.858 233.612 192.719C234.551 196.965 241.474 195.63 244.099 194.294C246.724 192.959 248.915 190.686 251.443 189.17C253.237 188.052 254.995 187.474 255.284 185.213C255.306 184.908 255.293 184.601 255.248 184.299Z" fill="#9C73FF"/>
<path id="&#60;&#208;&#154;&#208;&#190;&#208;&#189;&#209;&#130;&#209;&#131;&#209;&#128;&#62;" d="M314.726 110.66C317.627 128.703 309.584 135.463 299.146 139.3C291.657 142.054 280.917 146.3 280.917 146.3C280.917 146.3 281.062 150.27 281.146 159.171C281.218 167.001 280.183 195.605 280.183 195.605C280.183 195.605 275.86 197.842 272.2 195.508C272.2 195.508 267.986 173.605 267.095 163.717C265.891 150.318 263.82 141.549 264.507 138.662C265.109 136.124 279.773 128.919 284.433 125.07L253.707 135.343C254.321 138.671 254.619 142.05 254.598 145.434C254.321 156.067 253.731 179.114 253.731 179.114C253.731 179.114 249.517 182.157 245.929 179.114C245.929 179.114 238.199 133.538 239.126 127.512C240.017 121.787 267.095 110.083 271.863 106.054C272.696 105.375 273.662 104.879 274.7 104.6C275.737 104.32 276.822 104.262 277.883 104.43L314.726 110.66Z" fill="#8C50FF"/>
<path id="&#60;&#208;&#154;&#208;&#190;&#208;&#189;&#209;&#130;&#209;&#131;&#209;&#128;&#62;_2" d="M304.034 42.7129C304.034 42.7129 303.601 51.3132 303.781 52.083C303.962 52.8528 307.742 55.3547 308.838 56.2688C309.934 57.183 302.878 64.1113 299.459 65.687C296.04 67.2627 285.167 63.1129 285.011 57.7844C284.854 52.4558 286.877 47.9813 288.539 47.7528C290.2 47.5242 304.034 42.7129 304.034 42.7129Z" fill="#FFCEA9"/>
<path id="Vector_21" d="M283.975 48.6188C281.399 49.2202 278.798 50.8441 277.534 55.1863C276.27 59.5285 273.428 68.4896 273.043 74.9729C272.79 79.255 273.115 81.9974 270.695 87.6628C263.451 89.7038 256.061 91.1876 248.59 92.1012C247.308 91.9912 246.07 91.579 244.978 90.8984C243.582 90.3194 242.15 89.8293 240.692 89.431C239.415 88.9017 239.488 88.7814 239.054 89.431C238.621 90.0805 239.319 91.3796 240.451 92.0652C241.583 92.7508 242.57 92.7869 242.763 93.0274C242.955 93.268 241.823 93.4244 240.234 93.3161C238.67 93.1021 237.137 92.6982 235.671 92.1133C234.467 91.8366 234.31 92.823 234.648 93.3161C235.319 94.1098 236.199 94.7011 237.188 95.0241C238.406 95.4754 239.658 95.8294 240.932 96.0826C239.906 96.1804 238.871 96.1562 237.85 96.0105C235.924 95.7338 235.177 95.397 234.178 95.3128C233.179 95.2286 233.456 96.8645 234.479 97.3456C235.547 97.8163 236.672 98.1439 237.826 98.3199C239.126 98.5244 241.306 98.6567 241.306 98.6567C239.745 98.939 238.147 98.939 236.586 98.6567C235.599 98.5364 235.105 98.8251 235.213 99.4145C235.322 100.004 235.984 100.401 238.103 100.894C240.652 101.324 243.267 101.13 245.724 100.329C247.831 99.6671 248.843 99.3183 249.89 98.9815C255.91 98.8131 271.562 98.2116 274.957 96.5758C282.386 83.946 287.419 58.9752 288.382 52.528C288.96 48.7511 287.01 47.9212 283.975 48.6188Z" fill="#FFCEA9"/>
<path id="&#60;&#208;&#154;&#208;&#190;&#208;&#189;&#209;&#130;&#209;&#131;&#209;&#128;&#62;_3" d="M304.997 53.5615C304.997 53.5615 298.748 62.8594 290.031 63.7374C287.286 61.0311 287.034 51.3964 290.838 48.3171C290.838 48.3171 287.347 45.5025 284.951 46.0437C282.38 47.6086 280.467 50.054 279.569 52.924C277.352 59.3203 276.312 66.0645 276.499 72.8308C276.643 81.9604 276.499 105.031 276.499 105.031C276.499 105.031 277.799 113.847 285.685 118.262C291.965 121.81 299.363 122.829 306.37 121.113C310.788 120.078 312.39 117.612 313.955 114.413C313.558 108.026 311.017 94.8547 312.089 86.7476C313.16 78.6405 314.858 72.6985 315.303 66.1912C315.749 59.6839 314.437 59.8282 311.174 57.5068C309.213 56.0448 307.148 54.7262 304.997 53.5615Z" fill="#F4F4F4"/>
<path id="&#60;&#208;&#154;&#208;&#190;&#208;&#189;&#209;&#130;&#209;&#131;&#209;&#128;&#62;_4" d="M294.98 127.693C296.548 126.655 298.181 125.719 299.868 124.89C301.451 124.398 302.889 123.526 304.058 122.352C305.599 120.849 308.104 115.135 309.898 109.662C311.691 103.414 312.404 96.905 312.005 90.4169C311.246 82.6586 308.453 71.809 307.742 67.3465C307.032 62.884 308.477 61.1158 310.548 59.468C312.956 57.5314 316.351 58.3854 318.157 64.6401C320.468 73.2859 321.812 82.1608 322.166 91.1025C322.242 97.7483 321.216 104.361 319.132 110.673C317.254 116.542 314.798 120.764 311.655 126.057C310.8 127.5 310.524 128.775 309.247 131.722C307.98 134.679 306.019 137.286 303.528 139.324C301.337 140.888 300.302 141.116 299.784 140.804C299.266 140.491 299.266 139.733 300.193 138.903C301.748 137.691 303.069 136.208 304.094 134.525C304.094 134.525 302.18 136.449 300.928 137.496C299.834 138.429 298.619 139.21 297.316 139.817C296.039 140.383 294.258 139.3 295.161 138.446C296.064 137.592 297.003 137.159 298.773 135.583C299.743 134.75 300.612 133.805 301.361 132.769C300.078 133.746 298.722 134.622 297.304 135.391C296.19 136.065 294.909 136.411 293.607 136.389C292.921 136.389 292.102 135.415 293.379 134.501C295.107 133.594 296.724 132.488 298.195 131.205C299.591 129.81 300.386 128.631 299.989 128.607C299.591 128.583 298.785 129.461 297.195 129.978C295.606 130.495 293.8 129.978 293.583 129.124C293.367 128.27 293.451 128.45 294.98 127.693Z" fill="#FFCEA9"/>
<path id="&#60;&#208;&#154;&#208;&#190;&#208;&#189;&#209;&#130;&#209;&#131;&#209;&#128;&#62;_5" d="M284.553 29.8909C285.577 23.2152 290.393 18.1513 297.292 18.5362C300.066 18.6772 302.726 19.6861 304.894 21.4202C307.063 23.1543 308.631 25.5258 309.377 28.1992C310.122 30.8726 310.008 33.7125 309.049 36.3172C308.09 38.9218 306.336 41.1593 304.034 42.7131C303.793 43.7245 303.438 44.7052 302.975 45.636C300.567 48.4747 293.162 50.2429 291.043 49.9301C288.322 49.5452 286.853 48.4146 285.553 45.4436C283.265 40.1992 283.987 33.1867 284.553 29.8909Z" fill="#FFCEA9"/>
<path id="Vector_22" d="M306.478 31.2734C306.342 31.8263 306.118 32.3541 305.816 32.8371C305.024 33.9992 303.962 34.9526 302.722 35.6157C299.799 37.098 296.567 37.8706 293.288 37.8706C290.01 37.8706 286.778 37.098 283.855 35.6157C282.614 34.9526 281.553 33.9992 280.761 32.8371C280.544 32.5018 280.366 32.1426 280.231 31.7666C280.102 32.1121 280.013 32.4713 279.966 32.8371C279.725 34.9782 281.026 37.1553 283.855 38.7911C286.778 40.2735 290.01 41.0461 293.288 41.0461C296.567 41.0461 299.799 40.2735 302.722 38.7911C305.346 37.2756 306.647 35.2909 306.635 33.3062V32.3319L306.478 31.2734Z" fill="#333A47"/>
<path id="Vector_23" d="M300.398 32.8125L300.229 32.7042C296.967 31.5014 293.944 31.6938 291.464 30.2985C288.984 28.9032 288.442 26.0285 287.395 25.3429L286.769 24.982C286.227 24.6693 285.781 24.982 285.781 25.7157V32.2471C285.788 32.6135 285.881 32.9732 286.052 33.2971C286.224 33.621 286.469 33.9 286.769 34.1115L300.398 41.978C300.94 42.2908 301.385 41.978 301.385 41.2443V34.6768C301.379 34.3105 301.286 33.9508 301.114 33.6269C300.943 33.3029 300.697 33.024 300.398 32.8125Z" fill="#2B303F"/>
<path id="Vector_24" d="M296.967 44.385L301.108 41.9432L295.558 37.9258L296.967 44.385Z" fill="#2B303F"/>
<path id="Vector_25" d="M281.712 27.4972L286.167 24.875L287.118 31.659L281.712 27.4972Z" fill="#2B303F"/>
<path id="Vector_26" d="M296.605 44.1677L282.94 36.3011C282.641 36.0896 282.395 35.8106 282.224 35.4867C282.052 35.1628 281.959 34.8031 281.953 34.4367V27.9053C281.953 27.1836 282.398 26.8589 282.94 27.1716L296.569 35.0381C296.867 35.2503 297.111 35.5297 297.28 35.8537C297.45 36.1776 297.54 36.537 297.545 36.9025V43.4339C297.581 44.1556 297.147 44.5044 296.605 44.1677Z" fill="#EBEEFC"/>
<path id="Vector_27" d="M277.137 30.0715C277.221 30.0715 282.374 27.0645 282.374 27.0645L287.118 39.0928L277.137 30.0715Z" fill="#EBEEFC"/>
<path id="Vector_28" d="M291.368 47.5954L297.292 44.2034L291.272 34.3281L289.08 36.7819L287.118 41.6173L291.368 47.5954Z" fill="#EBEEFC"/>
<path id="Vector_29" d="M291.368 47.1384L277.739 39.2718C277.445 39.0552 277.205 38.7747 277.036 38.4518C276.867 38.1288 276.774 37.7717 276.763 37.4074V30.8761C276.763 30.1544 277.197 29.8296 277.739 30.1423L291.368 37.9968C291.665 38.2135 291.909 38.4953 292.08 38.8205C292.251 39.1458 292.345 39.5059 292.355 39.8732V46.3926C292.403 47.1143 291.958 47.4511 291.368 47.1384Z" fill="#2B303F"/>
<path id="Vector_30" d="M276.005 30.78L277.173 30.0703V32.6805L276.005 30.78Z" fill="#2B303F"/>
<path id="Vector_31" d="M290.85 47.9096L292.078 47.1758L290.898 45.7324L290.85 47.9096Z" fill="#2B303F"/>
<path id="Vector_32" d="M290.224 47.8493L276.583 39.9948C276.288 39.7769 276.047 39.4945 275.878 39.1694C275.709 38.8442 275.616 38.4847 275.608 38.1184V31.599C275.608 30.8773 276.041 30.5405 276.583 30.8533L290.224 38.7198C290.517 38.9365 290.758 39.2169 290.927 39.5398C291.096 39.8628 291.189 40.2199 291.199 40.5842V47.1156C291.199 47.8373 290.766 48.1139 290.224 47.8493Z" fill="#333A47"/>
<path id="Vector_33" d="M289.863 47.1635L276.619 39.5495C276.396 39.3877 276.214 39.1764 276.086 38.9322C275.959 38.688 275.89 38.4176 275.885 38.1422V32.128C275.885 31.5868 276.222 31.3342 276.619 31.5627L289.863 39.1887C290.088 39.3459 290.272 39.5546 290.4 39.7973C290.527 40.04 290.595 40.3097 290.597 40.584V46.5981C290.597 47.1514 290.272 47.404 289.863 47.1635Z" fill="#414854"/>
<path id="Vector_34" d="M295.991 43.3745L293.872 44.5773C293.535 44.7698 293.258 44.5773 293.258 44.1082V41.9191C293.256 41.6839 293.31 41.4517 293.417 41.2422C293.524 41.0327 293.68 40.8523 293.872 40.7162L295.991 39.5134C296.328 39.321 296.605 39.5134 296.605 39.9825V42.1957C296.604 42.4268 296.548 42.6542 296.441 42.8592C296.334 43.0642 296.18 43.2408 295.991 43.3745Z" fill="#CFD3E2"/>
<path id="Vector_35" d="M304.034 42.7126L303.408 36.8909C303.408 36.8909 308.224 24.5619 296.918 26.9314C289.49 28.4951 287.624 29.1687 285.36 24.189C283.096 19.2093 291.067 14.7227 300.542 15.9736C303.796 16.3187 306.803 17.8681 308.972 20.3167C311.14 22.7654 312.312 25.9361 312.257 29.2048C312.005 32.8975 311.029 40.319 304.034 42.7126Z" fill="#3A2C6D"/>
<path id="Vector_36" d="M323.31 76.1515C323.31 76.1515 317.158 82.2498 309.898 80.4937C308.862 79.7961 306.358 65.5184 306.358 65.5184C306.358 65.5184 306.358 57.6158 312.378 57.8203C318.398 58.0248 323.31 76.1515 323.31 76.1515Z" fill="#EDEDED"/>
<path id="Vector_37" d="M276.92 64.316C276.92 64.316 273.705 64.1476 272.381 62.2832C272.622 59.0836 276.715 46.9591 284.951 46.0449C282.708 47.613 280.932 49.7575 279.81 52.2515C278.305 55.9082 276.92 64.316 276.92 64.316Z" fill="#EDEDED"/>
</g>
<path id="Vector_38" opacity="0.4" d="M290.826 465.664L2.32375 299.252C-1.11969 297.267 -0.686246 293.791 3.29899 291.494L10.523 287.32C14.5082 285.023 20.5282 284.782 23.9837 286.767L312.474 453.167C315.93 455.163 315.496 458.64 311.511 460.937L304.287 465.099C300.302 467.396 294.27 467.649 290.826 465.664Z" fill="#D6D8E5"/>
<path id="Vector_39" d="M320.577 452.109V443.533L313.04 445.854L29.7509 282.449C26.3074 280.453 20.2754 280.705 16.2902 283.003L13.0394 284.879L5.81537 282.858V291.711C5.89741 292.4 6.15386 293.056 6.56046 293.618C6.96706 294.18 7.51039 294.629 8.13909 294.923L296.593 461.335C300.049 463.319 306.069 463.079 310.054 460.781L317.278 456.608C319.481 455.345 320.589 453.721 320.577 452.181V452.109Z" fill="#2B303F"/>
<path id="Vector_40" d="M296.593 452.687L8.10293 286.275C4.64745 284.29 5.08089 280.814 9.06613 278.516L16.2901 274.343C20.2754 272.045 26.3074 271.792 29.7508 273.789L318.253 440.237C321.697 442.222 321.263 445.698 317.278 447.996L310.054 452.169C306.069 454.431 300.049 454.671 296.593 452.687Z" fill="#414854"/>
<path id="Vector_41" opacity="0.2" d="M291.187 439.395L35.1688 291.724V28.5195L291.187 176.191V439.395Z" fill="#8C50FF"/>
<path id="Vector_42" d="M294.065 439.396H288.298V182.374C288.19 181.028 287.783 179.722 287.106 178.553C286.429 177.383 285.499 176.379 284.385 175.614L39.0938 34.1129C38.8232 33.9383 38.5202 33.8196 38.2029 33.7641C38.0844 34.0663 38.0311 34.3901 38.0463 34.7143V291.724H32.2792V34.7143C32.1944 33.5329 32.4304 32.3506 32.9623 31.2921C33.4942 30.2335 34.3023 29.3381 35.3012 28.7002C36.3446 28.1599 37.514 27.9095 38.6874 27.9751C39.8607 28.0407 40.9949 28.4199 41.9714 29.073L287.262 170.598C289.266 171.864 290.933 173.596 292.118 175.648C293.303 177.699 293.971 180.008 294.065 182.374V439.396Z" fill="#414854"/>
<g id="Group" opacity="0.7">
<path id="Vector_43" opacity="0.2" d="M184.441 164.968L77.935 103.539C75.1417 101.927 72.8782 97.621 72.8782 93.9162C72.8782 90.1995 75.1417 88.4915 77.935 90.1032L184.441 151.556C187.234 153.168 189.486 157.486 189.486 161.179C189.486 164.871 187.234 166.579 184.441 164.968Z" fill="#8C50FF"/>
<path id="Vector_44" opacity="0.2" d="M184.441 190.601L77.935 129.16C75.1417 127.548 72.8782 123.242 72.8782 119.537C72.8782 115.821 75.1417 114.113 77.935 115.724L184.441 177.153C187.234 178.765 189.486 183.083 189.486 186.776C189.486 190.492 187.234 192.2 184.441 190.601Z" fill="#8C50FF"/>
<path id="Vector_45" opacity="0.2" d="M184.441 216.22L77.935 154.779C75.1417 153.179 72.8782 148.861 72.8782 145.156C72.8782 141.44 75.1417 139.732 77.935 141.343L184.441 202.772C187.234 204.384 189.486 208.702 189.486 212.395C189.486 216.112 187.234 217.82 184.441 216.22Z" fill="#8C50FF"/>
<path id="Vector_46" opacity="0.2" d="M184.441 241.84L77.935 180.424C75.1417 178.824 72.8782 174.506 72.8782 170.801C72.8782 167.084 75.1417 165.376 77.935 166.988L184.441 228.417C187.234 230.028 189.486 234.347 189.486 238.039C189.486 241.768 187.234 243.44 184.441 241.84Z" fill="#8C50FF"/>
<path id="Vector_47" opacity="0.2" d="M248.421 201.871L212.554 181.194C209.773 179.582 207.509 175.264 207.509 171.571C207.509 167.867 209.773 166.159 212.554 167.758L248.421 188.447C251.203 190.059 253.466 194.365 253.466 198.07C253.466 201.775 251.203 203.483 248.421 201.871Z" fill="#8C50FF"/>
<path id="Vector_48" opacity="0.2" d="M248.421 227.49L212.554 206.813C209.773 205.202 207.509 200.883 207.509 197.191C207.509 193.474 209.773 191.766 212.554 193.366L248.421 214.103C251.203 215.714 253.466 220.033 253.466 223.725C253.466 227.394 251.203 229.102 248.421 227.49Z" fill="#8C50FF"/>
<path id="Vector_49" opacity="0.2" d="M248.421 253.112L212.554 232.435C209.773 230.824 207.509 226.505 207.509 222.813C207.509 219.096 209.773 217.388 212.554 219L248.421 239.676C251.203 241.288 253.466 245.606 253.466 249.299C253.466 253.016 251.203 254.724 248.421 253.112Z" fill="#8C50FF"/>
<path id="Vector_50" opacity="0.2" d="M248.421 278.743L212.554 258.055C209.773 256.443 207.509 252.137 207.509 248.432C207.509 244.715 209.773 243.007 212.554 244.619L248.421 265.296C251.203 266.907 253.466 271.226 253.466 274.918C253.466 278.635 251.203 280.343 248.421 278.743Z" fill="#8C50FF"/>
<path id="Vector_51" opacity="0.2" d="M114.978 275.467C124.512 269.993 124.548 252.184 115.059 235.69C105.571 219.195 90.1497 210.261 80.6159 215.735C71.0821 221.209 71.0456 239.018 80.5345 255.513C90.0233 272.007 105.444 280.941 114.978 275.467Z" fill="#8C50FF"/>
<path id="Vector_52" opacity="0.2" d="M180.35 312.28C189.84 306.807 189.841 289.059 180.353 272.639C170.864 256.22 155.478 247.347 145.988 252.821C136.498 258.295 136.497 276.043 145.985 292.462C155.474 308.881 170.86 317.754 180.35 312.28Z" fill="#8C50FF"/>
<path id="Vector_53" opacity="0.2" d="M247.009 351.616C256.543 346.142 256.579 328.333 247.09 311.838C237.601 295.344 222.18 286.41 212.647 291.884C203.113 297.357 203.076 315.166 212.565 331.661C222.054 348.156 237.475 357.09 247.009 351.616Z" fill="#8C50FF"/>
</g>
</g>
</g>
</g>
<defs>
<clipPath id="clip0">
<rect width="602" height="467" fill="white"/>
</clipPath>
</defs>
</svg>
