<svg width="562" height="602" viewBox="0 0 562 602" fill="none" xmlns="http://www.w3.org/2000/svg">
<g id="Delivery_app_SVG" clip-path="url(#clip0)">
<g id="&#208;&#161;&#208;&#187;&#208;&#190;&#208;&#185; 2">
<g id="&#208;&#161;&#208;&#187;&#208;&#190;&#208;&#185; 1">
<path id="Vector" d="M453.119 427.962L340.213 362.838C330.656 357.324 322.895 342.527 322.895 329.788V15.1589C322.968 2.40856 330.692 -3.44288 340.249 2.07144L453.119 67.1958C462.76 72.7222 470.472 87.5193 470.472 100.258V414.887C470.472 427.625 462.76 433.441 453.119 427.962Z" fill="#B1B4C4"/>
<path id="Vector_2" d="M455.083 433.634L464.037 429.119L455.457 414.418L455.083 433.634Z" fill="#B1B4C4"/>
<path id="Vector_3" d="M321.184 5.21462L329.415 0.904297L327.752 13.0286L321.184 5.21462Z" fill="#B1B4C4"/>
<path id="Vector_4" d="M445.949 431.562L333.054 366.438C323.486 360.924 315.737 346.127 315.737 333.376V18.7469C315.737 6.02061 323.486 0.157134 333.054 5.67145L445.949 70.7958C455.517 76.3101 463.266 91.1073 463.266 103.846V418.487C463.266 431.225 455.529 437.053 445.949 431.562Z" fill="#616E84"/>
<path id="Vector_5" d="M462.073 104.653V419.282C462.073 432.021 454.324 437.872 444.756 432.37L400.48 406.821L386.718 398.886L331.849 367.221C322.293 361.695 314.544 346.91 314.544 334.159V19.5542C314.532 6.80384 322.293 0.96444 331.849 6.46672L444.756 71.5911C454.324 77.1174 462.073 91.9026 462.073 104.653Z" fill="#20232D"/>
<path id="Vector_6" d="M453.926 101.461V407.891C453.926 415.609 448.503 418.727 441.815 414.875L406.518 394.527L403.396 392.721L402.36 392.119L394.732 387.688L372.654 374.974L363.495 369.689L359.808 367.57L334.79 353.121C328.101 349.257 322.679 339.877 322.679 332.136V25.7539C322.679 18.0242 328.101 14.9179 334.79 18.7587L378.873 44.1872V44.3076C379.05 47.577 379.996 50.7586 381.633 53.595C383.27 56.4314 385.553 58.8427 388.296 60.6338C393.514 63.6197 397.744 61.1997 397.744 55.1917C397.744 55.1917 397.744 55.0954 397.744 55.0593L441.839 80.4878C448.503 84.3406 453.926 93.7318 453.926 101.461Z" fill="white"/>
<path id="Vector_7" d="M390.846 57.4678C392.241 56.6632 392.239 54.0503 390.841 51.6316C389.443 49.213 387.179 47.9046 385.785 48.7092C384.39 49.5138 384.392 52.1267 385.79 54.5453C387.187 56.964 389.451 58.2724 390.846 57.4678Z" fill="#2B303F"/>
<path id="Vector_8" opacity="0.1" d="M388.308 54.8192C387.878 54.5297 387.521 54.1439 387.266 53.6925C387.01 53.241 386.864 52.7364 386.838 52.2185C386.838 51.2674 387.513 50.8701 388.345 51.3517C388.78 51.6385 389.141 52.0231 389.401 52.4747C389.66 52.9263 389.81 53.4323 389.839 53.9523C389.803 54.9035 389.128 55.2887 388.308 54.8192Z" fill="white"/>
<path id="Vector_9" d="M466.652 146.045C465.724 146.587 464.977 146.045 464.977 144.841V131.38C464.986 130.754 465.142 130.139 465.433 129.585C465.724 129.031 466.142 128.553 466.652 128.19C467.568 127.66 468.315 128.19 468.315 129.394V142.806C468.315 143.439 468.165 144.063 467.875 144.626C467.586 145.189 467.167 145.676 466.652 146.045Z" fill="#757B89"/>
<path id="Vector_10" d="M466.652 168.031C465.724 168.561 464.977 168.031 464.977 166.767V153.354C464.986 152.73 465.142 152.117 465.433 151.564C465.724 151.012 466.142 150.536 466.652 150.176C467.568 149.646 468.315 150.176 468.315 151.38V164.804C468.314 165.435 468.162 166.057 467.873 166.618C467.584 167.179 467.165 167.663 466.652 168.031Z" fill="#757B89"/>
<path id="Vector_11" d="M353.397 52.1222C343.551 46.4393 335.537 51.0626 335.537 62.4284C335.568 65.5926 336.092 68.7326 337.092 71.7353C341.563 85.5934 350.131 102.437 352.649 107.277C352.819 107.616 353.077 107.903 353.397 108.108C353.509 108.184 353.641 108.225 353.776 108.225C353.912 108.225 354.044 108.184 354.156 108.108C356.674 106.182 365.243 99.2106 369.714 90.5177C370.806 88.1928 371.339 85.6445 371.268 83.077C371.268 71.6751 363.254 57.793 353.397 52.1222ZM353.397 83.4262C350.706 81.6688 348.465 79.306 346.854 76.5272C345.242 73.7484 344.305 70.631 344.117 67.425C344.117 61.5254 348.287 59.1174 353.397 62.0672C356.101 63.8177 358.356 66.1791 359.978 68.9608C361.601 71.7426 362.545 74.8665 362.736 78.0804C362.736 83.992 358.518 86.388 353.397 83.4382V83.4262Z" fill="#DADCE5"/>
<path id="Vector_12" d="M432.15 280.617L344.178 229.869C339.357 227.124 335.549 219.743 335.549 213.398V152.355C335.549 146.01 339.405 143.097 344.178 145.842L432.15 196.602C436.971 199.347 440.779 206.716 440.779 213.073V274.104C440.779 280.449 436.922 283.375 432.15 280.617Z" fill="#E9EAF2"/>
<path id="Vector_13" d="M436.464 111.768L389.465 84.6541C387.055 83.2815 385.151 79.5973 385.151 76.4187V76.1659C385.151 72.9993 387.079 71.5425 389.465 72.9151L436.464 100.029C438.875 101.402 440.779 105.086 440.779 108.265V108.517C440.779 111.684 438.85 113.177 436.464 111.768Z" fill="#E9EAF2"/>
<path id="Vector_14" d="M436.464 134.355L389.465 107.229C387.055 105.856 385.151 102.172 385.151 99.0054V98.7285C385.151 95.5499 387.079 94.0931 389.465 95.4656L436.464 122.592C438.875 123.964 440.779 127.649 440.779 130.815V131.068C440.779 134.271 438.85 135.727 436.464 134.355Z" fill="#E9EAF2"/>
<path id="Vector_15" d="M436.464 158.231L389.465 131.117C387.055 129.745 385.151 126.048 385.151 122.882V122.629C385.151 119.45 387.079 117.993 389.465 119.366L436.464 146.492C438.875 147.865 440.779 151.549 440.779 154.728V154.98C440.779 158.147 438.85 159.604 436.464 158.231Z" fill="#E9EAF2"/>
<path id="Vector_16" d="M436.464 182.104L339.839 126.419C337.429 125.047 335.525 121.363 335.525 118.196V117.943C335.525 114.765 337.453 113.308 339.839 114.68L436.452 170.414C438.863 171.786 440.767 175.47 440.767 178.649V178.902C440.779 182.02 438.85 183.477 436.464 182.104Z" fill="#E9EAF2"/>
<path id="Vector_17" d="M436.464 309.668L339.839 253.935C337.429 252.563 335.525 248.879 335.525 245.7V245.447C335.525 242.281 337.453 240.824 339.839 242.196L436.452 297.929C438.863 299.302 440.767 302.986 440.767 306.165V306.406C440.779 309.584 438.85 311.041 436.464 309.668Z" fill="#E9EAF2"/>
<path id="Vector_18" d="M436.464 335.435L339.839 279.702C337.429 278.33 335.525 274.645 335.525 271.467V271.214C335.525 268.047 337.453 266.579 339.839 267.963L436.452 323.684C438.863 325.069 440.767 328.753 440.767 331.92V332.172C440.779 335.351 438.85 336.808 436.464 335.435Z" fill="#E9EAF2"/>
<path id="Vector_19" d="M436.464 361.2L339.839 305.467C337.429 304.082 335.525 300.398 335.525 297.231V296.978C335.525 293.8 337.453 292.343 339.839 293.716L436.452 349.449C438.863 350.821 440.767 354.506 440.767 357.684V357.937C440.779 361.104 438.85 362.572 436.464 361.2Z" fill="#E9EAF2"/>
<path id="Vector_20" d="M394.274 362.621L340.924 331.847C338.514 330.474 336.609 326.79 336.609 323.611V323.358C336.609 320.192 338.55 318.723 340.924 320.108L394.274 350.87C396.684 352.242 398.588 355.939 398.588 359.105V359.358C398.588 362.525 396.648 363.993 394.274 362.621Z" fill="#E9EAF2"/>
<path id="Vector_21" d="M506.433 458.038L450.865 425.988L506.433 393.938L562 425.988L506.433 458.038Z" fill="#EFDA86"/>
<path id="Vector_22" d="M558.252 491.497L506.433 521.392V461.614L558.252 431.73V491.497Z" fill="#D1B66B"/>
<path id="Vector_23" d="M506.433 521.392L454.625 491.497V431.73L506.433 461.614V521.392Z" fill="#E2C979"/>
<path id="Vector_24" opacity="0.1" d="M454.625 431.73V447.37L506.433 476.917V461.686L454.625 431.73Z" fill="black"/>
<path id="Vector_25" opacity="0.1" d="M558.252 431.73V448.49L506.445 476.917L506.433 461.686L558.252 431.73Z" fill="black"/>
<path id="Vector_26" d="M450.865 425.988V442.567L506.433 474.184V458.039L450.865 425.988Z" fill="#E2C979"/>
<path id="Vector_27" d="M506.433 474.184L562 443.856V425.988L506.433 458.039V474.184Z" fill="#D1B66B"/>
<path id="Vector_28" d="M440.056 495.831L384.488 463.781L440.056 431.73L495.623 463.781L440.056 495.831Z" fill="#EFDA86"/>
<path id="Vector_29" d="M491.863 529.304L440.056 559.187V499.42L491.863 469.537V529.304Z" fill="#D1B66B"/>
<path id="Vector_30" d="M440.056 559.187L388.248 529.304V469.537L440.056 499.42V559.187Z" fill="#E2C979"/>
<path id="Vector_31" opacity="0.1" d="M388.248 469.537V485.177L440.056 514.711V499.481L388.248 469.537Z" fill="black"/>
<path id="Vector_32" opacity="0.1" d="M491.863 469.537V486.285L440.056 514.711V499.481L491.863 469.537Z" fill="black"/>
<path id="Vector_33" d="M384.488 463.781V480.36L440.056 511.977V495.832L384.488 463.781Z" fill="#E2C979"/>
<path id="Vector_34" d="M440.056 511.977L495.623 481.661V463.781L440.056 495.832V511.977Z" fill="#D1B66B"/>
<path id="Vector_35" opacity="0.05" d="M439.803 480.866L412.893 464.986L442.032 448.178L468.942 464.058L439.803 480.866Z" fill="black"/>
<path id="Vector_36" d="M443.297 445.686L414.146 428.878L443.297 412.059L472.437 428.878L443.297 445.686Z" fill="#EFDA86"/>
<path id="Vector_37" d="M470.46 463.239L443.297 478.903V447.563L470.46 431.887V463.239Z" fill="#D1B66B"/>
<path id="Vector_38" d="M443.297 478.903L416.122 463.239V431.887L443.297 447.563V478.903Z" fill="#E2C979"/>
<path id="Vector_39" opacity="0.1" d="M416.122 431.887V440.086L443.297 455.581V447.587L416.122 431.887Z" fill="black"/>
<path id="Vector_40" opacity="0.1" d="M470.46 431.887V440.676L443.297 455.581V447.587L470.46 431.887Z" fill="black"/>
<path id="Vector_41" d="M414.146 428.877V437.57L443.297 454.149V445.685L414.146 428.877Z" fill="#E2C979"/>
<path id="Vector_42" d="M443.297 454.149L472.437 438.244V428.877L443.297 445.685V454.149Z" fill="#D1B66B"/>
<path id="Vector_43" opacity="0.4" d="M394.189 602.001L352.722 577.969L397.154 552.336L438.622 576.368L394.189 602.001Z" fill="#D6D8E5"/>
<path id="Vector_44" d="M398.853 548.628L354.421 522.995L398.853 497.361L443.297 522.995L398.853 548.628Z" fill="#EFDA86"/>
<path id="Vector_45" d="M440.285 575.381L398.853 599.292V551.493L440.285 527.582V575.381Z" fill="#D1B66B"/>
<path id="Vector_46" d="M398.853 599.292L357.422 575.381V527.582L398.853 551.493V599.292Z" fill="#E2C979"/>
<path id="Vector_47" opacity="0.1" d="M357.422 527.582V540.092L398.853 563.714V551.542L357.422 527.582Z" fill="black"/>
<path id="Vector_48" opacity="0.1" d="M440.285 527.582V540.983L398.853 563.714V551.542L440.285 527.582Z" fill="black"/>
<path id="Vector_49" d="M354.421 522.994V536.25L398.853 561.534V548.627L354.421 522.994Z" fill="#E2C979"/>
<path id="Vector_50" d="M398.853 561.534L443.297 537.286V522.994L398.853 548.627V561.534Z" fill="#D1B66B"/>
<path id="Vector_51" opacity="0.4" d="M91.0094 355.096L44.1671 328.078L110.351 290.826L157.194 317.844L91.0094 355.096Z" fill="#D6D8E5"/>
<path id="Vector_52" d="M93.7209 296.906L46.8785 269.888L113.063 232.637L159.905 259.654L93.7209 296.906Z" fill="#EFDA86"/>
<path id="Vector_53" d="M156.736 314.884L93.7209 350.305V299.918L156.736 264.496V314.884Z" fill="#D1B66B"/>
<path id="Vector_54" d="M93.7209 350.304L50.048 325.116V274.729L93.7209 299.916V350.304Z" fill="#E2C979"/>
<path id="Vector_55" opacity="0.1" d="M50.048 274.729V287.912L93.7209 312.811V299.976L50.048 274.729Z" fill="black"/>
<path id="Vector_56" opacity="0.1" d="M156.736 264.496V278.631L93.7209 312.813V299.978L156.736 264.496Z" fill="black"/>
<path id="Vector_57" d="M46.8785 269.889V283.855L93.7209 310.512V296.906L46.8785 269.889Z" fill="#E2C979"/>
<path id="Vector_58" d="M93.7209 310.513L159.905 274.73V259.656L93.7209 296.908V310.513Z" fill="#D1B66B"/>
<path id="Vector_59" opacity="0.4" d="M25.0782 389.326L3.91663 377.503L35.7193 359.611L56.8809 371.435L25.0782 389.326Z" fill="#D6D8E5"/>
<path id="Vector_60" d="M27.9464 362.068L5.43506 349.089L37.2377 331.186L59.737 344.165L27.9464 362.068Z" fill="#EFDA86"/>
<path id="Vector_61" d="M58.2185 370.7L27.9464 387.713V363.513L58.2185 346.5V370.7Z" fill="#D1B66B"/>
<path id="Vector_62" d="M27.9464 387.713L6.96552 375.613V351.412L27.9464 363.512V387.713Z" fill="#E2C979"/>
<path id="Vector_63" opacity="0.1" d="M6.96552 351.412V357.745L27.9464 369.701V363.536L6.96552 351.412Z" fill="black"/>
<path id="Vector_64" opacity="0.1" d="M58.2185 346.5V353.279L27.9464 369.701V363.537L58.2185 346.5Z" fill="black"/>
<path id="Vector_65" d="M5.43506 349.088V355.794L27.9464 368.605V362.067L5.43506 349.088Z" fill="#E2C979"/>
<path id="Vector_66" d="M27.9464 368.605L59.737 351.412V344.164L27.9464 362.068V368.605Z" fill="#D1B66B"/>
<path id="Vector_67" opacity="0.4" d="M187.502 395.238L122.8 357.865L169.642 330.848L234.344 368.22L187.502 395.238Z" fill="#D6D8E5"/>
<path id="Vector_68" d="M193.6 338.398L128.898 301.026L175.74 274.008L240.442 311.38L193.6 338.398Z" fill="#EFDA86"/>
<path id="Vector_69" d="M237.273 366.606L193.6 391.794V341.418L237.273 316.219V366.606Z" fill="#D1B66B"/>
<path id="Vector_70" d="M193.6 391.794L132.067 356.252V305.877L193.6 341.419V391.794Z" fill="#E2C979"/>
<path id="Vector_71" opacity="0.1" d="M132.067 305.877V319.061L193.6 354.302V341.467L132.067 305.877Z" fill="black"/>
<path id="Vector_72" opacity="0.1" d="M237.273 316.219V330.342L193.6 354.301V341.467L237.273 316.219Z" fill="black"/>
<path id="Vector_73" d="M128.898 301.025V315.004L193.6 352.003V338.398L128.898 301.025Z" fill="#E2C979"/>
<path id="Vector_74" d="M193.6 352.002L240.442 326.441V311.379L193.6 338.397V352.002Z" fill="#D1B66B"/>
<path id="Vector_75" opacity="0.4" d="M503.504 576.367L464.218 553.804L494.008 536.611L533.282 559.186L503.504 576.367Z" fill="#D6D8E5"/>
<path id="Vector_76" d="M508.072 539.669L466.929 515.902L496.72 498.721L537.862 522.488L508.072 539.669Z" fill="#EFDA86"/>
<path id="Vector_77" d="M535.849 557.609L508.072 573.634V541.584L535.849 525.57V557.609Z" fill="#D1B66B"/>
<path id="Vector_78" d="M508.072 573.634L468.942 551.023V518.984L508.072 541.583V573.634Z" fill="#E2C979"/>
<path id="Vector_79" opacity="0.1" d="M468.942 518.984V527.376L508.072 549.783V541.62L468.942 518.984Z" fill="black"/>
<path id="Vector_80" opacity="0.1" d="M535.849 525.57V534.552L508.072 549.783V541.62L535.849 525.57Z" fill="black"/>
<path id="Vector_81" d="M466.929 515.902V524.788L508.072 548.326V539.669L466.929 515.902Z" fill="#E2C979"/>
<path id="Vector_82" d="M508.072 548.326L537.862 532.072V522.488L508.072 539.669V548.326Z" fill="#D1B66B"/>
<path id="Vector_83" d="M109.893 243.1L71.8844 221.163L109.893 199.25L147.902 221.163L109.893 243.1Z" fill="#EFDA86"/>
<path id="Vector_84" opacity="0.05" d="M105.724 288.659L69.7634 268.54L107.784 246.615L143.733 266.734L105.724 288.659Z" fill="black"/>
<path id="Vector_85" d="M145.336 265.987L109.893 286.431V245.544L145.336 225.1V265.987Z" fill="#D1B66B"/>
<path id="Vector_86" d="M109.893 286.431L74.4513 265.987V225.1L109.893 245.544V286.431Z" fill="#E2C979"/>
<path id="Vector_87" opacity="0.1" d="M74.4513 225.1V235.803L109.893 256.006V245.58L74.4513 225.1Z" fill="black"/>
<path id="Vector_88" opacity="0.1" d="M145.336 225.1V236.562L109.893 256.006V245.58L145.336 225.1Z" fill="black"/>
<path id="Vector_89" d="M71.8844 221.164V232.506L109.893 254.142V243.101L71.8844 221.164Z" fill="#E2C979"/>
<path id="Vector_90" d="M109.893 254.142L147.902 233.397V221.164L109.893 243.101V254.142Z" fill="#D1B66B"/>
<path id="Vector_91" opacity="0.4" d="M97.9749 436.004L49.6382 408.288L101.482 378.381L149.818 406.109L97.9749 436.004Z" fill="#D6D8E5"/>
<path id="Vector_92" d="M103.398 373.758L51.5423 343.851L103.398 313.943L155.241 343.851L103.398 373.758Z" fill="#EFDA86"/>
<path id="Vector_93" d="M151.735 404.978L103.398 432.863V377.094L151.735 349.209V404.978Z" fill="#D1B66B"/>
<path id="Vector_94" d="M103.398 432.863L55.0491 404.978V349.209L103.398 377.094V432.863Z" fill="#E2C979"/>
<path id="Vector_95" opacity="0.1" d="M55.0491 349.209V363.801L103.398 391.361V377.154L55.0491 349.209Z" fill="black"/>
<path id="Vector_96" opacity="0.1" d="M151.735 349.209V364.849L103.398 391.361V377.154L151.735 349.209Z" fill="black"/>
<path id="Vector_97" d="M51.5423 343.852V359.311L103.398 388.821V373.759L51.5423 343.852Z" fill="#E2C979"/>
<path id="Vector_98" d="M103.398 388.821L155.242 360.527V343.852L103.398 373.759V388.821Z" fill="#D1B66B"/>
<g id="Men 2">
<path id="&#60;&#208;&#154;&#208;&#190;&#208;&#189;&#209;&#130;&#209;&#131;&#209;&#128;&#62;" d="M193.937 240.945C195.974 245.593 201.686 267.433 206.531 273.164C211.375 278.895 235.453 279.413 235.453 279.413L231.525 266.976L216.099 263.051L208.158 243.269L193.937 240.945Z" fill="#FFCEA9"/>
<path id="&#60;&#208;&#154;&#208;&#190;&#208;&#189;&#209;&#130;&#209;&#131;&#209;&#128;&#62;_2" d="M225.644 259.956C216.461 262.268 214.304 256.477 213.086 251.685C210.17 240.09 208.338 264.688 212.183 267.782C216.919 271.611 218.449 274.898 229.247 272.213C233.85 271.009 238.888 268.312 247.625 264.255C249.963 263.171 251.782 262.437 256.265 260.354C260.748 258.271 265.424 254.779 267.774 251.372C270.124 247.964 270.449 246.375 269.967 245.593C269.365 244.617 268.292 244.834 267.039 246.267C265.221 248.684 262.985 250.755 260.435 252.383C260.435 252.383 263.327 249.385 264.906 247.435C266.313 245.709 267.481 243.802 268.377 241.764C269.208 239.777 267.497 237.092 266.195 238.501C264.894 239.91 264.279 241.354 261.905 244.208C260.653 245.721 259.225 247.079 257.651 248.253C259.123 246.262 260.432 244.156 261.568 241.956C262.579 240.233 263.076 238.258 263.002 236.262C262.93 235.214 261.471 233.986 260.085 235.949C258.88 237.718 258.049 240.488 255.157 243.486C253.06 245.665 251.276 246.905 251.228 246.303C251.18 245.701 252.493 244.509 253.24 241.981C253.988 239.452 253.24 236.767 251.843 236.478C250.445 236.189 250.71 236.262 249.577 238.633C248.444 241.005 246.733 242.751 245.407 246.207C244.697 248.648 243.402 250.879 241.635 252.708C239.37 255.104 234.381 257.753 225.644 259.956Z" fill="#FFCEA9"/>
<path id="Vector_99" opacity="0.4" d="M236.755 489.031C265.34 489.031 288.514 475.662 288.514 459.172C288.514 442.681 265.34 429.312 236.755 429.312C208.169 429.312 184.995 442.681 184.995 459.172C184.995 475.662 208.169 489.031 236.755 489.031Z" fill="#D6D8E5"/>
<path id="&#60;&#208;&#154;&#208;&#190;&#208;&#189;&#209;&#130;&#209;&#131;&#209;&#128;&#62;_3" d="M212.183 213.255C210.187 212.328 207.92 212.167 205.814 212.802C203.707 213.437 201.908 214.823 200.758 216.698C197.733 221.707 194.588 238.852 194.311 241.777C194.311 241.777 198.541 247.629 204.904 246.654L212.183 213.255Z" fill="#EDEDED"/>
<path id="Vector_100" d="M235.634 455.353C240.094 456.569 244.853 455.99 248.89 453.74C252.084 453.836 269.461 446.408 271.787 452.644C273.86 458.11 266.328 463.167 262.315 464.142C253.53 466.274 247.046 470.644 243.515 471.366C240.888 471.92 237.49 472.294 235.393 470.223C232.959 467.766 233.176 458.604 235.634 455.353Z" fill="#2B2A30"/>
<path id="Vector_101" d="M243.588 469.875C247.119 469.129 253.602 464.758 262.387 462.651C265.749 461.844 271.558 458.16 272.149 453.766C272.92 458.798 266.123 463.265 262.387 464.168C253.602 466.299 247.119 470.67 243.588 471.392C240.96 471.946 237.562 472.319 235.465 470.248C234.923 469.651 234.53 468.932 234.32 468.153C237.405 470.682 241.021 470.429 243.588 469.875Z" fill="#BF4B4B"/>
<path id="Vector_102" d="M207.447 442.701C211.904 443.928 216.666 443.353 220.703 441.099C223.908 441.196 241.274 433.767 243.6 440.004C245.66 445.47 238.141 450.527 234.115 451.502C225.342 453.633 218.847 458.003 215.328 458.726C212.701 459.28 209.302 459.653 207.206 457.582C204.783 455.114 205 445.963 207.447 442.701Z" fill="#2B2A30"/>
<path id="Vector_103" d="M215.412 457.233C218.931 456.486 225.427 452.116 234.2 450.009C237.574 449.202 243.371 445.518 243.961 441.123C244.744 446.156 237.936 450.623 234.2 451.526C225.427 453.657 218.931 458.027 215.412 458.75C212.785 459.303 209.387 459.677 207.29 457.606C206.73 457.011 206.318 456.293 206.085 455.511C209.194 458.039 212.785 457.786 215.412 457.233Z" fill="#BF4B4B"/>
<path id="&#60;&#208;&#154;&#208;&#190;&#208;&#189;&#209;&#130;&#209;&#131;&#209;&#128;&#62;_4" d="M207.109 395.539C207.857 389.092 209.2 382.728 211.122 376.528C211.122 376.528 209.917 360.118 209.327 344.562C208.64 326.911 202.518 311.38 207.35 297.293L261.869 309.429C261.869 309.429 258.567 379.803 257.844 388.327C257.449 394.957 256.644 401.555 255.434 408.085C252.939 421.75 248.902 454.246 248.902 454.246C243.13 457.594 235.562 455.739 235.562 455.739C235.562 455.739 235.983 414.647 236.357 404.798C236.803 392.758 237.176 393.697 237.176 393.697L235.369 363.754L234.164 348.86C234.164 348.86 232.657 359.793 231.681 369.557C230.826 378.069 228.765 385.763 226.463 401.62C224.475 415.369 221.233 442.989 221.233 442.989C215.473 446.336 207.639 443.555 207.639 443.555C207.639 443.555 205.542 407.471 207.109 395.539Z" fill="#E26161"/>
<path id="&#60;&#208;&#154;&#208;&#190;&#208;&#189;&#209;&#130;&#209;&#131;&#209;&#128;&#62;_5" d="M215.075 213.543C219.22 213.748 222.305 214.819 222.836 213.543C223.278 211.405 223.592 209.242 223.776 207.066C223.294 205.862 222.884 204.573 222.884 204.573C217.678 201.359 216.027 195.736 215.34 189.174C214.135 177.965 220.233 168.164 231.452 166.984C241.997 165.889 249.746 173.293 251.818 183.455C252.939 188.476 255.157 197.963 252.156 206.223C250.481 210.834 248.312 214.494 246.13 215.217C244.04 215.158 241.956 214.973 239.888 214.663C239.888 214.663 239.322 217.769 238.936 219.768C238.55 221.766 238.707 222.826 242.684 225.27C246.661 227.714 236.658 232.759 230.139 232.265C223.619 231.772 216.244 227.823 214.231 223.609C212.026 218.961 212.219 213.411 215.075 213.543Z" fill="#FFCEA9"/>
<path id="&#60;&#208;&#154;&#208;&#190;&#208;&#189;&#209;&#130;&#209;&#131;&#209;&#128;&#62;_6" d="M221.076 214.169C219.931 217.034 222.848 220.538 230.645 222.982C238.442 225.426 239.141 222.284 239.141 222.284C239.141 222.284 250.577 227.485 254.301 230.086C258.989 233.349 261.062 242.812 261.688 258.777C262.423 277.258 262.484 304.674 261.869 309.405C261.869 309.405 253.12 318.11 241.925 317.195C230.729 316.28 211.905 306.359 207.338 298.738C207.459 282.532 209.351 279.895 206.723 270.564C200.698 249.193 197.553 240.464 200.469 226.245C202.879 214.542 206.254 213.085 210.881 213.206C214.294 213.342 217.698 213.663 221.076 214.169Z" fill="#F4F4F4"/>
<path id="&#60;&#208;&#154;&#208;&#190;&#208;&#189;&#209;&#130;&#209;&#131;&#209;&#128;&#62;_7" d="M279.283 274.057C270.1 276.368 267.943 270.589 266.738 265.797C263.809 254.191 262.231 243.716 260.061 237.13C257.494 229.364 254.807 228.124 251.023 226.607C246.588 224.837 242.78 228.582 244.25 238.466C245.998 250.157 248.287 258.369 252.686 272.178C253.819 275.79 256.386 282.208 260.23 285.314C264.966 289.143 272.1 288.926 282.898 286.289C287.514 285.085 292.539 282.4 301.276 278.331C303.614 277.247 305.433 276.525 309.916 274.43C314.399 272.335 319.075 268.855 321.437 265.46C323.799 262.065 324.101 260.452 323.618 259.681C323.016 258.706 321.943 258.922 320.69 260.355C318.871 262.768 316.635 264.835 314.086 266.459C314.086 266.459 316.978 263.462 318.557 261.523C319.966 259.799 321.134 257.891 322.028 255.852C322.859 253.866 321.148 251.169 319.847 252.577C318.545 253.986 317.93 255.443 315.556 258.284C314.302 259.799 312.874 261.16 311.302 262.342C312.772 260.345 314.082 258.236 315.219 256.033C316.231 254.31 316.729 252.334 316.653 250.338C316.581 249.302 315.123 248.074 313.749 250.037C312.544 251.795 311.7 254.564 308.808 257.562C306.711 259.741 304.927 260.993 304.879 260.391C304.831 259.789 306.144 258.585 306.892 256.057C307.639 253.529 306.892 250.844 305.494 250.555C304.096 250.266 304.361 250.338 303.24 252.71C302.119 255.082 300.384 256.827 299.058 260.295C298.344 262.746 297.036 264.983 295.25 266.809C293.009 269.205 288.02 271.865 279.283 274.057Z" fill="#FFCEA9"/>
<path id="&#60;&#208;&#154;&#208;&#190;&#208;&#189;&#209;&#130;&#209;&#131;&#209;&#128;&#62;_8" d="M247.625 225.029C253.759 224.126 258.097 226.883 260.809 236.166C263.52 245.449 265.4 253.022 265.4 253.022C262.976 256.525 259.302 258.968 255.133 259.849C247.793 261.619 245.154 258.115 245.154 258.115C245.154 258.115 243.118 248.387 241.852 241.765C240.587 235.143 240.033 226.149 247.625 225.029Z" fill="#EDEDED"/>
<path id="Vector_104" d="M251.469 182.022C251.469 182.022 261.11 167.309 240.153 164.311C225.005 162.144 215.28 171.86 214.159 182.371C213.074 192.449 219.293 202.912 223.8 207.065C225.993 207.848 230.705 208.269 236.887 205.488C237.141 202.743 237.237 199.985 237.176 197.229C237.176 197.229 229.777 181.805 251.469 182.022Z" fill="#2B2A30"/>
</g>
<g id="Men 14">
<path id="Vector_105" d="M406.518 394.526L403.396 392.72L402.36 392.118C403.33 391.908 404.237 391.475 405.011 390.854C405.337 390.818 405.975 392.504 406.518 394.526Z" fill="#38226D"/>
<path id="Vector_106" d="M405.228 391.83C404.664 392.215 404.047 392.515 403.396 392.721L394.732 387.688C392.948 379.368 388.935 360.562 386.79 350.81C383.994 338.083 383.512 330.739 382.066 322.853C380.319 313.305 376.535 268.745 376.535 268.745L375.04 268.829L371.015 319.12C372.249 322.832 373.097 326.661 373.546 330.546C374.414 336.988 373.208 363.728 372.654 374.962L363.495 369.664L359.808 367.545C356.855 351.014 351.89 322.467 351.89 316.652C351.89 311.162 352.842 238.705 352.842 238.705L405.204 252.118C405.035 257.801 403.252 282.47 402.468 295.546C401.685 308.621 401.492 324.623 401.492 324.623C401.492 324.623 403.746 334.134 405.204 345.331C406.662 356.529 405.228 391.83 405.228 391.83Z" fill="#8C50FF"/>
<path id="&#60;&#208;&#154;&#208;&#190;&#208;&#189;&#209;&#130;&#209;&#131;&#209;&#128;&#62;_9" d="M391.659 142.252C391.659 142.252 391.02 154.641 391.297 155.737C391.574 156.832 396.985 160.468 398.528 161.757C400.07 163.045 389.947 173.062 385.018 175.326C380.09 177.589 364.435 171.63 364.158 163.948C363.881 156.267 366.833 149.837 369.232 149.5C371.63 149.163 391.659 142.252 391.659 142.252Z" fill="#FFCEA9"/>
<path id="Vector_107" d="M357.627 165.236C356.903 159.782 360.495 154.593 357 150.234C344.756 162.274 346.323 193.964 343.539 214.263C334.44 223.763 316.171 233.118 311.001 235.429C310.061 235.863 309.242 236.32 309.434 237.32C310.17 241.281 311.314 242.786 313.688 246.615C325.739 241.401 334.501 238.415 349.601 224.076C351.031 222.525 352.314 220.844 353.433 219.055C357.783 206.112 358.868 174.688 357.627 165.236Z" fill="#FFCEA9"/>
<path id="&#60;&#208;&#154;&#208;&#190;&#208;&#189;&#209;&#130;&#209;&#131;&#209;&#128;&#62;_10" d="M392.984 157.88C392.984 157.88 383.982 171.28 371.413 172.533C367.46 168.644 367.099 154.762 372.618 150.331C372.618 150.331 367.581 146.261 364.182 147.056C360.482 149.299 357.726 152.814 356.433 156.941C353.199 166.148 351.66 175.865 351.89 185.62C352.107 198.768 351.89 238.945 351.89 238.945C351.89 238.945 353.662 247.446 365.014 253.767C376.366 260.088 384.814 260.702 392.514 258.908C398.865 257.427 404.119 255.187 406.313 250.576C405.746 241.365 401.625 217.309 403.167 205.727C404.71 194.144 407.156 185.488 407.783 176.121C408.41 166.753 406.578 166.934 401.842 163.599C399.03 161.483 396.07 159.572 392.984 157.88Z" fill="#F4F4F4"/>
<path id="&#60;&#208;&#154;&#208;&#190;&#208;&#189;&#209;&#130;&#209;&#131;&#209;&#128;&#62;_11" d="M363.519 123.771C365.002 114.139 371.955 106.915 381.873 107.409C385.873 107.604 389.71 109.05 392.841 111.544C395.972 114.037 398.24 117.452 399.322 121.304C400.404 125.155 400.246 129.25 398.871 133.007C397.496 136.764 394.973 139.995 391.659 142.24C391.308 143.699 390.79 145.113 390.116 146.454C386.609 150.56 375.98 153.088 372.931 152.655C369.015 152.089 366.906 150.464 365.026 146.177C361.676 138.628 362.736 128.527 363.519 123.771Z" fill="#FFCEA9"/>
<path id="Vector_108" d="M391.659 142.24L390.743 133.812C390.743 133.812 397.612 116.065 381.391 119.472C370.69 121.724 368.002 122.699 364.737 115.523C361.471 108.347 372.967 101.894 386.609 103.688C391.306 104.182 395.646 106.419 398.771 109.958C401.895 113.496 403.576 118.078 403.481 122.795C403.071 128.117 401.661 138.797 391.659 142.24Z" fill="#3A2C6D"/>
<path id="Vector_109" d="M345.985 217.213L307.976 195.288L345.985 173.363L383.994 195.288L345.985 217.213Z" fill="#EFDA86"/>
<path id="Vector_110" d="M381.427 240.112L345.985 260.556V219.669L381.427 199.225V240.112Z" fill="#D1B66B"/>
<path id="Vector_111" d="M345.985 260.556L310.543 240.112V199.225L345.985 219.669V260.556Z" fill="#E2C979"/>
<path id="Vector_112" opacity="0.1" d="M310.543 199.225V209.916L345.985 230.131V219.705L310.543 199.225Z" fill="black"/>
<path id="Vector_113" opacity="0.1" d="M381.427 199.225V210.687L345.985 230.131V219.705L381.427 199.225Z" fill="black"/>
<path id="Vector_114" d="M307.976 195.289V206.631L345.985 228.255V217.214L307.976 195.289Z" fill="#E2C979"/>
<path id="Vector_115" d="M345.985 228.255L383.994 207.522V195.289L345.985 217.214V228.255Z" fill="#D1B66B"/>
<path id="Vector_116" d="M410.591 170.595C405.879 169.246 409.47 170.366 405.879 169.246C393.635 181.286 395.165 201.754 392.382 222.114C385.633 233.275 360.543 248.409 360.543 248.409C360.23 250.564 360.989 251.214 363.7 255.633C375.751 250.42 385.91 245.929 401.058 231.553C401.649 230.987 402.529 230.843 402.782 230.06C407.048 217.105 411.832 180.034 410.591 170.595Z" fill="#FFCEA9"/>
<path id="Vector_117" d="M366.858 248.854C366.255 246.735 364.712 247.252 362.989 247.794C361.107 248.547 359.043 248.723 357.06 248.3C355.421 247.794 354.228 246.373 352.83 245.434C352.018 244.958 351.097 244.697 350.155 244.676C350.239 245.218 351.071 248.384 351.071 248.384C351.071 248.384 342.31 248.468 341.43 248.288C341.128 248.227 340.815 248.262 340.535 248.388C340.254 248.514 340.02 248.724 339.866 248.99C339.711 249.256 339.644 249.564 339.674 249.87C339.704 250.176 339.829 250.465 340.032 250.696C339.839 250.696 339.634 250.696 339.441 250.611C337.646 250.214 336.887 253.02 338.682 253.369C339.164 253.477 339.658 253.525 340.153 253.585C338.947 254.043 338.682 255.993 340.153 256.258L340.61 256.331C340.812 256.414 341.032 256.447 341.249 256.427H341.526C341.487 256.636 341.49 256.851 341.536 257.059C341.582 257.267 341.669 257.463 341.793 257.637C341.917 257.81 342.074 257.956 342.256 258.067C342.438 258.178 342.641 258.251 342.852 258.281C347.13 258.835 353.433 260.545 357.313 257.017C359.999 256.757 362.623 256.049 365.074 254.922C367.557 253.79 367.557 251.394 366.858 248.854Z" fill="#FFCEA9"/>
<path id="Vector_118" d="M323.088 239.464C322.883 239.464 322.691 239.464 322.486 239.464C322.736 239.284 322.924 239.029 323.021 238.737C323.119 238.444 323.122 238.128 323.03 237.834C322.938 237.54 322.756 237.282 322.509 237.097C322.262 236.912 321.963 236.809 321.654 236.803C320.738 236.803 311.712 234.925 311.712 234.925L310.627 231.217C310.567 231.012 309.061 231.951 309.013 231.999C308.25 232.498 307.61 233.162 307.138 233.941C306.667 234.721 306.377 235.596 306.289 236.502C306.239 237.776 306.442 239.047 306.886 240.241C307.331 241.436 308.009 242.53 308.88 243.461C310.499 245.097 312.688 246.046 314.99 246.11C316.087 246.182 317.135 246.231 318.087 246.303C318.299 246.319 318.512 246.292 318.713 246.223C318.914 246.154 319.099 246.044 319.256 245.901C319.413 245.758 319.539 245.584 319.626 245.39C319.713 245.196 319.759 244.986 319.762 244.774H320.039C320.258 244.818 320.483 244.818 320.702 244.774H321.16C322.691 244.774 322.811 242.871 321.763 242.173C322.257 242.173 322.751 242.269 323.245 242.269C325.089 242.306 324.932 239.452 323.088 239.464Z" fill="#FFCEA9"/>
<path id="Vector_119" d="M352.517 173.376C352.517 173.376 347.901 173.147 345.985 170.45C346.335 165.851 352.228 148.369 364.062 147.068C360.831 149.325 358.271 152.412 356.65 156.002C354.529 161.264 352.517 173.376 352.517 173.376Z" fill="#EDEDED"/>
<path id="Vector_120" d="M412.724 196.468C412.724 196.468 400.914 200.538 392.599 193.699C391.695 192.134 397.419 172.027 397.419 172.027C397.419 172.027 402.372 161.769 410.133 165.85C417.894 169.932 412.724 196.468 412.724 196.468Z" fill="#EDEDED"/>
</g>
<path id="Vector_121" opacity="0.4" d="M32.586 465.997C46.443 465.997 57.6763 459.518 57.6763 451.525C57.6763 443.532 46.443 437.053 32.586 437.053C18.7291 437.053 7.49579 443.532 7.49579 451.525C7.49579 459.518 18.7291 465.997 32.586 465.997Z" fill="#D6D8E5"/>
<path id="Vector_122" d="M36.1651 463.311C50.0221 463.311 61.2554 456.832 61.2554 448.839C61.2554 440.847 50.0221 434.367 36.1651 434.367C22.3082 434.367 11.0749 440.847 11.0749 448.839C11.0749 456.832 22.3082 463.311 36.1651 463.311Z" fill="#D6D8E5"/>
<path id="Vector_123" d="M2.57892 399.344L11.3521 449.852H61.1951L69.7634 399.717L2.57892 399.344Z" fill="#D6D8E5"/>
<path id="Vector_124" d="M36.1652 418.113C54.7343 418.113 69.7876 409.429 69.7876 398.717C69.7876 388.004 54.7343 379.32 36.1652 379.32C17.596 379.32 2.54279 388.004 2.54279 398.717C2.54279 409.429 17.596 418.113 36.1652 418.113Z" fill="#E4E6EF"/>
<path id="Vector_125" d="M36.1531 413.84C27.9102 413.84 20.2337 412.022 14.4613 408.735C9.55649 405.906 6.7486 402.257 6.7486 398.718C6.7486 395.178 9.55649 391.494 14.4613 388.712C20.1734 385.413 27.85 383.607 36.1531 383.607C44.4563 383.607 52.0846 385.413 57.845 388.712C62.7377 391.542 65.5456 395.19 65.5456 398.718C65.5456 402.245 62.7377 405.942 57.845 408.735C52.0966 412.022 44.4081 413.84 36.1531 413.84Z" fill="#28221C"/>
<path id="Vector_126" d="M50.6144 383.439C50.6144 383.439 49.9516 342.503 36.1532 328.055C19.2817 342.888 21.957 383.535 21.957 383.535L36.4183 409.638C38.2982 409.71 50.6144 383.439 50.6144 383.439Z" fill="#99B524"/>
<path id="Vector_127" d="M36.37 409.613C36.37 409.613 28.7056 360.563 0.216934 342.189C0.204883 342.129 -4.89271 409.361 36.37 409.613Z" fill="#A6CE28"/>
<path id="Vector_128" d="M36.1531 409.613C36.1531 409.613 43.0704 361.454 70.8481 344.164C70.8601 344.164 77.4279 409.361 36.1531 409.613Z" fill="#A6CE28"/>
</g>
</g>
</g>
<defs>
<clipPath id="clip0">
<rect width="562" height="602" fill="white"/>
</clipPath>
</defs>
</svg>
