<svg width="602" height="570" viewBox="0 0 602 570" fill="none" xmlns="http://www.w3.org/2000/svg">
<g id="workspace_SVG" clip-path="url(#clip0)">
<g id="&#208;&#161;&#208;&#187;&#208;&#190;&#208;&#185; 2">
<g id="&#208;&#161;&#208;&#187;&#208;&#190;&#208;&#185; 1">
<g id="Laptop">
<path id="Vector" d="M532.843 391.149L258.09 232.3C254.237 230.069 251.119 224.101 251.119 218.953V6.12504C251.119 0.976763 254.237 -1.38638 258.09 0.844137L532.843 159.693C536.695 161.924 539.826 167.892 539.826 173.04V385.82C539.826 391.016 536.695 393.379 532.843 391.149Z" fill="#B1B4C4"/>
<path id="Vector_2" d="M534.263 393.344L537.309 391.595L535.985 382.553L534.263 393.344Z" fill="#B1B4C4"/>
<path id="Vector_3" d="M250.625 2.14601L253.623 0.421875L257.921 2.83325C257.921 2.83325 253.334 3.53254 253.225 3.49637C253.117 3.4602 250.625 2.14601 250.625 2.14601Z" fill="#B1B4C4"/>
<path id="Vector_4" d="M530.326 392.607L255.573 233.758C251.72 231.527 248.59 225.547 248.59 220.411V7.58315C248.59 2.43487 251.72 0.0717243 255.573 2.29019L530.326 161.151C534.179 163.37 537.309 169.35 537.309 174.498V387.326C537.309 392.474 534.179 394.837 530.326 392.607Z" fill="#E4E7F2"/>
<path id="Vector_5" d="M529.844 392.884L255.092 234.035C251.239 231.805 248.108 225.825 248.108 220.688V7.84863C248.108 2.71241 251.239 0.349268 255.092 2.56773L529.844 161.429C533.697 163.647 536.816 169.628 536.816 174.776V387.603C536.816 392.752 533.697 395.115 529.844 392.884Z" fill="#D6D8E5"/>
<path id="Vector_6" d="M533.047 379.948L251.636 217.229L251.781 8.70579C251.781 6.57172 253.274 5.70363 255.128 6.77669L529.881 165.626C530.853 166.262 531.663 167.119 532.244 168.126C532.826 169.133 533.162 170.263 533.228 171.425L533.047 379.948Z" fill="#1E212D"/>
<path id="Vector_7" opacity="0.5" d="M532.963 379.948L251.516 217.241L251.66 8.65696C251.66 6.52289 253.165 5.6548 255.007 6.72786L529.76 165.637C530.735 166.271 531.547 167.127 532.129 168.135C532.711 169.143 533.046 170.274 533.107 171.437L532.963 379.948Z" fill="url(#paint0_linear)"/>
<path id="Vector_8" opacity="0.4" d="M322.672 516.565L47.8592 357.704C44.0064 355.485 44.488 351.591 48.9428 349.011L232.998 242.597C237.453 240.029 244.183 239.752 248.036 241.982L522.789 400.831C526.642 403.062 526.16 406.944 521.705 409.524L337.65 515.938C333.207 518.506 326.465 518.783 322.672 516.565Z" fill="#D6D8E5"/>
<path id="Vector_9" d="M328.62 512.947L53.8673 354.098C50.0145 351.868 50.4961 347.986 54.9509 345.405L239.006 238.992C243.449 236.424 250.179 236.146 254.032 238.365L528.797 397.226C532.65 399.444 532.168 403.339 527.714 405.919L343.658 512.333C339.203 514.901 332.473 515.178 328.62 512.947Z" fill="#B1B4C4"/>
<path id="Vector_10" d="M51.2666 350.505V345.32L57.0819 347.756L51.2666 350.505Z" fill="#B1B4C4"/>
<path id="Vector_11" d="M531.398 401.095V396.031L527.087 397.514L529.941 401.71L531.398 401.095Z" fill="#B1B4C4"/>
<path id="Vector_12" d="M328.62 508.583L53.8673 349.734C50.0145 347.504 50.4961 343.609 54.9509 341.041L239.006 234.628C243.449 232.047 250.179 231.77 254.032 234.001L528.797 392.85C532.65 395.08 532.168 398.975 527.714 401.543L343.658 507.956C339.203 510.537 332.473 510.814 328.62 508.583Z" fill="#E4E7F2"/>
<path id="Vector_13" d="M328.62 507.907L53.8673 349.058C50.0145 346.827 50.4961 342.933 54.9509 340.365L239.006 233.903C243.449 231.323 250.179 231.045 254.032 233.276L528.797 392.173C532.65 394.404 532.168 398.298 527.714 400.866L343.658 507.28C339.203 509.86 332.473 510.138 328.62 507.907Z" fill="#D6D8E5"/>
<path id="Vector_14" d="M233.901 269.844L221.115 262.441C220.067 261.838 220.2 260.789 221.404 260.09L233.576 253.037C234.194 252.691 234.884 252.496 235.591 252.467C236.298 252.437 237.002 252.575 237.646 252.868L250.432 260.259C251.468 260.862 251.347 261.923 250.131 262.67L237.935 269.723C237.317 270.054 236.632 270.236 235.932 270.257C235.233 270.278 234.537 270.137 233.901 269.844Z" fill="#2B303F"/>
<path id="Vector_15" d="M252.01 280.311L239.223 272.92C238.176 272.317 238.308 271.256 239.512 270.508L251.721 263.443C252.338 263.098 253.028 262.902 253.735 262.873C254.442 262.844 255.146 262.981 255.79 263.274L268.589 270.677C269.636 271.28 269.504 272.329 268.3 273.028L256.091 280.081C255.476 280.437 254.786 280.642 254.078 280.682C253.369 280.722 252.66 280.595 252.01 280.311Z" fill="#2B303F"/>
<path id="Vector_16" d="M270.334 290.909L257.536 283.506C256.5 282.903 256.621 281.854 257.837 281.155L270.045 274.101C270.663 273.756 271.353 273.561 272.06 273.531C272.767 273.502 273.471 273.639 274.115 273.932L286.901 281.323C287.949 281.926 287.817 282.987 286.613 283.674L274.404 290.74C273.785 291.082 273.096 291.276 272.389 291.305C271.683 291.335 270.979 291.199 270.334 290.909Z" fill="#2B303F"/>
<path id="Vector_17" d="M288.238 301.252L275.439 293.862C274.404 293.259 274.524 292.198 275.74 291.51L287.937 284.445C288.557 284.1 289.249 283.904 289.957 283.875C290.666 283.846 291.372 283.983 292.018 284.276L304.805 291.679C305.852 292.282 305.72 293.331 304.516 294.091L292.307 301.144C291.685 301.48 290.992 301.665 290.285 301.684C289.579 301.702 288.877 301.555 288.238 301.252Z" fill="#2B303F"/>
<path id="Vector_18" d="M306.346 311.729L293.547 304.326C292.512 303.724 292.644 302.675 293.848 301.975L306.057 294.922C306.674 294.574 307.364 294.377 308.072 294.348C308.779 294.318 309.483 294.457 310.127 294.753L322.913 302.144C323.961 302.747 323.828 303.796 322.624 304.555L310.416 311.621C309.792 311.954 309.1 312.137 308.394 312.156C307.687 312.175 306.986 312.029 306.346 311.729Z" fill="#2B303F"/>
<path id="Vector_19" d="M324.454 322.195L311.668 314.804C310.62 314.201 310.753 313.14 311.957 312.393L324.165 305.34C324.783 304.994 325.473 304.799 326.18 304.769C326.887 304.74 327.591 304.878 328.235 305.171L341.033 312.562C342.069 313.164 341.936 314.225 340.732 314.973L328.524 322.026C327.906 322.372 327.216 322.567 326.509 322.596C325.802 322.626 325.098 322.488 324.454 322.195Z" fill="#2B303F"/>
<path id="Vector_20" d="M342.562 332.673L329.776 325.27C328.728 324.667 328.861 323.618 330.065 322.919L342.273 315.89C342.892 315.547 343.582 315.354 344.288 315.324C344.995 315.295 345.698 315.431 346.343 315.721L359.141 323.124C360.177 323.727 360.056 324.776 358.84 325.475L346.632 332.528C346.012 332.87 345.321 333.061 344.614 333.086C343.907 333.111 343.205 332.97 342.562 332.673Z" fill="#2B303F"/>
<path id="Vector_21" d="M360.67 343.139L347.884 335.736C346.836 335.133 346.969 334.084 348.173 333.385L360.381 326.332C360.999 325.986 361.689 325.791 362.396 325.762C363.103 325.732 363.807 325.87 364.451 326.163L377.25 333.554C378.297 334.157 378.165 335.218 376.961 335.965L364.812 342.97C364.185 343.326 363.482 343.526 362.762 343.556C362.041 343.585 361.325 343.442 360.67 343.139Z" fill="#2B303F"/>
<path id="Vector_22" d="M378.791 353.604L366.016 346.213C364.969 345.61 365.101 344.549 366.305 343.862L378.514 336.797C379.131 336.451 379.822 336.256 380.528 336.227C381.235 336.197 381.939 336.335 382.583 336.628L395.382 344.031C396.429 344.634 396.297 345.682 395.093 346.442L382.872 353.435C382.253 353.782 381.561 353.979 380.852 354.008C380.143 354.037 379.436 353.899 378.791 353.604Z" fill="#2B303F"/>
<path id="Vector_23" d="M396.899 364.118L384.076 356.679C383.041 356.076 383.161 355.027 384.377 354.328L396.598 347.238C397.218 346.893 397.91 346.697 398.619 346.668C399.327 346.639 400.033 346.776 400.679 347.069L413.466 354.472C414.513 355.075 414.381 356.136 413.177 356.884L400.932 363.913C400.322 364.258 399.64 364.456 398.94 364.492C398.24 364.528 397.541 364.399 396.899 364.118Z" fill="#2B303F"/>
<path id="Vector_24" d="M415.007 374.547L402.208 367.156C401.173 366.553 401.305 365.492 402.509 364.805L414.718 357.74C415.336 357.394 416.026 357.199 416.733 357.17C417.439 357.141 418.143 357.278 418.787 357.571L431.574 364.974C432.621 365.577 432.489 366.626 431.285 367.385L419.076 374.439C418.454 374.775 417.761 374.959 417.055 374.978C416.348 374.997 415.646 374.849 415.007 374.547Z" fill="#2B303F"/>
<path id="Vector_25" d="M433.115 385.024L420.329 377.621C419.281 377.018 419.414 375.969 420.618 375.27L432.826 368.217C433.443 367.869 434.133 367.672 434.841 367.643C435.548 367.613 436.252 367.752 436.896 368.048L449.682 375.439C450.73 376.042 450.597 377.091 449.393 377.79L437.185 384.855C436.566 385.198 435.876 385.392 435.17 385.421C434.464 385.45 433.76 385.315 433.115 385.024Z" fill="#2B303F"/>
<path id="Vector_26" d="M451.223 395.465L438.437 388.074C437.389 387.471 437.522 386.41 438.726 385.662L450.934 378.609C451.552 378.264 452.242 378.068 452.949 378.039C453.656 378.01 454.36 378.147 455.004 378.44L467.802 385.831C468.838 386.434 468.705 387.495 467.501 388.242L455.293 395.296C454.675 395.641 453.985 395.836 453.278 395.866C452.571 395.895 451.867 395.758 451.223 395.465Z" fill="#2B303F"/>
<path id="Vector_27" d="M478.061 411.007L456.545 398.564C455.498 397.961 455.63 396.912 456.834 396.213L469.043 389.148C469.661 388.805 470.351 388.611 471.057 388.582C471.764 388.553 472.467 388.689 473.112 388.979L494.628 401.422C495.675 402.024 495.543 403.086 494.339 403.773L482.13 410.838C481.512 411.184 480.822 411.379 480.115 411.408C479.409 411.437 478.705 411.3 478.061 411.007Z" fill="#2B303F"/>
<path id="Vector_28" d="M243.208 295.525L230.422 288.158C229.374 287.555 229.507 286.506 230.711 285.807L242.919 278.754C243.539 278.408 244.231 278.213 244.94 278.184C245.649 278.154 246.355 278.292 247.001 278.585L259.787 285.976C260.835 286.579 260.702 287.64 259.498 288.387L247.29 295.392C246.668 295.734 245.974 295.924 245.265 295.947C244.556 295.97 243.851 295.825 243.208 295.525Z" fill="#2B303F"/>
<path id="Vector_29" d="M261.353 306.016L248.566 298.613C247.519 298.01 247.651 296.961 248.855 296.262L261.064 289.209C261.681 288.863 262.371 288.668 263.078 288.639C263.785 288.609 264.489 288.747 265.133 289.04L277.932 296.431C278.967 297.034 278.847 298.095 277.631 298.782L265.434 305.847C264.814 306.193 264.122 306.388 263.413 306.417C262.705 306.447 261.999 306.309 261.353 306.016Z" fill="#2B303F"/>
<path id="Vector_30" d="M279.497 316.504L266.71 309.101C265.663 308.498 265.795 307.449 266.999 306.69L279.208 299.636C279.826 299.291 280.516 299.096 281.223 299.066C281.929 299.037 282.633 299.174 283.277 299.468L296.076 306.858C297.111 307.461 296.979 308.522 295.775 309.21L283.566 316.275C282.953 316.627 282.265 316.831 281.559 316.871C280.852 316.911 280.146 316.785 279.497 316.504Z" fill="#2B303F"/>
<path id="Vector_31" d="M297.641 326.995L284.843 319.592C283.807 318.989 283.94 317.94 285.144 317.241L297.388 310.188C298.005 309.839 298.695 309.643 299.403 309.613C300.11 309.584 300.814 309.723 301.458 310.019L314.244 317.41C315.292 318.013 315.159 319.061 313.955 319.761L301.747 326.826C301.124 327.175 300.427 327.372 299.714 327.401C299.001 327.43 298.291 327.291 297.641 326.995Z" fill="#2B303F"/>
<path id="Vector_32" d="M315.641 337.399L302.842 329.996C301.795 329.393 301.927 328.344 303.131 327.645L315.34 320.579C315.958 320.237 316.648 320.043 317.355 320.014C318.061 319.984 318.764 320.12 319.409 320.411L332.208 327.814C333.255 328.416 333.123 329.465 331.919 330.165L319.71 337.23C319.092 337.573 318.402 337.766 317.695 337.796C316.989 337.825 316.286 337.689 315.641 337.399Z" fill="#2B303F"/>
<path id="Vector_33" d="M333.773 347.889L320.987 340.486C319.939 339.883 320.071 338.834 321.275 338.135L333.508 331.07C334.127 330.727 334.817 330.533 335.523 330.504C336.229 330.475 336.933 330.611 337.578 330.901L350.364 338.304C351.4 338.907 351.279 339.956 350.063 340.715L337.867 347.768C337.241 348.108 336.545 348.296 335.834 348.317C335.123 348.338 334.417 348.191 333.773 347.889Z" fill="#2B303F"/>
<path id="Vector_34" d="M351.918 358.367L339.131 350.976C338.084 350.373 338.216 349.324 339.42 348.565L351.629 341.499C352.247 341.157 352.937 340.963 353.643 340.934C354.35 340.904 355.053 341.04 355.698 341.331L368.485 348.733C369.532 349.336 369.4 350.385 368.196 351.085L355.987 358.138C355.374 358.493 354.686 358.699 353.98 358.738C353.273 358.778 352.566 358.651 351.918 358.367Z" fill="#2B303F"/>
<path id="Vector_35" d="M370.062 368.856L357.263 361.465C356.228 360.862 356.348 359.801 357.564 359.114L369.761 352.06C370.381 351.715 371.073 351.52 371.781 351.49C372.49 351.461 373.196 351.598 373.842 351.892L386.629 359.294C387.676 359.897 387.544 360.946 386.34 361.646L374.131 368.699C373.513 369.042 372.822 369.236 372.115 369.263C371.408 369.29 370.705 369.151 370.062 368.856Z" fill="#2B303F"/>
<path id="Vector_36" d="M388.206 379.346L375.407 371.955C374.36 371.352 374.492 370.291 375.696 369.604L387.905 362.539C388.523 362.193 389.213 361.998 389.92 361.969C390.626 361.939 391.33 362.077 391.974 362.37L404.773 369.773C405.82 370.376 405.688 371.425 404.484 372.124L392.275 379.177C391.658 379.523 390.968 379.718 390.261 379.747C389.554 379.777 388.85 379.639 388.206 379.346Z" fill="#2B303F"/>
<path id="Vector_37" d="M406.338 389.834L393.551 382.443C392.504 381.84 392.636 380.779 393.84 380.032L406.049 372.978C406.667 372.633 407.357 372.437 408.064 372.408C408.771 372.379 409.474 372.516 410.118 372.809L422.917 380.212C423.952 380.815 423.832 381.864 422.616 382.563L410.419 389.617C409.803 389.97 409.113 390.174 408.404 390.211C407.696 390.249 406.988 390.12 406.338 389.834Z" fill="#2B303F"/>
<path id="Vector_38" d="M424.482 400.289L411.696 392.898C410.649 392.295 410.781 391.234 411.985 390.487L424.193 383.433C424.811 383.088 425.501 382.893 426.208 382.863C426.915 382.834 427.619 382.971 428.263 383.264L441.049 390.655C442.097 391.27 441.965 392.319 440.761 393.067L428.552 400.12C427.934 400.465 427.244 400.661 426.537 400.69C425.83 400.719 425.127 400.582 424.482 400.289Z" fill="#2B303F"/>
<path id="Vector_39" d="M442.627 410.814L429.828 403.423C428.793 402.82 428.913 401.759 430.129 401.012L442.338 393.959C442.955 393.613 443.646 393.418 444.352 393.389C445.059 393.359 445.763 393.497 446.407 393.79L459.194 401.181C460.241 401.784 460.109 402.845 458.905 403.592L446.684 410.645C446.068 410.989 445.38 411.183 444.675 411.212C443.971 411.242 443.269 411.105 442.627 410.814Z" fill="#2B303F"/>
<path id="Vector_40" d="M225.076 285.036L203.56 272.593C202.513 271.99 202.645 270.941 203.849 270.182L216.058 263.129C216.676 262.783 217.366 262.588 218.073 262.559C218.78 262.529 219.483 262.667 220.128 262.96L241.643 275.39C242.69 275.993 242.558 277.054 241.354 277.802L229.145 284.855C228.529 285.202 227.839 285.4 227.132 285.431C226.425 285.463 225.721 285.327 225.076 285.036Z" fill="#2B303F"/>
<path id="Vector_41" d="M477.182 411.682L464.395 404.28C463.808 403.979 463.158 403.822 462.499 403.822C461.84 403.822 461.19 403.979 460.603 404.28L447.696 411.743C447.485 411.839 447.307 411.993 447.182 412.188C447.057 412.382 446.991 412.609 446.991 412.84C446.991 413.071 447.057 413.298 447.182 413.492C447.307 413.687 447.485 413.841 447.696 413.937L448.707 414.516C448.917 414.589 449.098 414.726 449.227 414.908C449.355 415.089 449.424 415.306 449.424 415.529C449.424 415.751 449.355 415.968 449.227 416.149C449.098 416.331 448.917 416.468 448.707 416.541L435.042 424.402C433.994 425.017 433.982 425.994 435.042 426.597L443.181 431.311C443.769 431.608 444.418 431.762 445.077 431.762C445.736 431.762 446.385 431.608 446.973 431.311L459.736 423.932L462.372 422.413L464.275 421.304L466.189 420.207L477.182 413.853C478.217 413.262 478.229 412.346 477.182 411.682Z" fill="#2B303F"/>
<path id="Vector_42" d="M163.744 310.477L150.946 303.086C149.91 302.483 150.031 301.422 151.235 300.735L163.443 293.67C164.063 293.324 164.755 293.129 165.464 293.1C166.173 293.07 166.879 293.208 167.525 293.501L180.311 300.904C181.359 301.507 181.226 302.556 180.022 303.315L167.814 310.369C167.191 310.704 166.499 310.889 165.792 310.908C165.085 310.927 164.384 310.779 163.744 310.477Z" fill="#2B303F"/>
<path id="Vector_43" d="M181.804 320.917L169.03 313.478C167.982 312.876 168.115 311.814 169.319 311.067L181.527 304.002C182.145 303.656 182.835 303.461 183.542 303.432C184.249 303.402 184.953 303.54 185.597 303.833L198.395 311.236C199.443 311.839 199.31 312.888 198.106 313.587L185.898 320.712C185.28 321.068 184.587 321.271 183.876 321.307C183.164 321.343 182.454 321.209 181.804 320.917Z" fill="#2B303F"/>
<path id="Vector_44" d="M199.864 331.358L187.078 323.967C186.03 323.364 186.163 322.303 187.367 321.616L199.575 314.55C200.193 314.205 200.883 314.01 201.59 313.98C202.297 313.951 203.001 314.089 203.645 314.382L216.443 321.785C217.491 322.387 217.358 323.436 216.154 324.136L203.946 331.189C203.326 331.535 202.634 331.73 201.925 331.759C201.216 331.788 200.51 331.651 199.864 331.358Z" fill="#2B303F"/>
<path id="Vector_45" d="M353.675 420.278L340.877 412.875C339.829 412.272 339.962 411.223 341.166 410.524L353.374 403.47C353.992 403.125 354.682 402.93 355.389 402.9C356.096 402.871 356.8 403.008 357.444 403.302L370.242 410.692C371.29 411.295 371.157 412.356 369.953 413.044L357.745 420.109C357.127 420.454 356.437 420.65 355.73 420.679C355.023 420.708 354.319 420.571 353.675 420.278Z" fill="#2B303F"/>
<path id="Vector_46" d="M371.723 430.719L358.937 423.316C357.889 422.713 358.022 421.664 359.226 420.905L371.434 413.851C372.052 413.506 372.742 413.311 373.449 413.281C374.156 413.252 374.86 413.389 375.504 413.682L388.302 421.073C389.35 421.676 389.217 422.737 388.013 423.424L375.805 430.49C375.19 430.845 374.5 431.051 373.791 431.09C373.082 431.13 372.374 431.003 371.723 430.719Z" fill="#2B303F"/>
<path id="Vector_47" d="M389.783 441.161L376.997 433.758C375.949 433.155 376.082 432.106 377.286 431.407L389.494 424.402C390.112 424.057 390.802 423.861 391.509 423.832C392.216 423.803 392.92 423.94 393.564 424.233L406.362 431.636C407.398 432.239 407.277 433.3 406.061 433.987L393.865 441.053C393.239 441.386 392.545 441.569 391.837 441.588C391.128 441.607 390.426 441.461 389.783 441.161Z" fill="#2B303F"/>
<path id="Vector_48" d="M407.843 451.602L395.057 444.199C394.009 443.597 394.142 442.548 395.346 441.848L407.554 434.795C408.171 434.447 408.861 434.25 409.569 434.221C410.276 434.191 410.981 434.33 411.624 434.626L424.422 442.017C425.458 442.62 425.325 443.669 424.121 444.368L411.913 451.434C411.294 451.776 410.604 451.97 409.898 451.999C409.192 452.029 408.488 451.893 407.843 451.602Z" fill="#2B303F"/>
<path id="Vector_49" d="M222.596 344.489L205.15 334.41C204.102 333.807 204.235 332.746 205.439 331.998L217.647 324.945C218.265 324.6 218.955 324.404 219.662 324.375C220.369 324.346 221.073 324.483 221.717 324.776L239.163 334.868C240.21 335.471 240.078 336.52 238.874 337.279L226.665 344.332C226.047 344.676 225.356 344.869 224.649 344.896C223.942 344.924 223.239 344.784 222.596 344.489Z" fill="#2B303F"/>
<path id="Vector_50" d="M335.615 409.837L318.169 399.746C317.122 399.143 317.254 398.094 318.458 397.395L330.667 390.341C331.285 389.996 331.975 389.801 332.682 389.771C333.388 389.742 334.092 389.88 334.736 390.173L352.182 400.288C353.23 400.891 353.097 401.952 351.893 402.639L339.685 409.705C339.064 410.045 338.373 410.234 337.666 410.257C336.959 410.28 336.257 410.136 335.615 409.837Z" fill="#2B303F"/>
<path id="Vector_51" d="M312.896 396.672L227.857 347.504C226.81 346.901 226.942 345.84 228.146 345.153L240.355 338.088C240.973 337.742 241.663 337.547 242.37 337.518C243.076 337.488 243.78 337.626 244.424 337.919L329.475 387.087C330.522 387.689 330.39 388.75 329.186 389.438L316.977 396.503C316.358 396.849 315.666 397.044 314.957 397.073C314.248 397.103 313.542 396.965 312.896 396.672Z" fill="#2B303F"/>
<path id="Vector_52" d="M230.59 308.524L217.792 301.121C216.756 300.518 216.889 299.469 218.093 298.77L230.301 291.777C230.919 291.432 231.609 291.236 232.316 291.207C233.023 291.178 233.727 291.315 234.371 291.608L247.157 298.999C248.205 299.602 248.072 300.663 246.868 301.35L234.66 308.416C234.037 308.751 233.345 308.936 232.638 308.955C231.931 308.974 231.23 308.826 230.59 308.524Z" fill="#2B303F"/>
<path id="Vector_53" d="M248.674 318.977L235.888 311.586C234.84 310.983 234.973 309.922 236.177 309.235L248.385 302.17C249.003 301.824 249.693 301.629 250.4 301.6C251.107 301.57 251.811 301.708 252.455 302.001L265.253 309.404C266.301 310.007 266.169 311.056 264.965 311.755L252.756 318.808C252.136 319.154 251.444 319.349 250.735 319.378C250.026 319.408 249.321 319.27 248.674 318.977Z" fill="#2B303F"/>
<path id="Vector_54" d="M266.771 329.441L253.972 322.039C252.937 321.436 253.069 320.387 254.273 319.627L266.482 312.574C267.099 312.228 267.789 312.033 268.496 312.004C269.203 311.975 269.907 312.112 270.551 312.405L283.338 319.796C284.385 320.399 284.253 321.46 283.049 322.147L270.9 329.273C270.275 329.628 269.574 329.829 268.856 329.858C268.138 329.887 267.423 329.745 266.771 329.441Z" fill="#2B303F"/>
<path id="Vector_55" d="M284.855 339.896L272.104 332.505C271.057 331.902 271.189 330.841 272.393 330.154L284.566 323.125C285.183 322.779 285.873 322.584 286.58 322.555C287.287 322.525 287.991 322.663 288.635 322.956L301.434 330.359C302.469 330.962 302.349 332.011 301.145 332.71L288.96 339.727C288.337 340.076 287.641 340.274 286.928 340.303C286.214 340.333 285.504 340.193 284.855 339.896Z" fill="#2B303F"/>
<path id="Vector_56" d="M302.951 350.36L290.164 342.957C289.129 342.354 289.261 341.305 290.465 340.606L302.674 333.552C303.291 333.207 303.982 333.012 304.688 332.982C305.395 332.953 306.099 333.091 306.743 333.384L319.53 340.774C320.577 341.377 320.445 342.426 319.241 343.126L307.02 350.191C306.402 350.534 305.712 350.727 305.005 350.757C304.299 350.786 303.595 350.65 302.951 350.36Z" fill="#2B303F"/>
<path id="Vector_57" d="M321.035 360.814L308.224 353.423C307.177 352.82 307.309 351.759 308.513 351.012L320.722 343.959C321.34 343.613 322.03 343.418 322.736 343.389C323.443 343.359 324.147 343.497 324.791 343.79L337.59 351.181C338.625 351.796 338.505 352.845 337.289 353.592L325.08 360.645C324.465 360.985 323.779 361.177 323.077 361.206C322.375 361.236 321.676 361.101 321.035 360.814Z" fill="#2B303F"/>
<path id="Vector_58" d="M339.131 371.278L326.284 363.876C325.249 363.273 325.369 362.224 326.585 361.524L338.842 354.471C339.459 354.124 340.148 353.926 340.855 353.895C341.562 353.864 342.266 353.999 342.911 354.29L355.698 361.705C356.745 362.308 356.613 363.357 355.409 364.056L343.2 371.122C342.581 371.463 341.891 371.654 341.184 371.681C340.478 371.709 339.775 371.571 339.131 371.278Z" fill="#2B303F"/>
<path id="Vector_59" d="M357.215 381.732L344.428 374.341C343.381 373.738 343.513 372.677 344.717 371.93L356.926 364.877C357.544 364.531 358.234 364.336 358.941 364.307C359.647 364.277 360.351 364.415 360.995 364.708L373.794 372.099C374.829 372.702 374.709 373.763 373.493 374.51L361.296 381.563C360.677 381.909 359.985 382.104 359.276 382.134C358.567 382.163 357.861 382.025 357.215 381.732Z" fill="#2B303F"/>
<path id="Vector_60" d="M375.311 392.198L362.512 384.795C361.477 384.192 361.597 383.143 362.813 382.444L375.01 375.378C375.631 375.036 376.323 374.842 377.031 374.812C377.739 374.783 378.445 374.919 379.092 375.21L391.878 382.613C392.926 383.215 392.793 384.264 391.589 385.024L379.381 392.077C378.759 392.415 378.067 392.602 377.36 392.623C376.653 392.644 375.951 392.498 375.311 392.198Z" fill="#2B303F"/>
<path id="Vector_61" d="M393.395 402.7L380.609 395.309C379.561 394.694 379.694 393.645 380.898 392.897L393.106 385.82C393.724 385.475 394.414 385.279 395.121 385.25C395.828 385.221 396.532 385.358 397.176 385.651L409.974 393.054C411.01 393.657 410.877 394.718 409.673 395.465L397.465 402.519C396.848 402.866 396.158 403.063 395.451 403.095C394.744 403.126 394.04 402.991 393.395 402.7Z" fill="#2B303F"/>
<path id="Vector_62" d="M411.492 413.104L398.693 405.713C397.658 405.11 397.778 404.061 398.982 403.362L411.191 396.296C411.811 395.953 412.503 395.76 413.211 395.73C413.92 395.701 414.625 395.837 415.272 396.128L428.059 403.53C429.106 404.133 428.974 405.182 427.77 405.882L415.561 412.935C414.943 413.28 414.253 413.476 413.546 413.505C412.84 413.534 412.136 413.397 411.492 413.104Z" fill="#2B303F"/>
<path id="Vector_63" d="M429.575 423.569L416.789 416.166C415.741 415.563 415.874 414.514 417.078 413.815L429.286 406.761C429.904 406.416 430.594 406.221 431.301 406.191C432.008 406.162 432.712 406.299 433.356 406.593L446.154 413.983C447.19 414.586 447.057 415.647 445.853 416.335L433.645 423.4C433.027 423.745 432.337 423.941 431.63 423.97C430.923 423.999 430.219 423.862 429.575 423.569Z" fill="#2B303F"/>
<path id="Vector_64" d="M212.494 298.057L186.006 282.769C184.959 282.166 185.091 281.105 186.295 280.358L198.504 273.304C199.121 272.959 199.812 272.764 200.518 272.734C201.225 272.705 201.929 272.842 202.573 273.136L229.061 288.436C230.109 289.039 229.976 290.088 228.772 290.787L216.564 297.84C215.949 298.191 215.261 298.394 214.555 298.432C213.848 298.469 213.143 298.341 212.494 298.057Z" fill="#2B303F"/>
<path id="Vector_65" d="M204.054 313.478L191.268 306.087C190.22 305.472 190.353 304.424 191.557 303.676L203.765 296.623C204.383 296.277 205.073 296.082 205.78 296.053C206.487 296.023 207.191 296.161 207.835 296.454L220.633 303.845C221.669 304.448 221.536 305.509 220.332 306.256L208.124 313.309C207.506 313.655 206.816 313.85 206.109 313.879C205.402 313.909 204.698 313.771 204.054 313.478Z" fill="#2B303F"/>
<path id="Vector_66" d="M222.138 323.932L209.352 316.541C208.304 315.938 208.437 314.877 209.641 314.129L221.849 307.064C222.467 306.719 223.157 306.523 223.864 306.494C224.571 306.465 225.275 306.602 225.919 306.895L238.717 314.298C239.765 314.901 239.632 315.95 238.428 316.649L226.22 323.703C225.605 324.058 224.915 324.264 224.206 324.303C223.497 324.343 222.789 324.216 222.138 323.932Z" fill="#2B303F"/>
<path id="Vector_67" d="M240.234 334.398L227.436 326.995C226.388 326.392 226.521 325.343 227.725 324.644L239.933 317.59C240.552 317.243 241.244 317.046 241.953 317.014C242.661 316.983 243.368 317.118 244.015 317.41L256.801 324.813C257.849 325.415 257.716 326.464 256.512 327.224L244.304 334.289C243.68 334.622 242.988 334.806 242.282 334.825C241.575 334.843 240.874 334.697 240.234 334.398Z" fill="#2B303F"/>
<path id="Vector_68" d="M258.318 344.826L245.52 337.424C244.484 336.821 244.617 335.772 245.821 335.072L258.029 328.019C258.647 327.674 259.337 327.479 260.044 327.449C260.751 327.42 261.455 327.557 262.099 327.85L274.885 335.241C275.933 335.844 275.801 336.905 274.597 337.653L262.388 344.706C261.766 345.044 261.074 345.231 260.368 345.252C259.661 345.273 258.959 345.127 258.318 344.826Z" fill="#2B303F"/>
<path id="Vector_69" d="M276.402 355.303L263.676 347.912C262.629 347.309 262.761 346.248 263.965 345.561L276.174 338.496C276.791 338.15 277.482 337.955 278.188 337.926C278.895 337.896 279.599 338.034 280.243 338.327L293.042 345.73C294.077 346.333 293.945 347.382 292.741 348.081L280.532 355.134C279.907 355.49 279.206 355.69 278.488 355.72C277.769 355.749 277.055 355.606 276.402 355.303Z" fill="#2B303F"/>
<path id="Vector_70" d="M294.487 365.77L281.736 358.367C280.689 357.764 280.821 356.715 282.025 355.955L294.234 348.89C294.852 348.547 295.542 348.354 296.249 348.324C296.955 348.295 297.658 348.431 298.303 348.721L311.102 356.124C312.137 356.727 312.017 357.776 310.801 358.475L298.592 365.601C297.968 365.947 297.272 366.143 296.559 366.173C295.847 366.202 295.137 366.064 294.487 365.77Z" fill="#2B303F"/>
<path id="Vector_71" d="M312.583 376.175L299.796 368.82C298.749 368.217 298.881 367.168 300.085 366.469L312.294 359.416C312.912 359.07 313.602 358.875 314.309 358.846C315.015 358.816 315.719 358.954 316.363 359.247L329.162 366.638C330.209 367.241 330.077 368.302 328.873 369.049L316.652 376.054C316.031 376.392 315.339 376.579 314.632 376.6C313.925 376.621 313.223 376.475 312.583 376.175Z" fill="#2B303F"/>
<path id="Vector_72" d="M330.667 386.676L317.856 379.285C316.821 378.682 316.941 377.621 318.157 376.873L330.354 369.82C330.974 369.475 331.666 369.279 332.374 369.25C333.083 369.221 333.789 369.358 334.435 369.651L347.222 377.042C348.269 377.657 348.137 378.706 346.933 379.454L334.712 386.507C334.098 386.848 333.412 387.042 332.709 387.071C332.007 387.1 331.308 386.965 330.667 386.676Z" fill="#2B303F"/>
<path id="Vector_73" d="M348.751 397.129L335.916 389.738C334.869 389.135 335.001 388.086 336.205 387.387L348.414 380.322C349.032 379.979 349.722 379.785 350.429 379.756C351.135 379.727 351.838 379.862 352.483 380.153L365.27 387.556C366.317 388.159 366.185 389.207 364.981 389.907L352.772 396.96C352.162 397.3 351.48 397.493 350.782 397.522C350.083 397.552 349.388 397.417 348.751 397.129Z" fill="#2B303F"/>
<path id="Vector_74" d="M366.835 407.594L354.049 400.191C353.001 399.588 353.133 398.539 354.337 397.84L366.546 390.787C367.164 390.441 367.854 390.246 368.561 390.217C369.268 390.187 369.971 390.325 370.616 390.618L383.414 398.009C384.45 398.612 384.317 399.673 383.113 400.36L370.905 407.425C370.287 407.771 369.597 407.966 368.89 407.995C368.183 408.025 367.479 407.887 366.835 407.594Z" fill="#2B303F"/>
<path id="Vector_75" d="M384.919 418.049L372.132 410.658C371.085 410.055 371.217 408.994 372.421 408.246L384.63 401.193C385.248 400.848 385.938 400.652 386.645 400.623C387.352 400.594 388.055 400.731 388.7 401.024L401.498 408.415C402.545 409.018 402.413 410.079 401.209 410.826L389.001 417.88C388.381 418.225 387.689 418.421 386.98 418.45C386.271 418.479 385.565 418.342 384.919 418.049Z" fill="#2B303F"/>
<path id="Vector_76" d="M425.397 441.449L390.216 421.109C389.169 420.506 389.301 419.445 390.505 418.758L402.714 411.693C403.335 411.35 404.027 411.156 404.735 411.127C405.443 411.098 406.149 411.234 406.796 411.524L441.976 431.864C443.012 432.467 442.879 433.528 441.675 434.275L429.467 441.28C428.849 441.626 428.159 441.821 427.452 441.85C426.745 441.88 426.041 441.742 425.397 441.449Z" fill="#2B303F"/>
<path id="Vector_77" d="M185.97 303.026L168.56 292.983C167.513 292.38 167.645 291.331 168.849 290.571L181.058 283.518C181.677 283.171 182.368 282.973 183.077 282.942C183.786 282.911 184.492 283.046 185.139 283.337L202.573 293.429C203.621 294.032 203.488 295.081 202.284 295.84L190.076 302.906C189.449 303.247 188.75 303.435 188.037 303.456C187.324 303.477 186.616 303.33 185.97 303.026Z" fill="#2B303F"/>
<path id="Vector_78" d="M496.229 400.493L239.355 251.988C238.308 251.385 238.44 250.324 239.644 249.577L245.749 246.056C246.366 245.711 247.056 245.516 247.763 245.486C248.47 245.457 249.174 245.594 249.818 245.888L506.692 394.452C507.739 395.055 507.607 396.104 506.403 396.803L500.298 400.288C499.684 400.639 498.995 400.84 498.288 400.876C497.581 400.912 496.876 400.78 496.229 400.493Z" fill="#2B303F"/>
<path id="Vector_79" d="M337.12 417.385C336.758 418.184 336.134 418.835 335.35 419.229L264.663 460.102C263.473 460.766 262.143 461.14 260.782 461.195C259.42 461.249 258.065 460.982 256.825 460.416L136.052 390.643C135.518 390.365 135.094 389.915 134.848 389.365C134.403 388.291 135.017 387.038 136.618 386.109L207.305 345.236C208.495 344.574 209.824 344.199 211.185 344.142C212.546 344.086 213.902 344.349 215.143 344.911L335.916 414.756C336.41 414.963 336.807 415.348 337.03 415.835C337.254 416.322 337.286 416.875 337.12 417.385Z" fill="#B1B4C4"/>
<path id="Vector_80" d="M337.12 417.384C336.758 418.184 336.134 418.835 335.35 419.229L264.663 460.101C263.473 460.765 262.143 461.139 260.782 461.194C259.42 461.248 258.065 460.981 256.825 460.415L136.052 390.642C135.518 390.364 135.094 389.914 134.848 389.364C135.217 388.569 135.84 387.92 136.618 387.519L207.305 346.658C208.495 345.995 209.824 345.621 211.185 345.564C212.546 345.508 213.902 345.771 215.143 346.333L335.916 416.118C336.448 416.393 336.872 416.839 337.12 417.384Z" fill="#C3C6D1"/>
<path id="Vector_81" d="M515.782 389.231L258.86 240.715C258.284 240.303 257.813 239.76 257.484 239.132C257.156 238.504 256.98 237.807 256.97 237.098V234.084C256.97 232.685 257.813 232.046 258.86 232.649L515.782 381.165C516.358 381.577 516.829 382.12 517.158 382.748C517.486 383.376 517.662 384.073 517.672 384.782V387.808C517.72 389.195 516.829 389.834 515.782 389.231Z" fill="#2B303F"/>
</g>
<g id="Mobile">
<path id="Vector_82" opacity="0.4" d="M462.023 568.444L414.621 541.039C410.612 538.712 411.118 534.661 415.753 531.984L530.23 465.792C534.865 463.115 541.884 462.826 545.882 465.141L593.271 492.546C597.292 494.861 596.787 498.924 592.151 501.601L477.663 567.793C473.04 570.47 466.032 570.759 462.023 568.444Z" fill="#D6D8E5"/>
<path id="Vector_83" d="M468.019 564.827L420.63 537.433C416.62 535.106 417.114 531.055 421.749 528.379L536.238 462.187C540.873 459.51 547.88 459.221 551.89 461.536L599.279 488.941C603.288 491.256 602.795 495.307 598.159 497.995L483.671 564.176C479.048 566.864 472.04 567.154 468.019 564.827Z" fill="#B1B4C4"/>
<path id="Vector_84" d="M417.92 533.443V529.066L423.037 531.008L417.92 533.443Z" fill="#B1B4C4"/>
<path id="Vector_85" d="M602 492.727V488.52L597.93 491.148L602 492.727Z" fill="#B1B4C4"/>
<path id="Vector_86" d="M468.019 561.138L420.63 533.732C416.62 531.417 417.114 527.354 421.749 524.678L536.238 458.485C540.873 455.809 547.88 455.519 551.89 457.834L599.279 485.24C603.288 487.555 602.795 491.618 598.159 494.294L483.671 560.486C479.048 563.163 472.04 563.452 468.019 561.138Z" fill="#616E84"/>
<path id="Vector_87" d="M426.35 539.351C426.592 539.212 426.591 538.757 426.349 538.336C426.106 537.915 425.713 537.687 425.471 537.827C425.229 537.967 425.23 538.421 425.473 538.842C425.715 539.263 426.108 539.491 426.35 539.351Z" fill="#757B89"/>
<path id="Vector_88" d="M428.622 540.687C428.864 540.547 428.863 540.093 428.62 539.672C428.378 539.251 427.985 539.023 427.743 539.163C427.501 539.303 427.502 539.757 427.745 540.178C427.987 540.599 428.38 540.827 428.622 540.687Z" fill="#757B89"/>
<path id="Vector_89" d="M430.91 541.994C431.152 541.854 431.151 541.399 430.909 540.979C430.666 540.558 430.273 540.33 430.031 540.469C429.789 540.609 429.79 541.064 430.033 541.485C430.275 541.906 430.668 542.134 430.91 541.994Z" fill="#757B89"/>
<path id="Vector_90" d="M433.187 543.32C433.429 543.18 433.429 542.726 433.186 542.305C432.943 541.884 432.55 541.656 432.309 541.796C432.067 541.935 432.067 542.39 432.31 542.811C432.553 543.232 432.946 543.46 433.187 543.32Z" fill="#757B89"/>
<path id="Vector_91" d="M454.575 556.852C454.818 556.713 454.818 556.256 454.575 555.834C454.333 555.411 453.939 555.181 453.696 555.321C453.453 555.461 453.453 555.917 453.695 556.34C453.938 556.763 454.332 556.992 454.575 556.852Z" fill="#757B89"/>
<path id="Vector_92" d="M455.065 555.955C455.307 555.815 455.307 555.36 455.064 554.939C454.821 554.518 454.428 554.291 454.186 554.43C453.945 554.57 453.945 555.025 454.188 555.446C454.431 555.867 454.824 556.095 455.065 555.955Z" fill="#757B89"/>
<path id="Vector_93" d="M457.331 557.279C457.573 557.139 457.572 556.685 457.329 556.264C457.087 555.843 456.694 555.615 456.452 555.755C456.21 555.894 456.211 556.349 456.454 556.77C456.696 557.191 457.089 557.419 457.331 557.279Z" fill="#757B89"/>
<path id="Vector_94" d="M459.615 558.603C459.857 558.463 459.856 558.009 459.613 557.588C459.37 557.167 458.978 556.939 458.736 557.079C458.494 557.219 458.495 557.673 458.737 558.094C458.98 558.515 459.373 558.743 459.615 558.603Z" fill="#757B89"/>
<path id="Vector_95" d="M445.685 550.998L439.46 547.381C439.244 547.221 439.068 547.015 438.945 546.776C438.821 546.538 438.755 546.274 438.75 546.006C438.75 545.476 439.075 545.234 439.46 545.463L445.733 549.081C445.952 549.237 446.132 549.443 446.257 549.682C446.383 549.92 446.45 550.185 446.455 550.455C446.407 550.998 446.082 551.203 445.685 550.998Z" fill="#757B89"/>
<path id="Vector_96" d="M587.66 503.121L581.833 506.497C581.46 506.714 581.159 506.497 581.159 505.99C581.163 505.739 581.227 505.493 581.344 505.271C581.461 505.049 581.628 504.858 581.833 504.712L587.66 501.336C588.021 501.131 588.323 501.336 588.323 501.843C588.319 502.093 588.258 502.339 588.143 502.56C588.028 502.782 587.863 502.974 587.66 503.121Z" fill="#757B89"/>
<path id="Vector_97" d="M578.727 508.281L572.899 511.657C572.526 511.874 572.237 511.657 572.237 511.151C572.24 510.9 572.301 510.654 572.416 510.432C572.531 510.21 572.697 510.018 572.899 509.873L578.727 506.497C579.1 506.292 579.401 506.497 579.401 507.003C579.398 507.254 579.336 507.502 579.218 507.724C579.101 507.946 578.933 508.137 578.727 508.281Z" fill="#757B89"/>
<path id="Vector_98" d="M468.019 560.463L420.63 533.057C416.62 530.742 417.114 526.691 421.749 524.003L536.238 457.823C540.873 455.134 547.88 454.844 551.89 457.171L599.279 484.565C603.288 486.892 602.795 490.943 598.159 493.619L483.671 559.811C479.048 562.488 472.04 562.777 468.019 560.463Z" fill="#20232D"/>
<path id="Vector_99" d="M594.198 485.662L575.705 474.968C574.477 475.592 573.12 475.917 571.743 475.917C570.367 475.917 569.01 475.592 567.782 474.968C565.603 473.762 565.603 471.652 567.782 470.386L549.277 459.692C547.701 458.889 545.958 458.471 544.19 458.471C542.422 458.471 540.679 458.889 539.103 459.692L427.613 524.148C424.795 525.775 424.795 528.416 427.613 530.031L472.534 556.002C474.11 556.804 475.853 557.223 477.621 557.223C479.389 557.223 481.132 556.804 482.708 556.002L594.198 491.546C597.015 489.918 597.015 487.29 594.198 485.662Z" fill="#2B303F"/>
<path id="Vector_100" opacity="0.5" d="M594.198 485.662L575.705 474.968C574.477 475.592 573.12 475.917 571.743 475.917C570.367 475.917 569.01 475.592 567.782 474.968C565.603 473.762 565.603 471.652 567.782 470.386L549.277 459.692C547.701 458.889 545.958 458.471 544.19 458.471C542.422 458.471 540.679 458.889 539.103 459.692L427.613 524.148C424.795 525.775 424.795 528.416 427.613 530.031L472.534 556.002C474.11 556.804 475.853 557.223 477.621 557.223C479.389 557.223 481.132 556.804 482.708 556.002L594.198 491.546C597.015 489.918 597.015 487.29 594.198 485.662Z" fill="url(#paint1_linear)"/>
<path id="Vector_101" d="M570.479 474.63C571.65 474.63 572.598 474.079 572.598 473.4C572.598 472.721 571.65 472.17 570.479 472.17C569.309 472.17 568.36 472.721 568.36 473.4C568.36 474.079 569.309 474.63 570.479 474.63Z" fill="#2B303F"/>
<path id="Vector_102" opacity="0.1" d="M569.853 473.763C569.504 473.57 569.504 473.244 569.853 473.039C570.048 472.938 570.265 472.885 570.485 472.885C570.705 472.885 570.922 472.938 571.117 473.039C571.191 473.067 571.255 473.116 571.3 473.181C571.344 473.245 571.369 473.322 571.369 473.401C571.369 473.48 571.344 473.557 571.3 473.621C571.255 473.686 571.191 473.735 571.117 473.763C570.922 473.864 570.705 473.917 570.485 473.917C570.265 473.917 570.048 473.864 569.853 473.763Z" fill="white"/>
</g>
<g id="Watch">
<path id="Vector_103" d="M67.4844 268.785L54.5775 261.322C50.5682 259.007 51.0738 254.944 55.7092 252.267L70.9037 243.478C75.5391 240.801 82.5464 240.512 86.5557 242.827L99.4626 250.29C103.484 252.617 102.978 256.668 98.3429 259.344L83.1484 268.134C78.513 270.811 71.4937 271.1 67.4844 268.785Z" fill="#B1B4C4"/>
<path id="Vector_104" d="M102.172 253.871C102.172 253.762 102.172 249.627 102.172 249.627L97.7891 251.99L102.172 253.871Z" fill="#B1B4C4"/>
<path id="Vector_105" d="M140.543 224.368V222.535L137.629 223.451L140.543 224.368Z" fill="#B1B4C4"/>
<path id="Vector_106" opacity="0.4" d="M70.1813 269.846C69.4654 269.649 68.7651 269.4 68.0863 269.099L59.2249 261.864L61.5365 259.634L53.1085 258.549C53.1067 259.176 52.9576 259.795 52.6731 260.354C52.3887 260.913 51.9769 261.398 51.4711 261.768L3.98535 287.413C-0.505572 290.005 -1.63733 294.828 2.86563 297.432C6.86291 300.229 13.7618 300 18.2648 297.432L67.689 271.281H67.7853C69.4227 270.34 73.2515 270.413 73.2515 270.413C72.2146 270.306 71.188 270.116 70.1813 269.846ZM48.6899 272.812C48.8542 272.87 48.9965 272.978 49.0972 273.121C49.1978 273.263 49.2518 273.433 49.2518 273.608C49.2518 273.782 49.1978 273.953 49.0972 274.095C48.9965 274.238 48.8542 274.345 48.6899 274.404C48.2635 274.624 47.7909 274.738 47.3113 274.738C46.8317 274.738 46.359 274.624 45.9327 274.404C45.7624 274.352 45.6133 274.246 45.5074 274.103C45.4014 273.96 45.3442 273.786 45.3442 273.608C45.3442 273.43 45.4014 273.256 45.5074 273.113C45.6133 272.969 45.7624 272.864 45.9327 272.812C46.359 272.592 46.8317 272.477 47.3113 272.477C47.7909 272.477 48.2635 272.592 48.6899 272.812ZM44.3073 275.344C44.4717 275.402 44.6139 275.51 44.7146 275.652C44.8152 275.795 44.8693 275.965 44.8693 276.14C44.8693 276.314 44.8152 276.485 44.7146 276.627C44.6139 276.77 44.4717 276.877 44.3073 276.936C43.881 277.155 43.4083 277.27 42.9287 277.27C42.4491 277.27 41.9765 277.155 41.5501 276.936C41.3799 276.884 41.2308 276.778 41.1248 276.635C41.0189 276.492 40.9617 276.318 40.9617 276.14C40.9617 275.961 41.0189 275.788 41.1248 275.645C41.2308 275.501 41.3799 275.396 41.5501 275.344C41.9765 275.124 42.4491 275.009 42.9287 275.009C43.4083 275.009 43.881 275.124 44.3073 275.344ZM39.9247 277.876C40.0891 277.934 40.2314 278.042 40.332 278.184C40.4327 278.327 40.4867 278.497 40.4867 278.672C40.4867 278.846 40.4327 279.017 40.332 279.159C40.2314 279.302 40.0891 279.409 39.9247 279.467C39.4963 279.688 39.0217 279.802 38.5401 279.802C38.0586 279.802 37.584 279.688 37.1555 279.467C36.9912 279.409 36.8489 279.302 36.7483 279.159C36.6476 279.017 36.5936 278.846 36.5936 278.672C36.5936 278.497 36.6476 278.327 36.7483 278.184C36.8489 278.042 36.9912 277.934 37.1555 277.876C37.5857 277.661 38.0596 277.55 38.5401 277.55C39.0207 277.55 39.4946 277.661 39.9247 277.876ZM35.5422 280.408C35.7108 280.463 35.8576 280.571 35.9617 280.715C36.0658 280.859 36.1218 281.032 36.1218 281.21C36.1218 281.387 36.0658 281.561 35.9617 281.705C35.8576 281.849 35.7108 281.956 35.5422 282.011C35.1121 282.226 34.6381 282.338 34.1576 282.338C33.6771 282.338 33.2031 282.226 32.773 282.011C32.6044 281.956 32.4576 281.849 32.3535 281.705C32.2494 281.561 32.1934 281.387 32.1934 281.21C32.1934 281.032 32.2494 280.859 32.3535 280.715C32.4576 280.571 32.6044 280.463 32.773 280.408C33.2031 280.193 33.6771 280.082 34.1576 280.082C34.6381 280.082 35.1121 280.193 35.5422 280.408ZM31.1596 282.94C31.3282 282.995 31.4751 283.103 31.5791 283.247C31.6832 283.391 31.7393 283.564 31.7393 283.742C31.7393 283.919 31.6832 284.093 31.5791 284.237C31.4751 284.38 31.3282 284.488 31.1596 284.543C30.7295 284.758 30.2555 284.87 29.775 284.87C29.2945 284.87 28.8206 284.758 28.3904 284.543C28.2218 284.488 28.075 284.38 27.9709 284.237C27.8668 284.093 27.8108 283.919 27.8108 283.742C27.8108 283.564 27.8668 283.391 27.9709 283.247C28.075 283.103 28.2218 282.995 28.3904 282.94C28.8206 282.725 29.2945 282.614 29.775 282.614C30.2555 282.614 30.7295 282.725 31.1596 282.94ZM19.7698 289.68C18.939 289.294 18.8186 288.582 19.5049 288.1C19.9172 287.858 20.3812 287.717 20.8586 287.69C21.3359 287.662 21.8129 287.749 22.25 287.943C23.0808 288.341 23.2012 289.053 22.5149 289.535C22.1007 289.773 21.6364 289.91 21.1596 289.935C20.6827 289.96 20.2067 289.873 19.7698 289.68ZM24.1523 287.148C23.3216 286.75 23.2012 286.038 23.8875 285.556C24.3007 285.315 24.7652 285.177 25.2426 285.152C25.7199 285.127 26.1964 285.216 26.6326 285.411C27.4633 285.797 27.5837 286.509 26.8975 286.991C26.4852 287.234 26.0212 287.374 25.5438 287.402C25.0664 287.429 24.5895 287.342 24.1523 287.148Z" fill="#D6D8E5"/>
<path id="Vector_107" d="M71.59 263.408L67.7252 264.734L59.2972 259.911L61.6089 257.681L53.1809 256.596C53.18 257.223 53.0312 257.842 52.7467 258.401C52.4622 258.961 52.0499 259.445 51.5434 259.815L5.00882 286.726C0.517895 289.33 0.517895 293.538 5.00882 296.142C7.53273 297.418 10.3205 298.083 13.1479 298.083C15.9752 298.083 18.763 297.418 21.2869 296.142L67.7854 269.255H67.8937C69.5312 268.315 73.4562 268.315 73.4562 268.315L71.59 263.408ZM48.7983 270.835C48.9626 270.893 49.1049 271.001 49.2056 271.143C49.3062 271.286 49.3603 271.456 49.3603 271.631C49.3603 271.805 49.3062 271.975 49.2056 272.118C49.1049 272.26 48.9626 272.368 48.7983 272.426C48.3698 272.646 47.8952 272.761 47.4137 272.761C46.9322 272.761 46.4576 272.646 46.0291 272.426C45.8647 272.368 45.7225 272.26 45.6218 272.118C45.5212 271.975 45.4671 271.805 45.4671 271.631C45.4671 271.456 45.5212 271.286 45.6218 271.143C45.7225 271.001 45.8647 270.893 46.0291 270.835C46.4576 270.615 46.9322 270.5 47.4137 270.5C47.8952 270.5 48.3698 270.615 48.7983 270.835ZM44.4157 273.367C44.5801 273.425 44.7224 273.533 44.823 273.675C44.9237 273.818 44.9777 273.988 44.9777 274.163C44.9777 274.337 44.9237 274.507 44.823 274.65C44.7224 274.792 44.5801 274.9 44.4157 274.958C43.9873 275.178 43.5127 275.293 43.0311 275.293C42.5496 275.293 42.075 275.178 41.6465 274.958C41.4822 274.9 41.3399 274.792 41.2392 274.65C41.1386 274.507 41.0846 274.337 41.0846 274.163C41.0846 273.988 41.1386 273.818 41.2392 273.675C41.3399 273.533 41.4822 273.425 41.6465 273.367C42.075 273.147 42.5496 273.032 43.0311 273.032C43.5127 273.032 43.9873 273.147 44.4157 273.367ZM40.0211 275.899C40.1898 275.954 40.3366 276.062 40.4407 276.206C40.5447 276.35 40.6008 276.523 40.6008 276.701C40.6008 276.878 40.5447 277.051 40.4407 277.195C40.3366 277.339 40.1898 277.447 40.0211 277.502C39.591 277.717 39.117 277.828 38.6365 277.828C38.156 277.828 37.6821 277.717 37.2519 277.502C37.0833 277.447 36.9365 277.339 36.8324 277.195C36.7283 277.051 36.6723 276.878 36.6723 276.701C36.6723 276.523 36.7283 276.35 36.8324 276.206C36.9365 276.062 37.0833 275.954 37.2519 275.899C37.6815 275.682 38.1557 275.57 38.6365 275.57C39.1174 275.57 39.5915 275.682 40.0211 275.899ZM35.6386 278.431C35.8072 278.486 35.954 278.594 36.0581 278.738C36.1622 278.882 36.2182 279.055 36.2182 279.232C36.2182 279.41 36.1622 279.583 36.0581 279.727C35.954 279.871 35.8072 279.979 35.6386 280.034C35.2105 280.249 34.7386 280.36 34.26 280.36C33.7814 280.36 33.3094 280.249 32.8814 280.034C32.7128 279.979 32.566 279.871 32.4619 279.727C32.3578 279.583 32.3018 279.41 32.3018 279.232C32.3018 279.055 32.3578 278.882 32.4619 278.738C32.566 278.594 32.7128 278.486 32.8814 278.431C33.3094 278.216 33.7814 278.105 34.26 278.105C34.7386 278.105 35.2105 278.216 35.6386 278.431ZM31.3042 280.926C32.0747 281.36 32.0747 282.132 31.3042 282.518C30.8778 282.738 30.4052 282.853 29.9256 282.853C29.446 282.853 28.9734 282.738 28.547 282.518C28.3827 282.46 28.2404 282.352 28.1397 282.21C28.0391 282.067 27.985 281.897 27.985 281.722C27.985 281.548 28.0391 281.377 28.1397 281.235C28.2404 281.092 28.3827 280.985 28.547 280.926C28.9734 280.706 29.446 280.592 29.9256 280.592C30.4052 280.592 30.8778 280.706 31.3042 280.926ZM19.9264 287.654C19.0836 287.268 18.9632 286.557 19.6495 286.075C20.0639 285.832 20.5299 285.691 21.0092 285.664C21.4885 285.637 21.9674 285.724 22.4066 285.918C23.2374 286.316 23.3578 287.027 22.6715 287.509C22.2563 287.766 21.7852 287.917 21.2986 287.951C20.812 287.985 20.3246 287.899 19.8782 287.702L19.9264 287.654ZM24.3089 285.122C23.4661 284.724 23.3457 284.013 24.032 283.531C24.4484 283.293 24.9147 283.156 25.3934 283.131C25.8722 283.105 26.3502 283.193 26.7892 283.386C27.6199 283.772 27.7403 284.483 27.0541 284.965C26.6399 285.224 26.1693 285.377 25.6827 285.413C25.1961 285.449 24.7081 285.366 24.2608 285.17L24.3089 285.122Z" fill="#B1B4C4"/>
<path id="Vector_108" d="M71.59 261.72L67.7252 263.059L59.2972 258.236L61.6089 255.993L52.1695 254.908C52.1695 254.908 53.2049 257.187 51.5675 258.139L5.00882 285.05C0.517895 287.643 0.517895 291.862 5.00882 294.455C7.5302 295.739 10.319 296.409 13.1479 296.409C15.9767 296.409 18.7655 295.739 21.2869 294.455L67.7854 267.58H67.8937C69.5312 266.627 73.4562 266.374 73.4562 266.374L71.59 261.72ZM48.7983 269.147C48.9669 269.203 49.1137 269.31 49.2178 269.454C49.3219 269.598 49.3779 269.771 49.3779 269.949C49.3779 270.127 49.3219 270.3 49.2178 270.444C49.1137 270.588 48.9669 270.695 48.7983 270.751C48.3682 270.965 47.8942 271.077 47.4137 271.077C46.9332 271.077 46.4592 270.965 46.0291 270.751C45.8605 270.695 45.7137 270.588 45.6096 270.444C45.5055 270.3 45.4495 270.127 45.4495 269.949C45.4495 269.771 45.5055 269.598 45.6096 269.454C45.7137 269.31 45.8605 269.203 46.0291 269.147C46.4592 268.933 46.9332 268.821 47.4137 268.821C47.8942 268.821 48.3682 268.933 48.7983 269.147ZM44.4157 271.691C44.5801 271.75 44.7224 271.857 44.823 272C44.9237 272.142 44.9777 272.313 44.9777 272.487C44.9777 272.662 44.9237 272.832 44.823 272.974C44.7224 273.117 44.5801 273.225 44.4157 273.283C43.9873 273.503 43.5127 273.618 43.0311 273.618C42.5496 273.618 42.075 273.503 41.6465 273.283C41.4822 273.225 41.3399 273.117 41.2392 272.974C41.1386 272.832 41.0846 272.662 41.0846 272.487C41.0846 272.313 41.1386 272.142 41.2392 272C41.3399 271.857 41.4822 271.75 41.6465 271.691C42.075 271.471 42.5496 271.357 43.0311 271.357C43.5127 271.357 43.9873 271.471 44.4157 271.691ZM40.0211 274.223C40.1855 274.281 40.3278 274.389 40.4284 274.532C40.5291 274.674 40.5831 274.845 40.5831 275.019C40.5831 275.194 40.5291 275.364 40.4284 275.506C40.3278 275.649 40.1855 275.757 40.0211 275.815C39.5927 276.035 39.1181 276.15 38.6365 276.15C38.155 276.15 37.6804 276.035 37.2519 275.815C37.0876 275.757 36.9453 275.649 36.8446 275.506C36.744 275.364 36.69 275.194 36.69 275.019C36.69 274.845 36.744 274.674 36.8446 274.532C36.9453 274.389 37.0876 274.281 37.2519 274.223C37.6798 274.001 38.1547 273.885 38.6365 273.885C39.1184 273.885 39.5933 274.001 40.0211 274.223ZM35.6386 276.755C35.8089 276.807 35.958 276.913 36.0639 277.056C36.1698 277.199 36.227 277.373 36.227 277.551C36.227 277.729 36.1698 277.903 36.0639 278.046C35.958 278.189 35.8089 278.295 35.6386 278.347C35.2122 278.567 34.7396 278.681 34.26 278.681C33.7804 278.681 33.3078 278.567 32.8814 278.347C32.7171 278.289 32.5748 278.181 32.4741 278.038C32.3735 277.896 32.3194 277.726 32.3194 277.551C32.3194 277.376 32.3735 277.206 32.4741 277.064C32.5748 276.921 32.7171 276.813 32.8814 276.755C33.3078 276.535 33.7804 276.421 34.26 276.421C34.7396 276.421 35.2122 276.535 35.6386 276.755ZM31.3042 279.287C31.4875 279.332 31.6505 279.437 31.7671 279.586C31.8836 279.735 31.947 279.918 31.947 280.107C31.947 280.296 31.8836 280.48 31.7671 280.628C31.6505 280.777 31.4875 280.882 31.3042 280.927C30.8761 281.141 30.4042 281.253 29.9256 281.253C29.447 281.253 28.975 281.141 28.547 280.927C28.3784 280.871 28.2316 280.764 28.1275 280.62C28.0234 280.476 27.9674 280.303 27.9674 280.125C27.9674 279.947 28.0234 279.774 28.1275 279.63C28.2316 279.486 28.3784 279.379 28.547 279.323C28.9722 279.103 29.4428 278.986 29.9213 278.979C30.3999 278.973 30.8734 279.078 31.3042 279.287ZM19.9264 286.027C19.0836 285.629 18.9632 284.918 19.6495 284.435C20.0649 284.196 20.5306 284.056 21.0094 284.029C21.4882 284.002 21.9667 284.087 22.4066 284.279C23.2374 284.677 23.3578 285.388 22.6715 285.87C22.2533 286.121 21.7807 286.266 21.2941 286.293C20.8076 286.321 20.3217 286.229 19.8782 286.027H19.9264ZM24.3089 283.495C23.4661 283.097 23.3457 282.386 24.032 281.904C24.4464 281.661 24.9124 281.52 25.3918 281.493C25.8711 281.466 26.35 281.553 26.7892 281.747C27.6199 282.145 27.7403 282.856 27.0541 283.338C26.6359 283.589 26.1633 283.734 25.6767 283.761C25.1902 283.789 24.7043 283.697 24.2608 283.495H24.3089Z" fill="#D6D8E5"/>
<path id="Vector_109" opacity="0.4" d="M105.109 249.748C105.137 249.753 105.166 249.753 105.194 249.748L138.135 228.576C137.965 226.43 137.643 224.298 137.172 222.198C134.646 220.92 131.856 220.254 129.027 220.254C126.197 220.254 123.407 220.92 120.882 222.198L88.8314 240.681C87.1939 241.621 83.2568 241.621 83.2568 241.621L85.1351 246.444L88.9999 245.106L97.4279 249.928L102.172 250.676V252.738C102.949 251.56 103.947 250.545 105.109 249.748ZM124.482 234.074L116.523 229.468C116.342 229.407 116.184 229.29 116.073 229.134C115.961 228.978 115.901 228.792 115.901 228.6C115.901 228.408 115.961 228.221 116.073 228.066C116.184 227.91 116.342 227.793 116.523 227.732C116.991 227.5 117.506 227.379 118.028 227.379C118.55 227.379 119.065 227.5 119.533 227.732L127.48 232.325C127.66 232.39 127.815 232.508 127.925 232.665C128.035 232.821 128.095 233.008 128.095 233.2C128.095 233.391 128.035 233.578 127.925 233.734C127.815 233.891 127.66 234.009 127.48 234.074C127.015 234.307 126.502 234.43 125.982 234.432C125.462 234.434 124.949 234.315 124.482 234.086V234.074Z" fill="#D6D8E5"/>
<path id="Vector_110" d="M105.121 247.685C105.154 247.672 105.183 247.652 105.206 247.625L137.172 229.154C141.663 226.55 141.663 222.342 137.172 219.738C134.648 218.454 131.858 217.785 129.027 217.785C126.196 217.785 123.406 218.454 120.882 219.738L88.8314 238.269C87.1939 239.209 83.2568 239.222 83.2568 239.222L85.1351 244.044L88.9999 242.706L97.4279 247.529L95.1162 249.819L102.172 250.736C102.946 249.536 103.949 248.499 105.121 247.685ZM124.482 231.674L116.523 227.08C116.342 227.019 116.184 226.902 116.073 226.746C115.961 226.591 115.901 226.404 115.901 226.212C115.901 226.02 115.961 225.834 116.073 225.678C116.184 225.522 116.342 225.405 116.523 225.344C116.989 225.106 117.505 224.982 118.028 224.982C118.552 224.982 119.067 225.106 119.533 225.344L127.48 229.938C127.661 229.999 127.819 230.116 127.93 230.272C128.042 230.427 128.102 230.614 128.102 230.806C128.102 230.998 128.042 231.184 127.93 231.34C127.819 231.496 127.661 231.613 127.48 231.674C127.016 231.912 126.502 232.036 125.981 232.036C125.46 232.036 124.946 231.912 124.482 231.674Z" fill="#B1B4C4"/>
<path id="Vector_111" d="M105.121 245.961H105.206L137.172 227.478C141.663 224.886 141.663 220.666 137.172 218.074C134.648 216.79 131.858 216.121 129.027 216.121C126.196 216.121 123.406 216.79 120.882 218.074L88.8314 236.593C87.1939 237.533 83.2568 237.533 83.2568 237.533L85.1351 242.356L88.9999 241.018L97.4279 245.841L95.1162 248.143L101.955 248.855C102.86 247.737 103.927 246.761 105.121 245.961ZM124.482 229.95L116.523 225.464C116.342 225.403 116.184 225.286 116.073 225.131C115.961 224.975 115.901 224.788 115.901 224.596C115.901 224.405 115.961 224.218 116.073 224.062C116.184 223.906 116.342 223.79 116.523 223.728C116.989 223.49 117.505 223.366 118.028 223.366C118.552 223.366 119.067 223.49 119.533 223.728L127.48 228.322C127.661 228.383 127.819 228.5 127.93 228.656C128.042 228.811 128.102 228.998 128.102 229.19C128.102 229.382 128.042 229.569 127.93 229.724C127.819 229.88 127.661 229.997 127.48 230.058C127.009 230.28 126.494 230.391 125.974 230.38C125.454 230.37 124.943 230.239 124.482 229.998V229.95Z" fill="#D6D8E5"/>
<path id="Vector_112" d="M67.4844 264.745L54.5775 257.282C50.5682 254.967 51.0738 250.916 55.7092 248.227L70.9037 239.449C75.5391 236.761 82.5464 236.471 86.5557 238.798L99.4626 246.262C103.484 248.577 102.978 252.628 98.3429 255.316L83.1484 264.045C78.513 266.782 71.4937 267.072 67.4844 264.745Z" fill="#20232D"/>
<path id="Vector_113" d="M56.6845 249.012L72.2402 240.017C76.1411 237.763 82.0287 237.521 85.3999 239.475L98.3068 246.926C101.678 248.879 101.257 252.291 97.3556 254.534L81.7999 263.528C77.911 265.783 72.0234 266.024 68.6522 264.083L55.7454 256.619C52.3742 254.666 52.7956 251.254 56.6845 249.012Z" fill="#2B303F"/>
<path id="Vector_114" opacity="0.5" d="M56.6845 249.012L72.2402 240.017C76.1411 237.763 82.0287 237.521 85.3999 239.475L98.3068 246.926C101.678 248.879 101.257 252.291 97.3556 254.534L81.7999 263.528C77.911 265.783 72.0234 266.024 68.6522 264.083L55.7454 256.619C52.3742 254.666 52.7956 251.254 56.6845 249.012Z" fill="url(#paint2_linear)"/>
<path id="Vector_115" d="M98.6833 258.841C99.5411 257.353 99.5409 255.745 98.6829 255.249C97.8249 254.753 96.4339 255.557 95.5761 257.044C94.7183 258.532 94.7185 260.14 95.5766 260.637C96.4346 261.133 97.8256 260.329 98.6833 258.841Z" fill="#696F7C"/>
<path id="Vector_116" d="M98.5596 255.197L99.6913 255.836L98.3308 256.704L98.5596 255.197Z" fill="#696F7C"/>
<path id="Vector_117" d="M96.7536 261.31L95.5134 260.611L97.0064 259.803L96.7536 261.31Z" fill="#696F7C"/>
<path id="Vector_118" d="M99.7673 259.456C100.625 257.968 100.625 256.36 99.7669 255.864C98.9088 255.368 97.5179 256.172 96.6601 257.66C95.8023 259.147 95.8025 260.756 96.6606 261.252C97.5186 261.748 98.9095 260.944 99.7673 259.456Z" fill="#757B89"/>
</g>
<g id="Glasses">
<path id="Vector_119" opacity="0.4" d="M173.641 518.06L156.785 502.301C154.667 499.196 152.108 496.418 149.188 494.054C147.891 492.98 146.528 491.989 145.106 491.088L123.229 476.512L99.4022 465.986C97.9305 465.297 96.4188 464.697 94.8752 464.19C91.3692 463.031 87.7256 462.342 84.0392 462.14L61.404 454.701C60.1278 454.628 60.814 457.04 61.5485 458.004L63.7157 458.897C66.4969 459.958 64.1732 459.572 67.0026 461.573L80.078 464.913C88.3616 464.153 96.5849 467.324 103.737 471.183L120.99 479.863L137.665 489.883C144.959 493.932 150.775 500.204 154.269 507.787L163.058 514.877C165.779 517.445 164.262 516.311 168.259 516.95L170.51 518.867C171.943 519.097 174.399 519.181 173.641 518.06Z" fill="#D6D8E5"/>
<path id="Vector_120" opacity="0.1" d="M126.215 484.685C127.57 482.603 129.382 480.859 131.513 479.585C135.92 476.487 141.795 477.174 141.795 477.174C146.056 477.61 150.188 478.884 153.955 480.924L154.341 481.129L160.144 484.384C161.701 485.252 163.194 486.188 164.623 487.193C165.586 487.856 166.513 488.544 167.404 489.267C171.57 492.595 170.366 499.178 166.67 504.374C164.624 507.306 162.258 509.999 159.614 512.404C157.324 514.431 154.555 515.838 151.569 516.492C148.583 517.146 145.48 517.026 142.554 516.142C139.835 515.267 137.212 514.116 134.728 512.706C132.409 511.388 130.23 509.837 128.226 508.076C122.856 503.325 121.941 496.803 124.229 489.46C124.692 487.792 125.359 486.189 126.215 484.685ZM76.1289 454.362C79.4279 449.347 84.9904 445.525 89.7341 447.128C90.7696 447.466 91.793 447.84 92.7923 448.25C94.3214 448.864 95.8143 449.564 97.2712 450.323L102.785 453.217L103.135 453.41C106.596 455.26 109.606 457.854 111.948 461.006C111.948 461.006 115.259 465.226 114.175 470.085C113.825 472.432 112.907 474.659 111.502 476.571C110.378 477.957 109.098 479.207 107.686 480.297C101.545 485.385 94.8511 487.531 88.0847 485.349C85.6499 484.567 83.3018 483.536 81.0774 482.274C78.8121 480.994 76.6961 479.465 74.7684 477.717C72.8362 475.894 71.4955 473.532 70.9201 470.937C70.3447 468.342 70.5613 465.634 71.5417 463.164C72.7372 460.064 74.2759 457.107 76.1289 454.35V454.362Z" fill="black"/>
<path id="Vector_121" d="M69.832 461.681L82.8593 460.475C91.0594 459.696 99.3081 461.335 106.59 465.19L178.192 501.264L182.37 495.428L102.208 460.005C97.382 457.754 92.172 456.444 86.8566 456.147L61.404 454.7C61.1246 454.67 60.8423 454.719 60.5901 454.844C60.3378 454.968 60.1261 455.161 59.9796 455.402C59.8332 455.642 59.758 455.919 59.7629 456.2C59.7678 456.482 59.8526 456.756 60.0074 456.991L60.6816 457.871C61.7606 459.229 63.166 460.291 64.7663 460.958C66.3666 461.624 68.1095 461.873 69.832 461.681Z" fill="#2B303F"/>
<path id="Vector_122" d="M162.432 513.732L157.05 501.808C153.561 494.225 147.749 487.953 140.459 483.903L75.0332 444.61L78.7054 439.016L147.899 485.121C152.519 488.016 156.498 491.828 159.59 496.322L174.435 518.024C174.588 518.295 174.658 518.605 174.636 518.916C174.613 519.226 174.5 519.523 174.309 519.769C174.119 520.015 173.86 520.199 173.566 520.299C173.271 520.398 172.954 520.408 172.654 520.327L171.329 520.122C169.434 519.876 167.63 519.164 166.077 518.049C164.524 516.934 163.272 515.451 162.432 513.732Z" fill="#2B303F"/>
<path id="Vector_123" opacity="0.3" d="M142.987 474.812C147.251 475.242 151.388 476.513 155.16 478.55L155.533 478.755L161.348 482.022C162.889 482.879 164.384 483.816 165.827 484.831C166.778 485.494 167.705 486.182 168.608 486.905C172.774 490.233 171.558 496.816 167.862 502.012C165.817 504.941 163.455 507.634 160.818 510.042C158.528 512.069 155.758 513.475 152.772 514.127C149.786 514.779 146.683 514.656 143.758 513.768C141.039 512.897 138.417 511.75 135.932 510.344C133.614 509.025 131.435 507.473 129.43 505.714C124.06 500.963 123.145 494.429 125.433 487.086C125.893 485.402 126.561 483.782 127.419 482.263C128.772 480.18 130.579 478.432 132.705 477.151C137.124 474.064 142.987 474.812 142.987 474.812Z" fill="url(#paint3_linear)"/>
<path id="Vector_124" d="M76.7431 437.484L73.5765 442.487C73.3563 442.82 73.263 443.222 73.3139 443.618C73.3647 444.014 73.5563 444.379 73.8535 444.645C74.388 445.116 74.7548 445.749 74.8982 446.447C75.0416 447.146 74.9538 447.872 74.6481 448.516L69.4227 459.463C67.88 462.551 67.3862 466.06 68.0165 469.454C68.6467 472.849 70.3664 475.945 72.9143 478.272C77.1921 482.144 82.2447 485.058 87.7356 486.82C91.9482 488.142 96.4426 488.279 100.728 487.216C105.013 486.153 108.923 483.93 112.032 480.792L116.921 475.861C117.988 474.797 118.642 473.386 118.763 471.882C118.851 471.212 119.098 470.574 119.484 470.02C119.87 469.466 120.383 469.013 120.98 468.699C121.577 468.385 122.24 468.218 122.914 468.214C123.589 468.21 124.254 468.368 124.855 468.675L126.059 469.302L127.263 470.001C127.815 470.347 128.264 470.837 128.562 471.417C128.859 471.998 128.994 472.649 128.952 473.3C128.91 473.952 128.693 474.58 128.323 475.117C127.954 475.655 127.446 476.083 126.854 476.355C125.464 477.06 124.359 478.222 123.723 479.646L121.002 485.892C119.291 489.757 118.867 494.071 119.792 498.197C120.718 502.322 122.945 506.04 126.143 508.8C130.777 512.877 136.199 515.955 142.072 517.843C145.849 519.059 149.89 519.196 153.74 518.237C157.59 517.279 161.096 515.263 163.865 512.417L172.991 502.771C173.591 502.155 174.349 501.717 175.181 501.504C176.014 501.291 176.889 501.313 177.711 501.566C178.156 501.707 178.633 501.711 179.08 501.575C179.527 501.439 179.923 501.171 180.215 500.806L183.935 495.718C184.303 495.25 184.498 494.669 184.488 494.074C184.477 493.478 184.26 492.905 183.875 492.451C183.875 492.451 177.855 485.675 164.045 478.188L158.218 475.041C153.757 472.569 148.842 471.031 143.77 470.519L139.291 470.061C138.708 470.012 138.142 469.836 137.635 469.544C137.127 469.253 136.69 468.853 136.353 468.373C135.92 467.725 135.332 467.194 134.643 466.83L129.671 464.129L124.722 461.441C124.011 461.063 123.227 460.845 122.423 460.802C121.847 460.783 121.283 460.639 120.769 460.379C120.255 460.118 119.804 459.748 119.449 459.294L117.041 456.027C114.229 452.276 110.607 449.21 106.446 447.057L100.919 444.175C87.5791 436.941 79.7651 436.085 79.7651 436.085C79.1809 436.008 78.587 436.099 78.0521 436.347C77.5173 436.594 77.0634 436.988 76.7431 437.484ZM127.419 482.275C128.772 480.192 130.579 478.444 132.705 477.163C137.124 474.064 142.987 474.812 142.987 474.812C147.251 475.242 151.388 476.512 155.16 478.549L155.533 478.754L161.348 482.022C162.89 482.878 164.385 483.816 165.827 484.831C166.778 485.494 167.705 486.181 168.608 486.905C172.774 490.232 171.558 496.815 167.862 502.012C165.817 504.94 163.455 507.633 160.818 510.042C158.528 512.068 155.758 513.475 152.772 514.127C149.786 514.779 146.683 514.655 143.758 513.767C141.039 512.897 138.417 511.75 135.932 510.343C133.614 509.024 131.435 507.473 129.43 505.713C124.06 500.963 123.145 494.428 125.433 487.086C125.894 485.406 126.562 483.79 127.419 482.275ZM77.333 451.94C80.632 446.924 86.1824 443.102 90.9382 444.706C91.9737 445.055 92.985 445.429 93.9964 445.839C95.5245 446.451 97.0195 447.144 98.4753 447.913L103.978 450.794L104.339 450.987C107.801 452.835 110.818 455.419 113.176 458.559C113.176 458.559 116.475 462.779 115.391 467.638C115.053 469.983 114.138 472.208 112.731 474.112C111.603 475.502 110.318 476.756 108.902 477.85C102.762 482.938 96.0793 485.084 89.3128 482.89C86.8714 482.126 84.5152 481.111 82.2815 479.863C80.0159 478.579 77.8999 477.046 75.9725 475.294C74.0427 473.472 72.7035 471.113 72.1282 468.52C71.5529 465.928 71.768 463.222 72.7458 460.753C73.9442 457.654 75.4827 454.698 77.333 451.94Z" fill="#2B303F"/>
<path id="Vector_125" d="M108.36 478.657C102.232 483.733 95.5495 485.892 88.783 483.685C86.3461 482.909 83.9974 481.879 81.7757 480.611C79.5158 479.323 77.4042 477.791 75.4788 476.041C73.5373 474.217 72.1898 471.849 71.612 469.247C71.0343 466.645 71.2531 463.928 72.24 461.452C73.4396 458.375 74.9739 455.44 76.8152 452.699L76.9116 452.566C75.2457 455.13 73.8458 457.857 72.7337 460.705C71.7559 463.173 71.5408 465.879 72.1161 468.472C72.6914 471.064 74.0306 473.424 75.9604 475.245C77.8891 477.016 80.0093 478.564 82.2814 479.863C84.5055 481.126 86.8537 482.157 89.2887 482.938C96.0552 485.12 102.737 482.938 108.878 477.898C110.272 476.818 111.54 475.585 112.658 474.221C112.514 474.45 112.369 474.679 112.189 474.932C111.061 476.318 109.776 477.568 108.36 478.657Z" fill="#1F232D"/>
<path id="Vector_126" d="M160.265 510.813C157.982 512.827 155.224 514.226 152.252 514.878C149.28 515.53 146.191 515.413 143.276 514.538C140.561 513.664 137.943 512.512 135.462 511.102C133.141 509.787 130.963 508.236 128.961 506.472C123.591 501.722 122.676 495.187 124.963 487.856C125.42 486.171 126.087 484.551 126.95 483.034C127.118 482.768 127.287 482.551 127.444 482.322C126.599 483.819 125.944 485.414 125.493 487.073C123.205 494.415 124.12 500.95 129.49 505.7C131.495 507.46 133.674 509.011 135.992 510.33C138.477 511.737 141.099 512.884 143.818 513.754C146.736 514.628 149.829 514.742 152.804 514.086C155.778 513.43 158.537 512.025 160.818 510.005C163.239 507.78 165.429 505.316 167.356 502.65C167.328 502.701 167.296 502.749 167.26 502.795C165.234 505.72 162.887 508.409 160.265 510.813Z" fill="#1F232D"/>
<path id="Vector_127" opacity="0.3" d="M113.176 458.559C110.824 455.397 107.807 452.792 104.339 450.927L103.977 450.734L98.4752 447.852C97.0195 447.083 95.5244 446.391 93.9963 445.779C92.985 445.369 91.9736 444.995 90.9382 444.645C86.1222 443.078 80.6319 446.9 77.333 451.879C75.4858 454.623 73.9474 457.562 72.7457 460.645C71.768 463.113 71.5528 465.819 72.1281 468.411C72.7034 471.004 74.0427 473.364 75.9724 475.185C77.8943 476.976 80.0105 478.545 82.2814 479.863C84.5055 481.126 86.8537 482.157 89.2887 482.938C96.0552 485.12 102.737 482.938 108.878 477.898C110.294 476.804 111.578 475.55 112.706 474.16C114.114 472.256 115.028 470.031 115.367 467.686C116.451 462.779 113.176 458.559 113.176 458.559Z" fill="url(#paint4_linear)"/>
</g>
</g>
</g>
</g>
<defs>
<linearGradient id="paint0_linear" x1="391.288" y1="285.602" x2="482.768" y2="126.651" gradientUnits="userSpaceOnUse">
<stop offset="0.21" stop-color="white" stop-opacity="0"/>
<stop offset="1" stop-color="white" stop-opacity="0.2"/>
</linearGradient>
<linearGradient id="paint1_linear" x1="-580037" y1="32391.9" x2="-575055" y2="23735.2" gradientUnits="userSpaceOnUse">
<stop offset="0.21" stop-color="white" stop-opacity="0"/>
<stop offset="1" stop-color="white" stop-opacity="0.2"/>
</linearGradient>
<linearGradient id="paint2_linear" x1="-168594" y1="-5861.62" x2="-167274" y2="-6164.12" gradientUnits="userSpaceOnUse">
<stop offset="0.21" stop-color="white" stop-opacity="0"/>
<stop offset="1" stop-color="white" stop-opacity="0.2"/>
</linearGradient>
<linearGradient id="paint3_linear" x1="147.743" y1="474.728" x2="147.743" y2="514.539" gradientUnits="userSpaceOnUse">
<stop offset="0.01" stop-color="white"/>
<stop offset="0.88" stop-color="white" stop-opacity="0"/>
</linearGradient>
<linearGradient id="paint4_linear" x1="3478.34" y1="14998" x2="3478.34" y2="16289.4" gradientUnits="userSpaceOnUse">
<stop offset="0.01" stop-color="white"/>
<stop offset="0.88" stop-color="white" stop-opacity="0"/>
</linearGradient>
<clipPath id="clip0">
<rect width="602" height="570" fill="white"/>
</clipPath>
</defs>
</svg>
