<svg width="517" height="603" viewBox="0 0 517 603" fill="none" xmlns="http://www.w3.org/2000/svg">
<g id="Online_shopping_SVG" clip-path="url(#clip0)">
<g id="&#208;&#161;&#208;&#187;&#208;&#190;&#208;&#185; 2">
<g id="&#208;&#161;&#208;&#187;&#208;&#190;&#208;&#185; 1">
<path id="Vector" opacity="0.4" d="M201.863 336.824L160.141 312.849L204.899 286.992L246.621 310.967L201.863 336.824Z" fill="#D6D8E5"/>
<path id="Vector_2" d="M206.537 282.989L161.792 257.121L206.537 231.252L251.295 257.121L206.537 282.989Z" fill="#EFDA86"/>
<path id="Vector_3" d="M248.271 309.992L206.537 334.112V285.872L248.271 261.764V309.992Z" fill="#D1B66B"/>
<path id="Vector_4" d="M206.537 334.112L164.815 309.992V261.764L206.537 285.872V334.112Z" fill="#E2C979"/>
<path id="Vector_5" opacity="0.1" d="M164.815 261.764V274.378L206.537 298.221V285.932L164.815 261.764Z" fill="black"/>
<path id="Vector_6" opacity="0.1" d="M248.271 261.764V275.283L206.537 298.221V285.932L248.271 261.764Z" fill="black"/>
<path id="Vector_7" d="M161.792 257.121V270.496L206.537 296.015V282.99L161.792 257.121Z" fill="#E2C979"/>
<path id="Vector_8" d="M206.537 296.015L251.295 271.545V257.121L206.537 282.99V296.015Z" fill="#D1B66B"/>
<path id="Vector_9" opacity="0.4" d="M369.871 446.221L236.476 369.327C235.712 368.883 235.081 368.242 234.649 367.471C234.218 366.7 234.001 365.826 234.022 364.942C234.043 364.058 234.301 363.196 234.768 362.446C235.236 361.697 235.897 361.086 236.681 360.68L253.464 352.02C254.196 351.645 255.011 351.459 255.833 351.478C256.656 351.497 257.46 351.721 258.175 352.129L396.063 431.604C396.831 432.045 397.465 432.685 397.899 433.457C398.334 434.229 398.552 435.103 398.531 435.989C398.51 436.874 398.251 437.738 397.78 438.488C397.31 439.238 396.646 439.848 395.858 440.251L383.678 446.535C381.535 447.646 379.147 448.2 376.734 448.145C374.322 448.09 371.961 447.429 369.871 446.221Z" fill="#D6D8E5"/>
<path id="Vector_10" d="M378.063 431.749L264.379 366.046C254.741 360.486 246.946 345.544 246.946 332.7V15.2931C246.982 2.41301 254.753 -3.47227 264.379 2.09945L378.063 67.7903C387.702 73.362 395.497 88.2923 395.497 101.136V418.555C395.497 431.411 387.69 437.309 378.063 431.749Z" fill="#B1B4C4"/>
<path id="Vector_11" d="M380.015 437.464L389.015 432.906L380.377 418.084L380.015 437.464Z" fill="#B1B4C4"/>
<path id="Vector_12" d="M245.187 5.25991L253.476 0.90625L251.801 13.1471L245.187 5.25991Z" fill="#B1B4C4"/>
<path id="Vector_13" d="M370.811 435.367L257.139 369.664C247.5 364.104 239.705 349.162 239.705 336.318V18.9229C239.754 6.03073 247.512 0.157512 257.139 5.71717L370.811 71.4201C380.449 76.9918 388.256 91.9221 388.256 104.766V422.185C388.256 435.029 380.449 440.938 370.811 435.367Z" fill="#616E84"/>
<path id="Vector_14" d="M387.039 105.575V422.982C387.039 435.85 379.244 441.747 369.606 436.188L325.029 410.428L311.161 402.408L255.922 370.485C246.283 364.913 238.5 349.983 238.5 337.139V19.7319C238.549 6.86383 246.295 0.966494 255.922 6.52615L369.606 72.229C379.244 77.8008 387.039 92.719 387.039 105.575Z" fill="#20232D"/>
<path id="Vector_15" d="M378.834 102.353V411.499C378.834 419.29 373.377 422.45 366.654 418.542L360.63 415.045L339.98 403.117L331.101 397.98L327.968 396.159L326.92 395.544L319.27 391.142L297.041 378.31L287.885 373.016L284.174 370.869L262.006 358.061L258.982 356.313C252.235 352.417 246.789 342.95 246.789 335.147V25.9771C246.789 18.1864 252.235 15.0266 258.982 18.922L303.27 44.6219V44.7425C303.447 48.0421 304.4 51.2534 306.049 54.1157C307.699 56.978 309.999 59.4107 312.764 61.2164C318.017 64.2314 322.269 61.7833 322.269 55.7291C322.269 55.7291 322.269 55.6327 322.269 55.5965L366.666 81.2481C373.377 85.0952 378.834 94.5623 378.834 102.353Z" fill="white"/>
<path id="Vector_16" d="M316.555 58.2117C317.968 57.3991 317.972 54.7534 316.565 52.3022C315.157 49.8511 312.871 48.5227 311.459 49.3353C310.046 50.1479 310.042 52.7937 311.45 55.2448C312.857 57.696 315.143 59.0243 316.555 58.2117Z" fill="#2B303F"/>
<path id="Vector_17" opacity="0.1" d="M312.764 55.2965C312.325 55.0094 311.96 54.6228 311.698 54.1681C311.437 53.7134 311.286 53.2035 311.258 52.6795C311.258 51.7147 311.932 51.3288 312.764 51.8112C313.206 52.0956 313.574 52.4812 313.838 52.9363C314.102 53.3913 314.254 53.9027 314.282 54.4282C314.282 55.393 313.607 55.7789 312.764 55.2965Z" fill="white"/>
<path id="Vector_18" d="M391.653 147.338C390.726 147.881 389.979 147.338 389.979 146.132V132.541C389.987 131.912 390.142 131.294 390.433 130.736C390.724 130.179 391.142 129.698 391.653 129.333C392.581 128.79 393.328 129.333 393.328 130.599V144.13C393.32 144.759 393.165 145.377 392.874 145.934C392.583 146.492 392.165 146.973 391.653 147.338Z" fill="#757B89"/>
<path id="Vector_19" d="M391.653 169.517C390.726 170.047 389.979 169.517 389.979 168.25V154.707C389.989 154.079 390.146 153.462 390.437 152.905C390.728 152.348 391.144 151.867 391.653 151.499C392.581 150.968 393.328 151.499 393.328 152.777V166.309C393.319 166.937 393.163 167.555 392.872 168.112C392.581 168.67 392.164 169.151 391.653 169.517Z" fill="#757B89"/>
<path id="Vector_20" d="M354.016 208.049L268.476 158.603C264.861 156.504 261.897 150.872 261.897 146.012V49.532C261.897 44.708 264.837 42.4528 268.476 44.5512L354.016 93.9972C357.63 96.0957 360.594 101.728 360.594 106.576V203.056C360.594 207.916 357.654 210.147 354.016 208.049Z" fill="#E9EAF2"/>
<path id="Vector_21" d="M354.016 337.15L268.476 287.704C264.861 285.605 261.897 279.973 261.897 275.125V178.645C261.897 173.821 264.837 171.566 268.476 173.665L354.016 223.111C357.63 225.209 360.594 230.841 360.594 235.701V332.181C360.594 337.017 357.654 339.248 354.016 337.15Z" fill="#E9EAF2"/>
<path id="Vector_22" d="M360.606 364.768V415.046L331.101 397.981L327.968 396.16L326.92 395.545L319.27 391.143L297.041 378.312L287.825 372.993L284.114 370.846L261.946 358.039V307.748C261.946 302.924 264.898 300.681 268.524 302.78L354.064 352.226C357.654 354.288 360.606 359.92 360.606 364.768Z" fill="#E9EAF2"/>
<path id="Vector_23" d="M336.992 128.403L325.294 108.106C324.849 107.299 324.207 106.618 323.426 106.128C323.323 106.066 323.214 106.014 323.101 105.972C322.994 105.891 322.881 105.818 322.764 105.754L319.511 103.873C318.619 103.355 317.788 103.391 317.306 103.982C316.27 105.188 313.933 105.079 311.354 103.584C308.758 102.081 306.682 99.8221 305.403 97.1075C304.964 96.0065 304.188 95.0732 303.186 94.4422L299.993 92.5729C299.89 92.5072 299.781 92.4507 299.668 92.4041C299.379 92.1342 299.019 91.9533 298.63 91.8827C298.241 91.8121 297.84 91.855 297.475 92.0061L285.777 98.7718C284.74 99.3748 284.74 101.292 285.777 103.077L292.174 114.172C292.6 114.97 293.216 115.65 293.969 116.15C294.237 116.341 294.551 116.459 294.879 116.491C295.206 116.522 295.537 116.467 295.837 116.331L297.306 115.475V142.61C297.371 143.521 297.648 144.405 298.114 145.19C298.581 145.975 299.224 146.64 299.993 147.132L322.764 160.398C324.222 161.243 325.39 160.555 325.39 158.879V131.744L326.872 134.301C327.311 135.105 327.95 135.782 328.727 136.266C328.996 136.458 329.309 136.575 329.637 136.607C329.965 136.638 330.295 136.583 330.595 136.447L336.992 132.745C338.016 132.106 338.016 130.248 336.992 128.403Z" fill="#D9DAE2"/>
<path id="Vector_24" d="M332.041 252.368L290.656 228.453C289.562 232.006 288.982 235.698 288.933 239.416V265.321L307.897 276.283L311.354 256.36L314.8 280.275L333.727 291.238V265.321C333.635 260.955 333.07 256.612 332.041 252.368Z" fill="#D9DAE2"/>
<path id="Vector_25" d="M332.04 244.397L290.656 220.482V226.464L332.04 250.379V244.397Z" fill="#D9DAE2"/>
<path id="Vector_26" d="M339.956 403.119L331.101 397.981L327.968 396.16L326.92 395.545L319.27 391.143L297.041 378.311L287.885 373.017V360.282C287.885 359.015 288.764 358.497 289.873 359.076C290.726 359.653 291.359 360.504 291.668 361.488L292.041 362.694C293.298 366.633 295.878 370.016 299.342 372.269C303.764 374.826 307.378 372.74 307.378 367.614V366.071C307.378 364.503 308.487 363.839 309.788 364.635C310.43 365.031 310.971 365.572 311.366 366.215L314.896 371.63L310.92 373.861L313.125 377.648L317.294 375.236L319.101 378.022L315.306 380.217L317.486 384.016L321.498 381.7L323.306 384.486L319.691 386.585L321.872 390.384L325.715 388.164C327.955 391.465 330.866 394.256 334.257 396.353L334.956 396.739C337.275 398.26 339.032 400.502 339.956 403.119Z" fill="#D9DAE2"/>
<path id="Vector_27" opacity="0.1" d="M367.955 119.225L261.15 57.8883V20.0078L367.955 81.3329V119.225Z" fill="black"/>
<path id="Vector_28" d="M239.151 54.6576L225.995 47.0477L261.524 20.4434L274.68 28.0412L239.151 54.6576Z" fill="#E26161"/>
<path id="Vector_29" d="M252.319 62.2552L239.151 54.6574L274.68 28.041L287.837 35.6509L252.319 62.2552Z" fill="#F4F5F9"/>
<path id="Vector_30" d="M265.476 69.8646L252.319 62.2547L287.837 35.6504L300.993 43.2482L265.476 69.8646Z" fill="#E26161"/>
<path id="Vector_31" d="M278.632 77.4623L265.476 69.8645L300.993 43.248L314.149 50.8579L278.632 77.4623Z" fill="#F4F5F9"/>
<path id="Vector_32" d="M291.788 85.0716L278.632 77.4618L314.149 50.8574L327.306 58.4552L291.788 85.0716Z" fill="#E26161"/>
<path id="Vector_33" d="M304.945 92.6693L291.788 85.0715L327.306 58.4551L340.462 66.0649L304.945 92.6693Z" fill="#F4F5F9"/>
<path id="Vector_34" d="M318.101 100.281L304.945 92.6708L340.462 66.0664L353.618 73.6642L318.101 100.281Z" fill="#E26161"/>
<path id="Vector_35" d="M331.257 107.878L318.101 100.28L353.618 73.6641L366.787 81.2739L331.257 107.878Z" fill="#F4F5F9"/>
<path id="Vector_36" d="M232.669 58.3599C236.284 60.4584 239.247 58.7579 239.247 54.561L226.091 46.9512C226.216 49.2362 226.877 51.4596 228.02 53.4416C229.162 55.4235 230.755 57.1084 232.669 58.3599Z" fill="#E26161"/>
<path id="Vector_37" d="M245.838 65.9572C249.452 68.0677 252.416 66.3552 252.416 62.1583L239.248 54.5605C239.373 56.8452 240.035 59.068 241.18 61.0482C242.325 63.0285 243.921 64.7104 245.838 65.9572Z" fill="#F4F5F9"/>
<path id="Vector_38" d="M259.03 73.567C262.644 75.6654 265.608 73.9649 265.608 69.7681L252.452 62.1582C252.574 64.4439 253.234 66.6683 254.377 68.6508C255.52 70.6332 257.114 72.3176 259.03 73.567Z" fill="#E26161"/>
<path id="Vector_39" d="M272.15 81.1763C275.765 83.2748 278.729 81.5623 278.729 77.3654L265.572 69.7676C265.696 72.0528 266.357 74.2766 267.5 76.2587C268.643 78.2408 270.236 79.9255 272.15 81.1763Z" fill="#F4F5F9"/>
<path id="Vector_40" d="M285.307 88.774C288.921 90.8724 291.885 89.172 291.885 84.9751L278.729 77.3652C278.851 79.6509 279.51 81.8754 280.653 83.8578C281.796 85.8402 283.391 87.5246 285.307 88.774Z" fill="#E26161"/>
<path id="Vector_41" d="M298.463 96.3853C302.077 98.4838 305.041 96.7833 305.041 92.5744L291.885 84.9766C292.009 87.2618 292.669 89.4855 293.812 91.4677C294.955 93.4498 296.548 95.1345 298.463 96.3853Z" fill="#F4F5F9"/>
<path id="Vector_42" d="M311.619 103.983C315.234 106.081 318.197 104.381 318.197 100.184L305.041 92.5742C305.158 94.8612 305.815 97.0879 306.958 99.0712C308.102 101.055 309.699 102.738 311.619 103.983Z" fill="#E26161"/>
<path id="Vector_43" d="M324.775 111.592C328.39 113.691 331.354 111.99 331.354 107.781L318.197 100.184C318.321 102.469 318.982 104.693 320.125 106.675C321.268 108.657 322.861 110.342 324.775 111.592Z" fill="#F4F5F9"/>
<g id="Group" opacity="0.15">
<path id="Vector_44" opacity="0.15" d="M232.669 58.3599C236.284 60.4584 239.247 58.7579 239.247 54.561L226.091 46.9512C226.216 49.2362 226.877 51.4596 228.02 53.4416C229.162 55.4235 230.755 57.1084 232.669 58.3599Z" fill="black"/>
<path id="Vector_45" opacity="0.15" d="M245.838 65.9572C249.452 68.0677 252.416 66.3552 252.416 62.1583L239.247 54.5605C239.373 56.8452 240.035 59.068 241.18 61.0482C242.325 63.0285 243.921 64.7104 245.838 65.9572Z" fill="black"/>
<path id="Vector_46" opacity="0.15" d="M259.03 73.567C262.644 75.6654 265.608 73.9649 265.608 69.7681L252.452 62.1582C252.574 64.4439 253.234 66.6683 254.377 68.6508C255.52 70.6332 257.114 72.3176 259.03 73.567Z" fill="black"/>
<path id="Vector_47" opacity="0.15" d="M272.15 81.1783C275.765 83.2767 278.728 81.5642 278.728 77.3673L265.572 69.7695C265.696 72.0547 266.357 74.2785 267.499 76.2606C268.642 78.2428 270.236 79.9275 272.15 81.1783Z" fill="black"/>
<path id="Vector_48" opacity="0.15" d="M285.307 88.7759C288.921 90.8744 291.885 89.1739 291.885 84.977L278.729 77.3672C278.851 79.6528 279.51 81.8773 280.653 83.8598C281.796 85.8422 283.391 87.5266 285.307 88.7759Z" fill="black"/>
<path id="Vector_49" opacity="0.15" d="M298.463 96.3853C302.077 98.4838 305.041 96.7833 305.041 92.5744L291.885 84.9766C292.009 87.2618 292.669 89.4855 293.812 91.4677C294.955 93.4498 296.548 95.1345 298.463 96.3853Z" fill="black"/>
<path id="Vector_50" opacity="0.15" d="M311.619 103.983C315.234 106.081 318.197 104.381 318.197 100.184L305.041 92.5742C305.158 94.8612 305.815 97.0879 306.958 99.0712C308.102 101.055 309.699 102.738 311.619 103.983Z" fill="black"/>
<path id="Vector_51" opacity="0.15" d="M324.775 111.592C328.39 113.691 331.354 111.99 331.354 107.781L318.197 100.184C318.321 102.469 318.982 104.693 320.125 106.675C321.268 108.657 322.861 110.342 324.775 111.592Z" fill="black"/>
</g>
<path id="Vector_52" opacity="0.4" d="M458.76 475.78L411.183 448.283L417.147 444.822L464.736 472.307L458.76 475.78Z" fill="#D6D8E5"/>
<path id="Vector_53" d="M477.145 465.409L429.375 437.791L435.351 383.256L471.182 403.963L477.145 465.409Z" fill="#C65555"/>
<path id="Vector_54" d="M464.736 472.307L416.954 444.701L422.93 390.166L458.76 410.873L464.736 472.307Z" fill="#FF6C6C"/>
<path id="Vector_55" d="M464.736 472.307L477.145 465.409L471.182 403.963L458.76 410.873L464.736 472.307Z" fill="#DD6262"/>
<path id="Vector_56" d="M422.93 390.166L435.351 383.256L433.894 396.498L422.93 390.166Z" fill="#C65555"/>
<path id="Vector_57" d="M449.797 405.566L447.592 404.288C447.592 399.138 444.568 393.205 440.845 391.022C437.122 388.839 434.11 391.311 434.11 396.461L431.894 395.183C431.894 388.634 435.918 385.619 440.845 388.465C445.773 391.311 449.797 399.018 449.797 405.566Z" fill="#20232D"/>
<path id="Vector_58" d="M461.435 398.439L459.23 397.161C459.23 392.011 456.206 386.078 452.484 383.895C448.761 381.712 445.749 384.184 445.749 389.334L443.532 388.056C443.532 381.507 447.556 378.492 452.484 381.338C457.411 384.184 461.435 391.951 461.435 398.439Z" fill="#20232D"/>
<path id="Vector_59" opacity="0.4" d="M415.966 510.658L347.414 471.065L356.016 466.061L424.568 505.666L415.966 510.658Z" fill="#D6D8E5"/>
<path id="Vector_60" d="M442.448 495.716L373.63 455.942L382.232 377.383L433.845 407.219L442.448 495.716Z" fill="#C65555"/>
<path id="Vector_61" d="M424.569 505.665L355.739 465.891L364.341 387.332L415.966 417.156L424.569 505.665Z" fill="#FF6C6C"/>
<path id="Vector_62" d="M424.569 505.665L442.448 495.715L433.845 407.219L415.966 417.156L424.569 505.665Z" fill="#DD6262"/>
<path id="Vector_63" d="M364.341 387.332L382.232 377.383L380.136 396.462L364.341 387.332Z" fill="#C65555"/>
<path id="Vector_64" d="M403.051 409.523L399.87 407.629C399.87 400.212 395.509 391.662 390.16 388.574C384.81 385.487 380.437 388.984 380.437 396.401L377.256 394.568C377.256 385.125 383.039 380.784 390.16 384.92C397.28 389.057 403.051 400.08 403.051 409.523Z" fill="#20232D"/>
<path id="Vector_65" d="M419.834 399.259L416.653 397.414C416.653 389.997 412.292 381.447 406.942 378.347C401.593 375.248 397.22 378.769 397.22 386.186L394.039 384.353C394.039 374.898 399.834 370.569 406.942 374.705C414.051 378.842 419.834 389.804 419.834 399.259Z" fill="#20232D"/>
<path id="Vector_66" opacity="0.4" d="M131.889 338.405L106.13 323.608L135.057 306.893L160.804 321.702L131.889 338.405Z" fill="#D6D8E5"/>
<path id="Vector_67" d="M136.069 304.431L108.443 288.464L136.069 272.496L163.695 288.464L136.069 304.431Z" fill="#EFDA86"/>
<path id="Vector_68" d="M161.828 321.098L136.069 335.98V306.204L161.828 291.322V321.098Z" fill="#D1B66B"/>
<path id="Vector_69" d="M136.069 335.98L110.311 321.098V291.322L136.069 306.204V335.98Z" fill="#E2C979"/>
<path id="Vector_70" opacity="0.1" d="M110.311 291.322V299.113L136.069 313.826V306.24L110.311 291.322Z" fill="black"/>
<path id="Vector_71" opacity="0.1" d="M161.828 291.322V299.668L136.069 313.826V306.24L161.828 291.322Z" fill="black"/>
<path id="Vector_72" d="M108.443 288.465V296.714L136.069 312.464V304.432L108.443 288.465Z" fill="#E2C979"/>
<path id="Vector_73" d="M136.069 312.464L163.695 297.365V288.465L136.069 304.432V312.464Z" fill="#D1B66B"/>
<path id="Vector_74" opacity="0.4" d="M468.965 509.319L445.713 495.969L471.881 480.846L495.133 494.208L468.965 509.319Z" fill="#D6D8E5"/>
<path id="Vector_75" d="M472.796 478.614L447.857 464.203L472.796 449.791L497.735 464.203L472.796 478.614Z" fill="#EFDA86"/>
<path id="Vector_76" d="M496.049 493.665L472.796 507.1V480.218L496.049 466.783V493.665Z" fill="#D1B66B"/>
<path id="Vector_77" d="M472.796 507.1L449.544 493.665V466.783L472.796 480.218V507.1Z" fill="#E2C979"/>
<path id="Vector_78" opacity="0.1" d="M449.544 466.783V473.814L472.796 487.104V480.254L449.544 466.783Z" fill="black"/>
<path id="Vector_79" opacity="0.1" d="M496.049 466.783V474.321L472.796 487.104V480.254L496.049 466.783Z" fill="black"/>
<path id="Vector_80" d="M447.857 464.203V471.656L472.796 485.875V478.615L447.857 464.203Z" fill="#E2C979"/>
<path id="Vector_81" d="M472.796 485.875L497.736 472.235V464.203L472.796 478.615V485.875Z" fill="#D1B66B"/>
<path id="Vector_82" opacity="0.4" d="M194.417 378.106L144.912 349.512L151.129 345.906L200.634 374.5L194.417 378.106Z" fill="#D6D8E5"/>
<path id="Vector_83" d="M213.549 367.313L163.84 338.586L170.056 281.855L207.333 303.407L213.549 367.313Z" fill="#C65555"/>
<path id="Vector_84" d="M200.634 374.5L150.924 345.773L157.141 289.043L194.417 310.582L200.634 374.5Z" fill="#FF6C6C"/>
<path id="Vector_85" d="M200.634 374.5L213.549 367.312L207.333 303.406L194.417 310.582L200.634 374.5Z" fill="#DD6262"/>
<path id="Vector_86" d="M157.141 289.043L170.056 281.855L168.55 295.628L157.141 289.043Z" fill="#C65555"/>
<path id="Vector_87" d="M185.092 305.12L182.803 303.793C182.803 298.426 179.646 292.252 175.779 290.021C171.912 287.79 168.767 290.322 168.767 295.677L166.466 294.35C166.466 287.536 170.647 284.401 175.779 287.367C180.911 290.334 185.092 298.246 185.092 305.12Z" fill="#20232D"/>
<path id="Vector_88" d="M197.212 297.653L194.923 296.326C194.923 290.972 191.767 284.785 187.899 282.554C184.032 280.323 180.887 282.855 180.887 288.21L178.586 286.883C178.586 280.069 182.767 276.934 187.899 279.901C193.032 282.867 197.212 290.827 197.212 297.653Z" fill="#20232D"/>
<g id="Men 2">
<path id="Vector_89" opacity="0.4" d="M52.5289 603.001C81.5398 603.001 105.058 589.411 105.058 572.646C105.058 555.881 81.5398 542.291 52.5289 542.291C23.518 542.291 0 555.881 0 572.646C0 589.411 23.518 603.001 52.5289 603.001Z" fill="#D6D8E5"/>
<path id="&#60;&#208;&#154;&#208;&#190;&#208;&#189;&#209;&#130;&#209;&#131;&#209;&#128;&#62;" d="M14.0119 345.268C13.4215 350.381 7.33731 372.427 8.63849 379.976C9.93966 387.526 30.7464 400.153 30.7464 400.153L33.6379 387.224L22.1081 375.936L25.2285 354.566L14.0119 345.268Z" fill="#FFCEA9"/>
<path id="&#60;&#208;&#154;&#208;&#190;&#208;&#189;&#209;&#130;&#209;&#131;&#209;&#128;&#62;_2" d="M30.1197 323.546C28.0961 322.606 25.7975 322.444 23.6622 323.091C21.527 323.739 19.7043 325.15 18.5417 327.056C15.4815 332.121 12.3009 349.536 12.0117 352.503C12.0117 352.503 16.3128 358.448 22.7464 357.447L30.1197 323.546Z" fill="#EDEDED"/>
<path id="Vector_90" d="M53.8662 569.317C58.3909 570.573 63.2281 569.988 67.3237 567.689C70.5646 567.786 88.1666 560.248 90.5641 566.58C92.6605 572.127 85.0462 577.265 80.9258 578.254C72.0344 580.412 65.4563 584.85 61.8901 585.598C59.2275 586.165 55.7818 586.527 53.6614 584.392C51.1554 581.92 51.3723 572.634 53.8662 569.317Z" fill="#2B2A30"/>
<path id="Vector_91" d="M61.9262 584.067C65.5406 583.307 72.0705 578.869 80.9619 576.71C84.3835 575.89 90.2629 572.152 90.8532 567.689C91.6484 572.803 84.8293 577.337 80.9619 578.254C72.0705 580.413 65.4924 584.851 61.9262 585.599C59.2636 586.165 55.8179 586.527 53.6975 584.393C53.1342 583.786 52.7215 583.054 52.4927 582.258C55.6251 584.911 59.2636 584.622 61.9262 584.067Z" fill="#9C73FF"/>
<path id="Vector_92" d="M25.3005 556.487C29.8253 557.742 34.6625 557.157 38.758 554.858C41.9989 554.955 59.6009 547.405 61.9985 553.749C64.0948 559.296 56.4805 564.434 52.3601 565.423C43.4688 567.582 36.8906 572.02 33.3244 572.768C30.6619 573.334 27.2161 573.696 25.0957 571.562C22.6018 569.089 22.8187 559.791 25.3005 556.487Z" fill="#2B2A30"/>
<path id="Vector_93" d="M33.3727 571.223C36.9871 570.475 43.5171 566.037 52.4084 563.878C55.83 563.058 61.7094 559.308 62.2998 554.857C63.0949 559.971 56.2156 564.505 52.4084 565.422C43.5171 567.581 36.9389 572.019 33.3727 572.767C30.7101 573.333 27.2644 573.695 25.144 571.561C24.5782 570.96 24.165 570.232 23.9392 569.438C27.0717 572.055 30.7101 571.79 33.3727 571.223Z" fill="#9C73FF"/>
<path id="&#60;&#208;&#154;&#208;&#190;&#208;&#189;&#209;&#130;&#209;&#131;&#209;&#128;&#62;_3" d="M24.9633 508.606C25.7179 502.063 27.0771 495.603 29.0235 489.31C29.0235 489.31 27.8187 472.655 27.2042 456.869C26.5055 438.984 20.3008 423.161 25.2043 408.834L80.444 421.135C80.444 421.135 77.1067 492.603 76.3597 501.25C75.9544 507.984 75.1295 514.686 73.8899 521.318C71.3598 535.187 67.2635 568.183 67.2635 568.183C61.4203 571.572 53.7578 569.69 53.7578 569.69C53.7578 569.69 54.1795 527.975 54.553 517.977C55.0108 505.772 55.3843 506.701 55.3843 506.701L53.5651 476.37L52.3603 461.247C52.3603 461.247 50.8302 472.342 49.8423 482.255C48.9748 490.902 46.8905 498.717 44.5532 514.817C42.5412 528.771 39.2642 556.822 39.2642 556.822C33.421 560.223 25.4934 557.401 25.4934 557.401C25.4934 557.401 23.373 520.715 24.9633 508.606Z" fill="#8C50FF"/>
<path id="&#60;&#208;&#154;&#208;&#190;&#208;&#189;&#209;&#130;&#209;&#131;&#209;&#128;&#62;_4" d="M33.0232 323.848C37.2279 324.053 40.3604 325.138 40.8905 323.848C41.3395 321.674 41.6613 319.475 41.8543 317.263C41.3604 316.057 40.9507 314.73 40.9507 314.73C35.6617 311.474 33.9991 305.758 33.3003 299.052C32.0955 287.68 38.252 277.73 49.6252 276.536C60.2997 275.427 68.167 282.94 70.2633 293.252C71.3958 298.353 73.6367 307.977 70.6006 316.359C68.9019 321.05 66.7092 324.801 64.5164 325.488C62.4026 325.434 60.2942 325.249 58.2033 324.933C58.2033 324.933 57.6371 328.093 57.2516 330.119C56.866 332.145 57.0106 333.218 61.0466 335.703C65.0827 338.187 54.9504 343.301 48.3241 342.806C41.6977 342.312 34.2521 338.296 32.216 334.014C29.9389 329.335 30.1197 323.715 33.0232 323.848Z" fill="#FFCEA9"/>
<path id="&#60;&#208;&#154;&#208;&#190;&#208;&#189;&#209;&#130;&#209;&#131;&#209;&#128;&#62;_5" d="M39.1074 324.476C37.9026 327.382 40.9026 330.94 48.7458 333.424C56.5889 335.909 57.36 332.713 57.36 332.713C57.36 332.713 68.9501 337.995 72.7211 340.636C77.4559 343.953 79.5643 353.553 80.2029 369.761C80.9378 388.527 81.0101 416.361 80.3836 421.161C80.3836 421.161 71.5163 430.001 60.1792 429.072C48.8421 428.144 29.7583 418.086 25.1198 410.331C25.2523 393.881 27.18 391.204 24.5174 381.725C18.4212 360.017 15.2164 351.153 18.1802 336.741C20.5898 324.862 24.0355 323.378 28.7221 323.475C32.1996 323.618 35.6666 323.952 39.1074 324.476Z" fill="#F4F4F4"/>
<path id="&#60;&#208;&#154;&#208;&#190;&#208;&#189;&#209;&#130;&#209;&#131;&#209;&#128;&#62;_6" d="M98.0942 385.282C88.7811 387.621 86.6005 381.748 85.3716 376.84C82.4078 365.057 80.8175 354.42 78.6127 347.739C76.0104 339.852 73.2875 338.597 69.4563 337.066C64.9624 335.257 61.095 339.056 62.601 349.126C64.36 361.005 66.6853 369.338 71.1189 383.376C72.3237 386.994 74.8779 393.567 78.7693 396.715C83.5885 400.598 90.8172 400.429 101.745 397.716C106.407 396.51 111.528 393.76 120.359 389.635C122.768 388.526 124.575 387.79 129.118 385.668C133.66 383.545 138.394 380.011 140.78 376.55C143.165 373.089 142.756 370.906 142.262 370.122C141.647 369.133 141.31 369.917 140.033 371.328C138.192 373.782 135.923 375.882 133.334 377.527C133.334 377.527 136.274 374.488 137.876 372.51C139.299 370.758 140.482 368.823 141.394 366.757C142.238 364.743 140.503 362.006 139.178 363.441C137.852 364.876 137.238 366.335 134.828 369.23C133.56 370.768 132.112 372.149 130.515 373.342C132.007 371.32 133.337 369.183 134.491 366.95C136.021 363.827 130.877 365.455 127.997 368.494C125.865 370.701 124.057 371.979 124.009 371.364C123.961 370.749 119.805 375.212 117.696 377.394C115.407 379.951 106.937 383.051 98.0942 385.282Z" fill="#FFCEA9"/>
<path id="&#60;&#208;&#154;&#208;&#190;&#208;&#189;&#209;&#130;&#209;&#131;&#209;&#128;&#62;_7" d="M66.0105 335.498C72.2273 334.582 76.6248 337.38 79.3596 346.811C82.0945 356.242 84.0342 363.972 84.0342 363.972C81.575 367.531 77.8445 370.009 73.6128 370.895C66.1792 372.704 63.5046 369.146 63.5046 369.146C63.5046 369.146 61.4444 359.269 60.1553 352.539C58.8661 345.81 58.324 336.644 66.0105 335.498Z" fill="#EDEDED"/>
<path id="Vector_94" d="M69.8778 291.853C69.8778 291.853 79.6969 276.899 58.4203 273.859C43.0712 271.665 33.216 281.53 32.0715 292.239C30.9872 302.478 37.2762 313.103 41.8303 317.312C44.0471 318.108 48.8181 318.518 55.083 315.708C55.3384 312.921 55.439 310.123 55.3842 307.326C55.3842 307.326 47.9265 291.576 69.8778 291.853Z" fill="#3A2C6D"/>
</g>
<path id="Vector_95" d="M119.756 373.534C119.756 373.534 117.347 369.133 118.865 368.035C120.383 366.938 122.587 371.062 123.033 372.678C123.479 374.294 122.865 372.184 122.865 372.184C122.865 372.184 121.214 367.215 122.286 366.262C123.359 365.31 124.804 367.468 126.238 370.556C127.672 373.643 126.599 370.278 126.599 370.278C126.599 370.278 124.19 365.297 125.238 364.61C126.599 363.681 128.852 366.636 130.19 369.301C131.527 371.967 128.395 375.114 128.395 375.114L119.756 373.534Z" fill="#FFCEA9"/>
<g id="Mobile">
<path id="Vector_96" d="M124.407 381.399L115.383 376.177C114.624 375.742 114.72 374.971 115.6 374.464L137.346 361.861C137.798 361.609 138.303 361.467 138.82 361.446C139.337 361.425 139.851 361.526 140.322 361.741L149.346 366.951C150.105 367.397 150.008 368.157 149.129 368.675L127.334 381.266C126.889 381.512 126.394 381.652 125.886 381.675C125.378 381.698 124.872 381.604 124.407 381.399Z" fill="#B1B4C4"/>
<path id="Vector_97" d="M114.865 375.428V374.596L115.841 374.958L114.865 375.428Z" fill="#B1B4C4"/>
<path id="Vector_98" d="M149.9 367.675V366.879L149.129 367.373L149.9 367.675Z" fill="#B1B4C4"/>
<path id="Vector_99" d="M124.407 380.687L115.383 375.477C114.624 375.031 114.72 374.271 115.6 373.753L137.346 361.162C137.798 360.91 138.303 360.768 138.82 360.747C139.337 360.726 139.851 360.827 140.322 361.042L149.346 366.252C150.105 366.698 150.008 367.458 149.129 367.976L127.334 380.567C126.888 380.811 126.392 380.949 125.885 380.97C125.377 380.991 124.871 380.894 124.407 380.687Z" fill="#616E84"/>
<path id="Vector_100" d="M116.931 378.047C116.977 378.021 116.977 377.934 116.93 377.853C116.884 377.772 116.809 377.728 116.763 377.755C116.717 377.781 116.717 377.868 116.763 377.949C116.81 378.03 116.885 378.074 116.931 378.047Z" fill="#757B89"/>
<path id="Vector_101" d="M116.905 376.797C116.951 376.77 116.951 376.683 116.904 376.602C116.858 376.522 116.782 376.478 116.736 376.504C116.69 376.531 116.691 376.618 116.737 376.699C116.784 376.78 116.859 376.824 116.905 376.797Z" fill="#757B89"/>
<path id="Vector_102" d="M117.335 377.053C117.381 377.026 117.381 376.939 117.334 376.858C117.287 376.778 117.212 376.734 117.166 376.76C117.12 376.787 117.121 376.874 117.167 376.955C117.214 377.036 117.289 377.079 117.335 377.053Z" fill="#757B89"/>
<path id="Vector_103" d="M117.777 377.309C117.823 377.282 117.823 377.195 117.776 377.114C117.729 377.033 117.654 376.99 117.608 377.016C117.562 377.043 117.562 377.13 117.609 377.211C117.656 377.291 117.731 377.335 117.777 377.309Z" fill="#757B89"/>
<path id="Vector_104" d="M121.501 379.461C121.547 379.434 121.546 379.347 121.5 379.267C121.453 379.186 121.378 379.142 121.332 379.169C121.286 379.195 121.286 379.282 121.333 379.363C121.379 379.444 121.455 379.488 121.501 379.461Z" fill="#757B89"/>
<path id="Vector_105" d="M121.925 379.705C121.971 379.678 121.97 379.591 121.924 379.511C121.877 379.43 121.802 379.386 121.756 379.413C121.71 379.439 121.71 379.526 121.757 379.607C121.803 379.688 121.878 379.732 121.925 379.705Z" fill="#757B89"/>
<path id="Vector_106" d="M122.366 379.961C122.413 379.934 122.412 379.847 122.366 379.767C122.319 379.686 122.244 379.642 122.198 379.669C122.152 379.695 122.152 379.782 122.199 379.863C122.245 379.944 122.32 379.988 122.366 379.961Z" fill="#757B89"/>
<path id="Vector_107" d="M123.283 381.727C123.329 381.701 123.329 381.614 123.283 381.533C123.236 381.452 123.161 381.408 123.115 381.434C123.069 381.461 123.069 381.548 123.116 381.629C123.162 381.71 123.237 381.754 123.283 381.727Z" fill="#757B89"/>
<path id="Vector_108" d="M120.154 378.758L118.949 378.07C118.908 378.039 118.875 377.999 118.852 377.953C118.829 377.907 118.817 377.856 118.816 377.805C118.816 377.708 118.877 377.66 118.949 377.708L120.154 378.396C120.194 378.425 120.227 378.462 120.251 378.506C120.274 378.551 120.286 378.599 120.286 378.649C120.286 378.758 120.226 378.806 120.154 378.758Z" fill="#757B89"/>
<path id="Vector_109" d="M147.177 369.652L146.069 370.291C145.997 370.291 145.936 370.291 145.936 370.195C145.939 370.147 145.953 370.101 145.976 370.06C145.999 370.018 146.03 369.982 146.069 369.954L147.177 369.314C147.25 369.314 147.298 369.314 147.298 369.411C147.3 369.458 147.29 369.505 147.269 369.547C147.248 369.589 147.216 369.625 147.177 369.652Z" fill="#757B89"/>
<path id="Vector_110" d="M145.478 370.641L144.37 371.28C144.298 371.28 144.238 371.28 144.238 371.183C144.238 371.135 144.25 371.088 144.273 371.046C144.296 371.004 144.33 370.968 144.37 370.942L145.478 370.291C145.551 370.291 145.599 370.291 145.599 370.387C145.599 370.436 145.588 370.484 145.567 370.528C145.547 370.572 145.516 370.61 145.478 370.641Z" fill="#757B89"/>
<path id="Vector_111" d="M124.407 380.566L115.383 375.344C114.624 374.91 114.72 374.138 115.6 373.632L137.346 361.029C137.799 360.78 138.303 360.639 138.82 360.618C139.336 360.597 139.85 360.696 140.322 360.908L149.346 366.118C150.105 366.565 150.008 367.324 149.129 367.843L127.334 380.434C126.889 380.68 126.394 380.82 125.886 380.843C125.378 380.866 124.872 380.771 124.407 380.566Z" fill="#20232D"/>
<path id="Vector_112" d="M148.418 366.336L144.9 364.298C144.667 364.416 144.409 364.478 144.147 364.478C143.886 364.478 143.628 364.416 143.394 364.298C143.304 364.267 143.225 364.209 143.169 364.131C143.113 364.053 143.083 363.959 143.083 363.864C143.083 363.768 143.113 363.674 143.169 363.596C143.225 363.518 143.304 363.46 143.394 363.429L139.876 361.391C139.576 361.237 139.244 361.156 138.906 361.156C138.569 361.156 138.237 361.237 137.937 361.391L116.708 373.656C116.59 373.695 116.488 373.771 116.416 373.871C116.343 373.972 116.304 374.093 116.304 374.217C116.304 374.341 116.343 374.462 116.416 374.563C116.488 374.663 116.59 374.739 116.708 374.778L125.262 379.71C125.562 379.865 125.895 379.945 126.232 379.945C126.569 379.945 126.902 379.865 127.202 379.71L148.418 367.445C148.538 367.41 148.642 367.337 148.717 367.237C148.791 367.137 148.831 367.015 148.831 366.891C148.831 366.766 148.791 366.645 148.717 366.545C148.642 366.445 148.538 366.371 148.418 366.336Z" fill="#2B303F"/>
<path id="Vector_113" opacity="0.5" d="M148.418 366.336L144.9 364.298C144.667 364.416 144.409 364.478 144.147 364.478C143.886 364.478 143.628 364.416 143.394 364.298C143.304 364.267 143.225 364.209 143.169 364.131C143.113 364.053 143.083 363.959 143.083 363.864C143.083 363.768 143.113 363.674 143.169 363.596C143.225 363.518 143.304 363.46 143.394 363.429L139.876 361.391C139.576 361.237 139.244 361.156 138.906 361.156C138.569 361.156 138.237 361.237 137.937 361.391L116.708 373.656C116.59 373.695 116.488 373.771 116.416 373.871C116.343 373.972 116.304 374.093 116.304 374.217C116.304 374.341 116.343 374.462 116.416 374.563C116.488 374.663 116.59 374.739 116.708 374.778L125.262 379.71C125.562 379.865 125.895 379.945 126.232 379.945C126.569 379.945 126.902 379.865 127.202 379.71L148.418 367.445C148.538 367.41 148.642 367.337 148.717 367.237C148.791 367.137 148.831 367.015 148.831 366.891C148.831 366.766 148.791 366.645 148.717 366.545C148.642 366.445 148.538 366.371 148.418 366.336Z" fill="url(#paint0_linear)"/>
<path id="Vector_114" d="M143.912 364.226C144.139 364.226 144.322 364.123 144.322 363.997C144.322 363.87 144.139 363.768 143.912 363.768C143.686 363.768 143.503 363.87 143.503 363.997C143.503 364.123 143.686 364.226 143.912 364.226Z" fill="#2B303F"/>
<path id="Vector_115" opacity="0.1" d="M143.792 364.068C143.719 364.068 143.719 363.971 143.792 363.935C143.827 363.911 143.869 363.898 143.912 363.898C143.955 363.898 143.997 363.911 144.033 363.935C144.046 363.941 144.057 363.95 144.064 363.962C144.072 363.974 144.076 363.987 144.076 364.001C144.076 364.015 144.072 364.029 144.064 364.041C144.057 364.053 144.046 364.062 144.033 364.068C143.995 364.086 143.954 364.095 143.912 364.095C143.871 364.095 143.829 364.086 143.792 364.068Z" fill="white"/>
</g>
<path id="Vector_116" d="M138.431 379.312C138.431 379.312 143.25 375.006 142.973 369.302C142.683 365.322 140.286 368.192 140.286 368.192L137.876 372.57C137.876 372.57 135.467 375.694 133.25 376.405C131.556 376.568 129.871 376.818 128.202 377.153C125.238 377.732 122.286 381.434 122.286 381.434L126.106 384.365L138.431 379.312Z" fill="#FFCEA9"/>
<path id="Vector_117" d="M511.639 167.153L483.326 150.751C482.867 150.44 482.342 150.24 481.792 150.164C481.243 150.089 480.684 150.141 480.158 150.317C479.928 150.411 479.713 150.537 479.519 150.691L474.326 153.67L477.941 158.687V185.617C477.941 189.572 480.35 194.167 483.314 195.88L508.289 210.352L509.109 216.008C509.277 215.924 513.578 213.451 514.94 212.655C515.071 212.595 515.196 212.522 515.313 212.438C515.893 211.914 516.342 211.262 516.625 210.533C516.907 209.804 517.015 209.019 516.94 208.241V177.416C517 173.46 514.603 168.841 511.639 167.153Z" fill="#D9DAE2"/>
<path id="Vector_118" d="M505.783 215.646L477.471 199.28C474.507 197.568 472.109 192.973 472.109 189.017V158.204C472.109 154.248 474.519 152.439 477.471 154.152L505.783 170.505C508.747 172.218 511.157 176.825 511.157 180.78V211.582C511.157 215.537 508.747 217.358 505.783 215.646Z" fill="#EFF0F9"/>
<path id="Vector_119" d="M480.459 169.746C480.459 168.009 480.953 166.887 481.929 166.369C482.904 165.85 484.182 166.043 485.76 166.96C487.357 167.883 488.69 169.204 489.627 170.795C490.581 172.356 491.086 174.151 491.085 175.981V177.38C491.085 179.128 490.603 180.25 489.627 180.756C488.651 181.263 487.374 181.046 485.796 180.129C484.196 179.209 482.863 177.887 481.929 176.294C480.971 174.738 480.462 172.948 480.459 171.12V169.746ZM483.688 173.11C483.688 173.884 483.887 174.644 484.266 175.317C484.616 175.982 485.146 176.534 485.796 176.909C486.422 177.271 486.916 177.319 487.29 177.054C487.499 176.847 487.658 176.595 487.754 176.317C487.85 176.039 487.881 175.742 487.844 175.45V174.015C487.844 173.245 487.653 172.487 487.29 171.808C486.944 171.137 486.413 170.581 485.76 170.204C485.559 170.047 485.318 169.95 485.065 169.922C484.812 169.894 484.556 169.938 484.326 170.047C483.941 170.3 483.748 170.843 483.748 171.687L483.688 173.11ZM486.736 194.167L484.326 191.321L496.374 176.077L498.784 178.923L486.736 194.167ZM492.145 192.479C492.145 190.73 492.639 189.608 493.627 189.102C494.615 188.595 495.892 188.812 497.458 189.717C499.045 190.64 500.371 191.952 501.314 193.528C502.282 195.097 502.791 196.906 502.784 198.75V200.149C502.784 201.873 502.302 203.007 501.338 203.514C500.374 204.02 499.097 203.815 497.494 202.886C495.888 201.966 494.55 200.639 493.615 199.039C492.666 197.498 492.158 195.725 492.145 193.914V192.479ZM495.374 195.856C495.39 196.622 495.597 197.372 495.976 198.038C496.325 198.709 496.85 199.272 497.494 199.666C498.856 200.462 499.543 199.98 499.543 198.231V196.748C499.542 195.98 499.347 195.225 498.976 194.553C498.627 193.892 498.102 193.341 497.458 192.961C497.25 192.792 496.996 192.686 496.729 192.659C496.461 192.631 496.191 192.681 495.952 192.804C495.732 193.001 495.563 193.249 495.463 193.527C495.362 193.805 495.331 194.104 495.374 194.396V195.856Z" fill="#E26161"/>
<path id="Vector_120" d="M149.466 81.2124L121.154 64.847C120.694 64.5361 120.17 64.3353 119.62 64.26C119.071 64.1847 118.511 64.237 117.985 64.4128C117.758 64.5118 117.544 64.6373 117.347 64.7867L112.154 67.7655L115.768 72.7824V99.7124C115.768 103.668 118.178 108.263 121.13 109.975L146.105 124.447L146.936 130.116L152.756 126.751C152.884 126.69 153.009 126.621 153.129 126.546C153.714 126.026 154.167 125.374 154.452 124.645C154.737 123.915 154.845 123.128 154.768 122.349V91.4754C154.84 87.5198 152.43 82.9249 149.466 81.2124Z" fill="#D9DAE2"/>
<path id="Vector_121" d="M143.623 129.706L115.311 113.365C112.347 111.652 109.937 107.058 109.937 103.102V72.2765C109.937 68.3209 112.347 66.4998 115.311 68.2123L143.623 84.5777C146.587 86.2903 148.985 90.8851 148.985 94.8408V125.642C148.985 129.598 146.587 131.455 143.623 129.706Z" fill="#EFF0F9"/>
<path id="Vector_122" d="M129.467 84.4082L133.298 95.6119L141.888 102.016L135.672 105.429L137.141 116.15L129.467 107.057L121.78 107.274L123.25 98.241L117.033 87.6523L125.624 91.1739L129.467 84.4082Z" fill="#F9CB07"/>
</g>
</g>
</g>
<defs>
<linearGradient id="paint0_linear" x1="110.857" y1="387.613" x2="122.426" y2="367.503" gradientUnits="userSpaceOnUse">
<stop offset="0.21" stop-color="white" stop-opacity="0"/>
<stop offset="1" stop-color="white" stop-opacity="0.2"/>
</linearGradient>
<clipPath id="clip0">
<rect width="517" height="603" fill="white"/>
</clipPath>
</defs>
</svg>
