<svg width="534" height="603" viewBox="0 0 534 603" fill="none" xmlns="http://www.w3.org/2000/svg">
<g id="Cloud_database_SVG">
<g id="&#208;&#161;&#208;&#187;&#208;&#190;&#208;&#185; 2">
<g id="&#208;&#161;&#208;&#187;&#208;&#190;&#208;&#185; 1">
<g id="Group">
<path id="Vector" d="M534 288.85L533.976 299.679L425.786 362.621L425.822 351.791L534 288.85Z" fill="#D3D3DD"/>
<path id="Vector_2" d="M425.822 351.791L425.786 362.621L316.897 299.679L316.933 288.85L425.822 351.791Z" fill="#E0DEE9"/>
<path id="Vector_3" d="M534 288.85L425.822 351.791L316.933 288.85L425.111 225.896L534 288.85Z" fill="#EAEAF4"/>
<path id="Vector_4" d="M517.125 124.689L516.667 287.174L425.617 340.153L426.075 177.669L517.125 124.689Z" fill="#D3D3DD"/>
<path id="Vector_5" d="M426.075 177.669L425.617 340.153L333.965 287.174L334.423 124.689L426.075 177.669Z" fill="#E0DEE9"/>
<path id="Vector_6" d="M517.125 124.69L426.075 177.67L334.423 124.69L425.485 71.7227L517.125 124.69Z" fill="#EAEAF4"/>
<path id="Vector_7" d="M358.044 195.735L358.007 212.583L343.373 204.129L343.421 187.281L358.044 195.735Z" fill="#2A313F"/>
<path id="Vector_8" d="M358.116 172.314L358.068 189.15L343.433 180.683L343.481 163.848L358.116 172.314Z" fill="#2A313F"/>
<path id="Vector_9" d="M358.188 148.87L358.128 165.718L343.505 157.264L343.541 140.416L358.188 148.87Z" fill="#2A313F"/>
<path id="Vector_10" d="M417.186 253.394L417.137 270.242L364.62 239.887L364.669 223.039L417.186 253.394Z" fill="#2A313F"/>
<path id="Vector_11" d="M417.246 229.96L417.21 246.808L364.693 216.453L364.741 199.605L417.246 229.96Z" fill="#2A313F"/>
<path id="Vector_12" d="M417.318 206.529L417.27 223.365L364.753 193.01L364.813 176.174L417.318 206.529Z" fill="#2A313F"/>
<path id="Vector_13" d="M417.378 183.095L417.342 199.943L364.825 169.588L364.873 152.74L417.378 183.095Z" fill="#2A313F"/>
<path id="Vector_14" d="M357.911 242.601L357.875 259.448L343.24 250.994L343.288 234.146L357.911 242.601Z" fill="#2A313F"/>
<path id="Vector_15" d="M357.983 219.179L357.935 236.027L343.3 227.561L343.348 210.713L357.983 219.179Z" fill="#2A313F"/>
<path id="Vector_16" d="M417.113 276.826L417.065 293.674L364.56 263.319L364.608 246.471L417.113 276.826Z" fill="#2A313F"/>
<path id="Vector_17" d="M449.19 198.256L449.238 215.104L434.591 223.57L434.543 206.722L449.19 198.256Z" fill="#2A313F"/>
<path id="Vector_18" d="M449.117 174.811L449.166 191.658L434.531 200.124L434.483 183.277L449.117 174.811Z" fill="#2A313F"/>
<path id="Vector_19" d="M508.585 234.338L508.633 251.174L456.116 281.529L456.068 264.693L508.585 234.338Z" fill="#2A313F"/>
<path id="Vector_20" d="M508.512 210.906L508.561 227.754L456.056 258.097L456.007 241.261L508.512 210.906Z" fill="#2A313F"/>
<path id="Vector_21" d="M508.452 187.475L508.5 204.31L455.983 234.665L455.935 217.83L508.452 187.475Z" fill="#2A313F"/>
<path id="Vector_22" d="M508.38 164.029L508.428 180.877L455.923 211.232L455.875 194.384L508.38 164.029Z" fill="#2A313F"/>
<path id="Vector_23" d="M508.32 140.596L508.368 157.444L455.851 187.799L455.803 170.951L508.32 140.596Z" fill="#2A313F"/>
<path id="Vector_24" d="M449.383 268.553L449.443 285.389L434.796 293.855L434.748 277.019L449.383 268.553Z" fill="#2A313F"/>
<path id="Vector_25" d="M449.322 245.121L449.37 261.969L434.723 270.435L434.687 253.587L449.322 245.121Z" fill="#2A313F"/>
<path id="Vector_26" d="M449.262 221.688L449.298 238.523L434.663 246.989L434.615 230.154L449.262 221.688Z" fill="#2A313F"/>
<path id="Vector_27" d="M516.703 274.064L516.667 287.174L425.617 340.153L425.569 326.743L516.703 274.064Z" fill="#9052FE"/>
<path id="Vector_28" d="M425.653 326.743L425.617 340.154L333.965 287.174L334.001 273.764L425.653 326.743Z" fill="#9052FE"/>
<g id="Group_2">
<path id="Vector_29" d="M425.051 126.848H426.087L431.291 129.863C427.568 130.99 423.595 130.99 419.872 129.863L425.051 126.848Z" fill="#2A313F"/>
<path id="Vector_30" d="M402.418 107.745C415.668 101.317 435.157 101.317 448.503 107.745L443.806 110.482C433.073 105.538 417.812 105.538 407.152 110.482L402.418 107.745Z" fill="#2A313F"/>
<path id="Vector_31" d="M410.476 112.401C420.103 108.481 430.878 108.481 440.505 112.401L435.771 115.15C429.146 112.691 421.86 112.691 415.234 115.15L410.476 112.401Z" fill="#2A313F"/>
<path id="Vector_32" d="M419.799 117.79C423.53 116.656 427.512 116.656 431.242 117.79L426.063 120.805C425.71 120.781 425.356 120.781 425.003 120.805L419.799 117.79Z" fill="#2A313F"/>
<path id="Vector_33" d="M430.821 124.122C430.845 123.921 430.845 123.719 430.821 123.519L436 120.516C436.461 120.935 436.829 121.446 437.081 122.016C437.333 122.586 437.463 123.203 437.463 123.826C437.463 124.449 437.333 125.066 437.081 125.636C436.829 126.206 436.461 126.717 436 127.137L430.821 124.122Z" fill="#2A313F"/>
<path id="Vector_34" d="M440.541 129.778C444.757 126.16 444.745 121.445 440.481 117.875L445.275 115.113C452.057 120.239 452.093 127.414 445.371 132.54L440.541 129.778Z" fill="#2A313F"/>
<path id="Vector_35" d="M410.561 117.875C406.333 121.493 406.369 126.208 410.633 129.778L405.899 132.54C399.118 127.414 399.07 120.239 405.791 115.113L410.561 117.875Z" fill="#2A313F"/>
<path id="Vector_36" d="M448.636 134.458C457.067 128.26 457.067 119.395 448.515 113.197L453.213 110.459C464.318 118.177 464.391 129.466 453.357 137.184L448.636 134.458Z" fill="#2A313F"/>
<path id="Vector_37" d="M407.297 137.184C418.017 142.116 433.302 142.116 443.962 137.184L448.684 139.909C435.434 146.337 415.945 146.337 402.611 139.909L407.297 137.184Z" fill="#2A313F"/>
<path id="Vector_38" d="M402.478 113.196C393.987 119.395 394.047 128.247 402.599 134.458L397.901 137.184C386.771 129.465 386.723 118.177 397.745 110.471L402.478 113.196Z" fill="#2A313F"/>
<path id="Vector_39" d="M415.343 132.504C421.949 134.952 429.213 134.952 435.82 132.504L440.638 135.254C431.007 139.173 420.228 139.173 410.597 135.254L415.343 132.504Z" fill="#2A313F"/>
<path id="Vector_40" d="M420.329 123.519C420.299 123.722 420.299 123.93 420.329 124.134L415.162 127.137C414.698 126.719 414.327 126.209 414.073 125.638C413.819 125.068 413.688 124.451 413.688 123.826C413.688 123.202 413.819 122.584 414.073 122.014C414.327 121.443 414.698 120.933 415.162 120.516L420.329 123.519Z" fill="#2A313F"/>
<path id="Vector_41" d="M375.317 380.844L375.28 391.674L267.102 454.627L267.127 443.797L375.317 380.844Z" fill="#D3D3DD"/>
<path id="Vector_42" d="M267.126 443.797L267.102 454.627L158.214 391.686L158.238 380.844L267.126 443.797Z" fill="#E0DEE9"/>
<path id="Vector_43" d="M375.316 380.843L267.126 443.797L158.238 380.843L266.428 317.902L375.316 380.843Z" fill="#EAEAF4"/>
<path id="Vector_44" d="M358.441 216.695L357.971 379.18L266.922 432.147L267.392 269.675L358.441 216.695Z" fill="#D3D3DD"/>
<path id="Vector_45" d="M267.392 269.675L266.922 432.147L175.282 379.168L175.74 216.695L267.392 269.675Z" fill="#E0DEE9"/>
<path id="Vector_46" d="M358.441 216.694L267.391 269.674L175.74 216.694L266.789 163.715L358.441 216.694Z" fill="#EAEAF4"/>
<path id="Vector_47" d="M199.36 287.74L199.312 304.587L184.677 296.121L184.725 279.273L199.36 287.74Z" fill="#2A313F"/>
<path id="Vector_48" d="M199.432 264.308L199.384 281.143L184.749 272.689L184.797 255.854L199.432 264.308Z" fill="#2A313F"/>
<path id="Vector_49" d="M199.493 240.876L199.445 257.724L184.81 249.258L184.858 232.41L199.493 240.876Z" fill="#2A313F"/>
<path id="Vector_50" d="M258.49 345.4L258.442 362.248L205.937 331.893L205.985 315.045L258.49 345.4Z" fill="#2A313F"/>
<path id="Vector_51" d="M258.562 321.966L258.514 338.814L206.009 308.447L206.045 291.611L258.562 321.966Z" fill="#2A313F"/>
<path id="Vector_52" d="M258.635 298.535L258.586 315.37L206.069 285.015L206.118 268.18L258.635 298.535Z" fill="#2A313F"/>
<path id="Vector_53" d="M258.695 275.089L258.647 291.937L206.142 261.582L206.19 244.746L258.695 275.089Z" fill="#2A313F"/>
<path id="Vector_54" d="M199.228 334.606L199.179 351.454L184.545 342.988L184.593 326.152L199.228 334.606Z" fill="#2A313F"/>
<path id="Vector_55" d="M199.3 311.173L199.252 328.021L184.617 319.567L184.665 302.719L199.3 311.173Z" fill="#2A313F"/>
<path id="Vector_56" d="M258.43 368.832L258.382 385.679L205.877 355.324L205.925 338.477L258.43 368.832Z" fill="#2A313F"/>
<path id="Vector_57" d="M290.506 290.248L290.554 307.096L275.907 315.562L275.859 298.714L290.506 290.248Z" fill="#2A313F"/>
<path id="Vector_58" d="M290.434 266.816L290.482 283.664L275.835 292.13L275.787 275.283L290.434 266.816Z" fill="#2A313F"/>
<path id="Vector_59" d="M349.889 326.344L349.937 343.18L297.432 373.535L297.384 356.699L349.889 326.344Z" fill="#2A313F"/>
<path id="Vector_60" d="M349.829 302.9L349.877 319.748L297.36 350.103L297.312 333.255L349.829 302.9Z" fill="#2A313F"/>
<path id="Vector_61" d="M349.756 279.479L349.805 296.314L297.3 326.669L297.251 309.821L349.756 279.479Z" fill="#2A313F"/>
<path id="Vector_62" d="M349.696 256.035L349.745 272.883L297.227 303.238L297.179 286.39L349.696 256.035Z" fill="#2A313F"/>
<path id="Vector_63" d="M349.624 232.602L349.672 249.449L297.167 279.792L297.119 262.945L349.624 232.602Z" fill="#2A313F"/>
<path id="Vector_64" d="M290.699 360.559L290.747 377.394L276.1 385.86L276.064 369.025L290.699 360.559Z" fill="#2A313F"/>
<path id="Vector_65" d="M290.639 337.113L290.675 353.961L276.04 362.427L275.992 345.579L290.639 337.113Z" fill="#2A313F"/>
<path id="Vector_66" d="M290.566 313.693L290.615 330.529L275.98 338.995L275.919 322.159L290.566 313.693Z" fill="#2A313F"/>
<path id="Vector_67" d="M358.02 366.07L357.984 379.167L266.934 432.147L266.898 418.736L358.02 366.07Z" fill="#9052FE"/>
<path id="Vector_68" d="M266.97 418.735L266.934 432.146L175.282 379.167L175.318 365.756L266.97 418.735Z" fill="#9052FE"/>
<path id="Vector_69" d="M266.368 218.842C266.709 218.866 267.051 218.866 267.392 218.842L272.607 221.857C268.885 222.99 264.91 222.99 261.188 221.857L266.368 218.842Z" fill="#2A313F"/>
<path id="Vector_70" d="M243.735 199.751C256.984 193.323 276.462 193.323 289.82 199.751L285.122 202.476C274.39 197.532 259.116 197.532 248.456 202.476L243.735 199.751Z" fill="#2A313F"/>
<path id="Vector_71" d="M251.781 204.394C261.414 200.486 272.188 200.486 281.822 204.394L277.088 207.155C270.459 204.695 263.168 204.695 256.539 207.155L251.781 204.394Z" fill="#2A313F"/>
<path id="Vector_72" d="M261.116 209.844C264.842 208.711 268.821 208.711 272.547 209.844L267.379 212.847H266.319L261.116 209.844Z" fill="#2A313F"/>
<path id="Vector_73" d="M272.077 216.128C272.101 215.927 272.101 215.725 272.077 215.525L277.256 212.51C277.715 212.93 278.082 213.442 278.333 214.011C278.584 214.581 278.713 215.197 278.713 215.82C278.713 216.443 278.584 217.059 278.333 217.629C278.082 218.199 277.715 218.71 277.256 219.131L272.077 216.128Z" fill="#2A313F"/>
<path id="Vector_74" d="M281.858 221.784C286.074 218.166 286.05 213.439 281.798 209.869L286.519 207.119C293.301 212.233 293.349 219.42 286.628 224.534L281.858 221.784Z" fill="#2A313F"/>
<path id="Vector_75" d="M251.865 209.845C247.649 213.463 247.686 218.191 251.938 221.761L247.204 224.51C240.422 219.397 240.386 212.209 247.107 207.096L251.865 209.845Z" fill="#2A313F"/>
<path id="Vector_76" d="M289.892 226.452C298.324 220.265 298.324 211.401 289.771 205.202L294.469 202.465C305.587 210.183 305.659 221.471 294.614 229.19L289.892 226.452Z" fill="#2A313F"/>
<path id="Vector_77" d="M248.613 229.141C259.321 234.073 274.607 234.073 285.267 229.141L289.988 231.866C276.739 238.294 257.261 238.294 243.915 231.866L248.613 229.141Z" fill="#2A313F"/>
<path id="Vector_78" d="M243.783 205.202C235.351 211.389 235.351 220.253 243.903 226.452L239.218 229.141C228.088 221.423 228.028 210.134 239.061 202.416L243.783 205.202Z" fill="#2A313F"/>
<path id="Vector_79" d="M256.647 224.498C263.254 226.946 270.517 226.946 277.124 224.498L281.942 227.26C272.315 231.179 261.54 231.179 251.913 227.26L256.647 224.498Z" fill="#2A313F"/>
<path id="Vector_80" d="M261.646 215.525C261.61 215.724 261.61 215.928 261.646 216.128L256.466 219.143C256.004 218.723 255.634 218.212 255.381 217.64C255.128 217.069 254.997 216.451 254.997 215.826C254.997 215.201 255.128 214.583 255.381 214.012C255.634 213.441 256.004 212.929 256.466 212.51L261.646 215.525Z" fill="#2A313F"/>
<g id="Group_3" opacity="0.4">
<g id="Group_4" opacity="0.4">
<path id="Vector_81" opacity="0.4" d="M461.512 552.722C463.752 546.692 455.887 538.166 443.938 533.727C431.989 529.289 420.486 530.64 418.246 536.67C416.005 542.7 423.871 551.227 435.82 555.677C447.768 560.127 459.26 558.8 461.512 552.746" fill="#D6D8E5"/>
</g>
</g>
<g id="Group_5" opacity="0.4">
<g id="Group_6" opacity="0.4">
<path id="Vector_82" opacity="0.4" d="M296.131 452.685C299.119 459.186 311.923 459.68 324.751 453.795C337.579 447.91 345.553 437.864 342.578 431.363C339.602 424.863 326.798 424.369 313.97 430.254C301.142 436.139 293.156 446.185 296.131 452.685Z" fill="#D6D8E5"/>
</g>
</g>
<path id="Vector_83" d="M439.457 396.606C440.553 394.834 448.937 393.676 451.695 400.791C452.743 403.493 452.586 410.439 453.466 414.72C454.345 419.002 456.393 421.51 457.14 425.032C457.886 428.553 456.67 434.439 448.214 435.476C439.758 436.513 433.242 433.546 431.242 430.845C429.243 428.143 429.195 422.403 431.242 419.315C433.29 416.228 434.856 413.732 434.856 409.667L439.457 396.606Z" fill="#3A2C6D"/>
<path id="Vector_84" d="M444.998 395.376C444.998 395.376 438.674 393.555 434.844 396.968C433.583 398.135 432.665 399.625 432.189 401.276C431.714 402.928 431.699 404.679 432.146 406.338C432.664 408.34 433.676 411.066 435.266 411.162C436.855 411.259 444.998 395.328 444.998 395.328" fill="#3A2C6D"/>
<path id="Vector_85" d="M447.407 412.621C447.407 412.621 446.998 419.676 447.118 420.195C447.239 420.713 449.888 421.208 450.623 421.823C451.358 422.438 446.793 429.589 444.468 430.651C442.143 431.712 434.964 428.999 434.459 425.417C434.001 422.124 436.518 419.556 437.494 418.663C438.152 418.618 438.812 418.618 439.469 418.663L439.686 415.25C442.83 414.237 447.407 412.669 447.407 412.669" fill="#FFCEA9"/>
<path id="Vector_86" d="M430.387 425.937C430.387 425.744 429.327 426.31 429.303 426.322C429.279 426.334 428.809 444.412 427.918 446.053C425.665 449.888 419.691 456.388 419.546 457.112C419.113 459.307 420.378 457.341 422.425 457.112C423.63 456.967 430.363 450.093 431.893 448.525L431.989 448.585C431.989 448.525 431.989 448.465 431.989 448.404L432.194 448.199C432.229 447.714 432.229 447.226 432.194 446.74C435 427.118 431.531 425.804 430.315 425.949" fill="#FFCEA9"/>
<path id="Vector_87" d="M448.371 420.896C450.346 421.209 452.611 422.259 452.924 423.308C453.738 427.216 453.544 431.267 452.358 435.078C450.647 439.613 449.491 442.495 448.503 444.449C448.503 444.449 439.951 448.067 433.049 443.846C433.049 443.846 432.579 439.022 432.543 436.381C426.171 430.821 431.616 423.959 437.012 418.629C437.661 418.574 438.314 418.574 438.963 418.629C438.963 418.629 434.145 424.321 437.494 427.565C444.661 425.394 446.082 422.174 448.335 420.884" fill="#F4F4F4"/>
<path id="Vector_88" d="M434.254 403.891C434.964 399.368 438.241 395.943 442.902 396.221C444.776 396.326 446.57 397.017 448.031 398.198C449.492 399.378 450.545 400.988 451.043 402.8C451.541 404.612 451.457 406.535 450.805 408.298C450.153 410.06 448.964 411.573 447.407 412.622C447.247 413.309 447.004 413.973 446.684 414.6C445.034 416.53 440.662 417.748 439.204 417.772C438 417.772 436.867 416.566 435.699 414.673C433.29 410.62 433.868 406.122 434.254 403.891Z" fill="#FFCEA9"/>
<path id="Vector_89" d="M444.348 396.293C447.612 396.944 450.31 397.861 451.189 401.117C451.804 403.324 452.599 407.557 451.84 409.33L451.37 410.62L447.407 412.659C447.407 412.659 445.564 411.115 446.13 406.629C446.115 406.016 445.923 405.421 445.576 404.916C445.329 404.491 445.146 404.032 445.034 403.553C444.565 402.331 443.647 401.335 442.469 400.767C439.517 399.115 435.241 400.55 434.591 401.141C435.416 399.337 436.837 397.873 438.613 396.994C440.39 396.116 442.415 395.877 444.348 396.317" fill="#3A2C6D"/>
<path id="Vector_90" d="M450.298 539.504C448.648 540.855 446.07 539.926 445.938 540.047C444.016 541.703 442.006 543.253 439.915 544.69C438.879 545.498 437.277 546.583 437.566 548.151C438.084 550.937 442.553 550.081 444.239 549.224C445.926 548.368 447.299 546.957 448.889 545.968C450.033 545.257 451.153 544.895 451.298 543.448C451.406 542.579 450.599 539.48 450.31 539.504" fill="#38226D"/>
<path id="Vector_91" d="M451.298 542.871C451.069 544.257 449.973 544.631 448.889 545.283C447.263 546.296 445.841 547.695 444.155 548.599C442.469 549.504 438.722 550.179 437.626 548.177C438.217 550.878 442.601 550.022 444.275 549.178C445.95 548.334 447.335 546.911 448.925 545.922C450.069 545.21 451.189 544.848 451.334 543.401C451.357 543.209 451.357 543.015 451.334 542.822" fill="#9C73FF"/>
<path id="Vector_92" d="M438.686 537.189C437.169 538.395 434.88 537.732 434.76 537.841C432.991 539.352 431.142 540.766 429.219 542.074C428.279 542.809 426.81 543.81 427.063 545.246C427.544 547.802 431.64 547.018 433.182 546.234C434.723 545.451 435.988 544.148 437.446 543.244C438.481 542.592 439.505 542.255 439.674 540.94C439.625 539.632 439.288 538.351 438.686 537.189Z" fill="#38226D"/>
<path id="Vector_93" d="M439.65 540.41C439.445 541.616 438.445 542.026 437.41 542.665C435.916 543.582 434.615 544.921 433.073 545.704C431.531 546.488 428.087 547.14 427.051 545.319C427.593 547.731 431.616 547.007 433.146 546.235C434.675 545.463 435.94 544.149 437.41 543.244C438.445 542.593 439.469 542.255 439.638 540.941C439.654 540.764 439.654 540.587 439.638 540.41" fill="#9C73FF"/>
<path id="Vector_94" d="M429.761 460.066C430.484 454.35 432.592 446.053 432.592 446.053C434.58 446.986 436.733 447.519 438.927 447.621C442.141 447.608 445.347 447.297 448.503 446.692C449.535 448.495 450.661 450.242 451.876 451.926C453.526 454.205 456.694 459.162 455.959 467.978C455.453 473.706 452.249 498.007 452.249 498.007C453.493 502.095 454.154 506.337 454.213 510.61C453.912 515.685 453.244 520.731 452.213 525.709L450.298 539.506C450.298 539.506 447.756 541.351 445.938 540.048L446.166 526.553C445.95 523.249 445.624 518.365 445.42 515.253C445.07 510.188 444.215 502.132 443.902 500.13C443.589 498.128 442.999 494.606 442.697 490.663C442.396 486.719 440.903 466.724 440.903 466.724L440.698 470.474C440.698 470.474 440.505 476.504 439.626 484.054C438.747 491.603 438.421 494.908 438.421 494.908C439.245 496.414 439.822 498.043 440.132 499.732C440.288 501.36 442.143 514.204 441.035 520.716L438.759 537.311C438.193 537.7 437.544 537.951 436.864 538.041C436.183 538.131 435.491 538.058 434.844 537.829L433.507 521.102C432.604 514.734 430.712 501.251 430.411 499.491C429.775 495.957 429.396 492.382 429.279 488.793C428.845 481.557 429.002 465.783 429.737 460.066" fill="#FFCEA9"/>
<path id="Vector_95" d="M448.503 444.46L453.418 454.349C453.418 454.349 460.922 465.348 453.153 493.605L454.61 502.324C454.61 502.324 439.891 511.779 430.05 502.324C430.05 502.324 426.629 476.214 428.448 464.166C429.456 457.225 430.99 450.372 433.037 443.664C433.037 443.664 435.446 446.329 447.853 444.569" fill="#FF7B7B"/>
<path id="Vector_96" d="M437.012 418.639C437.012 418.639 433.109 417.433 428.954 426.116L430.508 427.045C430.508 427.045 434.591 420.87 437.012 418.603" fill="#EDEDED"/>
<path id="Vector_97" d="M406.514 465.638L423.317 455.857L435.386 462.828L418.571 472.609L406.514 465.638Z" fill="#F4F4F4"/>
<path id="Vector_98" d="M421.185 456.569C420.131 456.681 419.114 457.014 418.197 457.546C417.871 457.842 417.516 458.104 417.138 458.33C416.969 458.414 416.812 458.523 416.632 458.595C416.374 458.68 416.145 458.834 415.969 459.041C415.779 459.314 415.674 459.637 415.668 459.97C415.61 460.37 415.61 460.776 415.668 461.176C415.813 461.779 416.439 461.743 416.776 461.321C416.934 461.106 417.03 460.851 417.053 460.585C417.059 460.329 417.127 460.077 417.25 459.853C417.374 459.628 417.55 459.437 417.764 459.295L421.775 456.798C421.723 456.707 421.644 456.635 421.549 456.591C421.454 456.548 421.347 456.536 421.245 456.557" fill="#FFCEA9"/>
<path id="Vector_99" d="M453.128 426.418C452.574 424.126 450.78 424.862 449.25 423.523C445.636 428.589 448.045 442.289 448.527 443.748L434.808 452.504L433.892 453.083C432.323 454.098 430.598 454.848 428.785 455.302C427.412 455.458 426.701 457.388 425.232 457.569C425.12 457.572 425.012 457.609 424.921 457.673C424.83 457.738 424.76 457.828 424.72 457.933C424.68 458.037 424.672 458.151 424.697 458.26C424.721 458.369 424.778 458.469 424.858 458.546C425.449 459.112 427.014 458.642 428.087 457.34C428.087 457.34 428.087 457.4 428.087 457.436C428.099 457.637 428.162 457.832 428.269 458.003C428.377 458.174 428.525 458.315 428.701 458.413C428.782 458.448 428.867 458.473 428.954 458.485C428.955 458.579 428.98 458.67 429.026 458.751C429.105 458.908 429.221 459.043 429.364 459.146C429.506 459.249 429.671 459.316 429.845 459.342C429.917 459.577 430.071 459.779 430.278 459.912C430.486 460.045 430.734 460.099 430.977 460.065C431.288 460.051 431.582 459.917 431.796 459.691C432.967 459.241 434.001 458.493 434.796 457.521C435.169 457.05 436.482 455.941 437.024 455.446C440.746 453.854 451.912 449.079 452.406 448.391C453.153 447.378 453.935 429.626 453.141 426.358" fill="#FFCEA9"/>
<path id="Vector_100" d="M454.381 432.581C454.381 432.581 449.985 434.559 446.347 432.714L446.877 425.84C446.877 425.84 446.877 422.137 450.226 421.775C453.574 421.414 455.2 425.635 454.381 432.629" fill="#EDEDED"/>
<path id="Vector_101" d="M311.995 48.24L312.344 48.0832C312.802 47.8902 313.26 47.7214 313.717 47.5646H313.802C314.223 47.4199 314.645 47.2993 315.006 47.1787H315.271C315.929 46.9963 316.597 46.8513 317.271 46.7445H317.415C317.933 46.6722 318.451 46.6239 318.957 46.5998H319.258C319.74 46.5998 320.21 46.5998 320.679 46.5998H320.981C321.342 46.5998 321.691 46.6722 322.041 46.7204H322.366C322.775 46.7928 323.185 46.8893 323.57 46.9978H323.715C324.054 47.0963 324.388 47.213 324.715 47.3475L325.04 47.4923L325.919 47.9144L326.22 48.0711L284.339 23.6979L284.207 23.6255L284.038 23.5411L283.159 23.119L282.99 23.0346L282.845 22.9743C282.508 22.8416 282.171 22.721 281.834 22.6245H281.713C281.316 22.516 280.918 22.4195 280.509 22.3472H280.388H280.183C279.834 22.3472 279.485 22.2507 279.124 22.2266H278.919H278.822C278.353 22.2266 277.883 22.2266 277.401 22.2266H277.293H277.1C276.594 22.2266 276.088 22.2989 275.558 22.3713H275.438C274.764 22.4781 274.096 22.623 273.438 22.8054H273.282H273.173C272.752 22.926 272.33 23.0466 271.969 23.1914H271.884C271.427 23.3481 270.969 23.517 270.511 23.7099H270.403L270.162 23.8305C269.74 24.0114 269.307 24.2044 268.873 24.4215C268.729 24.4938 268.572 24.5541 268.427 24.6386C267.885 24.9039 267.343 25.1933 266.801 25.5189L308.755 49.9284C309.297 49.6028 309.839 49.3133 310.381 49.048L310.827 48.8309C311.26 48.6138 311.682 48.4209 312.115 48.24" fill="#EAEAF4"/>
<path id="Vector_102" d="M287.483 39.2207C288.182 38.9072 288.88 38.6177 289.555 38.3765H289.651C290.236 38.1798 290.831 38.0147 291.434 37.8821C291.771 37.7936 292.108 37.7213 292.446 37.665C292.843 37.5801 293.246 37.5157 293.65 37.472L294.373 37.3997C294.903 37.3997 295.421 37.3997 295.927 37.3997H296.276C296.874 37.4381 297.47 37.5146 298.059 37.6288L298.492 37.7253C298.941 37.83 299.383 37.9588 299.817 38.1112L300.227 38.2559C300.773 38.465 301.301 38.7192 301.805 39.0157L259.972 14.5339L259.839 14.4616C259.448 14.2432 259.046 14.046 258.635 13.8706L258.394 13.7862L257.984 13.6415L257.358 13.4123L256.647 13.2676L256.214 13.1711H255.985C255.502 13.0856 255.016 13.0253 254.527 12.9902H254.082C253.708 12.9902 253.323 12.9902 252.877 12.9902C252.745 12.9902 252.612 12.9902 252.467 12.9902L251.745 13.0747C251.528 13.0747 251.311 13.0747 251.082 13.0747L250.48 13.2073C250.143 13.2636 249.805 13.336 249.468 13.4244L248.938 13.5329C248.529 13.6415 248.107 13.7741 247.734 13.9189H247.637C247.168 14.0877 246.686 14.2686 246.192 14.4736L245.566 14.751L244.975 15.0284C244.241 15.3661 243.506 15.7399 242.759 16.1741C242.012 16.6082 240.952 17.2836 240.061 17.9228L282.014 42.3322C282.894 41.7051 283.797 41.1262 284.713 40.5835C285.628 40.0408 286.194 39.7755 286.929 39.4378L287.519 39.1725" fill="#EAEAF4"/>
<path id="Vector_103" d="M247.854 27.3168L248.493 27.0394C249.119 26.7862 249.697 26.545 250.36 26.3279L250.709 26.1952C251.444 25.954 252.166 25.7249 252.889 25.5319C253.299 25.4113 253.72 25.3148 254.094 25.2184L254.708 25.0736C255.298 24.941 255.912 24.8445 256.454 24.748H256.551C257.129 24.6636 257.755 24.6033 258.261 24.543H258.803H259.803C260.585 24.5007 261.369 24.5007 262.152 24.543H262.561C263.176 24.543 263.766 24.6636 264.392 24.7601L264.958 24.8566C265.649 24.974 266.333 25.131 267.006 25.3269H267.09C267.716 25.5113 268.331 25.7287 268.933 25.9781L269.451 26.1952C269.969 26.4244 270.463 26.6656 270.957 26.9309L271.439 27.1841L229.497 2.73851L229.28 2.61791L229.016 2.48525C228.534 2.21993 228.028 1.97873 227.51 1.74959L227.257 1.61693L227.016 1.53251C226.414 1.2831 225.798 1.06571 225.173 0.88127H225.113C224.432 0.676365 223.741 0.511266 223.041 0.38681H222.8H222.475C221.873 0.29033 221.27 0.21797 220.644 0.16973C220.544 0.175633 220.443 0.175633 220.343 0.16973H220.247C219.444 0.125715 218.64 0.125715 217.838 0.16973H217.621H216.85H216.308C215.754 0.23003 215.176 0.29033 214.609 0.37475H214.525C213.947 0.45917 213.321 0.56771 212.779 0.70037C212.562 0.70037 212.357 0.79685 212.152 0.84509C211.947 0.89333 211.405 1.01393 211.032 1.12247H210.912C210.189 1.31543 209.466 1.54457 208.731 1.78577L208.382 1.91843C207.768 2.13551 207.178 2.37671 206.515 2.62997L206.31 2.70233C206.166 2.70233 206.021 2.84705 205.877 2.89529C205.214 3.18473 204.552 3.48623 203.877 3.81185L203.142 4.17365C202.275 4.60781 201.408 5.06609 200.541 5.57261C199.336 6.26003 198.132 7.00775 196.999 7.79165C196.59 8.06903 196.204 8.38259 195.795 8.67203C195.048 9.20267 194.289 9.73331 193.554 10.3001C193.085 10.6619 192.639 11.0599 192.181 11.5061C191.519 12.0368 190.856 12.5674 190.206 13.1342C189.555 13.7011 189.266 14.0146 188.785 14.4608C188.303 14.9071 187.58 15.5704 186.966 16.1613L186.881 16.2337C185.982 17.1422 185.091 18.0708 184.207 19.0195L183.485 19.8275C183.147 20.2014 182.81 20.5632 182.473 20.9491C182.136 21.335 182.039 21.4798 181.822 21.7451C181.196 22.4928 180.618 23.2405 179.967 24.0003C179.727 24.3139 179.462 24.6033 179.209 24.9289C178.956 25.2545 178.859 25.4113 178.679 25.6525C178.221 26.2435 177.787 26.8585 177.342 27.4615C177.065 27.8474 176.775 28.2092 176.51 28.5952C176.245 28.9811 176.149 29.1499 175.956 29.4152C175.595 29.9459 175.234 30.4886 174.884 31.0313C174.535 31.574 174.378 31.7549 174.138 32.1287L173.487 33.2021L172.572 34.6975L172.042 35.5779C171.741 36.0844 171.476 36.5909 171.186 37.0975L170.428 38.4723L170.127 39.015C169.717 39.7868 169.332 40.5707 168.922 41.3546L168.452 42.2953L168.356 42.4883C167.79 43.6943 167.26 44.8279 166.742 46.0098L166.67 46.1907C166.525 46.5163 166.405 46.854 166.26 47.1917C165.923 48.0118 165.573 48.8198 165.26 49.6037C165.188 49.7725 165.14 49.9293 165.08 50.0981C164.875 50.6288 164.694 51.1715 164.501 51.7021C164.309 52.2327 164.068 52.9081 163.875 53.4388C163.803 53.68 163.743 53.9091 163.67 54.1382C163.453 54.8015 163.261 55.4648 163.056 56.1281C162.851 56.7914 162.743 57.105 162.61 57.5994C162.55 57.8286 162.502 58.0577 162.442 58.2989C162.213 59.1673 162.008 60.0235 161.803 60.8918C161.695 61.3501 161.562 61.8084 161.466 62.2546C161.37 62.7008 161.309 63.0023 161.237 63.3762C160.816 63.6174 160.382 63.8345 159.948 64.0877C159.033 64.6184 158.142 65.1973 157.25 65.7882L156.792 66.0897C155.937 66.6686 155.094 67.2957 154.263 67.9228L153.781 68.3087C152.938 68.972 152.107 69.6474 151.288 70.371L151.071 70.5639C150.276 71.2634 149.505 71.9991 148.734 72.7468L148.493 72.9639L148.349 73.1207C147.759 73.6996 147.144 74.3267 146.602 74.9056L146.518 75.002C145.976 75.593 145.434 76.208 144.904 76.7869L144.759 76.9558L144.567 77.1849C143.711 78.1859 142.868 79.211 142.049 80.2602L141.977 80.3446L141.796 80.5979C141.146 81.4421 140.507 82.3104 139.893 83.1787L139.7 83.444C139.665 83.4835 139.637 83.5283 139.616 83.5767C139.014 84.4209 138.411 85.2892 137.882 86.1575L137.713 86.4108C137.63 86.5351 137.553 86.664 137.484 86.7967C137.026 87.5123 136.581 88.2359 136.147 88.9675C136.086 89.0843 136.017 89.197 135.942 89.3052L135.87 89.4379C135.376 90.2821 134.906 91.1383 134.449 91.9946L134.34 92.1996L134.123 92.6217C133.762 93.3051 133.413 93.9925 133.075 94.684L132.859 95.1181C132.823 95.2048 132.783 95.2894 132.738 95.3714C132.329 96.2518 131.919 97.1201 131.534 98.0125V98.0849L131.425 98.3743C131.076 99.1703 130.751 99.9662 130.438 100.786L130.281 101.184C130.281 101.281 130.209 101.401 130.161 101.51C129.799 102.451 129.462 103.403 129.137 104.356L129.076 104.525C128.751 105.514 128.462 106.503 128.173 107.48C128.144 107.606 128.108 107.731 128.065 107.853C128.069 107.922 128.069 107.99 128.065 108.059C127.751 109.192 127.474 110.338 127.221 111.484L127.149 111.785C127.149 111.942 127.089 112.087 127.065 112.231C126.969 112.677 126.884 113.136 126.812 113.582C126.74 114.028 126.692 114.197 126.643 114.511C126.595 114.824 126.499 115.427 126.427 115.897C126.427 116.115 126.366 116.332 126.33 116.549C126.336 116.605 126.336 116.661 126.33 116.718C126.21 117.694 126.113 118.683 126.041 119.648V120.275C126.041 121.276 125.945 122.277 125.945 123.254C125.945 130.695 127.776 136.617 130.895 140.753C132.262 142.573 133.973 144.105 135.93 145.264L177.884 169.661C171.741 166.043 167.922 158.481 167.898 147.664C167.898 146.687 167.898 145.686 167.995 144.685V144.07C168.067 143.093 168.163 142.104 168.284 141.127L168.392 140.307C168.464 139.837 168.524 139.378 168.609 138.92C168.693 138.462 168.717 138.305 168.765 137.991C168.814 137.678 168.934 137.087 169.03 136.641C169.03 136.387 169.139 136.146 169.187 135.893C169.44 134.759 169.717 133.614 170.03 132.468C170.03 132.275 170.139 132.082 170.187 131.889C170.476 130.9 170.765 129.911 171.09 128.934L171.162 128.717C171.476 127.752 171.825 126.812 172.186 125.859C172.271 125.618 172.367 125.377 172.463 125.135C172.776 124.34 173.102 123.531 173.439 122.723C173.499 122.603 173.547 122.482 173.596 122.362C173.981 121.469 174.391 120.601 174.8 119.721L175.137 119.033C175.475 118.35 175.824 117.662 176.185 116.971L176.51 116.344C176.968 115.487 177.438 114.631 177.932 113.799L178.221 113.317C178.642 112.581 179.088 111.857 179.546 111.134L179.943 110.507C180.497 109.638 181.076 108.77 181.678 107.914L181.943 107.54C182.569 106.66 183.208 105.791 183.858 104.947L184.111 104.609C184.93 103.56 185.773 102.535 186.628 101.534L186.966 101.136C187.496 100.533 188.038 99.9301 188.58 99.3632L188.664 99.2547C189.242 98.6517 189.869 98.0487 190.411 97.4698L190.796 97.096C191.567 96.3482 192.35 95.6126 193.133 94.9131L193.35 94.7201C194.153 94.0046 194.984 93.3172 195.843 92.6579L196.325 92.272C197.156 91.6328 197.999 91.066 198.854 90.4388L199.3 90.1373C200.191 89.5464 201.095 88.9313 201.998 88.4489L203.299 87.7253C203.468 86.9053 203.672 86.0731 203.865 85.241C204.058 84.4088 204.275 83.5164 204.504 82.6481C204.732 81.7798 204.901 81.2009 205.118 80.4773C205.335 79.7537 205.515 79.1507 205.732 78.4874C205.949 77.8241 206.274 76.8713 206.563 76.0754C206.756 75.5327 206.937 74.99 207.141 74.4593C207.515 73.4704 207.912 72.4936 208.346 71.5167C208.49 71.179 208.611 70.8293 208.755 70.5037C209.322 69.1891 209.96 67.8987 210.538 66.6083L211.02 65.6676C211.49 64.7028 211.984 63.738 212.502 62.7853C212.754 62.327 213.007 61.8687 213.272 61.4104C213.722 60.6064 214.18 59.8024 214.646 58.9984C214.947 58.4919 215.248 57.9854 215.561 57.4909C216.019 56.7552 216.476 56.0317 216.958 55.3201C217.44 54.6086 217.669 54.2347 218.03 53.7041C218.392 53.1734 218.825 52.4619 219.319 51.8589C219.813 51.2559 220.198 50.6529 220.656 50.0378C221.114 49.4228 221.511 48.9404 221.945 48.3977C222.559 47.6379 223.149 46.8902 223.8 46.1424C224.45 45.3947 224.896 44.852 225.462 44.2249C225.703 43.9475 225.944 43.6822 226.197 43.4169C227.088 42.436 228.004 41.4833 228.943 40.5587C229.545 39.9677 230.148 39.3527 230.786 38.8341C231.425 38.3155 231.702 37.9537 232.183 37.5437C232.665 37.1336 233.508 36.4342 234.171 35.8794C234.629 35.5055 235.074 35.1196 235.532 34.7578C236.267 34.191 237.026 33.6604 237.784 33.1177L238.989 32.2493C240.193 31.4654 241.398 30.7177 242.53 30.0303C243.397 29.5238 244.265 29.0655 245.132 28.6313L245.867 28.2695C246.541 27.9439 247.204 27.6424 247.866 27.365" fill="#EAEAF4"/>
<path id="Vector_104" d="M242.518 29.9824C261.489 19.0199 277.449 24.7604 282.026 42.3801C282.895 41.7511 283.796 41.1674 284.725 40.6314C296.685 33.721 306.623 37.9782 308.634 49.9658C322.414 41.9821 333.255 48.2413 333.255 63.5936C333.255 77.8485 324.016 94.9496 312.007 103.573C311.019 104.272 310.08 104.899 309.116 105.454C308.219 105.974 307.294 106.445 306.346 106.865L202.106 167.31C183.183 178.248 167.802 169.48 167.742 147.7C167.681 125.92 182.955 99.4601 201.878 88.4975C202.323 88.2322 202.745 88.0151 203.178 87.7739C207.659 65.0167 223.535 40.9329 242.47 29.9824" fill="#D3D3DD"/>
<path id="Vector_105" d="M374.485 118.092C372.593 121.475 370.296 124.614 367.644 127.439C366.897 128.295 361.2 126.124 362.392 125.509C363.584 124.894 367.318 119.684 369.185 116.211C370.753 112.061 372.084 107.825 373.172 103.524C374.377 99.2788 375.353 93.0438 376.208 90.1012C376.429 89.013 376.959 88.0118 377.735 87.2181C378.51 86.4244 379.498 85.8718 380.58 85.6269C382.628 85.1566 383.953 85.7113 383.579 88.1957C382.929 92.5614 379.52 109.506 374.485 118.068" fill="#FFCEA9"/>
<path id="Vector_106" d="M377.75 184.518C375.991 185.965 373.377 184.651 373.257 184.783C371.178 186.706 368.999 188.518 366.728 190.21C365.632 191.079 363.91 192.248 364.223 193.913C364.777 196.891 369.547 195.975 371.342 195.058C373.136 194.142 374.606 192.646 376.316 191.585C377.521 190.825 378.725 190.439 378.906 188.896C379.026 187.979 378.075 184.482 377.701 184.518" fill="#38226D"/>
<path id="Vector_107" d="M378.882 188.221C378.653 189.692 377.473 190.102 376.268 190.85C374.546 191.923 373.016 193.479 371.221 194.383C369.426 195.288 365.415 196.06 364.247 193.937C364.885 196.807 369.559 195.903 371.342 194.998C373.124 194.094 374.606 192.586 376.316 191.525C377.521 190.765 378.725 190.379 378.906 188.836C378.934 188.632 378.934 188.425 378.906 188.221" fill="#9C73FF"/>
<path id="Vector_108" d="M359.839 174.123C358.068 175.57 355.02 173.991 354.84 174.123C353.008 175.996 351.065 177.756 349.022 179.393C347.914 180.262 346.203 181.42 346.504 183.084C347.071 186.075 351.828 185.158 353.635 184.29C355.442 183.422 356.899 181.878 358.598 180.804C359.802 180.057 361.007 179.659 361.2 178.127C361.308 177.199 360.152 174.135 359.839 174.171" fill="#38226D"/>
<path id="Vector_109" d="M361.151 177.668C360.91 179.139 359.73 179.549 358.526 180.297C356.803 181.37 355.273 182.926 353.479 183.831C351.684 184.735 347.673 185.507 346.504 183.384C347.143 186.255 351.828 185.35 353.599 184.458C355.37 183.565 356.863 182.046 358.574 180.972C359.778 180.213 360.983 179.827 361.163 178.295C361.187 178.087 361.187 177.876 361.163 177.668" fill="#9C73FF"/>
<path id="Vector_110" d="M401.382 127.752C403.346 140.005 397.901 144.576 390.843 147.181C385.772 149.05 378.497 151.933 378.497 151.933C378.497 151.933 378.605 154.622 378.653 160.652C378.713 165.971 378.003 185.363 378.003 185.363C377.166 185.795 376.239 186.02 375.299 186.02C374.358 186.02 373.431 185.795 372.594 185.363C372.594 185.363 369.752 170.505 369.149 163.812C368.33 154.719 366.933 148.773 367.403 146.819C367.8 145.095 377.726 140.21 380.881 137.593L360.091 144.564C360.504 146.824 360.706 149.117 360.694 151.414C360.501 158.65 360.103 174.232 360.103 174.232C360.103 174.232 357.249 176.294 354.816 174.232C354.816 174.232 349.588 143.334 350.226 139.258C350.829 135.374 369.149 127.451 372.366 124.713C372.929 124.255 373.583 123.92 374.285 123.731C374.986 123.542 375.719 123.503 376.437 123.616L401.382 127.752Z" fill="#8C50FF"/>
<path id="Vector_111" d="M351.539 132.866L365.5 124.786C365.622 124.715 365.762 124.678 365.903 124.678C366.045 124.678 366.184 124.715 366.307 124.786L390.807 138.956L376.437 147.254L351.539 132.866Z" fill="#F4F4F4"/>
<path id="Vector_112" d="M377.087 144.286L378.159 144.901C378.243 144.901 378.231 145.046 378.159 145.094L377.135 145.685C377.083 145.712 377.025 145.726 376.967 145.726C376.908 145.726 376.85 145.712 376.798 145.685L375.738 145.07C375.654 145.07 375.666 144.938 375.738 144.877L376.75 144.286C376.802 144.26 376.86 144.246 376.918 144.246C376.977 144.246 377.035 144.26 377.087 144.286Z" fill="#3A2C6D"/>
<path id="Vector_113" d="M375.582 143.419L376.654 144.034C376.738 144.034 376.726 144.167 376.654 144.227L375.63 144.818C375.577 144.845 375.52 144.858 375.461 144.858C375.402 144.858 375.345 144.845 375.292 144.818L374.232 144.203C374.148 144.203 374.148 144.07 374.232 144.01L375.244 143.419C375.296 143.393 375.354 143.379 375.413 143.379C375.471 143.379 375.529 143.393 375.582 143.419Z" fill="#3A2C6D"/>
<path id="Vector_114" d="M374.064 142.538L375.124 143.153C375.208 143.153 375.196 143.286 375.124 143.346L374.112 143.937C374.06 143.964 374.002 143.978 373.943 143.978C373.885 143.978 373.827 143.964 373.775 143.937L372.703 143.322C372.618 143.322 372.63 143.178 372.703 143.129L373.726 142.538C373.779 142.512 373.837 142.498 373.895 142.498C373.954 142.498 374.011 142.512 374.064 142.538Z" fill="#3A2C6D"/>
<path id="Vector_115" d="M372.57 141.669L373.63 142.284C373.727 142.284 373.715 142.429 373.63 142.489L372.618 143.068C372.567 143.097 372.509 143.113 372.45 143.113C372.391 143.113 372.332 143.097 372.281 143.068L371.209 142.453C371.125 142.453 371.137 142.32 371.209 142.26L372.221 141.681C372.273 141.654 372.331 141.641 372.39 141.641C372.448 141.641 372.506 141.654 372.558 141.681" fill="#3A2C6D"/>
<path id="Vector_116" d="M371.065 140.802L372.125 141.417C372.209 141.417 372.209 141.562 372.125 141.61L371.113 142.201C371.06 142.227 371.003 142.241 370.944 142.241C370.886 142.241 370.828 142.227 370.775 142.201L369.703 141.586C369.619 141.586 369.631 141.453 369.703 141.393L370.727 140.802C370.78 140.776 370.837 140.762 370.896 140.762C370.955 140.762 371.012 140.776 371.065 140.802Z" fill="#3A2C6D"/>
<path id="Vector_117" d="M369.559 139.898L370.619 140.513C370.703 140.513 370.691 140.645 370.619 140.706L369.607 141.297C369.555 141.323 369.497 141.337 369.438 141.337C369.38 141.337 369.322 141.323 369.27 141.297L368.198 140.682C368.114 140.682 368.126 140.549 368.198 140.489L369.222 139.898C369.274 139.871 369.332 139.857 369.39 139.857C369.449 139.857 369.507 139.871 369.559 139.898Z" fill="#3A2C6D"/>
<path id="Vector_118" d="M368.053 139.065L369.113 139.68C369.198 139.68 369.186 139.813 369.113 139.873L368.102 140.464C368.046 140.487 367.987 140.499 367.927 140.499C367.867 140.499 367.807 140.487 367.752 140.464L366.692 139.849C366.608 139.849 366.62 139.704 366.692 139.656L367.716 139.065C367.767 139.035 367.826 139.02 367.885 139.02C367.944 139.02 368.002 139.035 368.053 139.065Z" fill="#3A2C6D"/>
<path id="Vector_119" d="M366.548 138.185L367.608 138.8C367.692 138.8 367.68 138.944 367.608 139.005L366.596 139.584C366.542 139.613 366.482 139.629 366.421 139.629C366.36 139.629 366.3 139.613 366.246 139.584L365.186 138.969C365.102 138.969 365.114 138.836 365.186 138.776L366.198 138.197C366.253 138.17 366.312 138.156 366.373 138.156C366.433 138.156 366.493 138.17 366.548 138.197" fill="#3A2C6D"/>
<path id="Vector_120" d="M365.03 137.316L366.102 137.931C366.186 137.931 366.174 138.075 366.102 138.124L365.078 138.715C365.026 138.741 364.968 138.755 364.909 138.755C364.851 138.755 364.793 138.741 364.741 138.715L363.681 138.1C363.597 138.1 363.609 137.967 363.681 137.907L364.693 137.316C364.745 137.289 364.803 137.275 364.861 137.275C364.92 137.275 364.978 137.289 365.03 137.316Z" fill="#3A2C6D"/>
<path id="Vector_121" d="M363.524 136.449L364.596 137.064C364.681 137.064 364.668 137.196 364.596 137.257L363.572 137.847C363.52 137.874 363.462 137.888 363.404 137.888C363.345 137.888 363.287 137.874 363.235 137.847L362.175 137.232C362.091 137.232 362.091 137.1 362.175 137.039L363.187 136.449C363.239 136.422 363.297 136.408 363.356 136.408C363.414 136.408 363.472 136.422 363.524 136.449Z" fill="#3A2C6D"/>
<path id="Vector_122" d="M362.019 135.578L363.091 136.194C363.175 136.194 363.163 136.326 363.091 136.386L362.079 136.977C362.026 137.001 361.968 137.014 361.91 137.014C361.852 137.014 361.795 137.001 361.742 136.977L360.682 136.362C360.585 136.362 360.597 136.218 360.682 136.169L361.693 135.578C361.745 135.549 361.803 135.533 361.862 135.533C361.921 135.533 361.979 135.549 362.031 135.578" fill="#3A2C6D"/>
<path id="Vector_123" d="M360.513 134.699L361.573 135.314C361.669 135.314 361.657 135.458 361.573 135.519L360.561 136.097C360.509 136.124 360.451 136.138 360.392 136.138C360.334 136.138 360.276 136.124 360.224 136.097L359.152 135.482C359.068 135.482 359.08 135.338 359.152 135.277L360.164 134.699C360.216 134.672 360.274 134.658 360.332 134.658C360.391 134.658 360.449 134.672 360.501 134.699" fill="#3A2C6D"/>
<path id="Vector_124" d="M359.007 133.866L360.067 134.482C360.152 134.482 360.152 134.626 360.067 134.674L359.056 135.265C359.003 135.292 358.945 135.306 358.887 135.306C358.828 135.306 358.771 135.292 358.718 135.265L357.646 134.65C357.562 134.65 357.574 134.518 357.646 134.457L358.67 133.866C358.722 133.84 358.78 133.826 358.839 133.826C358.897 133.826 358.955 133.84 359.007 133.866Z" fill="#3A2C6D"/>
<path id="Vector_125" d="M356.779 132.54L358.562 133.578C358.646 133.578 358.646 133.71 358.562 133.771L357.55 134.362C357.498 134.388 357.44 134.402 357.381 134.402C357.323 134.402 357.265 134.388 357.213 134.362L355.418 133.324C355.333 133.324 355.346 133.192 355.418 133.131L356.43 132.54C356.484 132.514 356.544 132.5 356.604 132.5C356.665 132.5 356.725 132.514 356.779 132.54Z" fill="#3A2C6D"/>
<path id="Vector_126" d="M376.316 142.152L377.376 142.767C377.473 142.767 377.461 142.899 377.376 142.96L376.364 143.551C376.312 143.577 376.254 143.591 376.196 143.591C376.137 143.591 376.079 143.577 376.027 143.551L374.955 142.936C374.871 142.936 374.883 142.803 374.955 142.743L375.967 142.152C376.019 142.125 376.077 142.111 376.136 142.111C376.194 142.111 376.252 142.125 376.304 142.152" fill="#3A2C6D"/>
<path id="Vector_127" d="M374.811 141.273L375.871 141.888C375.955 141.888 375.943 142.033 375.871 142.093L374.859 142.672C374.807 142.698 374.749 142.712 374.69 142.712C374.632 142.712 374.574 142.698 374.522 142.672L373.45 142.057C373.365 142.057 373.377 141.912 373.45 141.852L374.473 141.273C374.526 141.246 374.583 141.232 374.642 141.232C374.701 141.232 374.758 141.246 374.811 141.273Z" fill="#3A2C6D"/>
<path id="Vector_128" d="M373.293 140.404L374.365 141.019C374.449 141.019 374.437 141.163 374.365 141.212L373.341 141.803C373.289 141.829 373.231 141.843 373.172 141.843C373.114 141.843 373.056 141.829 373.004 141.803L371.944 141.187C371.86 141.187 371.872 141.055 371.944 140.995L372.956 140.404C373.008 140.377 373.066 140.363 373.124 140.363C373.183 140.363 373.241 140.377 373.293 140.404Z" fill="#3A2C6D"/>
<path id="Vector_129" d="M371.799 139.534L372.859 140.149C372.956 140.149 372.944 140.282 372.859 140.342L371.848 140.933C371.795 140.96 371.737 140.974 371.679 140.974C371.62 140.974 371.563 140.96 371.51 140.933L370.45 140.318C370.354 140.318 370.366 140.174 370.45 140.125L371.462 139.534C371.514 139.508 371.572 139.494 371.631 139.494C371.689 139.494 371.747 139.508 371.799 139.534Z" fill="#3A2C6D"/>
<path id="Vector_130" d="M370.294 138.691L371.354 139.306C371.438 139.306 371.426 139.45 371.354 139.499L370.342 140.09C370.29 140.116 370.232 140.13 370.173 140.13C370.115 140.13 370.057 140.116 370.005 140.09L368.933 139.475C368.848 139.475 368.86 139.342 368.933 139.282L369.956 138.691C370.009 138.664 370.066 138.65 370.125 138.65C370.184 138.65 370.241 138.664 370.294 138.691Z" fill="#3A2C6D"/>
<path id="Vector_131" d="M368.776 137.799L369.848 138.414C369.932 138.414 369.92 138.547 369.848 138.607L368.824 139.198C368.771 139.222 368.714 139.234 368.656 139.234C368.597 139.234 368.54 139.222 368.487 139.198L367.427 138.583C367.343 138.583 367.355 138.438 367.427 138.39L368.439 137.799C368.49 137.77 368.548 137.754 368.607 137.754C368.667 137.754 368.725 137.77 368.776 137.799Z" fill="#3A2C6D"/>
<path id="Vector_132" d="M367.27 136.917L368.33 137.532C368.427 137.532 368.415 137.677 368.33 137.737L367.319 138.316C367.267 138.346 367.209 138.361 367.15 138.361C367.091 138.361 367.033 138.346 366.981 138.316L365.921 137.701C365.825 137.701 365.837 137.568 365.921 137.508L366.933 136.917C366.986 136.893 367.044 136.881 367.102 136.881C367.16 136.881 367.217 136.893 367.27 136.917Z" fill="#3A2C6D"/>
<path id="Vector_133" d="M365.777 136.049L366.837 136.664C366.921 136.664 366.909 136.797 366.837 136.857L365.777 137.484C365.724 137.511 365.667 137.524 365.608 137.524C365.549 137.524 365.492 137.511 365.439 137.484L364.367 136.869C364.283 136.869 364.295 136.736 364.367 136.676L365.391 136.085C365.444 136.059 365.501 136.045 365.56 136.045C365.618 136.045 365.676 136.059 365.729 136.085" fill="#3A2C6D"/>
<path id="Vector_134" d="M364.247 135.182L365.319 135.797C365.403 135.797 365.391 135.93 365.319 135.99L364.295 136.581C364.242 136.605 364.185 136.617 364.127 136.617C364.068 136.617 364.011 136.605 363.958 136.581L362.898 135.966C362.814 135.966 362.826 135.821 362.898 135.761L363.91 135.182C363.961 135.152 364.019 135.137 364.078 135.137C364.138 135.137 364.196 135.152 364.247 135.182Z" fill="#3A2C6D"/>
<path id="Vector_135" d="M362.741 134.302L363.801 134.917C363.898 134.917 363.886 135.062 363.801 135.11L362.789 135.701C362.737 135.727 362.679 135.741 362.621 135.741C362.562 135.741 362.504 135.727 362.452 135.701L361.38 135.086C361.296 135.086 361.308 134.953 361.38 134.893L362.392 134.302C362.444 134.276 362.502 134.262 362.561 134.262C362.619 134.262 362.677 134.276 362.729 134.302" fill="#3A2C6D"/>
<path id="Vector_136" d="M361.236 133.433L362.296 134.048C362.38 134.048 362.368 134.181 362.296 134.241L361.284 134.832C361.232 134.858 361.174 134.872 361.115 134.872C361.057 134.872 360.999 134.858 360.947 134.832L359.875 134.217C359.79 134.217 359.802 134.072 359.875 134.024L360.898 133.433C360.951 133.406 361.008 133.393 361.067 133.393C361.126 133.393 361.183 133.406 361.236 133.433Z" fill="#3A2C6D"/>
<path id="Vector_137" d="M359.754 132.552L360.826 133.167C360.91 133.167 360.898 133.312 360.826 133.372L359.802 133.951C359.75 133.977 359.692 133.991 359.634 133.991C359.575 133.991 359.517 133.977 359.465 133.951L358.405 133.336C358.321 133.336 358.333 133.191 358.405 133.131L359.417 132.552C359.469 132.526 359.527 132.512 359.585 132.512C359.644 132.512 359.702 132.526 359.754 132.552Z" fill="#3A2C6D"/>
<path id="Vector_138" d="M377.822 143.021L379.617 144.058C379.701 144.058 379.689 144.203 379.617 144.251L378.605 144.842C378.553 144.868 378.495 144.882 378.436 144.882C378.378 144.882 378.32 144.868 378.268 144.842L376.473 143.805C376.389 143.805 376.401 143.672 376.473 143.612L377.485 143.021C377.538 142.997 377.595 142.984 377.653 142.984C377.711 142.984 377.769 142.997 377.822 143.021Z" fill="#3A2C6D"/>
<path id="Vector_139" d="M356.851 132.493L357.911 133.108C357.96 133.132 358.014 133.144 358.068 133.144C358.122 133.144 358.176 133.132 358.224 133.108L359.297 132.481C359.393 132.481 359.393 132.348 359.297 132.3H359.212C359.197 132.292 359.185 132.28 359.176 132.265C359.167 132.25 359.162 132.233 359.162 132.216C359.162 132.199 359.167 132.182 359.176 132.167C359.185 132.152 359.197 132.14 359.212 132.131L360.356 131.468C360.375 131.461 360.391 131.449 360.402 131.433C360.413 131.417 360.419 131.397 360.419 131.378C360.419 131.358 360.413 131.339 360.402 131.323C360.391 131.306 360.375 131.294 360.356 131.287L359.682 130.901C359.631 130.878 359.576 130.865 359.519 130.865C359.463 130.865 359.408 130.878 359.357 130.901L358.297 131.516L358.08 131.637L357.923 131.733L357.767 131.83L356.851 132.348C356.755 132.348 356.755 132.481 356.851 132.541" fill="#3A2C6D"/>
<path id="Vector_140" d="M382.929 140.91L383.989 141.526C384.085 141.526 384.073 141.658 383.989 141.718L382.977 142.309C382.924 142.333 382.867 142.346 382.809 142.346C382.75 142.346 382.693 142.333 382.64 142.309L381.568 141.694C381.484 141.694 381.496 141.55 381.568 141.501L382.58 140.91C382.631 140.881 382.689 140.865 382.748 140.865C382.807 140.865 382.866 140.881 382.917 140.91" fill="#3A2C6D"/>
<path id="Vector_141" d="M381.435 140.041L382.508 140.656C382.592 140.656 382.58 140.789 382.508 140.849L381.484 141.44C381.431 141.464 381.373 141.477 381.315 141.477C381.257 141.477 381.199 141.464 381.146 141.44L380.086 140.825C380.002 140.825 380.002 140.681 380.086 140.632L381.098 140.041C381.149 140.012 381.208 139.996 381.267 139.996C381.326 139.996 381.384 140.012 381.435 140.041Z" fill="#3A2C6D"/>
<path id="Vector_142" d="M379.918 139.174L380.99 139.789C381.074 139.789 381.062 139.922 380.99 139.982L379.978 140.573C379.923 140.597 379.863 140.609 379.803 140.609C379.743 140.609 379.684 140.597 379.629 140.573L378.569 139.958C378.484 139.958 378.496 139.813 378.569 139.765L379.58 139.174C379.632 139.145 379.69 139.129 379.749 139.129C379.808 139.129 379.866 139.145 379.918 139.174Z" fill="#3A2C6D"/>
<path id="Vector_143" d="M367.126 131.769L368.186 132.384C368.282 132.384 368.27 132.529 368.186 132.577L367.174 133.168C367.122 133.194 367.064 133.208 367.005 133.208C366.947 133.208 366.889 133.194 366.837 133.168L365.765 132.553C365.68 132.553 365.692 132.42 365.765 132.36L366.788 131.769C366.841 131.742 366.899 131.729 366.957 131.729C367.016 131.729 367.073 131.742 367.126 131.769Z" fill="#3A2C6D"/>
<path id="Vector_144" d="M365.62 130.9L366.692 131.515C366.776 131.515 366.764 131.659 366.692 131.708L365.668 132.299C365.616 132.325 365.558 132.339 365.5 132.339C365.441 132.339 365.383 132.325 365.331 132.299L364.271 131.684C364.175 131.684 364.187 131.551 364.271 131.491L365.283 130.9C365.335 130.873 365.393 130.859 365.452 130.859C365.51 130.859 365.568 130.873 365.62 130.9Z" fill="#3A2C6D"/>
<path id="Vector_145" d="M364.114 130.032L365.186 130.648C365.271 130.648 365.259 130.792 365.186 130.841L364.163 131.431C364.11 131.458 364.053 131.472 363.994 131.472C363.935 131.472 363.878 131.458 363.825 131.431L362.765 130.816C362.681 130.816 362.693 130.684 362.765 130.623L363.777 130.032C363.829 130.006 363.887 129.992 363.946 129.992C364.004 129.992 364.062 130.006 364.114 130.032Z" fill="#3A2C6D"/>
<path id="Vector_146" d="M362.621 129.163L363.681 129.778C363.765 129.778 363.753 129.923 363.681 129.971L362.669 130.562C362.615 130.589 362.555 130.603 362.494 130.603C362.434 130.603 362.374 130.589 362.32 130.562L361.26 129.947C361.175 129.947 361.187 129.815 361.26 129.754L362.284 129.163C362.336 129.137 362.394 129.123 362.452 129.123C362.511 129.123 362.569 129.137 362.621 129.163Z" fill="#3A2C6D"/>
<path id="Vector_147" d="M378.039 138.076L379.484 138.92C379.569 138.92 379.557 139.052 379.484 139.113L378.472 139.704C378.419 139.728 378.362 139.74 378.304 139.74C378.246 139.74 378.188 139.728 378.135 139.704L376.678 138.86C376.593 138.86 376.605 138.727 376.678 138.667L377.69 138.076C377.744 138.049 377.804 138.035 377.864 138.035C377.925 138.035 377.984 138.049 378.039 138.076Z" fill="#3A2C6D"/>
<path id="Vector_148" d="M368.631 132.661L370.077 133.506C370.161 133.506 370.161 133.638 370.077 133.699L369.065 134.289C369.013 134.316 368.955 134.33 368.896 134.33C368.838 134.33 368.78 134.316 368.728 134.289L367.27 133.445C367.186 133.445 367.198 133.313 367.27 133.252L368.294 132.661C368.347 132.637 368.405 132.625 368.463 132.625C368.521 132.625 368.578 132.637 368.631 132.661Z" fill="#3A2C6D"/>
<path id="Vector_149" d="M370.522 133.734L377.593 137.822C377.677 137.822 377.665 137.955 377.593 138.015L376.581 138.606C376.529 138.633 376.471 138.646 376.413 138.646C376.354 138.646 376.296 138.633 376.244 138.606L369.161 134.518C369.077 134.518 369.089 134.373 369.161 134.325L370.173 133.734C370.228 133.707 370.287 133.693 370.348 133.693C370.408 133.693 370.468 133.707 370.522 133.734Z" fill="#3A2C6D"/>
<path id="Vector_150" d="M377.364 141.103L378.436 141.718C378.521 141.718 378.508 141.863 378.436 141.911L377.412 142.502C377.361 142.531 377.303 142.547 377.244 142.547C377.185 142.547 377.126 142.531 377.075 142.502L376.015 141.887C375.931 141.887 375.931 141.754 376.015 141.694L377.027 141.103C377.08 141.079 377.137 141.066 377.196 141.066C377.254 141.066 377.311 141.079 377.364 141.103Z" fill="#3A2C6D"/>
<path id="Vector_151" d="M375.859 140.199L376.931 140.814C377.015 140.814 377.003 140.958 376.931 141.007L375.907 141.597C375.855 141.624 375.797 141.638 375.738 141.638C375.68 141.638 375.622 141.624 375.57 141.597L374.51 140.982C374.425 140.982 374.425 140.85 374.51 140.789L375.521 140.199C375.574 140.172 375.631 140.158 375.69 140.158C375.749 140.158 375.806 140.172 375.859 140.199Z" fill="#3A2C6D"/>
<path id="Vector_152" d="M374.353 139.329L375.425 139.944C375.509 139.944 375.497 140.077 375.425 140.137L374.401 140.728C374.349 140.755 374.291 140.769 374.232 140.769C374.174 140.769 374.116 140.755 374.064 140.728L373.004 140.113C372.92 140.113 372.92 139.981 373.004 139.92L374.016 139.329C374.068 139.303 374.126 139.289 374.184 139.289C374.243 139.289 374.301 139.303 374.353 139.329Z" fill="#3A2C6D"/>
<path id="Vector_153" d="M372.847 138.462L373.919 139.077C374.004 139.077 373.992 139.21 373.919 139.27L372.896 139.861C372.843 139.888 372.785 139.901 372.727 139.901C372.668 139.901 372.611 139.888 372.558 139.861L371.498 139.246C371.414 139.246 371.414 139.101 371.498 139.053L372.51 138.462C372.562 138.436 372.62 138.422 372.679 138.422C372.737 138.422 372.795 138.436 372.847 138.462Z" fill="#3A2C6D"/>
<path id="Vector_154" d="M371.342 137.594L372.414 138.209C372.498 138.209 372.486 138.342 372.414 138.402L371.39 138.993C371.337 139.017 371.279 139.029 371.221 139.029C371.163 139.029 371.106 139.017 371.053 138.993L369.993 138.378C369.908 138.378 369.92 138.233 369.993 138.173L371.004 137.594C371.056 137.564 371.114 137.549 371.173 137.549C371.232 137.549 371.29 137.564 371.342 137.594Z" fill="#3A2C6D"/>
<path id="Vector_155" d="M369.836 136.714L370.908 137.329C370.992 137.329 370.98 137.474 370.908 137.534L369.884 138.113C369.832 138.14 369.774 138.153 369.715 138.153C369.657 138.153 369.599 138.14 369.547 138.113L368.487 137.498C368.403 137.498 368.415 137.353 368.487 137.293L369.499 136.714C369.551 136.688 369.609 136.674 369.667 136.674C369.726 136.674 369.784 136.688 369.836 136.714Z" fill="#3A2C6D"/>
<path id="Vector_156" d="M368.33 135.845L369.402 136.46C369.487 136.46 369.475 136.605 369.402 136.653L368.378 137.244C368.327 137.274 368.269 137.289 368.21 137.289C368.151 137.289 368.092 137.274 368.041 137.244L366.981 136.629C366.897 136.629 366.909 136.496 366.981 136.436L367.993 135.845C368.046 135.821 368.103 135.809 368.162 135.809C368.22 135.809 368.277 135.821 368.33 135.845Z" fill="#3A2C6D"/>
<path id="Vector_157" d="M366.825 134.976L367.897 135.591C367.981 135.591 367.969 135.736 367.897 135.784L366.873 136.375C366.821 136.401 366.763 136.415 366.704 136.415C366.646 136.415 366.588 136.401 366.536 136.375L365.476 135.76C365.391 135.76 365.403 135.627 365.476 135.567L366.487 134.976C366.54 134.949 366.597 134.936 366.656 134.936C366.715 134.936 366.772 134.949 366.825 134.976Z" fill="#3A2C6D"/>
<path id="Vector_158" d="M365.319 134.109L366.391 134.724C366.475 134.724 366.463 134.856 366.391 134.917L365.367 135.508C365.315 135.534 365.257 135.548 365.199 135.548C365.14 135.548 365.082 135.534 365.03 135.508L363.97 134.893C363.886 134.893 363.898 134.76 363.97 134.7L364.982 134.109C365.034 134.082 365.092 134.068 365.15 134.068C365.209 134.068 365.267 134.082 365.319 134.109Z" fill="#3A2C6D"/>
<path id="Vector_159" d="M363.825 133.24L364.885 133.855C364.97 133.855 364.958 133.987 364.885 134.048L363.862 134.639C363.809 134.665 363.752 134.679 363.693 134.679C363.634 134.679 363.577 134.665 363.524 134.639L362.464 134.024C362.38 134.024 362.392 133.879 362.464 133.831L363.476 133.24C363.531 133.213 363.59 133.199 363.651 133.199C363.711 133.199 363.771 133.213 363.825 133.24Z" fill="#3A2C6D"/>
<path id="Vector_160" d="M362.32 132.371L363.38 132.986C363.464 132.986 363.452 133.119 363.38 133.179L362.356 133.77C362.303 133.794 362.245 133.807 362.187 133.807C362.129 133.807 362.072 133.794 362.019 133.77L360.959 133.155C360.874 133.155 360.886 133.01 360.959 132.95L361.97 132.371C362.024 132.342 362.084 132.326 362.145 132.326C362.206 132.326 362.266 132.342 362.32 132.371Z" fill="#3A2C6D"/>
<path id="Vector_161" d="M360.814 131.455L361.874 132.07C361.958 132.07 361.946 132.214 361.874 132.275L360.862 132.854C360.808 132.88 360.748 132.894 360.688 132.894C360.627 132.894 360.567 132.88 360.513 132.854L359.453 132.238C359.369 132.238 359.381 132.094 359.453 132.033L360.465 131.455C360.519 131.428 360.579 131.414 360.639 131.414C360.7 131.414 360.76 131.428 360.814 131.455Z" fill="#3A2C6D"/>
<path id="Vector_162" d="M378.87 141.934L381.074 143.213C381.158 143.213 381.146 143.346 381.074 143.406L380.062 143.997C380.01 144.023 379.952 144.037 379.894 144.037C379.835 144.037 379.777 144.023 379.725 143.997L377.521 142.718C377.424 142.718 377.437 142.586 377.521 142.525L378.533 141.947C378.585 141.92 378.643 141.906 378.701 141.906C378.76 141.906 378.818 141.92 378.87 141.947" fill="#3A2C6D"/>
<path id="Vector_163" d="M379.581 140.657L380.641 141.273C380.725 141.273 380.713 141.405 380.641 141.466L379.629 142.056C379.576 142.083 379.519 142.097 379.46 142.097C379.402 142.097 379.344 142.083 379.291 142.056L378.219 141.441C378.135 141.441 378.147 141.309 378.219 141.248L379.243 140.657C379.296 140.631 379.353 140.617 379.412 140.617C379.471 140.617 379.528 140.631 379.581 140.657Z" fill="#3A2C6D"/>
<path id="Vector_164" d="M378.075 139.788L379.135 140.403C379.219 140.403 379.207 140.536 379.135 140.596L378.123 141.187C378.071 141.214 378.013 141.228 377.954 141.228C377.896 141.228 377.838 141.214 377.786 141.187L376.714 140.572C376.629 140.572 376.641 140.428 376.714 140.379L377.738 139.788C377.79 139.762 377.848 139.748 377.906 139.748C377.965 139.748 378.023 139.762 378.075 139.788Z" fill="#3A2C6D"/>
<path id="Vector_165" d="M376.617 138.921L377.677 139.536C377.762 139.536 377.75 139.669 377.677 139.729L376.666 140.32C376.611 140.347 376.551 140.361 376.491 140.361C376.43 140.361 376.371 140.347 376.316 140.32L375.256 139.705C375.172 139.705 375.184 139.56 375.256 139.512L376.28 138.921C376.332 138.895 376.39 138.881 376.449 138.881C376.507 138.881 376.565 138.895 376.617 138.921Z" fill="#3A2C6D"/>
<path id="Vector_166" d="M375.063 138.051L376.123 138.666C376.208 138.666 376.196 138.799 376.123 138.859L375.112 139.45C375.059 139.474 375.001 139.486 374.943 139.486C374.885 139.486 374.827 139.474 374.774 139.45L373.702 138.835C373.618 138.835 373.63 138.69 373.702 138.63L374.726 138.051C374.777 138.021 374.836 138.006 374.895 138.006C374.954 138.006 375.012 138.021 375.063 138.051Z" fill="#3A2C6D"/>
<path id="Vector_167" d="M373.558 137.171L374.618 137.786C374.702 137.786 374.69 137.931 374.618 137.991L373.606 138.57C373.554 138.597 373.496 138.61 373.437 138.61C373.379 138.61 373.321 138.597 373.269 138.57L372.197 137.955C372.112 137.955 372.124 137.81 372.197 137.75L373.221 137.171C373.273 137.145 373.331 137.131 373.389 137.131C373.448 137.131 373.506 137.145 373.558 137.171Z" fill="#3A2C6D"/>
<path id="Vector_168" d="M372.052 136.279L373.112 136.894C373.197 136.894 373.185 137.038 373.112 137.099L372.1 137.678C372.049 137.707 371.991 137.723 371.932 137.723C371.873 137.723 371.814 137.707 371.763 137.678L370.691 137.062C370.607 137.062 370.619 136.93 370.691 136.869L371.715 136.279C371.768 136.255 371.825 136.242 371.884 136.242C371.942 136.242 371.999 136.255 372.052 136.279Z" fill="#3A2C6D"/>
<path id="Vector_169" d="M370.595 135.435L371.655 136.05C371.739 136.05 371.727 136.195 371.655 136.243L370.643 136.834C370.591 136.86 370.533 136.874 370.474 136.874C370.416 136.874 370.358 136.86 370.306 136.834L369.234 136.219C369.149 136.219 369.161 136.086 369.234 136.026L370.257 135.435C370.31 135.408 370.368 135.395 370.426 135.395C370.485 135.395 370.542 135.408 370.595 135.435Z" fill="#3A2C6D"/>
<path id="Vector_170" d="M369.041 134.566L370.101 135.181C370.197 135.181 370.173 135.313 370.101 135.374L369.089 135.965C369.037 135.991 368.979 136.005 368.921 136.005C368.862 136.005 368.804 135.991 368.752 135.965L367.68 135.35C367.596 135.35 367.608 135.217 367.68 135.157L368.704 134.566C368.756 134.539 368.814 134.525 368.872 134.525C368.931 134.525 368.989 134.539 369.041 134.566Z" fill="#3A2C6D"/>
<path id="Vector_171" d="M367.535 133.699L368.595 134.314C368.692 134.314 368.68 134.446 368.595 134.507L367.583 135.097C367.531 135.124 367.473 135.138 367.415 135.138C367.356 135.138 367.298 135.124 367.246 135.097L366.174 134.482C366.09 134.482 366.102 134.338 366.174 134.289L367.198 133.699C367.25 133.672 367.308 133.658 367.367 133.658C367.425 133.658 367.483 133.672 367.535 133.699Z" fill="#3A2C6D"/>
<path id="Vector_172" d="M366.03 132.83L367.09 133.445C367.186 133.445 367.174 133.578 367.09 133.638L366.078 134.229C366.025 134.253 365.967 134.266 365.909 134.266C365.851 134.266 365.794 134.253 365.741 134.229L364.669 133.614C364.584 133.614 364.596 133.47 364.669 133.421L365.692 132.83C365.744 132.801 365.802 132.785 365.861 132.785C365.92 132.785 365.978 132.801 366.03 132.83Z" fill="#3A2C6D"/>
<path id="Vector_173" d="M364.572 131.961L365.632 132.576C365.729 132.576 365.717 132.709 365.632 132.769L364.62 133.36C364.567 133.384 364.51 133.397 364.452 133.397C364.394 133.397 364.336 133.384 364.283 133.36L363.211 132.745C363.127 132.745 363.139 132.6 363.211 132.54L364.235 131.961C364.286 131.932 364.344 131.916 364.404 131.916C364.463 131.916 364.521 131.932 364.572 131.961Z" fill="#3A2C6D"/>
<path id="Vector_174" d="M361.151 130.007L364.078 131.695C364.175 131.695 364.163 131.84 364.078 131.901L363.066 132.479C363.015 132.509 362.957 132.525 362.898 132.525C362.839 132.525 362.78 132.509 362.729 132.479L359.802 130.791C359.718 130.791 359.73 130.658 359.802 130.598L360.814 130.007C360.866 129.981 360.924 129.967 360.983 129.967C361.041 129.967 361.099 129.981 361.151 130.007Z" fill="#3A2C6D"/>
<path id="Vector_175" d="M381.086 141.525L382.532 142.369C382.616 142.369 382.604 142.502 382.532 142.562L381.52 143.153C381.467 143.177 381.409 143.189 381.351 143.189C381.293 143.189 381.236 143.177 381.183 143.153L379.725 142.309C379.641 142.309 379.653 142.176 379.725 142.116L380.749 141.525C380.801 141.498 380.859 141.484 380.918 141.484C380.976 141.484 381.034 141.498 381.086 141.525Z" fill="#3A2C6D"/>
<path id="Vector_176" d="M355.261 133.421L376.617 145.771C376.702 145.771 376.69 145.915 376.617 145.976L376.112 146.265C376.057 146.292 375.997 146.306 375.937 146.306C375.876 146.306 375.817 146.292 375.762 146.265L354.394 133.867C354.298 133.867 354.31 133.735 354.394 133.675L354.9 133.385C354.951 133.355 355.009 133.34 355.069 133.34C355.128 133.34 355.186 133.355 355.237 133.385" fill="#3A2C6D"/>
<path id="Vector_177" d="M380.267 133.963L380.122 134.047L376.437 136.182L369.872 132.383L369.728 132.311L373.57 130.092L380.267 133.963Z" fill="#BFBFBF"/>
<path id="Vector_178" d="M380.122 134.047L376.437 136.182L369.872 132.383L373.57 130.248L380.122 134.047Z" fill="#E5E5E5"/>
<path id="Vector_179" d="M390.807 138.956V139.281C390.814 139.525 390.756 139.766 390.637 139.978C390.518 140.191 390.343 140.367 390.132 140.487L377.111 148.013C376.908 148.131 376.678 148.194 376.443 148.194C376.208 148.194 375.977 148.131 375.774 148.013L352.214 134.397C352.002 134.276 351.828 134.1 351.709 133.888C351.59 133.675 351.531 133.434 351.539 133.191V132.865L376.437 147.253L390.807 138.956Z" fill="#E5E5E5"/>
<path id="Vector_180" d="M376.063 147.458C375.841 147.543 375.602 147.577 375.365 147.558C375.127 147.539 374.897 147.468 374.69 147.35L351.238 133.794C351.033 133.677 350.857 133.515 350.721 133.321C350.586 133.127 350.495 132.906 350.455 132.673L347.89 117.344C347.884 117.256 347.884 117.167 347.89 117.079C347.89 116.654 348.059 116.246 348.359 115.945L372.739 130.043C372.888 130.131 373.017 130.249 373.117 130.39C373.217 130.532 373.285 130.693 373.317 130.864L376.063 147.458Z" fill="#F4F4F4"/>
<path id="Vector_181" d="M376.437 147.254L376.28 147.351L376.063 147.459L373.293 130.865C373.261 130.694 373.193 130.533 373.093 130.391C372.993 130.25 372.864 130.132 372.715 130.044L348.335 115.946C348.43 115.849 348.54 115.767 348.66 115.705L373.088 129.815C373.239 129.904 373.369 130.024 373.469 130.168C373.569 130.311 373.636 130.475 373.666 130.647L376.437 147.254Z" fill="#E5E5E5"/>
<path id="Vector_182" d="M394.143 81.6465C394.143 81.6465 393.842 87.4835 393.975 88.0021C394.107 88.5207 396.649 90.2212 397.395 90.8362C398.142 91.4513 393.36 96.1547 391.048 97.228C388.735 98.3014 381.411 95.4793 381.243 91.8734C381.074 88.2674 382.507 85.2283 383.652 85.0595C384.796 84.8906 394.167 81.6465 394.167 81.6465" fill="#FFCEA9"/>
<path id="Vector_183" d="M394.794 89.0032C394.794 89.0032 390.566 95.3105 384.676 95.9015C382.809 94.0684 382.64 87.5318 385.218 85.4455C385.218 85.4455 382.809 83.54 381.231 83.9138C379.5 84.9674 378.214 86.6191 377.617 88.5569C376.113 92.8964 375.407 97.4727 375.533 102.064C375.63 108.251 375.533 123.905 375.533 123.905C375.882 125.753 376.617 127.507 377.69 129.051C378.764 130.596 380.151 131.895 381.761 132.865C386.014 135.259 391.016 135.949 395.757 134.795C398.744 134.096 399.853 132.383 400.876 130.248C400.611 125.919 398.901 116.982 399.672 111.531C400.443 106.08 401.539 102.004 401.84 97.5899C402.141 93.1759 401.262 93.2724 399.058 91.6925C397.73 90.6979 396.333 89.7992 394.878 89.0032" fill="#F4F4F4"/>
<path id="Vector_184" d="M388.012 139.282C389.076 138.579 390.182 137.942 391.325 137.376C392.396 137.043 393.371 136.455 394.167 135.664C395.203 134.639 396.902 130.84 398.106 127.053C399.31 122.823 399.782 118.418 399.503 114.028C398.985 108.758 397.094 101.401 396.612 98.35C396.131 95.2988 397.106 94.1169 398.516 92.9954C400.166 91.6929 402.442 92.2718 403.659 96.5048C405.247 102.405 406.172 108.465 406.417 114.571C406.452 119.078 405.743 123.56 404.321 127.837C403.068 131.508 401.369 135.012 399.262 138.269C398.684 139.245 398.504 140.114 397.612 142.116C396.758 144.12 395.432 145.887 393.746 147.265C392.264 148.327 391.566 148.471 391.216 148.278C390.867 148.085 390.867 147.543 391.493 146.976C392.542 146.157 393.436 145.156 394.131 144.021C394.131 144.021 392.83 145.324 391.987 146.023C391.24 146.661 390.409 147.192 389.518 147.603C388.651 147.989 387.446 147.253 388.06 146.674C388.675 146.096 389.265 145.794 390.542 144.733C391.198 144.166 391.785 143.522 392.288 142.815C391.423 143.485 390.505 144.082 389.542 144.6C388.79 145.063 387.919 145.298 387.037 145.275C386.579 145.275 386.025 144.624 386.88 143.997C388.061 143.383 389.165 142.63 390.168 141.754C391.108 140.813 391.65 140.017 391.373 140.005C391.096 139.993 390.59 140.572 389.482 140.922C388.374 141.272 387.181 140.922 387.073 140.355C386.964 139.788 386.964 139.848 388 139.342" fill="#FFCEA9"/>
<path id="Vector_185" d="M380.966 72.9519C381.652 68.4174 384.917 64.9923 389.578 65.2456C391.953 65.3916 394.173 66.4735 395.753 68.2545C397.333 70.0354 398.145 72.3705 398.01 74.7489C397.934 76.1233 397.541 77.4614 396.861 78.6583C396.182 79.8551 395.235 80.8782 394.095 81.6472C393.933 82.3328 393.691 82.9968 393.372 83.625C391.722 85.5546 386.735 86.7486 385.302 86.5436C384.451 86.4676 383.642 86.1373 382.98 85.5954C382.319 85.0534 381.835 84.325 381.592 83.5044C380.038 79.9467 380.532 75.183 380.918 72.9519" fill="#FFCEA9"/>
<path id="Vector_186" d="M394.143 81.648L393.722 77.6923C393.722 77.6923 396.938 69.3347 389.325 70.9387C384.302 72 383.038 72.4583 381.508 69.0815C379.978 65.7047 385.374 62.6656 391.782 63.5098C393.989 63.742 396.028 64.7956 397.496 66.4618C398.964 68.128 399.754 70.2853 399.708 72.5065C399.54 74.9909 398.877 80.0199 394.143 81.648Z" fill="#3A2C6D"/>
<path id="Vector_187" d="M407.188 104.319C407.188 104.319 403.033 108.468 398.106 107.274C397.407 106.792 395.697 97.1194 395.697 97.1194C395.697 97.1194 395.697 91.7527 399.804 91.8974C403.912 92.0421 407.164 104.319 407.164 104.319" fill="#EDEDED"/>
<path id="Vector_188" d="M375.798 96.2997C374.634 96.2526 373.533 95.7555 372.727 94.9128C372.883 92.754 375.654 84.5291 381.231 83.9141C379.713 84.9776 378.51 86.4318 377.75 88.123C376.889 90.7939 376.237 93.5277 375.798 96.2997Z" fill="#EDEDED"/>
<g id="Group_7" opacity="0.4">
<g id="Group_8" opacity="0.4">
<path id="Vector_189" opacity="0.4" d="M353.732 597.779C356.707 604.279 369.511 604.773 382.339 598.888C395.167 593.003 403.117 582.957 400.154 576.469C397.191 569.98 384.375 569.474 371.546 575.359C358.718 581.244 350.732 591.29 353.719 597.791" fill="#D6D8E5"/>
</g>
</g>
<path id="Vector_190" d="M397.347 481.375C397.347 481.375 396.552 493.351 394.938 495.075C393.324 496.8 388.06 497.982 388.06 497.982L383.965 504.711C383.965 504.711 387.699 483.305 388.518 482.786C389.337 482.267 397.299 481.375 397.299 481.375" fill="#FFCEA9"/>
<path id="Vector_191" d="M389.482 468.074C390.478 467.616 391.607 467.539 392.657 467.857C393.706 468.174 394.603 468.865 395.179 469.799C396.685 472.295 398.239 480.858 398.383 482.317C398.383 482.317 396.275 485.236 393.107 484.729L389.482 468.074Z" fill="#EDEDED"/>
<path id="Vector_192" d="M377.376 587.613C375.15 588.237 372.767 587.951 370.751 586.817C369.161 586.817 360.513 583.199 359.332 586.274C358.297 589 362.043 591.52 364.054 592.015C368.415 593.076 371.655 595.247 373.413 595.633C374.714 595.91 376.413 596.091 377.448 595.066C378.653 593.86 378.593 589.253 377.376 587.625" fill="#38226D"/>
<path id="Vector_193" d="M373.413 594.861C371.655 594.499 368.415 592.316 364.054 591.243C362.368 590.833 359.477 589 359.236 586.805C358.851 589.313 362.235 591.544 364.054 591.99C368.415 593.052 371.655 595.235 373.413 595.608C374.714 595.886 376.413 596.067 377.448 595.042C377.719 594.741 377.917 594.382 378.027 593.992C377.378 594.486 376.623 594.821 375.822 594.969C375.02 595.118 374.196 595.077 373.413 594.849" fill="#9C73FF"/>
<path id="Vector_194" d="M390.843 583.416C388.618 584.031 386.241 583.74 384.23 582.608C382.628 582.608 373.979 578.99 372.799 582.065C371.775 584.791 375.521 587.311 377.521 587.806C381.893 588.867 385.121 591.05 386.88 591.424C388.193 591.701 389.879 591.882 390.927 590.857C392.132 589.651 392.071 585.056 390.843 583.428" fill="#38226D"/>
<path id="Vector_195" d="M386.88 590.664C385.121 590.29 381.893 588.107 377.521 587.046C375.847 586.635 372.956 584.802 372.703 582.607C372.305 585.128 375.69 587.347 377.521 587.805C381.893 588.867 385.121 591.049 386.88 591.423C388.193 591.701 389.879 591.882 390.927 590.857C391.199 590.558 391.393 590.198 391.493 589.807C390.845 590.302 390.091 590.638 389.289 590.789C388.488 590.94 387.663 590.901 386.88 590.676" fill="#9C73FF"/>
<path id="Vector_196" d="M391.806 559.054C391.429 555.836 390.76 552.659 389.807 549.562C389.807 549.562 390.397 541.374 390.698 533.607C391.036 524.803 394.083 517.049 391.674 510.018L364.885 516.048C364.885 516.048 366.174 551.239 366.536 555.496C366.732 558.806 367.134 562.101 367.74 565.361C368.945 572.175 370.33 587.431 370.33 587.431C373.209 589.107 377.412 587.732 377.412 587.732C377.412 587.732 377.412 568.629 377.244 563.721C377.015 557.691 376.834 558.173 376.834 558.173L377.738 543.231L378.316 535.802C378.316 535.802 379.075 541.253 379.52 546.125C379.954 550.37 380.978 554.217 382.122 562.129C383.11 568.991 384.134 582.969 384.134 582.969C387.012 584.645 390.867 583.487 390.867 583.487C390.867 583.487 392.529 565.059 391.758 559.114" fill="#8C50FF"/>
<path id="Vector_197" d="M388.048 468.231C385.977 468.327 384.435 468.858 384.182 468.231C383.958 467.16 383.802 466.077 383.712 464.987C383.941 464.396 384.146 463.781 384.146 463.781C386.747 462.177 387.567 459.367 387.904 456.099C388.494 450.503 385.495 445.606 379.894 445.028C374.642 444.485 370.776 448.175 369.74 453.252C369.186 455.749 368.089 460.488 369.583 464.601C370.414 466.904 371.486 468.738 372.57 469.099C373.61 469.063 374.648 468.971 375.678 468.822C375.678 468.822 375.955 470.378 376.148 471.379C376.34 472.38 376.268 472.898 374.281 474.116C372.293 475.334 377.28 477.855 380.532 477.614C383.784 477.372 387.446 475.395 388.458 473.284C389.578 470.944 389.482 468.171 388.06 468.243" fill="#FFCEA9"/>
<path id="Vector_198" d="M385.049 468.532C385.627 469.967 384.17 471.716 380.291 472.934C376.413 474.152 376.051 472.584 376.051 472.584C373.467 473.74 370.949 475.04 368.511 476.479C366.174 478.107 365.138 482.835 364.825 490.794C364.464 500.02 364.44 513.708 364.741 516.12C364.741 516.12 369.101 520.474 374.666 520.016C380.231 519.558 389.626 514.613 391.903 510.802C391.83 502.71 390.891 501.395 392.204 496.74C395.191 486.079 396.769 481.713 395.311 474.622C394.107 468.785 392.433 468.061 390.132 468.11C388.43 468.181 386.734 468.342 385.049 468.592" fill="#F4F4F4"/>
<path id="Vector_199" d="M369.643 523.164L372.474 491.049L366.451 487.877L364.115 489.831L364.837 518.678V519.474V520.487C364.837 520.487 364.705 522.899 369.282 525.818C369.282 525.818 369.354 525.058 369.414 524.346L369.523 523.14L369.643 523.164Z" fill="#FFCEA9"/>
<path id="Vector_200" d="M370.354 474.49C367.27 474.43 365.295 476.07 364.548 480.833C363.801 485.597 363.344 489.493 363.344 489.493C364.76 491.078 366.731 492.058 368.848 492.23C372.582 492.64 373.666 490.747 373.666 490.747C373.666 490.747 374.052 485.79 374.268 482.437C374.485 479.085 374.172 474.562 370.354 474.49Z" fill="#EDEDED"/>
<path id="Vector_201" d="M375.557 443.652C383.098 442.579 387.94 447.427 388.506 452.685C389.036 457.714 385.94 462.936 383.688 465.011C381.494 465.576 379.169 465.297 377.171 464.227C377.045 462.856 376.997 461.479 377.027 460.102C377.027 460.102 380.701 452.36 369.896 452.492C369.896 452.492 365.078 445.148 375.533 443.652" fill="#3A2C6D"/>
<path id="Vector_202" d="M339.012 333.58C339.289 336.076 342.264 346.846 341.626 350.464C340.988 354.082 330.845 360.305 330.845 360.305L329.448 353.998L335.061 348.534L333.544 338.091L339.012 333.58Z" fill="#FFCEA9"/>
<path id="Vector_203" d="M331.171 322.992C332.156 322.534 333.276 322.455 334.316 322.771C335.356 323.087 336.243 323.775 336.808 324.704C338.302 327.176 339.855 335.667 339.988 337.114C339.988 337.114 337.904 340.008 334.76 339.526L331.171 322.992Z" fill="#EDEDED"/>
<path id="Vector_204" d="M319.583 442.808C317.376 443.42 315.016 443.134 313.019 442.012C311.441 442.012 302.864 438.394 301.696 441.469C300.672 444.171 304.394 446.679 306.37 447.162C310.706 448.211 313.91 450.37 315.657 450.78C316.957 451.057 318.632 451.238 319.668 450.213C320.872 449.007 320.8 444.46 319.583 442.844" fill="#38226D"/>
<path id="Vector_205" d="M315.657 449.996C313.91 449.623 310.706 447.464 306.37 446.378C304.707 445.968 301.841 444.147 301.552 441.977C301.166 444.473 304.527 446.68 306.37 447.126C310.706 448.175 313.91 450.334 315.657 450.744C316.957 451.022 318.632 451.202 319.668 450.177C319.932 449.879 320.126 449.524 320.234 449.14C319.589 449.628 318.84 449.96 318.046 450.108C317.252 450.257 316.434 450.218 315.657 449.996Z" fill="#9C73FF"/>
<path id="Vector_206" d="M333.508 436.574C331.3 437.187 328.94 436.901 326.943 435.778C325.353 435.778 316.777 432.16 315.608 435.235C314.585 437.949 318.307 440.445 320.294 440.927C324.63 441.977 327.834 444.147 329.569 444.545C330.87 444.823 332.544 445.004 333.58 443.979C334.784 442.773 334.712 438.226 333.508 436.61" fill="#38226D"/>
<path id="Vector_207" d="M329.569 443.737C327.834 443.375 324.63 441.204 320.294 440.119C318.632 439.721 315.765 437.888 315.476 435.717C315.09 438.213 318.439 440.42 320.294 440.866C324.63 441.916 327.834 444.086 329.569 444.484C330.87 444.762 332.544 444.943 333.58 443.918C333.852 443.624 334.046 443.268 334.146 442.88C333.503 443.371 332.754 443.704 331.959 443.853C331.164 444.001 330.346 443.962 329.569 443.737Z" fill="#9C73FF"/>
<path id="Vector_208" d="M333.676 413.212C333.305 410.018 332.64 406.865 331.689 403.793C331.689 403.793 332.279 395.677 332.58 387.982C332.917 379.239 335.941 371.557 333.556 364.586L306.635 370.616C306.635 370.616 308.261 405.445 308.622 409.666C308.817 412.945 309.219 416.207 309.827 419.435C311.031 426.2 313.055 442.288 313.055 442.288C315.101 443.269 317.419 443.529 319.632 443.024C319.632 443.024 319.427 422.691 319.246 417.819C319.017 411.861 318.837 412.319 318.837 412.319L319.728 397.498L320.318 390.129C320.318 390.129 321.065 395.544 321.523 400.368C321.944 404.589 322.956 408.4 324.088 416.239C325.076 423.041 326.678 436.741 326.678 436.741C329.521 438.393 333.387 437.018 333.387 437.018C333.387 437.018 334.423 419.169 333.652 413.272" fill="#FF7B7B"/>
<path id="Vector_209" d="M329.737 323.137C327.69 323.245 326.124 323.776 325.907 323.137C325.683 322.078 325.526 321.007 325.437 319.929C325.678 319.338 325.883 318.723 325.883 318.723C328.437 317.179 329.268 314.345 329.641 311.149C330.219 305.601 327.232 300.753 321.691 300.174C316.476 299.632 312.645 303.298 311.633 308.327C311.079 310.811 309.983 315.503 311.465 319.591C312.284 321.87 313.356 323.679 314.428 324.041C315.46 324.005 316.49 323.913 317.512 323.764C317.512 323.764 317.789 325.307 317.981 326.296C318.174 327.285 318.102 327.804 316.126 329.022C314.151 330.24 319.102 332.724 322.33 332.483C325.558 332.242 329.183 330.288 330.183 328.202C331.291 325.862 331.195 323.125 329.786 323.185" fill="#FFCEA9"/>
<path id="Vector_210" d="M326.774 323.451C327.34 324.862 325.895 326.598 322.053 327.816C318.21 329.034 317.849 327.467 317.849 327.467C315.284 328.61 312.787 329.898 310.369 331.326C308.056 332.942 307.032 337.621 306.755 345.52C306.394 354.674 306.358 368.241 306.671 370.581C306.671 370.581 310.983 374.886 316.512 374.44C322.041 373.994 331.339 369.086 333.592 365.299C333.532 357.279 332.604 355.976 333.893 351.357C336.868 340.781 338.422 336.451 336.989 329.42C335.784 323.631 334.122 322.908 331.845 322.968C330.16 323.04 328.479 323.201 326.81 323.451" fill="#F4F4F4"/>
<path id="Vector_211" d="M298.022 353.082C302.563 354.288 303.623 351.37 304.226 348.994C305.671 343.253 306.442 338.068 307.526 334.811C308.791 330.964 310.116 330.361 311.983 329.602C314.175 328.733 316.054 330.578 315.331 335.475C314.433 341.145 313.043 346.726 311.176 352.154C310.61 353.951 309.345 357.122 307.442 358.654C305.105 360.548 301.576 360.475 296.252 359.136C293.975 358.57 291.434 357.219 287.17 355.205C286.025 354.662 285.122 354.312 282.906 353.275C280.679 352.274 278.728 350.747 277.22 348.825C276.016 347.149 275.907 346.353 276.136 345.967C276.365 345.581 276.967 345.593 277.582 346.305C278.478 347.503 279.584 348.529 280.846 349.332C280.846 349.332 279.413 347.848 278.642 346.92C277.945 346.064 277.366 345.119 276.919 344.11C276.51 343.133 277.353 341.794 278.003 342.494C278.654 343.193 278.943 343.905 280.123 345.316C280.744 346.064 281.447 346.74 282.219 347.33C281.494 346.342 280.85 345.297 280.292 344.206C279.786 343.355 279.539 342.374 279.581 341.384C279.581 340.878 280.34 340.263 281.015 341.239C281.672 342.57 282.481 343.82 283.424 344.966C284.459 346.039 285.351 346.654 285.375 346.353C285.399 346.051 284.749 345.473 284.375 344.218C284.002 342.964 284.375 341.637 285.074 341.493C285.772 341.348 285.628 341.384 286.182 342.554C286.943 343.762 287.631 345.014 288.242 346.305C288.592 347.515 289.233 348.62 290.109 349.525C291.229 350.731 293.722 352.021 297.998 353.143" fill="#FFCEA9"/>
<path id="Vector_212" d="M313.657 328.816C310.634 328.37 308.49 329.745 307.153 334.339C305.816 338.934 304.876 342.697 304.876 342.697C306.08 344.429 307.898 345.636 309.959 346.074C313.573 346.954 314.886 345.218 314.886 345.218C314.886 345.218 315.885 340.394 316.512 337.125C317.138 333.857 317.415 329.371 313.657 328.816Z" fill="#EDEDED"/>
<path id="Vector_213" d="M311.766 307.53C311.766 307.53 306.948 300.294 317.355 298.763C324.835 297.689 329.641 302.501 330.195 307.723C330.725 312.704 327.654 317.89 325.437 319.94C323.259 320.498 320.951 320.218 318.969 319.156C318.851 317.801 318.807 316.44 318.837 315.08C318.837 315.08 322.45 307.398 311.766 307.53Z" fill="#3A2C6D"/>
<path id="Vector_214" d="M217.103 472.561L217.067 483.39L108.889 546.344L108.925 535.514L217.103 472.561Z" fill="#D3D3DD"/>
<path id="Vector_215" d="M108.925 535.513L108.889 546.343L0 483.402L0.0361356 472.572L108.925 535.513Z" fill="#E0DEE9"/>
<path id="Vector_216" d="M217.103 472.56L108.925 535.513L0.0361328 472.572L108.214 409.619L217.103 472.56Z" fill="#EAEAF4"/>
<path id="Vector_217" d="M200.227 308.412L199.77 470.897L108.72 523.864L109.178 361.392L200.227 308.412Z" fill="#D3D3DD"/>
<path id="Vector_218" d="M109.178 361.392L108.72 523.864L17.068 470.897L17.5257 308.412L109.178 361.392Z" fill="#E0DEE9"/>
<path id="Vector_219" d="M200.227 308.411L109.178 361.391L17.5258 308.411L108.575 255.432L200.227 308.411Z" fill="#EAEAF4"/>
<path id="Vector_220" d="M41.1465 379.456L41.0983 396.304L26.4634 387.838L26.5116 371.002L41.1465 379.456Z" fill="#2A313F"/>
<path id="Vector_221" d="M41.2186 356.024L41.1704 372.86L26.5355 364.406L26.5837 347.57L41.2186 356.024Z" fill="#2A313F"/>
<path id="Vector_222" d="M41.2788 332.591L41.2307 349.439L26.6078 340.973L26.6439 324.125L41.2788 332.591Z" fill="#2A313F"/>
<path id="Vector_223" d="M100.288 437.115L100.24 453.963L47.7231 423.608L47.7713 406.76L100.288 437.115Z" fill="#2A313F"/>
<path id="Vector_224" d="M100.349 413.683L100.3 430.531L47.7954 400.176L47.8436 383.328L100.349 413.683Z" fill="#2A313F"/>
<path id="Vector_225" d="M100.421 390.25L100.373 407.085L47.8556 376.73L47.9038 359.895L100.421 390.25Z" fill="#2A313F"/>
<path id="Vector_226" d="M100.481 366.806L100.433 383.654L47.9279 353.299L47.976 336.463L100.481 366.806Z" fill="#2A313F"/>
<path id="Vector_227" d="M41.0139 426.321L40.9657 443.169L26.3308 434.703L26.379 417.867L41.0139 426.321Z" fill="#2A313F"/>
<path id="Vector_228" d="M41.0862 402.89L41.038 419.737L26.4031 411.283L26.4513 394.436L41.0862 402.89Z" fill="#2A313F"/>
<path id="Vector_229" d="M100.216 460.548L100.168 477.396L47.6628 447.041L47.711 430.193L100.216 460.548Z" fill="#2A313F"/>
<path id="Vector_230" d="M132.292 381.965L132.341 398.813L117.694 407.279L117.646 390.431L132.292 381.965Z" fill="#2A313F"/>
<path id="Vector_231" d="M132.22 358.533L132.268 375.381L117.634 383.847L117.585 366.999L132.22 358.533Z" fill="#2A313F"/>
<path id="Vector_232" d="M191.687 418.061L191.736 434.896L139.218 465.251L139.17 448.416L191.687 418.061Z" fill="#2A313F"/>
<path id="Vector_233" d="M191.615 394.617L191.663 411.465L139.158 441.82L139.11 424.972L191.615 394.617Z" fill="#2A313F"/>
<path id="Vector_234" d="M191.555 371.195L191.603 388.031L139.086 418.386L139.038 401.538L191.555 371.195Z" fill="#2A313F"/>
<path id="Vector_235" d="M191.483 347.752L191.531 364.6L139.026 394.955L138.978 378.107L191.483 347.752Z" fill="#2A313F"/>
<path id="Vector_236" d="M191.422 324.318L191.471 341.154L138.953 371.521L138.905 354.673L191.422 324.318Z" fill="#2A313F"/>
<path id="Vector_237" d="M132.485 452.275L132.533 469.111L117.898 477.577L117.85 460.742L132.485 452.275Z" fill="#2A313F"/>
<path id="Vector_238" d="M132.425 428.83L132.473 445.678L117.826 454.144L117.778 437.296L132.425 428.83Z" fill="#2A313F"/>
<path id="Vector_239" d="M132.353 405.41L132.401 422.246L117.766 430.712L117.718 413.876L132.353 405.41Z" fill="#2A313F"/>
<path id="Vector_240" d="M199.806 457.787L199.77 470.884L108.72 523.864L108.744 510.453L199.806 457.787Z" fill="#9052FE"/>
<path id="Vector_241" d="M108.744 510.452L108.708 523.863L17.068 470.895L17.1041 457.473L108.744 510.452Z" fill="#9052FE"/>
<path id="Vector_242" d="M108.154 310.559C108.499 310.583 108.845 310.583 109.19 310.559L114.393 313.574C110.671 314.707 106.697 314.707 102.974 313.574L108.154 310.559Z" fill="#2A313F"/>
<path id="Vector_243" d="M85.521 291.467C98.7707 285.039 118.26 285.039 131.606 291.467L126.908 294.193C116.176 289.248 100.915 289.248 90.2548 294.193L85.521 291.467Z" fill="#2A313F"/>
<path id="Vector_244" d="M93.5551 296.11C103.184 292.203 113.954 292.203 123.584 296.11L118.85 298.872C112.243 296.427 104.98 296.427 98.3731 298.872L93.5551 296.11Z" fill="#2A313F"/>
<path id="Vector_245" d="M102.902 301.501C106.628 300.367 110.607 300.367 114.333 301.501L109.214 304.516H108.154L102.902 301.501Z" fill="#2A313F"/>
<path id="Vector_246" d="M113.863 307.845C113.887 307.644 113.887 307.442 113.863 307.242L119.043 304.227C119.502 304.647 119.868 305.158 120.119 305.728C120.37 306.298 120.499 306.914 120.499 307.537C120.499 308.16 120.37 308.776 120.119 309.346C119.868 309.916 119.502 310.427 119.043 310.848L113.863 307.845Z" fill="#2A313F"/>
<path id="Vector_247" d="M123.668 313.561C127.884 309.943 127.872 305.216 123.668 301.646L128.402 298.896C135.183 304.01 135.219 311.198 128.498 316.311L123.668 313.561Z" fill="#2A313F"/>
<path id="Vector_248" d="M93.6515 301.586C89.4357 305.204 89.4718 309.931 93.7358 313.501L88.99 316.251C82.2085 311.137 82.1724 303.949 88.8936 298.836L93.6515 301.586Z" fill="#2A313F"/>
<path id="Vector_249" d="M131.738 318.179C140.17 311.98 140.17 303.116 131.618 296.917L136.316 294.18C147.421 301.898 147.493 313.186 136.46 320.905L131.738 318.179Z" fill="#2A313F"/>
<path id="Vector_250" d="M90.3993 320.893C101.12 325.825 116.405 325.825 127.053 320.893L131.775 323.63C118.525 330.046 99.0478 330.046 85.7137 323.63L90.3993 320.893Z" fill="#2A313F"/>
<path id="Vector_251" d="M85.5691 296.917C77.1374 303.104 77.1374 311.968 85.6895 318.179L81.0039 320.905C69.8742 313.186 69.8139 301.898 80.8474 294.18L85.5691 296.917Z" fill="#2A313F"/>
<path id="Vector_252" d="M98.4333 316.215C105.041 318.66 112.303 318.66 118.91 316.215L123.728 318.977C114.097 322.896 103.319 322.896 93.6875 318.977L98.4333 316.215Z" fill="#2A313F"/>
<path id="Vector_253" d="M103.432 307.242C103.402 307.441 103.402 307.645 103.432 307.845L98.2527 310.86C97.7901 310.44 97.4204 309.928 97.1673 309.357C96.9143 308.786 96.7836 308.168 96.7836 307.543C96.7836 306.918 96.9143 306.3 97.1673 305.729C97.4204 305.158 97.7901 304.646 98.2527 304.227L103.432 307.242Z" fill="#2A313F"/>
</g>
</g>
</g>
</g>
</g>
</svg>
