<svg width="603" height="603" viewBox="0 0 603 603" fill="none" xmlns="http://www.w3.org/2000/svg">
<g id="online_school_SVG">
<g id="Group">
<path id="Vector" d="M277.862 211.048C277.862 210.687 277.983 210.325 278.104 209.963V209.842C278.224 209.481 278.345 209.119 278.465 208.757C278.586 208.395 278.827 208.033 279.068 207.672C279.31 207.31 279.551 206.948 279.792 206.586C279.792 206.586 279.792 206.466 279.913 206.466C280.154 206.224 280.395 205.863 280.636 205.621L280.757 205.501C280.998 205.26 281.119 205.139 281.36 204.898C281.48 204.777 281.601 204.777 281.601 204.657C281.842 204.415 282.204 204.174 282.566 204.054C282.928 203.933 283.169 203.692 283.41 203.692H283.531C283.772 203.571 284.013 203.571 284.375 203.571C284.375 203.571 284.375 203.571 284.495 203.571C284.737 203.571 284.978 203.571 285.219 203.571C285.46 203.571 285.701 203.692 285.943 203.812L280.516 200.677C280.395 200.677 280.395 200.556 280.274 200.556C280.154 200.556 280.154 200.436 280.033 200.436H279.913C279.792 200.436 279.671 200.436 279.671 200.436C279.551 200.436 279.43 200.436 279.31 200.436H279.189C279.189 200.436 279.189 200.436 279.068 200.436C278.948 200.436 278.948 200.436 278.827 200.436C278.707 200.436 278.586 200.436 278.345 200.556C278.345 200.556 278.224 200.556 278.104 200.677H277.983C277.862 200.677 277.862 200.677 277.742 200.797C277.501 200.918 277.259 201.039 277.018 201.159C276.656 201.28 276.415 201.521 276.053 201.762C275.933 201.883 275.812 201.883 275.812 202.003C275.691 202.124 275.571 202.245 275.33 202.365C275.209 202.486 275.209 202.486 275.089 202.606L274.968 202.727C274.847 202.848 274.847 202.848 274.727 202.968C274.606 203.089 274.485 203.33 274.365 203.451L274.244 203.571C274.244 203.571 274.244 203.571 274.124 203.692L274.003 203.812C273.882 203.933 273.762 204.054 273.762 204.174C273.641 204.295 273.641 204.415 273.521 204.536C273.4 204.657 273.4 204.777 273.28 204.898C273.159 205.018 273.159 205.139 273.038 205.26C273.038 205.38 272.918 205.501 272.918 205.621C272.797 205.742 272.797 205.863 272.797 206.104C272.797 206.224 272.677 206.466 272.677 206.586C272.677 206.707 272.676 206.707 272.556 206.827V206.948V207.069C272.556 207.31 272.435 207.43 272.435 207.672C272.435 207.792 272.435 207.913 272.435 208.033V208.154V208.275C272.435 208.636 272.315 208.878 272.315 209.239C272.315 210.807 272.797 211.772 273.762 212.375L279.189 215.511C278.345 215.028 277.742 213.943 277.742 212.375C277.742 212.013 277.742 211.651 277.862 211.29C277.862 211.169 277.862 211.048 277.862 211.048Z" fill="#595D69"/>
<path id="Vector_2" d="M282.566 203.933C285.219 202.365 287.39 203.571 287.39 206.707C287.39 209.722 285.219 213.46 282.566 215.028C279.913 216.596 277.742 215.39 277.742 212.254C277.742 209.239 279.913 205.501 282.566 203.933Z" fill="#616774"/>
<path id="Vector_3" d="M244.577 454.419C225.884 465.273 195.372 465.273 176.679 454.419C157.986 443.565 157.986 426.078 176.679 415.224C195.372 404.37 225.884 404.37 244.577 415.224C263.39 426.078 263.39 443.565 244.577 454.419Z" fill="#E7E9F2"/>
<path id="Vector_4" d="M407.146 288.596C407.025 288.716 407.025 288.716 406.904 288.837C407.025 288.837 407.025 288.716 407.146 288.596Z" fill="#323846"/>
<path id="Vector_5" d="M407.266 288.353C407.266 288.232 407.387 288.232 407.387 288.111C407.387 288.232 407.266 288.353 407.266 288.353Z" fill="#323846"/>
<path id="Vector_6" d="M406.543 289.197C406.422 289.318 406.422 289.318 406.301 289.438C406.301 289.318 406.422 289.318 406.543 289.197Z" fill="#323846"/>
<path id="Vector_7" d="M398.704 287.871C398.704 287.992 398.704 287.992 398.704 288.112C398.824 287.992 398.824 287.992 398.704 287.871Z" fill="#323846"/>
<path id="Vector_8" d="M398.945 288.354C398.945 288.474 398.945 288.474 399.065 288.595C398.945 288.474 398.945 288.474 398.945 288.354Z" fill="#323846"/>
<path id="Vector_9" d="M399.307 288.836L399.427 288.957C399.427 288.957 399.307 288.957 399.307 288.836Z" fill="#323846"/>
<path id="Vector_10" d="M548.489 160.276L549.936 159.432L549.333 359.628L547.886 360.472L548.489 160.276Z" fill="#9FA0A2"/>
<path id="Vector_11" d="M287.51 9.52584L288.958 8.68164L549.936 159.432L548.489 160.276L287.51 9.52584Z" fill="#A1A2A4"/>
<path id="Vector_12" d="M548.489 160.275L547.886 360.471L286.907 209.721L287.51 9.52539L548.489 160.275Z" fill="#F4F6F9"/>
<path id="Vector_13" d="M286.063 10.853C286.063 10.4912 286.184 10.1294 286.304 9.76763V9.64703C286.425 9.28523 286.546 8.92343 286.666 8.56163C286.787 8.19983 287.028 7.83803 287.269 7.47623C287.51 7.11443 287.752 6.75263 287.993 6.39083C287.993 6.39083 287.993 6.27023 288.113 6.27023C288.355 6.02903 288.596 5.66723 288.837 5.42603L288.958 5.30543C289.199 5.06423 289.319 4.94363 289.561 4.70243C289.681 4.58183 289.802 4.58183 289.802 4.46123C290.043 4.22003 290.405 3.97883 290.767 3.85823C291.128 3.73763 291.37 3.49643 291.611 3.49643H291.731C291.973 3.37583 292.214 3.37583 292.576 3.37583C292.576 3.37583 292.576 3.37583 292.696 3.37583C292.937 3.37583 293.179 3.37583 293.42 3.37583C293.661 3.37583 293.902 3.49643 294.143 3.61703L288.716 0.481434C288.596 0.481434 288.596 0.360834 288.475 0.360834C288.355 0.360834 288.355 0.240234 288.234 0.240234H288.113C287.993 0.240234 287.872 0.240234 287.872 0.240234C287.752 0.240234 287.631 0.240234 287.51 0.240234H287.39C287.39 0.240234 287.39 0.240234 287.269 0.240234C287.149 0.240234 287.149 0.240234 287.028 0.240234C286.907 0.240234 286.787 0.240234 286.546 0.360834C286.546 0.360834 286.425 0.360834 286.304 0.481434H286.184C286.063 0.481434 286.063 0.481434 285.943 0.602034C285.701 0.722634 285.46 0.843234 285.219 0.963834C284.857 1.08443 284.616 1.32563 284.254 1.56683C284.134 1.68743 284.013 1.68743 284.013 1.80803C283.892 1.92863 283.772 2.04923 283.531 2.16983C283.41 2.29043 283.41 2.29043 283.289 2.41103L283.169 2.53163C283.048 2.65223 283.048 2.65223 282.928 2.77283C282.807 2.89343 282.686 3.13463 282.566 3.25523L282.445 3.37583C282.445 3.37583 282.445 3.37583 282.325 3.49643L282.204 3.61703C282.083 3.73763 281.963 3.85823 281.963 3.97883C281.842 4.09943 281.842 4.22003 281.722 4.34063C281.601 4.46123 281.601 4.58183 281.48 4.70243C281.36 4.82303 281.36 4.94363 281.239 5.06423C281.239 5.18483 281.119 5.30543 281.119 5.42603C280.998 5.54663 280.998 5.66723 280.998 5.90843C280.998 6.02903 280.877 6.27023 280.877 6.39083C280.877 6.51143 280.877 6.51143 280.757 6.63203V6.75263V6.87323C280.757 7.11443 280.636 7.23503 280.636 7.47623C280.636 7.59683 280.636 7.71743 280.636 7.83803V7.95863V8.07923C280.636 8.44103 280.516 8.68223 280.516 9.04403C280.516 10.6118 281.119 11.5766 281.963 12.1796L287.39 15.3152C286.546 14.8328 285.943 13.7474 285.943 12.1796C285.943 11.8178 285.943 11.456 286.063 11.0942C286.063 10.9736 286.063 10.9736 286.063 10.853Z" fill="#595D69"/>
<path id="Vector_14" d="M290.767 3.85884C293.42 2.29104 295.591 3.49704 295.591 6.63264C295.591 9.64764 293.42 13.3862 290.767 14.954C288.113 16.5218 285.943 15.3158 285.943 12.1802C285.943 9.04464 288.113 5.30604 290.767 3.85884Z" fill="#616774"/>
<path id="Vector_15" d="M543.906 160.999L290.646 14.8321C288.475 13.6261 287.752 10.8523 288.958 8.68148C290.164 6.51068 292.937 5.78708 295.108 6.99308L548.368 153.16C550.539 154.366 551.263 157.14 550.057 159.311C548.73 161.482 545.956 162.205 543.906 160.999Z" fill="#D5D7E2"/>
<path id="Vector_16" d="M548.489 162.689C548.489 162.327 548.609 161.965 548.73 161.604V161.483C548.851 161.121 548.971 160.759 549.092 160.398C549.212 160.036 549.454 159.674 549.695 159.312C549.936 158.95 550.177 158.589 550.418 158.227C550.418 158.227 550.418 158.106 550.539 158.106C550.78 157.865 551.021 157.503 551.263 157.262L551.383 157.141C551.624 156.9 551.745 156.78 551.986 156.538C552.107 156.418 552.227 156.418 552.227 156.297C552.469 156.056 552.83 155.815 553.192 155.694C553.554 155.574 553.795 155.332 554.036 155.332H554.157C554.398 155.212 554.639 155.212 555.001 155.212C555.001 155.212 555.001 155.212 555.122 155.212C555.363 155.212 555.604 155.212 555.845 155.212C556.087 155.212 556.328 155.332 556.569 155.453L551.142 152.317C551.021 152.317 551.021 152.197 550.901 152.197C550.78 152.197 550.78 152.076 550.66 152.076H550.539C550.418 152.076 550.298 152.076 550.298 152.076C550.177 152.076 550.057 152.076 549.936 152.076H549.815C549.815 152.076 549.815 152.076 549.695 152.076C549.574 152.076 549.574 152.076 549.454 152.076C549.333 152.076 549.212 152.076 548.971 152.197C548.971 152.197 548.851 152.197 548.73 152.317H548.609C548.489 152.317 548.489 152.317 548.368 152.438C548.127 152.559 547.886 152.679 547.645 152.8C547.283 152.92 547.042 153.162 546.68 153.403C546.559 153.523 546.439 153.523 546.439 153.644C546.318 153.765 546.197 153.885 545.956 154.006C545.836 154.126 545.836 154.126 545.715 154.247L545.594 154.368C545.474 154.488 545.474 154.488 545.353 154.609C545.233 154.729 545.112 154.971 544.991 155.091L544.871 155.212C544.871 155.212 544.871 155.332 544.75 155.332L544.63 155.453C544.509 155.574 544.388 155.694 544.388 155.815C544.268 155.935 544.268 156.056 544.147 156.177C544.027 156.297 544.027 156.418 543.906 156.538C543.785 156.659 543.785 156.78 543.665 156.9C543.544 157.021 543.544 157.141 543.544 157.262C543.424 157.383 543.424 157.503 543.424 157.744C543.424 157.865 543.303 158.106 543.303 158.227C543.303 158.347 543.303 158.347 543.182 158.468V158.589V158.709C543.182 158.95 543.062 159.071 543.062 159.312C543.062 159.433 543.062 159.553 543.062 159.674V159.795V159.915C543.062 160.277 542.941 160.518 542.941 160.88C542.941 162.448 543.424 163.413 544.388 164.016L549.815 167.151C548.971 166.669 548.368 165.583 548.368 164.016C548.368 163.654 548.368 163.292 548.489 162.93C548.489 162.81 548.489 162.81 548.489 162.689Z" fill="#616774"/>
<path id="Vector_17" d="M553.192 155.574C555.845 154.006 558.016 155.212 558.016 158.347C558.016 161.362 555.845 165.101 553.192 166.669C550.539 168.237 548.368 167.031 548.368 163.895C548.368 160.88 550.539 157.141 553.192 155.574Z" fill="#595D69"/>
<g id="Group_2" opacity="0.8">
<g id="Group_3" opacity="0.8">
<path id="Vector_18" opacity="0.8" d="M388.573 150.266L319.469 110.348C315.369 108.056 312.113 109.865 312.113 114.569V173.422C312.113 178.125 315.369 183.793 319.469 186.205L346.484 201.763L353.961 221.059L361.438 210.446L388.452 226.003C392.553 228.295 395.809 226.486 395.809 221.782V162.929C395.93 158.226 392.674 152.558 388.573 150.266Z" fill="#DFE1EA"/>
<path id="Vector_19" opacity="0.8" d="M342.021 63.7958V86.1068L350.825 91.1719V96.2372L336.594 88.0364L336.715 60.6602L342.021 63.7958Z" fill="#3A4151"/>
<path id="Vector_20" opacity="0.8" d="M367.83 78.6295V83.6947L359.388 78.7501V84.9007L367.227 89.3629V94.4281L359.388 89.8453V96.1165L368.312 101.302V106.368L353.961 98.0461L354.082 70.6699L367.83 78.6295Z" fill="#3A4151"/>
<path id="Vector_21" opacity="0.8" d="M380.372 85.3841C381.578 86.1077 382.664 86.8312 383.628 87.5548C384.593 88.2784 385.437 89.002 386.282 89.8462V95.5144C385.92 94.9114 385.437 94.429 384.955 93.9466C384.473 93.4642 383.99 92.9818 383.508 92.4994C383.025 92.017 382.543 91.6552 382.061 91.2934C381.578 90.9316 381.096 90.5698 380.613 90.3286C380.01 89.9668 379.407 89.7257 378.925 89.6051C378.443 89.4845 377.96 89.3638 377.719 89.4844C377.357 89.4844 377.116 89.605 376.875 89.8462C376.634 90.0874 376.634 90.4493 376.634 90.8111C376.634 91.2935 376.754 91.7758 376.995 92.2582C377.237 92.7406 377.478 93.2231 377.84 93.8261C378.201 94.4291 378.684 94.9115 379.287 95.6351C379.89 96.2381 380.493 96.9616 381.216 97.6852C382.181 98.65 383.025 99.7354 383.749 100.58C384.473 101.544 385.196 102.509 385.679 103.474C386.161 104.439 386.643 105.404 386.885 106.368C387.126 107.333 387.367 108.419 387.367 109.504C387.367 111.072 387.126 112.157 386.643 112.881C386.161 113.604 385.437 114.087 384.593 114.207C383.749 114.328 382.664 114.207 381.578 113.846C380.372 113.484 379.166 112.881 377.96 112.157C376.634 111.434 375.428 110.589 374.222 109.625C373.016 108.66 372.051 107.695 371.207 106.73V100.58C372.171 102.027 373.257 103.353 374.342 104.439C375.428 105.524 376.634 106.489 377.719 107.092C378.443 107.454 379.046 107.816 379.528 107.936C380.01 108.057 380.493 108.177 380.734 108.057C381.096 108.057 381.337 107.816 381.458 107.574C381.578 107.333 381.699 106.971 381.699 106.61C381.699 106.127 381.578 105.524 381.337 104.921C381.096 104.318 380.734 103.715 380.252 103.112C379.769 102.509 379.287 101.786 378.563 101.183C377.96 100.459 377.237 99.7354 376.513 99.0118C374.704 97.0822 373.257 95.1526 372.413 93.3436C371.448 91.5346 371.086 89.7256 371.086 87.9166C371.086 86.4694 371.327 85.384 371.81 84.6604C372.292 83.9368 373.016 83.4544 373.86 83.3338C374.704 83.2132 375.669 83.2133 376.875 83.5751C378.081 83.9369 379.046 84.6605 380.372 85.3841Z" fill="#3A4151"/>
<path id="Vector_22" opacity="0.8" d="M399.427 96.3567C400.633 97.0803 401.719 97.8039 402.683 98.5275C403.648 99.2511 404.492 99.9747 405.337 100.819V106.487C404.975 105.884 404.492 105.402 404.01 104.919C403.528 104.437 403.045 103.955 402.563 103.472C402.08 102.99 401.598 102.628 401.116 102.266C400.633 101.904 400.151 101.543 399.668 101.301C399.065 100.94 398.462 100.698 397.98 100.578C397.498 100.457 397.015 100.337 396.774 100.457C396.412 100.457 396.171 100.578 395.93 100.819C395.689 101.06 395.689 101.422 395.689 101.784C395.689 102.266 395.809 102.749 396.05 103.231C396.292 103.713 396.533 104.196 396.895 104.799C397.256 105.402 397.739 105.884 398.342 106.608C398.945 107.211 399.548 107.934 400.271 108.658C401.236 109.623 402.08 110.708 402.804 111.552C403.528 112.517 404.251 113.482 404.734 114.447C405.337 115.412 405.698 116.376 405.94 117.341C406.181 118.306 406.422 119.391 406.422 120.477C406.422 122.045 406.181 123.13 405.698 123.854C405.216 124.577 404.492 125.06 403.648 125.18C402.804 125.301 401.839 125.18 400.633 124.818C399.427 124.457 398.221 123.854 397.015 123.13C395.689 122.406 394.483 121.562 393.277 120.597C392.071 119.633 391.106 118.668 390.262 117.703V111.552C391.226 113 392.312 114.326 393.397 115.412C394.483 116.497 395.689 117.462 396.774 118.065C397.498 118.427 397.98 118.788 398.583 118.909C399.065 119.03 399.548 119.15 399.789 119.03C400.151 119.03 400.392 118.788 400.513 118.547C400.633 118.306 400.754 117.944 400.754 117.582C400.754 117.1 400.633 116.497 400.392 115.894C400.151 115.291 399.789 114.688 399.307 114.085C398.824 113.482 398.342 112.758 397.618 112.155C397.015 111.432 396.292 110.708 395.568 109.985C393.759 108.055 392.312 106.125 391.468 104.316C390.503 102.507 390.141 100.698 390.141 98.8893C390.141 97.4421 390.382 96.3567 390.865 95.6331C391.347 94.9095 392.071 94.4271 392.915 94.3065C393.759 94.1859 394.724 94.1859 395.93 94.5477C397.015 95.1507 398.221 95.6331 399.427 96.3567Z" fill="#3A4151"/>
<path id="Vector_23" opacity="0.8" d="M429.095 117.341C431.145 121.08 432.23 125.059 432.23 129.28C432.23 133.622 431.145 136.396 428.974 137.843C426.803 139.17 423.909 138.929 420.411 136.878C417.035 134.949 414.261 132.054 412.09 128.195C409.919 124.457 408.834 120.477 408.834 116.376C408.834 112.035 409.919 109.14 412.09 107.814C414.261 106.366 417.155 106.728 420.773 108.778C424.271 110.708 426.924 113.603 429.095 117.341ZM424.874 131.813C425.959 130.848 426.562 129.039 426.562 126.386C426.562 123.492 426.08 121.08 424.994 118.788C423.909 116.617 422.462 114.929 420.653 113.964C418.723 112.879 417.276 112.879 416.19 113.844C415.105 114.809 414.502 116.618 414.502 119.271C414.502 122.045 414.984 124.457 416.19 126.627C417.276 128.798 418.723 130.487 420.532 131.451C422.341 132.657 423.788 132.778 424.874 131.813Z" fill="#3A4151"/>
<path id="Vector_24" opacity="0.8" d="M457.677 130.488L457.556 157.864L452.129 154.729L442.361 131.815C441.758 130.488 441.396 129.523 441.155 128.8C441.155 129.765 441.275 131.332 441.155 133.262V148.337L436.089 145.443L436.21 118.066L441.999 121.443L451.406 143.634C451.888 144.598 452.25 145.563 452.612 146.528C452.612 145.925 452.612 144.598 452.612 142.789V127.594L457.677 130.488Z" fill="#3A4151"/>
<path id="Vector_25" opacity="0.8" d="M482.762 144.478L482.641 167.633L487.586 170.407V175.231L472.511 166.427V161.724L477.455 164.618V147.493L472.39 145.804V140.98L482.762 144.478Z" fill="#3A4151"/>
<path id="Vector_26" opacity="0.8" d="M490.359 271.108V277.982L420.17 237.46V230.586L490.359 271.108Z" fill="#D5D7E2"/>
<path id="Vector_27" opacity="0.8" d="M502.299 264.835V271.83L420.17 224.314V217.439L502.299 264.835Z" fill="#D5D7E2"/>
<path id="Vector_28" opacity="0.8" d="M515.203 246.143V253.017L420.291 198.144V191.27L515.203 246.143Z" fill="#D5D7E2"/>
<path id="Vector_29" opacity="0.8" d="M515.324 221.541V235.289L420.291 180.416V166.668L515.324 221.541Z" fill="#D5D7E2"/>
<path id="Vector_30" opacity="0.8" d="M515.203 259.168V266.043L420.17 211.29L420.291 204.416L515.203 259.168Z" fill="#D5D7E2"/>
</g>
</g>
<path id="Vector_31" d="M228.296 174.628C232.878 179.693 237.461 184.758 242.044 189.703C246.868 195.009 251.933 200.557 258.687 203.21C269.903 207.793 282.807 203.572 293.661 198.265C298.123 196.094 302.465 193.803 306.686 191.27C311.51 188.376 311.148 188.135 315.731 184.999C318.625 183.07 321.519 181.14 324.534 179.452C327.429 177.884 331.047 176.678 333.218 174.266C334.544 172.698 335.388 170.889 336.233 169.08C338.283 164.618 341.298 159.07 340.092 154.005C339.971 153.402 339.73 152.799 339.73 152.075C339.73 150.99 340.212 150.025 340.333 148.94C340.333 147.854 339.489 146.528 338.403 147.01C338.042 147.131 337.68 147.613 337.439 147.975C336.233 149.422 334.665 150.387 333.097 151.352C326.705 155.332 320.916 160.276 315.61 165.583C307.65 173.542 304.032 176.678 293.54 180.899C286.666 183.673 287.993 182.708 280.636 183.311C273.279 183.914 265.44 182.105 260.013 177.16C257.24 174.628 255.189 171.371 253.26 168.115L244.335 153.643L228.296 174.628Z" fill="#FFCEA9"/>
<path id="Vector_32" d="M176.558 426.2C181.141 429.939 187.895 426.562 188.257 426.803C192.96 431.507 199.955 436.813 205.141 440.793C208.035 443.084 212.377 445.979 211.653 450.32C210.206 458.039 197.905 455.627 193.201 453.335C188.618 451.044 184.759 447.064 180.297 444.29C177.161 442.361 174.026 441.275 173.543 437.416C173.302 435.125 175.714 426.08 176.558 426.2Z" fill="#38226D"/>
<path id="Vector_33" d="M173.664 435.969C174.267 439.707 177.282 440.793 180.418 442.722C184.88 445.496 188.86 449.476 193.442 451.888C197.784 454.059 208.517 456.23 211.532 450.682C209.844 458.159 197.784 455.747 193.201 453.456C188.618 451.164 184.759 447.185 180.297 444.411C177.161 442.481 174.026 441.396 173.543 437.537C173.543 437.175 173.543 436.572 173.664 435.969Z" fill="#9C73FF"/>
<path id="Vector_34" d="M216.236 411.486C220.818 415.224 228.778 411.124 229.14 411.486C233.843 416.189 239.029 421.013 244.215 425.114C247.109 427.405 251.451 430.299 250.727 434.641C249.28 442.359 236.979 439.947 232.275 437.656C227.693 435.365 223.833 431.385 219.371 428.611C216.236 426.681 213.1 425.596 212.618 421.737C212.376 419.325 215.391 411.365 216.236 411.486Z" fill="#38226D"/>
<path id="Vector_35" d="M212.859 420.652C213.462 424.391 216.477 425.476 219.612 427.406C224.075 430.18 228.054 434.16 232.637 436.572C236.979 438.742 247.712 440.913 250.727 435.366C249.039 442.843 236.979 440.431 232.396 438.139C227.813 435.848 223.954 431.868 219.492 429.094C216.356 427.165 213.221 426.079 212.738 422.22C212.738 421.858 212.738 421.255 212.859 420.652Z" fill="#9C73FF"/>
<path id="Vector_36" d="M176.317 257.481C176.558 264.355 178.729 294.384 179.694 310.304C180.659 326.223 180.9 345.639 180.9 345.639C180.9 345.639 178.126 357.217 176.438 370.845C174.629 384.473 176.438 427.406 176.438 427.406C176.438 427.406 181.624 431.265 188.136 427.406C188.136 427.406 195.493 393.035 198.869 377.598C202.246 362.162 202.849 353.237 204.658 343.589C206.829 332.012 211.412 277.862 211.412 277.862L213.221 277.983L218.165 339.127C218.165 339.127 216.236 344.192 215.03 352.996C213.703 363.006 216.477 413.055 216.477 413.055C216.477 413.055 222.145 416.793 229.14 412.572C229.14 412.572 241.321 346.242 241.321 336.112C241.321 329.479 240.235 241.32 240.235 241.32L176.317 257.481Z" fill="#8C50FF"/>
<path id="Vector_37" d="M192.839 123.977C192.839 123.977 193.563 139.052 193.322 140.378C192.96 141.705 186.448 146.167 184.518 147.735C182.588 149.303 194.89 161.483 200.92 164.257C206.95 167.031 225.884 159.795 226.246 150.388C226.607 141.102 222.989 133.263 220.095 132.78C217.08 132.419 192.839 123.977 192.839 123.977Z" fill="#FFCEA9"/>
<path id="Vector_38" d="M191.151 142.911C191.151 142.911 202.126 159.192 217.321 160.76C222.145 156.056 222.628 139.172 215.874 133.745C215.874 133.745 222.025 128.801 226.125 129.765C226.125 129.765 232.758 133.142 235.532 141.825C238.306 150.388 241.2 160.76 240.959 176.679C240.718 192.719 240.959 241.562 240.959 241.562C240.959 241.562 238.788 251.933 225.04 259.531C211.291 267.249 201.04 267.973 191.633 265.802C183.915 263.993 177.523 261.219 174.87 255.672C175.594 244.456 180.538 215.271 178.729 201.161C176.92 187.05 173.905 176.558 173.061 165.101C172.337 153.765 174.508 153.885 180.297 149.906C188.015 144.479 191.151 142.911 191.151 142.911Z" fill="#F4F4F4"/>
<path id="Vector_39" d="M200.317 269.661C197.905 268.214 196.096 266.164 192.478 264.475C189.342 262.907 187.051 262.304 184.88 259.892C182.468 257.239 179.935 247.471 177.523 238.184C174.749 227.089 175.111 212.376 176.197 206.105C178.367 193.321 184.156 175.593 185.845 168.236C187.533 160.88 185.362 157.744 182.106 154.85C178.247 151.352 172.579 152.438 168.961 162.568C165.222 172.699 160.639 191.392 159.313 206.105C158.71 213.22 158.589 224.677 162.207 238.908C164.619 248.797 168.237 256.154 172.94 265.319C174.146 267.852 174.508 270.023 176.317 274.967C178.126 280.033 181.503 285.339 185 288.233C188.498 291.128 190.186 291.61 191.03 291.128C192.116 290.525 191.995 289.439 190.548 287.872C189.101 286.424 186.448 284.133 184.518 280.153C184.518 280.153 187.533 283.53 189.463 285.46C191.392 287.389 193.563 288.836 195.251 289.681C197.302 290.766 200.437 289.198 198.99 287.63C197.543 286.063 196.096 285.339 193.201 282.445C190.548 279.912 189.221 277.5 189.221 277.5C189.221 277.5 192.478 280.394 195.613 282.324C198.749 284.254 200.558 284.374 201.643 284.374C202.729 284.374 204.296 282.927 202.246 281.239C200.437 279.791 197.543 278.585 194.528 275.209C192.357 272.797 191.151 270.746 191.875 270.746C192.478 270.746 193.684 272.314 196.337 273.279C198.869 274.244 202.005 273.761 202.367 272.314C202.849 270.746 202.729 271.108 200.317 269.661Z" fill="#FFCEA9"/>
<path id="Vector_40" d="M226.969 101.543C225.16 89.8452 216.718 81.0414 204.658 81.6444C191.875 82.368 181.985 93.3426 182.709 106.126C183.071 113.603 187.051 119.995 192.839 123.975C192.839 123.975 193.925 128.196 194.648 129.04C198.869 133.985 211.774 137.12 215.512 136.638C220.216 135.914 222.869 133.985 225.16 128.799C229.14 119.513 227.934 107.332 226.969 101.543Z" fill="#FFCEA9"/>
<path id="Vector_41" d="M192.839 123.976L193.925 113.725C193.925 113.725 185.603 92.138 205.261 96.2384C218.286 99.0122 221.542 100.218 225.522 91.4144C229.502 82.7312 215.512 74.8922 198.99 77.063C182.468 79.2338 178.005 93.8264 178.488 100.339C178.85 106.731 180.659 119.755 192.839 123.976Z" fill="#3A2C6D"/>
<path id="Vector_42" d="M159.071 182.588C159.071 182.588 169.805 193.321 182.588 190.186C184.397 188.98 188.739 163.895 188.739 163.895C188.739 163.895 188.739 150.026 178.126 150.388C167.513 150.75 159.071 182.588 159.071 182.588Z" fill="#EDEDED"/>
<path id="Vector_43" d="M240.356 161.844C240.356 161.844 246.024 161.603 248.315 158.346C247.833 152.799 240.718 131.453 226.366 129.885C226.366 129.885 232.637 133.985 235.411 140.739C237.823 147.131 240.356 161.844 240.356 161.844Z" fill="#EDEDED"/>
<path id="Vector_44" d="M321.399 182.226L324.414 175.834L328.032 177.281L325.982 183.914L321.399 182.226Z" fill="#666666"/>
<path id="Vector_45" d="M332.132 154.73L354.443 98.2891L356.252 99.0127L336.595 156.418L332.132 154.73Z" fill="#666666"/>
<path id="Vector_46" d="M52.8228 530.518L74.5308 550.296L95.0328 531.121" stroke="#323846" stroke-width="1.472" stroke-miterlimit="10"/>
<path id="Vector_47" d="M79.2342 503.865L119.273 558.859L115.655 561.512L74.5308 507.363L79.2342 503.865Z" fill="#E0E2E5"/>
<path id="Vector_48" d="M116.741 555.483C116.861 555.483 116.861 555.483 116.741 555.483C116.741 555.604 116.741 555.604 116.741 555.604C116.741 555.724 116.741 555.724 116.741 555.845C116.741 555.966 116.741 555.966 116.741 556.086V556.207C116.741 556.327 116.62 556.569 116.499 556.689C116.499 556.689 116.499 556.81 116.379 556.81C116.379 556.93 116.258 556.93 116.258 557.051C116.258 557.051 116.258 557.051 116.258 557.172L116.138 557.292C116.017 557.413 116.017 557.413 115.896 557.413L115.655 557.533C115.535 557.533 115.535 557.654 115.414 557.654C115.414 557.654 115.414 557.654 115.293 557.654C115.293 557.654 115.293 557.654 115.173 557.654C115.052 557.654 115.052 557.775 114.932 557.775C114.932 557.775 114.932 557.775 114.811 557.775C114.811 557.775 114.811 557.775 114.69 557.775H114.57C114.449 557.775 114.449 557.775 114.329 557.895C114.329 557.895 114.329 557.895 114.208 557.895C114.087 557.895 113.967 557.895 113.846 558.016C113.605 558.016 113.364 558.016 113.123 557.895L115.414 561.151C115.655 561.513 116.017 561.634 116.62 561.634C116.741 561.634 116.861 561.634 116.982 561.634C117.102 561.634 117.102 561.634 117.223 561.634H117.344C117.464 561.634 117.464 561.513 117.585 561.513C117.585 561.513 117.585 561.513 117.705 561.513C117.705 561.513 117.705 561.513 117.826 561.513C117.947 561.513 117.947 561.393 118.067 561.393L118.308 561.272C118.429 561.272 118.429 561.152 118.55 561.031L118.67 560.91C118.67 560.91 118.67 560.91 118.67 560.79C118.791 560.548 118.911 560.428 119.032 560.187C119.153 559.945 119.273 559.584 119.273 559.342C119.273 558.86 118.911 558.619 118.67 558.257C118.429 557.895 118.188 557.533 117.826 557.172C117.585 556.569 117.223 555.966 116.741 555.483C116.741 555.363 116.741 555.483 116.741 555.483Z" fill="#323846"/>
<path id="Vector_49" d="M72.36 507.845L27.2556 568.145L23.6376 565.492L67.6566 504.348L72.36 507.845Z" fill="#E0E2E5"/>
<path id="Vector_50" d="M29.6676 564.769C29.547 564.769 29.547 564.769 29.547 564.769C29.4264 564.769 29.4264 564.769 29.3058 564.769C29.1852 564.769 29.1852 564.769 29.0646 564.769H28.944C28.8234 564.769 28.5822 564.769 28.4616 564.649H28.341C28.2204 564.649 28.2204 564.649 28.0998 564.528C28.0998 564.528 28.0998 564.528 27.9792 564.528C27.8586 564.528 27.8586 564.528 27.738 564.408C27.738 564.408 27.738 564.408 27.6174 564.408C27.4968 564.408 27.4968 564.287 27.3762 564.287L27.135 564.166C27.0144 564.166 27.0144 564.046 26.8938 564.046C26.8938 564.046 26.8938 564.046 26.7732 564.046C26.7732 564.046 26.7732 564.046 26.6526 564.046C26.532 564.046 26.532 563.925 26.532 563.925C26.532 563.925 26.532 563.805 26.4114 563.805C26.4114 563.805 26.2908 563.684 26.2908 563.563C26.2908 563.563 26.2908 563.563 26.2908 563.443C26.1702 563.322 26.1702 563.202 26.1702 563.081C26.0496 562.84 26.0496 562.599 26.0496 562.357L23.6376 565.493C23.3964 565.855 23.3964 566.217 23.517 566.82C23.517 566.94 23.6376 567.061 23.6376 567.181C23.6376 567.181 23.7582 567.302 23.7582 567.423C23.7582 567.423 23.7582 567.423 23.8788 567.543L23.9994 567.664C23.9994 567.664 23.9994 567.664 24.12 567.664C24.12 567.664 24.12 567.664 24.2406 567.664L24.3612 567.784L24.6024 567.905C24.723 567.905 24.723 568.026 24.8436 568.026C24.9642 568.026 24.9642 568.146 24.9642 568.146C24.9642 568.146 24.9642 568.146 25.0848 568.146C25.326 568.267 25.5672 568.267 25.8084 568.387C26.1702 568.387 26.4114 568.387 26.7732 568.387C27.135 568.267 27.3762 567.784 27.6174 567.543C27.8586 567.181 28.0998 566.82 28.4616 566.458C28.944 565.855 29.3058 565.372 29.6676 564.769C29.7882 564.769 29.7882 564.769 29.6676 564.769Z" fill="#323846"/>
<path id="Vector_51" d="M64.6416 509.293C64.6416 509.293 65.2446 510.74 66.4506 511.705C67.6566 512.67 69.1038 512.911 69.1038 512.911L70.6716 510.861C70.6716 510.861 71.3952 509.896 71.757 509.414C72.2394 508.811 72.7218 508.208 73.2042 507.484C73.566 507.002 73.8072 506.278 73.566 505.555C73.566 505.434 73.4454 505.193 73.4454 505.072C73.4454 505.072 73.4454 505.072 73.4454 504.952C73.4454 504.831 73.3248 504.831 73.3248 504.71L73.2042 504.59C73.2042 504.59 73.2042 504.59 73.2042 504.469C73.2042 504.469 73.2042 504.469 73.2042 504.349C73.2042 504.228 73.0836 504.228 72.963 504.107C72.963 504.107 72.963 504.107 72.8424 503.987C72.8424 503.987 72.8424 503.987 72.7218 503.866C72.6012 503.746 72.6012 503.746 72.4806 503.746L72.2394 503.625C72.1188 503.504 71.9982 503.504 71.8776 503.384C71.8776 503.384 71.8776 503.384 71.757 503.384C71.6364 503.384 71.6364 503.263 71.5158 503.263H71.3952C71.0334 503.263 70.7922 503.143 70.4304 503.143C69.948 503.143 69.5862 503.143 69.1038 503.384C68.5008 503.746 68.139 504.349 67.7772 504.831C67.2948 505.434 66.933 506.037 66.4506 506.64L65.3652 508.087C65.2446 508.208 64.6416 509.293 64.6416 509.293Z" fill="#3A4151"/>
<path id="Vector_52" d="M78.7518 512.669C78.7518 512.669 80.3196 512.548 81.5256 511.584C82.7316 510.739 83.4552 509.292 83.4552 509.292L81.8874 507.242C81.8874 507.242 81.1638 506.277 80.802 505.795C80.3196 505.192 79.8372 504.468 79.3548 503.865C78.993 503.383 78.39 503.021 77.5458 502.9C77.4252 502.9 77.184 502.9 76.9428 502.9C76.9428 502.9 76.9428 502.9 76.8222 502.9C76.7016 502.9 76.581 502.9 76.581 502.9H76.4604C76.4604 502.9 76.4604 502.9 76.3398 502.9C76.3398 502.9 76.3398 502.9 76.2192 502.9C76.0986 502.9 76.0986 503.021 75.978 503.021C75.978 503.021 75.978 503.021 75.8574 503.021C75.8574 503.021 75.8574 503.021 75.7368 503.021H75.6162C75.4956 503.021 75.4956 503.142 75.375 503.142L75.1338 503.383C75.0132 503.503 75.0132 503.503 74.8926 503.624C74.8926 503.624 74.8926 503.624 74.8926 503.745C74.772 503.865 74.772 503.865 74.772 503.986V504.106C74.6514 504.468 74.4102 504.709 74.4102 504.951C74.2896 505.433 74.169 505.795 74.2896 506.277C74.4102 507.001 74.8926 507.483 75.375 507.966C75.8574 508.569 76.2192 509.051 76.7016 509.654C77.0634 510.136 77.4252 510.619 77.787 511.101C77.9076 511.704 78.7518 512.669 78.7518 512.669Z" fill="#3A4151"/>
<g id="Group_4">
<g id="Group_5">
<g id="Group_6">
<g id="Group_7">
<g id="Group_8">
<g id="Group_9">
<g id="Group_10">
<path id="Vector_53" d="M79.2343 545.473V549.091C79.2343 549.211 79.2343 549.211 79.1136 549.332V545.714C79.2343 545.593 79.2343 545.473 79.2343 545.473Z" fill="#1F232B"/>
<path id="Vector_54" d="M79.1136 545.713V549.331C79.1136 549.452 78.993 549.452 78.993 549.572V545.954C79.1136 545.834 79.1136 545.713 79.1136 545.713Z" fill="#20242D"/>
<path id="Vector_55" d="M78.9929 545.955V549.573C78.9929 549.694 78.8723 549.814 78.7517 549.814V546.196C78.8723 546.076 78.9929 546.076 78.9929 545.955Z" fill="#21252E"/>
<path id="Vector_56" d="M78.8724 546.195V549.813C78.7518 549.934 78.6312 550.055 78.6312 550.175V546.557C78.6312 546.437 78.7518 546.316 78.8724 546.195Z" fill="#222630"/>
<path id="Vector_57" d="M78.5106 546.559V550.177C78.39 550.297 78.1488 550.538 77.9076 550.659V547.041C78.1488 546.8 78.39 546.679 78.5106 546.559Z" fill="#232731"/>
<path id="Vector_58" d="M77.9075 547.041V550.659C77.5457 550.9 77.3045 551.021 76.9427 551.141V547.523C77.1839 547.403 77.5457 547.162 77.9075 547.041Z" fill="#242832"/>
<path id="Vector_59" d="M76.8222 547.523V551.141C76.581 551.262 76.2192 551.262 75.978 551.383V547.765C76.3398 547.644 76.581 547.523 76.8222 547.523Z" fill="#232731"/>
<path id="Vector_60" d="M75.978 547.643V551.261C75.7368 551.261 75.6162 551.381 75.375 551.381V547.763C75.6162 547.763 75.7368 547.763 75.978 547.643Z" fill="#222630"/>
<path id="Vector_61" d="M75.375 547.764V551.382C75.2544 551.382 75.0132 551.382 74.8926 551.382V547.764C75.0132 547.764 75.2544 547.764 75.375 547.764Z" fill="#21252E"/>
<path id="Vector_62" d="M74.8927 547.764V551.382C74.7721 551.382 74.5309 551.382 74.4103 551.382V547.764C74.5309 547.764 74.6515 547.764 74.8927 547.764Z" fill="#20242D"/>
<path id="Vector_63" d="M74.4101 547.764V551.382C74.2895 551.382 74.0483 551.382 73.9277 551.382V547.764C74.0483 547.764 74.2895 547.764 74.4101 547.764Z" fill="#1F232B"/>
<path id="Vector_64" d="M73.9278 547.764V551.382C73.8072 551.382 73.566 551.382 73.4454 551.382V547.764C73.566 547.764 73.8072 547.764 73.9278 547.764Z" fill="#1E222A"/>
<path id="Vector_65" d="M73.4454 547.763V551.381C73.3248 551.381 73.0836 551.381 72.963 551.261V547.643C73.2042 547.643 73.3248 547.763 73.4454 547.763Z" fill="#1D2029"/>
<path id="Vector_66" d="M72.963 547.644V551.262C72.8424 551.262 72.6012 551.141 72.4806 551.141V547.523C72.7218 547.523 72.8424 547.644 72.963 547.644Z" fill="#1C1F27"/>
<path id="Vector_67" d="M72.4806 547.522V551.14C72.2394 551.14 72.1188 551.02 71.8776 550.899V547.281C72.1188 547.402 72.36 547.522 72.4806 547.522Z" fill="#1B1E26"/>
<path id="Vector_68" d="M71.9982 547.282V550.9C71.757 550.779 71.5158 550.658 71.2746 550.538C70.3098 550.055 69.948 549.332 69.948 548.608V544.99C69.948 545.714 70.4304 546.437 71.2746 546.92C71.5158 547.161 71.757 547.282 71.9982 547.282Z" fill="#1A1D24"/>
</g>
</g>
</g>
</g>
</g>
<path id="Vector_69" d="M77.9076 543.181C79.7166 544.267 79.7166 545.955 77.9076 547.04C76.0986 548.126 73.0836 548.126 71.2746 547.04C69.4656 545.955 69.4656 544.267 71.2746 543.181C73.0836 542.096 76.0986 542.096 77.9076 543.181Z" fill="#2B303C"/>
</g>
</g>
<path id="Vector_70" d="M77.3046 339.73L77.184 499.766V508.088V545.353V545.474C77.184 545.474 77.184 545.474 77.184 545.594C77.184 545.715 77.184 545.715 77.0634 545.715C77.0634 545.715 77.0634 545.715 77.0634 545.835C77.0634 545.956 76.9428 545.956 76.9428 545.956C76.9428 545.956 76.8222 546.077 76.7016 546.077C76.7016 546.077 76.581 546.077 76.581 546.197C76.4604 546.318 76.2192 546.318 76.0986 546.438H75.978C75.8574 546.438 75.8574 546.438 75.7368 546.438C75.7368 546.438 75.7368 546.438 75.6162 546.438C75.4956 546.438 75.4956 546.438 75.375 546.438C75.375 546.438 75.375 546.438 75.2544 546.438C75.1338 546.438 75.0132 546.438 75.0132 546.438H74.772C74.6514 546.438 74.5308 546.438 74.5308 546.438C74.5308 546.438 74.5308 546.438 74.4102 546.438C74.4102 546.438 74.4102 546.438 74.2896 546.438H74.0484C74.0484 546.438 74.0484 546.438 73.9278 546.438C73.9278 546.438 73.9278 546.438 73.8072 546.438H73.6866C73.566 546.438 73.566 546.438 73.4454 546.318C73.4454 546.318 73.4454 546.318 73.3248 546.318C73.2042 546.318 73.0836 546.197 72.963 546.197C72.4806 545.835 72.2394 545.474 72.2394 545.112V507.846V499.646L72.36 339.489C72.36 339.127 72.6012 338.765 73.0836 338.403C74.0484 337.8 75.7368 337.8 76.8222 338.403C77.4252 338.765 77.6664 339.248 77.5458 339.609C77.3046 339.851 77.3046 339.73 77.3046 339.73Z" fill="#E0E2E5"/>
<path id="Vector_71" d="M77.184 499.766V508.087V508.208V508.328V508.449C77.184 508.449 77.184 508.449 77.184 508.569L77.0634 508.69L76.9428 508.811L76.8222 508.931C76.7016 509.052 76.3398 509.172 76.3398 509.172C76.3398 509.172 76.3398 509.172 76.2192 509.172H76.0986C75.978 509.172 75.978 509.172 75.8574 509.293C75.8574 509.293 75.8574 509.293 75.7368 509.293C75.6162 509.293 75.6162 509.293 75.4956 509.293C75.4956 509.293 75.4956 509.293 75.375 509.293C75.2544 509.293 75.1338 509.293 75.1338 509.293H74.8926C74.772 509.293 74.6514 509.293 74.6514 509.293C74.6514 509.293 74.6514 509.293 74.5308 509.293H74.4102C74.2896 509.293 74.2896 509.293 74.169 509.293C74.169 509.293 74.169 509.293 74.0484 509.293C74.0484 509.293 74.0484 509.293 73.9278 509.293H73.8072C73.6866 509.293 73.6866 509.293 73.566 509.172C73.566 509.172 73.566 509.172 73.4454 509.172C73.3248 509.172 73.2042 509.052 73.0836 509.052C72.6012 508.811 72.36 508.328 72.36 507.966V499.766C72.4806 499.886 72.7218 500.127 73.0836 500.248C73.2042 500.369 73.3248 500.369 73.4454 500.369C73.4454 500.369 73.4454 500.369 73.566 500.369C73.6866 500.369 73.6866 500.369 73.8072 500.489H73.9278C73.9278 500.489 73.9278 500.489 74.0484 500.489C74.169 500.489 74.0484 500.489 74.169 500.489C74.2896 500.489 74.2896 500.489 74.4102 500.489H74.5308C74.5308 500.489 74.5308 500.489 74.6514 500.489C74.6514 500.489 74.6514 500.489 74.772 500.489C74.8926 500.489 75.0132 500.489 75.0132 500.489H74.772C74.8926 500.489 75.0132 500.489 75.1338 500.489H75.2544C75.375 500.489 75.375 500.489 75.4956 500.489C75.4956 500.489 75.4956 500.489 75.6162 500.489C75.7368 500.489 75.7368 500.489 75.8574 500.369H75.978C76.2192 500.248 76.3398 500.248 76.581 500.127C76.581 500.127 76.7016 500.127 76.7016 500.007L76.8222 499.886L76.9428 499.766C77.0634 499.886 77.0634 499.886 77.184 499.766C77.184 499.886 77.184 499.886 77.184 499.766C77.184 499.886 77.184 499.886 77.184 499.766Z" fill="#252935"/>
<path id="Vector_72" d="M77.9076 507.242L90.9324 601.19L86.4702 601.913L72.1188 508.086L77.9076 507.242Z" fill="#E0E2E5"/>
<path id="Vector_73" d="M90.3294 597.09C90.3294 597.09 90.3294 597.21 90.3294 597.09C90.3294 597.21 90.3294 597.21 90.3294 597.21C90.3294 597.331 90.2088 597.331 90.2088 597.452L90.0882 597.572L89.9676 597.693C89.847 597.813 89.7264 597.934 89.4852 597.934H89.3646C89.244 597.934 89.244 598.055 89.1234 598.055C89.1234 598.055 89.1234 598.055 89.0028 598.055C88.8822 598.055 88.8822 598.055 88.7616 598.175C88.7616 598.175 88.7616 598.175 88.641 598.175C88.5204 598.175 88.5204 598.175 88.3998 598.175H88.1586C88.038 598.175 88.038 598.175 87.9174 598.175C87.9174 598.175 87.9174 598.175 87.7968 598.175C87.7968 598.175 87.7968 598.175 87.6762 598.175C87.6762 598.175 87.6762 598.175 87.5556 598.175C87.435 598.175 87.435 598.175 87.3144 598.175C87.3144 598.175 87.3144 598.175 87.1938 598.175C87.1938 598.175 87.1938 598.175 87.0732 598.175H86.9526C86.832 598.175 86.832 598.175 86.7114 598.175C86.7114 598.175 86.7114 598.175 86.5908 598.175C86.4702 598.175 86.3496 598.055 86.229 598.055C85.9878 597.934 85.7466 597.813 85.626 597.572L86.1084 601.552C86.1084 601.914 86.4702 602.276 86.9526 602.517C87.0732 602.517 87.1938 602.637 87.3144 602.637C87.435 602.637 87.435 602.637 87.5556 602.637H87.6762C87.6762 602.637 87.6762 602.637 87.7968 602.637C87.7968 602.637 87.7968 602.637 87.9174 602.637C88.038 602.637 88.038 602.637 88.1586 602.637C88.1586 602.637 88.1586 602.637 88.2792 602.637C88.2792 602.637 88.2792 602.637 88.3998 602.637C88.5204 602.637 88.5204 602.637 88.641 602.637H88.8822C89.0028 602.637 89.0028 602.637 89.1234 602.637C89.244 602.637 89.244 602.637 89.3646 602.637C89.3646 602.637 89.3646 602.637 89.4852 602.637C89.7264 602.517 89.9676 602.396 90.0882 602.276C90.3294 602.034 90.5706 601.914 90.6912 601.552C90.9324 601.19 90.8118 600.708 90.6912 600.346C90.5706 599.864 90.5706 599.502 90.45 599.019C90.5706 598.416 90.45 597.693 90.3294 597.09C90.45 597.09 90.3294 597.09 90.3294 597.09Z" fill="#323846"/>
<path id="Vector_74" d="M72.8424 512.429V512.309C72.8424 512.309 72.8424 512.309 72.8424 512.188C72.8424 512.188 72.8424 512.188 72.8424 512.067C72.8424 511.947 72.963 511.826 72.963 511.826C72.963 511.706 73.0836 511.706 73.0836 511.585C73.0836 511.464 73.2042 511.464 73.2042 511.464C73.3248 511.344 73.566 511.103 73.6866 510.982C73.6866 510.982 73.6866 510.982 73.8072 510.982C73.8072 510.982 73.9278 510.982 73.9278 510.861C74.0484 510.861 74.0484 510.741 74.169 510.741H74.2896C74.4102 510.741 74.4102 510.62 74.5308 510.62C74.5308 510.62 74.5308 510.62 74.6514 510.62C74.772 510.62 74.8926 510.62 75.0132 510.5H75.375C75.4956 510.5 75.6162 510.5 75.7368 510.5H75.8574C75.8574 510.5 75.8574 510.5 75.978 510.5H76.0986C76.2192 510.5 76.3398 510.5 76.4604 510.5C76.4604 510.5 76.4604 510.5 76.581 510.5C76.581 510.5 76.581 510.5 76.7016 510.5H76.8222C76.9428 510.5 77.0634 510.5 77.0634 510.62H77.184C77.3046 510.741 77.5458 510.741 77.6664 510.861C78.0282 511.103 78.2694 511.344 78.5106 511.585L77.6664 505.314C77.5458 504.711 77.184 504.108 76.581 503.625C76.4604 503.505 76.3398 503.505 76.0986 503.384C76.0986 503.384 76.0986 503.384 75.978 503.384C75.8574 503.384 75.8574 503.264 75.7368 503.264H75.6162C75.6162 503.264 75.6162 503.264 75.4956 503.264C75.4956 503.264 75.4956 503.264 75.375 503.264C75.2544 503.264 75.1338 503.264 75.1338 503.264H75.0132C75.0132 503.264 75.0132 503.264 74.8926 503.264H74.772C74.6514 503.264 74.5308 503.264 74.5308 503.264H74.2896C74.169 503.264 74.0484 503.264 73.9278 503.384C73.9278 503.384 73.9278 503.384 73.8072 503.384C73.6866 503.384 73.6866 503.384 73.566 503.505H73.4454C73.2042 503.746 72.8424 503.867 72.6012 504.108C72.2394 504.47 71.9982 504.711 71.8776 505.193C71.6364 505.796 71.8776 506.52 71.9982 507.243C72.1188 507.967 72.2394 508.691 72.36 509.414C72.4806 510.5 72.7218 511.706 72.8424 512.791C72.8424 512.55 72.8424 512.55 72.8424 512.429Z" fill="#3A4151"/>
<path id="Vector_75" d="M110.228 330.443C110.228 330.322 110.228 330.202 110.228 329.961C110.228 329.84 110.228 329.84 110.228 329.719V329.599V329.478C110.228 329.358 110.228 329.237 110.228 328.996C110.228 328.875 110.228 328.755 110.108 328.513C110.108 328.393 110.108 328.272 109.987 328.152C109.987 328.031 109.987 327.79 109.867 327.669V327.549V327.428C109.867 327.307 109.867 327.307 109.867 327.187C109.867 327.066 109.746 326.825 109.746 326.704C109.746 326.584 109.625 326.463 109.625 326.343C109.625 326.343 109.625 326.343 109.625 326.222C109.625 326.102 109.505 325.86 109.505 325.74C109.505 325.619 109.384 325.499 109.384 325.257V325.137C109.384 325.137 109.384 325.137 109.384 325.016C109.384 324.896 109.264 324.775 109.264 324.775C109.264 324.654 109.143 324.534 109.143 324.292C109.143 324.172 109.022 324.051 109.022 323.931C108.902 323.81 108.902 323.69 108.781 323.448C108.661 323.328 108.661 323.086 108.54 322.966C108.54 322.966 108.54 322.966 108.54 322.845V322.725C108.419 322.604 108.419 322.483 108.299 322.363C108.178 322.242 108.178 322.001 108.058 321.88C108.058 321.76 107.937 321.76 107.937 321.639C107.937 321.639 107.937 321.639 107.937 321.519C107.816 321.398 107.816 321.277 107.696 321.157C107.575 320.916 107.455 320.795 107.334 320.554V320.433C107.213 320.192 106.972 319.951 106.731 319.589C106.61 319.469 106.49 319.227 106.369 319.107C106.249 318.986 106.128 318.865 106.007 318.745C105.887 318.624 105.766 318.504 105.646 318.383C105.525 318.263 105.404 318.142 105.284 318.021C105.284 318.021 105.284 318.021 105.284 317.901C105.163 317.78 105.163 317.78 105.043 317.659C104.922 317.539 104.801 317.418 104.681 317.298L104.56 317.177C104.56 317.177 104.56 317.177 104.44 317.056C104.319 317.056 104.319 316.936 104.198 316.936C104.078 316.815 103.957 316.695 103.837 316.574L103.716 316.454C103.716 316.454 103.716 316.453 103.595 316.333L103.475 316.212C103.354 316.092 103.234 315.971 103.113 315.971C102.992 315.851 102.872 315.85 102.872 315.73C102.751 315.609 102.631 315.609 102.51 315.489C102.389 315.368 102.269 315.368 102.148 315.248C102.148 315.248 102.148 315.248 102.028 315.248C101.907 315.248 101.786 315.127 101.786 315.127C101.666 315.006 101.545 315.006 101.425 314.886C101.304 314.886 101.304 314.765 101.183 314.765C101.183 314.765 101.183 314.765 101.063 314.765C100.942 314.765 100.822 314.645 100.701 314.645C100.58 314.645 100.46 314.524 100.339 314.524C100.339 314.524 100.339 314.524 100.219 314.524C100.098 314.524 100.098 314.524 99.9774 314.403C99.8568 314.403 99.7362 314.283 99.6156 314.283H99.495C99.495 314.283 99.495 314.283 99.3744 314.283H99.2538C99.1332 314.283 99.0126 314.283 98.892 314.162C98.7714 314.162 98.7714 314.162 98.6508 314.162C98.6508 314.162 98.6508 314.162 98.5302 314.162C98.5302 314.162 98.5302 314.162 98.4096 314.162C98.289 314.162 98.1684 314.162 98.0478 314.162H97.9272H97.8066H97.686C97.5654 314.162 97.3242 314.162 97.2036 314.283H97.083C96.9624 314.283 96.7212 314.403 96.6006 314.403C96.3594 314.524 96.1182 314.645 95.877 314.765L88.641 318.986C88.8822 318.866 89.1234 318.745 89.3646 318.624C89.4852 318.504 89.7264 318.504 89.847 318.504H89.9676C90.2088 318.504 90.45 318.383 90.5706 318.383H90.6912C90.9324 318.383 91.1736 318.383 91.4148 318.383C91.4148 318.383 91.4148 318.383 91.5354 318.383C91.7766 318.383 92.0178 318.504 92.259 318.504C92.259 318.504 92.259 318.504 92.3796 318.504C92.6208 318.504 92.862 318.624 93.1032 318.745C93.3444 318.865 93.7062 318.986 93.9474 319.107C94.1886 319.227 94.5504 319.348 94.7916 319.589C95.0328 319.71 95.3946 319.951 95.6358 320.192C95.877 320.433 96.1182 320.554 96.48 320.795C96.48 320.795 96.48 320.795 96.6006 320.916C96.8418 321.157 97.083 321.398 97.3242 321.519C97.3242 321.519 97.3242 321.519 97.4448 321.639C97.686 321.881 97.9272 322.122 98.1684 322.363C98.1684 322.363 98.1684 322.363 98.289 322.483C98.5302 322.725 98.7714 323.087 99.0126 323.328C99.2538 323.569 99.495 323.931 99.7362 324.292C99.9774 324.534 100.098 324.896 100.339 325.137C100.46 325.378 100.58 325.499 100.701 325.74C100.822 325.86 100.942 326.102 100.942 326.222C100.942 326.343 101.063 326.343 101.063 326.463C101.183 326.705 101.425 327.066 101.545 327.307C101.545 327.307 101.545 327.307 101.545 327.428C101.666 327.79 101.907 328.152 102.028 328.393C102.148 328.755 102.269 329.117 102.389 329.358C102.389 329.358 102.389 329.358 102.389 329.478C102.51 329.84 102.631 330.202 102.751 330.564C102.751 330.564 102.751 330.564 102.751 330.684C102.872 331.046 102.992 331.408 102.992 331.649V331.77C103.113 332.132 103.113 332.493 103.234 332.855C103.234 333.217 103.354 333.579 103.354 333.94C103.354 333.94 103.354 333.94 103.354 334.061C103.354 334.423 103.354 334.785 103.354 335.026C103.354 335.267 103.354 335.629 103.354 335.991C103.354 335.991 103.354 335.991 103.354 336.111C103.354 336.353 103.234 336.714 103.234 336.955V337.076C103.234 337.317 103.113 337.559 102.992 337.8V337.92C102.872 338.162 102.872 338.403 102.751 338.523C102.751 338.523 102.751 338.523 102.751 338.644C102.631 338.885 102.51 339.126 102.389 339.247C102.389 339.247 102.389 339.247 102.389 339.367C102.269 339.488 102.148 339.729 102.028 339.85L101.907 339.97C101.786 340.091 101.666 340.212 101.545 340.332L101.425 340.453C101.304 340.573 101.063 340.694 100.942 340.815L108.178 336.594C108.299 336.473 108.54 336.352 108.661 336.232L108.781 336.111C108.902 335.991 109.022 335.87 109.143 335.749L109.264 335.629C109.384 335.508 109.505 335.388 109.625 335.146C109.625 335.146 109.625 335.146 109.625 335.026C109.746 334.785 109.867 334.664 109.987 334.423C109.987 334.423 109.987 334.423 109.987 334.302C110.108 334.182 110.108 334.061 110.108 333.94C110.108 333.82 110.108 333.82 110.228 333.699V333.579V333.458C110.228 333.337 110.349 333.217 110.349 332.976V332.855V332.734V332.614C110.349 332.493 110.349 332.373 110.47 332.252C110.47 332.131 110.47 332.131 110.47 332.011C110.47 332.011 110.47 332.011 110.47 331.89V331.77C110.47 331.649 110.47 331.528 110.47 331.408C110.47 331.287 110.47 331.167 110.47 330.925C110.228 330.684 110.228 330.564 110.228 330.443Z" fill="#3A4151"/>
<path id="Vector_76" d="M94.1886 319.709C99.0126 322.483 102.992 329.357 102.992 334.904C102.992 340.452 99.0126 342.743 94.1886 339.969C89.3646 337.196 85.3848 330.321 85.3848 324.774C85.3848 319.226 89.3646 316.935 94.1886 319.709Z" fill="#2B303F"/>
<path id="Vector_77" d="M99.2539 334.423C99.2539 334.302 99.2539 334.182 99.2539 334.061V333.94C99.2539 333.94 99.2539 333.94 99.2539 333.82V333.699C99.2539 333.579 99.2539 333.458 99.2539 333.337C99.2539 333.217 99.2539 333.096 99.2539 332.976C99.2539 332.855 99.2539 332.734 99.2539 332.614C99.2539 332.493 99.2538 332.373 99.1332 332.252V332.131C99.1332 332.131 99.1332 332.131 99.1332 332.011V331.89C99.1332 331.77 99.0126 331.649 99.0126 331.528C99.0126 331.408 99.0126 331.408 98.892 331.287C98.892 331.167 98.7715 331.046 98.7715 330.925C98.7715 330.805 98.6509 330.684 98.6509 330.564C98.6509 330.564 98.6509 330.564 98.6509 330.443C98.6509 330.322 98.6508 330.322 98.5302 330.202C98.5302 330.081 98.4096 329.961 98.4096 329.84C98.4096 329.719 98.289 329.719 98.289 329.599C98.289 329.478 98.1684 329.358 98.1684 329.237C98.1684 329.116 98.0479 328.996 98.0479 328.875C98.0479 328.875 98.0479 328.875 98.0479 328.755C98.0479 328.634 97.9272 328.513 97.9272 328.513C97.8066 328.393 97.8066 328.272 97.6861 328.152L97.5654 328.031C97.5654 328.031 97.5654 328.031 97.5654 327.91C97.4449 327.79 97.4448 327.669 97.3242 327.669C97.2036 327.549 97.2036 327.428 97.083 327.187C97.083 327.187 97.083 327.187 97.083 327.066C96.9624 326.825 96.8418 326.704 96.6006 326.463C96.48 326.343 96.3595 326.222 96.2389 326.101C96.1183 325.981 96.1182 325.86 95.9976 325.74C95.877 325.619 95.8771 325.498 95.7565 325.378C95.6358 325.257 95.6358 325.137 95.5152 325.137C95.3946 325.016 95.3946 325.016 95.274 324.895C95.1535 324.775 95.0329 324.654 95.0329 324.654C95.0329 324.654 94.9122 324.654 94.9122 324.534C94.9122 324.534 94.9122 324.534 94.7916 324.413L94.671 324.292C94.5504 324.172 94.4298 324.172 94.3092 324.051L94.1886 323.931C94.1886 323.931 94.1886 323.931 94.068 323.931C94.068 323.931 93.9475 323.931 93.9475 323.81C93.8269 323.689 93.7062 323.689 93.5856 323.569C93.465 323.569 93.465 323.448 93.3444 323.448C93.2239 323.328 93.1032 323.328 93.1032 323.207C92.9826 323.086 92.862 323.086 92.862 323.086C92.862 323.086 92.8621 323.086 92.7414 323.086C92.6208 323.086 92.6208 322.966 92.5002 322.966C92.3796 322.966 92.259 322.845 92.259 322.845C92.1384 322.845 92.1385 322.845 92.0179 322.725C91.8973 322.725 91.7766 322.604 91.7766 322.604C91.656 322.604 91.5354 322.483 91.5354 322.483C91.4149 322.483 91.4148 322.483 91.2942 322.363C91.1736 322.363 91.053 322.363 91.053 322.242H90.9324C90.9324 322.242 90.9325 322.242 90.8119 322.242C90.6913 322.242 90.5706 322.242 90.5706 322.242C90.45 322.242 90.4501 322.242 90.3295 322.242C90.3295 322.242 90.3295 322.242 90.2089 322.242C90.0883 322.242 89.9676 322.242 89.847 322.242H89.7264H89.6059H89.4852C89.3646 322.242 89.244 322.242 89.1234 322.242C89.1234 322.242 89.1235 322.242 89.0029 322.242C88.8823 322.242 88.7616 322.363 88.641 322.363C88.3998 322.483 88.2792 322.483 88.1586 322.604L62.9532 337.197C63.0738 337.076 63.315 337.076 63.4356 336.955C63.5562 336.955 63.6768 336.835 63.7974 336.835C63.7974 336.835 63.7974 336.835 63.918 336.835C64.0386 336.835 64.2798 336.835 64.4004 336.714H64.521C64.6416 336.714 64.8828 336.714 65.0034 336.714C65.0034 336.714 65.0034 336.714 65.124 336.714C65.3652 336.714 65.4858 336.714 65.727 336.835C65.9682 336.835 66.0888 336.955 66.33 336.955C66.5712 337.076 66.8124 337.076 66.933 337.197C67.1742 337.317 67.4154 337.438 67.6566 337.558C67.8978 337.679 68.139 337.8 68.3802 338.041C68.6214 338.161 68.742 338.403 68.9832 338.523C68.9832 338.523 68.9832 338.523 69.1038 338.523C69.345 338.644 69.4656 338.885 69.7068 339.006C69.7068 339.006 69.7068 339.006 69.8274 339.126C70.0686 339.367 70.1892 339.488 70.4304 339.729C70.6716 339.97 70.7922 340.212 71.0334 340.332C71.2746 340.573 71.3952 340.815 71.6364 341.056C71.757 341.297 71.9982 341.538 72.1188 341.779C72.2394 341.9 72.36 342.021 72.36 342.262C72.4806 342.382 72.4806 342.503 72.6012 342.624L72.7218 342.744C72.8424 342.985 72.963 343.106 73.0836 343.347C73.0836 343.347 73.0836 343.347 73.0836 343.468C73.2042 343.709 73.3248 343.95 73.4454 344.312C73.566 344.553 73.6866 344.794 73.8072 345.156C73.9278 345.397 74.0484 345.759 74.0484 346C74.169 346.242 74.169 346.483 74.2896 346.845C74.2896 346.845 74.2896 346.845 74.2896 346.965C74.4102 347.206 74.4102 347.448 74.4102 347.809C74.4102 348.051 74.5308 348.292 74.5308 348.654C74.5308 348.654 74.5308 348.654 74.5308 348.774C74.5308 349.015 74.5308 349.257 74.5308 349.618C74.5308 349.86 74.5308 350.101 74.5308 350.342C74.5308 350.342 74.5308 350.342 74.5308 350.463C74.5308 350.704 74.5308 350.945 74.4102 351.066C74.4102 351.066 74.4102 351.066 74.4102 351.186C74.4102 351.427 74.2896 351.548 74.2896 351.789V351.91C74.2896 352.03 74.169 352.272 74.0484 352.392C73.9278 352.513 73.9278 352.754 73.8072 352.875C73.8072 352.875 73.8072 352.875 73.8072 352.995C73.6866 353.116 73.6866 353.236 73.566 353.357L73.4454 353.478C73.3248 353.598 73.3248 353.598 73.2042 353.719L73.0836 353.839C72.963 353.96 72.8424 354.081 72.7218 354.081L97.9272 339.488C98.0478 339.367 98.1684 339.367 98.289 339.247L98.4096 339.126C98.5302 339.006 98.5303 339.006 98.6509 338.885L98.7715 338.764C98.8921 338.644 99.0126 338.523 99.0126 338.403C99.0126 338.403 99.0126 338.403 99.0126 338.282C99.1332 338.161 99.1333 337.92 99.2539 337.8C99.2539 337.679 99.3745 337.558 99.3745 337.438V337.317V337.197C99.3745 337.197 99.3745 337.197 99.3745 337.076C99.3745 336.955 99.495 336.835 99.495 336.714V336.594C99.495 336.594 99.495 336.594 99.495 336.473V336.352C99.495 336.232 99.495 336.111 99.495 335.991C99.495 335.87 99.495 335.87 99.495 335.749C99.495 335.749 99.495 335.749 99.495 335.629C99.495 335.629 99.495 335.629 99.495 335.508C99.495 335.388 99.495 335.267 99.495 335.146C99.495 335.026 99.495 334.905 99.495 334.785C99.2538 334.664 99.2539 334.543 99.2539 334.423Z" fill="#3A4151"/>
<path id="Vector_78" d="M67.1741 337.558C70.9127 339.729 74.0483 345.035 74.0483 349.377C74.0483 353.718 70.9127 355.527 67.1741 353.236C63.4355 351.065 60.2999 345.759 60.2999 341.417C60.2999 337.075 63.4355 335.387 67.1741 337.558Z" fill="#2B303F"/>
<path id="Vector_79" d="M101.545 334.423C101.545 334.544 101.545 334.544 101.425 334.544L101.304 334.665C101.304 334.665 101.183 334.665 101.183 334.785C101.183 334.785 101.063 334.785 101.063 334.906L92.3795 339.971L92.2589 373.377L100.942 368.312C100.942 368.312 100.942 368.312 101.063 368.191C101.063 368.191 101.183 368.191 101.183 368.071L101.304 367.95V367.83V367.709L101.425 334.303C101.666 334.303 101.666 334.423 101.545 334.423Z" fill="#252935"/>
<path id="Vector_80" d="M92.1384 340.091H92.0178H91.8972C91.7766 340.091 91.7766 340.091 91.656 340.091C91.5354 340.091 91.4148 340.091 91.4148 340.091C91.2942 340.091 91.1736 340.091 91.1736 340.091C91.053 340.091 91.053 340.091 90.9324 340.091C90.8118 340.091 90.8118 340.091 90.6912 339.971C90.5706 339.971 90.5706 339.85 90.45 339.85L51.9786 317.66C51.858 317.66 51.858 317.539 51.7374 317.539C51.4962 317.418 51.4962 317.177 51.4962 317.057L51.3756 350.463C51.3756 350.704 51.4962 350.945 51.858 351.186L90.3294 373.377C90.45 373.377 90.45 373.497 90.5706 373.497H90.6912C90.6912 373.497 90.6912 373.497 90.8118 373.497H90.9324C90.9324 373.497 90.9324 373.497 91.053 373.497C91.053 373.497 91.053 373.497 91.1736 373.497H91.2942H91.4148C91.5354 373.497 91.5354 373.497 91.656 373.497H91.7766H91.8972C91.8972 373.497 91.8972 373.497 92.0178 373.497C92.1384 373.497 92.259 373.377 92.3796 373.377L92.5002 339.971C92.3796 340.091 92.259 340.091 92.1384 340.091Z" fill="#2B303F"/>
<path id="Vector_81" d="M101.183 333.579C101.786 333.941 101.786 334.544 101.183 334.906L92.5001 339.971C91.8971 340.333 90.8117 340.333 90.2087 339.971L51.7373 317.78C51.1343 317.419 51.1343 316.816 51.7373 316.454L60.4205 311.389C61.0235 311.027 62.1089 311.027 62.7119 311.389L101.183 333.579Z" fill="#323846"/>
<path id="Vector_82" d="M70.1891 359.025C70.1891 358.905 70.1891 358.905 70.1891 358.905L65.3651 356.131L64.8827 356.372H65.0033C65.0033 356.372 65.1239 356.372 65.2445 356.493L70.0685 359.266C70.1891 359.266 70.1891 359.387 70.3097 359.387C70.3097 359.508 70.4303 359.508 70.4303 359.628C70.4303 359.749 70.5509 359.749 70.5509 359.869C70.5509 359.99 70.5509 359.99 70.5509 360.111V360.834C70.5509 360.955 70.5509 360.955 70.5509 361.075C70.5509 361.075 70.5509 361.196 70.4303 361.196L70.9127 360.955C70.9127 360.955 71.0333 360.955 71.0333 360.834L70.1891 359.025C70.1891 359.146 70.1891 359.146 70.1891 359.025Z" fill="#828485"/>
<path id="Vector_83" d="M69.345 358.542C69.5862 358.662 69.8274 359.024 69.8274 359.386V360.11C69.8274 360.471 69.5862 360.592 69.345 360.351L64.521 357.577C64.2798 357.456 64.0386 357.095 64.0386 356.733V356.009C64.0386 355.647 64.2798 355.527 64.521 355.768L69.345 358.542Z" fill="#BDBEC1"/>
<path id="Vector_84" d="M79.8372 326.826L79.7166 326.946L78.8724 327.429C78.7518 327.549 78.6312 327.549 78.5106 327.549C78.39 327.549 78.2694 327.549 78.1488 327.429L73.0836 324.534C72.963 324.414 72.963 324.414 72.963 324.293V324.775C72.963 324.896 72.963 324.896 73.0836 325.017L78.0282 327.911C78.0282 327.911 78.0282 327.911 78.1488 327.911C78.1488 327.911 78.1488 327.911 78.2694 327.911C78.2694 327.911 78.2694 327.911 78.39 327.911C78.39 327.911 78.39 327.911 78.5106 327.911C78.5106 327.911 78.5106 327.911 78.6312 327.911H78.7518H78.8724L79.7166 327.429C79.7166 327.429 79.7166 327.429 79.8372 327.429V326.946C79.8372 326.705 79.8372 326.705 79.8372 326.826Z" fill="#7F8081"/>
<path id="Vector_85" d="M79.7166 326.463C79.9578 326.584 79.9578 326.825 79.7166 326.946L78.8724 327.428C78.6312 327.549 78.2694 327.549 78.0282 327.428L72.963 324.534C72.7218 324.413 72.7218 324.172 72.963 324.051L73.8072 323.569C74.0484 323.448 74.4102 323.448 74.6514 323.569L79.7166 326.463Z" fill="#D2D4D7"/>
<path id="Vector_86" d="M97.9272 354.564L97.5654 354.323C97.5654 354.323 97.5654 354.323 97.4448 354.323L96.8418 354.685L96.7212 354.805C96.7212 354.805 96.7212 354.805 96.7212 354.926V355.046V360.594C96.7212 360.715 96.7212 360.715 96.7212 360.835C96.7212 360.835 96.7212 360.956 96.8418 360.956L97.3242 361.197C97.2036 361.197 97.2036 361.076 97.2036 360.835V355.288C97.2036 355.167 97.2036 355.167 97.2036 355.046C97.2036 354.926 97.2036 354.926 97.3242 354.805C97.3242 354.685 97.4448 354.685 97.4448 354.564C97.4448 354.443 97.5654 354.443 97.686 354.443L98.289 354.082C98.4096 354.082 98.4096 354.082 98.5302 353.961C97.8066 354.564 97.8066 354.564 97.9272 354.564Z" fill="#828485"/>
<path id="Vector_87" d="M97.5654 354.563C97.8066 354.442 98.0478 354.563 98.0478 354.804V360.352C98.0478 360.714 97.8066 361.075 97.5654 361.196L96.9624 361.558C96.7212 361.678 96.48 361.558 96.48 361.317V355.769C96.48 355.407 96.7212 355.045 96.9624 354.925L97.5654 354.563Z" fill="#BDBEC1"/>
<path id="Vector_88" d="M97.9272 343.951L97.5654 343.709C97.5654 343.709 97.5654 343.709 97.4448 343.709L96.8418 344.071L96.7212 344.192C96.7212 344.192 96.7212 344.192 96.7212 344.312V344.433V349.981C96.7212 350.101 96.7212 350.101 96.7212 350.222C96.7212 350.222 96.7212 350.342 96.8418 350.342L97.3242 350.584C97.2036 350.584 97.2036 350.463 97.2036 350.222V344.674C97.2036 344.554 97.2036 344.554 97.2036 344.433C97.2036 344.312 97.2036 344.312 97.3242 344.192C97.3242 344.071 97.4448 344.071 97.4448 343.951C97.4448 343.83 97.5654 343.83 97.686 343.83L98.289 343.468C98.4096 343.468 98.4096 343.468 98.5302 343.348C97.8066 343.951 97.8066 343.951 97.9272 343.951Z" fill="#828485"/>
<path id="Vector_89" d="M97.5654 343.95C97.8066 343.829 98.0478 343.95 98.0478 344.191V349.738C98.0478 350.1 97.8066 350.462 97.5654 350.583L96.9624 350.944C96.7212 351.065 96.48 350.944 96.48 350.703V345.156C96.48 344.794 96.7212 344.432 96.9624 344.311L97.5654 343.95Z" fill="#BDBEC1"/>
<path id="Vector_90" d="M53.4258 347.929L53.5464 322.482L86.1084 341.296V366.743L53.4258 347.929Z" fill="white"/>
<path id="Vector_91" d="M90.6912 347.931C90.6912 347.81 90.6912 347.81 90.6912 347.931C90.6912 347.81 90.6912 347.81 90.6912 347.931C90.6912 347.81 90.6912 347.81 90.6912 347.81C90.6912 347.81 90.6912 347.81 90.6912 347.689C90.6912 347.689 90.6912 347.689 90.6912 347.569C90.6912 347.569 90.6912 347.569 90.6912 347.448C90.6912 347.448 90.6912 347.448 90.6912 347.328C90.6912 347.328 90.6912 347.328 90.6912 347.207C90.6912 347.207 90.6912 347.207 90.6912 347.086C90.6912 347.086 90.6912 347.086 90.6912 346.966C90.6912 346.966 90.6912 346.966 90.6912 346.845C90.6912 346.845 90.6912 346.845 90.6912 346.725C90.6912 346.725 90.6912 346.725 90.6912 346.604L90.5706 346.483C90.5706 346.483 90.5706 346.363 90.45 346.363C90.45 346.363 90.45 346.363 90.45 346.242C90.45 346.242 90.45 346.242 90.3294 346.242C90.3294 346.242 90.3294 346.242 90.2088 346.242C90.2088 346.242 90.2088 346.242 90.0882 346.242H89.9676L89.4852 346.483C89.6058 346.363 89.7264 346.363 89.847 346.363C89.9676 346.363 90.2088 346.483 90.3294 346.483C90.45 346.604 90.6912 346.725 90.8118 346.845C90.9324 346.966 91.053 347.207 91.1736 347.328C91.2942 347.569 91.4148 347.689 91.4148 347.931C91.5354 348.172 91.5354 348.292 91.5354 348.534C91.5354 348.775 91.5354 348.895 91.4148 349.016C91.2942 349.137 91.2942 349.257 91.1736 349.257L91.656 349.016C91.7766 349.016 91.7766 348.895 91.8972 348.775C91.8972 348.775 91.8972 348.775 91.8972 348.654C91.8972 348.654 91.8972 348.654 91.8972 348.534C91.8972 348.534 91.8972 348.534 91.8972 348.413C91.8972 348.413 91.8972 348.413 91.8972 348.292C90.6912 348.051 90.6912 348.051 90.6912 347.931Z" fill="#828485"/>
<path id="Vector_92" d="M89.0028 346.12C89.7264 346.482 90.2088 347.446 90.2088 348.17C90.2088 348.894 89.6058 349.255 89.0028 348.894C88.2792 348.532 87.7968 347.567 87.7968 346.843C87.7968 345.999 88.3998 345.758 89.0028 346.12Z" fill="#BDBEC1"/>
<path id="Vector_93" d="M90.6912 358.663C90.6912 358.542 90.6912 358.542 90.6912 358.663C90.6912 358.542 90.6912 358.542 90.6912 358.542C90.6912 358.542 90.6912 358.542 90.6912 358.422C90.6912 358.422 90.6912 358.422 90.6912 358.301C90.6912 358.301 90.6912 358.301 90.6912 358.181C90.6912 358.181 90.6912 358.181 90.6912 358.06C90.6912 358.06 90.6912 358.06 90.6912 357.939C90.6912 357.939 90.6912 357.939 90.6912 357.819C90.6912 357.819 90.6912 357.819 90.6912 357.698C90.6912 357.698 90.6912 357.698 90.6912 357.578C90.6912 357.578 90.6912 357.578 90.6912 357.457C90.6912 357.457 90.6912 357.457 90.6912 357.336L90.5706 357.216C90.5706 357.216 90.5706 357.095 90.45 357.095C90.45 357.095 90.45 357.095 90.45 356.975C90.45 356.975 90.45 356.975 90.3294 356.975C90.3294 356.975 90.3294 356.975 90.2088 356.975C90.2088 356.975 90.2088 356.975 90.0882 356.975H89.9676L89.4852 357.216C89.6058 357.095 89.7264 357.095 89.847 357.095C89.9676 357.095 90.2088 357.216 90.3294 357.216C90.45 357.336 90.6912 357.457 90.8118 357.578C90.9324 357.698 91.053 357.939 91.1736 358.06C91.2942 358.301 91.4148 358.422 91.4148 358.663C91.5354 358.904 91.5354 359.025 91.5354 359.266C91.5354 359.507 91.5354 359.628 91.4148 359.748C91.2942 359.869 91.2942 359.99 91.1736 359.99L91.656 359.748C91.7766 359.748 91.7766 359.628 91.8972 359.507C91.8972 359.507 91.8972 359.507 91.8972 359.387C91.8972 359.387 91.8972 359.387 91.8972 359.266C91.8972 359.266 91.8972 359.266 91.8972 359.145C91.8972 359.145 91.8972 359.145 91.8972 359.025C90.6912 358.784 90.6912 358.784 90.6912 358.663C90.6912 358.784 90.6912 358.784 90.6912 358.663Z" fill="#828485"/>
<path id="Vector_94" d="M89.0028 356.854C89.7264 357.216 90.2088 358.181 90.2088 358.904C90.2088 359.628 89.6058 359.99 89.0028 359.628C88.2792 359.266 87.7968 358.301 87.7968 357.578C87.7968 356.734 88.3998 356.492 89.0028 356.854Z" fill="#BDBEC1"/>
<g id="Group_11" opacity="0.8">
<g id="Group_12" opacity="0.8">
<path id="Vector_95" opacity="0.8" d="M59.697 329.84V332.855L60.903 333.578V334.302L58.9734 333.096V329.357L59.697 329.84Z" fill="#3A4151"/>
<path id="Vector_96" opacity="0.8" d="M63.315 331.89V332.493L62.109 331.89V332.734L63.1944 333.337V334.061L62.109 333.458V334.302L63.315 335.026V335.629L61.3854 334.543V330.805L63.315 331.89Z" fill="#3A4151"/>
<path id="Vector_97" opacity="0.8" d="M65.0034 332.735C65.124 332.855 65.3652 332.976 65.4858 332.976C65.6064 333.097 65.727 333.217 65.8476 333.338V334.182C65.8476 334.061 65.727 334.061 65.727 333.941C65.6064 333.82 65.6064 333.82 65.4858 333.7C65.3652 333.579 65.3652 333.579 65.2446 333.579C65.124 333.579 65.124 333.458 65.0034 333.458C64.8828 333.458 64.8828 333.338 64.7622 333.338C64.6416 333.338 64.6416 333.338 64.6416 333.338H64.521V333.458C64.521 333.579 64.521 333.579 64.521 333.7C64.521 333.82 64.6416 333.82 64.6416 333.941C64.6416 334.061 64.7622 334.061 64.8828 334.182C65.0034 334.303 65.0034 334.423 65.124 334.423C65.2446 334.544 65.3652 334.664 65.4858 334.785C65.6064 334.906 65.727 335.026 65.727 335.147C65.8476 335.267 65.8476 335.388 65.8476 335.509C65.8476 335.629 65.8476 335.75 65.8476 335.991C65.8476 336.232 65.8476 336.353 65.727 336.473C65.6064 336.594 65.6064 336.594 65.4858 336.715C65.3652 336.715 65.2446 336.715 65.124 336.715C65.0034 336.715 64.7622 336.594 64.6416 336.473C64.521 336.353 64.2798 336.232 64.1592 336.112C64.0386 335.991 63.7974 335.87 63.7974 335.75V334.906C63.918 335.147 64.0386 335.267 64.2798 335.388C64.4004 335.509 64.6416 335.629 64.7622 335.75C64.8828 335.75 64.8828 335.87 65.0034 335.87C65.124 335.87 65.124 335.87 65.124 335.87C65.124 335.87 65.2446 335.87 65.2446 335.75V335.629C65.2446 335.509 65.2446 335.509 65.2446 335.388C65.2446 335.267 65.124 335.267 65.124 335.147C65.0034 335.026 65.0034 335.026 64.8828 334.906C64.7622 334.785 64.7622 334.664 64.6416 334.544C64.4004 334.303 64.1592 334.061 64.0386 333.82C63.918 333.579 63.7974 333.338 63.7974 333.097C63.7974 332.855 63.7974 332.735 63.918 332.614C64.0386 332.494 64.0386 332.494 64.1592 332.373C64.2798 332.373 64.4004 332.373 64.521 332.373C64.6416 332.614 64.8828 332.735 65.0034 332.735Z" fill="#3A4151"/>
<path id="Vector_98" opacity="0.8" d="M67.6566 334.301C67.7772 334.422 68.0184 334.542 68.139 334.542C68.2596 334.663 68.3802 334.784 68.5008 334.904V335.748C68.5008 335.628 68.3802 335.628 68.3802 335.507C68.2596 335.387 68.2596 335.387 68.139 335.266C68.0184 335.266 68.0184 335.145 67.8978 335.145C67.7772 335.145 67.7772 335.025 67.6566 335.025C67.536 335.025 67.536 334.904 67.4154 334.904C67.2948 334.904 67.2948 334.904 67.2948 334.904H67.1742V335.025C67.1742 335.145 67.1742 335.145 67.1742 335.266C67.1742 335.387 67.2948 335.387 67.2948 335.507C67.2948 335.628 67.4154 335.628 67.536 335.748C67.6566 335.869 67.6566 335.99 67.7772 335.99C67.8978 336.11 68.0184 336.231 68.139 336.351C68.2596 336.472 68.3802 336.593 68.3802 336.713C68.5008 336.834 68.5008 336.954 68.5008 337.075C68.5008 337.196 68.5008 337.316 68.5008 337.557C68.5008 337.799 68.5008 337.919 68.3802 338.04C68.2596 338.16 68.2596 338.16 68.139 338.281C68.0184 338.281 67.8978 338.281 67.7772 338.281C67.6566 338.281 67.4154 338.16 67.2948 338.04C67.1742 337.919 66.933 337.799 66.8124 337.678C66.6918 337.557 66.4506 337.437 66.4506 337.316V336.472C66.5712 336.713 66.6918 336.834 66.933 336.954C67.0536 337.075 67.2948 337.196 67.4154 337.316C67.536 337.316 67.536 337.437 67.6566 337.437C67.7772 337.437 67.7772 337.437 67.7772 337.437C67.7772 337.437 67.8978 337.437 67.8978 337.316V337.196C67.8978 337.075 67.8978 337.075 67.8978 336.954C67.8978 336.834 67.7772 336.834 67.7772 336.713C67.6566 336.593 67.6566 336.593 67.536 336.472C67.4154 336.351 67.4154 336.231 67.2948 336.11C67.0536 335.869 66.8124 335.628 66.6918 335.387C66.5712 335.145 66.4506 334.904 66.4506 334.663C66.4506 334.422 66.4506 334.301 66.5712 334.181C66.6918 334.06 66.6918 334.06 66.8124 333.939C66.933 333.939 67.0536 333.939 67.1742 333.939C67.2948 334.181 67.536 334.181 67.6566 334.301Z" fill="#3A4151"/>
<path id="Vector_99" opacity="0.8" d="M71.7571 337.196C71.9983 337.679 72.2395 338.282 72.2395 338.885C72.2395 339.488 72.1189 339.85 71.7571 340.091C71.3953 340.332 71.0335 340.211 70.5511 339.97C70.0687 339.729 69.7069 339.247 69.3451 338.764C69.1039 338.282 68.8627 337.679 68.8627 337.076C68.8627 336.473 68.9833 336.111 69.3451 335.87C69.7069 335.629 70.0687 335.749 70.5511 335.99C71.0335 336.232 71.5159 336.714 71.7571 337.196ZM71.1541 339.247C71.2747 339.126 71.3953 338.885 71.3953 338.523C71.3953 338.161 71.2747 337.799 71.1541 337.438C71.0335 337.196 70.7923 336.955 70.5511 336.714C70.3099 336.593 70.0687 336.593 69.9481 336.714C69.8275 336.835 69.7069 337.076 69.7069 337.438C69.7069 337.799 69.8275 338.161 69.9481 338.402C70.0687 338.764 70.3099 338.885 70.5511 339.126C70.7923 339.367 71.0335 339.367 71.1541 339.247Z" fill="#3A4151"/>
<path id="Vector_100" opacity="0.8" d="M75.7368 339.005V342.743L75.0132 342.261L73.6866 339.125C73.566 338.884 73.566 338.764 73.566 338.764C73.566 338.884 73.566 339.125 73.566 339.367V341.417L72.8424 341.055V337.316L73.6866 337.799L75.0132 340.814C75.0132 340.934 75.1338 341.055 75.1338 341.176C75.1338 341.055 75.1338 340.934 75.1338 340.693V338.643L75.7368 339.005Z" fill="#3A4151"/>
<path id="Vector_101" opacity="0.8" d="M79.1136 340.936V344.071L79.8372 344.554V345.157L77.787 343.951V343.348L78.39 343.709V341.297L77.787 341.177V340.453L79.1136 340.936Z" fill="#3A4151"/>
<path id="Vector_102" opacity="0.8" d="M66.0888 341.659L57.6468 336.835C57.1644 336.594 56.8026 336.835 56.8026 337.317V344.553C56.8026 345.156 57.1644 345.88 57.6468 346.121L60.903 348.051L61.8678 350.463L62.8326 349.136L66.0888 351.066C66.5712 351.307 66.933 351.066 66.933 350.583V343.347C66.933 342.624 66.5712 341.9 66.0888 341.659Z" fill="#DFE1EA"/>
<path id="Vector_103" opacity="0.8" d="M78.993 357.458V358.423L69.345 352.754V351.91L78.993 357.458Z" fill="#DFE1EA"/>
<path id="Vector_104" opacity="0.8" d="M80.6814 356.612V357.577L69.345 350.944V350.1L80.6814 356.612Z" fill="#DFE1EA"/>
<path id="Vector_105" opacity="0.8" d="M82.4904 353.96V354.924L69.345 347.327V346.482L82.4904 353.96Z" fill="#DFE1EA"/>
<path id="Vector_106" opacity="0.8" d="M82.4904 350.584V352.514L69.345 344.916V342.986L82.4904 350.584Z" fill="#DFE1EA"/>
<path id="Vector_107" opacity="0.8" d="M82.4904 355.768L82.3698 356.733L69.345 349.135V348.291L82.4904 355.768Z" fill="#DFE1EA"/>
</g>
</g>
<path id="Vector_108" d="M543.906 365.175L283.41 214.787C281.239 213.581 280.516 210.807 281.722 208.637C282.928 206.466 285.701 205.742 287.872 206.948L548.368 357.336C550.539 358.542 551.263 361.316 550.057 363.487C548.73 365.658 545.956 366.502 543.906 365.175Z" fill="#D5D7E2"/>
<path id="Vector_109" d="M548.489 366.865C548.489 366.503 548.609 366.141 548.73 365.779V365.659C548.851 365.297 548.971 364.935 549.092 364.573C549.212 364.212 549.454 363.85 549.695 363.488C549.936 363.126 550.177 362.764 550.418 362.403L550.539 362.282C550.78 362.041 551.021 361.679 551.263 361.438L551.383 361.317C551.624 361.076 551.745 360.955 551.986 360.714C552.107 360.594 552.227 360.594 552.227 360.473C552.469 360.232 552.83 359.991 553.192 359.87C553.554 359.749 553.795 359.508 554.036 359.508H554.157C554.398 359.388 554.639 359.388 555.001 359.388C555.001 359.388 555.001 359.388 555.122 359.388C555.363 359.388 555.604 359.388 555.845 359.388C556.087 359.388 556.328 359.508 556.569 359.629L551.142 356.493C551.021 356.493 551.021 356.373 550.901 356.373C550.78 356.373 550.78 356.252 550.66 356.252H550.539C550.418 356.252 550.298 356.252 550.298 356.252C550.177 356.252 550.057 356.252 549.936 356.252H549.815C549.815 356.252 549.815 356.252 549.695 356.252C549.574 356.252 549.574 356.252 549.454 356.252C549.333 356.252 549.212 356.252 548.971 356.373C548.971 356.373 548.851 356.373 548.73 356.493H548.609C548.489 356.493 548.489 356.493 548.368 356.614C548.127 356.734 547.886 356.855 547.645 356.976C547.283 357.096 547.042 357.337 546.68 357.579C546.559 357.699 546.439 357.699 546.439 357.82C546.318 357.94 546.197 358.061 545.956 358.182C545.836 358.302 545.836 358.302 545.715 358.423L545.594 358.543C545.474 358.664 545.474 358.664 545.353 358.785C545.233 358.905 545.112 359.146 544.991 359.267L544.871 359.388L544.75 359.508L544.63 359.629C544.509 359.749 544.388 359.87 544.388 359.991C544.268 360.111 544.268 360.232 544.147 360.352C544.027 360.473 544.027 360.594 543.906 360.714C543.785 360.835 543.785 360.955 543.665 361.076C543.544 361.197 543.544 361.317 543.544 361.438C543.424 361.558 543.424 361.679 543.424 361.92C543.424 362.041 543.303 362.282 543.303 362.403C543.303 362.523 543.303 362.523 543.182 362.644V362.764V362.885C543.182 363.126 543.062 363.247 543.062 363.488C543.062 363.609 543.062 363.729 543.062 363.85V363.97V364.091C543.062 364.453 542.941 364.694 542.941 365.056C542.941 366.624 543.424 367.588 544.388 368.191L549.815 371.327C548.971 370.845 548.368 369.759 548.368 368.191C548.368 367.83 548.368 367.468 548.489 367.106C548.489 366.985 548.489 366.985 548.489 366.865Z" fill="#616774"/>
<path id="Vector_110" d="M553.192 359.871C555.845 358.303 558.016 359.509 558.016 362.644C558.016 365.659 555.845 369.398 553.192 370.966C550.539 372.534 548.368 371.327 548.368 368.192C548.368 365.056 550.539 361.318 553.192 359.871Z" fill="#595D69"/>
</g>
</g>
</svg>
