<svg width="506" height="602" viewBox="0 0 506 602" fill="none" xmlns="http://www.w3.org/2000/svg">
<g id="Workspace_2_SVG" clip-path="url(#clip0)">
<g id="&#208;&#161;&#208;&#187;&#208;&#190;&#208;&#185; 2">
<g id="&#208;&#161;&#208;&#187;&#208;&#190;&#208;&#185; 1">
<g id="monitor">
<path id="Vector" opacity="0.4" d="M308.299 439.376L242.053 401.185C237.231 398.44 237.882 393.624 243.392 390.445L286.31 365.703L369.843 413.863L326.925 438.605C321.416 441.784 313.073 442.133 308.299 439.376Z" fill="#D6D8E5"/>
<path id="Vector_2" d="M314.267 435.847L248.033 397.656C243.211 394.899 243.862 390.095 249.371 386.904L292.289 362.162L375.811 410.322L332.905 435.064C327.383 438.255 319.041 438.64 314.267 435.847Z" fill="#B1B4C4"/>
<path id="Vector_3" d="M375.811 410.372V407.844L371.965 410.059L375.811 410.372Z" fill="#B1B4C4"/>
<path id="Vector_4" d="M244.814 393.143V390.566L248.768 392.216L244.814 393.143Z" fill="#B1B4C4"/>
<path id="Vector_5" d="M314.267 433.355L248.033 395.164C243.211 392.407 243.862 387.603 249.371 384.424L292.289 359.67L375.811 407.83L332.905 432.572C327.383 435.763 319.041 436.112 314.267 433.355Z" fill="#D6D8E5"/>
<path id="Vector_6" d="M292.506 359.791L282.175 325.537L366.612 373.902L375.811 407.842L292.506 359.791Z" fill="#9EA1AF"/>
<path id="Vector_7" d="M373.364 409.252L375.775 407.843L372.158 404.941L373.364 409.252Z" fill="#9EA1AF"/>
<path id="Vector_8" d="M289.842 361.08L279.51 326.826L363.948 375.191L373.364 409.252L289.842 361.08Z" fill="#B1B4C4"/>
<path id="Vector_9" d="M497.706 464.082L170.841 275.607C166.26 272.971 162.546 265.879 162.546 259.775V7.22376C162.546 1.11948 166.26 -1.68584 170.841 0.962957L497.706 189.461C502.287 192.11 506 199.202 506 205.306V457.809C506 463.913 502.287 466.73 497.706 464.082Z" fill="#B1B4C4"/>
<path id="Vector_10" d="M499.381 466.682L503.01 464.599L501.443 453.871L499.381 466.682Z" fill="#B1B4C4"/>
<path id="Vector_11" d="M161.956 2.55298L165.572 0.494141L170.696 3.40782C170.696 3.40782 165.235 4.25062 165.102 4.2145C164.969 4.17838 161.956 2.55298 161.956 2.55298Z" fill="#B1B4C4"/>
<path id="Vector_12" d="M494.704 465.816L167.851 277.342C163.258 274.693 159.544 267.602 159.544 261.497V8.99435C159.544 2.89007 163.258 0.0847523 167.851 2.72151L494.704 191.196C499.297 193.832 503.01 200.924 503.01 207.028V459.543C503.01 465.647 499.297 468.453 494.704 465.816Z" fill="#E4E7F2"/>
<path id="Vector_13" d="M494.137 466.14L167.272 277.666C162.691 275.029 158.966 267.938 158.966 261.833V9.31857C158.966 3.21429 162.691 0.408971 167.272 3.04573L494.137 191.52C498.718 194.169 502.431 201.26 502.431 207.365V459.928C502.431 465.948 498.718 468.777 494.137 466.14Z" fill="#D6D8E5"/>
<path id="Vector_14" d="M497.898 450.778L163.125 257.728L163.294 10.3304C163.294 7.80202 165.078 6.71842 167.272 8.04282L494.137 196.505C495.296 197.26 496.259 198.277 496.951 199.473C497.642 200.67 498.041 202.012 498.116 203.392L497.898 450.778Z" fill="#2B303F"/>
<path id="Vector_15" opacity="0.5" d="M497.898 450.778L163.125 257.728L163.294 10.3304C163.294 7.80202 165.078 6.71842 167.272 8.04282L494.137 196.505C495.296 197.26 496.259 198.277 496.951 199.473C497.642 200.67 498.041 202.012 498.116 203.392L497.898 450.778Z" fill="url(#paint0_linear)"/>
</g>
<path id="Vector_16" opacity="0.4" d="M202.318 585.348L10.4523 474.58C7.71565 473.003 8.04115 470.258 11.2118 468.428L82.955 427.07C86.1136 425.24 90.8876 425.048 93.6243 426.625L285.49 537.393C288.227 538.97 287.901 541.727 284.731 543.545L212.987 584.915C209.829 586.733 205.055 586.925 202.318 585.348Z" fill="#D6D8E5"/>
<path id="Vector_17" d="M288.058 534.575L97.048 424.349C94.3234 422.772 89.5373 422.977 86.3908 424.795L14.9611 465.947L12.0556 464.828V469.403C12.0354 470.014 12.1977 470.618 12.5219 471.136C12.846 471.655 13.3174 472.066 13.876 472.317L205.754 583.085C208.49 584.662 213.265 584.457 216.423 582.639L288.13 541.258C289.902 540.234 290.794 538.922 290.746 537.646V533.07L288.058 534.575Z" fill="#B1B4C4"/>
<path id="Vector_18" d="M205.754 578.497L13.876 467.729C11.1393 466.152 11.4648 463.407 14.6475 461.577L86.3907 420.195C89.5373 418.365 94.3234 418.173 97.0479 419.75L288.926 530.518C291.662 532.095 291.337 534.852 288.154 536.67L216.423 578.04C213.264 579.882 208.49 580.074 205.754 578.497Z" fill="#D6D8E5"/>
<path id="Vector_19" d="M81.3034 440.665L71.8517 435.211C71.0802 434.765 71.1766 434.006 72.0687 433.477L81.0864 428.275C81.5419 428.021 82.0512 427.877 82.5728 427.856C83.0945 427.835 83.6137 427.938 84.0882 428.155L93.5398 433.597C94.3114 434.043 94.215 434.801 93.3228 435.331L84.3052 440.532C83.8506 440.789 83.3418 440.935 82.8202 440.958C82.2985 440.981 81.7788 440.88 81.3034 440.665Z" fill="#2B303F"/>
<path id="Vector_20" d="M94.6852 448.369L85.2336 442.927C84.462 442.482 84.5584 441.723 85.4506 441.194L94.4682 435.992C94.9237 435.738 95.433 435.594 95.9547 435.573C96.4763 435.552 96.9955 435.654 97.47 435.872L106.922 441.314C107.693 441.759 107.597 442.518 106.705 443.048L97.6509 448.249C97.1999 448.498 96.6971 448.638 96.1823 448.659C95.6675 448.68 95.1549 448.581 94.6852 448.369Z" fill="#2B303F"/>
<path id="Vector_21" d="M108.212 456.184L98.7599 450.73C97.9884 450.285 98.0848 449.526 98.9769 448.996L107.995 443.795C108.452 443.54 108.964 443.397 109.487 443.376C110.011 443.355 110.532 443.457 111.008 443.675L120.46 449.093C121.232 449.538 121.123 450.297 120.243 450.826L111.225 456.028C110.77 456.286 110.26 456.434 109.737 456.461C109.214 456.488 108.692 456.393 108.212 456.184Z" fill="#2B303F"/>
<path id="Vector_22" d="M121.437 463.805L111.985 458.351C111.213 457.905 111.31 457.147 112.202 456.617L121.22 451.416C121.678 451.164 122.189 451.022 122.712 451.001C123.235 450.98 123.756 451.081 124.234 451.295L133.685 456.75C134.457 457.195 134.36 457.954 133.468 458.483L124.451 463.685C123.992 463.937 123.481 464.079 122.958 464.1C122.435 464.121 121.914 464.02 121.437 463.805Z" fill="#2B303F"/>
<path id="Vector_23" d="M134.818 471.522L125.379 466.068C124.607 465.623 124.704 464.864 125.596 464.334L134.613 459.133C135.071 458.878 135.582 458.735 136.106 458.714C136.63 458.693 137.151 458.795 137.627 459.013L147.067 464.455C147.839 464.9 147.742 465.659 146.862 466.188L137.832 471.39C137.376 471.648 136.865 471.795 136.341 471.818C135.817 471.841 135.295 471.74 134.818 471.522Z" fill="#2B303F"/>
<path id="Vector_24" d="M148.2 479.192L138.748 473.75C137.977 473.304 138.073 472.546 138.965 472.016L147.983 466.815C148.439 466.561 148.947 466.417 149.468 466.394C149.989 466.371 150.509 466.47 150.985 466.682L160.437 472.137C161.208 472.582 161.112 473.341 160.22 473.87L151.202 479.072C150.746 479.326 150.237 479.47 149.715 479.491C149.194 479.512 148.675 479.409 148.2 479.192Z" fill="#2B303F"/>
<path id="Vector_25" d="M161.546 486.946L152.094 481.504C151.323 481.059 151.419 480.3 152.299 479.758L161.329 474.569C161.784 474.313 162.292 474.167 162.814 474.144C163.336 474.121 163.855 474.221 164.331 474.437L173.782 479.891C174.554 480.336 174.458 481.095 173.565 481.625L164.548 486.826C164.091 487.078 163.582 487.22 163.061 487.241C162.54 487.262 162.021 487.161 161.546 486.946Z" fill="#2B303F"/>
<path id="Vector_26" d="M174.952 494.662L165.5 489.208C164.728 488.763 164.825 488.004 165.717 487.475L174.735 482.273C175.193 482.021 175.704 481.879 176.227 481.858C176.75 481.837 177.271 481.938 177.748 482.153L187.2 487.607C187.972 488.052 187.875 488.811 186.983 489.341L177.965 494.542C177.507 494.794 176.996 494.936 176.473 494.957C175.95 494.978 175.429 494.877 174.952 494.662Z" fill="#2B303F"/>
<path id="Vector_27" d="M188.333 502.381L178.882 496.926C178.11 496.481 178.207 495.722 179.099 495.193L188.068 490.028C188.526 489.773 189.037 489.629 189.561 489.608C190.084 489.587 190.605 489.69 191.082 489.907L200.534 495.349C201.305 495.795 201.209 496.553 200.317 497.083L191.299 502.284C190.846 502.528 190.342 502.663 189.828 502.679C189.313 502.696 188.802 502.594 188.333 502.381Z" fill="#2B303F"/>
<path id="Vector_28" d="M201.715 510.087L192.264 504.645C191.492 504.199 191.588 503.441 192.481 502.911L201.498 497.709C201.954 497.456 202.462 497.311 202.983 497.288C203.505 497.265 204.024 497.364 204.5 497.577L213.952 503.031C214.723 503.477 214.627 504.235 213.747 504.765L204.717 509.966C204.262 510.221 203.752 510.365 203.231 510.385C202.709 510.406 202.19 510.304 201.715 510.087Z" fill="#2B303F"/>
<path id="Vector_29" d="M215.097 517.804L205.645 512.35C204.874 511.916 204.97 511.146 205.862 510.616L214.88 505.427C215.335 505.17 215.843 505.024 216.365 505.001C216.887 504.978 217.406 505.079 217.882 505.294L227.334 510.748C228.105 511.194 228.009 511.952 227.117 512.482L218.099 517.719C217.64 517.966 217.129 518.102 216.608 518.116C216.087 518.131 215.57 518.024 215.097 517.804Z" fill="#2B303F"/>
<path id="Vector_30" d="M228.467 525.522L219.027 520.128C218.256 519.683 218.352 518.924 219.232 518.394L228.262 513.193C228.718 512.941 229.227 512.799 229.748 512.778C230.27 512.757 230.788 512.858 231.264 513.073L240.715 518.527C241.487 518.96 241.39 519.731 240.498 520.261L231.469 525.402C231.012 525.652 230.503 525.793 229.982 525.814C229.461 525.835 228.942 525.735 228.467 525.522Z" fill="#2B303F"/>
<path id="Vector_31" d="M241.849 533.239L232.397 527.785C231.625 527.339 231.722 526.581 232.614 526.051L241.632 520.85C242.089 520.595 242.6 520.451 243.124 520.43C243.648 520.409 244.169 520.512 244.645 520.729L254.097 526.171C254.869 526.617 254.772 527.376 253.88 527.905L244.862 533.107C244.406 533.363 243.895 533.509 243.371 533.532C242.848 533.555 242.326 533.455 241.849 533.239Z" fill="#2B303F"/>
<path id="Vector_32" d="M261.68 544.665L245.779 535.502C245.007 535.057 245.104 534.298 245.996 533.769L255.013 528.567C255.47 528.311 255.981 528.165 256.504 528.142C257.028 528.119 257.55 528.219 258.027 528.435L273.917 537.609C274.688 538.055 274.592 538.813 273.7 539.343L264.682 544.545C264.226 544.796 263.716 544.939 263.195 544.959C262.674 544.98 262.155 544.88 261.68 544.665Z" fill="#2B303F"/>
<path id="Vector_33" d="M88.1752 459.579L78.7235 454.137C77.952 453.692 78.0484 452.933 78.9405 452.403L88.0064 447.202C88.4631 446.945 88.9739 446.8 89.4975 446.777C90.0211 446.754 90.5428 446.854 91.0203 447.07L100.472 452.524C101.244 452.969 101.147 453.728 100.255 454.258L91.2373 459.459C90.7726 459.719 90.2529 459.865 89.7207 459.886C89.1885 459.907 88.6589 459.802 88.1752 459.579Z" fill="#2B303F"/>
<path id="Vector_34" d="M101.581 467.309L92.1293 461.855C91.3577 461.421 91.4542 460.651 92.3463 460.121L101.364 454.92C101.823 454.668 102.334 454.526 102.857 454.505C103.38 454.484 103.901 454.585 104.378 454.799L113.829 460.253C114.601 460.699 114.493 461.457 113.612 461.987L104.595 467.152C104.139 467.41 103.629 467.559 103.106 467.586C102.583 467.613 102.061 467.518 101.581 467.309Z" fill="#2B303F"/>
<path id="Vector_35" d="M114.987 475.038L105.535 469.56C104.764 469.114 104.86 468.356 105.752 467.826L114.77 462.625C115.226 462.373 115.735 462.231 116.257 462.21C116.778 462.189 117.297 462.29 117.772 462.504L127.223 467.958C127.995 468.392 127.899 469.162 127.006 469.692L117.989 474.893C117.534 475.149 117.026 475.296 116.505 475.321C115.984 475.346 115.464 475.249 114.987 475.038Z" fill="#2B303F"/>
<path id="Vector_36" d="M128.381 482.803L118.929 477.349C118.169 476.903 118.266 476.145 119.146 475.615L128.164 470.414C128.622 470.162 129.133 470.02 129.656 469.999C130.179 469.978 130.7 470.079 131.177 470.293L140.629 475.736C141.401 476.181 141.304 476.94 140.412 477.469L131.407 482.635C130.951 482.899 130.44 483.052 129.914 483.081C129.388 483.111 128.863 483.015 128.381 482.803Z" fill="#2B303F"/>
<path id="Vector_37" d="M141.678 490.425L132.226 484.983C131.455 484.537 131.551 483.779 132.443 483.249L141.461 478.047C141.919 477.793 142.429 477.649 142.952 477.626C143.476 477.603 143.997 477.702 144.475 477.915L153.927 483.369C154.698 483.815 154.602 484.573 153.71 485.103L144.668 490.304C144.213 490.555 143.706 490.697 143.187 490.718C142.668 490.738 142.151 490.638 141.678 490.425Z" fill="#2B303F"/>
<path id="Vector_38" d="M155.084 498.155L145.632 492.713C144.861 492.268 144.957 491.509 145.849 490.98L154.867 485.778C155.324 485.522 155.834 485.376 156.358 485.353C156.882 485.33 157.403 485.43 157.881 485.646L167.32 491.1C168.092 491.545 167.995 492.304 167.115 492.834L158.086 498.035C157.63 498.29 157.121 498.433 156.599 498.454C156.078 498.475 155.558 498.373 155.084 498.155Z" fill="#2B303F"/>
<path id="Vector_39" d="M168.49 505.884L159.038 500.442C158.267 499.996 158.363 499.238 159.255 498.696L168.273 493.507C168.727 493.25 169.236 493.104 169.758 493.081C170.28 493.058 170.799 493.159 171.275 493.374L180.726 498.828C181.498 499.274 181.401 500.032 180.509 500.562L171.492 505.763C171.035 506.015 170.526 506.157 170.005 506.178C169.484 506.199 168.965 506.098 168.49 505.884Z" fill="#2B303F"/>
<path id="Vector_40" d="M181.884 513.614L172.396 508.159C171.624 507.714 171.721 506.955 172.613 506.426L181.631 501.224C182.089 500.972 182.6 500.83 183.123 500.809C183.646 500.788 184.167 500.889 184.644 501.104L194.096 506.558C194.868 507.004 194.771 507.762 193.879 508.292L184.861 513.493C184.407 513.74 183.903 513.878 183.387 513.899C182.87 513.92 182.356 513.822 181.884 513.614Z" fill="#2B303F"/>
<path id="Vector_41" d="M195.302 521.332L185.85 515.878C185.078 515.433 185.175 514.674 186.067 514.144L195.085 508.943C195.543 508.691 196.054 508.549 196.577 508.528C197.1 508.507 197.621 508.608 198.099 508.823L207.55 514.265C208.322 514.71 208.225 515.469 207.333 516.011L198.316 521.2C197.859 521.457 197.348 521.602 196.824 521.625C196.301 521.648 195.779 521.548 195.302 521.332Z" fill="#2B303F"/>
<path id="Vector_42" d="M208.695 529.073L199.244 523.619C198.472 523.173 198.569 522.415 199.461 521.885L208.478 516.684C208.934 516.429 209.443 516.285 209.965 516.264C210.487 516.243 211.006 516.346 211.48 516.563L220.932 522.005C221.703 522.451 221.607 523.209 220.715 523.739L211.697 528.94C211.243 529.197 210.734 529.343 210.212 529.366C209.691 529.389 209.171 529.288 208.695 529.073Z" fill="#2B303F"/>
<path id="Vector_43" d="M222.089 536.791L212.65 531.349C211.878 530.904 211.975 530.145 212.855 529.615L221.884 524.414C222.34 524.159 222.849 524.016 223.371 523.995C223.892 523.974 224.412 524.076 224.886 524.294L234.338 529.736C235.109 530.181 235.013 530.94 234.121 531.47L225.103 536.671C224.646 536.926 224.134 537.069 223.611 537.09C223.087 537.111 222.566 537.009 222.089 536.791Z" fill="#2B303F"/>
<path id="Vector_44" d="M235.495 544.521L226.044 539.079C225.272 538.633 225.368 537.875 226.261 537.345L235.278 532.144C235.735 531.887 236.246 531.741 236.769 531.718C237.293 531.695 237.815 531.795 238.292 532.011L247.744 537.465C248.515 537.911 248.419 538.669 247.527 539.199L238.509 544.4C238.051 544.655 237.54 544.799 237.017 544.82C236.493 544.841 235.972 544.738 235.495 544.521Z" fill="#2B303F"/>
<path id="Vector_45" d="M74.7451 451.849L58.8437 442.687C58.0721 442.241 58.1685 441.483 59.0607 440.953L68.0783 435.752C68.5369 435.5 69.048 435.358 69.571 435.337C70.0941 435.316 70.6149 435.417 71.0922 435.631L86.9816 444.794C87.7531 445.239 87.6567 445.998 86.7646 446.528L77.7469 451.729C77.2914 451.984 76.7821 452.127 76.2604 452.148C75.7388 452.169 75.2196 452.067 74.7451 451.849Z" fill="#2B303F"/>
<path id="Vector_46" d="M261.029 545.159L251.577 539.705C251.143 539.488 250.665 539.375 250.179 539.375C249.693 539.375 249.215 539.488 248.781 539.705L239.245 545.207C239.077 545.266 238.932 545.375 238.83 545.52C238.727 545.664 238.672 545.837 238.672 546.014C238.672 546.191 238.727 546.364 238.83 546.509C238.932 546.653 239.077 546.762 239.245 546.821L239.992 547.254C240.703 547.664 240.703 548.326 239.992 548.747L229.925 554.551C229.754 554.606 229.604 554.715 229.498 554.861C229.392 555.007 229.335 555.183 229.335 555.363C229.335 555.544 229.392 555.719 229.498 555.865C229.604 556.011 229.754 556.12 229.925 556.176L235.953 559.643C236.387 559.863 236.866 559.978 237.352 559.978C237.838 559.978 238.317 559.863 238.75 559.643L248.178 554.213L250.131 553.082L251.529 552.275L252.94 551.456L261.065 546.773C261.231 546.71 261.374 546.598 261.474 546.451C261.573 546.304 261.624 546.13 261.62 545.953C261.616 545.776 261.557 545.604 261.451 545.462C261.345 545.32 261.198 545.214 261.029 545.159Z" fill="#2B303F"/>
<path id="Vector_47" d="M29.4882 470.596L20.0365 465.154C19.265 464.708 19.3614 463.95 20.2535 463.42L29.2712 458.219C29.7267 457.964 30.236 457.82 30.7577 457.8C31.2793 457.779 31.7985 457.881 32.273 458.098L41.7247 463.541C42.4962 463.986 42.3998 464.745 41.5077 465.274L32.5503 470.476C32.0873 470.74 31.5671 470.889 31.034 470.91C30.5009 470.931 29.9706 470.823 29.4882 470.596Z" fill="#2B303F"/>
<path id="Vector_48" d="M42.8217 478.289L33.37 472.847C32.5985 472.402 32.6949 471.643 33.587 471.113L42.6047 465.948C43.0614 465.692 43.5722 465.546 44.0958 465.523C44.6194 465.5 45.141 465.6 45.6186 465.816L55.0702 471.27C55.8418 471.715 55.7453 472.474 54.8532 473.004L45.8115 478.169C45.3568 478.42 44.8498 478.561 44.3308 478.582C43.8118 478.603 43.2951 478.503 42.8217 478.289Z" fill="#2B303F"/>
<path id="Vector_49" d="M56.1674 485.981L46.7157 480.539C45.9442 480.094 46.0406 479.335 46.9327 478.806L55.9504 473.604C56.4049 473.348 56.9138 473.202 57.4354 473.179C57.9571 473.156 58.4768 473.256 58.9522 473.472L68.4039 478.926C69.1754 479.372 69.079 480.13 68.1869 480.66L59.1692 485.861C58.7137 486.116 58.2044 486.259 57.6827 486.28C57.1611 486.301 56.6419 486.199 56.1674 485.981Z" fill="#2B303F"/>
<path id="Vector_50" d="M169.78 551.491L160.34 546.049C159.569 545.604 159.665 544.845 160.557 544.316L169.575 539.114C170.032 538.858 170.542 538.712 171.066 538.689C171.59 538.666 172.111 538.766 172.589 538.982L182.04 544.436C182.8 544.881 182.703 545.64 181.823 546.17L172.794 551.431C172.331 551.677 171.818 551.81 171.294 551.82C170.77 551.831 170.252 551.718 169.78 551.491Z" fill="#2B303F"/>
<path id="Vector_51" d="M183.125 559.187L173.674 553.745C172.902 553.299 172.999 552.541 173.891 552.011L182.908 546.809C183.363 546.553 183.872 546.407 184.393 546.384C184.915 546.361 185.435 546.461 185.91 546.677L195.362 552.131C196.133 552.577 196.037 553.335 195.145 553.865L186.127 559.066C185.672 559.321 185.162 559.465 184.641 559.485C184.119 559.506 183.6 559.404 183.125 559.187Z" fill="#2B303F"/>
<path id="Vector_52" d="M196.507 566.878L187.056 561.436C186.284 560.991 186.38 560.232 187.273 559.69L196.29 554.501C196.747 554.244 197.258 554.098 197.781 554.075C198.305 554.052 198.827 554.153 199.304 554.369L208.756 559.823C209.527 560.268 209.431 561.027 208.539 561.556L199.521 566.758C199.062 567.01 198.551 567.152 198.028 567.173C197.505 567.194 196.985 567.093 196.507 566.878Z" fill="#2B303F"/>
<path id="Vector_53" d="M209.768 574.572L200.317 569.118C199.545 568.685 199.642 567.914 200.534 567.385L209.551 562.183C210.008 561.931 210.517 561.789 211.038 561.768C211.559 561.747 212.078 561.848 212.553 562.063L222.005 567.517C222.776 567.962 222.68 568.721 221.8 569.251L212.77 574.452C212.314 574.704 211.805 574.846 211.284 574.867C210.762 574.888 210.244 574.787 209.768 574.572Z" fill="#2B303F"/>
<path id="Vector_54" d="M72.9488 495.663L60.0493 488.235C59.2898 487.789 59.3862 487.031 60.2663 486.501L69.2839 481.3C69.7407 481.043 70.2515 480.897 70.7751 480.874C71.2986 480.851 71.8203 480.952 72.2978 481.167L85.1853 488.596C85.9569 489.042 85.8605 489.8 84.9683 490.342L75.9507 495.531C75.4961 495.788 74.9873 495.933 74.4657 495.956C73.944 495.979 73.4243 495.879 72.9488 495.663Z" fill="#2B303F"/>
<path id="Vector_55" d="M156.434 543.799L143.547 536.37C142.775 535.925 142.872 535.166 143.764 534.637L152.781 529.435C153.24 529.183 153.751 529.041 154.274 529.02C154.797 528.999 155.318 529.1 155.795 529.315L168.683 536.744C169.454 537.189 169.358 537.948 168.466 538.477L159.448 543.679C158.991 543.934 158.479 544.077 157.956 544.098C157.432 544.119 156.911 544.017 156.434 543.799Z" fill="#2B303F"/>
<path id="Vector_56" d="M139.665 534.13L76.8307 497.902C76.0592 497.457 76.1556 496.698 77.0477 496.168L86.0654 490.967C86.523 490.712 87.0343 490.569 87.5579 490.548C88.0815 490.527 88.6027 490.629 89.0793 490.847L151.901 527.075C152.673 527.52 152.576 528.279 151.684 528.809L142.667 534.01C142.21 534.262 141.701 534.404 141.18 534.425C140.659 534.446 140.14 534.345 139.665 534.13Z" fill="#2B303F"/>
<path id="Vector_57" d="M78.8561 469.163L69.4045 463.709C68.6329 463.263 68.7293 462.505 69.6215 461.975L78.6391 456.774C79.0946 456.519 79.6039 456.375 80.1256 456.354C80.6472 456.333 81.1664 456.436 81.6409 456.653L91.0926 462.095C91.8641 462.541 91.7677 463.299 90.8756 463.829L81.8579 469.03C81.4034 469.287 80.8945 469.433 80.3729 469.456C79.8513 469.479 79.3315 469.378 78.8561 469.163Z" fill="#2B303F"/>
<path id="Vector_58" d="M92.2137 476.868L82.7621 471.414C81.9906 470.968 82.087 470.21 82.9791 469.68L91.9967 464.479C92.4544 464.224 92.9657 464.08 93.4893 464.059C94.0129 464.038 94.5341 464.141 95.0107 464.358L104.462 469.8C105.234 470.246 105.137 471.004 104.245 471.534L95.2397 476.784C94.7776 477.035 94.2627 477.173 93.7368 477.188C93.211 477.202 92.6891 477.093 92.2137 476.868Z" fill="#2B303F"/>
<path id="Vector_59" d="M105.583 484.573L96.1317 479.119C95.3602 478.673 95.4566 477.915 96.3488 477.385L105.366 472.184C105.822 471.929 106.331 471.785 106.853 471.764C107.375 471.743 107.894 471.846 108.368 472.063L117.82 477.505C118.591 477.951 118.495 478.709 117.603 479.239L108.585 484.44C108.131 484.697 107.622 484.843 107.1 484.866C106.579 484.889 106.059 484.788 105.583 484.573Z" fill="#2B303F"/>
<path id="Vector_60" d="M118.941 492.28L109.489 486.826C108.718 486.38 108.814 485.622 109.706 485.092L118.724 479.891C119.182 479.636 119.693 479.492 120.217 479.471C120.74 479.45 121.261 479.553 121.738 479.77L131.19 485.212C131.961 485.658 131.865 486.416 130.973 486.946L121.955 492.148C121.498 492.404 120.987 492.55 120.464 492.573C119.94 492.596 119.419 492.496 118.941 492.28Z" fill="#2B303F"/>
<path id="Vector_61" d="M132.311 499.985L122.859 494.531C122.087 494.085 122.184 493.327 123.076 492.797L132.094 487.596C132.549 487.341 133.059 487.197 133.58 487.176C134.102 487.156 134.621 487.258 135.096 487.475L144.547 492.917C145.319 493.363 145.222 494.121 144.33 494.651L135.313 499.852C134.858 500.109 134.349 500.255 133.827 500.278C133.306 500.301 132.786 500.2 132.311 499.985Z" fill="#2B303F"/>
<path id="Vector_62" d="M145.668 507.69L136.229 502.236C135.457 501.791 135.554 501.032 136.446 500.502L145.464 495.301C145.921 495.046 146.433 494.902 146.956 494.882C147.48 494.861 148.001 494.963 148.477 495.181L157.929 500.623C158.701 501.068 158.604 501.827 157.712 502.356L148.694 507.558C148.236 507.816 147.723 507.963 147.197 507.986C146.672 508.009 146.148 507.908 145.668 507.69Z" fill="#2B303F"/>
<path id="Vector_63" d="M159.038 515.397L149.587 509.943C148.815 509.497 148.911 508.739 149.804 508.209L158.821 503.008C159.277 502.753 159.786 502.61 160.308 502.589C160.829 502.568 161.349 502.67 161.823 502.887L171.275 508.33C172.046 508.775 171.95 509.534 171.07 510.063L162.04 515.313C161.582 515.562 161.071 515.699 160.549 515.714C160.028 515.728 159.51 515.62 159.038 515.397Z" fill="#2B303F"/>
<path id="Vector_64" d="M172.396 523.102L162.956 517.648C162.185 517.203 162.281 516.444 163.161 515.914L172.191 510.713C172.647 510.458 173.156 510.315 173.677 510.294C174.199 510.273 174.718 510.375 175.193 510.593L184.645 516.035C185.416 516.48 185.32 517.239 184.427 517.768L175.41 522.97C174.953 523.226 174.442 523.372 173.919 523.395C173.395 523.418 172.873 523.318 172.396 523.102Z" fill="#2B303F"/>
<path id="Vector_65" d="M185.766 530.807L176.314 525.353C175.542 524.907 175.639 524.149 176.531 523.619L185.549 518.418C186.007 518.166 186.518 518.024 187.041 518.003C187.564 517.982 188.085 518.083 188.562 518.297L198.014 523.739C198.774 524.185 198.677 524.943 197.797 525.473L188.779 530.675C188.323 530.931 187.812 531.077 187.288 531.1C186.765 531.123 186.243 531.023 185.766 530.807Z" fill="#2B303F"/>
<path id="Vector_66" d="M199.135 538.513L189.684 533.059C188.912 532.614 189.009 531.855 189.901 531.325L198.918 526.148C199.375 525.896 199.884 525.754 200.405 525.733C200.926 525.712 201.445 525.813 201.92 526.028L211.372 531.47C212.143 531.915 212.047 532.674 211.155 533.216L202.137 538.405C201.681 538.658 201.171 538.799 200.649 538.818C200.128 538.837 199.609 538.732 199.135 538.513Z" fill="#2B303F"/>
<path id="Vector_67" d="M212.493 546.219L203.041 540.765C202.27 540.319 202.366 539.561 203.258 539.031L212.276 533.83C212.735 533.578 213.246 533.436 213.769 533.415C214.292 533.394 214.813 533.495 215.29 533.71L224.742 539.152C225.513 539.597 225.417 540.356 224.525 540.897L215.507 546.087C215.05 546.343 214.539 546.489 214.016 546.512C213.492 546.535 212.971 546.435 212.493 546.219Z" fill="#2B303F"/>
<path id="Vector_68" d="M225.863 553.924L216.411 548.47C215.639 548.024 215.736 547.266 216.628 546.736L225.646 541.535C226.102 541.283 226.611 541.141 227.132 541.12C227.653 541.099 228.172 541.2 228.648 541.414L238.099 546.857C238.871 547.302 238.774 548.06 237.882 548.602L228.865 553.84C228.406 554.089 227.895 554.226 227.374 554.241C226.852 554.255 226.334 554.147 225.863 553.924Z" fill="#2B303F"/>
<path id="Vector_69" d="M65.4862 461.456L45.944 450.175C45.1724 449.741 45.2689 448.971 46.161 448.441L55.1786 443.24C55.6351 442.988 56.1442 442.846 56.6653 442.825C57.1864 442.804 57.7053 442.905 58.1805 443.119L77.7348 454.389C78.5063 454.834 78.4099 455.593 77.5178 456.123L68.5001 461.324C68.0425 461.578 67.5319 461.722 67.0088 461.745C66.4857 461.768 65.9645 461.669 65.4862 461.456Z" fill="#2B303F"/>
<path id="Vector_70" d="M59.2535 472.811L49.8019 467.357C49.0304 466.911 49.1268 466.153 50.0189 465.623L59.0727 460.422C59.5292 460.17 60.0382 460.028 60.5594 460.007C61.0805 459.986 61.5993 460.087 62.0746 460.301L71.5262 465.755C72.2978 466.201 72.2013 466.959 71.3092 467.489L62.2916 472.69C61.8305 472.948 61.315 473.093 60.787 473.114C60.259 473.135 59.7336 473.031 59.2535 472.811Z" fill="#2B303F"/>
<path id="Vector_71" d="M72.6112 480.516L63.1596 475.062C62.388 474.616 62.4845 473.858 63.3766 473.328L72.3942 468.127C72.8528 467.875 73.3639 467.733 73.887 467.712C74.41 467.691 74.9308 467.792 75.4081 468.006L84.8598 473.46C85.6313 473.894 85.5228 474.664 84.6428 475.194L75.6251 480.396C75.1674 480.65 74.6561 480.794 74.1326 480.815C73.609 480.836 73.0878 480.733 72.6112 480.516Z" fill="#2B303F"/>
<path id="Vector_72" d="M85.9689 488.222L76.5172 482.804C75.7457 482.359 75.8421 481.6 76.7342 481.07L85.7519 475.869C86.2105 475.617 86.7215 475.475 87.2446 475.454C87.7677 475.433 88.2885 475.534 88.7658 475.749L98.2174 481.191C98.989 481.636 98.8925 482.395 98.0004 482.924L88.9828 488.126C88.5232 488.377 88.0109 488.516 87.4873 488.533C86.9638 488.55 86.4436 488.443 85.9689 488.222Z" fill="#2B303F"/>
<path id="Vector_73" d="M99.3388 495.928L89.8871 490.474C89.1156 490.029 89.212 489.27 90.1041 488.74L99.1218 483.539C99.5773 483.284 100.087 483.141 100.608 483.12C101.13 483.099 101.649 483.201 102.124 483.419L111.575 488.825C112.347 489.27 112.25 490.029 111.358 490.558L102.341 495.76C101.889 496.022 101.382 496.174 100.86 496.203C100.338 496.233 99.817 496.138 99.3388 495.928Z" fill="#2B303F"/>
<path id="Vector_74" d="M112.696 503.632L103.245 498.178C102.473 497.732 102.57 496.974 103.462 496.444L112.479 491.231C112.937 490.976 113.448 490.832 113.972 490.811C114.496 490.79 115.017 490.893 115.493 491.11L124.945 496.552C125.717 496.998 125.62 497.756 124.728 498.286L115.734 503.499C115.274 503.757 114.759 503.904 114.231 503.927C113.704 503.95 113.178 503.849 112.696 503.632Z" fill="#2B303F"/>
<path id="Vector_75" d="M126.054 511.326L116.614 505.884C115.843 505.439 115.939 504.68 116.819 504.151L125.849 498.949C126.304 498.695 126.814 498.551 127.335 498.53C127.857 498.509 128.376 498.611 128.851 498.829L138.302 504.271C139.074 504.716 138.978 505.475 138.085 506.005L129.068 511.206C128.61 511.461 128.099 511.605 127.575 511.625C127.052 511.646 126.53 511.544 126.054 511.326Z" fill="#2B303F"/>
<path id="Vector_76" d="M139.424 519.032L129.972 513.59C129.201 513.144 129.297 512.386 130.189 511.856L139.207 506.655C139.662 506.401 140.171 506.257 140.692 506.234C141.213 506.211 141.732 506.31 142.209 506.522L151.66 511.976C152.432 512.422 152.335 513.18 151.443 513.71L142.426 518.923C141.969 519.176 141.459 519.318 140.938 519.337C140.416 519.355 139.897 519.251 139.424 519.032Z" fill="#2B303F"/>
<path id="Vector_77" d="M152.781 526.738L143.33 521.332C142.558 520.887 142.655 520.128 143.547 519.599L152.564 514.397C153.021 514.141 153.532 513.995 154.056 513.972C154.579 513.949 155.101 514.049 155.578 514.265L165.03 519.719C165.801 520.165 165.705 520.923 164.813 521.453L155.795 526.654C155.335 526.903 154.822 527.041 154.298 527.055C153.775 527.07 153.255 526.961 152.781 526.738Z" fill="#2B303F"/>
<path id="Vector_78" d="M166.151 534.442L156.724 529C155.952 528.555 156.048 527.796 156.941 527.267L165.958 522.065C166.413 521.809 166.922 521.663 167.443 521.64C167.965 521.617 168.485 521.717 168.96 521.933L178.424 527.351C179.195 527.796 179.099 528.555 178.207 529.085L169.189 534.286C168.732 534.552 168.218 534.705 167.689 534.733C167.161 534.76 166.633 534.66 166.151 534.442Z" fill="#2B303F"/>
<path id="Vector_79" d="M179.509 542.15L170.057 536.708C169.285 536.262 169.382 535.504 170.274 534.962L179.292 529.772C179.748 529.516 180.259 529.37 180.783 529.347C181.306 529.324 181.828 529.424 182.306 529.64L191.745 535.094C192.517 535.54 192.42 536.298 191.54 536.828L182.511 542.029C182.054 542.281 181.545 542.423 181.024 542.444C180.503 542.465 179.984 542.364 179.509 542.15Z" fill="#2B303F"/>
<path id="Vector_80" d="M192.891 549.854L183.439 544.4C182.667 543.966 182.764 543.196 183.656 542.666L192.674 537.465C193.132 537.213 193.643 537.07 194.166 537.05C194.689 537.029 195.21 537.13 195.687 537.344L205.139 542.798C205.911 543.244 205.814 544.002 204.922 544.532L195.904 549.733C195.446 549.986 194.935 550.128 194.412 550.149C193.889 550.17 193.368 550.069 192.891 549.854Z" fill="#2B303F"/>
<path id="Vector_81" d="M222.777 567.085L196.785 552.095C196.013 551.649 196.109 550.891 197.002 550.361L206.019 545.16C206.476 544.908 206.985 544.766 207.506 544.745C208.027 544.724 208.546 544.825 209.021 545.039L235.013 560.029C235.785 560.475 235.688 561.233 234.796 561.763L225.778 566.964C225.322 567.216 224.813 567.358 224.292 567.379C223.771 567.4 223.252 567.299 222.777 567.085Z" fill="#2B303F"/>
<path id="Vector_82" d="M45.884 465.105L32.9965 457.676C32.2249 457.23 32.3214 456.472 33.2135 455.942L42.195 450.741C42.6526 450.487 43.1632 450.343 43.6863 450.32C44.2094 450.297 44.7306 450.396 45.2089 450.608L58.0964 458.049C58.8679 458.495 58.7715 459.253 57.8794 459.783L48.8617 464.984C48.4077 465.231 47.9031 465.369 47.3869 465.39C46.8706 465.411 46.3565 465.313 45.884 465.105Z" fill="#2B303F"/>
<path id="Vector_83" d="M275.098 536.985L85.33 427.505C84.5584 427.059 84.6549 426.301 85.547 425.771L90.0558 423.17C90.5113 422.917 91.0199 422.772 91.541 422.749C92.0622 422.726 92.5815 422.825 93.0577 423.038L282.826 532.47C283.597 532.915 283.501 533.674 282.621 534.203L278.112 536.804C277.658 537.066 277.149 537.218 276.626 537.25C276.103 537.281 275.58 537.19 275.098 536.985Z" fill="#2B303F"/>
<path id="Vector_84" opacity="0.4" d="M426.71 602C443.189 602 456.548 594.297 456.548 584.795C456.548 575.293 443.189 567.59 426.71 567.59C410.231 567.59 396.872 575.293 396.872 584.795C396.872 594.297 410.231 602 426.71 602Z" fill="#D6D8E5"/>
<path id="Vector_85" d="M459.465 582.352V536.455L399.922 537.96L400.043 580.257C398.934 585.35 401.767 590.671 408.542 594.584C420.188 601.303 439.079 601.303 450.737 594.584C456.596 591.165 459.501 586.77 459.465 582.352Z" fill="#A6CE28"/>
<path id="Vector_86" d="M429.639 553.658C446.118 553.658 459.477 545.955 459.477 536.453C459.477 526.951 446.118 519.248 429.639 519.248C413.161 519.248 399.802 526.951 399.802 536.453C399.802 545.955 413.161 553.658 429.639 553.658Z" fill="#BCD64D"/>
<path id="Vector_87" d="M454.751 536.453C454.751 539.259 452.425 542.196 448.374 544.532C443.195 547.268 437.45 548.764 431.593 548.903C430.95 548.903 430.311 548.903 429.676 548.903C422.623 548.903 415.8 547.301 410.941 544.496C406.89 542.16 404.564 539.222 404.564 536.417C404.564 533.612 406.89 530.674 410.941 528.338C415.763 525.533 422.623 523.932 429.676 523.932C430.315 523.932 430.954 523.932 431.593 523.932C437.462 524.055 443.221 525.547 448.41 528.29C452.425 530.71 454.751 533.66 454.751 536.453Z" fill="#28221C"/>
<path id="Vector_88" opacity="0.07" d="M454.751 536.455C454.751 539.26 452.425 542.198 448.374 544.533C443.231 547.399 437.44 548.904 431.55 548.904C425.661 548.904 419.869 547.399 414.727 544.533C410.676 542.198 408.349 539.26 408.349 536.455C408.349 533.649 410.676 530.711 414.727 528.376C419.872 525.518 425.662 524.018 431.55 524.018C437.438 524.018 443.228 525.518 448.374 528.376C452.425 530.711 454.751 533.661 454.751 536.455Z" fill="white"/>
<path id="Vector_89" d="M455.113 557.704L448.772 554.092L445.698 555.874L448.772 557.656V558.86L454.715 562.279L454.534 563.375C455.402 564.109 458.464 569.768 458.464 569.768L458.694 569.575V584.348C458.694 588.225 456.415 586.913 455.438 586.347L448.772 582.506L445.698 584.288L448.772 586.07V587.274L455.438 591.115C456.123 591.517 456.851 591.84 457.608 592.078L457.211 593.932L460.659 591.994C462.105 591.139 462.696 589.104 462.696 586.804V571.189C462.792 564.675 457.765 559.51 455.113 557.704Z" fill="#8DA01F"/>
<path id="Vector_90" d="M452.364 592.777L445.698 588.936V584.204L452.364 588.057C453.329 588.611 455.607 589.923 455.607 586.047V570.611C455.607 566.999 452.304 564.447 451.749 564.05L445.722 560.558V555.826L452.051 559.438C454.715 561.244 459.73 566.385 459.73 572.923V588.37C459.706 592.572 457.777 595.907 452.364 592.777Z" fill="#99B524"/>
<path id="Vector_91" opacity="0.4" d="M28.1018 363.728C40.8921 363.728 51.2607 357.75 51.2607 350.376C51.2607 343.001 40.8921 337.023 28.1018 337.023C15.3115 337.023 4.94287 343.001 4.94287 350.376C4.94287 357.75 15.3115 363.728 28.1018 363.728Z" fill="#D6D8E5"/>
<path id="Vector_92" d="M31.405 361.248C44.1953 361.248 54.5639 355.27 54.5639 347.895C54.5639 340.521 44.1953 334.543 31.405 334.543C18.6147 334.543 8.24609 340.521 8.24609 347.895C8.24609 355.27 18.6147 361.248 31.405 361.248Z" fill="#D6D8E5"/>
<path id="Vector_93" d="M0.409912 302.24L8.51131 348.835H54.5036L62.4122 302.577L0.409912 302.24Z" fill="#D6D8E5"/>
<path id="Vector_94" d="M31.405 319.552C48.5431 319.552 62.4363 311.542 62.4363 301.661C62.4363 291.78 48.5431 283.77 31.405 283.77C14.2669 283.77 0.373779 291.78 0.373779 301.661C0.373779 311.542 14.2669 319.552 31.405 319.552Z" fill="#E4E6EF"/>
<path id="Vector_95" d="M31.4049 315.615C23.7978 315.615 16.709 313.942 11.4407 310.896C6.91985 308.295 4.32788 304.876 4.32788 301.661C4.32788 298.446 6.91985 295.039 11.4407 292.426C16.709 289.392 23.7978 287.719 31.4049 287.719C39.012 287.719 46.1007 289.392 51.3691 292.426C55.8899 295.039 58.4819 298.446 58.4819 301.661C58.4819 304.876 55.8899 308.295 51.3691 310.896C46.1007 313.942 39.012 315.615 31.4049 315.615Z" fill="#28221C"/>
<path id="Vector_96" d="M44.7626 287.575C45.2028 281.553 44.2436 275.511 41.96 269.92C39.6764 264.329 36.1301 259.341 31.5978 255.344L31.5014 255.26V255.428C26.9659 259.418 23.4156 264.401 21.1277 269.988C18.8398 275.575 17.8763 281.615 18.3125 287.635L0.578613 285.962C8.06518 314.147 31.5978 311.715 31.5978 311.715C33.37 311.848 55.3113 312.98 62.4844 285.938L44.7626 287.575Z" fill="#99B524"/>
<path id="Vector_97" d="M31.5979 311.716C31.5979 311.716 30.0065 289.779 0.506346 274.994C0.506346 274.994 -6.48594 311.451 31.5979 311.716Z" fill="#A6CE28"/>
<path id="Vector_98" d="M31.405 311.716C31.405 311.716 32.9964 289.779 62.4966 274.994C62.4966 274.994 69.4888 311.451 31.405 311.716Z" fill="#A6CE28"/>
</g>
</g>
</g>
<defs>
<linearGradient id="paint0_linear" x1="163.125" y1="229.133" x2="498.116" y2="229.133" gradientUnits="userSpaceOnUse">
<stop offset="0.21" stop-color="white" stop-opacity="0"/>
<stop offset="1" stop-color="white" stop-opacity="0.2"/>
</linearGradient>
<clipPath id="clip0">
<rect width="506" height="602" fill="white"/>
</clipPath>
</defs>
</svg>
