<svg width="602" height="567" viewBox="0 0 602 567" fill="none" xmlns="http://www.w3.org/2000/svg">
<g id="Data_chart_SVG" clip-path="url(#clip0)">
<g id="&#208;&#161;&#208;&#187;&#208;&#190;&#208;&#185; 2">
<g id="&#208;&#161;&#208;&#187;&#208;&#190;&#208;&#185; 1">
<path id="Vector" d="M513.771 242.859C396.236 174.961 205.679 174.961 88.1449 242.859C-29.3896 310.757 -29.3776 420.844 88.1449 488.742C205.667 556.64 396.236 556.64 513.771 488.742C631.305 420.844 631.317 310.817 513.771 242.859ZM422.833 436.204C355.529 475.08 246.411 475.08 179.095 436.204C111.779 397.328 111.791 334.273 179.095 295.397C246.399 256.52 355.529 256.52 422.833 295.397C490.136 334.273 490.136 397.316 422.833 436.204Z" fill="#E8A30A"/>
<path id="Vector_2" d="M0.38528 374.583L0 266.23L85.9174 355.187L0.38528 374.583Z" fill="#E8A30A"/>
<path id="Vector_3" d="M120.93 386.016C123.723 391.618 148.935 456.071 153.137 457.468C157.339 458.866 314.16 481.285 314.16 481.285L409.36 474.274C409.36 474.274 448.562 457.468 456.966 453.264C465.37 449.059 479.373 380.402 479.373 380.402L120.93 386.016Z" fill="#E8A30A"/>
<path id="Vector_4" d="M601.446 262.23L601.928 365.8L559.198 395.822L522.789 301.95L601.446 262.23Z" fill="#E55353"/>
<path id="Vector_5" d="M102.725 254.316L272.152 220.681L498.986 243.101L431.779 145.025L218.947 131.014L102.725 254.316Z" fill="#E8A30A"/>
<path id="Vector_6" d="M513.771 148.988C396.236 81.09 205.679 81.09 88.1449 148.988C-29.3896 216.886 -29.3776 326.973 88.1449 394.871C205.667 462.768 396.236 462.768 513.771 394.871C631.305 326.973 631.317 216.85 513.771 148.988ZM422.833 342.333C355.529 381.209 246.411 381.209 179.095 342.333C111.779 303.457 111.791 240.402 179.095 201.526C246.399 162.649 355.529 162.649 422.833 201.526C490.136 240.402 490.136 303.457 422.833 342.333Z" fill="#F9CB07"/>
<path id="Vector_7" d="M246.351 65.6211V271.339C246.351 271.339 321.384 253.882 398.837 284.012C477.591 314.648 509.136 264.303 509.136 264.303C509.136 264.303 494.086 143.831 490.233 138.555C486.38 133.278 409.36 83.9087 403.424 82.5112C397.489 81.1138 302.951 68.8497 302.951 68.8497L246.351 65.6211Z" fill="#A5AD00"/>
<path id="Vector_8" d="M464.913 511.644L465.755 305.373L601.807 172.553L601.892 367.801C601.892 367.801 609.561 457.119 464.913 511.644Z" fill="#A5AD00"/>
<path id="Vector_9" d="M465.382 417.627L372.036 362.632L370.555 264.941L466.225 319.226L465.382 417.627Z" fill="#B8C102"/>
<path id="Vector_10" d="M246.35 177.468L151.584 120.943L150.777 23.1562L246.35 79.4527V177.468Z" fill="#B8C102"/>
<path id="Vector_11" d="M513.771 50.9121C415.38 -5.92647 265.843 -15.1667 150.777 23.1554L246.35 79.5121C306.322 67.9588 375.082 75.8979 422.833 103.51C490.136 142.398 490.136 205.441 422.833 244.317C406.429 253.56 388.84 260.52 370.555 265.002L465.755 319.431C482.348 313.218 498.41 305.668 513.783 296.855C631.317 228.897 631.317 118.81 513.771 50.9121Z" fill="#B9CC00"/>
<g id="Girl 12">
<path id="&#60;&#208;&#154;&#208;&#190;&#208;&#189;&#209;&#130;&#209;&#131;&#209;&#128;&#62;" d="M85.4117 281.446C86.8203 279.182 97.5841 277.688 101.064 286.819C102.4 290.277 102.195 299.12 103.327 304.685C104.459 310.251 107.096 313.395 108.047 317.937C108.998 322.479 107.445 329.984 96.5848 331.334C85.7247 332.683 77.3208 328.864 74.8044 325.394C72.2881 321.925 72.1917 314.552 74.8044 310.613C77.4171 306.673 79.488 303.384 79.4278 298.3L85.4117 281.446Z" fill="#3A2C6D"/>
<path id="&#60;&#208;&#154;&#208;&#190;&#208;&#189;&#209;&#130;&#209;&#131;&#209;&#128;&#62;_2" d="M92.5154 279.868C92.5154 279.868 84.4004 277.531 79.464 281.904C77.8388 283.401 76.6567 285.318 76.0473 287.442C75.4378 289.567 75.4244 291.819 76.0085 293.951C76.6587 296.505 77.9711 299.975 80.0058 300.204C82.0406 300.433 92.5154 279.868 92.5154 279.868Z" fill="#3A2C6D"/>
<path id="&#60;&#208;&#154;&#208;&#190;&#208;&#189;&#209;&#130;&#209;&#131;&#209;&#128;&#62;_3" d="M95.6097 301.986C95.6097 301.986 95.0799 311.034 95.2485 311.696C95.417 312.359 98.7882 312.997 99.7394 313.793C100.691 314.588 94.8271 323.756 91.8532 325.105C88.8793 326.454 79.6446 322.997 78.9945 318.407C78.4045 314.178 81.6432 310.889 82.8834 309.745C83.7318 309.666 84.5844 309.642 85.4358 309.672L85.7007 305.287C89.7462 304.01 95.6097 301.986 95.6097 301.986Z" fill="#FFCEA9"/>
<path id="&#60;&#208;&#154;&#208;&#190;&#208;&#189;&#209;&#130;&#209;&#131;&#209;&#128;&#62;_4" d="M69.0372 350.224C66.4797 353.751 63.4493 356.908 60.0313 359.609C58.948 360.736 57.9233 361.918 56.9611 363.151C55.3509 365.007 53.2718 366.397 50.9411 367.174C48.8943 367.704 48.0395 367.56 47.6903 367.174C47.3412 366.789 47.5097 366.198 48.4007 365.849C49.8501 365.41 51.197 364.685 52.3618 363.717C52.3618 363.717 50.4595 364.596 49.2676 365.006C48.1905 365.39 47.0627 365.614 45.9204 365.668C44.8007 365.668 43.6208 364.367 44.5118 363.982C45.4027 363.596 46.2214 363.56 47.9793 362.922C48.8951 362.587 49.7649 362.138 50.5679 361.584C49.3472 361.941 48.0986 362.195 46.8355 362.343C45.7875 362.511 44.7138 362.39 43.7292 361.994C43.1994 361.765 42.7539 360.789 43.9338 360.5C45.4653 360.343 46.9705 359.991 48.4127 359.452C49.7973 358.826 50.6522 358.175 50.3512 358.043C50.0502 357.91 49.2676 358.332 47.8709 358.235C46.4743 358.139 45.198 357.247 45.2221 356.5C45.2462 355.754 45.5111 356.175 46.8716 356.055C48.2321 355.934 49.2796 355.32 51.2421 355.32C52.6924 355.374 54.1422 355.203 55.5404 354.814C57.0213 354.368 60.3564 350.405 62.8487 346.766C65.6029 342.733 67.7867 338.339 69.3382 333.707C70.8553 328.696 72.6733 319.335 73.9496 316.082C75.2258 312.829 77.4773 311.336 79.5963 311.263C82.0886 311.179 83.2083 314.456 82.498 317.287C81.3301 322.226 75.8519 341.345 69.0372 350.224Z" fill="#FFCEA9"/>
<path id="&#60;&#208;&#154;&#208;&#190;&#208;&#189;&#209;&#130;&#209;&#131;&#209;&#128;&#62;_5" d="M96.8497 312.577C99.3902 312.962 102.292 314.324 102.689 315.709C103.159 317.336 104.158 324.985 101.967 330.804C99.7755 336.623 97.2832 347.116 96.019 349.622C96.019 349.622 85.9656 351.417 77.1041 345.923C77.1041 345.923 76.5744 335.816 76.5383 332.479C68.3631 325.335 75.3343 316.54 82.2693 309.71C83.0987 309.644 83.9321 309.644 84.7616 309.71C84.7616 309.71 78.5851 317.022 82.8833 321.179C92.0819 318.36 93.912 314.227 96.8497 312.577Z" fill="#F4F4F4"/>
<path id="&#60;&#208;&#154;&#208;&#190;&#208;&#189;&#209;&#130;&#209;&#131;&#209;&#128;&#62;_6" d="M78.7416 290.795C79.6446 284.988 83.8465 280.591 89.8304 280.952C92.8837 281.136 95.7397 282.523 97.7713 284.812C99.8029 287.1 100.844 290.101 100.666 293.156C100.562 294.92 100.05 296.636 99.1701 298.168C98.2905 299.7 97.0676 301.008 95.5976 301.987C95.3918 302.867 95.0847 303.72 94.6825 304.529C92.5514 306.998 86.9288 308.564 85.0505 308.589C83.4492 308.589 82.0646 307.107 80.5596 304.613C77.4412 299.421 78.26 293.662 78.7416 290.795Z" fill="#FFCEA9"/>
<path id="Vector_12" d="M91.6844 281.049C95.8744 281.88 99.3298 283.061 100.474 287.181C101.256 290.024 102.28 295.445 101.304 297.722L100.702 299.373L95.6095 301.987C95.6095 301.987 93.2015 300.011 93.9841 294.216C93.9512 293.433 93.7011 292.673 93.2617 292.024C92.9429 291.475 92.7075 290.883 92.5634 290.265C91.9726 288.678 90.79 287.383 89.2644 286.651C85.4838 284.518 79.9454 286.362 79.1628 287.133C80.2367 284.836 82.0667 282.978 84.3463 281.871C86.6258 280.763 89.2166 280.473 91.6844 281.049Z" fill="#3A2C6D"/>
<path id="Vector_13" d="M68.6281 420.061C66.497 421.796 63.198 420.603 63.0295 420.76C60.8743 422.928 57.6476 424.819 55.2516 426.711C53.9272 427.747 51.8563 429.12 52.2296 431.144C52.9038 434.758 58.6349 433.626 60.8021 432.53C62.9693 431.433 64.7271 429.626 66.8221 428.349C68.2789 427.446 69.7117 426.976 69.9404 425.133C69.9765 424.06 68.9411 420.025 68.6281 420.061Z" fill="#38226D"/>
<path id="Vector_14" d="M69.8319 424.387C69.555 426.146 68.1343 426.64 66.6895 427.543C64.6065 428.832 62.7765 430.699 60.6695 431.796C58.5625 432.892 53.6863 433.808 52.2415 431.254C53 434.699 58.6347 433.663 60.7778 432.531C62.9209 431.398 64.7029 429.627 66.7978 428.35C68.2547 427.447 69.6874 426.977 69.9162 425.134C69.9169 424.882 69.8886 424.632 69.8319 424.387Z" fill="#9C73FF"/>
<path id="Vector_15" d="M58.2132 414.254C56.2628 415.844 53.325 414.953 53.1805 415.097C51.206 417.085 48.2682 418.784 46.0649 420.519C44.8609 421.482 42.9586 422.759 43.3077 424.591C43.9218 427.867 49.1712 426.855 51.1458 425.856C53.1203 424.856 54.7578 423.193 56.624 422.025C57.9604 421.193 59.2728 420.76 59.4774 419.073C59.6099 418.037 58.5504 414.218 58.2132 414.254Z" fill="#38226D"/>
<path id="Vector_16" d="M59.4536 418.398C59.2008 420.013 57.9004 420.459 56.576 421.278C54.6737 422.482 52.964 424.169 51.0135 425.181C49.0631 426.193 44.6203 427.024 43.332 424.675C44.0304 427.843 49.1835 426.856 51.146 425.88C53.1085 424.904 54.758 423.217 56.6242 422.049C57.9606 421.217 59.273 420.784 59.4777 419.097C59.5002 418.864 59.4921 418.629 59.4536 418.398Z" fill="#9C73FF"/>
<path id="Vector_17" d="M87.6391 351.863C81.8823 352.632 76.025 351.798 70.7109 349.453C70.7952 351.248 70.8915 352.85 70.8915 352.85C64.0046 357.669 50.1706 365.934 49.2195 371.584C50.1225 389.474 52.8315 415.014 53.6141 415.387C55.7813 416.411 57.2261 416.243 58.3097 415.219C58.3097 415.219 62.6561 400.063 61.3919 377.872C61.3919 377.872 85.4719 367.199 87.0732 361.356C87.9762 357.995 87.7956 357.573 87.7234 354.127C87.7595 353.284 87.7114 352.561 87.6391 351.863Z" fill="#FFCEA9"/>
<path id="Vector_18" d="M95.6336 349.537C90.8176 351.766 86.4711 352.043 81.0772 351.489C81.1495 353.898 81.4264 358.368 81.4264 358.368C74.5395 363.187 60.7056 371.451 59.7544 377.113C60.6574 394.991 62.3189 420.892 63.1136 421.218C64.0428 421.614 65.0596 421.76 66.0628 421.642C67.066 421.524 68.0209 421.145 68.8326 420.543C68.8326 420.543 73.179 405.593 71.9148 383.366C71.9148 382.944 92.5754 372.764 95.2002 370.114C98.0055 367.222 98.3306 363.415 98.2583 359.609C98.0805 356.107 97.1872 352.679 95.6336 349.537Z" fill="#FFCEA9"/>
<path id="Vector_19" d="M100.703 353.32C100.703 353.32 108.336 366.861 95.6096 373.8C82.173 381.149 73.9376 382.872 73.9376 382.872L71.9149 383.342C71.9149 383.342 72.8781 388.245 71.9149 397.413C71.9149 397.413 62.2829 400.75 50.1105 389.992L46.065 376.957L45.5955 373.463C45.3612 372.284 45.4245 371.065 45.7798 369.916C46.1351 368.768 46.7711 367.726 47.6302 366.885C50.568 364.235 59.8629 357.416 65.6902 353.525C71.5176 349.634 76.0928 345.887 76.0928 345.887L77.1042 344.947C77.1042 344.947 83.9549 350.405 96.4886 348.561C98.14 349.91 99.563 351.517 100.703 353.32Z" fill="#8C50FF"/>
<path id="&#60;&#208;&#154;&#208;&#190;&#208;&#189;&#209;&#130;&#209;&#131;&#209;&#128;&#62;_7" d="M93.1294 373.462C94.2937 372.412 95.5243 371.439 96.8136 370.547C98.1872 369.863 99.443 368.964 100.534 367.885C101.738 366.68 103.448 361.801 104.351 357.042C105.183 351.681 105.09 346.216 104.074 340.887C102.49 334.512 100.351 328.287 97.6805 322.286C95.9829 318.672 96.934 316.503 98.4872 314.913C100.305 313.046 102.208 313.094 104.375 318.106C106.542 323.117 109.985 332.562 111.093 339.995C111.958 345.458 111.88 351.028 110.864 356.464C109.966 361.234 108.494 365.877 106.482 370.294C105.928 371.583 105.832 372.703 105.061 375.269C104.316 377.834 102.97 380.184 101.136 382.124C99.4865 383.666 98.6437 383.967 98.1862 383.763C97.7287 383.558 97.6444 382.919 98.3186 382.136C99.4882 380.959 100.442 379.584 101.136 378.076C101.136 378.076 99.7394 379.883 98.8123 380.883C97.9888 381.779 97.0494 382.561 96.019 383.209C95.0076 383.811 93.4184 383.1 94.0806 382.293C94.7428 381.486 95.4772 381.028 96.8257 379.51C97.5449 378.715 98.1673 377.838 98.6798 376.896C97.6974 377.84 96.6427 378.706 95.5253 379.486C94.6686 380.162 93.637 380.58 92.5515 380.691C91.9856 380.691 91.203 380.04 92.1542 379.137C93.5126 378.205 94.7501 377.108 95.8384 375.872C96.8497 374.571 97.3916 373.462 97.0424 373.462C96.6932 373.462 96.1755 374.294 94.8632 374.896C93.5508 375.498 92.0458 375.306 91.7809 374.571C91.516 373.836 91.9374 374.209 93.1294 373.462Z" fill="#FFCEA9"/>
<path id="Vector_20" d="M107.71 324.792C107.71 324.792 103.086 328.9 97.9213 328.057L95.9226 319.443C95.9226 319.443 94.5501 314.901 98.451 313.178C102.352 311.456 106.036 315.973 107.71 324.792Z" fill="#EDEDED"/>
<path id="Vector_21" d="M82.2694 309.709C82.2694 309.709 77.2607 308.179 71.927 319.347L73.9256 320.552C73.9256 320.552 79.163 312.565 82.2694 309.709Z" fill="#EDEDED"/>
<g id="&#60;&#208;&#147;&#209;&#128;&#209;&#131;&#208;&#191;&#208;&#191;&#208;&#176;&#62;">
<g id="&#60;&#208;&#147;&#209;&#128;&#209;&#131;&#208;&#191;&#208;&#191;&#208;&#176;&#62;_2">
<path id="&#60;&#208;&#154;&#208;&#190;&#208;&#189;&#209;&#130;&#209;&#131;&#209;&#128;&#62;_8" d="M47.6543 357.657L65.5217 347.344C65.6755 347.249 65.8527 347.199 66.0334 347.199C66.2141 347.199 66.3912 347.249 66.5451 347.344L97.8491 365.415L79.464 376.065L47.6543 357.657Z" fill="#F4F4F4"/>
<path id="Vector_22" d="M79.9697 371.981L81.3302 372.764C81.4385 372.824 81.4265 372.945 81.3302 373.017L80.0178 373.776C79.9503 373.809 79.8762 373.826 79.8011 373.826C79.726 373.826 79.6519 373.809 79.5844 373.776L78.26 373.005C78.1396 372.933 78.1637 372.824 78.26 372.752L79.5723 371.993C79.6334 371.961 79.7008 371.944 79.7696 371.942C79.8384 371.94 79.9068 371.953 79.9697 371.981Z" fill="#3A2C6D"/>
<path id="Vector_23" d="M78.0313 370.861L79.4038 371.644C79.5122 371.716 79.5002 371.824 79.4038 371.897L78.1035 372.656C78.0369 372.692 77.9624 372.71 77.8868 372.71C77.8112 372.71 77.7367 372.692 77.6701 372.656L76.2975 371.873C76.1892 371.8 76.2012 371.692 76.2975 371.62L77.5978 370.861C77.6653 370.828 77.7394 370.811 77.8146 370.811C77.8897 370.811 77.9638 370.828 78.0313 370.861Z" fill="#3A2C6D"/>
<path id="Vector_24" d="M76.0806 369.728L77.4411 370.523C77.5495 370.583 77.5374 370.692 77.4411 370.764L76.1408 371.523C76.0742 371.559 75.9997 371.578 75.9241 371.578C75.8484 371.578 75.774 371.559 75.7074 371.523L74.3468 370.74C74.2264 370.68 74.2385 370.559 74.3468 370.487L75.6472 369.74C75.7137 369.705 75.7874 369.686 75.8625 369.684C75.9376 369.682 76.0122 369.697 76.0806 369.728Z" fill="#3A2C6D"/>
<path id="Vector_25" d="M74.1664 368.645L75.5269 369.44C75.6352 369.5 75.6232 369.62 75.5269 369.693L74.2145 370.44C74.1468 370.472 74.0728 370.488 73.9978 370.488C73.9228 370.488 73.8488 370.472 73.7811 370.44L72.4206 369.644C72.3122 369.584 72.3243 369.476 72.4206 369.391L73.7329 368.645C73.8007 368.612 73.8747 368.596 73.9496 368.596C74.0246 368.596 74.0986 368.612 74.1664 368.645Z" fill="#3A2C6D"/>
<path id="Vector_26" d="M72.24 367.512L73.6126 368.295C73.7209 368.367 73.7089 368.475 73.6126 368.548L72.3123 369.307C72.2448 369.34 72.1707 369.357 72.0955 369.357C72.0204 369.357 71.9463 369.34 71.8788 369.307L70.5063 368.524C70.3979 368.451 70.4099 368.343 70.5063 368.271L71.8066 367.512C71.8732 367.476 71.9477 367.457 72.0233 367.457C72.0989 367.457 72.1734 367.476 72.24 367.512Z" fill="#3A2C6D"/>
<path id="Vector_27" d="M70.2896 366.391L71.6621 367.174C71.7705 367.246 71.7585 367.354 71.6621 367.427L70.3618 368.186C70.2952 368.222 70.2207 368.24 70.1451 368.24C70.0695 368.24 69.995 368.222 69.9284 368.186L68.5197 367.439C68.4113 367.367 68.4234 367.258 68.5197 367.186L69.82 366.427C69.8891 366.382 69.9682 366.355 70.0502 366.349C70.1322 366.343 70.2145 366.357 70.2896 366.391Z" fill="#3A2C6D"/>
<path id="Vector_28" d="M68.3631 365.27L69.7237 366.065C69.8441 366.125 69.82 366.234 69.7237 366.318L68.4113 367.065C68.3436 367.097 68.2696 367.114 68.1946 367.114C68.1196 367.114 68.0456 367.097 67.9779 367.065L66.6173 366.27C66.509 366.21 66.521 366.089 66.6173 366.017L67.9297 365.27C67.9966 365.235 68.071 365.217 68.1464 365.217C68.2219 365.217 68.2962 365.235 68.3631 365.27Z" fill="#3A2C6D"/>
<path id="Vector_29" d="M66.4246 364.15L67.7972 364.946C67.9055 365.006 67.8935 365.126 67.7972 365.199L66.4968 365.945C66.4291 365.978 66.3551 365.994 66.2801 365.994C66.2052 365.994 66.1311 365.978 66.0634 365.945L64.6908 365.15C64.5825 365.09 64.5945 364.982 64.6908 364.897L65.9912 364.15C66.0589 364.118 66.1329 364.102 66.2079 364.102C66.2828 364.102 66.3569 364.118 66.4246 364.15Z" fill="#3A2C6D"/>
<path id="Vector_30" d="M64.4983 363.042L65.8588 363.825C65.9672 363.897 65.9552 364.006 65.8588 364.078L64.5585 364.837C64.491 364.87 64.4169 364.887 64.3418 364.887C64.2667 364.887 64.1926 364.87 64.1251 364.837L62.7646 364.054C62.6442 363.981 62.6562 363.873 62.7646 363.801L64.0649 363.042C64.1321 363.008 64.2063 362.99 64.2816 362.99C64.3569 362.99 64.4311 363.008 64.4983 363.042Z" fill="#3A2C6D"/>
<path id="Vector_31" d="M62.608 361.921L63.9685 362.704C64.0889 362.777 64.0649 362.885 63.9685 362.957L62.6682 363.716C62.5995 363.752 62.523 363.771 62.4455 363.771C62.3679 363.771 62.2915 363.752 62.2227 363.716L60.8622 362.933C60.7539 362.861 60.7659 362.752 60.8622 362.68L62.1746 361.921C62.2421 361.888 62.3162 361.871 62.3913 361.871C62.4664 361.871 62.5405 361.888 62.608 361.921Z" fill="#3A2C6D"/>
<path id="Vector_32" d="M60.6214 360.801L61.9939 361.596C62.1023 361.656 62.0902 361.765 61.9939 361.849L60.6936 362.596C60.6259 362.628 60.5519 362.645 60.4769 362.645C60.4019 362.645 60.3279 362.628 60.2602 362.596L58.8876 361.801C58.7793 361.801 58.7913 361.62 58.8876 361.548L60.1879 360.801C60.2549 360.766 60.3292 360.748 60.4046 360.748C60.4801 360.748 60.5544 360.766 60.6214 360.801Z" fill="#3A2C6D"/>
<path id="Vector_33" d="M58.695 359.68L60.0555 360.475C60.1639 360.475 60.1518 360.656 60.0555 360.728L58.7432 361.475C58.6754 361.507 58.6014 361.524 58.5264 361.524C58.4515 361.524 58.3774 361.507 58.3097 361.475L56.9492 360.68C56.8288 360.62 56.8529 360.511 56.9492 360.427L58.2495 359.68C58.3193 359.648 58.3953 359.631 58.4723 359.631C58.5492 359.631 58.6252 359.648 58.695 359.68Z" fill="#3A2C6D"/>
<path id="Vector_34" d="M56.7565 358.572L58.117 359.355C58.2374 359.427 58.2253 359.535 58.117 359.608L56.8167 360.367C56.7469 360.399 56.6709 360.416 56.5939 360.416C56.517 360.416 56.441 360.399 56.3712 360.367L55.0107 359.584C54.9023 359.511 54.9143 359.403 55.0107 359.331L56.311 358.572C56.3791 358.534 56.4558 358.514 56.5337 358.514C56.6117 358.514 56.6884 358.534 56.7565 358.572Z" fill="#3A2C6D"/>
<path id="Vector_35" d="M53.8909 356.91L56.1905 358.235C56.2989 358.308 56.2869 358.416 56.1905 358.488L54.8902 359.247C54.8236 359.283 54.7491 359.302 54.6735 359.302C54.5979 359.302 54.5234 359.283 54.4568 359.247L52.1571 357.922C52.0488 357.862 52.0608 357.741 52.1571 357.669L53.4575 356.922C53.5243 356.888 53.5979 356.869 53.6728 356.867C53.7478 356.865 53.8223 356.88 53.8909 356.91Z" fill="#3A2C6D"/>
<path id="Vector_36" d="M78.9702 369.235L80.3428 370.03C80.4512 370.09 80.4391 370.198 80.3428 370.283L79.0425 371.03C78.9748 371.062 78.9007 371.079 78.8258 371.079C78.7508 371.079 78.6768 371.062 78.6091 371.03L77.2365 370.235C77.1281 370.235 77.1402 370.054 77.2365 369.982L78.5368 369.235C78.6037 369.2 78.6781 369.182 78.7535 369.182C78.829 369.182 78.9033 369.2 78.9702 369.235Z" fill="#3A2C6D"/>
<path id="Vector_37" d="M77.0559 368.113L78.4285 368.908C78.5369 368.908 78.5248 369.077 78.4285 369.161L77.1282 369.908C77.0604 369.94 76.9864 369.957 76.9115 369.957C76.8365 369.957 76.7625 369.94 76.6947 369.908L75.3222 369.113C75.2138 369.053 75.2259 368.932 75.3222 368.86L76.6225 368.113C76.6902 368.081 76.7643 368.064 76.8392 368.064C76.9142 368.064 76.9882 368.081 77.0559 368.113Z" fill="#3A2C6D"/>
<path id="Vector_38" d="M75.0935 366.994L76.4661 367.789C76.5745 367.789 76.5624 367.97 76.4661 368.042L75.1658 368.789C75.098 368.821 75.024 368.838 74.9491 368.838C74.8741 368.838 74.8001 368.821 74.7323 368.789L73.3598 367.994C73.2514 367.934 73.2635 367.825 73.3598 367.741L74.6601 366.994C74.7278 366.962 74.8019 366.945 74.8768 366.945C74.9518 366.945 75.0258 366.962 75.0935 366.994Z" fill="#3A2C6D"/>
<path id="Vector_39" d="M73.1551 365.873L74.5276 366.668C74.636 366.728 74.6239 366.849 74.5276 366.921L73.2273 367.668C73.1604 367.703 73.086 367.721 73.0106 367.721C72.9351 367.721 72.8608 367.703 72.7939 367.668L71.4213 366.873C71.3129 366.813 71.325 366.704 71.4213 366.62L72.7216 365.873C72.7894 365.841 72.8634 365.824 72.9383 365.824C73.0133 365.824 73.0873 365.841 73.1551 365.873Z" fill="#3A2C6D"/>
<path id="Vector_40" d="M71.2406 364.764L72.6012 365.559C72.7095 365.619 72.6975 365.727 72.6012 365.812L71.2888 366.559C71.2211 366.591 71.1471 366.608 71.0721 366.608C70.9971 366.608 70.9231 366.591 70.8554 366.559L69.4948 365.764C69.3744 365.703 69.3985 365.583 69.4948 365.511L70.8072 364.764C70.8749 364.732 70.949 364.715 71.0239 364.715C71.0989 364.715 71.1729 364.732 71.2406 364.764Z" fill="#3A2C6D"/>
<path id="Vector_41" d="M69.3021 363.645L70.6626 364.44C70.783 364.5 70.7589 364.62 70.6626 364.693L69.3503 365.44C69.2825 365.472 69.2085 365.488 69.1335 365.488C69.0586 365.488 68.9846 365.472 68.9168 365.44L67.5563 364.644C67.448 364.584 67.46 364.476 67.5563 364.391L68.8687 363.645C68.9364 363.612 69.0104 363.596 69.0854 363.596C69.1604 363.596 69.2344 363.612 69.3021 363.645Z" fill="#3A2C6D"/>
<path id="Vector_42" d="M67.4239 362.523L68.7845 363.319C68.9049 363.379 68.8808 363.499 68.7845 363.572L67.4721 364.318C67.4055 364.354 67.331 364.373 67.2554 364.373C67.1797 364.373 67.1053 364.354 67.0387 364.318L65.6781 363.523C65.5698 363.523 65.5818 363.355 65.6781 363.27L66.9905 362.523C67.0582 362.491 67.1323 362.475 67.2072 362.475C67.2822 362.475 67.3562 362.491 67.4239 362.523Z" fill="#3A2C6D"/>
<path id="Vector_43" d="M65.4254 361.416L66.7859 362.199C66.9063 362.259 66.8943 362.379 66.7859 362.452L65.4856 363.199C65.4165 363.233 65.3402 363.252 65.2629 363.252C65.1855 363.252 65.1092 363.233 65.0401 363.199L63.6796 362.403C63.5712 362.403 63.5833 362.235 63.6796 362.162L65.016 361.416C65.0796 361.384 65.1497 361.367 65.2207 361.367C65.2918 361.367 65.3619 361.384 65.4254 361.416Z" fill="#3A2C6D"/>
<path id="Vector_44" d="M63.4868 360.295L64.8594 361.078C64.9678 361.15 64.9557 361.259 64.8594 361.331L63.5591 362.09C63.4916 362.123 63.4175 362.14 63.3424 362.14C63.2673 362.14 63.1931 362.123 63.1256 362.09L61.7531 361.307C61.6447 361.235 61.6568 361.126 61.7531 361.054L63.0534 360.295C63.12 360.259 63.1945 360.24 63.2701 360.24C63.3458 360.24 63.4202 360.259 63.4868 360.295Z" fill="#3A2C6D"/>
<path id="Vector_45" d="M61.5484 359.175L62.9209 359.958C63.0293 360.03 63.0172 360.138 62.9209 360.211L61.6206 360.97C61.5531 361.003 61.479 361.02 61.4039 361.02C61.3288 361.02 61.2546 361.003 61.1872 360.97L59.7785 360.211C59.6701 360.138 59.6822 360.03 59.7785 359.958L61.0788 359.199C61.1476 359.153 61.2276 359.126 61.3102 359.122C61.3929 359.117 61.4752 359.136 61.5484 359.175Z" fill="#3A2C6D"/>
<path id="Vector_46" d="M59.6099 358.055L60.9825 358.838C61.0909 358.91 61.0788 359.019 60.9825 359.091L59.6822 359.85C59.6156 359.886 59.5411 359.905 59.4655 359.905C59.3898 359.905 59.3154 359.886 59.2487 359.85L57.7919 359.079C57.6835 359.007 57.6956 358.898 57.7919 358.826L59.0922 358.067C59.1672 358.013 59.2568 357.983 59.3492 357.981C59.4416 357.978 59.5325 358.004 59.6099 358.055Z" fill="#3A2C6D"/>
<path id="Vector_47" d="M57.6714 356.933L59.044 357.716C59.1523 357.788 59.1403 357.897 59.044 357.969L57.7437 358.728C57.677 358.764 57.6026 358.783 57.5269 358.783C57.4513 358.783 57.3768 358.764 57.3102 358.728L55.9377 357.945C55.8293 357.873 55.8413 357.764 55.9377 357.692L57.238 356.933C57.3055 356.9 57.3796 356.883 57.4547 356.883C57.5298 356.883 57.6039 356.9 57.6714 356.933Z" fill="#3A2C6D"/>
<path id="Vector_48" d="M80.9087 370.354L83.2084 371.679C83.3167 371.751 83.3047 371.86 83.2084 371.932L81.908 372.691C81.8406 372.724 81.7664 372.741 81.6913 372.741C81.6162 372.741 81.5421 372.724 81.4746 372.691L79.175 371.366C79.0666 371.366 79.0786 371.185 79.175 371.113L80.4753 370.366C80.5412 370.329 80.6151 370.309 80.6905 370.307C80.766 370.305 80.8408 370.321 80.9087 370.354Z" fill="#3A2C6D"/>
<path id="Vector_49" d="M53.9873 356.837L55.3478 357.632C55.4118 357.662 55.4817 357.678 55.5525 357.678C55.6232 357.678 55.6931 357.662 55.7572 357.632L57.1297 356.837C57.2501 356.765 57.2501 356.668 57.1297 356.596L57.0213 356.536C56.925 356.476 56.925 356.379 57.0213 356.319L58.4782 355.476C58.5023 355.468 58.5233 355.452 58.5381 355.432C58.553 355.411 58.561 355.387 58.561 355.361C58.561 355.336 58.553 355.311 58.5381 355.291C58.5233 355.27 58.5023 355.255 58.4782 355.247L57.5993 354.741C57.5373 354.711 57.4694 354.695 57.4006 354.695C57.3318 354.695 57.2639 354.711 57.2019 354.741L55.8414 355.524L55.5525 355.692L55.3478 355.813L55.1431 355.933L53.9391 356.608C53.8789 356.668 53.8669 356.777 53.9873 356.837Z" fill="#3A2C6D"/>
<path id="Vector_50" d="M87.4585 367.644L88.819 368.427C88.9394 368.499 88.9154 368.607 88.819 368.68L87.5067 369.439C87.4392 369.472 87.3651 369.489 87.29 369.489C87.2148 369.489 87.1407 369.472 87.0732 369.439L85.6886 368.644C85.5803 368.571 85.5923 368.463 85.6886 368.391L87.001 367.632C87.0716 367.593 87.1511 367.574 87.2314 367.576C87.3117 367.578 87.39 367.602 87.4585 367.644Z" fill="#3A2C6D"/>
<path id="Vector_51" d="M85.484 366.523L86.8446 367.319C86.9529 367.379 86.9409 367.487 86.8446 367.572L85.5322 368.318C85.4645 368.351 85.3905 368.367 85.3155 368.367C85.2405 368.367 85.1665 368.351 85.0988 368.318L83.7383 367.523C83.6179 367.523 83.6419 367.343 83.7383 367.27L85.0506 366.523C85.1183 366.491 85.1924 366.475 85.2673 366.475C85.3423 366.475 85.4163 366.491 85.484 366.523Z" fill="#3A2C6D"/>
<path id="Vector_52" d="M83.5937 365.415L84.9663 366.198C85.0746 366.27 85.0626 366.379 84.9663 366.451L83.6659 367.21C83.5985 367.243 83.5243 367.26 83.4492 367.26C83.3741 367.26 83.3 367.243 83.2325 367.21L81.872 366.439C81.7636 366.367 81.7757 366.258 81.872 366.186L83.1723 365.427C83.2364 365.391 83.3082 365.371 83.3815 365.369C83.4549 365.367 83.5276 365.383 83.5937 365.415Z" fill="#3A2C6D"/>
<path id="Vector_53" d="M67.1712 355.922L68.5437 356.717C68.6521 356.717 68.6401 356.886 68.5437 356.958L67.2434 357.717C67.1757 357.749 67.1017 357.766 67.0267 357.766C66.9517 357.766 66.8777 357.749 66.81 357.717L65.4374 356.922C65.3291 356.862 65.3411 356.741 65.4374 356.669L66.7377 355.922C66.8047 355.887 66.879 355.869 66.9545 355.869C67.0299 355.869 67.1042 355.887 67.1712 355.922Z" fill="#3A2C6D"/>
<path id="Vector_54" d="M65.2447 354.814L66.6172 355.597C66.7256 355.658 66.7135 355.778 66.6172 355.85L65.3169 356.609C65.2494 356.642 65.1753 356.66 65.1002 356.66C65.0251 356.66 64.951 356.642 64.8835 356.609L63.5109 355.826C63.4025 355.754 63.4146 355.646 63.5109 355.573L64.8112 354.814C64.8778 354.779 64.9523 354.76 65.0279 354.76C65.1036 354.76 65.178 354.779 65.2447 354.814Z" fill="#3A2C6D"/>
<path id="Vector_55" d="M63.3182 353.693L64.6787 354.488C64.7991 354.548 64.7871 354.657 64.6787 354.741L63.3784 355.488C63.3086 355.52 63.2326 355.537 63.1557 355.537C63.0788 355.537 63.0027 355.52 62.9329 355.488L61.5724 354.693C61.4641 354.633 61.4761 354.512 61.5724 354.44L62.8727 353.693C62.9412 353.656 63.0177 353.637 63.0955 353.637C63.1732 353.637 63.2498 353.656 63.3182 353.693Z" fill="#3A2C6D"/>
<path id="Vector_56" d="M61.4039 352.584L62.7644 353.367C62.8848 353.439 62.8608 353.548 62.7644 353.62L61.4521 354.379C61.3846 354.412 61.3105 354.429 61.2354 354.429C61.1602 354.429 61.0861 354.412 61.0186 354.379L59.6581 353.596C59.5498 353.524 59.5618 353.415 59.6581 353.343L60.9705 352.584C61.0371 352.548 61.1116 352.529 61.1872 352.529C61.2628 352.529 61.3373 352.548 61.4039 352.584Z" fill="#3A2C6D"/>
<path id="Vector_57" d="M81.1737 364.005L83.0399 365.089C83.1483 365.149 83.1362 365.258 83.0399 365.342L81.7396 366.089C81.6719 366.121 81.5978 366.138 81.5229 366.138C81.4479 366.138 81.3739 366.121 81.3061 366.089L79.464 365.029C79.3557 364.969 79.3677 364.86 79.464 364.776L80.7644 364.029C80.8271 363.997 80.896 363.978 80.9665 363.974C81.037 363.969 81.1076 363.98 81.1737 364.005Z" fill="#3A2C6D"/>
<path id="Vector_58" d="M69.1095 357.043L70.9636 358.115C71.084 358.176 71.06 358.296 70.9636 358.368L69.6513 359.115C69.5835 359.148 69.5095 359.164 69.4346 359.164C69.3596 359.164 69.2856 359.148 69.2178 359.115L67.3637 358.031C67.2433 358.031 67.2553 357.862 67.3637 357.79L68.664 357.031C68.7337 356.997 68.8106 356.981 68.8882 356.983C68.9658 356.985 69.0417 357.005 69.1095 357.043Z" fill="#3A2C6D"/>
<path id="Vector_59" d="M71.5295 358.44L80.6679 363.68C80.7883 363.752 80.7642 363.861 80.6679 363.933L79.3555 364.692C79.2889 364.728 79.2144 364.747 79.1388 364.747C79.0632 364.747 78.9887 364.728 78.9221 364.692L69.8439 359.452C69.7356 359.379 69.7476 359.271 69.8439 359.199L71.1442 358.44C71.2052 358.414 71.2707 358.4 71.3369 358.4C71.4031 358.4 71.4686 358.414 71.5295 358.44Z" fill="#3A2C6D"/>
<path id="Vector_60" d="M80.3186 367.848L81.6912 368.643C81.7996 368.703 81.7875 368.812 81.6912 368.884L80.3909 369.643C80.3243 369.679 80.2498 369.698 80.1742 369.698C80.0985 369.698 80.0241 369.679 79.9574 369.643L78.5849 368.86C78.4765 368.8 78.4886 368.679 78.5849 368.607L79.8852 367.86C79.9512 367.823 80.025 367.803 80.1004 367.801C80.1759 367.799 80.2507 367.815 80.3186 367.848Z" fill="#3A2C6D"/>
<path id="Vector_61" d="M78.3923 366.729L79.7528 367.524C79.8611 367.584 79.8491 367.704 79.7528 367.777L78.4404 368.524C78.3727 368.556 78.2987 368.572 78.2237 368.572C78.1487 368.572 78.0747 368.556 78.007 368.524L76.6465 367.728C76.5261 367.668 76.5501 367.56 76.6465 367.475L77.9588 366.729C78.0266 366.696 78.1006 366.68 78.1755 366.68C78.2505 366.68 78.3245 366.696 78.3923 366.729Z" fill="#3A2C6D"/>
<path id="Vector_62" d="M76.4539 365.619L77.8264 366.402C77.9348 366.475 77.9227 366.583 77.8264 366.655L76.5261 367.414C76.4586 367.447 76.3845 367.464 76.3094 367.464C76.2343 367.464 76.1602 367.447 76.0927 367.414L74.6479 366.643C74.5395 366.571 74.5515 366.463 74.6479 366.39L75.9482 365.631C76.022 365.58 76.1093 365.551 76.1992 365.549C76.2892 365.547 76.3777 365.571 76.4539 365.619Z" fill="#3A2C6D"/>
<path id="Vector_63" d="M74.5275 364.5L75.888 365.295C75.9964 365.295 75.9843 365.464 75.888 365.536L74.5757 366.295C74.5091 366.331 74.4346 366.35 74.359 366.35C74.2833 366.35 74.2089 366.331 74.1422 366.295L72.7817 365.512C72.6613 365.452 72.6854 365.331 72.7817 365.259L74.0941 364.512C74.1597 364.474 74.2336 364.453 74.3093 364.451C74.3849 364.449 74.4599 364.466 74.5275 364.5Z" fill="#3A2C6D"/>
<path id="Vector_64" d="M72.5891 363.379L73.9617 364.174C74.0701 364.174 74.058 364.355 73.9617 364.427L72.6614 365.174C72.5945 365.209 72.5201 365.227 72.4447 365.227C72.3692 365.227 72.2949 365.209 72.2279 365.174L70.8554 364.379C70.747 364.319 70.7591 364.21 70.8554 364.126L72.1557 363.379C72.2234 363.347 72.2975 363.33 72.3724 363.33C72.4474 363.33 72.5214 363.347 72.5891 363.379Z" fill="#3A2C6D"/>
<path id="Vector_65" d="M70.6627 362.271L72.0232 363.054C72.1436 363.127 72.1195 363.235 72.0232 363.307L70.7109 364.066C70.6442 364.102 70.5698 364.121 70.4941 364.121C70.4185 364.121 70.344 364.102 70.2774 364.066L68.9169 363.283C68.8085 363.211 68.8206 363.103 68.9169 363.03L70.2293 362.271C70.2959 362.236 70.3703 362.217 70.446 362.217C70.5216 362.217 70.5961 362.236 70.6627 362.271Z" fill="#3A2C6D"/>
<path id="Vector_66" d="M68.7242 361.151L70.0967 361.946C70.2051 362.006 70.193 362.114 70.0967 362.199L68.7964 362.946C68.7287 362.978 68.6546 362.995 68.5797 362.995C68.5047 362.995 68.4307 362.978 68.363 362.946L66.9904 362.151C66.882 362.09 66.8941 361.97 66.9904 361.898L68.2907 361.151C68.3576 361.116 68.432 361.098 68.5074 361.098C68.5829 361.098 68.6572 361.116 68.7242 361.151Z" fill="#3A2C6D"/>
<path id="Vector_67" d="M66.7979 360.041L68.1585 360.825C68.2789 360.885 68.2548 361.005 68.1585 361.078L66.8461 361.824C66.7795 361.86 66.705 361.879 66.6294 361.879C66.5537 361.879 66.4793 361.86 66.4127 361.824L65.016 361.053C64.9077 360.993 64.9197 360.885 65.016 360.812L66.3284 360.053C66.3983 360.009 66.4788 359.985 66.5615 359.983C66.6442 359.98 66.7259 360.001 66.7979 360.041Z" fill="#3A2C6D"/>
<path id="Vector_68" d="M64.8594 358.921L66.232 359.704C66.3403 359.777 66.3283 359.885 66.232 359.957L64.9316 360.716C64.865 360.752 64.7906 360.771 64.7149 360.771C64.6393 360.771 64.5648 360.752 64.4982 360.716L63.1256 359.933C63.0173 359.861 63.0293 359.753 63.1256 359.68L64.426 358.921C64.4935 358.888 64.5676 358.871 64.6427 358.871C64.7178 358.871 64.7919 358.888 64.8594 358.921Z" fill="#3A2C6D"/>
<path id="Vector_69" d="M62.933 357.802L64.2935 358.597C64.4139 358.597 64.4019 358.765 64.2935 358.85L62.9932 359.597C62.9234 359.629 62.8474 359.646 62.7704 359.646C62.6935 359.646 62.6175 359.629 62.5477 359.597L61.1872 358.802C61.0788 358.741 61.0909 358.621 61.1872 358.549L62.4875 357.802C62.5568 357.768 62.633 357.75 62.7102 357.75C62.7875 357.75 62.8636 357.768 62.933 357.802Z" fill="#3A2C6D"/>
<path id="Vector_70" d="M60.9947 356.694L62.3672 357.477C62.4756 357.477 62.4635 357.657 62.3672 357.73L61.0669 358.477C61 358.512 60.9256 358.53 60.8502 358.53C60.7747 358.53 60.7004 358.512 60.6335 358.477L59.2609 357.682C59.1525 357.621 59.1646 357.513 59.2609 357.441L60.5612 356.682C60.6288 356.648 60.7038 356.631 60.7795 356.633C60.8551 356.635 60.929 356.656 60.9947 356.694Z" fill="#3A2C6D"/>
<path id="Vector_71" d="M59.0681 355.573L60.4287 356.356C60.5491 356.428 60.537 356.537 60.4287 356.609L59.1283 357.368C59.0596 357.404 58.9832 357.423 58.9056 357.423C58.828 357.423 58.7516 357.404 58.6829 357.368L57.2983 356.597C57.1899 356.525 57.2019 356.416 57.2983 356.344L58.5986 355.585C58.6697 355.544 58.7499 355.522 58.8318 355.52C58.9138 355.518 58.995 355.536 59.0681 355.573Z" fill="#3A2C6D"/>
<path id="Vector_72" d="M82.2572 368.969L85.0745 370.595C85.1949 370.667 85.1709 370.776 85.0745 370.848L83.7622 371.607C83.6947 371.64 83.6206 371.657 83.5455 371.657C83.4703 371.657 83.3962 371.64 83.3287 371.607L80.5114 369.981C80.391 369.908 80.403 369.8 80.5114 369.728L81.8117 368.969C81.8805 368.933 81.9569 368.914 82.0344 368.914C82.112 368.914 82.1884 368.933 82.2572 368.969Z" fill="#3A2C6D"/>
<path id="Vector_73" d="M83.1482 367.319L84.5208 368.114C84.6291 368.174 84.6171 368.282 84.5208 368.355L83.2205 369.114C83.1527 369.146 83.0787 369.162 83.0037 369.162C82.9288 369.162 82.8548 369.146 82.787 369.114L81.4145 368.319C81.3061 368.258 81.3181 368.138 81.4145 368.066L82.7148 367.319C82.7817 367.284 82.8561 367.266 82.9315 367.266C83.007 367.266 83.0813 367.284 83.1482 367.319Z" fill="#3A2C6D"/>
<path id="Vector_74" d="M81.2219 366.234L82.5824 367.03C82.7028 367.09 82.6907 367.21 82.5824 367.282L81.2821 368.029C81.213 368.064 81.1367 368.083 81.0593 368.083C80.9819 368.083 80.9056 368.064 80.8366 368.029L79.464 367.222C79.3557 367.162 79.3677 367.054 79.464 366.981L80.7884 366.234C80.8562 366.202 80.9302 366.186 81.0051 366.186C81.0801 366.186 81.1541 366.202 81.2219 366.234Z" fill="#3A2C6D"/>
<path id="Vector_75" d="M79.2954 365.089L80.656 365.872C80.7643 365.945 80.7523 366.053 80.656 366.125L79.3556 366.884C79.289 366.92 79.2146 366.939 79.1389 366.939C79.0633 366.939 78.9888 366.92 78.9222 366.884L77.5617 366.101C77.4413 366.029 77.4533 365.921 77.5617 365.848L78.862 365.089C78.9302 365.059 79.004 365.043 79.0787 365.043C79.1534 365.043 79.2273 365.059 79.2954 365.089Z" fill="#3A2C6D"/>
<path id="Vector_76" d="M77.357 363.97L78.7295 364.765C78.8379 364.825 78.8258 364.934 78.7295 365.018L77.4292 365.765C77.3615 365.797 77.2874 365.814 77.2125 365.814C77.1375 365.814 77.0635 365.797 76.9958 365.765L75.5871 365.03C75.4787 364.97 75.4908 364.849 75.5871 364.777L76.8874 364.03C76.9548 363.982 77.0329 363.952 77.1147 363.942C77.1966 363.931 77.2797 363.941 77.357 363.97Z" fill="#3A2C6D"/>
<path id="Vector_77" d="M75.4305 362.86L76.791 363.643C76.8994 363.643 76.8873 363.824 76.791 363.896L75.4787 364.655C75.4112 364.688 75.3371 364.706 75.2619 364.706C75.1868 364.706 75.1127 364.688 75.0452 364.655L73.6606 363.824C73.5402 363.764 73.5643 363.655 73.6606 363.583L74.973 362.824C75.0457 362.789 75.1263 362.774 75.2066 362.781C75.2869 362.787 75.3642 362.815 75.4305 362.86Z" fill="#3A2C6D"/>
<path id="Vector_78" d="M73.4439 361.742L74.8164 362.525C74.9248 362.597 74.9128 362.705 74.8164 362.778L73.5161 363.537C73.4495 363.572 73.375 363.591 73.2994 363.591C73.2238 363.591 73.1493 363.572 73.0827 363.537L71.7101 362.754C71.6018 362.693 71.6138 362.573 71.7101 362.501L73.0104 361.742C73.0779 361.709 73.152 361.691 73.2272 361.691C73.3023 361.691 73.3764 361.709 73.4439 361.742Z" fill="#3A2C6D"/>
<path id="Vector_79" d="M71.5657 360.621L72.9262 361.416C73.0466 361.476 73.0225 361.597 72.9262 361.669L71.6139 362.416C71.5461 362.448 71.4721 362.465 71.3971 362.465C71.3222 362.465 71.2482 362.448 71.1804 362.416L69.8319 361.645C69.7236 361.585 69.7356 361.476 69.8319 361.392L71.1443 360.645C71.2087 360.611 71.2796 360.591 71.3524 360.587C71.4251 360.583 71.4979 360.594 71.5657 360.621Z" fill="#3A2C6D"/>
<path id="Vector_80" d="M69.6272 359.512L70.9998 360.295C71.1081 360.367 71.0961 360.475 70.9998 360.548L69.6995 361.307C69.632 361.34 69.5579 361.357 69.4827 361.357C69.4076 361.357 69.3335 361.34 69.266 361.307L67.8935 360.524C67.7851 360.451 67.7972 360.343 67.8935 360.271L69.1938 359.512C69.2604 359.476 69.3349 359.457 69.4105 359.457C69.4862 359.457 69.5606 359.476 69.6272 359.512Z" fill="#3A2C6D"/>
<path id="Vector_81" d="M67.7008 358.392L69.0613 359.187C69.1817 359.248 69.1697 359.356 69.0613 359.428L67.761 360.187C67.6922 360.223 67.6158 360.242 67.5383 360.242C67.4607 360.242 67.3843 360.223 67.3155 360.187L65.955 359.404C65.8466 359.404 65.8587 359.223 65.955 359.151L67.2553 358.404C67.3228 358.365 67.3988 358.344 67.4765 358.342C67.5543 358.34 67.6314 358.357 67.7008 358.392Z" fill="#3A2C6D"/>
<path id="Vector_82" d="M65.7744 357.271L67.135 358.066C67.2433 358.066 67.2313 358.247 67.135 358.319L65.8346 359.066C65.7677 359.101 65.6934 359.119 65.6179 359.119C65.5425 359.119 65.4681 359.101 65.4012 359.066L64.0407 358.271C63.9203 358.211 63.9323 358.102 64.0407 358.018L65.341 357.271C65.4092 357.24 65.483 357.225 65.5577 357.225C65.6324 357.225 65.7063 357.24 65.7744 357.271Z" fill="#3A2C6D"/>
<path id="Vector_83" d="M63.8118 356.162L65.1844 356.945C65.2927 357.017 65.2807 357.126 65.1844 357.198L63.884 357.957C63.8174 357.993 63.743 358.012 63.6673 358.012C63.5917 358.012 63.5172 357.993 63.4506 357.957L62.078 357.174C61.9697 357.102 61.9817 356.993 62.078 356.921L63.3784 356.162C63.445 356.126 63.5194 356.107 63.5951 356.107C63.6707 356.107 63.7452 356.126 63.8118 356.162Z" fill="#3A2C6D"/>
<path id="Vector_84" d="M59.5136 353.669L63.2701 355.837C63.3785 355.897 63.3664 356.006 63.2701 356.09L61.9577 356.837C61.89 356.869 61.816 356.886 61.741 356.886C61.6661 356.886 61.592 356.869 61.5243 356.837L57.7919 354.681C57.6835 354.62 57.6956 354.512 57.7919 354.44L59.0922 353.681C59.1564 353.645 59.2281 353.625 59.3015 353.623C59.3748 353.621 59.4476 353.637 59.5136 353.669Z" fill="#3A2C6D"/>
<path id="Vector_85" d="M85.0867 368.439L86.9529 369.511C87.0613 369.511 87.0492 369.691 86.9529 369.764L85.6526 370.511C85.5857 370.545 85.5113 370.564 85.4359 370.564C85.3604 370.564 85.2861 370.545 85.2191 370.511L83.3529 369.438C83.2446 369.366 83.2566 369.258 83.3529 369.185L84.6653 368.426C84.7314 368.395 84.8041 368.379 84.8775 368.381C84.9508 368.383 85.0226 368.403 85.0867 368.439Z" fill="#3A2C6D"/>
<path id="Vector_86" d="M51.9526 358.029L79.3798 373.883C79.5002 373.883 79.4761 374.064 79.3798 374.136L78.7296 374.509C78.6608 374.545 78.5844 374.564 78.5069 374.564C78.4293 374.564 78.3529 374.545 78.2841 374.509L50.8329 358.68C50.7246 358.619 50.7366 358.499 50.8329 358.427L51.4831 358.053C51.5535 358.011 51.6331 357.987 51.7149 357.983C51.7967 357.979 51.8783 357.995 51.9526 358.029Z" fill="#3A2C6D"/>
<path id="&#60;&#208;&#154;&#208;&#190;&#208;&#189;&#209;&#130;&#209;&#131;&#209;&#128;&#62;_9" d="M84.4003 359.078L84.2197 359.175L79.5 361.897L71.1081 357.054L70.9275 356.958L75.8278 354.127L84.4003 359.078Z" fill="#BFBFBF"/>
<path id="&#60;&#208;&#154;&#208;&#190;&#208;&#189;&#209;&#130;&#209;&#131;&#209;&#128;&#62;_10" d="M84.2197 359.175L79.5 361.898L71.1082 357.055L75.8278 354.332L84.2197 359.175Z" fill="#E5E5E5"/>
<path id="&#60;&#208;&#154;&#208;&#190;&#208;&#189;&#209;&#130;&#209;&#131;&#209;&#128;&#62;_11" d="M97.8731 365.438V365.86C97.8741 366.162 97.7956 366.459 97.6456 366.721C97.4955 366.984 97.2792 367.202 97.0183 367.354L80.367 376.992C80.1049 377.142 79.8081 377.221 79.5061 377.221C79.2041 377.221 78.9074 377.142 78.6453 376.992L48.5453 359.583C48.2852 359.43 48.0695 359.212 47.9196 358.95C47.7697 358.688 47.6907 358.391 47.6904 358.09V357.668L79.464 376.052L97.8731 365.438Z" fill="#E5E5E5"/>
<path id="&#60;&#208;&#154;&#208;&#190;&#208;&#189;&#209;&#130;&#209;&#131;&#209;&#128;&#62;_12" d="M79.464 376.053V377.258C79.1645 377.253 78.8709 377.174 78.6091 377.029L48.5091 359.621C48.2491 359.468 48.0334 359.249 47.8835 358.987C47.7336 358.725 47.6546 358.429 47.6543 358.127V357.705L79.464 376.053Z" fill="#E5E5E5"/>
<path id="&#60;&#208;&#154;&#208;&#190;&#208;&#189;&#209;&#130;&#209;&#131;&#209;&#128;&#62;_13" d="M79.0185 376.317C78.7331 376.424 78.4273 376.467 78.1233 376.442C77.8193 376.417 77.5246 376.325 77.2606 376.172L47.2569 358.848C46.9988 358.695 46.7769 358.487 46.6065 358.24C46.4361 357.992 46.3212 357.711 46.2697 357.415L42.9827 337.826C42.9768 337.714 42.9768 337.601 42.9827 337.489C42.9821 337.22 43.035 336.953 43.1383 336.705C43.2417 336.457 43.3935 336.232 43.5847 336.043L74.7563 354.053C74.9487 354.163 75.1144 354.314 75.2414 354.495C75.3684 354.676 75.4536 354.883 75.4907 355.102L79.0185 376.317Z" fill="#F4F4F4"/>
<path id="&#60;&#208;&#154;&#208;&#190;&#208;&#189;&#209;&#130;&#209;&#131;&#209;&#128;&#62;_14" d="M79.4641 376.065L79.2594 376.173C79.171 376.228 79.0784 376.277 78.9825 376.318L75.4307 355.103C75.3935 354.884 75.3084 354.677 75.1813 354.496C75.0543 354.315 74.8886 354.164 74.6962 354.055L43.5608 336.044C43.6882 335.92 43.8296 335.81 43.9822 335.719L75.214 353.79C75.4061 353.902 75.5714 354.055 75.6983 354.238C75.8252 354.421 75.9105 354.63 75.9484 354.85L79.4641 376.065Z" fill="#E5E5E5"/>
</g>
</g>
</g>
<g id="Men 11">
<path id="&#60;&#208;&#154;&#208;&#190;&#208;&#189;&#209;&#130;&#209;&#131;&#209;&#128;&#62;_15" d="M535.997 248.245C538.189 252.167 540.85 255.808 543.919 259.088C544.786 260.075 551.372 257.558 549.939 256.847C548.507 256.136 544.244 250.112 542.089 246.101C540.268 241.302 538.724 236.403 537.466 231.427C536.105 226.512 534.949 219.308 533.95 215.899C533.694 214.646 533.081 213.494 532.186 212.582C531.291 211.669 530.152 211.035 528.905 210.754C526.497 210.212 524.992 210.863 525.426 213.73C526.232 218.742 530.17 238.342 535.997 248.245Z" fill="#FFCEA9"/>
<path id="Vector_87" d="M532.168 325.01C534.203 326.673 537.225 325.143 537.381 325.299C539.777 327.531 542.294 329.631 544.919 331.588C546.195 332.588 548.181 333.937 547.82 335.865C547.182 339.31 541.668 338.274 539.585 337.19C537.502 336.106 535.804 334.395 533.83 333.166C532.433 332.299 531.048 331.841 530.832 330.07C530.747 328.998 531.843 324.962 532.168 325.01Z" fill="#38226D"/>
<path id="Vector_88" d="M530.964 329.348C531.229 331.058 532.602 331.516 533.987 332.384C535.997 333.588 537.755 335.431 539.838 336.48C541.921 337.528 546.556 338.419 547.905 335.962C547.17 339.287 541.752 338.238 539.693 337.166C537.635 336.094 535.913 334.371 533.938 333.143C532.542 332.275 531.157 331.817 530.94 330.046C530.922 329.813 530.93 329.579 530.964 329.348Z" fill="#9C73FF"/>
<path id="Vector_89" d="M552.949 313.047C554.996 314.722 558.572 312.903 558.729 313.047C560.854 315.211 563.105 317.246 565.471 319.143C566.747 320.143 568.734 321.492 568.373 323.42C567.722 326.865 562.208 325.829 560.125 324.745C558.042 323.661 556.345 321.95 554.382 320.721C552.973 319.854 551.589 319.396 551.372 317.625C551.24 316.553 552.636 313.011 552.949 313.047Z" fill="#38226D"/>
<path id="Vector_90" d="M551.432 317.143C551.709 318.853 553.07 319.311 554.466 320.178C556.465 321.383 558.223 323.226 560.306 324.275C562.389 325.323 567.024 326.214 568.372 323.756C567.65 327.081 562.22 326.033 560.161 324.961C558.102 323.889 556.381 322.166 554.418 320.937C553.009 320.07 551.625 319.612 551.408 317.841C551.39 317.608 551.398 317.374 551.432 317.143Z" fill="#9C73FF"/>
<path id="&#60;&#208;&#154;&#208;&#190;&#208;&#189;&#209;&#130;&#209;&#131;&#209;&#128;&#62;_16" d="M504.862 259.425C502.598 273.581 508.895 278.87 517.07 281.893C522.934 284.05 531.35 287.387 531.35 287.387C531.35 287.387 531.229 290.495 531.169 297.47C531.109 303.614 531.916 326.046 531.916 326.046C531.916 326.046 535.311 327.805 538.176 325.974C538.176 325.974 541.475 308.795 542.174 301.048C543.125 290.531 544.738 283.652 544.196 281.387C543.727 279.4 532.241 273.75 528.605 270.726L552.685 278.785C552.207 281.396 551.974 284.046 551.986 286.7C552.203 295.049 552.66 313.096 552.66 313.096C552.66 313.096 555.959 315.505 558.777 313.096C558.777 313.096 564.797 277.352 564.098 272.617C563.4 268.136 542.198 258.956 538.465 255.751C537.813 255.221 537.057 254.834 536.247 254.614C535.436 254.394 534.588 254.347 533.758 254.474L504.862 259.425Z" fill="#8C50FF"/>
<g id="&#60;&#208;&#147;&#209;&#128;&#209;&#131;&#208;&#191;&#208;&#191;&#208;&#176;&#62;_3">
<g id="&#60;&#208;&#147;&#209;&#128;&#209;&#131;&#208;&#191;&#208;&#191;&#208;&#176;&#62;_4">
<path id="&#60;&#208;&#154;&#208;&#190;&#208;&#189;&#209;&#130;&#209;&#131;&#209;&#128;&#62;_17" d="M562.557 265.315L546.388 255.979C546.245 255.902 546.086 255.861 545.924 255.861C545.762 255.861 545.603 255.902 545.461 255.979L517.106 272.363L533.734 282.001L562.557 265.315Z" fill="#F4F4F4"/>
<path id="Vector_91" d="M532.975 278.532L531.771 279.243C531.675 279.303 531.687 279.412 531.771 279.472L532.975 280.159C533.037 280.189 533.105 280.204 533.174 280.204C533.242 280.204 533.31 280.189 533.372 280.159L534.576 279.448C534.673 279.388 534.661 279.291 534.576 279.219L533.372 278.545C533.311 278.514 533.244 278.496 533.175 278.494C533.106 278.492 533.038 278.505 532.975 278.532Z" fill="#3A2C6D"/>
<path id="Vector_92" d="M534.721 277.531L533.517 278.242C533.421 278.242 533.433 278.398 533.517 278.471L534.721 279.145C534.78 279.178 534.846 279.195 534.914 279.195C534.981 279.195 535.047 279.178 535.106 279.145L536.31 278.434C536.407 278.434 536.395 278.278 536.31 278.205L535.106 277.531C535.046 277.503 534.98 277.488 534.914 277.488C534.847 277.488 534.781 277.503 534.721 277.531Z" fill="#3A2C6D"/>
<path id="Vector_93" d="M536.491 276.508L535.287 277.219C535.191 277.219 535.203 277.376 535.287 277.448L536.491 278.123C536.552 278.155 536.62 278.172 536.69 278.172C536.759 278.172 536.827 278.155 536.888 278.123L538.092 277.412C538.201 277.412 538.189 277.243 538.092 277.183L536.888 276.508C536.828 276.473 536.759 276.455 536.69 276.455C536.62 276.455 536.551 276.473 536.491 276.508Z" fill="#3A2C6D"/>
<path id="Vector_94" d="M538.189 275.508L536.985 276.231C536.876 276.231 536.888 276.388 536.985 276.448L538.189 277.135C538.248 277.164 538.314 277.18 538.381 277.18C538.448 277.18 538.514 277.164 538.574 277.135L539.778 276.424C539.874 276.364 539.862 276.267 539.778 276.195L538.574 275.52C538.514 275.491 538.449 275.475 538.382 275.473C538.316 275.471 538.25 275.483 538.189 275.508Z" fill="#3A2C6D"/>
<path id="Vector_95" d="M539.959 274.508L538.755 275.219C538.646 275.279 538.658 275.375 538.755 275.448L539.959 276.122C540.018 276.155 540.084 276.172 540.151 276.172C540.219 276.172 540.285 276.155 540.344 276.122L541.548 275.412C541.656 275.412 541.644 275.255 541.548 275.195L540.344 274.508C540.284 274.478 540.218 274.463 540.151 274.463C540.084 274.463 540.018 274.478 539.959 274.508Z" fill="#3A2C6D"/>
<path id="Vector_96" d="M541.704 273.471L540.5 274.182C540.404 274.182 540.416 274.351 540.5 274.411L541.704 275.086C541.766 275.118 541.834 275.135 541.903 275.135C541.972 275.135 542.041 275.118 542.102 275.086L543.306 274.375C543.414 274.375 543.402 274.206 543.306 274.146L542.102 273.471C542.041 273.436 541.973 273.418 541.903 273.418C541.833 273.418 541.765 273.436 541.704 273.471Z" fill="#3A2C6D"/>
<path id="Vector_97" d="M543.45 272.497L542.246 273.207C542.15 273.207 542.162 273.364 542.246 273.424L543.45 274.111C543.512 274.141 543.58 274.156 543.649 274.156C543.718 274.156 543.785 274.141 543.847 274.111L545.051 273.4C545.148 273.4 545.136 273.244 545.051 273.171L543.847 272.497C543.787 272.462 543.718 272.443 543.649 272.443C543.579 272.443 543.51 272.462 543.45 272.497Z" fill="#3A2C6D"/>
<path id="Vector_98" d="M545.184 271.483L543.98 272.194C543.884 272.254 543.896 272.351 543.98 272.423L545.184 273.098C545.246 273.127 545.314 273.142 545.383 273.142C545.451 273.142 545.519 273.127 545.581 273.098L546.785 272.375C546.882 272.375 546.87 272.218 546.785 272.158L545.581 271.471C545.518 271.443 545.45 271.43 545.381 271.432C545.312 271.434 545.245 271.452 545.184 271.483Z" fill="#3A2C6D"/>
<path id="Vector_99" d="M546.93 270.472L545.726 271.182C545.629 271.243 545.641 271.351 545.726 271.411L546.93 272.098C546.991 272.128 547.059 272.143 547.128 272.143C547.197 272.143 547.265 272.128 547.327 272.098L548.531 271.387C548.627 271.327 548.615 271.231 548.531 271.158L547.327 270.484C547.267 270.449 547.199 270.43 547.13 270.428C547.06 270.426 546.992 270.441 546.93 270.472Z" fill="#3A2C6D"/>
<path id="Vector_100" d="M548.675 269.472L547.471 270.183C547.375 270.183 547.387 270.34 547.471 270.412L548.675 271.087C548.735 271.116 548.801 271.132 548.868 271.132C548.935 271.132 549.001 271.116 549.06 271.087L550.264 270.376C550.361 270.316 550.349 270.219 550.264 270.147L549.06 269.472C549.001 269.442 548.935 269.426 548.868 269.426C548.801 269.426 548.735 269.442 548.675 269.472Z" fill="#3A2C6D"/>
<path id="Vector_101" d="M550.421 268.461L549.217 269.172C549.109 269.172 549.121 269.328 549.217 269.401L550.421 270.075C550.481 270.105 550.547 270.12 550.614 270.12C550.68 270.12 550.746 270.105 550.806 270.075L552.01 269.364C552.107 269.304 552.095 269.196 552.01 269.136L550.806 268.449C550.745 268.423 550.679 268.41 550.612 268.412C550.546 268.414 550.48 268.431 550.421 268.461Z" fill="#3A2C6D"/>
<path id="Vector_102" d="M552.167 267.448L550.963 268.158C550.855 268.158 550.867 268.327 550.963 268.387L552.167 269.074C552.227 269.104 552.293 269.119 552.36 269.119C552.427 269.119 552.492 269.104 552.552 269.074L553.756 268.363C553.865 268.303 553.853 268.207 553.756 268.134L552.552 267.46C552.493 267.431 552.427 267.414 552.361 267.412C552.295 267.41 552.228 267.422 552.167 267.448Z" fill="#3A2C6D"/>
<path id="Vector_103" d="M553.912 266.449L552.708 267.159C552.612 267.22 552.624 267.316 552.708 267.388L553.912 268.063C553.974 268.096 554.042 268.113 554.111 268.113C554.18 268.113 554.249 268.096 554.31 268.063L555.514 267.352C555.622 267.292 555.61 267.196 555.514 267.123L554.31 266.449C554.248 266.417 554.18 266.4 554.111 266.4C554.042 266.4 553.974 266.417 553.912 266.449Z" fill="#3A2C6D"/>
<path id="Vector_104" d="M556.489 264.956L554.418 266.16C554.322 266.221 554.334 266.317 554.418 266.389L555.622 267.064C555.684 267.097 555.752 267.114 555.821 267.114C555.89 267.114 555.959 267.097 556.02 267.064L558.091 265.859C558.187 265.859 558.175 265.702 558.091 265.642L556.887 264.956C556.825 264.926 556.757 264.91 556.688 264.91C556.619 264.91 556.551 264.926 556.489 264.956Z" fill="#3A2C6D"/>
<path id="Vector_105" d="M533.878 276.062L532.674 276.772C532.566 276.772 532.578 276.941 532.674 277.001L533.878 277.688C533.938 277.718 534.004 277.733 534.071 277.733C534.137 277.733 534.203 277.718 534.263 277.688L535.467 276.977C535.576 276.977 535.564 276.821 535.467 276.748L534.263 276.074C534.205 276.039 534.14 276.02 534.072 276.018C534.005 276.016 533.938 276.031 533.878 276.062Z" fill="#3A2C6D"/>
<path id="Vector_106" d="M535.624 275.049L534.42 275.772C534.312 275.772 534.324 275.929 534.42 275.989L535.624 276.676C535.684 276.705 535.75 276.721 535.817 276.721C535.884 276.721 535.95 276.705 536.009 276.676L537.213 275.965C537.31 275.905 537.298 275.808 537.213 275.736L536.009 275.061C535.95 275.032 535.884 275.016 535.818 275.014C535.752 275.012 535.686 275.024 535.624 275.049Z" fill="#3A2C6D"/>
<path id="Vector_107" d="M537.37 274.051L536.166 274.761C536.057 274.822 536.069 274.918 536.166 274.99L537.37 275.665C537.429 275.698 537.495 275.715 537.562 275.715C537.63 275.715 537.696 275.698 537.755 275.665L538.959 274.954C539.055 274.894 539.043 274.797 538.959 274.725L537.755 274.051C537.695 274.02 537.629 274.004 537.562 274.004C537.495 274.004 537.429 274.02 537.37 274.051Z" fill="#3A2C6D"/>
<path id="Vector_108" d="M539.116 273.039L537.912 273.75C537.815 273.81 537.827 273.906 537.912 273.979L539.116 274.653C539.175 274.683 539.241 274.699 539.308 274.699C539.375 274.699 539.441 274.683 539.501 274.653L540.705 273.931C540.801 273.931 540.789 273.774 540.705 273.714L539.501 273.027C539.44 273.001 539.373 272.988 539.307 272.99C539.24 272.993 539.175 273.009 539.116 273.039Z" fill="#3A2C6D"/>
<path id="Vector_109" d="M540.849 272.039L539.645 272.749C539.537 272.749 539.561 272.906 539.645 272.978L540.849 273.653C540.908 273.686 540.975 273.703 541.042 273.703C541.109 273.703 541.176 273.686 541.235 273.653L542.439 272.942C542.535 272.942 542.523 272.786 542.439 272.725L541.235 272.039C541.174 272.011 541.108 271.996 541.042 271.996C540.975 271.996 540.91 272.011 540.849 272.039Z" fill="#3A2C6D"/>
<path id="Vector_110" d="M542.595 271.063L541.391 271.774C541.295 271.834 541.307 271.931 541.391 272.003L542.595 272.678C542.657 272.707 542.725 272.722 542.794 272.722C542.862 272.722 542.93 272.707 542.992 272.678L544.196 271.967C544.293 271.907 544.281 271.798 544.196 271.738L542.992 271.051C542.929 271.023 542.861 271.01 542.792 271.012C542.724 271.014 542.656 271.032 542.595 271.063Z" fill="#3A2C6D"/>
<path id="Vector_111" d="M544.341 270.015L543.137 270.725C543.04 270.786 543.052 270.894 543.137 270.954L544.341 271.641C544.403 271.671 544.471 271.686 544.539 271.686C544.608 271.686 544.676 271.671 544.738 271.641L545.942 270.93C546.038 270.87 546.026 270.774 545.942 270.701L544.738 270.027C544.678 269.992 544.61 269.973 544.541 269.971C544.472 269.969 544.403 269.984 544.341 270.015Z" fill="#3A2C6D"/>
<path id="Vector_112" d="M546.099 269.001L544.895 269.724C544.799 269.724 544.811 269.881 544.895 269.941L546.099 270.628C546.161 270.658 546.229 270.673 546.298 270.673C546.366 270.673 546.434 270.658 546.496 270.628L547.7 269.917C547.797 269.857 547.785 269.76 547.7 269.688L546.496 269.013C546.436 268.98 546.368 268.961 546.299 268.959C546.23 268.957 546.161 268.972 546.099 269.001Z" fill="#3A2C6D"/>
<path id="Vector_113" d="M547.821 268.002L546.617 268.713C546.52 268.713 546.532 268.87 546.617 268.942L547.821 269.617C547.882 269.649 547.95 269.667 548.019 269.667C548.089 269.667 548.157 269.649 548.218 269.617L549.422 268.906C549.53 268.846 549.518 268.749 549.422 268.677L548.218 268.002C548.158 267.968 548.089 267.949 548.019 267.949C547.95 267.949 547.881 267.968 547.821 268.002Z" fill="#3A2C6D"/>
<path id="Vector_114" d="M549.59 266.99L548.386 267.701C548.29 267.701 548.302 267.857 548.386 267.93L549.59 268.604C549.652 268.633 549.72 268.648 549.789 268.648C549.857 268.648 549.925 268.633 549.987 268.604L551.191 267.882C551.3 267.882 551.288 267.725 551.191 267.665L549.987 266.978C549.925 266.948 549.856 266.934 549.787 266.936C549.718 266.938 549.651 266.956 549.59 266.99Z" fill="#3A2C6D"/>
<path id="Vector_115" d="M551.336 265.979L550.132 266.69C550.024 266.69 550.036 266.847 550.132 266.919L551.336 267.593C551.395 267.626 551.461 267.643 551.529 267.643C551.596 267.643 551.662 267.626 551.721 267.593L552.925 266.883C553.034 266.822 553.022 266.714 552.925 266.654L551.721 265.967C551.66 265.939 551.594 265.926 551.527 265.928C551.46 265.93 551.395 265.948 551.336 265.979Z" fill="#3A2C6D"/>
<path id="Vector_116" d="M553.082 264.967L551.878 265.677C551.77 265.738 551.782 265.846 551.878 265.906L553.082 266.593C553.142 266.623 553.208 266.638 553.275 266.638C553.342 266.638 553.408 266.623 553.467 266.593L554.671 265.882C554.768 265.822 554.756 265.726 554.671 265.653L553.467 264.979C553.409 264.946 553.343 264.928 553.276 264.926C553.209 264.924 553.143 264.938 553.082 264.967Z" fill="#3A2C6D"/>
<path id="Vector_117" d="M532.169 277.086L530.098 278.291C529.989 278.351 530.001 278.46 530.098 278.52L531.302 279.206C531.362 279.236 531.428 279.252 531.494 279.252C531.561 279.252 531.627 279.236 531.687 279.206L533.758 278.002C533.866 278.002 533.854 277.833 533.758 277.773L532.554 277.086C532.494 277.056 532.428 277.041 532.361 277.041C532.294 277.041 532.229 277.056 532.169 277.086Z" fill="#3A2C6D"/>
<path id="Vector_118" d="M556.405 264.882L555.201 265.605C555.144 265.632 555.083 265.646 555.02 265.646C554.958 265.646 554.896 265.632 554.84 265.605L553.636 264.895C553.527 264.834 553.527 264.738 553.636 264.678H553.744C553.828 264.617 553.828 264.533 553.744 264.473L552.432 263.714C552.335 263.714 552.335 263.569 552.432 263.509L553.214 263.051C553.334 263.004 553.468 263.004 553.587 263.051L554.792 263.762L555.044 263.919L555.225 264.015L555.406 264.124L556.465 264.738C556.513 264.738 556.513 264.834 556.405 264.882Z" fill="#3A2C6D"/>
<path id="Vector_119" d="M526.221 274.676L525.017 275.387C524.92 275.387 524.932 275.544 525.017 275.616L526.221 276.291C526.282 276.323 526.35 276.34 526.419 276.34C526.489 276.34 526.557 276.323 526.618 276.291L527.822 275.58C527.918 275.58 527.906 275.423 527.822 275.363L526.618 274.676C526.556 274.646 526.488 274.631 526.419 274.631C526.35 274.631 526.283 274.646 526.221 274.676Z" fill="#3A2C6D"/>
<path id="Vector_120" d="M527.967 273.617L526.763 274.327C526.666 274.327 526.678 274.496 526.763 274.556L527.967 275.243C528.029 275.273 528.096 275.288 528.165 275.288C528.234 275.288 528.302 275.273 528.364 275.243L529.568 274.532C529.676 274.532 529.664 274.376 529.568 274.303L528.364 273.629C528.303 273.595 528.236 273.577 528.167 273.574C528.098 273.572 528.029 273.587 527.967 273.617Z" fill="#3A2C6D"/>
<path id="Vector_121" d="M529.761 272.617L528.557 273.328C528.46 273.388 528.472 273.485 528.557 273.557L529.761 274.232C529.82 274.261 529.886 274.277 529.953 274.277C530.02 274.277 530.086 274.261 530.146 274.232L531.35 273.521C531.446 273.46 531.434 273.352 531.35 273.292L530.146 272.605C530.085 272.579 530.018 272.567 529.952 272.569C529.885 272.571 529.82 272.587 529.761 272.617Z" fill="#3A2C6D"/>
<path id="Vector_122" d="M544.51 264.063L543.306 264.774C543.209 264.834 543.221 264.93 543.306 265.003L544.51 265.677C544.571 265.71 544.639 265.727 544.708 265.727C544.778 265.727 544.846 265.71 544.907 265.677L546.111 264.967C546.207 264.967 546.195 264.81 546.111 264.738L544.907 264.063C544.845 264.033 544.777 264.018 544.708 264.018C544.639 264.018 544.572 264.033 544.51 264.063Z" fill="#3A2C6D"/>
<path id="Vector_123" d="M546.255 263.051L545.051 263.762C544.943 263.822 544.955 263.931 545.051 263.991L546.255 264.678C546.315 264.707 546.381 264.723 546.448 264.723C546.515 264.723 546.581 264.707 546.641 264.678L547.845 263.967C547.953 263.906 547.941 263.81 547.845 263.738L546.641 263.063C546.582 263.032 546.516 263.014 546.449 263.012C546.383 263.01 546.316 263.023 546.255 263.051Z" fill="#3A2C6D"/>
<path id="Vector_124" d="M547.989 262.052L546.785 262.762C546.689 262.762 546.701 262.919 546.785 262.991L547.989 263.666C548.051 263.695 548.119 263.71 548.188 263.71C548.256 263.71 548.324 263.695 548.386 263.666L549.59 262.943C549.687 262.943 549.675 262.787 549.59 262.726L548.386 262.04C548.324 262.012 548.255 261.998 548.186 262C548.118 262.002 548.05 262.02 547.989 262.052Z" fill="#3A2C6D"/>
<path id="Vector_125" d="M549.735 261.051L548.531 261.762C548.434 261.762 548.446 261.919 548.531 261.979L549.735 262.666C549.797 262.696 549.865 262.711 549.933 262.711C550.002 262.711 550.07 262.696 550.132 262.666L551.336 261.955C551.444 261.955 551.432 261.798 551.336 261.726L550.132 261.051C550.072 261.016 550.003 260.998 549.933 260.998C549.864 260.998 549.795 261.016 549.735 261.051Z" fill="#3A2C6D"/>
<path id="Vector_126" d="M531.892 271.352L530.206 272.328C530.11 272.328 530.122 272.484 530.206 272.545L531.41 273.231C531.472 273.261 531.54 273.277 531.609 273.277C531.677 273.277 531.745 273.261 531.807 273.231L533.481 272.267C533.589 272.267 533.577 272.099 533.481 272.039L532.277 271.352C532.217 271.322 532.151 271.307 532.084 271.307C532.017 271.307 531.951 271.322 531.892 271.352Z" fill="#3A2C6D"/>
<path id="Vector_127" d="M542.776 265.04L541.09 266.015C540.994 266.015 541.006 266.172 541.09 266.244L542.294 266.919C542.356 266.949 542.424 266.964 542.493 266.964C542.562 266.964 542.63 266.949 542.692 266.919L544.377 265.955C544.474 265.955 544.461 265.786 544.377 265.726L543.173 265.04C543.111 265.01 543.043 264.994 542.975 264.994C542.906 264.994 542.838 265.01 542.776 265.04Z" fill="#3A2C6D"/>
<path id="Vector_128" d="M540.596 266.329L532.409 271.063C532.313 271.123 532.325 271.22 532.409 271.292L533.613 271.967C533.674 271.999 533.742 272.016 533.812 272.016C533.881 272.016 533.949 271.999 534.01 271.967L542.198 267.244C542.294 267.184 542.282 267.076 542.198 267.015L540.994 266.329C540.932 266.299 540.864 266.283 540.795 266.283C540.726 266.283 540.658 266.299 540.596 266.329Z" fill="#3A2C6D"/>
<path id="Vector_129" d="M532.662 274.809L531.458 275.532C531.35 275.532 531.362 275.688 531.458 275.749L532.662 276.435C532.722 276.465 532.788 276.48 532.855 276.48C532.922 276.48 532.988 276.465 533.047 276.435L534.251 275.724C534.36 275.724 534.348 275.568 534.251 275.496L533.047 274.821C532.989 274.789 532.923 274.772 532.856 274.77C532.789 274.768 532.723 274.781 532.662 274.809Z" fill="#3A2C6D"/>
<path id="Vector_130" d="M534.408 273.808L533.204 274.519C533.108 274.519 533.12 274.676 533.204 274.748L534.408 275.423C534.47 275.452 534.538 275.467 534.607 275.467C534.675 275.467 534.743 275.452 534.805 275.423L536.009 274.7C536.106 274.7 536.094 274.543 536.009 274.483L534.805 273.796C534.743 273.766 534.674 273.752 534.605 273.754C534.536 273.756 534.469 273.775 534.408 273.808Z" fill="#3A2C6D"/>
<path id="Vector_131" d="M536.142 272.797L534.938 273.508C534.842 273.568 534.854 273.677 534.938 273.737L536.142 274.424C536.202 274.453 536.268 274.469 536.335 274.469C536.401 274.469 536.467 274.453 536.527 274.424L537.731 273.713C537.828 273.653 537.816 273.556 537.731 273.484L536.527 272.809C536.468 272.78 536.402 272.764 536.336 272.762C536.269 272.76 536.203 272.772 536.142 272.797Z" fill="#3A2C6D"/>
<path id="Vector_132" d="M537.887 271.796L536.683 272.507C536.575 272.567 536.587 272.664 536.683 272.736L537.887 273.411C537.946 273.443 538.013 273.461 538.08 273.461C538.147 273.461 538.214 273.443 538.273 273.411L539.477 272.7C539.573 272.7 539.561 272.543 539.477 272.483L538.273 271.796C538.212 271.768 538.146 271.754 538.08 271.754C538.013 271.754 537.948 271.768 537.887 271.796Z" fill="#3A2C6D"/>
<path id="Vector_133" d="M539.633 270.786L538.429 271.497C538.333 271.497 538.345 271.665 538.429 271.725L539.633 272.412C539.695 272.442 539.763 272.457 539.832 272.457C539.901 272.457 539.968 272.442 540.03 272.412L541.234 271.701C541.343 271.701 541.331 271.545 541.234 271.472L540.03 270.798C539.971 270.761 539.903 270.741 539.833 270.738C539.764 270.736 539.695 270.753 539.633 270.786Z" fill="#3A2C6D"/>
<path id="Vector_134" d="M541.367 269.786L540.163 270.497C540.067 270.557 540.079 270.654 540.163 270.726L541.367 271.4C541.428 271.433 541.496 271.45 541.566 271.45C541.635 271.45 541.703 271.433 541.764 271.4L542.968 270.69C543.065 270.69 543.053 270.533 542.968 270.461L541.764 269.786C541.703 269.753 541.635 269.736 541.566 269.736C541.496 269.736 541.428 269.753 541.367 269.786Z" fill="#3A2C6D"/>
<path id="Vector_135" d="M543.113 268.773L541.909 269.484C541.8 269.544 541.813 269.641 541.909 269.713L543.113 270.387C543.172 270.42 543.238 270.437 543.306 270.437C543.373 270.437 543.439 270.42 543.498 270.387L544.702 269.677C544.798 269.616 544.786 269.508 544.702 269.448L543.498 268.773C543.439 268.743 543.373 268.727 543.306 268.727C543.238 268.727 543.172 268.743 543.113 268.773Z" fill="#3A2C6D"/>
<path id="Vector_136" d="M544.859 267.774L543.655 268.485C543.558 268.485 543.57 268.641 543.655 268.714L544.859 269.388C544.921 269.418 544.989 269.434 545.057 269.434C545.126 269.434 545.194 269.418 545.256 269.388L546.46 268.678C546.568 268.617 546.556 268.521 546.46 268.449L545.256 267.774C545.196 267.739 545.127 267.721 545.057 267.721C544.988 267.721 544.919 267.739 544.859 267.774Z" fill="#3A2C6D"/>
<path id="Vector_137" d="M546.617 266.762L545.413 267.472C545.316 267.472 545.328 267.629 545.413 267.701L546.617 268.376C546.678 268.409 546.746 268.426 546.815 268.426C546.884 268.426 546.953 268.409 547.014 268.376L548.218 267.665C548.314 267.665 548.302 267.496 548.218 267.436L547.014 266.749C546.951 266.72 546.883 266.705 546.814 266.707C546.745 266.709 546.677 266.728 546.617 266.762Z" fill="#3A2C6D"/>
<path id="Vector_138" d="M548.338 265.761L547.134 266.472C547.038 266.472 547.05 266.629 547.134 266.689L548.338 267.376C548.398 267.406 548.464 267.421 548.531 267.421C548.598 267.421 548.664 267.406 548.724 267.376L549.928 266.665C550.024 266.605 550.012 266.508 549.928 266.436L548.724 265.761C548.664 265.731 548.598 265.715 548.531 265.715C548.464 265.715 548.398 265.731 548.338 265.761Z" fill="#3A2C6D"/>
<path id="Vector_139" d="M550.084 264.751L548.88 265.461C548.772 265.522 548.784 265.618 548.88 265.69L550.084 266.365C550.144 266.395 550.21 266.41 550.277 266.41C550.344 266.41 550.409 266.395 550.469 266.365L551.673 265.654C551.782 265.594 551.77 265.486 551.673 265.425L550.469 264.739C550.409 264.711 550.342 264.697 550.275 264.699C550.208 264.702 550.143 264.719 550.084 264.751Z" fill="#3A2C6D"/>
<path id="Vector_140" d="M551.83 263.738L550.626 264.461C550.53 264.461 550.542 264.617 550.626 264.677L551.83 265.364C551.892 265.394 551.96 265.41 552.029 265.41C552.097 265.41 552.165 265.394 552.227 265.364L553.431 264.653C553.54 264.593 553.516 264.497 553.431 264.424L552.227 263.75C552.167 263.716 552.099 263.698 552.03 263.696C551.961 263.693 551.892 263.708 551.83 263.738Z" fill="#3A2C6D"/>
<path id="Vector_141" d="M530.964 275.881L528.424 277.351C528.316 277.411 528.328 277.507 528.424 277.579L529.628 278.254C529.689 278.287 529.757 278.304 529.827 278.304C529.896 278.304 529.964 278.287 530.025 278.254L532.578 276.784C532.674 276.724 532.662 276.616 532.578 276.555L531.374 275.869C531.309 275.839 531.239 275.824 531.168 275.826C531.097 275.828 531.027 275.847 530.964 275.881Z" fill="#3A2C6D"/>
<path id="Vector_142" d="M530.11 274.339L528.906 275.05C528.809 275.11 528.821 275.207 528.906 275.279L530.11 275.954C530.171 275.986 530.239 276.003 530.308 276.003C530.378 276.003 530.446 275.986 530.507 275.954L531.711 275.243C531.819 275.243 531.795 275.086 531.711 275.026L530.507 274.339C530.446 274.308 530.377 274.291 530.308 274.291C530.239 274.291 530.171 274.308 530.11 274.339Z" fill="#3A2C6D"/>
<path id="Vector_143" d="M531.844 273.327L530.64 274.038C530.543 274.098 530.555 274.207 530.64 274.267L531.844 274.954C531.906 274.983 531.973 274.999 532.042 274.999C532.111 274.999 532.179 274.983 532.241 274.954L533.445 274.243C533.541 274.183 533.529 274.086 533.445 274.014L532.241 273.339C532.181 273.305 532.113 273.285 532.044 273.283C531.974 273.281 531.906 273.296 531.844 273.327Z" fill="#3A2C6D"/>
<path id="Vector_144" d="M533.589 272.328L532.385 273.038C532.277 273.099 532.289 273.195 532.385 273.267L533.589 273.942C533.648 273.975 533.714 273.992 533.782 273.992C533.849 273.992 533.915 273.975 533.974 273.942L535.178 273.231C535.274 273.171 535.262 273.075 535.178 273.014L533.974 272.328C533.914 272.3 533.848 272.285 533.782 272.285C533.715 272.285 533.649 272.3 533.589 272.328Z" fill="#3A2C6D"/>
<path id="Vector_145" d="M535.335 271.315L534.131 272.026C534.034 272.026 534.047 272.194 534.131 272.255L535.335 272.941C535.397 272.971 535.465 272.987 535.533 272.987C535.602 272.987 535.67 272.971 535.732 272.941L536.936 272.231C537.044 272.231 537.032 272.074 536.936 272.002L535.732 271.327C535.673 271.29 535.605 271.27 535.535 271.268C535.465 271.266 535.396 271.282 535.335 271.315Z" fill="#3A2C6D"/>
<path id="Vector_146" d="M537.069 270.315L535.865 271.026C535.768 271.086 535.78 271.182 535.865 271.255L537.069 271.929C537.13 271.962 537.198 271.979 537.267 271.979C537.337 271.979 537.405 271.962 537.466 271.929L538.67 271.218C538.766 271.218 538.754 271.062 538.67 270.99L537.466 270.315C537.404 270.285 537.336 270.27 537.267 270.27C537.199 270.27 537.131 270.285 537.069 270.315Z" fill="#3A2C6D"/>
<path id="Vector_147" d="M538.815 269.302L537.611 270.013C537.502 270.074 537.514 270.182 537.611 270.242L538.815 270.917C538.873 270.95 538.94 270.967 539.007 270.967C539.075 270.967 539.141 270.95 539.2 270.917L540.404 270.206C540.5 270.146 540.488 270.037 540.404 269.977L539.2 269.302C539.14 269.272 539.074 269.256 539.007 269.256C538.94 269.256 538.874 269.272 538.815 269.302Z" fill="#3A2C6D"/>
<path id="Vector_148" d="M540.596 268.303L539.393 269.014C539.296 269.014 539.308 269.171 539.393 269.243L540.596 269.918C540.658 269.947 540.726 269.963 540.795 269.963C540.864 269.963 540.932 269.947 540.994 269.918L542.198 269.207C542.306 269.147 542.294 269.05 542.198 268.978L540.994 268.303C540.933 268.268 540.865 268.25 540.795 268.25C540.725 268.25 540.657 268.268 540.596 268.303Z" fill="#3A2C6D"/>
<path id="Vector_149" d="M542.294 267.292L541.09 268.003C540.994 268.003 541.006 268.159 541.09 268.232L542.294 268.906C542.355 268.939 542.424 268.956 542.493 268.956C542.562 268.956 542.63 268.939 542.692 268.906L543.896 268.195C543.992 268.195 543.98 268.027 543.896 267.967L542.692 267.28C542.629 267.252 542.56 267.238 542.492 267.24C542.423 267.243 542.355 267.26 542.294 267.292Z" fill="#3A2C6D"/>
<path id="Vector_150" d="M544.04 266.244L542.836 266.955C542.727 266.955 542.739 267.111 542.836 267.172L544.04 267.858C544.099 267.888 544.165 267.903 544.232 267.903C544.299 267.903 544.365 267.888 544.425 267.858L545.629 267.147C545.725 267.087 545.713 266.991 545.629 266.919L544.425 266.244C544.365 266.213 544.299 266.197 544.232 266.197C544.165 266.197 544.099 266.213 544.04 266.244Z" fill="#3A2C6D"/>
<path id="Vector_151" d="M545.785 265.279L544.581 265.99C544.485 266.05 544.497 266.146 544.581 266.219L545.785 266.893C545.848 266.922 545.915 266.938 545.984 266.938C546.053 266.938 546.121 266.922 546.183 266.893L547.387 266.183C547.495 266.122 547.483 266.014 547.387 265.954L546.183 265.267C546.12 265.237 546.052 265.223 545.983 265.225C545.914 265.227 545.846 265.246 545.785 265.279Z" fill="#3A2C6D"/>
<path id="Vector_152" d="M547.519 264.28L546.315 264.991C546.219 264.991 546.231 265.148 546.315 265.208L547.519 265.895C547.581 265.924 547.649 265.94 547.718 265.94C547.787 265.94 547.855 265.924 547.917 265.895L549.121 265.184C549.217 265.184 549.205 265.027 549.121 264.955L547.917 264.28C547.856 264.248 547.787 264.23 547.718 264.23C547.649 264.23 547.58 264.248 547.519 264.28Z" fill="#3A2C6D"/>
<path id="Vector_153" d="M551.433 262.027L548.049 263.978C547.941 263.978 547.953 264.135 548.049 264.207L549.253 264.882C549.313 264.912 549.379 264.927 549.446 264.927C549.513 264.927 549.579 264.912 549.639 264.882L553.034 262.918C553.13 262.918 553.118 262.762 553.034 262.689L551.83 262.015C551.768 261.984 551.699 261.969 551.63 261.971C551.561 261.973 551.493 261.992 551.433 262.027Z" fill="#3A2C6D"/>
<path id="Vector_154" d="M528.364 275.338L526.678 276.314C526.582 276.314 526.594 276.471 526.678 276.543L527.882 277.218C527.943 277.25 528.012 277.267 528.081 277.267C528.15 277.267 528.218 277.25 528.279 277.218L529.953 276.254C530.061 276.254 530.049 276.097 529.953 276.025L528.749 275.35C528.689 275.321 528.624 275.305 528.558 275.303C528.491 275.301 528.425 275.313 528.364 275.338Z" fill="#3A2C6D"/>
<path id="Vector_155" d="M558.247 265.966L533.505 280.254C533.408 280.314 533.421 280.411 533.505 280.483L534.095 280.82C534.156 280.853 534.224 280.87 534.293 280.87C534.363 280.87 534.431 280.853 534.492 280.82L559.234 266.532C559.331 266.472 559.319 266.376 559.234 266.304L558.644 265.966C558.583 265.935 558.515 265.918 558.446 265.918C558.377 265.918 558.308 265.935 558.247 265.966Z" fill="#3A2C6D"/>
<path id="&#60;&#208;&#154;&#208;&#190;&#208;&#189;&#209;&#130;&#209;&#131;&#209;&#128;&#62;_18" d="M529.303 266.605L529.459 266.689L533.733 269.159L541.331 264.773L541.487 264.677L537.057 262.123L529.303 266.605Z" fill="#BFBFBF"/>
<path id="&#60;&#208;&#154;&#208;&#190;&#208;&#189;&#209;&#130;&#209;&#131;&#209;&#128;&#62;_19" d="M529.459 266.69L533.734 269.16L541.331 264.774L537.057 262.305L529.459 266.69Z" fill="#E5E5E5"/>
<path id="&#60;&#208;&#154;&#208;&#190;&#208;&#189;&#209;&#130;&#209;&#131;&#209;&#128;&#62;_20" d="M517.106 272.364V272.75C517.108 273.022 517.179 273.289 517.314 273.526C517.449 273.762 517.643 273.96 517.877 274.099L532.951 282.797C533.186 282.938 533.454 283.013 533.728 283.013C534.001 283.013 534.27 282.938 534.504 282.797L561.775 267.051C562.012 266.914 562.209 266.718 562.346 266.481C562.483 266.244 562.556 265.976 562.557 265.702V265.316L533.734 281.978L517.106 272.364Z" fill="#E5E5E5"/>
<path id="&#60;&#208;&#154;&#208;&#190;&#208;&#189;&#209;&#130;&#209;&#131;&#209;&#128;&#62;_21" d="M534.167 282.206C534.425 282.305 534.702 282.344 534.977 282.321C535.252 282.298 535.518 282.214 535.756 282.074L562.906 266.413C563.142 266.277 563.345 266.091 563.501 265.869C563.657 265.646 563.763 265.391 563.809 265.123L566.771 247.39C566.783 247.29 566.783 247.189 566.771 247.089C566.773 246.593 566.578 246.117 566.23 245.764L538.02 262.063C537.846 262.166 537.696 262.306 537.582 262.472C537.468 262.639 537.391 262.828 537.358 263.027L534.167 282.206Z" fill="#F4F4F4"/>
<path id="&#60;&#208;&#154;&#208;&#190;&#208;&#189;&#209;&#130;&#209;&#131;&#209;&#128;&#62;_22" d="M533.734 281.977L533.915 282.074L534.167 282.206L537.382 263.015C537.415 262.816 537.492 262.626 537.607 262.46C537.721 262.293 537.87 262.154 538.044 262.051L566.254 245.763C566.14 245.658 566.015 245.565 565.881 245.486L537.611 261.81C537.438 261.912 537.29 262.049 537.175 262.213C537.061 262.378 536.984 262.565 536.949 262.762L533.734 281.977Z" fill="#E5E5E5"/>
</g>
</g>
<path id="&#60;&#208;&#154;&#208;&#190;&#208;&#189;&#209;&#130;&#209;&#131;&#209;&#128;&#62;_23" d="M513.242 206.092C513.242 206.092 513.591 212.838 513.434 213.429C513.278 214.019 510.34 216.007 509.485 216.717C508.63 217.428 514.108 222.873 516.829 224.078C519.551 225.283 528.015 222.066 528.171 217.886C528.328 213.706 526.714 210.2 525.414 210.007C524.114 209.814 513.242 206.092 513.242 206.092Z" fill="#FFCEA9"/>
<path id="&#60;&#208;&#154;&#208;&#190;&#208;&#189;&#209;&#130;&#209;&#131;&#209;&#128;&#62;_24" d="M512.483 214.599C512.483 214.599 517.383 221.887 524.21 222.574C526.365 220.454 526.558 212.936 523.572 210.527C523.572 210.527 526.317 208.31 528.183 208.744C530.203 209.961 531.707 211.877 532.409 214.129C534.145 219.162 534.96 224.467 534.817 229.79C534.697 236.946 534.817 255.089 534.817 255.089C534.414 257.229 533.561 259.259 532.316 261.045C531.071 262.831 529.461 264.332 527.593 265.45C522.672 268.231 516.877 269.032 511.387 267.691C507.932 266.883 506.643 264.944 505.451 262.438C505.765 257.426 507.751 247.09 506.908 240.753C506.066 234.416 504.741 229.742 504.392 224.634C504.043 219.526 505.066 219.634 507.631 217.815C509.171 216.631 510.792 215.556 512.483 214.599Z" fill="#F4F4F4"/>
<path id="&#60;&#208;&#154;&#208;&#190;&#208;&#189;&#209;&#130;&#209;&#131;&#209;&#128;&#62;_25" d="M520.333 272.749C519.105 271.933 517.826 271.196 516.504 270.544C515.264 270.157 514.136 269.475 513.217 268.557C512.013 267.352 510.063 262.931 508.654 258.594C507.248 253.705 506.69 248.612 507.005 243.535C507.594 237.451 509.786 228.946 510.34 225.464C510.893 221.982 509.774 220.573 508.148 219.284C506.234 217.766 503.597 218.44 502.189 223.344C500.372 230.128 499.318 237.094 499.046 244.113C499.003 249.33 499.817 254.519 501.454 259.473C502.914 263.709 504.878 267.754 507.306 271.52C507.98 272.653 508.196 273.653 509.22 275.966C510.214 278.284 511.75 280.329 513.699 281.929C515.42 283.134 516.227 283.327 516.624 283.134C517.022 282.941 517.034 282.278 516.311 281.628C515.094 280.682 514.058 279.522 513.253 278.206C513.253 278.206 514.758 279.712 515.734 280.532C516.6 281.268 517.564 281.88 518.599 282.351C519.598 282.796 521.007 281.953 520.285 281.278C519.562 280.604 518.84 280.267 517.419 279.026C516.652 278.379 515.968 277.638 515.384 276.821C516.388 277.591 517.45 278.28 518.563 278.881C519.431 279.414 520.434 279.686 521.453 279.664C521.994 279.664 522.657 278.905 521.645 278.182C520.277 277.476 519 276.606 517.841 275.592C516.745 274.496 516.131 273.58 516.432 273.556C516.733 273.532 517.347 274.219 518.623 274.628C519.899 275.038 521.284 274.628 521.453 273.966C521.621 273.303 521.537 273.339 520.333 272.749Z" fill="#FFCEA9"/>
<path id="&#60;&#208;&#154;&#208;&#190;&#208;&#189;&#209;&#130;&#209;&#131;&#209;&#128;&#62;_26" d="M528.556 196.033C527.749 190.793 523.969 186.829 518.575 187.118C515.818 187.274 513.235 188.519 511.395 190.579C509.555 192.639 508.608 195.347 508.762 198.105C508.849 199.695 509.303 201.242 510.089 202.626C510.874 204.01 511.97 205.192 513.289 206.081C513.473 206.888 513.748 207.672 514.108 208.418C516.023 210.646 521.802 212.032 523.451 211.791C525.582 211.49 526.738 210.586 527.749 208.261C529.507 204.117 528.941 198.623 528.556 196.033Z" fill="#FFCEA9"/>
<path id="Vector_156" d="M513.241 206.081L513.735 201.515C513.735 201.515 510.003 191.877 518.816 193.708C524.643 194.913 526.04 195.467 527.87 191.552C529.7 187.636 523.403 184.131 515.986 185.106C513.431 185.372 511.068 186.59 509.368 188.518C507.668 190.447 506.756 192.945 506.812 195.515C507.005 198.394 507.763 204.213 513.241 206.081Z" fill="#3A2C6D"/>
<path id="Vector_157" d="M498.155 232.319C498.155 232.319 502.971 237.138 508.654 235.729C509.473 235.174 511.423 223.983 511.423 223.983C511.423 223.983 511.423 217.778 506.668 217.959C501.912 218.14 498.155 232.319 498.155 232.319Z" fill="#EDEDED"/>
<path id="Vector_158" d="M534.48 223.031C534.48 223.031 536.996 222.899 538.032 221.441C537.839 218.935 534.637 209.394 528.183 208.707C529.934 209.924 531.326 211.588 532.217 213.526C533.22 216.63 533.976 219.808 534.48 223.031Z" fill="#EDEDED"/>
</g>
<g id="Men 1">
<path id="&#60;&#208;&#154;&#208;&#190;&#208;&#189;&#209;&#130;&#209;&#131;&#209;&#128;&#62;_27" d="M166.862 426.881C167.2 429.857 170.739 442.687 169.981 447.072C169.222 451.457 157.11 458.818 157.11 458.818L155.437 451.3L162.143 444.723L160.325 432.266L166.862 426.881Z" fill="#FFCEA9"/>
<path id="&#60;&#208;&#154;&#208;&#190;&#208;&#189;&#209;&#130;&#209;&#131;&#209;&#128;&#62;_28" d="M157.483 414.244C158.66 413.693 160 413.595 161.244 413.971C162.488 414.347 163.55 415.169 164.226 416.28C166.02 419.232 167.838 429.364 168.03 431.086C168.03 431.086 165.526 434.544 161.782 433.966L157.483 414.244Z" fill="#EDEDED"/>
<path id="Vector_159" d="M143.649 557.267C141.015 557.995 138.2 557.657 135.811 556.327C133.921 556.327 123.675 551.99 122.29 555.677C121.086 558.905 125.505 561.893 127.877 562.471C133.054 563.676 136.883 566.302 138.966 566.748C140.507 567.073 142.578 567.29 143.782 566.061C145.227 564.604 145.106 559.194 143.649 557.267Z" fill="#38226D"/>
<path id="Vector_160" d="M138.966 565.845C136.883 565.412 133.054 562.834 127.877 561.569C125.89 561.087 122.459 558.918 122.122 556.328C121.652 559.292 125.662 561.93 127.877 562.472C133.054 563.677 136.883 566.303 138.966 566.749C140.507 567.074 142.578 567.291 143.782 566.062C144.102 565.72 144.337 565.307 144.468 564.858C143.692 565.441 142.79 565.834 141.834 566.006C140.879 566.177 139.896 566.122 138.966 565.845Z" fill="#9C73FF"/>
<path id="Vector_161" d="M160.277 549.798C157.642 550.528 154.826 550.19 152.439 548.858C150.548 548.858 140.302 544.521 138.906 548.208C137.702 551.437 142.12 554.424 144.492 555.003C149.669 556.207 153.51 558.834 155.581 559.279C157.134 559.605 159.193 559.821 160.397 558.593C161.854 557.135 161.721 551.762 160.277 549.798Z" fill="#38226D"/>
<path id="Vector_162" d="M155.581 558.375C153.51 557.941 149.67 555.363 144.492 554.098C142.506 553.616 139.086 551.448 138.737 548.857C138.28 551.821 142.349 554.459 144.492 555.001C149.67 556.206 153.51 558.832 155.581 559.278C157.134 559.603 159.193 559.82 160.397 558.592C160.717 558.252 160.949 557.838 161.071 557.387C160.297 557.969 159.397 558.362 158.444 558.533C157.49 558.705 156.51 558.651 155.581 558.375Z" fill="#9C73FF"/>
<path id="&#60;&#208;&#154;&#208;&#190;&#208;&#189;&#209;&#130;&#209;&#131;&#209;&#128;&#62;_29" d="M160.481 521.934C160.026 518.125 159.22 514.366 158.073 510.706C158.073 510.706 158.772 501.008 159.121 491.816C159.53 481.395 163.142 472.215 160.325 463.891L128.178 471.047C128.178 471.047 130.128 512.621 130.586 517.657C130.828 521.574 131.311 525.473 132.031 529.331C133.5 537.402 135.884 556.606 135.884 556.606C139.291 558.581 143.746 557.485 143.746 557.485C143.746 557.485 143.505 533.21 143.288 527.367C143.023 520.259 142.807 520.801 142.807 520.801L143.866 503.116L144.564 494.322C144.564 494.322 145.455 500.779 146.033 506.55C146.539 511.573 147.755 516.127 149.103 525.488C150.307 533.608 152.186 549.932 152.186 549.932C155.593 551.907 160.204 550.269 160.204 550.269C160.204 550.269 161.396 528.981 160.481 521.934Z" fill="#8C50FF"/>
<path id="&#60;&#208;&#154;&#208;&#190;&#208;&#189;&#209;&#130;&#209;&#131;&#209;&#128;&#62;_30" d="M155.786 414.423C153.378 414.544 151.512 415.17 151.211 414.423C150.944 413.163 150.755 411.888 150.645 410.604C150.934 409.894 151.174 409.123 151.174 409.123C154.245 407.231 155.22 403.906 155.629 400.027C156.315 393.413 152.74 387.618 146.118 386.92C139.905 386.269 135.282 390.642 134.078 396.654C133.427 399.617 132.115 405.219 133.885 410.098C134.872 412.821 136.148 414.99 137.425 415.411C138.658 415.381 139.889 415.272 141.109 415.086C141.109 415.086 141.446 416.917 141.675 418.098C141.904 419.278 141.807 419.905 139.459 421.35C137.112 422.796 143.071 425.772 146.864 425.483C150.657 425.193 155.051 422.856 156.243 420.363C157.58 417.604 157.471 414.327 155.786 414.423Z" fill="#FFCEA9"/>
<path id="&#60;&#208;&#154;&#208;&#190;&#208;&#189;&#209;&#130;&#209;&#131;&#209;&#128;&#62;_31" d="M152.246 414.774C152.92 416.473 151.198 418.545 146.599 419.991C142 421.436 141.578 419.569 141.578 419.569C138.518 420.942 135.536 422.482 132.645 424.183C129.876 426.11 128.66 431.7 128.286 441.133C127.853 452.048 127.817 468.251 128.178 471.046C128.178 471.046 133.343 476.191 139.941 475.648C146.539 475.106 157.652 469.263 160.409 464.746C160.337 455.168 159.205 453.614 160.77 448.097C164.31 435.471 166.176 430.303 164.454 421.918C163.034 415.003 161.047 414.148 158.314 414.208C156.283 414.291 154.257 414.48 152.246 414.774Z" fill="#F4F4F4"/>
<path id="&#60;&#208;&#154;&#208;&#190;&#208;&#189;&#209;&#130;&#209;&#131;&#209;&#128;&#62;_32" d="M117.908 450.167C123.326 451.528 124.59 448.107 125.312 445.276C127.034 438.421 127.961 432.229 129.25 428.35C130.755 423.76 132.344 423.025 134.571 422.133C137.184 421.085 139.387 423.338 138.568 429.133C137.508 435.909 135.86 442.58 133.644 449.071C132.97 451.203 131.453 454.998 129.189 456.829C126.396 459.082 122.182 458.986 115.813 457.407C113.092 456.721 110.118 455.106 104.977 452.709C103.592 452.059 102.569 451.637 99.8719 450.396C97.2143 449.203 94.8846 447.384 93.0814 445.095C91.6968 443.083 91.5162 442.144 91.7931 441.674C92.07 441.204 92.7804 441.228 93.5148 442.071C94.5886 443.5 95.9098 444.724 97.4158 445.686C97.4158 445.686 95.7061 443.915 94.779 442.77C93.9515 441.75 93.2632 440.623 92.7322 439.421C92.2386 438.216 93.2499 436.65 94.0205 437.494C94.7911 438.337 95.1523 439.18 96.5489 440.855C97.2881 441.756 98.133 442.565 99.0653 443.264C98.1933 442.089 97.4201 440.844 96.7536 439.542C96.1545 438.526 95.8579 437.359 95.8987 436.18C95.8987 435.566 96.8017 434.831 97.6205 436C98.411 437.593 99.3891 439.085 100.534 440.445C101.738 441.734 102.822 442.469 102.846 442.108C102.87 441.746 102.099 441.047 101.642 439.554C101.184 438.06 101.642 436.482 102.473 436.301C103.303 436.12 103.147 436.18 103.809 437.578C104.707 439.019 105.511 440.516 106.217 442.059C106.639 443.498 107.403 444.813 108.444 445.89C109.805 447.3 112.755 448.866 117.908 450.167Z" fill="#FFCEA9"/>
<path id="&#60;&#208;&#154;&#208;&#190;&#208;&#189;&#209;&#130;&#209;&#131;&#209;&#128;&#62;_33" d="M136.582 421.194C132.97 420.664 130.405 422.291 128.804 427.772C127.203 433.254 126.095 437.759 126.095 437.759C127.512 439.826 129.666 441.27 132.115 441.795C136.449 442.843 138.003 440.771 138.003 440.771C138.003 440.771 139.207 435.025 139.953 431.133C140.699 427.242 141.061 421.857 136.582 421.194Z" fill="#EDEDED"/>
<path id="Vector_163" d="M134.318 395.787C134.318 395.787 128.599 387.089 140.989 385.318C149.922 384.041 155.665 389.788 156.327 396.016C156.954 401.979 153.293 408.16 150.645 410.617C149.356 411.075 146.575 411.34 142.927 409.677C142.783 408.055 142.727 406.427 142.758 404.798C142.758 404.798 147.105 395.63 134.318 395.787Z" fill="#3A2C6D"/>
</g>
</g>
</g>
</g>
<defs>
<clipPath id="clip0">
<rect width="602" height="567" fill="white"/>
</clipPath>
</defs>
</svg>
