<svg width="552" height="603" viewBox="0 0 552 603" fill="none" xmlns="http://www.w3.org/2000/svg">
<g id="Data_analysis_SVG" clip-path="url(#clip0)">
<g id="&#208;&#161;&#208;&#187;&#208;&#190;&#208;&#185; 2">
<g id="&#208;&#161;&#208;&#187;&#208;&#190;&#208;&#185; 1">
<path id="Vector" opacity="0.4" d="M503.176 286.969C530.141 286.969 552 274.313 552 258.7C552 243.088 530.141 230.432 503.176 230.432C476.212 230.432 454.353 243.088 454.353 258.7C454.353 274.313 476.212 286.969 503.176 286.969Z" fill="#D6D8E5"/>
<g id="Girl 8">
<path id="&#60;&#208;&#154;&#208;&#190;&#208;&#189;&#209;&#130;&#209;&#131;&#209;&#128;&#62;" d="M501.071 2.97885C502.984 -0.0964531 517.538 -2.11047 522.326 10.2148C524.142 14.9062 523.853 26.8938 525.381 34.4193C526.909 41.9447 530.469 46.2139 531.756 52.3284C533.043 58.4428 530.95 68.6697 516.263 70.4184C501.577 72.1671 490.294 67.0657 486.83 62.3743C483.365 57.683 483.221 47.7094 486.83 42.3427C490.438 36.976 493.157 32.6947 493.072 25.6516L501.071 2.97885Z" fill="#3A2C6D"/>
<path id="Vector_2" d="M483.642 54.7166C483.642 54.7166 480.19 79.126 486.709 96.4803C493.229 113.835 491.412 92.0061 491.412 92.0061L489.849 86.8323C489.849 86.8323 488.538 66.873 489.079 61.9888C489.62 57.1045 489.5 52.8955 489.849 52.4975C490.198 52.0995 488.562 51.2915 487.864 51.2312C487.166 51.1709 483.642 54.7166 483.642 54.7166Z" fill="#FFCEA9"/>
<path id="&#60;&#208;&#154;&#208;&#190;&#208;&#189;&#209;&#130;&#209;&#131;&#209;&#128;&#62;_2" d="M510.682 0.845135C510.682 0.845135 499.724 -2.32664 493.084 3.61893C487.01 9.04593 487.515 16.4267 488.393 19.8999C489.271 23.3732 491.051 28.1007 493.806 28.3419C496.561 28.5831 510.682 0.845135 510.682 0.845135Z" fill="#3A2C6D"/>
<path id="&#60;&#208;&#154;&#208;&#190;&#208;&#189;&#209;&#130;&#209;&#131;&#209;&#128;&#62;_3" d="M514.82 30.8145C514.82 30.8145 514.11 43.0554 514.327 43.9599C514.543 44.8644 519.138 45.7327 520.413 46.794C521.688 47.8552 513.809 60.3012 509.78 62.1222C505.75 63.9433 493.277 59.264 492.411 53.0652C491.617 47.3367 496.019 42.8865 497.667 41.3308C498.811 41.2243 499.96 41.1961 501.107 41.2464L501.468 35.3128C506.941 33.54 514.82 30.8145 514.82 30.8145Z" fill="#FFCEA9"/>
<path id="&#60;&#208;&#154;&#208;&#190;&#208;&#189;&#209;&#130;&#209;&#131;&#209;&#128;&#62;_4" d="M516.552 45.1531C519.98 45.6717 523.901 47.5651 524.443 49.3982C525.068 51.5932 526.427 61.9527 523.456 69.8399C520.485 77.7272 518.489 82.7321 516.781 86.133C516.781 86.133 501.925 92.5127 489.957 85.0717C489.957 85.0717 489.139 76.6297 489.079 72.1072C478.037 62.4592 487.479 50.5198 496.837 41.2577C497.958 41.1615 499.085 41.1615 500.205 41.2577C500.205 41.2577 491.857 51.159 497.667 56.791C510.105 52.9801 512.571 47.3842 516.552 45.1531Z" fill="#F4F4F4"/>
<path id="&#60;&#208;&#154;&#208;&#190;&#208;&#189;&#209;&#130;&#209;&#131;&#209;&#128;&#62;_5" d="M492.062 15.6793C493.265 7.81617 498.954 1.87059 507.049 2.41329C510.274 2.62486 513.353 3.83913 515.857 5.88712C518.362 7.9351 520.167 10.7149 521.022 13.8397C521.877 16.9644 521.739 20.2787 520.627 23.3211C519.516 26.3636 517.486 28.9829 514.82 30.8146C514.55 32.0023 514.146 33.1554 513.617 34.2517C510.742 37.5923 503.128 39.7269 500.614 39.7511C498.449 39.7511 496.573 37.7491 494.54 34.3602C490.306 27.3293 491.376 19.5264 492.062 15.6793Z" fill="#FFCEA9"/>
<path id="Vector_3" d="M509.551 2.412C515.229 3.52152 519.908 5.1255 521.447 10.7093C522.506 14.5564 523.853 21.901 522.566 24.9883L521.748 27.2194L514.82 30.8133C514.82 30.8133 511.62 28.136 512.619 20.2729C512.582 19.2091 512.249 18.177 511.656 17.294C511.221 16.541 510.896 15.7285 510.694 14.882C509.89 12.7564 508.295 11.0268 506.243 10.058C501.179 7.236 493.686 9.648 492.639 10.7334C494.073 7.60737 496.538 5.07272 499.619 3.55686C502.7 2.04099 506.208 1.63664 509.551 2.412Z" fill="#3A2C6D"/>
<path id="&#60;&#208;&#154;&#208;&#190;&#208;&#189;&#209;&#130;&#209;&#131;&#209;&#128;&#62;_6" d="M524.84 102.367C526.115 94.3953 528.448 89.2215 527.39 84.8437C524.948 75.9651 521.728 67.3206 517.767 59.0112C515.253 54.0425 516.023 50.5692 518.633 48.6396C521.556 46.4447 524.346 47.4336 526.981 52.8968C530.3 59.8072 534.041 66.8985 535.858 77.1856C536.748 82.1785 537.205 87.0266 535.605 97.2776C534.486 104.441 532.213 108.469 529.519 115.199C528.737 117.044 523.757 109.133 524.84 102.367Z" fill="#FFCEA9"/>
<path id="Vector_4" d="M519.872 251.065C516.997 253.405 512.534 251.789 512.318 252.006C509.395 254.936 505.041 257.493 501.793 260.062C500.001 261.473 497.21 263.366 497.715 266.092C498.617 270.916 506.364 269.444 509.287 267.961C512.21 266.478 514.603 264.017 517.37 262.293C519.342 261.087 521.279 260.436 521.592 257.927C521.772 256.408 520.377 251.005 519.872 251.065Z" fill="#38226D"/>
<path id="Vector_5" d="M521.556 256.879C521.171 259.291 519.258 259.93 517.298 261.148C514.483 262.897 512.005 265.429 509.094 266.913C506.388 268.276 499.652 269.638 497.751 266.177C498.786 270.856 506.4 269.385 509.287 267.914C512.174 266.442 514.603 263.97 517.37 262.246C519.343 261.04 521.279 260.388 521.592 257.88C521.614 257.546 521.601 257.211 521.556 256.879Z" fill="#9C73FF"/>
<path id="Vector_6" d="M499.712 247.026C497.09 249.172 493.108 247.966 492.916 248.171C490.246 250.861 486.276 253.164 483.293 255.516C481.645 256.806 479.095 258.543 479.552 261.027C480.382 265.465 487.479 264.103 490.161 262.74C492.844 261.377 494.973 259.122 497.559 257.554C499.363 256.433 501.167 255.842 501.42 253.55C501.588 252.175 500.181 246.977 499.712 247.026Z" fill="#38226D"/>
<path id="Vector_7" d="M501.396 252.633C501.047 254.828 499.291 255.431 497.499 256.54C494.925 258.144 492.687 260.46 489.981 261.823C487.503 263.029 481.332 264.319 479.6 261.147C480.551 265.428 487.515 264.09 490.173 262.739C492.832 261.388 494.985 259.121 497.571 257.553C499.375 256.432 501.179 255.841 501.432 253.549C501.454 253.243 501.441 252.936 501.396 252.633Z" fill="#9C73FF"/>
<path id="Vector_8" d="M484.231 113.039C485.494 103.114 489.151 88.6777 489.151 88.6777C492.602 90.3027 496.337 91.2328 500.145 91.4154C506.532 91.741 516.756 89.7873 516.756 89.7873C518.546 92.9245 520.502 95.9639 522.614 98.8926C525.477 102.872 531.034 111.58 529.687 126.799C528.809 136.737 523.252 178.971 523.252 178.971C525.412 186.074 526.562 193.447 526.668 200.872C526.608 207.01 524.996 217.454 523.192 227.102L519.872 251.078C519.872 251.078 515.457 254.274 512.318 252.018L512.715 228.55C512.33 222.821 511.764 214.343 511.392 208.94C510.802 200.124 509.226 186.135 508.769 182.649C508.312 179.164 507.206 173.001 506.676 166.211C506.147 159.422 503.573 124.604 503.573 124.604L503.212 131.117C503.212 131.117 502.875 141.681 501.36 154.73C499.844 167.779 499.315 173.556 499.315 173.556C499.315 173.556 501.937 178.38 502.274 181.998C502.539 184.82 505.762 207.107 503.838 218.455L499.892 247.231C498.91 247.91 497.78 248.346 496.597 248.503C495.413 248.661 494.21 248.534 493.084 248.135L490.763 219.083C489.211 208.023 485.951 184.591 485.422 181.54C484.748 177.524 484.219 175.51 483.449 162.943C482.68 150.377 482.956 123.013 484.231 113.039Z" fill="#FFCEA9"/>
<path id="Vector_9" d="M516.78 86.1339L525.309 103.307C525.309 103.307 538.323 122.41 524.839 171.519L527.365 186.666C527.365 186.666 501.841 203.092 484.748 186.666C484.748 186.666 478.83 141.284 481.982 120.336C483.732 108.301 486.39 96.4156 489.933 84.7832C489.933 84.7832 494.119 89.4263 515.65 86.3631" fill="#8C50FF"/>
<path id="Vector_10" d="M532.081 62.5314C532.081 62.5314 526.151 68.4408 519.126 67.7172L515.758 56.1999C515.758 56.1999 513.557 50.1699 518.681 47.5408C523.805 44.9118 529.134 50.7367 532.081 62.5314Z" fill="#EDEDED"/>
<path id="Vector_11" d="M496.837 41.2586C496.837 41.2586 490.053 39.1843 482.86 54.2713L485.555 55.8994C485.555 55.8994 492.639 45.1299 496.837 41.2586Z" fill="#EDEDED"/>
</g>
<path id="Vector_12" opacity="0.4" d="M48.8237 401.936C75.7883 401.936 97.6474 389.279 97.6474 373.667C97.6474 358.055 75.7883 345.398 48.8237 345.398C21.8591 345.398 0 358.055 0 373.667C0 389.279 21.8591 401.936 48.8237 401.936Z" fill="#D6D8E5"/>
<g id="Men 13">
<path id="Vector_13" d="M23.7803 364.997C27.2686 367.843 32.4288 365.238 32.6814 365.503C36.7884 369.317 41.0925 372.912 45.576 376.273C47.7531 377.985 51.1572 380.289 50.5437 383.581C49.4371 389.491 40.0188 387.669 36.4584 385.873C32.8979 384.076 29.9991 381.049 26.6311 378.974C24.2254 377.479 21.8197 376.707 21.4949 373.668C21.2664 371.835 23.1548 364.924 23.7803 364.997Z" fill="#38226D"/>
<path id="Vector_14" d="M21.5431 372.438C22.0002 375.356 24.3337 376.152 26.7154 377.635C30.1435 379.77 33.1506 382.833 36.699 384.642C39.9949 386.306 48.1863 387.971 50.4957 383.75C49.2929 389.442 39.9828 387.657 36.4585 385.872C32.9341 384.087 29.9992 381.048 26.6312 378.974C24.2255 377.479 21.8198 376.707 21.495 373.668C21.4663 373.257 21.4824 372.845 21.5431 372.438Z" fill="#9C73FF"/>
<path id="Vector_15" d="M54.1282 353.696C57.6165 356.542 63.751 353.431 63.9916 353.696C67.6295 357.389 71.477 360.868 75.5149 364.116C77.6921 365.84 81.0841 368.132 80.4707 371.436C79.3761 377.346 69.9457 375.525 66.3973 373.716C62.8489 371.907 59.938 368.892 56.57 366.829C54.1643 365.334 51.7586 364.55 51.4339 361.511C51.1813 359.678 53.4787 353.624 54.1282 353.696Z" fill="#38226D"/>
<path id="Vector_16" d="M51.5061 360.703C51.9752 363.622 54.3087 364.418 56.6903 365.901C60.1064 368.036 63.1256 371.111 66.674 372.908C69.9578 374.584 78.1492 376.236 80.4587 372.015C79.2558 377.708 69.9458 375.923 66.4334 374.138C62.9211 372.353 59.9741 369.314 56.6062 367.24C54.2004 365.744 51.7947 364.972 51.47 361.933C51.4424 361.523 51.4544 361.111 51.5061 360.703Z" fill="#9C73FF"/>
<path id="&#60;&#208;&#154;&#208;&#190;&#208;&#189;&#209;&#130;&#209;&#131;&#209;&#128;&#62;_7" d="M23.5758 235.666C23.7442 240.972 25.3921 263.971 26.1258 276.151C26.8596 288.332 27.028 303.262 27.028 303.262C27.028 303.262 24.935 312.138 23.5758 322.558C22.2166 332.978 23.5758 365.902 23.5758 365.902C24.9116 366.759 26.4644 367.215 28.0504 367.215C29.6364 367.215 31.1892 366.759 32.525 365.902C32.525 365.902 38.1182 339.551 40.7044 327.684C43.2905 315.817 43.7476 308.979 45.0948 301.622C46.7186 292.71 50.2189 251.187 50.2189 251.187L51.6262 251.26L55.331 298.161C54.1668 301.614 53.3607 305.179 52.9253 308.798C51.9149 316.444 54.0079 354.867 54.0079 354.867C55.4952 355.688 57.1784 356.085 58.8747 356.015C60.571 355.944 62.2158 355.41 63.6307 354.469C63.6307 354.469 72.9768 303.576 72.9768 295.833C72.9768 290.708 72.0988 223.172 72.0988 223.172L23.5758 235.666Z" fill="#8C50FF"/>
<path id="&#60;&#208;&#154;&#208;&#190;&#208;&#189;&#209;&#130;&#209;&#131;&#209;&#128;&#62;_8" d="M36.242 133.264C36.242 133.264 36.8314 144.817 36.5788 145.842C36.3262 146.867 31.2862 150.256 29.8188 151.462C28.3513 152.668 37.7937 162.003 42.3765 164.113C46.9594 166.224 61.4898 160.664 61.7544 153.512C62.0191 146.361 59.2645 140.355 57.0393 140.029C54.814 139.704 36.242 133.264 36.242 133.264Z" fill="#FFCEA9"/>
<path id="Vector_17" d="M67.7926 154.707C68.4662 149.605 65.1222 144.769 68.3699 140.705C79.7489 151.897 78.2935 181.468 80.8796 200.402C89.2995 209.254 106.296 217.973 111.071 220.132C111.937 220.53 112.695 220.952 112.527 221.893C111.841 225.583 110.77 226.982 108.569 230.552C97.3466 225.728 89.2394 222.906 75.2142 209.544C73.8678 208.096 72.6597 206.526 71.6056 204.852C67.6482 192.792 66.6378 163.498 67.7926 154.707Z" fill="#FFCEA9"/>
<path id="&#60;&#208;&#154;&#208;&#190;&#208;&#189;&#209;&#130;&#209;&#131;&#209;&#128;&#62;_9" d="M34.9548 147.845C34.9548 147.845 43.3747 160.327 54.9822 161.509C58.663 157.891 58.9998 144.939 53.8997 140.802C53.8997 140.802 58.5788 137.015 61.7783 137.751C65.225 139.836 67.792 143.113 68.9954 146.965C71.9523 155.546 73.3417 164.591 73.0972 173.666C72.9047 185.919 73.0972 223.365 73.0972 223.365C73.0972 223.365 71.4613 231.288 60.9123 237.174C50.3633 243.059 42.5207 243.65 35.3638 241.998C29.4578 240.611 24.5381 238.536 22.5534 234.231C23.0827 225.644 26.9077 203.225 25.4763 192.431C24.0449 181.637 21.7716 173.557 21.1822 164.826C20.5928 156.094 22.3249 156.275 26.6912 153.164C29.3129 151.191 32.0747 149.414 34.9548 147.845Z" fill="#F4F4F4"/>
<path id="&#60;&#208;&#154;&#208;&#190;&#208;&#189;&#209;&#130;&#209;&#131;&#209;&#128;&#62;_10" d="M62.3196 116.054C60.9484 107.081 54.5011 100.292 45.2753 100.798C41.5652 100.991 38.0093 102.347 35.1096 104.675C32.2098 107.004 30.1128 110.186 29.1145 113.774C28.1162 117.362 28.2672 121.173 29.5461 124.67C30.8249 128.167 33.1671 131.173 36.2419 133.264C36.5627 134.622 37.0432 135.938 37.6732 137.183C40.933 141.018 50.7963 143.37 53.6351 142.972C57.2436 142.441 59.2403 140.922 60.9725 136.942C64.0397 129.899 63.0774 120.48 62.3196 116.054Z" fill="#FFCEA9"/>
<path id="Vector_18" d="M36.2419 133.264L37.0839 125.449C37.0839 125.449 30.7088 108.891 45.7805 112.075C55.7161 114.173 58.218 115.078 61.2371 108.396C64.2563 101.715 53.599 95.6851 40.8969 97.3614C36.5395 97.8286 32.5154 99.9177 29.62 103.216C26.7247 106.514 25.1688 110.781 25.2599 115.174C25.5847 120.095 26.8958 130.056 36.2419 133.264Z" fill="#3A2C6D"/>
<path id="Vector_19" d="M18.6081 159.686C22.9745 158.48 19.6426 159.469 22.9745 158.48C34.3414 169.66 32.9221 188.823 35.5082 207.758C41.775 218.165 65.0863 232.276 65.0863 232.276C65.375 234.278 64.6653 234.881 62.1513 238.945C50.9287 234.121 41.5224 229.9 27.4972 216.537C26.9439 216.007 26.138 215.874 25.8974 215.15C21.8919 203.042 17.4414 168.49 18.6081 159.686Z" fill="#FFCEA9"/>
<path id="Vector_20" d="M122.282 183.023L105.346 241.08L68.1895 255.962L81.7456 199.401L122.282 183.023Z" fill="#F4F4F4"/>
<path id="Vector_21" d="M59.2162 232.64C59.7695 230.662 61.2009 231.144 62.8248 231.651C64.5685 232.357 66.4839 232.521 68.3218 232.121C69.8494 231.651 70.956 230.324 72.2671 229.456C73.0185 229.009 73.8718 228.764 74.745 228.744C74.6608 229.251 73.891 232.205 73.891 232.205C73.891 232.205 82.0343 232.29 82.8642 232.109C83.1504 232.038 83.4516 232.062 83.7232 232.177C83.9949 232.291 84.2224 232.491 84.3723 232.745C84.5221 232.999 84.5862 233.295 84.555 233.589C84.5239 233.883 84.3992 234.159 84.1994 234.376L84.7527 234.292C86.4247 233.918 87.1584 236.487 85.4624 236.861C85.0053 236.957 84.5603 237.005 84.1032 237.066C85.1857 237.488 85.4624 239.285 84.1032 239.55C83.9709 239.55 83.8265 239.55 83.6822 239.622C83.4959 239.699 83.2932 239.728 83.0928 239.707C83.0047 239.713 82.9163 239.713 82.8282 239.707C82.8662 239.9 82.8651 240.099 82.8248 240.292C82.7845 240.486 82.706 240.669 82.5937 240.831C82.4815 240.993 82.338 241.13 82.1716 241.236C82.0052 241.341 81.8195 241.411 81.6253 241.443C77.6439 241.95 71.786 243.542 68.2015 240.237C65.7044 239.992 63.2654 239.332 60.9844 238.284C58.6148 237.246 58.5546 235.015 59.2162 232.64Z" fill="#FFCEA9"/>
<path id="Vector_22" d="M99.8366 227.934C100.029 227.934 100.209 227.934 100.39 227.934C100.158 227.765 99.9857 227.526 99.8963 227.253C99.8069 226.98 99.8053 226.685 99.8916 226.411C99.9779 226.137 100.148 225.896 100.378 225.724C100.607 225.552 100.885 225.456 101.172 225.45C102.026 225.45 110.41 223.701 110.41 223.701L111.408 220.24C111.408 220.047 112.863 220.94 112.912 220.976C113.621 221.439 114.217 222.057 114.655 222.784C115.092 223.51 115.36 224.327 115.438 225.173C115.512 227.528 114.661 229.819 113.068 231.552C111.556 233.06 109.522 233.924 107.39 233.964C106.38 234.037 105.394 234.085 104.516 234.157C104.318 234.171 104.12 234.143 103.933 234.078C103.746 234.012 103.574 233.909 103.428 233.775C103.282 233.64 103.165 233.478 103.083 233.297C103.001 233.116 102.956 232.921 102.952 232.722H102.699C102.502 232.773 102.295 232.773 102.098 232.722H101.665C100.246 232.722 100.137 230.949 101.1 230.31C100.642 230.31 100.185 230.395 99.7283 230.395C98.0203 230.539 98.1646 227.934 99.8366 227.934Z" fill="#FFCEA9"/>
<path id="Vector_23" d="M72.532 162.28C72.532 162.28 76.8261 162.063 78.5462 159.554C78.2214 155.261 72.7485 138.968 61.7063 137.75C64.7098 139.855 67.0909 142.734 68.5986 146.083C70.6796 150.992 72.532 162.28 72.532 162.28Z" fill="#EDEDED"/>
<path id="Vector_24" d="M16.6234 183.808C16.6234 183.808 27.5814 187.595 35.3037 181.227C36.1457 179.768 30.8291 161.063 30.8291 161.063C30.8291 161.063 26.2342 151.499 19.0291 155.298C11.824 159.097 16.6234 183.808 16.6234 183.808Z" fill="#EDEDED"/>
</g>
<path id="Vector_25" opacity="0.2" d="M473.442 427.022L244.9 560.128L110.506 480.954L339.047 347.836L473.442 427.022Z" fill="#D6D8E5"/>
<path id="Vector_26" d="M124.278 357.459V480.809C124.315 481.196 124.453 481.566 124.68 481.882C124.906 482.197 125.211 482.447 125.565 482.606C126.528 483.099 127.594 483.356 128.675 483.356C129.756 483.356 130.821 483.099 131.784 482.606C132.138 482.447 132.444 482.197 132.67 481.882C132.896 481.566 133.035 481.196 133.071 480.809V357.459H124.278Z" fill="#C1C4D3"/>
<path id="Vector_27" d="M243.084 405.459V548.635C243.105 549.005 243.219 549.363 243.414 549.677C243.61 549.991 243.881 550.251 244.203 550.432C245.029 550.918 245.969 551.174 246.927 551.174C247.885 551.174 248.825 550.918 249.652 550.432C249.973 550.251 250.244 549.991 250.44 549.677C250.635 549.363 250.749 549.005 250.77 548.635V405.459H243.084Z" fill="#C1C4D3"/>
<path id="Vector_28" d="M448.507 309.943V426.684C448.53 427.055 448.646 427.413 448.844 427.727C449.041 428.041 449.314 428.3 449.638 428.481C450.462 428.967 451.4 429.223 452.356 429.223C453.312 429.223 454.25 428.967 455.074 428.481C455.398 428.3 455.671 428.041 455.868 427.727C456.066 427.413 456.182 427.055 456.205 426.684V309.943H448.507Z" fill="#C1C4D3"/>
<path id="Vector_29" d="M246.921 442.204L116.604 366.769V357.953L246.921 433.388V442.204Z" fill="#D5D7E2"/>
<path id="Vector_30" d="M466.646 306.469L246.897 433.666L116.58 358.23L336.317 231.021L466.646 306.469Z" fill="#E9EAF4"/>
<path id="Vector_31" d="M466.67 314.995L246.921 442.204V433.388L466.67 306.191V314.995Z" fill="#CED0DD"/>
<path id="Vector_32" opacity="0.4" d="M496.055 603C523.02 603 544.879 590.344 544.879 574.732C544.879 559.119 523.02 546.463 496.055 546.463C469.091 546.463 447.232 559.119 447.232 574.732C447.232 590.344 469.091 603 496.055 603Z" fill="#D6D8E5"/>
<g id="Men 1">
<path id="&#60;&#208;&#154;&#208;&#190;&#208;&#189;&#209;&#130;&#209;&#131;&#209;&#128;&#62;_11" d="M535.617 359.895C536.183 364.719 541.98 385.823 540.741 393.035C539.502 400.247 519.655 412.331 519.655 412.331L516.913 399.994L527.895 389.2L524.924 368.698L535.617 359.895Z" fill="#FFCEA9"/>
<path id="&#60;&#208;&#154;&#208;&#190;&#208;&#189;&#209;&#130;&#209;&#131;&#209;&#128;&#62;_12" d="M520.281 339.139C522.212 338.246 524.402 338.094 526.437 338.712C528.473 339.33 530.211 340.675 531.323 342.492C534.234 347.316 537.265 363.959 537.542 366.805C537.542 366.805 533.452 372.473 527.305 371.52L520.281 339.139Z" fill="#EDEDED"/>
<path id="Vector_33" d="M497.619 573.876C493.294 575.08 488.669 574.525 484.749 572.332C481.657 572.417 464.878 565.217 462.592 571.259C460.595 576.565 467.861 581.474 471.746 582.414C480.226 584.477 486.505 588.71 489.909 589.433C492.447 589.964 495.731 590.314 497.752 588.324C500.205 585.924 499.989 577.048 497.619 573.876Z" fill="#38226D"/>
<path id="Vector_34" d="M489.933 587.962C486.529 587.238 480.25 583.005 471.77 580.943C468.522 580.159 462.905 576.577 462.34 572.332C461.582 577.156 468.149 581.534 471.77 582.414C480.25 584.476 486.529 588.71 489.933 589.433C492.471 589.964 495.755 590.313 497.776 588.324C498.302 587.743 498.682 587.044 498.882 586.285C495.935 588.746 492.471 588.529 489.933 587.962Z" fill="#9C73FF"/>
<path id="Vector_35" d="M524.84 561.624C520.524 562.823 515.911 562.264 512.005 560.068C508.914 560.164 492.122 552.953 489.849 559.007C487.84 564.313 495.117 569.209 499.002 570.15C507.422 572.212 513.749 576.457 517.153 577.169C519.691 577.712 522.975 578.061 525.008 576.06C527.426 573.66 527.221 564.783 524.84 561.624Z" fill="#38226D"/>
<path id="Vector_36" d="M517.153 575.708C513.749 574.985 507.531 570.739 499.002 568.689C495.743 567.893 490.137 564.324 489.572 560.066C488.814 564.951 495.37 569.268 499.002 570.149C507.422 572.211 513.749 576.456 517.153 577.167C519.692 577.71 522.975 578.06 525.008 576.058C525.531 575.479 525.91 574.785 526.115 574.032C523.168 576.468 519.692 576.239 517.153 575.708Z" fill="#9C73FF"/>
<path id="&#60;&#208;&#154;&#208;&#190;&#208;&#189;&#209;&#130;&#209;&#131;&#209;&#128;&#62;_13" d="M525.176 515.89C524.452 509.638 523.155 503.465 521.303 497.451C521.303 497.451 522.506 481.544 523.035 466.469C523.697 449.343 529.615 434.28 524.948 420.641L472.275 432.387C472.275 432.387 475.463 500.623 476.16 508.884C476.562 515.316 477.365 521.716 478.566 528.047C480.972 541.313 484.869 572.802 484.869 572.802C490.438 576.046 497.752 574.249 497.752 574.249C497.752 574.249 497.355 534.451 496.994 524.803C496.549 513.153 496.2 514.045 496.2 514.045L497.944 485.005L499.087 470.533C499.087 470.533 500.542 481.134 501.492 490.601C502.31 498.85 504.307 506.279 506.52 521.691C508.445 535.018 511.572 561.803 511.572 561.803C517.141 565.047 524.707 562.358 524.707 562.358C524.707 562.358 526.68 527.456 525.176 515.89Z" fill="#8C50FF"/>
<path id="&#60;&#208;&#154;&#208;&#190;&#208;&#189;&#209;&#130;&#209;&#131;&#209;&#128;&#62;_14" d="M517.49 339.43C513.473 339.623 510.49 340.636 509.985 339.43C509.55 337.356 509.245 335.258 509.07 333.147C509.54 331.941 509.924 330.735 509.924 330.735C514.964 327.623 516.564 322.172 517.226 315.804C518.356 304.95 512.499 295.435 501.661 294.301C491.473 293.24 483.979 300.416 481.982 310.269C480.9 315.093 478.759 324.331 481.657 332.339C483.269 336.813 485.362 340.358 487.455 341.058C489.469 341.001 491.477 340.824 493.469 340.527C493.469 340.527 493.999 343.554 494.372 345.484C494.744 347.414 494.6 348.451 490.763 350.827C486.926 353.202 496.585 358.063 502.9 357.604C509.215 357.146 516.312 353.299 518.26 349.162C520.425 344.676 520.245 339.297 517.49 339.43Z" fill="#FFCEA9"/>
<path id="&#60;&#208;&#154;&#208;&#190;&#208;&#189;&#209;&#130;&#209;&#131;&#209;&#128;&#62;_15" d="M511.681 340.093C512.787 342.866 509.973 346.267 502.431 348.643C494.889 351.019 494.227 347.956 494.227 347.956C494.227 347.956 483.173 353.009 479.577 355.517C475.054 358.689 473.057 367.867 472.444 383.352C471.734 401.261 471.674 427.841 472.275 432.436C472.275 432.436 480.695 440.878 491.521 439.986C502.346 439.093 520.534 429.505 524.948 422.089C524.828 406.411 522.999 403.818 525.537 394.773C531.335 374.054 534.402 365.575 531.552 351.803C529.23 340.454 525.958 339.043 521.496 339.152C518.21 339.288 514.933 339.602 511.681 340.093Z" fill="#F4F4F4"/>
<path id="&#60;&#208;&#154;&#208;&#190;&#208;&#189;&#209;&#130;&#209;&#131;&#209;&#128;&#62;_16" d="M455.447 398.101C464.312 400.344 466.405 394.736 467.572 390.081C470.387 378.841 471.914 368.675 474.019 362.343C476.497 354.806 479.095 353.612 482.74 352.152C487.022 350.428 490.715 354.058 489.283 363.634C487.599 374.97 485.386 382.93 481.152 396.352C480.058 399.85 477.544 406.073 473.863 409.088C469.292 412.802 462.388 412.633 451.959 410.04C447.508 408.919 442.625 406.254 434.205 402.322C431.956 401.261 430.187 400.561 425.857 398.535C421.527 396.509 417.004 393.132 414.731 389.828C412.457 386.523 412.157 385.004 412.626 384.232C413.203 383.279 414.238 383.496 415.44 384.883C417.202 387.222 419.365 389.227 421.828 390.805C421.828 390.805 419.025 387.898 417.509 385.981C416.151 384.306 415.022 382.456 414.153 380.481C413.347 378.552 415.007 375.947 416.258 377.31C417.509 378.672 418.111 380.083 420.408 382.845C421.62 384.314 423.001 385.634 424.522 386.777C423.098 384.843 421.831 382.799 420.733 380.662C419.753 378.992 419.273 377.075 419.35 375.139C419.41 374.126 420.829 372.944 422.164 374.849C423.367 376.55 424.137 379.239 426.976 382.146C428.997 384.256 430.729 385.462 430.777 384.883C430.825 384.304 429.574 383.135 428.828 380.686C428.082 378.238 428.828 375.633 430.187 375.344C431.547 375.054 431.27 375.139 432.365 377.442C433.459 379.746 435.119 381.434 436.394 384.787C437.072 387.15 438.31 389.314 440.003 391.094C442.18 393.398 447.003 395.966 455.447 398.101Z" fill="#FFCEA9"/>
<path id="&#60;&#208;&#154;&#208;&#190;&#208;&#189;&#209;&#130;&#209;&#131;&#209;&#128;&#62;_17" d="M486.036 350.561C480.106 349.68 475.92 352.358 473.297 361.415C470.675 370.472 468.847 377.804 468.847 377.804C471.194 381.2 474.749 383.566 478.782 384.413C485.867 386.138 488.405 382.737 488.405 382.737C488.405 382.737 490.378 373.306 491.605 366.878C492.832 360.45 493.361 351.646 486.036 350.561Z" fill="#EDEDED"/>
<path id="Vector_37" d="M482.343 308.869C482.343 308.869 472.985 294.59 493.277 291.684C507.903 289.585 517.334 299.016 518.392 309.243C519.427 319.012 513.424 329.166 509.094 333.194C506.977 333.942 502.43 334.4 496.452 331.663C496.214 329 496.122 326.327 496.176 323.655C496.176 323.655 503.272 308.616 482.343 308.869Z" fill="#3A2C6D"/>
</g>
<path id="Vector_38" d="M186.851 365.926C178.431 370.75 164.718 370.75 156.298 365.926C147.878 361.102 147.878 353.119 156.298 348.234C164.718 343.35 178.431 343.41 186.851 348.234C195.271 353.058 195.271 361.042 186.851 365.926ZM160.713 350.791C154.699 354.264 154.699 359.896 160.713 363.37C166.727 366.843 176.446 366.831 182.436 363.37C188.426 359.908 188.451 354.264 182.436 350.791C176.422 347.318 166.703 347.33 160.713 350.791Z" fill="white"/>
<path id="Vector_39" d="M186.851 365.924C178.431 370.748 164.718 370.748 156.298 365.924C147.878 361.1 147.878 353.117 156.298 348.232L160.713 350.789C154.699 354.262 154.699 359.894 160.713 363.368C166.727 366.841 176.446 366.829 182.436 363.368C188.426 359.906 188.451 354.262 182.436 350.789L186.851 348.232C195.271 353.117 195.271 361.04 186.851 365.924Z" fill="#8C50FF"/>
<path id="Vector_40" d="M223.73 387.26C215.31 392.145 201.61 392.145 193.178 387.26C184.746 382.376 184.758 374.453 193.178 369.581C201.598 364.708 215.31 364.696 223.73 369.581C232.15 374.465 232.15 382.388 223.73 387.26ZM197.592 372.137C191.578 375.598 191.578 381.243 197.592 384.704C203.606 388.165 213.325 388.177 219.316 384.704C225.306 381.23 225.33 375.598 219.316 372.125C213.301 368.652 203.558 368.664 197.568 372.137H197.592Z" fill="white"/>
<path id="Vector_41" d="M223.73 387.26C215.31 392.144 201.61 392.144 193.178 387.26C184.746 382.376 184.758 374.452 193.178 369.58L197.592 372.137C191.578 375.598 191.578 381.242 197.592 384.703C203.606 388.164 213.325 388.177 219.316 384.703C221.27 383.728 222.789 382.054 223.574 380.012L229.72 380.651C228.62 383.529 226.482 385.887 223.73 387.26Z" fill="#8C50FF"/>
<path id="Vector_42" d="M260.573 408.593C252.153 413.478 238.441 413.478 230.021 408.593C221.601 403.709 221.601 395.786 230.021 390.913C238.441 386.041 252.153 386.089 260.573 390.913C268.993 395.737 268.993 403.721 260.573 408.593ZM234.435 393.47C228.421 396.931 228.421 402.575 234.435 406.049C240.45 409.522 250.169 409.51 256.159 406.049C262.149 402.588 262.173 396.931 256.159 393.47C250.145 390.009 240.426 389.997 234.435 393.47Z" fill="white"/>
<path id="Vector_43" d="M239.536 411.814C236.197 411.322 232.974 410.232 230.021 408.594C221.601 403.77 221.601 395.786 230.021 390.914L234.435 393.471C228.421 396.932 228.421 402.576 234.435 406.049C236.534 407.209 238.824 407.981 241.195 408.329L239.536 411.814Z" fill="#8C50FF"/>
<path id="Vector_44" d="M221.096 336.198C231.313 336.198 239.596 331.403 239.596 325.489C239.596 319.574 231.313 314.779 221.096 314.779C210.879 314.779 202.596 319.574 202.596 325.489C202.596 331.403 210.879 336.198 221.096 336.198Z" fill="#8C50FF"/>
<path id="Vector_45" d="M309.289 270.495L238.694 311.366L230.514 306.989L301.121 266.117L309.289 270.495Z" fill="#8C50FF"/>
<path id="Vector_46" d="M301.747 291.854L253.056 320.038L245.189 315.479L293.88 287.295L301.747 291.854Z" fill="white"/>
<path id="Vector_47" d="M259.515 358.436C269.732 358.436 278.015 353.641 278.015 347.727C278.015 341.812 269.732 337.018 259.515 337.018C249.298 337.018 241.015 341.812 241.015 347.727C241.015 353.641 249.298 358.436 259.515 358.436Z" fill="#8C50FF"/>
<path id="Vector_48" d="M347.407 292.914L276.812 333.785L268.945 329.227L339.553 288.355L347.407 292.914Z" fill="#8C50FF"/>
<path id="Vector_49" d="M340.178 314.092L291.487 342.276L283.62 337.717L332.311 309.533L340.178 314.092Z" fill="white"/>
<path id="Vector_50" d="M298.728 381.133C308.945 381.133 317.228 376.339 317.228 370.424C317.228 364.51 308.945 359.715 298.728 359.715C288.511 359.715 280.228 364.51 280.228 370.424C280.228 376.339 288.511 381.133 298.728 381.133Z" fill="#8C50FF"/>
<path id="Vector_51" d="M386.62 315.611L316.013 356.483L308.146 351.924L378.754 311.053L386.62 315.611Z" fill="#8C50FF"/>
<path id="Vector_52" d="M379.379 336.789L330.687 364.973L322.821 360.415L371.512 332.23L379.379 336.789Z" fill="white"/>
<path id="Vector_53" d="M223.73 319.845H221.481C221.203 319.834 220.929 319.901 220.687 320.038C220.593 320.074 220.512 320.137 220.452 320.218C220.392 320.299 220.357 320.396 220.35 320.496V326.828H215.467C215.189 326.817 214.914 326.883 214.673 327.021C214.579 327.057 214.498 327.119 214.438 327.201C214.378 327.282 214.343 327.378 214.336 327.479V328.781C214.343 328.882 214.378 328.978 214.438 329.06C214.498 329.141 214.579 329.203 214.673 329.24C214.914 329.377 215.189 329.444 215.467 329.433H223.73C224.008 329.444 224.283 329.377 224.524 329.24C224.618 329.203 224.699 329.141 224.759 329.06C224.819 328.978 224.854 328.882 224.861 328.781V320.532C224.854 320.432 224.819 320.335 224.759 320.254C224.699 320.173 224.618 320.11 224.524 320.074C224.286 319.924 224.011 319.845 223.73 319.845Z" fill="white"/>
<path id="Vector_54" d="M262.462 342.265H260.201C259.924 342.263 259.652 342.329 259.407 342.458C259.318 342.499 259.241 342.563 259.184 342.644C259.127 342.724 259.092 342.818 259.082 342.916V349.223H254.271C253.994 349.218 253.72 349.285 253.477 349.416C253.248 349.549 253.14 349.694 253.14 349.875V351.177C253.147 351.279 253.183 351.377 253.242 351.46C253.302 351.543 253.383 351.608 253.477 351.647C253.72 351.779 253.994 351.845 254.271 351.84H262.522C262.799 351.842 263.071 351.776 263.316 351.647C263.407 351.605 263.485 351.539 263.542 351.456C263.599 351.374 263.633 351.277 263.641 351.177V342.928C263.631 342.83 263.596 342.736 263.539 342.656C263.482 342.575 263.405 342.511 263.316 342.47C263.055 342.325 262.76 342.254 262.462 342.265Z" fill="white"/>
<path id="Vector_55" d="M301.35 364.779H299.101C298.823 364.768 298.548 364.835 298.307 364.972C298.078 365.105 297.97 365.249 297.97 365.43V371.725H293.086C292.809 371.714 292.534 371.781 292.293 371.918C292.076 372.051 291.956 372.196 291.956 372.377V373.679C291.964 373.779 292 373.875 292.059 373.956C292.119 374.037 292.2 374.1 292.293 374.137C292.534 374.275 292.809 374.341 293.086 374.33H301.338C301.615 374.341 301.89 374.275 302.132 374.137C302.226 374.101 302.307 374.039 302.367 373.957C302.426 373.876 302.462 373.78 302.469 373.679V365.418C302.469 365.237 302.36 365.092 302.132 364.96C301.893 364.829 301.622 364.766 301.35 364.779Z" fill="white"/>
<path id="Vector_56" d="M426.904 314.224L321.931 253.466L337.977 244.18L442.95 304.938L426.904 314.224Z" fill="white"/>
</g>
</g>
</g>
<defs>
<clipPath id="clip0">
<rect width="552" height="603" fill="white"/>
</clipPath>
</defs>
</svg>
