<svg width="722" height="417" viewBox="0 0 722 417" fill="none" xmlns="http://www.w3.org/2000/svg">
<g id="Asset 128" clip-path="url(#clip0)">
<g id="Layer 2">
<g id="Layer 1">
<path id="Vector" d="M683.903 252.277C658.386 318.33 610.414 376.199 543.779 401.631C535.113 404.934 526.263 407.735 517.275 410.022C469.735 422.141 417.725 417.925 373.901 395.844C355.302 386.465 338.341 374.072 319.674 364.827C301.007 355.583 279.691 349.532 259.373 354.095C241.879 358.024 227.12 369.284 212.259 379.314C177.227 402.961 135.104 421.675 93.6214 413.553C74.5334 409.82 55.7372 399.481 46.8725 382.199C27.2792 343.992 64.2314 298.567 56.7478 256.313C51.9589 229.27 30.0863 209.018 16.4888 185.152C-6.78174 144.33 -4.03082 90.1033 23.2539 51.8514C50.5386 13.5994 100.909 -6.6913 147.09 1.98626C203.406 12.5722 245.983 60.2202 300.744 77.0814C334.99 87.6168 372.172 84.4736 404.88 70.5985C457.726 48.1749 530.328 13.7846 589.799 19.3863C621.423 22.3667 652.441 36.399 673.314 60.3605C699.701 90.6085 707.611 133.553 703.21 173.438C700.188 200.438 693.699 226.936 683.903 252.277Z" fill="url(#paint0_linear)"/>
<path id="Vector_2" d="M700.88 304.522C699.707 304.521 698.538 304.38 697.399 304.101C693.796 303.216 690.667 300.989 688.65 297.875C686.634 294.76 685.883 290.994 686.55 287.345C687.217 283.696 689.251 280.439 692.239 278.239C695.226 276.039 698.941 275.062 702.625 275.508C706.308 275.953 709.683 277.788 712.059 280.636C714.436 283.485 715.635 287.133 715.412 290.836C715.19 294.539 713.562 298.017 710.861 300.561C708.16 303.104 704.59 304.521 700.88 304.522ZM700.84 281.969C698.908 281.975 697.044 282.689 695.601 283.974C694.159 285.26 693.237 287.029 693.009 288.948C692.782 290.867 693.265 292.802 694.368 294.389C695.47 295.976 697.116 297.105 698.993 297.562C701.031 298.056 703.182 297.721 704.972 296.63C706.762 295.539 708.046 293.782 708.54 291.744C709.035 289.707 708.699 287.557 707.608 285.767C706.517 283.977 704.759 282.694 702.721 282.2C702.106 282.046 701.475 281.967 700.84 281.964V281.969Z" fill="#E7F6FF"/>
<path id="Vector_3" d="M687.588 319.963C688.416 316.55 686.32 313.112 682.906 312.284C679.492 311.457 676.053 313.553 675.225 316.966C674.397 320.379 676.494 323.817 679.908 324.645C683.322 325.473 686.76 323.377 687.588 319.963Z" fill="#E7F6FF"/>
<path id="Vector_4" d="M30.9845 303.136C27.1284 303.052 23.4612 301.451 20.779 298.68C18.0967 295.908 16.616 292.192 16.6581 288.336C16.7002 284.48 18.2619 280.796 21.004 278.084C23.7462 275.373 27.4475 273.852 31.3045 273.852C35.1615 273.852 38.8628 275.373 41.605 278.084C44.3471 280.796 45.9088 284.48 45.9509 288.336C45.993 292.192 44.5123 295.908 41.83 298.68C39.1478 301.451 35.4806 303.052 31.6245 303.136H30.9845ZM30.9845 280.589H30.6533C28.5706 280.634 26.5899 281.499 25.141 282.995C23.6921 284.492 22.8921 286.499 22.9146 288.582C22.9372 290.664 23.7805 292.654 25.2614 294.118C26.7423 295.583 28.7414 296.405 30.8245 296.405C32.9076 296.405 34.9066 295.583 36.3876 294.118C37.8685 292.654 38.7118 290.664 38.7343 288.582C38.7569 286.499 37.9569 284.492 36.508 282.995C35.0591 281.499 33.0783 280.634 30.9957 280.589H30.9845Z" fill="#E7F6FF"/>
<path id="Vector_5" d="M20.5418 327.71C24.0515 327.559 26.774 324.592 26.6226 321.083C26.4712 317.574 23.5033 314.852 19.9936 315.003C16.4839 315.155 13.7614 318.122 13.9128 321.631C14.0642 325.14 17.0321 327.862 20.5418 327.71Z" fill="#E7F6FF"/>
<path id="Vector_6" d="M398.087 66.377C394.59 66.3806 391.208 65.1324 388.552 62.8584C385.896 60.5844 384.142 57.4349 383.608 53.9801C383.074 50.5252 383.794 46.9932 385.639 44.0235C387.484 41.0537 390.332 38.8425 393.666 37.7901C397.001 36.7377 400.602 36.9136 403.818 38.286C407.034 39.6584 409.652 42.1366 411.199 45.272C412.745 48.4074 413.118 51.9928 412.249 55.3791C411.381 58.7655 409.328 61.7291 406.463 63.7334C404.008 65.4512 401.084 66.374 398.087 66.377ZM398.042 43.8356C395.998 43.8336 394.033 44.6202 392.555 46.0314C391.077 47.4426 390.201 49.3695 390.11 51.4106C390.018 53.4517 390.717 55.4494 392.063 56.9875C393.408 58.5255 395.295 59.4851 397.331 59.6664C399.366 59.8477 401.393 59.2366 402.989 57.9604C404.585 56.6843 405.627 54.8417 405.897 52.8165C406.168 50.7913 405.646 48.7399 404.441 47.0898C403.236 45.4397 401.44 44.3182 399.429 43.9591C398.971 43.8775 398.507 43.8362 398.042 43.8356Z" fill="#E7F6FF"/>
<path id="Vector_7" d="M368.401 67.1737C371.281 65.1718 371.993 61.2141 369.991 58.3341C367.989 55.4541 364.03 54.7423 361.149 56.7443C358.269 58.7462 357.557 62.7039 359.559 65.5839C361.562 68.4639 365.52 69.1757 368.401 67.1737Z" fill="#E7F6FF"/>
<path id="Vector_8" d="M721.978 141.816C721.978 135.645 719.525 129.725 715.16 125.361C710.795 120.997 704.875 118.545 698.701 118.545C698.185 118.545 697.674 118.545 697.169 118.596C697.202 118.091 697.219 117.58 697.219 117.063C697.219 113.756 696.513 110.487 695.149 107.473C693.785 104.46 691.794 101.772 689.309 99.5886C686.824 97.4051 683.903 95.7763 680.739 94.8107C677.574 93.8451 674.241 93.5649 670.96 93.9888C667.679 94.4127 664.526 95.5309 661.712 97.269C658.897 99.0071 656.485 101.325 654.637 104.068C652.789 106.812 651.547 109.917 650.994 113.178C650.441 116.439 650.59 119.78 651.43 122.979C648.617 120.94 645.383 119.556 641.965 118.929C638.547 118.302 635.032 118.448 631.678 119.357C628.324 120.266 625.216 121.914 622.582 124.18C619.948 126.446 617.855 129.273 616.457 132.454C615.059 135.635 614.39 139.088 614.501 142.56C614.612 146.033 615.499 149.437 617.097 152.522C618.696 155.606 620.965 158.295 623.738 160.388C626.511 162.482 629.718 163.929 633.123 164.622C634.513 168.308 636.817 171.581 639.818 174.134C642.82 176.688 646.42 178.437 650.282 179.219C654.145 180.001 658.142 179.79 661.901 178.605C665.659 177.421 669.055 175.301 671.77 172.446C674.549 174.543 677.762 175.99 681.174 176.68C684.586 177.371 688.109 177.288 691.484 176.437C694.86 175.586 698.001 173.989 700.678 171.764C703.354 169.538 705.497 166.741 706.949 163.578C711.366 161.903 715.17 158.925 717.854 155.038C720.539 151.151 721.977 146.54 721.978 141.816Z" fill="white"/>
<path id="Vector_9" d="M107.483 85.8779C107.486 82.8205 106.886 79.7925 105.718 76.9669C104.55 74.1413 102.836 71.5735 100.675 69.4102C98.5141 67.247 95.9478 65.5307 93.123 64.3595C90.2982 63.1883 87.2702 62.5851 84.2121 62.5844C83.6956 62.5844 83.1848 62.5843 82.6795 62.6349C82.7132 62.1297 82.73 61.6189 82.73 61.1025C82.7294 57.7951 82.0235 54.5257 80.6596 51.5124C79.2956 48.4992 77.3049 45.8112 74.82 43.6277C72.3352 41.4442 69.4133 39.8154 66.2492 38.8498C63.0852 37.8842 59.7516 37.604 56.4706 38.0279C53.1897 38.4518 50.0369 39.57 47.2223 41.3081C44.4077 43.0461 41.996 45.3641 40.148 48.1074C38.2999 50.8507 37.058 53.9563 36.5051 57.2173C35.9521 60.4782 36.1008 63.8196 36.9411 67.0186C34.128 64.9789 30.8938 63.5948 27.4758 62.968C24.0578 62.3412 20.5427 62.4874 17.1887 63.3961C13.8346 64.3047 10.7266 65.9527 8.09268 68.219C5.4588 70.4854 3.36591 73.3125 1.96759 76.4931C0.569268 79.6737 -0.0989943 83.127 0.011844 86.5995C0.122682 90.072 1.00981 93.4756 2.60812 96.5606C4.20643 99.6456 6.47536 102.334 9.24841 104.427C12.0215 106.521 15.2283 107.968 18.6335 108.661C20.0251 112.344 22.3286 115.614 25.3286 118.165C28.3285 120.715 31.9267 122.463 35.7864 123.245C39.646 124.027 43.641 123.817 47.3974 122.635C51.1537 121.452 54.5486 119.336 57.2643 116.485C60.0427 118.582 63.2561 120.029 66.6678 120.72C70.0796 121.41 73.6029 121.327 76.9783 120.476C80.3536 119.625 83.4951 118.028 86.1714 115.803C88.8477 113.577 90.9907 110.78 92.4425 107.617C96.8586 105.946 100.662 102.971 103.348 99.0888C106.035 95.2062 107.476 90.5988 107.483 85.8779Z" fill="white"/>
<path id="Vector_10" d="M535.69 417H200.807V409.703H535.69C536.658 409.703 537.586 410.088 538.27 410.772C538.954 411.456 539.339 412.384 539.339 413.352C539.339 414.319 538.954 415.247 538.27 415.931C537.586 416.615 536.658 417 535.69 417Z" fill="#426572"/>
<path id="Vector_11" d="M185.828 417H165.353C164.385 417 163.457 416.615 162.773 415.931C162.089 415.247 161.704 414.319 161.704 413.352C161.704 412.384 162.089 411.456 162.773 410.772C163.457 410.088 164.385 409.703 165.353 409.703H185.828C186.796 409.703 187.724 410.088 188.408 410.772C189.093 411.456 189.477 412.384 189.477 413.352C189.477 414.319 189.093 415.247 188.408 415.931C187.724 416.615 186.796 417 185.828 417Z" fill="#426572"/>
<path id="Vector_12" d="M152.065 417H145.541C144.573 417 143.645 416.615 142.961 415.931C142.276 415.247 141.892 414.319 141.892 413.352C141.892 412.384 142.276 411.456 142.961 410.772C143.645 410.088 144.573 409.703 145.541 409.703H152.065C153.032 409.703 153.961 410.088 154.645 410.772C155.329 411.456 155.714 412.384 155.714 413.352C155.714 414.319 155.329 415.247 154.645 415.931C153.961 416.615 153.032 417 152.065 417Z" fill="#426572"/>
<path id="Vector_13" d="M653.115 417H550.185V409.703H653.115C654.082 409.703 655.011 410.088 655.695 410.772C656.379 411.456 656.764 412.384 656.764 413.352C656.764 414.319 656.379 415.247 655.695 415.931C655.011 416.615 654.082 417 653.115 417Z" fill="#426572"/>
<path id="Vector_14" d="M126.879 417H23.9443V409.703H126.879C127.847 409.703 128.775 410.088 129.46 410.772C130.144 411.456 130.529 412.384 130.529 413.352C130.529 414.319 130.144 415.247 129.46 415.931C128.775 416.615 127.847 417 126.879 417Z" fill="#426572"/>
<path id="Vector_15" d="M430.66 120.381V379.697C430.66 385.885 428.613 391.9 424.839 396.805C421.065 401.71 415.775 405.231 409.793 406.819C407.449 407.436 405.036 407.748 402.612 407.745H280.185C272.74 407.745 265.6 404.788 260.336 399.525C255.071 394.262 252.114 387.123 252.114 379.68V120.364C252.106 115.18 253.541 110.096 256.257 105.68C256.611 105.119 256.987 104.558 257.38 103.996C260.472 99.6914 264.719 96.3484 269.63 94.3534C272.973 92.9945 276.548 92.2987 280.157 92.3047H402.601C406.287 92.3062 409.937 93.0336 413.342 94.4453C416.747 95.857 419.841 97.9255 422.447 100.533C425.052 103.14 427.119 106.234 428.528 109.64C429.937 113.045 430.662 116.695 430.66 120.381Z" fill="#E8EDF7"/>
<path id="Vector_16" d="M399.238 412.262H276.85C268.512 412.262 260.515 408.95 254.619 403.055C248.723 397.161 245.411 389.166 245.411 380.829V121.513C245.402 113.573 248.412 105.926 253.832 100.122C254.191 99.7292 254.595 99.3139 255.095 98.8424C260.94 93.2154 268.742 90.0779 276.855 90.0918H399.244C407.582 90.0918 415.578 93.4035 421.474 99.2982C427.37 105.193 430.683 113.188 430.683 121.524V380.841C430.687 384.97 429.877 389.059 428.299 392.875C426.72 396.69 424.405 400.157 421.484 403.077C418.564 405.996 415.096 408.311 411.28 409.889C407.464 411.467 403.373 412.277 399.244 412.273L399.238 412.262ZM276.85 96.8161C270.474 96.8041 264.343 99.2719 259.755 103.698C259.367 104.068 259.059 104.377 258.784 104.68C254.516 109.248 252.148 115.268 252.159 121.519V380.835C252.159 387.385 254.761 393.667 259.394 398.298C264.027 402.93 270.31 405.532 276.861 405.532H399.249C402.494 405.536 405.709 404.901 408.708 403.661C411.707 402.421 414.431 400.602 416.726 398.308C419.021 396.014 420.84 393.29 422.08 390.291C423.32 387.293 423.956 384.079 423.951 380.835V121.519C423.951 114.969 421.349 108.687 416.716 104.055C412.084 99.4237 405.801 96.8217 399.249 96.8217L276.85 96.8161Z" fill="#426572"/>
<path id="Vector_17" d="M393.966 110.287H283.222C273.96 110.287 266.452 117.793 266.452 127.053V376.412C266.452 385.672 273.96 393.178 283.222 393.178H393.966C403.228 393.178 410.736 385.672 410.736 376.412V127.053C410.736 117.793 403.228 110.287 393.966 110.287Z" fill="#C1CEDE"/>
<path id="Vector_18" d="M285.76 120.951H391.44C393.947 120.951 396.352 121.947 398.125 123.72C399.898 125.492 400.894 127.896 400.894 130.403V369.154C400.894 372.794 399.448 376.284 396.874 378.858C394.3 381.432 390.808 382.878 387.168 382.878H290.043C286.403 382.878 282.911 381.432 280.337 378.858C277.763 376.284 276.317 372.794 276.317 369.154V130.403C276.317 127.898 277.311 125.496 279.082 123.724C280.852 121.951 283.254 120.954 285.76 120.951Z" fill="#F1F6FE"/>
<path id="Vector_19" d="M393.961 395.423H283.222C277.883 395.417 272.764 393.294 268.989 389.52C265.214 385.745 263.09 380.628 263.084 375.29V125.93C263.09 120.592 265.214 115.475 268.989 111.7C272.764 107.926 277.883 105.803 283.222 105.797H393.961C399.3 105.803 404.418 107.926 408.194 111.7C411.969 115.475 414.093 120.592 414.098 125.93V375.284C414.094 380.623 411.971 385.742 408.196 389.518C404.42 393.293 399.301 395.417 393.961 395.423ZM283.222 112.532C279.669 112.537 276.263 113.95 273.751 116.461C271.239 118.973 269.825 122.378 269.821 125.93V375.284C269.825 378.836 271.239 382.241 273.751 384.753C276.263 387.265 279.669 388.678 283.222 388.682H393.961C397.513 388.678 400.919 387.265 403.432 384.753C405.944 382.241 407.357 378.836 407.362 375.284V125.93C407.357 122.378 405.944 118.973 403.432 116.461C400.919 113.95 397.513 112.537 393.961 112.532H283.222Z" fill="#426572"/>
<path id="Vector_20" d="M378.292 198.971H305.123C301.402 198.971 298.386 201.986 298.386 205.706V256.222C298.386 259.942 301.402 262.958 305.123 262.958H378.292C382.012 262.958 385.029 259.942 385.029 256.222V205.706C385.029 201.986 382.012 198.971 378.292 198.971Z" fill="#87D6FE"/>
<path id="Vector_21" d="M378.14 267.449H304.971C302.291 267.449 299.721 266.385 297.826 264.49C295.93 262.595 294.866 260.026 294.866 257.346V206.83C294.866 204.15 295.93 201.58 297.826 199.686C299.721 197.791 302.291 196.727 304.971 196.727H378.14C380.82 196.727 383.391 197.791 385.286 199.686C387.181 201.58 388.246 204.15 388.246 206.83V257.346C388.246 260.026 387.181 262.595 385.286 264.49C383.391 266.385 380.82 267.449 378.14 267.449ZM304.971 203.462C304.078 203.462 303.221 203.817 302.589 204.448C301.958 205.08 301.603 205.937 301.603 206.83V257.346C301.603 258.239 301.958 259.096 302.589 259.727C303.221 260.359 304.078 260.714 304.971 260.714H378.14C379.034 260.714 379.89 260.359 380.522 259.727C381.154 259.096 381.509 258.239 381.509 257.346V206.83C381.509 205.937 381.154 205.08 380.522 204.448C379.89 203.817 379.034 203.462 378.14 203.462H304.971Z" fill="#426572"/>
<path id="Vector_22" d="M376.714 275.307H307.464C303.743 275.307 300.727 278.322 300.727 282.042V303.932C300.727 307.652 303.743 310.668 307.464 310.668H376.714C380.435 310.668 383.451 307.652 383.451 303.932V282.042C383.451 278.322 380.435 275.307 376.714 275.307Z" fill="#A8EF9E"/>
<path id="Vector_23" d="M375.67 314.597H306.425C303.745 314.597 301.175 313.532 299.28 311.638C297.385 309.743 296.32 307.173 296.32 304.494V282.603C296.32 279.924 297.385 277.354 299.28 275.459C301.175 273.564 303.745 272.5 306.425 272.5H375.67C378.35 272.5 380.92 273.564 382.816 275.459C384.711 277.354 385.775 279.924 385.775 282.603V304.494C385.775 307.173 384.711 309.743 382.816 311.638C380.92 313.532 378.35 314.597 375.67 314.597ZM306.42 279.235C305.526 279.235 304.669 279.59 304.038 280.222C303.406 280.853 303.051 281.71 303.051 282.603V304.494C303.051 305.387 303.406 306.243 304.038 306.875C304.669 307.507 305.526 307.861 306.42 307.861H375.67C376.563 307.861 377.42 307.507 378.052 306.875C378.684 306.243 379.038 305.387 379.038 304.494V282.603C379.038 281.71 378.684 280.853 378.052 280.222C377.42 279.59 376.563 279.235 375.67 279.235H306.42Z" fill="#426572"/>
<path id="Vector_24" d="M376.714 323.018H307.464C303.743 323.018 300.727 326.033 300.727 329.753V351.643C300.727 355.363 303.743 358.379 307.464 358.379H376.714C380.435 358.379 383.451 355.363 383.451 351.643V329.753C383.451 326.033 380.435 323.018 376.714 323.018Z" fill="#A8EF9E"/>
<path id="Vector_25" d="M375.67 362.308H306.425C303.745 362.308 301.175 361.243 299.28 359.349C297.385 357.454 296.32 354.884 296.32 352.205V330.314C296.32 327.635 297.385 325.065 299.28 323.17C301.175 321.275 303.745 320.211 306.425 320.211H375.67C378.35 320.211 380.92 321.275 382.816 323.17C384.711 325.065 385.775 327.635 385.775 330.314V352.205C385.775 354.884 384.711 357.454 382.816 359.349C380.92 361.243 378.35 362.308 375.67 362.308ZM306.42 326.946C305.526 326.946 304.669 327.301 304.038 327.933C303.406 328.564 303.051 329.421 303.051 330.314V352.205C303.051 353.098 303.406 353.954 304.038 354.586C304.669 355.217 305.526 355.572 306.42 355.572H375.67C376.563 355.572 377.42 355.217 378.052 354.586C378.684 353.954 379.038 353.098 379.038 352.205V330.314C379.038 329.421 378.684 328.564 378.052 327.933C377.42 327.301 376.563 326.946 375.67 326.946H306.42Z" fill="#426572"/>
<path id="Vector_26" d="M403.623 129.165V135.597C403.623 132.33 400.973 128.643 397.706 128.643L353.915 125.325C350.648 125.325 351.316 129.221 351.316 132.487V129.17C351.316 127.601 351.939 126.096 353.049 124.987C354.159 123.877 355.664 123.254 357.233 123.254H397.655C398.436 123.247 399.21 123.395 399.934 123.689C400.657 123.983 401.315 124.418 401.87 124.967C402.425 125.516 402.865 126.17 403.166 126.891C403.467 127.611 403.622 128.384 403.623 129.165Z" fill="#307FC3"/>
<path id="Vector_27" opacity="0.5" d="M403.415 128.535V138.549L352.006 125.471C352.533 124.603 353.275 123.885 354.16 123.387C355.045 122.888 356.043 122.626 357.059 122.625H397.481C398.259 122.623 399.03 122.774 399.749 123.07C400.469 123.366 401.123 123.801 401.674 124.35C402.225 124.899 402.663 125.551 402.961 126.269C403.26 126.988 403.414 127.758 403.415 128.535Z" fill="#4DA7DF"/>
<path id="Vector_28" opacity="0.1" d="M461.617 161.309C460.737 161.717 459.779 161.928 458.81 161.926H461.617V161.309Z" fill="#606060"/>
<path id="Vector_29" opacity="0.2" d="M301.546 97.3786V165.996C301.546 167.783 302.256 169.496 303.52 170.759C304.783 172.022 306.497 172.732 308.283 172.732H430.385V160.384H461.617V82.2238C461.617 80.4374 460.907 78.7242 459.643 77.4611C458.38 76.1979 456.666 75.4883 454.88 75.4883H317.266V97.3786H301.546Z" fill="#606060"/>
<path id="Vector_30" d="M470.599 63.1387H324.07C320.35 63.1387 317.333 66.1543 317.333 69.8742V152.384C317.333 156.104 320.35 159.119 324.07 159.119H470.599C474.32 159.119 477.336 156.104 477.336 152.384V69.8742C477.336 66.1543 474.32 63.1387 470.599 63.1387Z" fill="white"/>
<path id="Vector_31" d="M422.317 150.98H318.456V157.155H422.317V150.98Z" fill="#DEE6F1"/>
<path id="Vector_32" d="M476.146 153.085V70.5753C476.146 68.789 475.436 67.0758 474.173 65.8126C472.909 64.5495 471.196 63.8398 469.409 63.8398H421.756V159.821H469.409C471.196 159.821 472.909 159.111 474.173 157.848C475.436 156.585 476.146 154.871 476.146 153.085Z" fill="#E8837E"/>
<path id="Vector_33" d="M461.617 161.309C460.737 161.717 459.779 161.928 458.81 161.926H468.354C469.275 161.927 470.187 161.738 471.033 161.372C471.879 161.006 472.641 160.471 473.272 159.799C473.81 159.223 474.245 158.558 474.557 157.834C474.66 157.594 474.75 157.349 474.827 157.099C475.01 156.479 475.103 155.837 475.102 155.191V72.6808C475.102 70.8944 474.392 69.1812 473.129 67.9181C471.865 66.6549 470.152 65.9453 468.365 65.9453H458.821C460.608 65.9453 462.321 66.6549 463.585 67.9181C464.848 69.1812 465.558 70.8944 465.558 72.6808V155.191C465.56 156.602 465.113 157.978 464.283 159.12C464.113 159.367 463.926 159.601 463.722 159.821C463.531 160.018 463.331 160.206 463.121 160.383C462.663 160.757 462.157 161.069 461.617 161.309Z" fill="#D66765"/>
<path id="Vector_34" d="M470.532 163.749H324.003C322.391 163.748 320.803 163.361 319.371 162.621C317.94 161.881 316.706 160.809 315.773 159.495C314.55 157.79 313.894 155.744 313.897 153.646V71.1365C313.896 70.6575 313.93 70.1792 313.999 69.7052C314.351 67.3014 315.555 65.1039 317.391 63.5124C319.227 61.9209 321.573 61.0412 324.003 61.0332H470.532C471.539 61.0318 472.54 61.1832 473.502 61.4822H473.693L474.254 61.7573C476.125 62.5134 477.729 63.809 478.862 65.4791C479.995 67.1493 480.605 69.1186 480.615 71.1365V153.646C480.613 155.6 480.045 157.512 478.979 159.15C477.913 160.788 476.394 162.081 474.608 162.874C473.326 163.45 471.937 163.749 470.532 163.749ZM324.003 67.7687C323.191 67.769 322.406 68.0629 321.793 68.5961C321.18 69.1294 320.781 69.8661 320.668 70.6706C320.645 70.8248 320.634 70.9805 320.634 71.1365V153.646C320.634 154.341 320.852 155.018 321.258 155.583C321.567 156.023 321.978 156.383 322.456 156.632C322.934 156.881 323.464 157.012 324.003 157.014H470.532C470.996 157.015 471.456 156.918 471.879 156.728C472.479 156.466 472.99 156.035 473.349 155.488C473.708 154.941 473.899 154.301 473.9 153.646V71.1365C473.9 70.5459 473.744 69.9658 473.448 69.4545C473.153 68.9432 472.728 68.5186 472.216 68.2234L471.655 67.9539C471.294 67.8262 470.914 67.7635 470.532 67.7687H324.003Z" fill="#426572"/>
<path id="Vector_35" d="M426.248 65.3848H419.511V159.682H426.248V65.3848Z" fill="#426572"/>
<path id="Vector_36" d="M341.036 129.097C341.054 128.922 341.086 128.75 341.132 128.58L350.507 98.0629C350.627 97.7357 350.817 97.4388 351.065 97.1934C351.312 96.948 351.611 96.76 351.939 96.6428C352.76 96.2945 353.646 96.1224 354.538 96.1377C355.443 96.1243 356.34 96.3162 357.16 96.6989C357.503 96.8391 357.811 97.053 358.063 97.3256C358.314 97.5982 358.502 97.9227 358.614 98.2762L367.978 128.794C368.024 128.952 368.055 129.113 368.074 129.276C368.074 129.987 367.638 130.601 366.766 131.117C365.964 131.613 365.042 131.881 364.099 131.892C362.901 131.892 362.19 131.471 361.966 130.629L360.119 124.174H349.721L347.913 130.629C347.648 131.478 346.847 131.903 345.511 131.903C344.449 131.902 343.407 131.625 342.485 131.1C341.519 130.565 341.036 129.897 341.036 129.097ZM351.108 119.235H359.501L355.279 104.338L351.108 119.235Z" fill="#426572"/>
<path id="Vector_37" d="M372.167 129.961V98.3768C372.176 98.1046 372.252 97.8389 372.387 97.6023C372.522 97.3657 372.712 97.1654 372.941 97.0185C373.524 96.6189 374.223 96.4217 374.929 96.4572H383.518C386.98 96.4572 389.746 97.3459 391.816 99.1233C393.886 100.901 394.921 103.707 394.921 107.543V120.789C394.921 124.64 393.886 127.446 391.816 129.209C389.746 130.971 386.982 131.869 383.524 131.903H374.934C374.228 131.938 373.53 131.741 372.947 131.341C372.713 131.193 372.52 130.989 372.384 130.749C372.248 130.508 372.173 130.237 372.167 129.961ZM378.477 126.368H383.53C386.928 126.368 388.627 124.509 388.627 120.789V107.543C388.627 103.823 386.928 101.963 383.53 101.963H378.477V126.368Z" fill="#426572"/>
</g>
</g>
</g>
<defs>
<linearGradient id="paint0_linear" x1="0.741197" y1="208.345" x2="704.349" y2="208.345" gradientUnits="userSpaceOnUse">
<stop stop-color="#C5E9FA"/>
<stop offset="1" stop-color="#C4F4EA"/>
</linearGradient>
<clipPath id="clip0">
<rect width="722" height="417" fill="white"/>
</clipPath>
</defs>
</svg>
