<svg width="602" height="516" viewBox="0 0 602 516" fill="none" xmlns="http://www.w3.org/2000/svg">
<g id="Web_hosting_SVG" clip-path="url(#clip0)">
<g id="&#208;&#161;&#208;&#187;&#208;&#190;&#208;&#185; 2">
<g id="&#208;&#161;&#208;&#187;&#208;&#190;&#208;&#185; 1">
<path id="Vector" opacity="0.4" d="M129.273 429.16L128.202 427.305L300.229 327.924L302.373 329.153L129.273 429.16Z" fill="#D6D8E5"/>
<path id="Vector_2" opacity="0.4" d="M234.819 226.477L233.747 228.334L496.819 380.315L497.891 378.458L234.819 226.477Z" fill="#D6D8E5"/>
<path id="Vector_3" opacity="0.4" d="M500.972 271.795L408.963 218.64L500.972 165.486L592.982 218.64L500.972 271.795Z" fill="#D6D8E5"/>
<path id="Vector_4" d="M590.068 206.894L509.822 160.535L429.587 206.894L417.812 200.1V213.689L509.822 266.843L601.831 213.689V200.1L590.068 206.894Z" fill="#D5D6E0"/>
<path id="Vector_5" d="M509.822 253.254L417.812 200.099L509.822 146.945L601.831 200.099L509.822 253.254Z" fill="#E9EAF4"/>
<path id="Vector_6" d="M509.822 88.2489L433.452 44.1184L509.822 0L586.204 44.1184L509.822 88.2489Z" fill="#E9EAF4"/>
<path id="Vector_7" d="M433.452 44.1191V201.437L509.822 245.568V88.2496L433.452 44.1191Z" fill="#DFE0EA"/>
<path id="Vector_8" d="M509.822 245.568L586.204 201.437V44.1191L509.822 88.2496V245.568Z" fill="#D5D6E0"/>
<path id="Vector_9" d="M535.768 107.501L522.548 115.139V99.8628L535.768 92.2246V107.501Z" fill="#2B303F"/>
<path id="Vector_10" d="M577.679 83.2842L539.801 105.163V89.8863L577.679 68.0078V83.2842Z" fill="#2B303F"/>
<path id="Vector_11" d="M535.768 129.765L522.548 137.403V122.126L535.768 114.488V129.765Z" fill="#2B303F"/>
<path id="Vector_12" d="M577.679 105.55L539.801 127.44V112.152L577.679 90.2852V105.55Z" fill="#2B303F"/>
<path id="Vector_13" d="M535.768 152.028L522.548 159.667V144.39L535.768 136.752V152.028Z" fill="#2B303F"/>
<path id="Vector_14" d="M577.679 127.825L539.801 149.704V134.427L577.679 112.549V127.825Z" fill="#2B303F"/>
<path id="Vector_15" d="M535.768 174.294L522.548 181.932V166.656L535.768 159.018V174.294Z" fill="#2B303F"/>
<path id="Vector_16" d="M577.679 150.089L539.801 171.967V156.691L577.679 134.812V150.089Z" fill="#2B303F"/>
<path id="Vector_17" d="M535.768 196.558L522.548 204.208V188.919L535.768 181.281V196.558Z" fill="#2B303F"/>
<path id="Vector_18" d="M577.679 172.355L539.801 194.233V178.957L577.679 157.078V172.355Z" fill="#2B303F"/>
<path id="Vector_19" d="M456.135 92.6587L443 85.0687V69.8887L456.135 77.4787V92.6587Z" fill="#2B303F"/>
<path id="Vector_20" d="M497.77 116.705L460.145 94.971V79.791L497.77 101.537V116.705Z" fill="#2B303F"/>
<path id="Vector_21" d="M456.135 114.778L443 107.188V92.0195L456.135 99.5975V114.778Z" fill="#2B303F"/>
<path id="Vector_22" d="M497.77 138.838L460.145 117.092V101.924L497.77 123.658V138.838Z" fill="#2B303F"/>
<path id="Vector_23" d="M456.135 136.897L443 129.307V114.139L456.135 121.729V136.897Z" fill="#2B303F"/>
<path id="Vector_24" d="M497.77 160.957L460.145 139.223V124.043L497.77 145.777V160.957Z" fill="#2B303F"/>
<path id="Vector_25" d="M456.135 159.028L443 151.438V136.258L456.135 143.848V159.028Z" fill="#2B303F"/>
<path id="Vector_26" d="M497.77 183.076L460.145 161.342V146.162L497.77 167.896V183.076Z" fill="#2B303F"/>
<path id="Vector_27" d="M456.135 181.149L443 173.559V158.379L456.135 165.969V181.149Z" fill="#2B303F"/>
<path id="Vector_28" d="M497.77 205.195L460.145 183.461V168.281L497.77 190.015V205.195Z" fill="#2B303F"/>
<path id="Vector_29" d="M433.452 192.617L509.822 235.94L586.204 191.062V201.436L509.822 245.566L433.452 201.436V192.617Z" fill="#8C50FF"/>
<path id="Vector_30" d="M511.459 45.1543C509.811 45.534 508.099 45.534 506.451 45.1543L502.658 47.347C506.746 48.7569 511.188 48.7569 515.276 47.347L511.459 45.1543Z" fill="#2B303F"/>
<path id="Vector_31" d="M515.107 43.0587L518.924 45.2634C519.49 44.8393 519.949 44.2891 520.265 43.6565C520.581 43.0239 520.746 42.3263 520.746 41.619C520.746 40.9117 520.581 40.2141 520.265 39.5815C519.949 38.9489 519.49 38.3988 518.924 37.9746L515.119 40.1673C515.43 40.5857 515.597 41.0937 515.595 41.615C515.593 42.1364 515.422 42.6429 515.107 43.0587Z" fill="#2B303F"/>
<path id="Vector_32" d="M506.463 38.0708C508.111 37.6973 509.823 37.6973 511.471 38.0708L515.312 35.8661C511.224 34.4561 506.782 34.4561 502.694 35.8661L506.463 38.0708Z" fill="#2B303F"/>
<path id="Vector_33" d="M502.826 40.1673L499.022 37.9746C498.454 38.3973 497.993 38.9469 497.675 39.5797C497.357 40.2125 497.192 40.9108 497.192 41.619C497.192 42.3272 497.357 43.0256 497.675 43.6583C497.993 44.2911 498.454 44.8408 499.022 45.2634L502.826 43.0708C502.511 42.6526 502.34 42.1429 502.34 41.619C502.34 41.0951 502.511 40.5854 502.826 40.1673Z" fill="#2B303F"/>
<path id="Vector_34" d="M521.693 46.8662L525.305 48.9865C531.133 44.6614 531.133 38.5653 525.305 34.2402L521.693 36.3727C525.558 39.493 525.558 43.7338 521.693 46.8662Z" fill="#2B303F"/>
<path id="Vector_35" d="M518.057 48.9609C512.204 51.2016 505.73 51.2016 499.877 48.9609L496.205 51.0813C504.375 54.4543 513.547 54.4543 521.717 51.0813L518.057 48.9609Z" fill="#2B303F"/>
<path id="Vector_36" d="M499.877 34.2643C505.727 32.029 512.195 32.029 518.045 34.2643L521.717 32.1439C513.545 28.7828 504.377 28.7828 496.205 32.1439L499.877 34.2643Z" fill="#2B303F"/>
<path id="Vector_37" d="M496.241 36.3606L492.569 34.2402C486.741 38.5653 486.741 44.6614 492.569 48.9865L496.241 46.8662C492.436 43.7338 492.364 39.493 496.241 36.3606Z" fill="#2B303F"/>
<path id="Vector_38" d="M528.111 50.5997L531.723 52.708C541.017 46.3348 541.017 36.9497 531.723 30.5645L528.111 32.6728C535.431 37.8533 535.419 45.371 528.111 50.5997Z" fill="#2B303F"/>
<path id="Vector_39" d="M524.474 52.6719C515.469 56.9006 502.453 56.9006 493.447 52.6719L489.835 54.7802C500.876 60.1414 517.118 60.1414 528.159 54.7802L524.474 52.6719Z" fill="#2B303F"/>
<path id="Vector_40" d="M493.447 30.5523C502.465 26.3236 515.469 26.3236 524.474 30.5523L528.086 28.444C517.046 23.0708 500.804 23.0708 489.763 28.444L493.447 30.5523Z" fill="#2B303F"/>
<path id="Vector_41" d="M489.811 32.6494L486.199 30.541C476.904 36.9263 476.904 46.3114 486.199 52.6846L489.811 50.5762C482.503 45.3716 482.503 37.8539 489.811 32.6494Z" fill="#2B303F"/>
<path id="Vector_42" opacity="0.4" d="M212.638 278.216L120.629 225.062L212.638 171.908L304.648 225.062L212.638 278.216Z" fill="#D6D8E5"/>
<path id="Vector_43" d="M301.723 213.316L221.488 166.969L141.253 213.316L129.478 206.521V220.123L221.488 273.265L313.498 220.123V206.521L301.723 213.316Z" fill="#D5D6E0"/>
<path id="Vector_44" d="M221.488 259.676L129.478 206.521L221.488 153.367L313.498 206.521L221.488 259.676Z" fill="#E9EAF4"/>
<path id="Vector_45" d="M221.488 94.6708L145.118 50.5403L221.488 6.42188L297.87 50.5403L221.488 94.6708Z" fill="#E9EAF4"/>
<path id="Vector_46" d="M145.118 50.5391V207.857L221.488 251.987V94.6695L145.118 50.5391Z" fill="#DFE0EA"/>
<path id="Vector_47" d="M221.488 251.987L297.87 207.857V50.5391L221.488 94.6695V251.987Z" fill="#D5D6E0"/>
<path id="Vector_48" d="M247.434 113.923L234.214 121.561V106.285L247.434 98.6465V113.923Z" fill="#2B303F"/>
<path id="Vector_49" d="M289.333 89.7181L251.468 111.597V96.3082L289.333 74.4297V89.7181Z" fill="#2B303F"/>
<path id="Vector_50" d="M247.434 136.187L234.214 143.825V128.548L247.434 120.91V136.187Z" fill="#2B303F"/>
<path id="Vector_51" d="M289.333 111.983L251.468 133.862V118.586L289.333 96.707V111.983Z" fill="#2B303F"/>
<path id="Vector_52" d="M247.434 158.45L234.214 166.088V150.812L247.434 143.174V158.45Z" fill="#2B303F"/>
<path id="Vector_53" d="M289.333 134.247L251.468 156.126V140.849L289.333 118.971V134.247Z" fill="#2B303F"/>
<path id="Vector_54" d="M247.434 180.714L234.214 188.352V173.076L247.434 165.438V180.714Z" fill="#2B303F"/>
<path id="Vector_55" d="M289.333 156.511L251.468 178.389V163.113L289.333 141.234V156.511Z" fill="#2B303F"/>
<path id="Vector_56" d="M247.434 202.991L234.214 210.629V195.353L247.434 187.715V202.991Z" fill="#2B303F"/>
<path id="Vector_57" d="M289.333 178.774L251.468 200.653V185.377L289.333 163.498V178.774Z" fill="#2B303F"/>
<path id="Vector_58" d="M167.801 99.0806L154.666 91.4906V76.3105L167.801 83.9006V99.0806Z" fill="#2B303F"/>
<path id="Vector_59" d="M209.424 123.127L171.799 101.393V86.2129L209.424 107.959V123.127Z" fill="#2B303F"/>
<path id="Vector_60" d="M167.801 121.199L154.666 113.609V98.4414L167.801 106.031V121.199Z" fill="#2B303F"/>
<path id="Vector_61" d="M209.424 145.258L171.799 123.524V108.344L209.424 130.078V145.258Z" fill="#2B303F"/>
<path id="Vector_62" d="M167.801 143.331L154.666 135.741V120.561L167.801 128.151V143.331Z" fill="#2B303F"/>
<path id="Vector_63" d="M209.424 167.377L171.799 145.643V130.463L209.424 152.197V167.377Z" fill="#2B303F"/>
<path id="Vector_64" d="M167.801 165.45L154.666 157.86V142.68L167.801 150.27V165.45Z" fill="#2B303F"/>
<path id="Vector_65" d="M209.424 189.498L171.799 167.764V152.584L209.424 174.318V189.498Z" fill="#2B303F"/>
<path id="Vector_66" d="M167.801 187.569L154.666 179.979V164.799L167.801 172.389V187.569Z" fill="#2B303F"/>
<path id="Vector_67" d="M209.424 211.617L171.799 189.883V174.703L209.424 196.449V211.617Z" fill="#2B303F"/>
<path id="Vector_68" d="M145.118 199.039L221.488 242.374L297.87 197.484V207.857L221.488 251.988L145.118 207.857V199.039Z" fill="#8C50FF"/>
<path id="Vector_69" d="M223.125 51.5879C221.477 51.9614 219.765 51.9614 218.117 51.5879L214.312 53.7806C218.404 55.1905 222.85 55.1905 226.942 53.7806L223.125 51.5879Z" fill="#2B303F"/>
<path id="Vector_70" d="M226.761 49.4789L230.578 51.6837C231.132 51.2585 231.581 50.7113 231.89 50.0845C232.199 49.4578 232.36 48.7683 232.36 48.0694C232.36 47.3705 232.199 46.6809 231.89 46.0542C231.581 45.4274 231.132 44.8803 230.578 44.4551L226.773 46.6477C227.07 47.0605 227.229 47.5567 227.227 48.0653C227.224 48.5739 227.062 49.0687 226.761 49.4789Z" fill="#2B303F"/>
<path id="Vector_71" d="M218.129 44.4914C219.777 44.1179 221.489 44.1179 223.137 44.4914L226.942 42.2987C222.849 40.8952 218.405 40.8952 214.312 42.2987L218.129 44.4914Z" fill="#2B303F"/>
<path id="Vector_72" d="M214.493 46.5872L210.7 44.3945C210.146 44.8197 209.697 45.3669 209.388 45.9936C209.078 46.6204 208.918 47.3099 208.918 48.0088C208.918 48.7077 209.078 49.3973 209.388 50.024C209.697 50.6508 210.146 51.1979 210.7 51.6231L214.505 49.4304C214.202 49.0191 214.037 48.5219 214.035 48.0108C214.033 47.4997 214.193 47.0011 214.493 46.5872Z" fill="#2B303F"/>
<path id="Vector_73" d="M233.359 53.2861L236.971 55.4065C242.799 51.0814 242.799 44.9853 236.971 40.6602L233.299 42.7926C237.188 45.925 237.188 50.1537 233.359 53.2861Z" fill="#2B303F"/>
<path id="Vector_74" d="M229.711 55.4199C223.861 57.6553 217.393 57.6553 211.543 55.4199L207.931 57.5403C216.101 60.9133 225.273 60.9133 233.443 57.5403L229.711 55.4199Z" fill="#2B303F"/>
<path id="Vector_75" d="M211.543 40.6846C217.393 38.4492 223.861 38.4492 229.711 40.6846L233.383 38.5521C225.211 35.191 216.043 35.191 207.871 38.5521L211.543 40.6846Z" fill="#2B303F"/>
<path id="Vector_76" d="M207.907 42.7802L204.235 40.6719C198.407 44.9849 198.407 51.081 204.235 55.4061L207.907 53.2857C204.042 50.1534 204.03 45.9126 207.907 42.7802Z" fill="#2B303F"/>
<path id="Vector_77" d="M239.777 56.9981L243.389 59.1064C252.683 52.7332 252.683 43.3481 243.389 36.9629L239.777 39.0712C247.085 44.2758 247.085 51.8056 239.777 56.9981Z" fill="#2B303F"/>
<path id="Vector_78" d="M236.141 59.0938C227.123 63.3225 214.119 63.3225 205.113 59.0938L201.501 61.2021C212.542 66.5633 228.784 66.5633 239.825 61.2021L236.141 59.0938Z" fill="#2B303F"/>
<path id="Vector_79" d="M205.113 36.9742C214.131 32.7575 227.135 32.7455 236.141 36.9742L239.753 34.8659C228.712 29.4926 212.47 29.4926 201.429 34.8659L205.113 36.9742Z" fill="#2B303F"/>
<path id="Vector_80" d="M201.477 39.0712L197.865 36.9629C188.571 43.3481 188.571 52.7332 197.865 59.1064L201.477 56.9981C194.169 51.8056 194.169 44.2878 201.477 39.0712Z" fill="#2B303F"/>
<path id="Vector_81" opacity="0.4" d="M351.688 357.646L259.679 304.492L351.688 251.338L443.698 304.492L351.688 357.646Z" fill="#D6D8E5"/>
<path id="Vector_82" d="M440.772 292.746L360.538 246.387L280.303 292.746L268.528 285.951V299.541L360.538 352.695L452.547 299.553V285.951L440.772 292.746Z" fill="#D5D6E0"/>
<path id="Vector_83" d="M360.538 339.105L268.528 285.951L360.538 232.797L452.547 285.951L360.538 339.105Z" fill="#E9EAF4"/>
<path id="Vector_84" d="M360.538 174.1L284.168 129.97L360.538 85.8516L436.907 129.982L360.538 174.1Z" fill="#E9EAF4"/>
<path id="Vector_85" d="M284.168 129.971V287.289L360.538 331.419V174.101L284.168 129.971Z" fill="#DFE0EA"/>
<path id="Vector_86" d="M360.538 331.419L436.908 287.3V129.982L360.538 174.101V331.419Z" fill="#D5D6E0"/>
<path id="Vector_87" d="M386.484 193.353L373.264 200.991V185.714L386.484 178.076V193.353Z" fill="#2B303F"/>
<path id="Vector_88" d="M428.383 169.149L390.518 191.028V175.752L428.383 153.873V169.149Z" fill="#2B303F"/>
<path id="Vector_89" d="M386.484 215.616L373.264 223.254V207.978L386.484 200.34V215.616Z" fill="#2B303F"/>
<path id="Vector_90" d="M428.383 191.413L390.518 213.292V198.015L428.383 176.137V191.413Z" fill="#2B303F"/>
<path id="Vector_91" d="M386.484 237.88L373.264 245.518V230.242L386.484 222.604V237.88Z" fill="#2B303F"/>
<path id="Vector_92" d="M428.383 213.677L390.518 235.555V220.279L428.383 198.4V213.677Z" fill="#2B303F"/>
<path id="Vector_93" d="M386.484 260.144L373.264 267.782V252.505L386.484 244.867V260.144Z" fill="#2B303F"/>
<path id="Vector_94" d="M428.383 235.94L390.518 257.819V242.543L428.383 220.664V235.94Z" fill="#2B303F"/>
<path id="Vector_95" d="M386.484 282.421L373.264 290.059V274.783L386.484 267.145V282.421Z" fill="#2B303F"/>
<path id="Vector_96" d="M428.383 258.204L390.518 280.083V264.806L428.383 242.928V258.204Z" fill="#2B303F"/>
<path id="Vector_97" d="M306.84 178.51L293.704 170.92V155.752L306.84 163.33V178.51Z" fill="#2B303F"/>
<path id="Vector_98" d="M348.474 202.556L310.849 180.822V165.654L348.474 187.388V202.556Z" fill="#2B303F"/>
<path id="Vector_99" d="M306.84 200.629L293.704 193.039V177.871L306.84 185.461V200.629Z" fill="#2B303F"/>
<path id="Vector_100" d="M348.474 224.687L310.849 202.953V187.773L348.474 209.507V224.687Z" fill="#2B303F"/>
<path id="Vector_101" d="M306.84 222.76L293.704 215.17V199.99L306.84 207.58V222.76Z" fill="#2B303F"/>
<path id="Vector_102" d="M348.474 246.808L310.849 225.075V209.895L348.474 231.628V246.808Z" fill="#2B303F"/>
<path id="Vector_103" d="M306.84 244.879L293.704 237.289V222.109L306.84 229.699V244.879Z" fill="#2B303F"/>
<path id="Vector_104" d="M348.474 268.928L310.849 247.194V232.014L348.474 253.748V268.928Z" fill="#2B303F"/>
<path id="Vector_105" d="M306.84 267L293.704 259.41V244.23L306.84 251.82V267Z" fill="#2B303F"/>
<path id="Vector_106" d="M348.474 291.047L310.849 269.313V254.133L348.474 275.879V291.047Z" fill="#2B303F"/>
<path id="Vector_107" d="M284.168 278.468L360.538 321.803L436.907 276.914V287.299L360.538 331.418L284.168 287.287V278.468Z" fill="#8C50FF"/>
<path id="Vector_108" d="M362.175 131.018C360.526 131.391 358.815 131.391 357.166 131.018L353.362 133.21C357.454 134.62 361.9 134.62 365.992 133.21L362.175 131.018Z" fill="#2B303F"/>
<path id="Vector_109" d="M365.811 128.911L369.628 131.115C370.182 130.69 370.631 130.143 370.94 129.516C371.25 128.889 371.41 128.2 371.41 127.501C371.41 126.802 371.25 126.113 370.94 125.486C370.631 124.859 370.182 124.312 369.628 123.887L365.823 126.079C366.12 126.492 366.279 126.988 366.277 127.497C366.275 128.005 366.112 128.5 365.811 128.911Z" fill="#2B303F"/>
<path id="Vector_110" d="M357.179 123.922C358.827 123.549 360.539 123.549 362.187 123.922L366.016 121.682C361.923 120.278 357.479 120.278 353.386 121.682L357.179 123.922Z" fill="#2B303F"/>
<path id="Vector_111" d="M353.543 126.019L349.726 123.826C349.172 124.251 348.723 124.799 348.413 125.425C348.104 126.052 347.944 126.742 347.944 127.44C347.944 128.139 348.104 128.829 348.413 129.456C348.723 130.082 349.172 130.63 349.726 131.055L353.531 128.862C353.231 128.448 353.071 127.95 353.073 127.438C353.075 126.927 353.24 126.43 353.543 126.019Z" fill="#2B303F"/>
<path id="Vector_112" d="M372.409 132.716L376.021 134.836C381.849 130.511 381.849 124.415 376.021 120.09L372.349 122.222C376.262 125.355 376.274 129.583 372.409 132.716Z" fill="#2B303F"/>
<path id="Vector_113" d="M368.761 134.824C362.911 137.06 356.443 137.06 350.593 134.824L346.921 136.945C355.091 140.318 364.263 140.318 372.433 136.945L368.761 134.824Z" fill="#2B303F"/>
<path id="Vector_114" d="M350.593 120.114C356.443 117.879 362.911 117.879 368.761 120.114L372.433 117.994C364.261 114.632 355.093 114.632 346.921 117.994L350.593 120.114Z" fill="#2B303F"/>
<path id="Vector_115" d="M346.945 122.212L343.333 120.104C337.505 124.417 337.505 130.513 343.333 134.838L347.005 132.717C343.14 129.585 343.14 125.296 346.945 122.212Z" fill="#2B303F"/>
<path id="Vector_116" d="M378.827 136.428L382.439 138.536C391.734 132.163 391.734 122.778 382.439 116.393L378.827 118.501C386.135 123.705 386.135 131.223 378.827 136.428Z" fill="#2B303F"/>
<path id="Vector_117" d="M375.191 138.547C366.173 142.776 353.169 142.776 344.164 138.547L340.552 140.655C351.592 146.016 367.834 146.016 378.875 140.655L375.191 138.547Z" fill="#2B303F"/>
<path id="Vector_118" d="M344.163 116.404C353.181 112.187 366.185 112.175 375.191 116.404L378.803 114.296C367.762 108.922 351.52 108.922 340.479 114.296L344.163 116.404Z" fill="#2B303F"/>
<path id="Vector_119" d="M340.527 118.501L336.915 116.393C327.62 122.778 327.62 132.163 336.915 138.536L340.527 136.428C333.219 131.223 333.219 123.718 340.527 118.501Z" fill="#2B303F"/>
<path id="Vector_120" opacity="0.4" d="M501.141 444.064L409.131 390.91L501.141 337.756L593.151 390.91L501.141 444.064Z" fill="#D6D8E5"/>
<path id="Vector_121" d="M590.237 379.164L509.99 332.816L429.756 379.164L417.981 372.369V385.971L509.99 439.125L602 385.971V372.369L590.237 379.164Z" fill="#D5D6E0"/>
<path id="Vector_122" d="M509.99 425.523L417.981 372.369L509.99 319.215L602 372.369L509.99 425.523Z" fill="#E9EAF4"/>
<path id="Vector_123" d="M509.99 260.518L433.621 216.4L509.99 172.27L586.36 216.4L509.99 260.518Z" fill="#E9EAF4"/>
<path id="Vector_124" d="M433.621 216.398V373.704L509.99 417.835V260.517L433.621 216.398Z" fill="#DFE0EA"/>
<path id="Vector_125" d="M509.99 417.835L586.36 373.716V216.398L509.99 260.517V417.835Z" fill="#D5D6E0"/>
<path id="Vector_126" d="M535.936 279.771L522.717 287.409V272.132L535.936 264.494V279.771Z" fill="#2B303F"/>
<path id="Vector_127" d="M577.836 255.565L539.97 277.444V262.168L577.836 240.289V255.565Z" fill="#2B303F"/>
<path id="Vector_128" d="M535.936 302.034L522.717 309.672V294.396L535.936 286.758V302.034Z" fill="#2B303F"/>
<path id="Vector_129" d="M577.836 277.831L539.97 299.71V284.433L577.836 262.555V277.831Z" fill="#2B303F"/>
<path id="Vector_130" d="M535.936 324.298L522.717 331.936V316.66L535.936 309.021V324.298Z" fill="#2B303F"/>
<path id="Vector_131" d="M577.836 300.095L539.97 321.973V306.697L577.836 284.818V300.095Z" fill="#2B303F"/>
<path id="Vector_132" d="M535.936 346.573L522.717 354.212V338.935L535.936 331.297V346.573Z" fill="#2B303F"/>
<path id="Vector_133" d="M577.836 322.358L539.97 344.237V328.961L577.836 307.082V322.358Z" fill="#2B303F"/>
<path id="Vector_134" d="M535.936 368.839L522.717 376.477V361.201L535.936 353.562V368.839Z" fill="#2B303F"/>
<path id="Vector_135" d="M577.836 344.622L539.97 366.501V351.224L577.836 329.346V344.622Z" fill="#2B303F"/>
<path id="Vector_136" d="M456.304 264.928L443.168 257.338V242.17L456.304 249.76V264.928Z" fill="#2B303F"/>
<path id="Vector_137" d="M497.926 288.986L460.301 267.24V252.072L497.926 273.806V288.986Z" fill="#2B303F"/>
<path id="Vector_138" d="M456.304 287.047L443.168 279.469V264.289L456.304 271.879V287.047Z" fill="#2B303F"/>
<path id="Vector_139" d="M497.926 311.105L460.301 289.371V274.191L497.926 295.925V311.105Z" fill="#2B303F"/>
<path id="Vector_140" d="M456.304 309.178L443.168 301.588V286.408L456.304 293.998V309.178Z" fill="#2B303F"/>
<path id="Vector_141" d="M497.926 333.225L460.301 311.491V296.311L497.926 318.044V333.225Z" fill="#2B303F"/>
<path id="Vector_142" d="M456.304 331.297L443.168 323.707V308.527L456.304 316.117V331.297Z" fill="#2B303F"/>
<path id="Vector_143" d="M497.926 355.346L460.301 333.612V318.432L497.926 340.178V355.346Z" fill="#2B303F"/>
<path id="Vector_144" d="M456.304 353.417L443.168 345.826V330.646L456.304 338.236V353.417Z" fill="#2B303F"/>
<path id="Vector_145" d="M497.926 377.465L460.301 355.731V340.551L497.926 362.297V377.465Z" fill="#2B303F"/>
<path id="Vector_146" d="M433.621 364.898L509.99 408.222L586.36 363.332V373.717L509.99 417.836L433.621 373.705V364.898Z" fill="#8C50FF"/>
<path id="Vector_147" d="M511.628 217.436C509.98 217.815 508.267 217.815 506.619 217.436L502.814 219.628C506.907 221.038 511.352 221.038 515.444 219.628L511.628 217.436Z" fill="#2B303F"/>
<path id="Vector_148" d="M515.312 215.326L519.129 217.531C519.694 217.107 520.154 216.557 520.47 215.924C520.786 215.292 520.951 214.594 520.951 213.887C520.951 213.179 520.786 212.482 520.47 211.849C520.154 211.217 519.694 210.666 519.129 210.242L515.312 212.435C515.625 212.852 515.794 213.359 515.794 213.881C515.794 214.402 515.625 214.909 515.312 215.326Z" fill="#2B303F"/>
<path id="Vector_149" d="M506.631 210.34C508.279 209.961 509.992 209.961 511.64 210.34L515.445 208.136C511.354 206.739 506.917 206.739 502.827 208.136L506.631 210.34Z" fill="#2B303F"/>
<path id="Vector_150" d="M502.995 212.435L499.178 210.242C498.613 210.666 498.154 211.217 497.837 211.849C497.521 212.482 497.356 213.179 497.356 213.887C497.356 214.594 497.521 215.292 497.837 215.924C498.154 216.557 498.613 217.107 499.178 217.531L502.983 215.338C502.669 214.919 502.501 214.409 502.503 213.885C502.505 213.361 502.678 212.852 502.995 212.435Z" fill="#2B303F"/>
<path id="Vector_151" d="M521.862 219.133L525.474 221.254C531.301 216.941 531.301 210.833 525.474 206.52L521.802 208.64C525.727 211.772 525.727 216.013 521.862 219.133Z" fill="#2B303F"/>
<path id="Vector_152" d="M518.226 221.242C512.371 223.477 505.9 223.477 500.045 221.242L496.373 223.375C504.546 226.736 513.713 226.736 521.886 223.375L518.226 221.242Z" fill="#2B303F"/>
<path id="Vector_153" d="M500.045 206.532C505.897 204.303 512.362 204.303 518.214 206.532L521.826 204.412C513.653 201.05 504.486 201.05 496.313 204.412L500.045 206.532Z" fill="#2B303F"/>
<path id="Vector_154" d="M496.409 208.64L492.737 206.52C486.91 210.833 486.91 216.941 492.737 221.254L496.409 219.133C492.544 216.001 492.532 211.76 496.409 208.64Z" fill="#2B303F"/>
<path id="Vector_155" d="M528.279 222.881L531.891 224.989C541.186 218.616 541.186 209.231 531.891 202.846L528.279 204.954C535.587 210.135 535.587 217.64 528.279 222.881Z" fill="#2B303F"/>
<path id="Vector_156" d="M524.643 224.953C515.625 229.17 502.622 229.17 493.616 224.953L490.004 227.061C501.045 232.423 517.287 232.423 528.327 227.061L524.643 224.953Z" fill="#2B303F"/>
<path id="Vector_157" d="M493.64 202.821C502.658 198.605 515.661 198.593 524.667 202.821L528.279 200.713C517.238 195.34 500.996 195.352 489.956 200.713L493.64 202.821Z" fill="#2B303F"/>
<path id="Vector_158" d="M490.028 204.931L486.416 202.822C477.121 209.195 477.121 218.581 486.416 224.954L490.028 222.845C482.672 217.641 482.672 210.135 490.028 204.931Z" fill="#2B303F"/>
<path id="Vector_159" opacity="0.4" d="M59.3693 513.567L4.22609 481.701C-2.03471 478.086 -1.25211 471.785 5.97189 467.617L33.9649 451.437C41.1889 447.268 52.1092 446.811 58.3579 450.425L113.501 482.291C119.762 485.905 118.967 492.206 111.755 496.375L83.7623 512.555C76.5383 516.723 65.618 517.181 59.3693 513.567Z" fill="#D6D8E5"/>
<path id="Vector_160" d="M142.192 473.808V396.776L24.5015 383.523V461.038C24.4172 463.447 25.7777 465.664 28.6914 467.351L83.8346 499.205C90.0834 502.819 101.016 502.361 108.228 498.193L136.221 482.025C140.29 479.615 142.313 476.652 142.241 473.808H142.192Z" fill="#D6D8E5"/>
<path id="Vector_161" d="M142.168 405.186V396.753H133.114L82.8352 367.718C76.5865 364.104 65.6662 364.561 58.4422 368.73L30.4492 384.898C29.9517 385.186 29.4694 385.499 29.0044 385.837L24.5014 383.524C24.5014 383.524 24.5014 392.403 24.5014 392.705C24.4412 395.114 25.8017 397.319 28.7034 398.993L83.8466 430.847C90.0953 434.462 101.028 434.016 108.24 429.835L136.233 413.667C140.423 411.258 142.433 408.114 142.168 405.234V405.186Z" fill="#EDF0F9"/>
<path id="Vector_162" d="M83.8346 421.668L28.6914 389.814C22.4426 386.199 23.2252 379.899 30.4492 375.718L58.4422 359.55C65.6662 355.382 76.5865 354.924 82.8352 358.538L137.978 390.392C144.227 394.006 143.445 400.319 136.221 404.488L108.228 420.68C101.016 424.86 90.0833 425.282 83.8346 421.668Z" fill="#E2E5F2"/>
<g id="&#60;&#208;&#147;&#209;&#128;&#209;&#131;&#208;&#191;&#208;&#191;&#208;&#176;&#62;">
<path id="&#60;&#208;&#154;&#208;&#190;&#208;&#189;&#209;&#130;&#209;&#131;&#209;&#128;&#62;" d="M112.165 392.752C112.171 393.243 112.045 393.726 111.799 394.15C111.553 394.575 111.197 394.924 110.768 395.162L85.3636 409.836C84.9513 410.073 84.4843 410.197 84.0091 410.197C83.5338 410.197 83.0668 410.073 82.6546 409.836L47.1125 389.222C46.6985 388.986 46.3544 388.644 46.1154 388.231C45.8764 387.819 45.751 387.35 45.752 386.873V386.729L112.165 392.752Z" fill="#E5E5E5"/>
<path id="&#60;&#208;&#154;&#208;&#190;&#208;&#189;&#209;&#130;&#209;&#131;&#209;&#128;&#62;_2" d="M110.768 395.161L85.3636 409.836C84.9536 410.072 84.4885 410.197 84.0151 410.197V392.752H112.165C112.172 393.242 112.045 393.726 111.799 394.15C111.553 394.574 111.197 394.924 110.768 395.161Z" fill="#E5E5E5"/>
<g id="&#60;&#208;&#147;&#209;&#128;&#209;&#131;&#208;&#191;&#208;&#191;&#208;&#176;&#62;_2">
<path id="&#60;&#208;&#154;&#208;&#190;&#208;&#189;&#209;&#130;&#209;&#131;&#209;&#128;&#62;_3" d="M85.0144 408.414C84.7205 408.587 84.3859 408.678 84.0452 408.678C83.7044 408.678 83.3698 408.587 83.0759 408.414L46.1131 387.078C46.0082 387.045 45.9166 386.979 45.8516 386.89C45.7865 386.801 45.7515 386.694 45.7515 386.584C45.7515 386.474 45.7865 386.367 45.8516 386.278C45.9166 386.189 46.0082 386.123 46.1131 386.09L73.3597 370.344L112.165 392.752L85.0144 408.414Z" fill="#F4F4F4"/>
</g>
<g id="&#60;&#208;&#147;&#209;&#128;&#209;&#131;&#208;&#191;&#208;&#191;&#208;&#176;&#62;_3">
<path id="&#60;&#208;&#154;&#208;&#190;&#208;&#189;&#209;&#130;&#209;&#131;&#209;&#128;&#62;_4" d="M61.3076 392.764L61.5003 392.872L73.3597 399.727L79.8613 395.968L80.0419 395.86L68.0019 388.896L61.3076 392.764Z" fill="#BFBFBF"/>
<path id="&#60;&#208;&#154;&#208;&#190;&#208;&#189;&#209;&#130;&#209;&#131;&#209;&#128;&#62;_5" d="M61.5002 392.872L73.3596 399.727L79.8612 395.968L68.0018 389.113L61.5002 392.872Z" fill="#E5E5E5"/>
</g>
<path id="Vector_163" d="M101.87 394.114L103.544 395.162C103.627 395.206 103.72 395.229 103.815 395.229C103.909 395.229 104.002 395.206 104.086 395.162L105.711 394.222C105.88 394.126 105.892 393.993 105.711 393.909L104.001 392.921C103.918 392.877 103.825 392.854 103.731 392.854C103.636 392.854 103.543 392.877 103.46 392.921L101.834 393.861C101.75 393.957 101.738 394.029 101.87 394.114Z" fill="#2B303F"/>
<path id="Vector_164" d="M99.4504 392.752L101.16 393.74C101.246 393.784 101.341 393.807 101.437 393.807C101.533 393.807 101.628 393.784 101.714 393.74L103.339 392.8C103.508 392.704 103.52 392.559 103.339 392.487L101.63 391.499C101.546 391.455 101.453 391.432 101.359 391.432C101.264 391.432 101.171 391.455 101.088 391.499L99.4625 392.439C99.33 392.499 99.318 392.632 99.4504 392.752Z" fill="#2B303F"/>
<path id="Vector_165" d="M97.0303 391.318L98.74 392.306C98.8255 392.351 98.9205 392.374 99.0169 392.374C99.1133 392.374 99.2082 392.351 99.2938 392.306L100.919 391.367C101.076 391.27 101.1 391.126 100.919 391.053L99.2095 390.066C99.1261 390.021 99.0331 389.998 98.9386 389.998C98.8442 389.998 98.7512 390.021 98.6677 390.066L97.0423 391.005C96.9099 391.102 96.8978 391.234 97.0303 391.318Z" fill="#2B303F"/>
<path id="Vector_166" d="M94.6104 389.922L96.32 390.91C96.4056 390.954 96.5006 390.977 96.597 390.977C96.6933 390.977 96.7883 390.954 96.8739 390.91L98.4993 389.97C98.6558 389.874 98.6799 389.729 98.4993 389.657L96.7896 388.669C96.7062 388.625 96.6132 388.602 96.5187 388.602C96.4243 388.602 96.3312 388.625 96.2478 388.669L94.6224 389.609C94.49 389.693 94.4779 389.838 94.6104 389.922Z" fill="#2B303F"/>
<path id="Vector_167" d="M92.1903 388.523L93.9 389.511C93.9843 389.552 94.077 389.574 94.1709 389.574C94.2648 389.574 94.3575 389.552 94.4418 389.511L96.0793 388.571C96.2358 388.475 96.2599 388.33 96.0793 388.258L94.3696 387.27C94.2853 387.229 94.1926 387.207 94.0987 387.207C94.0047 387.207 93.9121 387.229 93.8278 387.27L92.1903 388.222C92.0699 388.294 92.0579 388.439 92.1903 388.523Z" fill="#2B303F"/>
<path id="Vector_168" d="M89.7702 387.126L91.4798 388.114C91.5641 388.155 91.6568 388.177 91.7507 388.177C91.8447 388.177 91.9374 388.155 92.0216 388.114L93.6591 387.174C93.8156 387.078 93.8397 386.933 93.6591 386.849L91.9494 385.861C91.8642 385.822 91.7719 385.803 91.6785 385.803C91.5851 385.803 91.4928 385.822 91.4076 385.861L89.7702 386.812C89.6498 386.897 89.6377 387.041 89.7702 387.126Z" fill="#2B303F"/>
<path id="Vector_169" d="M87.3501 385.729L89.0959 386.729C89.1811 386.767 89.2734 386.787 89.3668 386.787C89.4602 386.787 89.5525 386.767 89.6377 386.729L91.2751 385.777C91.4316 385.693 91.4557 385.548 91.2751 385.464L89.5654 384.476C89.4802 384.438 89.3879 384.418 89.2945 384.418C89.2012 384.418 89.1089 384.438 89.0236 384.476L87.3862 385.416C87.2297 385.524 87.2056 385.645 87.3501 385.729Z" fill="#2B303F"/>
<path id="Vector_170" d="M84.9301 384.318L86.6398 385.306C86.725 385.344 86.8173 385.364 86.9107 385.364C87.0041 385.364 87.0964 385.344 87.1816 385.306L88.819 384.354C88.9755 384.27 88.9996 384.126 88.819 384.041L87.1093 383.053C87.025 383.012 86.9324 382.99 86.8384 382.99C86.7445 382.99 86.6518 383.012 86.5675 383.053L84.9301 383.993C84.8097 384.101 84.7856 384.246 84.9301 384.318Z" fill="#2B303F"/>
<path id="Vector_171" d="M82.5099 382.922L84.2196 383.91C84.3039 383.951 84.3966 383.973 84.4905 383.973C84.5845 383.973 84.6771 383.951 84.7614 383.91L86.3989 382.958C86.5554 382.874 86.5795 382.729 86.3989 382.645L84.6892 381.657C84.6049 381.615 84.5122 381.594 84.4183 381.594C84.3243 381.594 84.2317 381.615 84.1474 381.657L82.5099 382.597C82.3895 382.705 82.3655 382.85 82.5099 382.922Z" fill="#2B303F"/>
<path id="Vector_172" d="M80.09 381.524L81.7997 382.511C81.8831 382.556 81.9761 382.579 82.0706 382.579C82.165 382.579 82.2581 382.556 82.3415 382.511L83.9789 381.572C84.1354 381.475 84.1475 381.343 83.9789 381.259L82.2693 380.271C82.1858 380.226 82.0928 380.203 81.9984 380.203C81.9039 380.203 81.8109 380.226 81.7275 380.271L80.09 381.21C79.9696 381.307 79.9455 381.451 80.09 381.524Z" fill="#2B303F"/>
<path id="Vector_173" d="M77.6701 380.127L79.3798 381.115C79.4632 381.159 79.5562 381.182 79.6507 381.182C79.7451 381.182 79.8381 381.159 79.9216 381.115L81.559 380.175C81.7155 380.079 81.7276 379.946 81.559 379.862L79.8493 378.874C79.7659 378.83 79.6729 378.807 79.5784 378.807C79.484 378.807 79.391 378.83 79.3075 378.874L77.6701 379.814C77.5497 379.91 77.5256 380.055 77.6701 380.127Z" fill="#2B303F"/>
<path id="Vector_174" d="M75.2498 378.729L76.9595 379.717C77.0429 379.761 77.1359 379.784 77.2304 379.784C77.3248 379.784 77.4179 379.761 77.5013 379.717L79.1267 378.777C79.2952 378.68 79.3073 378.548 79.1267 378.464L77.417 377.476C77.3314 377.431 77.2365 377.408 77.1401 377.408C77.0437 377.408 76.9487 377.431 76.8632 377.476L75.2378 378.415C75.1294 378.512 75.1053 378.644 75.2498 378.729Z" fill="#2B303F"/>
<path id="Vector_175" d="M72.8299 377.332L74.5396 378.32C74.623 378.364 74.716 378.388 74.8105 378.388C74.9049 378.388 74.9979 378.364 75.0814 378.32L76.7068 377.38C76.8753 377.284 76.8874 377.151 76.7068 377.067L74.9971 376.079C74.9115 376.035 74.8165 376.012 74.7202 376.012C74.6238 376.012 74.5288 376.035 74.4433 376.079L72.8179 377.019C72.7095 377.091 72.6854 377.248 72.8299 377.332Z" fill="#2B303F"/>
<path id="Vector_176" d="M69.242 375.26L72.1196 376.922C72.203 376.967 72.296 376.99 72.3905 376.99C72.4849 376.99 72.5779 376.967 72.6614 376.922L74.2868 375.983C74.4553 375.886 74.4674 375.742 74.2868 375.669L71.4092 374.007C71.3258 373.963 71.2328 373.939 71.1383 373.939C71.0439 373.939 70.9508 373.963 70.8674 374.007L69.23 374.947C69.1216 375.043 69.0975 375.176 69.242 375.26Z" fill="#2B303F"/>
<path id="Vector_177" d="M95.9346 393.391L97.6443 394.378C97.7306 394.42 97.8253 394.442 97.9212 394.442C98.0171 394.442 98.1117 394.42 98.1981 394.378L99.8235 393.427C99.98 393.342 100.004 393.198 99.8235 393.113L98.1138 392.126C98.0295 392.084 97.9368 392.062 97.8429 392.062C97.749 392.062 97.6563 392.084 97.572 392.126L95.9466 393.065C95.8142 393.174 95.8021 393.318 95.9346 393.391Z" fill="#2B303F"/>
<path id="Vector_178" d="M93.5146 391.992L95.2242 392.98C95.3077 393.025 95.4007 393.048 95.4952 393.048C95.5896 393.048 95.6826 393.025 95.7661 392.98L97.4035 392.04C97.56 391.944 97.5841 391.812 97.4035 391.727L95.6938 390.739C95.6104 390.695 95.5174 390.672 95.4229 390.672C95.3285 390.672 95.2354 390.695 95.152 390.739L93.5146 391.679C93.3942 391.775 93.3701 391.908 93.5146 391.992Z" fill="#2B303F"/>
<path id="Vector_179" d="M91.0827 390.596L92.8044 391.584C92.8878 391.628 92.9808 391.651 93.0753 391.651C93.1697 391.651 93.2627 391.628 93.3462 391.584L94.9716 390.644C95.1401 390.548 95.1522 390.403 94.9716 390.331L93.2499 389.343C93.1664 389.299 93.0734 389.275 92.979 389.275C92.8845 389.275 92.7915 389.299 92.7081 389.343L91.0827 390.283C90.9623 390.343 90.9502 390.511 91.0827 390.596Z" fill="#2B303F"/>
<path id="Vector_180" d="M88.6623 389.199L90.372 390.187C90.4572 390.225 90.5496 390.245 90.6429 390.245C90.7363 390.245 90.8286 390.225 90.9138 390.187L92.5513 389.235C92.7078 389.151 92.7319 389.006 92.5513 388.922L90.8777 387.934C90.7934 387.893 90.7007 387.871 90.6068 387.871C90.5129 387.871 90.4202 387.893 90.3359 387.934L88.6985 388.874C88.5419 388.97 88.5179 389.139 88.6623 389.199Z" fill="#2B303F"/>
<path id="Vector_181" d="M86.2544 387.801L87.9641 388.789C88.0497 388.833 88.1446 388.856 88.241 388.856C88.3374 388.856 88.4323 388.833 88.5179 388.789L90.1433 387.849C90.2998 387.753 90.3239 387.62 90.1433 387.536L88.4336 386.548C88.3502 386.504 88.2572 386.48 88.1627 386.48C88.0683 386.48 87.9753 386.504 87.8918 386.548L86.2664 387.488C86.134 387.584 86.122 387.729 86.2544 387.801Z" fill="#2B303F"/>
<path id="Vector_182" d="M83.8344 386.402L85.5441 387.39C85.6275 387.435 85.7205 387.458 85.815 387.458C85.9094 387.458 86.0024 387.435 86.0859 387.39L87.7233 386.451C87.8798 386.354 87.8919 386.21 87.7233 386.137L86.0136 385.149C85.9302 385.105 85.8372 385.082 85.7427 385.082C85.6483 385.082 85.5553 385.105 85.4718 385.149L83.8344 386.089C83.714 386.186 83.6899 386.318 83.8344 386.402Z" fill="#2B303F"/>
<path id="Vector_183" d="M81.4024 385.007L83.112 385.995C83.1993 386.033 83.2936 386.053 83.389 386.053C83.4843 386.053 83.5786 386.033 83.6659 385.995L85.2913 385.055C85.4598 384.958 85.4719 384.814 85.2913 384.729L83.5816 383.742C83.4964 383.703 83.4041 383.684 83.3107 383.684C83.2173 383.684 83.125 383.703 83.0398 383.742L81.4144 384.693C81.282 384.778 81.2699 384.922 81.4024 385.007Z" fill="#2B303F"/>
<path id="Vector_184" d="M78.9823 383.596L80.692 384.584C80.7755 384.628 80.8685 384.651 80.9629 384.651C81.0574 384.651 81.1504 384.628 81.2338 384.584L82.8713 383.644C83.0278 383.56 83.0519 383.415 82.8713 383.331L81.1616 382.343C81.0782 382.299 80.9851 382.275 80.8907 382.275C80.7962 382.275 80.7032 382.299 80.6198 382.343L78.9823 383.283C78.8619 383.379 78.8379 383.524 78.9823 383.596Z" fill="#2B303F"/>
<path id="Vector_185" d="M76.5624 382.199L78.2721 383.187C78.3555 383.232 78.4485 383.255 78.543 383.255C78.6374 383.255 78.7304 383.232 78.8139 383.187L80.4393 382.248C80.6078 382.151 80.6199 382.019 80.4393 381.934L78.7296 380.946C78.644 380.902 78.549 380.879 78.4527 380.879C78.3563 380.879 78.2613 380.902 78.1757 380.946L76.5503 381.886C76.4299 381.983 76.4179 382.115 76.5624 382.199Z" fill="#2B303F"/>
<path id="Vector_186" d="M74.1301 380.802L75.8398 381.79C75.9241 381.831 76.0168 381.853 76.1107 381.853C76.2046 381.853 76.2973 381.831 76.3816 381.79L78.019 380.85C78.1756 380.753 78.1996 380.609 78.019 380.537L76.3455 379.501C76.2612 379.459 76.1685 379.438 76.0746 379.438C75.9806 379.438 75.888 379.459 75.8037 379.501L74.1662 380.452C74.0097 380.573 73.9977 380.705 74.1301 380.802Z" fill="#2B303F"/>
<path id="Vector_187" d="M71.7101 379.392L73.4198 380.38C73.5041 380.422 73.5968 380.443 73.6907 380.443C73.7846 380.443 73.8773 380.422 73.9616 380.38L75.5991 379.429C75.7556 379.344 75.7676 379.2 75.5991 379.115L73.8894 378.127C73.8051 378.086 73.7124 378.064 73.6185 378.064C73.5245 378.064 73.4319 378.086 73.3476 378.127L71.7101 379.067C71.5897 379.176 71.5657 379.32 71.7101 379.392Z" fill="#2B303F"/>
<path id="Vector_188" d="M69.2781 377.994L70.9878 378.982C71.0733 379.027 71.1683 379.05 71.2647 379.05C71.3611 379.05 71.456 379.027 71.5416 378.982L73.167 378.042C73.3356 377.946 73.3476 377.814 73.167 377.729L71.4573 376.741C71.3739 376.697 71.2809 376.674 71.1864 376.674C71.092 376.674 70.999 376.697 70.9155 376.741L69.2901 377.681C69.1577 377.777 69.1456 377.922 69.2781 377.994Z" fill="#2B303F"/>
<path id="Vector_189" d="M98.3668 394.8L101.244 396.462C101.33 396.5 101.422 396.52 101.515 396.52C101.609 396.52 101.701 396.5 101.786 396.462L103.412 395.522C103.58 395.426 103.592 395.281 103.412 395.197L100.534 393.535C100.449 393.496 100.356 393.477 100.263 393.477C100.17 393.477 100.077 393.496 99.9922 393.535L98.3547 394.486C98.2464 394.571 98.2223 394.715 98.3668 394.8Z" fill="#2B303F"/>
<path id="Vector_190" d="M69.0854 375.332L70.7951 376.32C70.9275 376.392 70.9275 376.525 70.7951 376.609L69.0613 377.609C68.9826 377.648 68.8961 377.667 68.8085 377.667C68.7209 377.667 68.6344 377.648 68.5557 377.609L68.4232 377.525C68.35 377.49 68.2697 377.471 68.1884 377.471C68.1072 377.471 68.0269 377.49 67.9537 377.525L66.1356 378.585C66.0577 378.626 65.9709 378.648 65.8828 378.648C65.7947 378.648 65.7079 378.626 65.6299 378.585L64.5343 377.959C64.5064 377.944 64.483 377.923 64.4667 377.896C64.4503 377.87 64.4417 377.839 64.4417 377.808C64.4417 377.777 64.4503 377.746 64.4667 377.72C64.483 377.693 64.5064 377.671 64.5343 377.657L66.244 376.682L66.5931 376.477L66.846 376.32L67.1109 376.175L68.5797 375.332C68.6577 375.291 68.7445 375.27 68.8326 375.27C68.9207 375.27 69.0075 375.291 69.0854 375.332Z" fill="#2B303F"/>
<path id="Vector_191" d="M92.4791 399.536L94.1888 400.524C94.2731 400.565 94.3658 400.587 94.4597 400.587C94.5537 400.587 94.6463 400.565 94.7306 400.524L96.3681 399.584C96.5246 399.488 96.5487 399.343 96.3681 399.259L94.6584 398.271C94.5732 398.233 94.4809 398.213 94.3875 398.213C94.2941 398.213 94.2018 398.233 94.1166 398.271L92.4791 399.223C92.3587 399.307 92.3467 399.452 92.4791 399.536Z" fill="#2B303F"/>
<path id="Vector_192" d="M90.0712 398.137L91.7809 399.125C91.8643 399.169 91.9573 399.192 92.0517 399.192C92.1462 399.192 92.2392 399.169 92.3226 399.125L93.948 398.185C94.1166 398.089 94.1286 397.944 93.948 397.872L92.2384 396.884C92.1528 396.84 92.0578 396.816 91.9614 396.816C91.8651 396.816 91.7701 396.84 91.6845 396.884L90.0591 397.824C89.9387 397.92 89.9267 398.053 90.0712 398.137Z" fill="#2B303F"/>
<path id="Vector_193" d="M87.6513 396.74L89.3609 397.728C89.4444 397.773 89.5374 397.796 89.6318 397.796C89.7263 397.796 89.8193 397.773 89.9027 397.728L91.5402 396.789C91.6967 396.692 91.7208 396.56 91.5402 396.475L89.8305 395.487C89.7471 395.443 89.6541 395.42 89.5596 395.42C89.4652 395.42 89.3721 395.443 89.2887 395.487L87.6513 396.427C87.5309 396.523 87.5188 396.668 87.6513 396.74Z" fill="#2B303F"/>
<path id="Vector_194" d="M67.0989 384.862L68.8086 385.85C68.8929 385.891 68.9856 385.913 69.0795 385.913C69.1734 385.913 69.2661 385.891 69.3504 385.85L70.9758 384.898C71.1444 384.814 71.1564 384.669 70.9758 384.585L69.2661 383.597C69.1806 383.552 69.0856 383.529 68.9892 383.529C68.8928 383.529 68.7979 383.552 68.7123 383.597L67.0869 384.537C66.9785 384.645 66.9545 384.79 67.0989 384.862Z" fill="#2B303F"/>
<path id="Vector_195" d="M64.6789 383.475L66.3885 384.463C66.4728 384.505 66.5655 384.526 66.6594 384.526C66.7534 384.526 66.846 384.505 66.9303 384.463L68.5678 383.524C68.7243 383.427 68.7484 383.283 68.5678 383.198L66.8581 382.21C66.7729 382.172 66.6806 382.152 66.5872 382.152C66.4938 382.152 66.4015 382.172 66.3163 382.21L64.6789 383.162C64.5585 383.246 64.5464 383.391 64.6789 383.475Z" fill="#2B303F"/>
<path id="Vector_196" d="M62.2708 382.078L63.9805 383.066C64.0639 383.11 64.1569 383.134 64.2514 383.134C64.3458 383.134 64.4389 383.11 64.5223 383.066L66.1477 382.126C66.3162 382.03 66.3283 381.886 66.1477 381.813L64.438 380.825C64.3524 380.781 64.2575 380.758 64.1611 380.758C64.0647 380.758 63.9697 380.781 63.8842 380.825L62.2588 381.765C62.1504 381.91 62.1263 381.994 62.2708 382.078Z" fill="#2B303F"/>
<path id="Vector_197" d="M59.8507 380.705L61.5604 381.693C61.6438 381.737 61.7369 381.761 61.8313 381.761C61.9258 381.761 62.0188 381.737 62.1022 381.693L63.7396 380.753C63.8962 380.657 63.9202 380.524 63.7396 380.44L62.03 379.452C61.9465 379.408 61.8535 379.385 61.7591 379.385C61.6646 379.385 61.5716 379.408 61.4882 379.452L59.8507 380.392C59.7303 380.464 59.7183 380.597 59.8507 380.705Z" fill="#2B303F"/>
<path id="Vector_198" d="M84.617 394.994L86.9528 396.368C87.0371 396.409 87.1297 396.431 87.2237 396.431C87.3176 396.431 87.4103 396.409 87.4946 396.368L89.12 395.416C89.2885 395.332 89.3006 395.187 89.12 395.103L86.7842 393.753C86.699 393.715 86.6067 393.695 86.5133 393.695C86.4199 393.695 86.3276 393.715 86.2424 393.753L84.605 394.705C84.4966 394.765 84.4725 394.91 84.617 394.994Z" fill="#2B303F"/>
<path id="Vector_199" d="M69.5067 386.258L71.8425 387.607C71.9259 387.652 72.0189 387.675 72.1134 387.675C72.2079 387.675 72.3009 387.652 72.3843 387.607L74.0217 386.668C74.1783 386.571 74.1903 386.427 74.0217 386.354L71.686 385.005C71.6025 384.961 71.5095 384.937 71.4151 384.938C71.3206 384.937 71.2276 384.961 71.1442 385.005L69.5067 385.945C69.3863 386.041 69.3743 386.174 69.5067 386.258Z" fill="#2B303F"/>
<path id="Vector_200" d="M72.5409 388.018L83.9187 394.584C84.0021 394.628 84.0951 394.652 84.1896 394.652C84.284 394.652 84.377 394.628 84.4605 394.584L86.0859 393.644C86.2544 393.548 86.2665 393.403 86.0859 393.331L74.7562 386.729C74.6719 386.688 74.5792 386.666 74.4853 386.666C74.3914 386.666 74.2987 386.688 74.2144 386.729L72.589 387.681C72.4205 387.789 72.4084 387.934 72.5409 388.018Z" fill="#2B303F"/>
<path id="Vector_201" d="M92.9367 394.366L94.6464 395.354C94.7298 395.398 94.8228 395.421 94.9173 395.421C95.0117 395.421 95.1047 395.398 95.1882 395.354L96.8256 394.414C96.9821 394.33 96.9942 394.185 96.8256 394.101L95.1159 393.089C95.0325 393.045 94.9395 393.021 94.845 393.021C94.7506 393.021 94.6576 393.045 94.5741 393.089L92.9367 394.029C92.8163 394.149 92.7922 394.294 92.9367 394.366Z" fill="#2B303F"/>
<path id="Vector_202" d="M90.5167 392.97L92.2264 393.957C92.3107 393.999 92.4034 394.02 92.4973 394.02C92.5912 394.02 92.6839 393.999 92.7682 393.957L94.4057 393.006C94.5622 392.921 94.5863 392.777 94.4057 392.692L92.708 391.692C92.6246 391.648 92.5316 391.625 92.4371 391.625C92.3427 391.625 92.2496 391.648 92.1662 391.692L90.5288 392.632C90.3963 392.753 90.3722 392.897 90.5167 392.97Z" fill="#2B303F"/>
<path id="Vector_203" d="M88.0966 391.547L89.8063 392.535C89.8906 392.576 89.9832 392.598 90.0772 392.598C90.1711 392.598 90.2638 392.576 90.3481 392.535L91.9855 391.547C92.142 391.463 92.1661 391.318 91.9855 391.234L90.2999 390.342C90.2156 390.301 90.1229 390.279 90.029 390.279C89.9351 390.279 89.8424 390.301 89.7581 390.342L88.1207 391.282C87.9762 391.354 87.9521 391.547 88.0966 391.547Z" fill="#2B303F"/>
<path id="Vector_204" d="M85.6765 390.174L87.3862 391.162C87.4705 391.203 87.5632 391.225 87.6571 391.225C87.751 391.225 87.8437 391.203 87.928 391.162L89.5654 390.21C89.7219 390.126 89.746 389.981 89.5654 389.897L87.8919 388.897C87.8076 388.856 87.7149 388.834 87.621 388.834C87.527 388.834 87.4344 388.856 87.3501 388.897L85.7126 389.837C85.5561 389.957 85.5441 390.102 85.6765 390.174Z" fill="#2B303F"/>
<path id="Vector_205" d="M83.2565 388.788L84.9662 389.776C85.0534 389.814 85.1477 389.834 85.2431 389.834C85.3385 389.834 85.4328 389.814 85.52 389.776L87.1454 388.824C87.314 388.739 87.326 388.595 87.1454 388.511L85.4839 387.499C85.3996 387.457 85.3069 387.436 85.213 387.436C85.1191 387.436 85.0264 387.457 84.9421 387.499L83.3167 388.438C83.1361 388.559 83.0759 388.703 83.2565 388.788Z" fill="#2B303F"/>
<path id="Vector_206" d="M80.8485 387.39L82.5581 388.378C82.6434 388.417 82.7357 388.436 82.829 388.436C82.9224 388.436 83.0147 388.417 83.0999 388.378L84.7253 387.427C84.8939 387.342 84.9059 387.198 84.7253 387.113L83.0759 386.101C82.9886 386.063 82.8943 386.043 82.7989 386.043C82.7036 386.043 82.6093 386.063 82.522 386.101L80.8966 387.041C80.6679 387.162 80.6679 387.306 80.8485 387.39Z" fill="#2B303F"/>
<path id="Vector_207" d="M78.4286 385.994L80.1383 386.982C80.2235 387.02 80.3158 387.04 80.4092 387.04C80.5025 387.04 80.5949 387.02 80.6801 386.982L82.3055 386.042C82.474 385.946 82.4861 385.801 82.3055 385.717L80.668 384.705C80.5808 384.666 80.4865 384.646 80.3911 384.646C80.2957 384.646 80.2014 384.666 80.1142 384.705L78.4888 385.657C78.26 385.765 78.26 385.91 78.4286 385.994Z" fill="#2B303F"/>
<path id="Vector_208" d="M76.0086 384.595L77.7182 385.583C77.8025 385.624 77.8952 385.646 77.9891 385.646C78.0831 385.646 78.1758 385.624 78.26 385.583L79.8975 384.643C80.054 384.547 80.066 384.402 79.8975 384.318L78.26 383.306C78.1748 383.268 78.0825 383.248 77.9891 383.248C77.8958 383.248 77.8035 383.268 77.7182 383.306L76.0808 384.258C75.852 384.318 75.852 384.511 76.0086 384.595Z" fill="#2B303F"/>
<path id="Vector_209" d="M73.5884 383.199L75.2981 384.187C75.3824 384.228 75.475 384.25 75.569 384.25C75.6629 384.25 75.7556 384.228 75.8399 384.187L77.4773 383.247C77.6338 383.15 77.6579 383.006 77.4773 382.922L75.8519 381.91C75.7667 381.871 75.6744 381.852 75.581 381.852C75.4876 381.852 75.3953 381.871 75.3101 381.91L73.6727 382.861C73.4439 382.97 73.4439 383.114 73.5884 383.199Z" fill="#2B303F"/>
<path id="Vector_210" d="M71.1683 381.801L72.878 382.789C72.9623 382.83 73.055 382.852 73.1489 382.852C73.2428 382.852 73.3355 382.83 73.4198 382.789L75.0573 381.849C75.2138 381.753 75.2379 381.608 75.0573 381.536L73.4439 380.524C73.3596 380.482 73.2669 380.461 73.173 380.461C73.0791 380.461 72.9864 380.482 72.9021 380.524L71.2647 381.476C71.0359 381.572 71.0359 381.717 71.1683 381.801Z" fill="#2B303F"/>
<path id="Vector_211" d="M68.7483 380.404L70.458 381.392C70.5443 381.433 70.639 381.455 70.7349 381.455C70.8308 381.455 70.9254 381.433 71.0118 381.392L72.6372 380.452C72.7937 380.356 72.8178 380.211 72.6372 380.139L70.9275 379.151C70.8432 379.109 70.7505 379.088 70.6566 379.088C70.5627 379.088 70.47 379.109 70.3857 379.151L68.7603 380.103C68.6279 380.175 68.6279 380.32 68.7483 380.404Z" fill="#2B303F"/>
<path id="Vector_212" d="M66.3284 379.005L68.038 379.993C68.1236 380.038 68.2186 380.061 68.315 380.061C68.4113 380.061 68.5063 380.038 68.5919 379.993L70.2173 379.054C70.3858 378.957 70.3979 378.813 70.2173 378.74L68.5076 377.752C68.4233 377.711 68.3306 377.689 68.2367 377.689C68.1428 377.689 68.0501 377.711 67.9658 377.752L66.3404 378.704C66.22 378.777 66.22 378.921 66.3284 379.005Z" fill="#2B303F"/>
<path id="Vector_213" d="M95.3568 395.764L98.8845 397.813C98.9701 397.857 99.0651 397.88 99.1615 397.88C99.2578 397.88 99.3528 397.857 99.4384 397.813L101.064 396.873C101.22 396.776 101.244 396.632 101.064 396.56L97.524 394.487C97.4384 394.443 97.3435 394.42 97.2471 394.42C97.1507 394.42 97.0558 394.443 96.9702 394.487L95.3448 395.427C95.2244 395.548 95.2123 395.692 95.3568 395.764Z" fill="#2B303F"/>
<path id="Vector_214" d="M91.7929 396.366L93.5026 397.354C93.5869 397.395 93.6796 397.417 93.7735 397.417C93.8674 397.417 93.9601 397.395 94.0444 397.354L95.6698 396.402C95.8383 396.318 95.8504 396.173 95.6698 396.089L94.0083 395.161C93.9219 395.119 93.8272 395.098 93.7313 395.098C93.6355 395.098 93.5408 395.119 93.4544 395.161L91.829 396.101C91.6605 396.197 91.6484 396.366 91.7929 396.366Z" fill="#2B303F"/>
<path id="Vector_215" d="M89.373 395.029L91.0826 396.017C91.1679 396.055 91.2602 396.075 91.3535 396.075C91.4469 396.075 91.5392 396.055 91.6244 396.017L93.2619 395.065C93.4184 394.981 93.4304 394.836 93.2619 394.752L91.5522 393.764C91.4679 393.723 91.3752 393.701 91.2813 393.701C91.1874 393.701 91.0947 393.723 91.0104 393.764L89.373 394.704C89.2526 394.8 89.2285 394.945 89.373 395.029Z" fill="#2B303F"/>
<path id="Vector_216" d="M86.9528 393.633L88.6625 394.621C88.7477 394.659 88.84 394.679 88.9334 394.679C89.0268 394.679 89.1191 394.659 89.2043 394.621L90.8417 393.669C90.9982 393.585 91.0223 393.44 90.8417 393.356L89.132 392.368C89.0477 392.326 88.9551 392.305 88.8611 392.305C88.7672 392.305 88.6745 392.326 88.5902 392.368L86.9528 393.307C86.8324 393.404 86.8083 393.548 86.9528 393.633Z" fill="#2B303F"/>
<path id="Vector_217" d="M84.5326 392.235L86.2423 393.223C86.3275 393.261 86.4198 393.281 86.5132 393.281C86.6066 393.281 86.6989 393.261 86.7841 393.223L88.4215 392.283C88.578 392.187 88.6021 392.042 88.4215 391.958L86.7118 390.97C86.6266 390.932 86.5343 390.912 86.4409 390.912C86.3476 390.912 86.2553 390.932 86.1701 390.97L84.5326 391.922C84.4122 392.006 84.4002 392.151 84.5326 392.235Z" fill="#2B303F"/>
<path id="Vector_218" d="M82.1127 390.837L83.8224 391.825C83.9088 391.867 84.0034 391.888 84.0993 391.888C84.1952 391.888 84.2898 391.867 84.3762 391.825L86.0016 390.886C86.1581 390.789 86.1822 390.645 86.0016 390.56L84.2799 389.548C84.1947 389.51 84.1024 389.49 84.009 389.49C83.9156 389.49 83.8233 389.51 83.7381 389.548L82.1127 390.5C81.9923 390.608 81.9803 390.753 82.1127 390.837Z" fill="#2B303F"/>
<path id="Vector_219" d="M79.6926 389.44L81.4144 390.428C81.4987 390.469 81.5913 390.491 81.6853 390.491C81.7792 390.491 81.8719 390.469 81.9562 390.428L83.5816 389.488C83.7501 389.391 83.7622 389.247 83.5816 389.175L81.8719 388.163C81.7876 388.121 81.6949 388.1 81.601 388.1C81.5071 388.1 81.4144 388.121 81.3301 388.163L79.7047 389.114C79.5722 389.211 79.5602 389.355 79.6926 389.44Z" fill="#2B303F"/>
<path id="Vector_220" d="M77.2848 388.042L78.9945 389.03C79.0779 389.075 79.171 389.098 79.2654 389.098C79.3599 389.098 79.4529 389.075 79.5363 389.03L81.1617 388.091C81.3303 387.994 81.3423 387.85 81.1617 387.777L79.4641 386.729C79.3777 386.688 79.283 386.666 79.1871 386.666C79.0913 386.666 78.9966 386.688 78.9102 386.729L77.2848 387.681C77.1644 387.814 77.1404 387.934 77.2848 388.042Z" fill="#2B303F"/>
<path id="Vector_221" d="M74.8646 386.643L76.5743 387.631C76.6577 387.676 76.7508 387.699 76.8452 387.699C76.9397 387.699 77.0327 387.676 77.1161 387.631L78.7536 386.692C78.9101 386.595 78.9221 386.451 78.7536 386.378L77.0559 385.366C76.9725 385.322 76.8795 385.299 76.785 385.299C76.6906 385.299 76.5975 385.322 76.5141 385.366L74.8767 386.306C74.7442 386.426 74.7201 386.559 74.8646 386.643Z" fill="#2B303F"/>
<path id="Vector_222" d="M72.4447 385.247L74.1544 386.235C74.2378 386.279 74.3309 386.302 74.4253 386.302C74.5198 386.302 74.6128 386.279 74.6962 386.235L76.3337 385.295C76.4902 385.199 76.5143 385.054 76.3337 384.982L74.6481 383.97C74.5646 383.926 74.4716 383.902 74.3772 383.902C74.2827 383.902 74.1897 383.926 74.1062 383.97L72.4688 384.91C72.3243 385.03 72.3002 385.163 72.4447 385.247Z" fill="#2B303F"/>
<path id="Vector_223" d="M70.0247 383.848L71.7344 384.836C71.8179 384.881 71.9109 384.904 72.0053 384.904C72.0998 384.904 72.1928 384.881 72.2762 384.836L73.9137 383.897C74.0702 383.8 74.0943 383.656 73.9137 383.583L72.2401 382.571C72.1567 382.527 72.0637 382.504 71.9692 382.504C71.8747 382.504 71.7817 382.527 71.6983 382.571L70.0729 383.511C69.9043 383.632 69.8923 383.764 70.0247 383.848Z" fill="#2B303F"/>
<path id="Vector_224" d="M67.6047 382.452L69.3143 383.44C69.3999 383.484 69.4949 383.507 69.5913 383.507C69.6876 383.507 69.7826 383.484 69.8682 383.44L71.4936 382.5C71.6621 382.404 71.6742 382.271 71.4936 382.187L69.8321 381.175C69.7486 381.131 69.6556 381.107 69.5612 381.107C69.4667 381.107 69.3737 381.131 69.2903 381.175L67.6649 382.115C67.4843 382.235 67.4241 382.368 67.6047 382.452Z" fill="#2B303F"/>
<path id="Vector_225" d="M62.1985 379.331L66.9062 382.042C66.9896 382.086 67.0826 382.109 67.1771 382.109C67.2715 382.109 67.3646 382.086 67.448 382.042L69.0734 381.102C69.2419 381.005 69.254 380.873 69.0734 380.789L64.3657 378.066C64.2805 378.028 64.1882 378.008 64.0948 378.008C64.0015 378.008 63.9091 378.028 63.8239 378.066L62.1865 379.018C62.0781 379.102 62.0541 379.246 62.1985 379.331Z" fill="#2B303F"/>
<path id="Vector_226" d="M94.2009 397.813L96.5367 399.162C96.6201 399.206 96.7131 399.229 96.8076 399.229C96.902 399.229 96.9951 399.206 97.0785 399.162L98.7159 398.222C98.8724 398.126 98.8965 397.993 98.7159 397.909L96.3802 396.56C96.2967 396.515 96.2037 396.492 96.1093 396.492C96.0148 396.492 95.9218 396.515 95.8384 396.56L94.213 397.499C94.0805 397.572 94.0685 397.74 94.2009 397.813Z" fill="#2B303F"/>
</g>
<g id="&#60;&#208;&#147;&#209;&#128;&#209;&#131;&#208;&#191;&#208;&#191;&#208;&#176;&#62;_4">
<g id="&#60;&#208;&#147;&#209;&#128;&#209;&#131;&#208;&#191;&#208;&#191;&#208;&#176;&#62;_5">
<path id="&#60;&#208;&#154;&#208;&#190;&#208;&#189;&#209;&#130;&#209;&#131;&#209;&#128;&#62;_6" d="M112.165 392.753L73.3596 370.344V339.803L73.6606 339.129L73.9737 338.96C74.3834 338.729 74.8458 338.607 75.3161 338.607C75.7865 338.607 76.2489 338.729 76.6586 338.96L112.165 359.441C112.572 359.677 112.91 360.016 113.145 360.424C113.38 360.832 113.503 361.295 113.501 361.766V390.416C113.26 391.934 112.995 392.283 112.165 392.753Z" fill="#E5E5E5"/>
<path id="&#60;&#208;&#154;&#208;&#190;&#208;&#189;&#209;&#130;&#209;&#131;&#209;&#128;&#62;_7" d="M108.601 363.176L73.3596 340.827V339.803L73.6606 339.129L73.9737 338.96C74.3834 338.729 74.8458 338.607 75.3161 338.607C75.7865 338.607 76.2489 338.729 76.6586 338.96L112.165 359.441C112.597 359.693 112.951 360.06 113.188 360.501L108.601 363.176Z" fill="#E5E5E5"/>
<path id="&#60;&#208;&#154;&#208;&#190;&#208;&#189;&#209;&#130;&#209;&#131;&#209;&#128;&#62;_8" d="M74.2507 339.116L111.575 360.645C111.773 360.76 111.938 360.925 112.052 361.124C112.166 361.323 112.226 361.548 112.225 361.777V392.752L73.3597 370.343V339.634C73.3579 339.529 73.3841 339.425 73.4357 339.334C73.4873 339.242 73.5624 339.166 73.6532 339.113C73.744 339.06 73.8473 339.033 73.9523 339.033C74.0573 339.034 74.1603 339.062 74.2507 339.116Z" fill="#DCEEFF"/>
<path id="&#60;&#208;&#154;&#208;&#190;&#208;&#189;&#209;&#130;&#209;&#131;&#209;&#128;&#62;_9" d="M74.2507 339.116L111.575 360.645C111.773 360.76 111.938 360.925 112.052 361.124C112.166 361.323 112.226 361.548 112.225 361.777V392.752L73.3597 370.343V339.634C73.3579 339.529 73.3841 339.425 73.4357 339.334C73.4873 339.242 73.5624 339.166 73.6532 339.113C73.744 339.06 73.8473 339.033 73.9523 339.033C74.0573 339.034 74.1603 339.062 74.2507 339.116Z" fill="#F4F4F4"/>
<path id="&#60;&#208;&#154;&#208;&#190;&#208;&#189;&#209;&#130;&#209;&#131;&#209;&#128;&#62;_10" d="M112.165 392.765V391.657L73.3596 369.236V370.345L112.165 392.765Z" fill="#DBDBDB"/>
</g>
<path id="&#60;&#208;&#154;&#208;&#190;&#208;&#189;&#209;&#130;&#209;&#131;&#209;&#128;&#62;_11" d="M74.8406 340.996V368.489L110.912 389.271V361.838L74.8406 340.996Z" fill="#1E212D"/>
</g>
<g id="Men 2">
<path id="&#60;&#208;&#154;&#208;&#190;&#208;&#189;&#209;&#130;&#209;&#131;&#209;&#128;&#62;_12" d="M10.4267 365.814C10.1017 368.706 6.65822 381.139 7.4047 385.392C8.15118 389.645 19.8781 396.777 19.8781 396.777L21.5035 389.548L15.0019 383.115L16.7598 371.067L10.4267 365.814Z" fill="#FFCEA9"/>
<path id="&#60;&#208;&#154;&#208;&#190;&#208;&#189;&#209;&#130;&#209;&#131;&#209;&#128;&#62;_13" d="M19.5169 353.563C18.3744 353.034 17.0778 352.943 15.8728 353.308C14.6678 353.672 13.6382 354.466 12.9792 355.539C11.2454 358.406 9.45144 368.225 9.29492 369.863C9.29492 369.863 11.7029 373.213 15.3149 372.658L19.5169 353.563Z" fill="#EDEDED"/>
<path id="Vector_227" d="M32.9176 492.218C35.4733 492.922 38.2033 492.589 40.5148 491.29C42.3449 491.29 52.2899 487.098 53.6384 490.664C54.8424 493.796 50.5201 496.688 48.2204 497.254C43.1997 498.459 39.4914 500.977 37.4687 501.398C35.9637 501.712 34.0253 501.916 32.8333 500.736C31.3885 499.326 31.5209 494.085 32.9176 492.218Z" fill="#38226D"/>
<path id="Vector_228" d="M37.4685 500.532C39.4912 500.11 43.1995 497.604 48.2202 496.387C50.1466 495.917 53.4576 493.809 53.7947 491.291C54.2402 494.182 50.3633 496.737 48.2202 497.255C43.1995 498.459 39.4912 500.977 37.4685 501.399C35.9635 501.712 34.0251 501.917 32.8331 500.736C32.5164 500.396 32.2889 499.982 32.1709 499.532C32.9155 500.099 33.782 500.485 34.7016 500.658C35.6212 500.832 36.5686 500.788 37.4685 500.532Z" fill="#9C73FF"/>
<path id="Vector_229" d="M16.8562 484.978C19.412 485.679 22.141 485.346 24.4534 484.051C26.2835 484.111 36.2165 479.858 37.565 483.424C38.769 486.557 34.4466 489.448 32.147 490.014C27.1383 491.219 23.418 493.737 21.4073 494.159C19.9023 494.472 17.9638 494.677 16.7598 493.496C15.2789 492.086 15.3993 486.846 16.8562 484.978Z" fill="#38226D"/>
<path id="Vector_230" d="M21.3591 493.291C23.3698 492.87 27.0902 490.364 32.0988 489.147C34.0252 488.677 37.3482 486.569 37.6854 484.051C38.1308 486.942 34.254 489.496 32.0988 490.075C27.0902 491.279 23.3698 493.797 21.3591 494.219C19.8541 494.532 17.9157 494.737 16.7117 493.556C16.3989 493.215 16.1755 492.801 16.0615 492.352C16.8112 492.909 17.6801 493.283 18.5996 493.447C19.519 493.61 20.4638 493.557 21.3591 493.291Z" fill="#9C73FF"/>
<path id="&#60;&#208;&#154;&#208;&#190;&#208;&#189;&#209;&#130;&#209;&#131;&#209;&#128;&#62;_14" d="M16.6154 457.967C17.0388 454.289 17.8047 450.659 18.903 447.124C18.903 447.124 18.2167 437.727 17.8796 428.811C17.4823 418.703 13.9786 409.812 16.7478 401.74L47.9194 408.68C47.9194 408.68 46.0411 448.979 45.6197 453.858C45.3881 457.658 44.9216 461.441 44.2231 465.183C42.8024 473.002 40.4907 491.616 40.4907 491.616C37.1917 493.531 32.8573 492.471 32.8573 492.471C32.8573 492.471 33.0981 468.93 33.3149 463.292C33.5677 456.412 33.7844 456.942 33.7844 456.942L32.749 439.738L32.0747 431.209C32.0747 431.209 31.2079 437.474 30.654 443.064C30.1604 447.943 28.9805 452.352 27.6681 461.424C26.5363 469.303 24.6822 485.122 24.6822 485.122C21.3832 487.037 16.9043 485.447 16.9043 485.447C16.9043 485.447 15.7244 464.798 16.6154 457.967Z" fill="#8C50FF"/>
<path id="&#60;&#208;&#154;&#208;&#190;&#208;&#189;&#209;&#130;&#209;&#131;&#209;&#128;&#62;_15" d="M21.1665 353.731C23.5745 353.851 25.3082 354.465 25.5972 353.731C25.8579 352.507 26.0388 351.267 26.139 350.02C25.8741 349.333 25.6333 348.598 25.6333 348.598C22.6474 346.755 21.7083 343.538 21.323 339.779C20.6488 333.358 24.1163 327.732 30.5336 327.069C36.5536 326.443 40.9964 330.683 42.1763 336.502C42.8144 339.382 44.0786 344.815 42.3689 349.538C41.4057 352.189 40.1776 354.285 38.9375 354.694C37.7286 354.659 36.5226 354.554 35.3255 354.381C35.3255 354.381 35.0004 356.164 34.7837 357.309C34.567 358.453 34.6513 359.056 36.9268 360.453C39.2024 361.851 33.4834 364.742 29.7028 364.465C25.9223 364.188 21.7564 361.923 20.6126 359.501C19.4207 356.827 19.529 353.658 21.1665 353.731Z" fill="#FFCEA9"/>
<path id="&#60;&#208;&#154;&#208;&#190;&#208;&#189;&#209;&#130;&#209;&#131;&#209;&#128;&#62;_16" d="M24.5979 354.081C23.9357 355.732 25.6092 357.696 30.0761 359.141C34.5429 360.587 34.8921 358.732 34.8921 358.732C37.8606 360.063 40.7545 361.555 43.5609 363.201C46.2337 365.081 47.4257 370.43 47.7869 379.634C48.1963 390.224 48.2324 405.922 47.8832 408.633C47.8832 408.633 42.8866 413.621 36.4813 413.091C30.0761 412.561 19.3123 406.898 16.6996 402.525C16.7719 393.248 17.9036 391.682 16.3625 386.381C12.9191 374.153 11.1131 369.141 12.7505 361.009C14.1231 354.298 16.0495 353.467 18.6983 353.539C20.6732 353.613 22.6426 353.794 24.5979 354.081Z" fill="#F4F4F4"/>
<path id="&#60;&#208;&#154;&#208;&#190;&#208;&#189;&#209;&#130;&#209;&#131;&#209;&#128;&#62;_17" d="M57.8763 388.392C52.6269 389.717 51.3988 386.392 50.6523 383.657C48.9908 377.007 48.0878 371.007 46.8356 367.236C45.3788 362.791 43.8377 362.08 41.6705 361.213C39.1421 360.201 36.9628 362.345 37.8056 368.007C38.849 374.56 40.4604 381.01 42.6216 387.284C43.2838 389.356 44.7527 393.03 46.944 394.813C49.653 397.006 53.7346 396.91 59.9111 395.368C62.5358 394.717 65.4254 393.139 70.4099 390.814C71.7464 390.187 72.8179 389.778 75.3584 388.585C77.934 387.423 80.1927 385.659 81.9443 383.44C83.2807 381.489 83.4613 380.573 83.1483 380.127C82.8352 379.682 82.1971 379.694 81.4867 380.513C80.4444 381.897 79.1643 383.084 77.7062 384.019C77.7062 384.019 79.3557 382.296 80.2587 381.188C81.0615 380.196 81.7295 379.102 82.2453 377.935C82.7148 376.802 81.7396 375.26 81.0413 376.067C80.3429 376.874 79.9336 377.706 78.6333 379.332C77.9268 380.201 77.1183 380.982 76.2253 381.657C77.0712 380.515 77.8241 379.306 78.4767 378.043C79.0542 377.055 79.3382 375.922 79.2955 374.778C79.2955 374.188 78.4165 373.477 77.6219 374.61C76.8614 376.156 75.9153 377.605 74.8046 378.923C73.6005 380.127 72.5892 380.886 72.5531 380.537C72.5169 380.188 73.2875 379.501 73.7571 378.055C74.2266 376.609 73.7571 375.067 72.9624 374.911C72.1678 374.754 72.3123 374.778 71.6621 376.115C70.7758 377.513 69.9718 378.961 69.2541 380.453C68.8493 381.851 68.1095 383.129 67.0989 384.175C65.7264 385.609 62.8729 387.127 57.8763 388.392Z" fill="#FFCEA9"/>
<path id="&#60;&#208;&#154;&#208;&#190;&#208;&#189;&#209;&#130;&#209;&#131;&#209;&#128;&#62;_18" d="M39.7321 360.308C43.2358 359.79 45.7521 361.368 47.2692 366.681C48.7862 371.994 49.8939 376.319 49.8939 376.319C48.5085 378.327 46.4049 379.724 44.0184 380.223C39.8284 381.247 38.3114 379.235 38.3114 379.235C38.3114 379.235 37.1074 373.669 36.4211 369.874C35.7348 366.079 35.4459 360.946 39.7321 360.308Z" fill="#EDEDED"/>
<path id="Vector_231" d="M41.9716 335.684C41.9716 335.684 47.51 327.25 35.5061 325.527C26.8494 324.323 21.2869 329.865 20.6368 335.9C20.0227 341.671 23.5745 347.671 26.139 350.044C27.343 350.49 30.0882 350.755 33.6279 349.141C33.7713 347.571 33.8276 345.994 33.7965 344.418C33.7965 344.418 29.5704 335.527 41.9716 335.684Z" fill="#3A2C6D"/>
</g>
</g>
</g>
</g>
<defs>
<clipPath id="clip0">
<rect width="602" height="516" fill="white"/>
</clipPath>
</defs>
</svg>
