<svg width="545" height="602" viewBox="0 0 545 602" fill="none" xmlns="http://www.w3.org/2000/svg">
<g id="TV_SVG">
<g id="&#208;&#161;&#208;&#187;&#208;&#190;&#208;&#185; 2">
<g id="&#208;&#161;&#208;&#187;&#208;&#190;&#208;&#185; 1">
<path id="Vector" d="M219.999 281.063L284.016 243.871L283.764 330.511L219.758 367.715L219.999 281.063Z" fill="#A5A7B1"/>
<path id="Vector_2" d="M220.011 281.062L219.987 287.997L219.975 290.694L219.878 324.394L219.758 367.714L219.445 367.533L87.2915 291.236L87.5443 204.596L219.445 280.749L219.975 281.05L220.011 281.062Z" fill="#F4F6F9"/>
<path id="Vector_3" d="M352.333 400.873L352.2 444.181L351.911 444.012L220.492 368.148L219.975 367.835L219.758 367.714L219.878 324.395L219.975 324.455L220.492 324.744L257.203 345.946H257.215L352.333 400.873Z" fill="#F4F6F9"/>
<path id="Vector_4" d="M352.333 400.86L416.338 363.668L416.218 406.988L352.2 444.179L352.333 400.86Z" fill="#A5A7B1"/>
<path id="Vector_5" d="M219.878 324.393L283.884 287.189L416.338 363.668L352.333 400.859L219.878 324.393Z" fill="#B8BAC5"/>
<path id="Vector_6" d="M352.453 357.527L416.459 320.336L416.447 327.259L352.429 364.462L352.453 357.527Z" fill="#A5A7B1"/>
<path id="Vector_7" d="M352.453 357.529L352.429 364.464L219.987 287.998L219.999 281.062L352.453 357.529Z" fill="#F4F6F9"/>
<path id="Vector_8" d="M480.982 432.092L545 397.91V478.903L480.982 516.095V432.092Z" fill="#D5D7E2"/>
<path id="Vector_9" d="M416.459 320.337L284.016 243.871L151.55 167.393L87.5443 204.596L219.999 281.062L352.453 357.528L480.982 432.092L545 397.91L416.459 320.337Z" fill="#E9EAF4"/>
<path id="Vector_10" d="M480.982 432.091V516.094L352.959 444.6L352.429 444.299L352.2 444.179L352.333 400.871L352.429 369.158L352.441 364.462L352.453 359.056V357.539L358.437 360.983L389.79 379.103L416.254 394.369L480.982 432.091Z" fill="#F4F6F9"/>
<path id="Vector_11" opacity="0.2" d="M219.975 288.08V324.525L352.321 400.859L352.429 364.45L219.975 288.08Z" fill="#4FA0CA"/>
<g id="Group" opacity="0.8">
<path id="Vector_12" opacity="0.8" d="M398.085 400.173C398.024 400.219 397.967 400.272 397.917 400.33C397.863 400.363 397.815 400.404 397.772 400.45C397.728 400.512 397.696 400.582 397.676 400.655V403.797C397.677 403.684 397.715 403.574 397.784 403.484C397.784 403.484 397.881 403.4 397.917 403.352C397.976 403.294 398.041 403.242 398.109 403.195L400.241 401.991V398.945L398.085 400.173Z" fill="#252935"/>
<path id="Vector_13" opacity="0.8" d="M394.786 402.545C394.434 402.394 394.129 402.149 393.907 401.837C393.684 401.525 393.551 401.158 393.522 400.775V403.809C393.556 404.192 393.691 404.558 393.913 404.871C394.135 405.184 394.437 405.433 394.786 405.591L414.737 417.114V414.068L394.786 402.545Z" fill="#2B303F"/>
<path id="Vector_14" opacity="0.8" d="M420.817 414.068C420.437 414.271 420.032 414.425 419.613 414.526C419.345 414.599 419.071 414.651 418.795 414.682C418.518 414.682 418.241 414.766 417.952 414.778H417.591C417.141 414.769 416.693 414.717 416.254 414.622H416.134C415.644 414.511 415.173 414.328 414.737 414.08V417.126C415.168 417.365 415.63 417.544 416.11 417.656H416.23C416.528 417.724 416.829 417.772 417.133 417.801H418.241C418.419 417.776 418.596 417.74 418.77 417.692C419.046 417.663 419.32 417.614 419.589 417.548H419.842C420.167 417.441 420.481 417.304 420.781 417.138L423.574 415.513V412.467L420.817 414.068Z" fill="#252935"/>
<path id="Vector_15" opacity="0.8" d="M423.611 412.442L420.817 414.068C419.876 414.549 418.834 414.799 417.777 414.799C416.72 414.799 415.678 414.549 414.737 414.068L394.786 402.545C393.101 401.582 393.089 399.993 394.786 399.03L397.58 397.404L400.229 398.933L398.109 400.137C397.99 400.186 397.887 400.269 397.815 400.377C397.743 400.484 397.705 400.61 397.705 400.739C397.705 400.869 397.743 400.995 397.815 401.102C397.887 401.209 397.99 401.293 398.109 401.341L416.736 412.093C417.062 412.259 417.423 412.346 417.789 412.346C418.155 412.346 418.516 412.259 418.843 412.093L420.974 410.889L423.611 412.442Z" fill="#3A4151"/>
</g>
<g id="Group_2" opacity="0.8">
<path id="Vector_16" opacity="0.8" d="M268.894 365.38C268.832 365.426 268.776 365.478 268.725 365.536C268.675 365.577 268.626 365.622 268.581 365.669C268.534 365.734 268.501 365.807 268.485 365.885C268.485 365.885 268.485 365.946 268.485 365.982V369.028C268.489 368.913 268.522 368.801 268.581 368.703C268.623 368.656 268.672 368.616 268.725 368.582C268.781 368.517 268.846 368.46 268.918 368.414L271.037 367.21V364.176L268.894 365.38Z" fill="#252935"/>
<path id="Vector_17" opacity="0.8" d="M265.595 367.751C265.245 367.592 264.944 367.344 264.722 367.031C264.5 366.718 264.365 366.351 264.331 365.969V369.015C264.359 369.397 264.492 369.765 264.715 370.077C264.938 370.389 265.242 370.634 265.595 370.785L285.546 382.307V379.261L265.595 367.751Z" fill="#2B303F"/>
<path id="Vector_18" opacity="0.8" d="M291.626 379.261C291.246 379.469 290.842 379.626 290.422 379.73C290.153 379.797 289.879 379.845 289.603 379.875C289.321 379.931 289.035 379.964 288.748 379.971C288.628 379.971 288.507 379.971 288.387 379.971C287.942 379.959 287.499 379.911 287.063 379.827H286.942C286.453 379.716 285.982 379.533 285.546 379.285V382.331C285.973 382.568 286.431 382.746 286.906 382.861H287.063C287.363 382.933 287.669 382.982 287.978 383.005H289.073C289.266 383.005 289.423 382.933 289.603 382.909C289.883 382.875 290.161 382.823 290.434 382.752H290.687C291.014 382.651 291.329 382.513 291.626 382.343L294.419 380.718V377.684L291.626 379.261Z" fill="#252935"/>
<path id="Vector_19" opacity="0.8" d="M294.418 377.648L291.625 379.261C290.692 379.734 289.661 379.98 288.615 379.98C287.569 379.98 286.538 379.734 285.605 379.261L265.642 367.751C263.969 366.776 263.957 365.198 265.642 364.223L268.436 362.598L271.085 364.139L268.953 365.343C268.376 365.68 268.376 366.222 268.953 366.547L287.58 377.298C287.906 377.464 288.267 377.551 288.633 377.551C288.999 377.551 289.36 377.464 289.687 377.298L291.818 376.094L294.418 377.648Z" fill="#3A4151"/>
</g>
<g id="Group_3" opacity="0.8">
<path id="Vector_20" opacity="0.8" d="M137.042 251.046C136.983 251.095 136.926 251.147 136.873 251.203C136.824 251.237 136.779 251.277 136.741 251.323C136.695 251.383 136.666 251.453 136.656 251.528C136.651 251.564 136.651 251.6 136.656 251.636V254.67C136.657 254.557 136.695 254.447 136.765 254.357C136.765 254.357 136.861 254.273 136.897 254.225C136.956 254.167 137.021 254.114 137.09 254.068L139.221 252.864V249.83L137.042 251.046Z" fill="#252935"/>
<path id="Vector_21" opacity="0.8" d="M133.743 253.418C133.404 253.255 133.115 253.005 132.904 252.694C132.692 252.384 132.567 252.023 132.539 251.648V254.695C132.569 255.069 132.696 255.428 132.907 255.739C133.118 256.049 133.406 256.299 133.743 256.464L153.705 267.987V264.941L133.743 253.418Z" fill="#2B303F"/>
<path id="Vector_22" opacity="0.8" d="M159.774 264.94C159.395 265.147 158.99 265.301 158.57 265.397C158.301 265.468 158.027 265.52 157.751 265.554C157.462 265.554 157.185 265.638 156.896 265.65H156.523C156.077 265.642 155.634 265.589 155.198 265.494H155.078C154.584 265.383 154.11 265.2 153.669 264.952V267.998C154.096 268.237 154.554 268.415 155.03 268.528H155.15C155.448 268.594 155.749 268.643 156.053 268.672H157.161C157.341 268.672 157.51 268.6 157.691 268.576C157.871 268.552 158.244 268.492 158.509 268.419H158.762C159.088 268.315 159.403 268.177 159.701 268.01L162.495 266.385V263.314L159.774 264.94Z" fill="#252935"/>
<path id="Vector_23" opacity="0.8" d="M162.543 263.315L159.749 264.941C158.816 265.412 157.785 265.657 156.739 265.657C155.694 265.657 154.663 265.412 153.729 264.941L133.779 253.418C132.093 252.455 132.093 250.866 133.779 249.903L136.572 248.277L139.233 249.818L137.102 251.022C136.982 251.071 136.88 251.155 136.808 251.262C136.736 251.369 136.697 251.495 136.697 251.624C136.697 251.754 136.736 251.88 136.808 251.987C136.88 252.094 136.982 252.178 137.102 252.226L155.728 262.978C156.054 263.144 156.415 263.231 156.782 263.231C157.148 263.231 157.509 263.144 157.835 262.978L159.966 261.774L162.543 263.315Z" fill="#3A4151"/>
</g>
<path id="Vector_24" d="M353.476 358.105V444.601L352.947 444.3L352.718 444.179L352.429 444.011V357.527L353.476 358.105Z" fill="white"/>
<path id="Vector_25" d="M219.975 281.05V368.376L219.457 368.075L219.228 367.942L218.927 367.762V280.436L219.975 281.05Z" fill="white"/>
<path id="Vector_26" opacity="0.4" d="M485.834 403.605C495.49 403.605 503.317 399.088 503.317 393.515C503.317 387.943 495.49 383.426 485.834 383.426C476.179 383.426 468.352 387.943 468.352 393.515C468.352 399.088 476.179 403.605 485.834 403.605Z" fill="#D6D8E5"/>
<path id="Vector_27" d="M488.327 401.726C497.982 401.726 505.809 397.209 505.809 391.636C505.809 386.064 497.982 381.547 488.327 381.547C478.671 381.547 470.844 386.064 470.844 391.636C470.844 397.209 478.671 401.726 488.327 401.726Z" fill="#D5D7E2"/>
<path id="Vector_28" d="M464.933 357.131L471.049 392.336H505.761L511.733 357.384L464.933 357.131Z" fill="#D5D7E2"/>
<path id="Vector_29" d="M488.327 370.218C501.267 370.218 511.757 364.164 511.757 356.697C511.757 349.229 501.267 343.176 488.327 343.176C475.387 343.176 464.897 349.229 464.897 356.697C464.897 364.164 475.387 370.218 488.327 370.218Z" fill="#E4E6EF"/>
<path id="Vector_30" d="M488.327 367.22C483.079 367.327 477.893 366.083 473.264 363.608C469.845 361.646 467.894 359.093 467.894 356.637C467.894 354.181 469.845 351.629 473.264 349.654C477.937 347.317 483.09 346.1 488.315 346.1C493.539 346.1 498.692 347.317 503.365 349.654C506.784 351.629 508.735 354.169 508.735 356.637C508.735 359.105 506.784 361.646 503.365 363.608C498.744 366.079 493.566 367.323 488.327 367.22Z" fill="#28221C"/>
<path id="Vector_31" d="M498.465 346.042C498.797 341.49 498.073 336.923 496.347 332.698C494.622 328.472 491.943 324.703 488.519 321.685L488.447 321.625V321.757C485.023 324.776 482.344 328.545 480.619 332.77C478.894 336.995 478.169 341.563 478.502 346.114L465.125 344.838C470.772 366.149 488.531 364.307 488.531 364.307C489.868 364.415 506.435 365.27 511.853 344.838L498.465 346.042Z" fill="#99B524"/>
<path id="Vector_32" d="M488.471 364.281C488.471 364.281 487.267 347.702 465.005 336.529C465.005 336.529 459.731 364.089 488.471 364.281Z" fill="#A6CE28"/>
<path id="Vector_33" d="M488.327 364.281C488.327 364.281 489.531 347.702 511.805 336.529C511.805 336.529 517.079 364.089 488.327 364.281Z" fill="#A6CE28"/>
<path id="Vector_34" d="M389.85 315.664C389.855 315.632 389.855 315.6 389.85 315.568V315.447C389.844 315.411 389.844 315.375 389.85 315.339C389.85 315.339 389.85 315.255 389.85 315.219C389.85 315.219 389.85 315.146 389.85 315.11C389.843 315.07 389.843 315.03 389.85 314.99V314.881C389.857 314.842 389.857 314.801 389.85 314.761C389.844 314.729 389.844 314.697 389.85 314.665V314.556V314.436C389.854 314.4 389.854 314.364 389.85 314.328V314.219V314.135V314.027L389.79 313.906L389.729 313.774L389.633 313.617C389.573 313.521 389.525 313.425 389.465 313.34L388.899 313.039C388.863 312.998 388.83 312.954 388.802 312.907C388.768 312.881 388.739 312.848 388.718 312.811L388.634 312.702L388.537 312.606L388.477 312.534L388.381 312.449L388.285 312.353L388.176 312.269L388.08 312.197L387.984 312.124L387.887 312.064L387.791 312.004L263.921 240.486H263.849H263.765H263.668H263.584H263.488H263.428H263.331H263.235H262.826H262.693H262.537L262.356 240.571L246.499 249.793C246.599 249.73 246.709 249.685 246.824 249.661C246.952 249.643 247.082 249.643 247.21 249.661C247.353 249.673 247.494 249.701 247.631 249.745C247.791 249.795 247.944 249.864 248.088 249.95L371.958 321.467C372.113 321.552 372.258 321.653 372.392 321.768C372.539 321.88 372.676 322.005 372.801 322.142C372.933 322.286 373.054 322.431 373.174 322.587C373.294 322.748 373.402 322.917 373.499 323.093C373.596 323.261 373.68 323.442 373.764 323.61C373.843 323.787 373.911 323.968 373.969 324.152C374.024 324.33 374.068 324.511 374.101 324.694C374.113 324.874 374.113 325.055 374.101 325.236C374.12 325.392 374.12 325.549 374.101 325.705C374.076 325.842 374.035 325.975 373.981 326.103C373.944 326.172 373.899 326.236 373.848 326.295C373.76 326.434 373.641 326.549 373.499 326.633L389.368 317.422C389.501 317.332 389.615 317.217 389.705 317.085L389.79 316.94C389.793 316.9 389.793 316.86 389.79 316.82C389.796 316.78 389.796 316.739 389.79 316.7C389.784 316.664 389.784 316.627 389.79 316.591C389.79 316.591 389.79 316.519 389.79 316.483C389.795 316.447 389.795 316.41 389.79 316.374C389.79 316.374 389.79 316.302 389.79 316.266V316.158L389.85 315.664Z" fill="#F4F6F9"/>
<path id="Vector_35" d="M371.766 321.155C372.415 321.571 372.956 322.137 373.342 322.806C373.727 323.474 373.946 324.225 373.981 324.996C373.981 326.405 372.982 326.971 371.741 326.26L247.884 254.755C247.235 254.334 246.695 253.766 246.307 253.096C245.92 252.426 245.697 251.674 245.656 250.902C245.656 249.481 246.656 248.928 247.896 249.698L371.766 321.155Z" fill="#C1C4D3"/>
<path id="Vector_36" d="M321.534 256.307L326.446 253.453L326.374 282.229L321.449 285.082L321.534 256.307Z" fill="#D5D7E2"/>
<path id="Vector_37" d="M309.132 249.156L314.057 246.303L326.446 253.454L321.534 256.308L309.132 249.156Z" fill="#B8BAC5"/>
<path id="Vector_38" d="M321.534 256.308L321.449 285.084L309.06 277.932L309.132 249.156L321.534 256.308Z" fill="#E9EAF4"/>
<path id="Vector_39" d="M451.159 161.854L450.689 327.621C450.69 327.98 450.657 328.339 450.593 328.692C450.538 328.996 450.445 329.291 450.316 329.571C450.223 329.782 450.097 329.978 449.943 330.149L449.81 330.33C449.647 330.498 449.465 330.647 449.268 330.775L453.205 328.488C453.408 328.363 453.59 328.208 453.747 328.03C453.798 327.979 453.842 327.923 453.88 327.862C453.946 327.795 454.007 327.722 454.06 327.645C454.132 327.532 454.196 327.416 454.253 327.296L454.361 327.043C454.361 326.959 454.422 326.874 454.446 326.778L454.518 326.525C454.518 326.525 454.518 326.453 454.518 326.417C454.512 326.381 454.512 326.344 454.518 326.308C454.524 326.228 454.524 326.148 454.518 326.068V325.839C454.512 325.759 454.512 325.678 454.518 325.598V325.357L455.12 159.566L451.159 161.854Z" fill="#C1C4D3"/>
<path id="Vector_40" d="M455.12 159.337C455.12 159.265 455.12 159.181 455.12 159.097C455.12 158.856 455.12 158.856 455.12 158.615V158.362V158.133C455.12 158.037 455.12 157.953 455.06 157.868C455.045 157.783 455.025 157.698 454.999 157.616C454.999 157.519 454.999 157.435 454.999 157.351L454.927 157.134C454.905 157.048 454.876 156.964 454.843 156.881C454.822 156.791 454.794 156.702 454.759 156.616C454.759 156.544 454.698 156.46 454.662 156.376C454.626 156.291 454.602 156.219 454.566 156.135L454.494 155.954L454.385 155.713C454.385 155.617 454.301 155.533 454.253 155.448L454.108 155.147L453.928 154.834V154.774C453.807 154.57 453.687 154.377 453.555 154.184C453.422 153.992 453.35 153.883 453.242 153.739L453.025 153.462L452.832 153.221C452.772 153.149 452.712 153.065 452.64 152.992L452.447 152.776L452.302 152.619C452.23 152.547 452.17 152.475 452.098 152.414L451.881 152.21L451.652 152.017L451.544 151.921H451.46L451.243 151.752L451.026 151.596L450.809 151.463L450.605 151.331L189.802 0.68628L189.693 0.62608L189.441 0.4816L189.236 0.39732L189.031 0.31304L188.827 0.22876H188.682L188.477 0.16856H188.273H188.056L187.827 0H187.261H186.984L186.623 0.14448L186.214 0.33712L182.277 2.62472C182.509 2.5163 182.757 2.44325 183.011 2.408C183.286 2.36529 183.567 2.36529 183.842 2.408C184.153 2.44294 184.46 2.51157 184.757 2.61268C185.097 2.73981 185.427 2.89276 185.744 3.0702L446.21 153.281C446.558 153.482 446.888 153.712 447.197 153.968C447.516 154.233 447.817 154.519 448.1 154.822C448.691 155.468 449.212 156.174 449.654 156.929C449.876 157.318 450.073 157.72 450.244 158.133C450.424 158.524 450.577 158.926 450.701 159.337C450.828 159.731 450.924 160.133 450.99 160.541C451.052 160.94 451.084 161.342 451.086 161.745L455.024 159.458L455.12 159.337Z" fill="#D5D7E2"/>
<path id="Vector_41" d="M446.21 153.28C447.652 154.218 448.853 155.483 449.713 156.973C450.573 158.463 451.068 160.135 451.159 161.853L450.689 327.62C450.689 330.774 448.438 332.038 445.704 330.461L185.419 180.154C183.977 179.216 182.777 177.951 181.917 176.461C181.057 174.971 180.561 173.299 180.471 171.581L180.94 5.81455C180.94 2.64803 183.192 1.38383 185.925 2.97311L446.21 153.28Z" fill="#E9EAF4"/>
<path id="Vector_42" d="M445.355 160.348L444.898 324.586L185.19 174.652L185.66 10.4141L445.355 160.348Z" fill="#2B303F"/>
<g id="Group_4">
<path id="Vector_43" d="M157.366 364.16C157.341 364.234 157.305 364.303 157.257 364.364C157.207 364.441 157.146 364.51 157.077 364.569L156.932 364.678L156.788 364.774L125.038 383.231L124.303 383.604L124.074 383.701L123.472 383.929L123.244 384.002L122.846 384.122L122.533 384.206L122.1 384.291H121.811C121.522 384.351 121.221 384.387 120.92 384.423H120.643C120.471 384.435 120.298 384.435 120.125 384.423H118.56H118.199H117.813H117.464L117.055 384.351L116.79 384.315L116.308 384.194L116.032 384.122C115.755 384.038 115.466 383.954 115.201 383.845L114.815 383.677L114.611 383.592L114.033 383.291C113.357 382.919 112.77 382.406 112.311 381.786C111.943 381.292 111.744 380.693 111.745 380.077V382.713C111.809 383.405 112.055 384.068 112.459 384.632C112.863 385.197 113.411 385.645 114.045 385.928C114.225 386.024 114.418 386.133 114.611 386.217L114.815 386.313L115.165 386.458L116.007 386.735H116.068H116.272L116.754 386.855H116.886H117.079L117.488 386.927H117.657H117.838H118.235H118.415H118.596H118.993H120.113H120.643H120.92C121.221 386.927 121.51 386.855 121.799 386.807H122.052L122.485 386.711L122.786 386.626L123.183 386.518H123.28H123.412L124.026 386.277L124.243 386.181C124.495 386.075 124.74 385.955 124.977 385.82L156.727 367.362L156.836 367.278L156.992 367.158L157.125 367.001L157.185 366.881C157.185 366.881 157.185 366.881 157.185 366.797C157.191 366.753 157.191 366.708 157.185 366.664V364.027C157.248 364.067 157.309 364.111 157.366 364.16Z" fill="#161921"/>
<path id="Vector_44" d="M156.739 363.017C156.928 363.083 157.091 363.206 157.207 363.369C157.322 363.532 157.384 363.726 157.384 363.926C157.384 364.126 157.322 364.32 157.207 364.483C157.091 364.646 156.928 364.769 156.739 364.835L124.989 383.292C123.28 384.159 121.391 384.61 119.475 384.61C117.559 384.61 115.67 384.159 113.961 383.292C110.914 381.535 110.902 378.669 113.961 376.911L145.687 358.454C146.177 358.204 146.72 358.074 147.27 358.074C147.82 358.074 148.363 358.204 148.853 358.454L156.739 363.017Z" fill="#252936"/>
</g>
<path id="Vector_45" d="M156.354 363.127C156.502 363.175 156.63 363.268 156.721 363.394C156.812 363.519 156.861 363.67 156.861 363.825C156.861 363.98 156.812 364.131 156.721 364.257C156.63 364.382 156.502 364.475 156.354 364.523L124.604 382.969C123.017 383.782 121.259 384.207 119.475 384.207C117.691 384.207 115.933 383.782 114.346 382.969C111.504 381.331 111.492 378.67 114.346 377.033L146.096 358.576C146.468 358.383 146.881 358.283 147.3 358.283C147.719 358.283 148.132 358.383 148.504 358.576L156.354 363.127Z" fill="#323846"/>
<path id="Vector_46" d="M145.229 360.55L146.662 361.368C146.804 361.452 146.967 361.493 147.131 361.489C147.296 361.495 147.459 361.453 147.601 361.368H147.685C147.747 361.342 147.8 361.298 147.838 361.243C147.876 361.187 147.898 361.123 147.902 361.055C147.897 360.989 147.875 360.924 147.836 360.869C147.798 360.814 147.746 360.77 147.685 360.742L146.252 359.912C146.105 359.837 145.942 359.799 145.777 359.799C145.612 359.799 145.449 359.837 145.301 359.912H145.217C145.157 359.94 145.107 359.984 145.071 360.04C145.035 360.095 145.015 360.159 145.012 360.225C145.015 360.294 145.036 360.36 145.075 360.418C145.113 360.475 145.166 360.521 145.229 360.55Z" fill="black"/>
<path id="Vector_47" d="M143.278 362.488C143.56 362.631 143.872 362.705 144.187 362.705C144.503 362.705 144.815 362.631 145.096 362.488C145.205 362.438 145.299 362.361 145.369 362.264C145.438 362.167 145.482 362.053 145.494 361.934C145.484 361.811 145.44 361.694 145.368 361.594C145.296 361.494 145.198 361.416 145.084 361.368C144.806 361.223 144.496 361.146 144.181 361.146C143.867 361.146 143.557 361.223 143.278 361.368C143.167 361.418 143.072 361.497 143.002 361.596C142.932 361.696 142.89 361.813 142.881 361.934C142.893 362.053 142.936 362.167 143.006 362.264C143.076 362.361 143.17 362.438 143.278 362.488Z" fill="black"/>
<path id="Vector_48" d="M140.798 363.945C141.08 364.088 141.391 364.162 141.707 364.162C142.023 364.162 142.335 364.088 142.616 363.945C142.727 363.894 142.822 363.815 142.891 363.715C142.961 363.616 143.003 363.5 143.014 363.379C143.002 363.258 142.96 363.142 142.89 363.043C142.82 362.944 142.726 362.865 142.616 362.813C142.335 362.67 142.023 362.596 141.707 362.596C141.391 362.596 141.08 362.67 140.798 362.813C140.682 362.855 140.582 362.932 140.511 363.033C140.44 363.135 140.402 363.255 140.402 363.379C140.402 363.502 140.44 363.623 140.511 363.724C140.582 363.826 140.682 363.903 140.798 363.945Z" fill="black"/>
<path id="Vector_49" d="M138.294 365.402C138.576 365.544 138.887 365.619 139.203 365.619C139.519 365.619 139.83 365.544 140.112 365.402C140.228 365.359 140.329 365.283 140.399 365.181C140.47 365.08 140.509 364.959 140.509 364.836C140.509 364.712 140.47 364.592 140.399 364.49C140.329 364.389 140.228 364.312 140.112 364.27C139.83 364.127 139.519 364.053 139.203 364.053C138.887 364.053 138.576 364.127 138.294 364.27C138.178 364.312 138.077 364.389 138.006 364.49C137.935 364.592 137.897 364.712 137.897 364.836C137.897 364.959 137.935 365.08 138.006 365.181C138.077 365.283 138.178 365.359 138.294 365.402Z" fill="black"/>
<path id="Vector_50" d="M135.789 366.859C136.071 367.008 136.386 367.083 136.704 367.075C137.019 367.083 137.33 367.008 137.608 366.859C137.719 366.809 137.814 366.73 137.884 366.631C137.954 366.531 137.996 366.414 138.005 366.293C137.995 366.172 137.952 366.056 137.883 365.956C137.813 365.857 137.718 365.778 137.608 365.727C137.326 365.584 137.014 365.51 136.698 365.51C136.383 365.51 136.071 365.584 135.789 365.727C135.679 365.778 135.584 365.857 135.514 365.956C135.444 366.056 135.402 366.172 135.392 366.293C135.403 366.414 135.446 366.529 135.516 366.628C135.585 366.728 135.68 366.807 135.789 366.859Z" fill="black"/>
<path id="Vector_51" d="M149.154 362.97C149.354 363.078 149.578 363.132 149.804 363.127C150.031 363.137 150.257 363.083 150.454 362.97C150.538 362.938 150.61 362.881 150.661 362.807C150.712 362.732 150.739 362.645 150.739 362.555C150.739 362.465 150.712 362.377 150.661 362.303C150.61 362.229 150.538 362.172 150.454 362.139C150.253 362.039 150.03 361.986 149.804 361.986C149.579 361.986 149.356 362.039 149.154 362.139C149.07 362.172 148.998 362.229 148.948 362.303C148.897 362.377 148.87 362.465 148.87 362.555C148.87 362.645 148.897 362.732 148.948 362.807C148.998 362.881 149.07 362.938 149.154 362.97Z" fill="black"/>
<path id="Vector_52" d="M146.65 363.295C146.534 363.337 146.433 363.414 146.362 363.516C146.291 363.617 146.253 363.737 146.253 363.861C146.253 363.985 146.291 364.105 146.362 364.207C146.433 364.308 146.534 364.385 146.65 364.427C146.932 364.57 147.243 364.644 147.559 364.644C147.875 364.644 148.186 364.57 148.468 364.427C148.578 364.376 148.673 364.297 148.743 364.198C148.813 364.098 148.855 363.982 148.865 363.861C148.855 363.738 148.812 363.621 148.739 363.521C148.667 363.421 148.569 363.343 148.456 363.295C148.176 363.153 147.867 363.078 147.553 363.078C147.239 363.078 146.929 363.153 146.65 363.295Z" fill="black"/>
<path id="Vector_53" d="M144.145 365.884C144.427 366.033 144.742 366.108 145.06 366.101C145.375 366.108 145.686 366.033 145.963 365.884C146.08 365.842 146.18 365.765 146.251 365.664C146.322 365.563 146.36 365.442 146.36 365.318C146.36 365.195 146.322 365.074 146.251 364.973C146.18 364.871 146.08 364.795 145.963 364.752C145.682 364.61 145.37 364.535 145.054 364.535C144.739 364.535 144.427 364.61 144.145 364.752C144.035 364.803 143.94 364.882 143.87 364.982C143.8 365.081 143.758 365.197 143.748 365.318C143.759 365.439 143.802 365.555 143.872 365.654C143.941 365.753 144.036 365.832 144.145 365.884Z" fill="black"/>
<path id="Vector_54" d="M141.641 367.341C141.925 367.484 142.238 367.559 142.556 367.559C142.874 367.559 143.187 367.484 143.471 367.341C143.587 367.299 143.688 367.222 143.759 367.121C143.83 367.02 143.868 366.899 143.868 366.775C143.868 366.652 143.83 366.531 143.759 366.43C143.688 366.329 143.587 366.252 143.471 366.209C143.189 366.067 142.878 365.992 142.562 365.992C142.246 365.992 141.935 366.067 141.653 366.209C141.543 366.26 141.448 366.339 141.378 366.439C141.308 366.538 141.266 366.654 141.256 366.775C141.266 366.895 141.307 367.01 141.374 367.109C141.442 367.208 141.534 367.288 141.641 367.341Z" fill="black"/>
<path id="Vector_55" d="M140.052 369.001C140.37 369.008 140.685 368.934 140.967 368.784C141.075 368.736 141.169 368.659 141.237 368.561C141.305 368.464 141.345 368.349 141.352 368.231C141.341 368.108 141.299 367.991 141.23 367.889C141.16 367.788 141.065 367.706 140.955 367.653C140.673 367.51 140.362 367.436 140.046 367.436C139.73 367.436 139.418 367.51 139.137 367.653C139.027 367.704 138.933 367.784 138.863 367.883C138.793 367.982 138.751 368.098 138.739 368.219C138.75 368.34 138.792 368.456 138.862 368.555C138.931 368.655 139.026 368.734 139.137 368.784C139.419 368.932 139.733 369.007 140.052 369.001Z" fill="black"/>
<path id="Vector_56" d="M154.392 364.559L152.947 363.74C152.802 363.663 152.641 363.623 152.477 363.623C152.313 363.623 152.152 363.663 152.008 363.74H151.923C151.861 363.765 151.807 363.808 151.769 363.864C151.732 363.92 151.711 363.986 151.711 364.053C151.711 364.121 151.732 364.187 151.769 364.242C151.807 364.298 151.861 364.341 151.923 364.366L153.356 365.197C153.501 365.271 153.663 365.308 153.826 365.305C153.993 365.31 154.158 365.272 154.307 365.197H154.392C154.453 365.168 154.504 365.121 154.541 365.064C154.577 365.006 154.596 364.94 154.596 364.872C154.593 364.806 154.572 364.743 154.536 364.688C154.5 364.633 154.45 364.589 154.392 364.559Z" fill="black"/>
<path id="Vector_57" d="M151.815 365.233C151.533 365.09 151.222 365.016 150.906 365.016C150.59 365.016 150.279 365.09 149.997 365.233C149.887 365.284 149.792 365.363 149.722 365.462C149.652 365.562 149.61 365.678 149.6 365.799C149.611 365.919 149.654 366.035 149.723 366.134C149.793 366.234 149.887 366.313 149.997 366.365C150.278 366.514 150.593 366.588 150.912 366.581C151.228 366.589 151.541 366.51 151.815 366.353C151.925 366.305 152.02 366.228 152.09 366.131C152.16 366.033 152.203 365.918 152.212 365.799C152.202 365.678 152.16 365.562 152.09 365.462C152.02 365.363 151.925 365.284 151.815 365.233Z" fill="black"/>
<path id="Vector_58" d="M149.299 366.689C149.019 366.541 148.706 366.463 148.389 366.463C148.073 366.463 147.76 366.541 147.48 366.689C147.37 366.737 147.275 366.814 147.205 366.911C147.135 367.009 147.093 367.123 147.083 367.243C147.093 367.364 147.136 367.48 147.205 367.58C147.275 367.679 147.37 367.758 147.48 367.809C147.762 367.958 148.077 368.033 148.396 368.026C148.71 368.033 149.021 367.958 149.299 367.809C149.407 367.759 149.501 367.682 149.571 367.585C149.641 367.488 149.684 367.374 149.696 367.255C149.687 367.134 149.645 367.017 149.575 366.917C149.505 366.818 149.41 366.739 149.299 366.689Z" fill="black"/>
<path id="Vector_59" d="M146.806 368.135C146.525 367.992 146.213 367.918 145.897 367.918C145.581 367.918 145.27 367.992 144.988 368.135C144.88 368.188 144.788 368.267 144.72 368.367C144.652 368.466 144.612 368.581 144.603 368.701C144.611 368.823 144.652 368.94 144.722 369.04C144.792 369.14 144.888 369.218 145 369.267C145.277 369.416 145.589 369.491 145.903 369.484C146.222 369.489 146.536 369.415 146.818 369.267C146.928 369.217 147.022 369.137 147.09 369.038C147.158 368.938 147.197 368.822 147.204 368.701C147.192 368.58 147.15 368.465 147.08 368.365C147.01 368.266 146.916 368.187 146.806 368.135Z" fill="black"/>
<path id="Vector_60" d="M144.302 369.627C144.022 369.485 143.713 369.41 143.399 369.41C143.085 369.41 142.775 369.485 142.496 369.627C142.384 369.676 142.288 369.754 142.217 369.854C142.147 369.954 142.106 370.071 142.099 370.193C142.109 370.314 142.151 370.43 142.221 370.53C142.291 370.629 142.385 370.708 142.496 370.759C142.773 370.908 143.084 370.983 143.399 370.976C143.717 370.981 144.032 370.907 144.314 370.759C144.424 370.709 144.517 370.629 144.585 370.53C144.653 370.43 144.693 370.314 144.699 370.193C144.692 370.071 144.65 369.954 144.58 369.854C144.51 369.754 144.414 369.676 144.302 369.627Z" fill="black"/>
<path id="Vector_61" d="M141.798 371.048C141.614 370.92 141.405 370.833 141.185 370.791C140.965 370.75 140.739 370.755 140.521 370.807C140.481 370.827 140.448 370.858 140.424 370.897C140.401 370.935 140.388 370.979 140.389 371.024C140.389 371.204 140.593 371.433 140.931 371.626C141.23 371.805 141.569 371.908 141.918 371.927C142.021 371.929 142.124 371.909 142.219 371.867C142.256 371.847 142.287 371.817 142.308 371.781C142.329 371.745 142.34 371.704 142.339 371.662C142.339 371.469 142.135 371.241 141.798 371.048Z" fill="black"/>
<path id="Vector_62" d="M140.244 371.953C140.058 371.824 139.848 371.737 139.626 371.695C139.404 371.654 139.176 371.66 138.956 371.712C138.918 371.734 138.887 371.765 138.866 371.803C138.845 371.842 138.834 371.885 138.836 371.928C138.836 372.109 139.04 372.338 139.377 372.543C139.675 372.714 140.009 372.813 140.353 372.831C140.457 372.84 140.561 372.819 140.654 372.771C140.692 372.752 140.724 372.723 140.748 372.687C140.771 372.651 140.784 372.609 140.786 372.567C140.786 372.374 140.581 372.145 140.244 371.953Z" fill="black"/>
<path id="Vector_63" d="M138.234 373.119C137.954 372.977 137.645 372.902 137.331 372.902C137.017 372.902 136.707 372.977 136.428 373.119C136.316 373.168 136.219 373.247 136.149 373.346C136.079 373.446 136.038 373.564 136.03 373.685C136.04 373.806 136.083 373.923 136.152 374.022C136.222 374.121 136.317 374.2 136.428 374.251C136.709 374.394 137.021 374.468 137.337 374.468C137.653 374.468 137.964 374.394 138.246 374.251C138.354 374.199 138.446 374.119 138.514 374.02C138.582 373.92 138.622 373.805 138.631 373.685C138.623 373.564 138.582 373.446 138.512 373.346C138.442 373.247 138.346 373.168 138.234 373.119Z" fill="black"/>
<path id="Vector_64" d="M135.657 367.799C135.657 367.606 135.452 367.378 135.115 367.185C134.929 367.057 134.719 366.969 134.497 366.928C134.275 366.886 134.047 366.892 133.827 366.944C133.788 366.965 133.756 366.996 133.735 367.035C133.713 367.073 133.704 367.117 133.706 367.161C133.706 367.341 133.899 367.57 134.236 367.763C134.54 367.944 134.883 368.047 135.236 368.064C135.336 368.072 135.436 368.051 135.525 368.004C135.563 367.984 135.595 367.955 135.619 367.919C135.642 367.883 135.655 367.842 135.657 367.799Z" fill="black"/>
<path id="Vector_65" d="M132.683 368.677C132.983 368.856 133.322 368.96 133.67 368.978C133.77 369 133.872 369 133.971 368.978C134.009 368.956 134.04 368.925 134.062 368.887C134.083 368.848 134.093 368.805 134.092 368.761C134.092 368.581 133.887 368.352 133.55 368.147C133.366 368.021 133.156 367.935 132.936 367.896C132.716 367.856 132.491 367.864 132.274 367.919C132.235 367.938 132.203 367.967 132.18 368.003C132.156 368.039 132.143 368.081 132.141 368.123C132.141 368.256 132.346 368.485 132.683 368.677Z" fill="black"/>
<path id="Vector_66" d="M129.733 370.387C130.01 370.536 130.322 370.611 130.636 370.603C130.956 370.611 131.272 370.532 131.551 370.375C131.66 370.326 131.753 370.249 131.821 370.152C131.889 370.054 131.929 369.939 131.937 369.821C131.926 369.7 131.884 369.584 131.814 369.484C131.745 369.385 131.65 369.306 131.539 369.255C131.258 369.109 130.947 369.033 130.63 369.033C130.314 369.033 130.002 369.109 129.721 369.255C129.611 369.302 129.516 369.379 129.446 369.477C129.376 369.574 129.334 369.689 129.324 369.809C129.333 369.933 129.376 370.053 129.448 370.155C129.52 370.256 129.619 370.337 129.733 370.387Z" fill="black"/>
<path id="Vector_67" d="M138.462 369.123C138.278 368.993 138.067 368.904 137.844 368.863C137.622 368.821 137.394 368.828 137.174 368.883C137.137 368.902 137.107 368.932 137.085 368.968C137.064 369.004 137.053 369.045 137.054 369.087C137.054 369.28 137.246 369.509 137.583 369.701C137.883 369.881 138.222 369.984 138.571 370.002C138.674 370.005 138.777 369.984 138.872 369.942C138.911 369.921 138.944 369.89 138.967 369.852C138.99 369.813 139.003 369.77 139.004 369.725C139.004 369.545 138.8 369.316 138.462 369.123Z" fill="black"/>
<path id="Vector_68" d="M137.319 370.831C137.356 370.809 137.386 370.777 137.407 370.739C137.428 370.701 137.439 370.658 137.439 370.615C137.439 370.434 137.234 370.205 136.897 370.013C136.715 369.882 136.506 369.793 136.286 369.751C136.065 369.71 135.838 369.717 135.621 369.772C135.581 369.792 135.547 369.823 135.524 369.861C135.5 369.9 135.488 369.944 135.488 369.989C135.488 370.169 135.693 370.398 136.03 370.591C136.329 370.773 136.668 370.876 137.018 370.892C137.121 370.893 137.223 370.872 137.319 370.831Z" fill="black"/>
<path id="Vector_69" d="M131.034 371.182H130.961V372.675C131.265 372.733 131.557 372.839 131.828 372.988C132.046 373.107 132.231 373.276 132.37 373.481H134.862V373.385C134.619 372.734 134.137 372.2 133.514 371.892C132.744 371.49 131.9 371.248 131.034 371.182Z" fill="black"/>
<path id="Vector_70" d="M127.975 373.493C128.33 373.055 128.838 372.767 129.396 372.686V371.193H129.324C127.373 371.398 125.82 372.301 125.471 373.457V373.541H127.951L127.975 373.493Z" fill="black"/>
<path id="Vector_71" d="M131.503 373.939C131.491 373.82 131.448 373.706 131.378 373.609C131.308 373.512 131.215 373.435 131.106 373.385C130.83 373.242 130.525 373.168 130.215 373.168C129.905 373.168 129.599 373.242 129.324 373.385C129.21 373.426 129.113 373.502 129.043 373.601C128.974 373.7 128.937 373.818 128.937 373.939C128.937 374.059 128.974 374.177 129.043 374.276C129.113 374.375 129.21 374.451 129.324 374.493C129.601 374.635 129.909 374.71 130.221 374.71C130.533 374.71 130.84 374.635 131.118 374.493C131.225 374.442 131.317 374.365 131.385 374.267C131.452 374.17 131.493 374.057 131.503 373.939Z" fill="black"/>
<path id="Vector_72" d="M132.442 374.444C132.274 374.664 132.064 374.848 131.824 374.987C131.585 375.125 131.32 375.215 131.046 375.251V376.744H131.118C133.08 376.551 134.622 375.648 134.971 374.492V374.408H132.442V374.444Z" fill="black"/>
<path id="Vector_73" d="M129.408 375.202C129.101 375.137 128.804 375.028 128.529 374.876C128.314 374.754 128.129 374.585 127.987 374.383H125.579V374.467C125.826 375.112 126.302 375.644 126.916 375.96C127.701 376.385 128.566 376.643 129.456 376.719H129.529V375.226L129.408 375.202Z" fill="black"/>
<path id="Vector_74" d="M147.697 360.298C147.751 360.315 147.798 360.348 147.832 360.394C147.865 360.439 147.883 360.494 147.883 360.551C147.883 360.607 147.865 360.662 147.832 360.707C147.798 360.753 147.751 360.787 147.697 360.803H147.613C147.477 360.874 147.326 360.911 147.173 360.911C147.02 360.911 146.87 360.874 146.734 360.803L145.301 359.973C145.06 359.84 145.06 359.611 145.301 359.467H145.385C145.521 359.396 145.672 359.359 145.825 359.359C145.978 359.359 146.129 359.396 146.264 359.467L147.697 360.298Z" fill="#B8BAC5"/>
<path id="Vector_75" d="M145.121 360.959C145.602 361.236 145.614 361.693 145.121 361.97C144.848 362.107 144.547 362.178 144.242 362.178C143.937 362.178 143.636 362.107 143.363 361.97C143.255 361.936 143.161 361.869 143.094 361.778C143.027 361.687 142.991 361.577 142.991 361.464C142.991 361.352 143.027 361.242 143.094 361.151C143.161 361.06 143.255 360.992 143.363 360.959C143.635 360.82 143.936 360.748 144.242 360.748C144.547 360.748 144.848 360.82 145.121 360.959Z" fill="#B8BAC5"/>
<path id="Vector_76" d="M142.616 362.405C143.11 362.682 143.11 363.139 142.616 363.416C142.343 363.553 142.043 363.624 141.737 363.624C141.432 363.624 141.131 363.553 140.858 363.416C140.751 363.382 140.656 363.315 140.59 363.224C140.523 363.133 140.487 363.023 140.487 362.91C140.487 362.797 140.523 362.687 140.59 362.596C140.656 362.506 140.751 362.438 140.858 362.405C141.13 362.263 141.431 362.189 141.737 362.189C142.043 362.189 142.345 362.263 142.616 362.405Z" fill="#B8BAC5"/>
<path id="Vector_77" d="M140.112 363.872C140.606 364.149 140.606 364.595 140.112 364.884C139.841 365.02 139.542 365.091 139.239 365.091C138.936 365.091 138.637 365.02 138.366 364.884C138.26 364.847 138.168 364.778 138.103 364.686C138.037 364.594 138.002 364.485 138.002 364.372C138.002 364.26 138.037 364.15 138.103 364.058C138.168 363.967 138.26 363.897 138.366 363.86C138.637 363.723 138.937 363.652 139.24 363.654C139.544 363.656 139.843 363.731 140.112 363.872Z" fill="#B8BAC5"/>
<path id="Vector_78" d="M137.62 365.318C138.101 365.607 138.101 366.053 137.62 366.33C137.35 366.469 137.05 366.542 136.747 366.542C136.443 366.542 136.144 366.469 135.874 366.33C135.38 366.041 135.38 365.583 135.874 365.306C136.146 365.173 136.445 365.105 136.748 365.107C137.051 365.11 137.349 365.182 137.62 365.318Z" fill="#B8BAC5"/>
<path id="Vector_79" d="M150.503 361.729C150.576 361.756 150.64 361.805 150.685 361.87C150.73 361.935 150.754 362.011 150.754 362.09C150.754 362.169 150.73 362.245 150.685 362.31C150.64 362.375 150.576 362.424 150.503 362.451C150.314 362.54 150.109 362.586 149.901 362.586C149.692 362.586 149.487 362.54 149.299 362.451C149.225 362.424 149.161 362.375 149.116 362.31C149.071 362.245 149.047 362.169 149.047 362.09C149.047 362.011 149.071 361.935 149.116 361.87C149.161 361.805 149.225 361.756 149.299 361.729C149.487 361.64 149.692 361.594 149.901 361.594C150.109 361.594 150.314 361.64 150.503 361.729Z" fill="#B8BAC5"/>
<path id="Vector_80" d="M148.468 362.898C148.949 363.175 148.961 363.632 148.468 363.909C148.195 364.046 147.894 364.117 147.589 364.117C147.284 364.117 146.983 364.046 146.71 363.909C146.602 363.875 146.508 363.808 146.441 363.717C146.374 363.626 146.338 363.516 146.338 363.403C146.338 363.29 146.374 363.18 146.441 363.09C146.508 362.999 146.602 362.931 146.71 362.898C146.98 362.753 147.282 362.678 147.589 362.678C147.895 362.678 148.197 362.753 148.468 362.898Z" fill="#B8BAC5"/>
<path id="Vector_81" d="M145.963 364.343C146.457 364.632 146.457 365.078 145.963 365.367C145.691 365.504 145.39 365.575 145.085 365.575C144.779 365.575 144.478 365.504 144.206 365.367C144.099 365.33 144.007 365.261 143.942 365.169C143.877 365.077 143.842 364.968 143.842 364.855C143.842 364.743 143.877 364.633 143.942 364.541C144.007 364.45 144.099 364.38 144.206 364.343C144.478 364.205 144.779 364.133 145.085 364.133C145.39 364.133 145.691 364.205 145.963 364.343Z" fill="#B8BAC5"/>
<path id="Vector_82" d="M143.459 365.799C143.953 366.076 143.953 366.534 143.459 366.811C143.19 366.953 142.89 367.028 142.586 367.028C142.282 367.028 141.982 366.953 141.713 366.811C141.22 366.534 141.22 366.076 141.713 365.799C141.984 365.663 142.283 365.592 142.586 365.592C142.889 365.592 143.188 365.663 143.459 365.799Z" fill="#B8BAC5"/>
<path id="Vector_83" d="M140.967 367.219C141.075 367.253 141.169 367.32 141.236 367.411C141.303 367.502 141.339 367.612 141.339 367.725C141.339 367.838 141.303 367.948 141.236 368.039C141.169 368.13 141.075 368.197 140.967 368.231C140.696 368.367 140.397 368.438 140.094 368.438C139.791 368.438 139.492 368.367 139.221 368.231C138.727 367.954 138.739 367.496 139.221 367.219C139.492 367.083 139.791 367.012 140.094 367.012C140.397 367.012 140.696 367.083 140.967 367.219Z" fill="#B8BAC5"/>
<path id="Vector_84" d="M154.392 364.162C154.632 364.307 154.632 364.536 154.392 364.668H154.307C154.172 364.739 154.021 364.776 153.868 364.776C153.715 364.776 153.564 364.739 153.428 364.668L151.996 363.849C151.943 363.829 151.898 363.794 151.866 363.748C151.834 363.702 151.817 363.647 151.817 363.591C151.817 363.534 151.834 363.48 151.866 363.433C151.898 363.387 151.943 363.352 151.996 363.332H152.08C152.216 363.264 152.367 363.229 152.519 363.229C152.672 363.229 152.822 363.264 152.959 363.332L154.392 364.162Z" fill="#B8BAC5"/>
<path id="Vector_85" d="M151.815 364.811C152.309 365.088 152.309 365.546 151.815 365.823C151.545 365.962 151.246 366.035 150.942 366.035C150.638 366.035 150.339 365.962 150.069 365.823C149.576 365.546 149.576 365.088 150.069 364.811C150.34 364.675 150.639 364.604 150.942 364.604C151.245 364.604 151.544 364.675 151.815 364.811Z" fill="#B8BAC5"/>
<path id="Vector_86" d="M149.299 366.281C149.406 366.315 149.501 366.382 149.567 366.473C149.634 366.564 149.67 366.674 149.67 366.787C149.67 366.9 149.634 367.01 149.567 367.101C149.501 367.191 149.406 367.259 149.299 367.292C149.028 367.429 148.729 367.5 148.426 367.5C148.122 367.5 147.823 367.429 147.553 367.292C147.445 367.259 147.351 367.191 147.284 367.101C147.217 367.01 147.181 366.9 147.181 366.787C147.181 366.674 147.217 366.564 147.284 366.473C147.351 366.382 147.445 366.315 147.553 366.281C147.824 366.146 148.123 366.076 148.426 366.076C148.729 366.076 149.027 366.146 149.299 366.281Z" fill="#B8BAC5"/>
<path id="Vector_87" d="M146.818 367.737C146.926 367.771 147.02 367.838 147.087 367.929C147.154 368.02 147.19 368.13 147.19 368.243C147.19 368.356 147.154 368.465 147.087 368.556C147.02 368.647 146.926 368.715 146.818 368.748C146.548 368.885 146.249 368.956 145.945 368.956C145.642 368.956 145.343 368.885 145.072 368.748C144.965 368.715 144.87 368.647 144.804 368.556C144.737 368.465 144.701 368.356 144.701 368.243C144.701 368.13 144.737 368.02 144.804 367.929C144.87 367.838 144.965 367.771 145.072 367.737C145.343 367.6 145.642 367.529 145.945 367.529C146.249 367.529 146.548 367.6 146.818 367.737Z" fill="#B8BAC5"/>
<path id="Vector_88" d="M144.314 369.195C144.796 369.472 144.796 369.918 144.314 370.207C144.043 370.343 143.744 370.414 143.441 370.414C143.138 370.414 142.839 370.343 142.568 370.207C142.46 370.173 142.366 370.106 142.299 370.015C142.232 369.924 142.196 369.814 142.196 369.701C142.196 369.588 142.232 369.478 142.299 369.387C142.366 369.296 142.46 369.229 142.568 369.195C142.837 369.053 143.137 368.979 143.441 368.979C143.745 368.979 144.045 369.053 144.314 369.195Z" fill="#B8BAC5"/>
<path id="Vector_89" d="M142.291 371.277C142.274 371.307 142.249 371.332 142.219 371.35C142.148 371.366 142.073 371.366 142.002 371.35C141.907 371.367 141.809 371.367 141.713 371.35C141.606 371.329 141.501 371.296 141.4 371.253C141.283 371.211 141.171 371.159 141.063 371.097C140.75 370.916 140.557 370.699 140.557 370.543V370.988C140.557 371.133 140.75 371.35 141.063 371.542L141.376 371.687H141.448H141.593H141.737H142.074H142.135V371.627V371.181C142.15 371.168 142.169 371.159 142.19 371.158C142.21 371.156 142.231 371.161 142.248 371.172C142.266 371.183 142.279 371.199 142.287 371.218C142.295 371.237 142.296 371.258 142.291 371.277Z" fill="#6F7077"/>
<path id="Vector_90" d="M141.81 370.639C142.255 370.904 142.448 371.217 142.219 371.35C142.012 371.393 141.799 371.395 141.592 371.353C141.385 371.312 141.189 371.229 141.015 371.109C140.569 370.856 140.389 370.531 140.606 370.411C140.811 370.364 141.024 370.361 141.231 370.4C141.438 370.439 141.635 370.521 141.81 370.639Z" fill="#B8BAC5"/>
<path id="Vector_91" d="M140.762 372.108C140.767 372.132 140.767 372.156 140.762 372.18L140.69 372.24C140.619 372.26 140.544 372.26 140.473 372.24H140.184C140.077 372.222 139.973 372.194 139.871 372.156C139.753 372.112 139.64 372.055 139.534 371.987C139.34 371.896 139.176 371.749 139.064 371.566C139.054 371.523 139.054 371.477 139.064 371.434V371.867C139.064 372.024 139.245 372.228 139.57 372.421C139.668 372.481 139.774 372.53 139.883 372.565H140.028H140.172H140.666V372.481L140.762 372.108Z" fill="#6F7077"/>
<path id="Vector_92" d="M140.244 371.555C140.702 371.808 140.882 372.121 140.666 372.253C140.459 372.301 140.245 372.304 140.038 372.262C139.83 372.221 139.634 372.136 139.462 372.013C139.004 371.76 138.824 371.447 139.052 371.314C139.257 371.268 139.469 371.265 139.674 371.307C139.88 371.348 140.074 371.433 140.244 371.555Z" fill="#B8BAC5"/>
<path id="Vector_93" d="M138.595 373.348C138.601 373.387 138.601 373.428 138.595 373.468L138.498 373.576L138.414 373.637H138.33C138.215 373.708 138.089 373.761 137.957 373.793H137.896C137.756 373.805 137.615 373.805 137.475 373.793C137.327 373.805 137.178 373.805 137.03 373.793C136.891 373.765 136.757 373.716 136.632 373.649C136.532 373.602 136.445 373.53 136.382 373.439C136.318 373.348 136.28 373.241 136.271 373.131V373.576C136.282 373.685 136.321 373.788 136.384 373.877C136.448 373.966 136.533 374.037 136.632 374.082L136.813 374.166H136.957H137.03H137.15H137.656H137.812H137.884H137.945H138.053L138.318 374.046L138.402 373.986L138.474 373.901V373.829V373.757V373.239C138.521 373.267 138.562 373.304 138.595 373.348Z" fill="#6F7077"/>
<path id="Vector_94" d="M138.246 372.71C138.727 372.999 138.727 373.444 138.246 373.721C137.976 373.861 137.676 373.933 137.373 373.933C137.069 373.933 136.77 373.861 136.5 373.721C136.394 373.684 136.301 373.615 136.236 373.523C136.171 373.432 136.136 373.322 136.136 373.209C136.136 373.097 136.171 372.987 136.236 372.896C136.301 372.804 136.394 372.735 136.5 372.698C136.772 372.563 137.071 372.494 137.374 372.496C137.677 372.498 137.976 372.571 138.246 372.71Z" fill="#B8BAC5"/>
<path id="Vector_95" d="M135.115 366.787C135.573 367.04 135.753 367.353 135.537 367.485C135.33 367.532 135.116 367.534 134.909 367.493C134.702 367.452 134.505 367.367 134.333 367.244C133.887 366.991 133.694 366.666 133.911 366.546C134.118 366.498 134.332 366.495 134.539 366.537C134.747 366.578 134.943 366.664 135.115 366.787Z" fill="#B8BAC5"/>
<path id="Vector_96" d="M145.301 360.465L146.734 361.296H146.818H146.891H147.481L147.613 361.236H147.697H147.769V360.79C147.786 360.833 147.786 360.88 147.769 360.923C147.733 360.968 147.688 361.004 147.637 361.031H147.553C147.494 361.068 147.428 361.092 147.36 361.103H147.143H146.915L146.71 361.019L145.277 360.188C145.226 360.168 145.182 360.133 145.15 360.088C145.118 360.043 145.099 359.991 145.097 359.936V360.381C145.153 360.432 145.225 360.462 145.301 360.465Z" fill="#6F7077"/>
<path id="Vector_97" d="M143.375 362.404L143.555 362.488H143.7H144.482H144.639H144.771H144.88C144.977 362.464 145.07 362.428 145.157 362.38H145.241L145.313 362.295V362.223V362.151V361.705C145.319 361.749 145.319 361.794 145.313 361.838V361.958L145.217 362.067L145.133 362.139H145.06C144.938 362.201 144.809 362.25 144.675 362.283C144.537 362.316 144.396 362.336 144.254 362.344C144.103 362.341 143.954 362.321 143.808 362.283C143.665 362.251 143.527 362.198 143.399 362.127C143.245 362.048 143.125 361.915 143.062 361.754C143.056 361.71 143.056 361.665 143.062 361.621V362.055C143.117 362.207 143.229 362.332 143.375 362.404Z" fill="#6F7077"/>
<path id="Vector_98" d="M141.569 364.065H141.954H142.123H142.231C142.328 364.038 142.421 363.997 142.508 363.945L142.592 363.873L142.664 363.789C142.664 363.789 142.664 363.789 142.664 363.716C142.659 363.693 142.659 363.668 142.664 363.644V363.199C142.67 363.243 142.67 363.287 142.664 363.331V363.439L142.556 363.548C142.533 363.574 142.504 363.595 142.472 363.608L142.4 363.668C142.278 363.733 142.148 363.781 142.014 363.813C141.874 363.831 141.733 363.831 141.593 363.813C141.441 363.831 141.287 363.831 141.135 363.813C140.992 363.781 140.854 363.728 140.726 363.656C140.627 363.611 140.542 363.54 140.478 363.451C140.415 363.363 140.376 363.259 140.365 363.15V363.584C140.375 363.693 140.413 363.797 140.477 363.886C140.54 363.975 140.626 364.045 140.726 364.09L140.907 364.186H141.051H141.183H141.304L141.569 364.065Z" fill="#6F7077"/>
<path id="Vector_99" d="M138.824 365.486H138.944H139.45H139.618H139.678H139.787L140.064 365.365L140.148 365.293C140.179 365.271 140.203 365.242 140.22 365.209C140.225 365.185 140.225 365.16 140.22 365.136C140.22 365.136 140.22 365.136 140.22 365.064V364.631C140.226 364.671 140.226 364.711 140.22 364.751C140.224 364.787 140.224 364.824 140.22 364.86L140.124 364.968L140.028 365.028L139.955 365.088C139.834 365.153 139.704 365.201 139.57 365.233C139.43 365.251 139.289 365.251 139.149 365.233C138.997 365.251 138.843 365.251 138.691 365.233C138.551 365.203 138.417 365.15 138.294 365.076C138.184 365.019 138.089 364.936 138.017 364.835C137.957 364.755 137.923 364.659 137.921 364.559V364.811C137.93 364.92 137.969 365.024 138.032 365.113C138.096 365.202 138.182 365.273 138.282 365.317L138.462 365.401L138.619 365.462H138.739L138.824 365.486Z" fill="#6F7077"/>
<path id="Vector_100" d="M137.957 366.016C137.963 366.055 137.963 366.096 137.957 366.136L137.86 366.244L137.764 366.304H137.692C137.576 366.376 137.45 366.429 137.319 366.461C137.174 366.473 137.029 366.473 136.885 366.461C136.733 366.473 136.58 366.473 136.428 366.461C136.289 366.433 136.155 366.384 136.03 366.317C135.875 366.235 135.752 366.103 135.681 365.943C135.675 365.895 135.675 365.847 135.681 365.799V366.244C135.692 366.354 135.732 366.459 135.798 366.548C135.864 366.637 135.952 366.707 136.054 366.75C136.107 366.785 136.163 366.813 136.223 366.834H136.379H136.452H136.584H137.09H137.246H137.319H137.415L137.692 366.714L137.788 366.654L137.872 366.569C137.878 366.546 137.878 366.521 137.872 366.497C137.878 366.473 137.878 366.449 137.872 366.425V365.991C137.878 366.031 137.878 366.072 137.872 366.112L137.957 366.016Z" fill="#6F7077"/>
<path id="Vector_101" d="M149.226 362.885L149.359 362.945C149.39 362.957 149.424 362.957 149.455 362.945H149.551H149.636H150.202H150.274C150.343 362.93 150.408 362.901 150.466 362.861H150.539L150.599 362.801V362.716V362.271C150.605 362.303 150.605 362.335 150.599 362.367C150.602 362.391 150.602 362.415 150.599 362.439L150.539 362.512C150.457 362.562 150.367 362.599 150.274 362.62C150.174 362.633 150.073 362.633 149.973 362.62C149.869 362.632 149.764 362.632 149.66 362.62C149.559 362.599 149.461 362.562 149.371 362.512C149.296 362.468 149.231 362.411 149.178 362.343C149.161 362.28 149.161 362.213 149.178 362.15V362.596C149.16 362.695 149.177 362.797 149.226 362.885Z" fill="#6F7077"/>
<path id="Vector_102" d="M147.42 364.548H147.818H147.974H148.083L148.359 364.427L148.444 364.355L148.516 364.271C148.516 364.271 148.516 364.271 148.516 364.199C148.51 364.175 148.51 364.15 148.516 364.126V363.681C148.522 363.725 148.522 363.769 148.516 363.813V363.922L148.408 364.03L148.323 364.09L148.251 364.151C148.129 364.215 148 364.264 147.866 364.295C147.726 364.313 147.584 364.313 147.444 364.295C147.292 364.313 147.139 364.313 146.987 364.295C146.845 364.258 146.708 364.205 146.578 364.138L146.421 364.018C146.362 363.972 146.313 363.913 146.278 363.847C146.243 363.781 146.222 363.708 146.216 363.633V364.066C146.226 364.175 146.265 364.279 146.328 364.368C146.392 364.457 146.478 364.527 146.578 364.572L146.758 364.656H146.903H146.987H147.107L147.42 364.548Z" fill="#6F7077"/>
<path id="Vector_103" d="M142.171 367.425H142.303H142.424H142.965H143.038H143.146L143.411 367.305H143.483L143.567 367.245L143.652 367.173C143.657 367.149 143.657 367.124 143.652 367.1C143.657 367.077 143.657 367.052 143.652 367.028V366.595C143.657 366.635 143.657 366.675 143.652 366.715C143.658 366.755 143.658 366.796 143.652 366.835L143.555 366.944L143.471 367.004H143.387C143.273 367.077 143.146 367.126 143.014 367.148C142.869 367.16 142.724 367.16 142.58 367.148C142.428 367.167 142.275 367.167 142.123 367.148C141.982 367.119 141.848 367.066 141.725 366.992C141.623 366.95 141.533 366.881 141.467 366.792C141.402 366.703 141.362 366.597 141.352 366.486V366.932C141.363 367.04 141.402 367.144 141.465 367.233C141.529 367.321 141.614 367.392 141.713 367.437L141.894 367.522H142.05H142.123L142.171 367.425Z" fill="#6F7077"/>
<path id="Vector_104" d="M154.536 364.547C154.503 364.596 154.457 364.633 154.404 364.656H154.319C154.26 364.693 154.195 364.722 154.127 364.74H153.91H153.681L153.476 364.656L152.044 363.837C151.992 363.807 151.947 363.766 151.911 363.717C151.896 363.67 151.896 363.619 151.911 363.572V364.018C151.918 364.072 151.938 364.123 151.969 364.167C152.001 364.211 152.043 364.247 152.092 364.271L153.525 365.101H153.621H153.693H154.271H154.404H154.488H154.56V364.656C154.544 364.622 154.536 364.585 154.536 364.547Z" fill="#6F7077"/>
<path id="Vector_105" d="M152.164 365.475V365.595C152.138 365.639 152.1 365.677 152.056 365.703L151.971 365.776H151.899C151.782 365.85 151.651 365.899 151.514 365.92C151.374 365.932 151.233 365.932 151.093 365.92C150.94 365.933 150.787 365.933 150.635 365.92C150.495 365.89 150.361 365.837 150.238 365.764C150.079 365.693 149.954 365.563 149.889 365.402C149.883 365.354 149.883 365.306 149.889 365.258V365.703C149.899 365.812 149.939 365.915 150.002 366.004C150.065 366.093 150.151 366.163 150.25 366.209L150.43 366.293H150.587H150.659H150.779H151.454H151.562L151.839 366.173L151.923 366.113C151.923 366.113 151.984 366.113 151.996 366.028V365.968C151.996 365.968 151.996 365.968 151.996 365.896V365.463C152.001 365.502 152.001 365.543 151.996 365.583L152.164 365.475Z" fill="#6F7077"/>
<path id="Vector_106" d="M149.66 366.932C149.662 366.972 149.662 367.012 149.66 367.052L149.563 367.16L149.467 367.233H149.395C149.277 367.295 149.151 367.344 149.022 367.377C148.878 367.395 148.732 367.395 148.588 367.377C148.436 367.395 148.283 367.395 148.131 367.377C147.991 367.345 147.857 367.292 147.733 367.221C147.576 367.142 147.452 367.01 147.384 366.847C147.372 366.804 147.372 366.758 147.384 366.715V367.221C147.393 367.333 147.432 367.44 147.498 367.532C147.564 367.623 147.654 367.694 147.757 367.738L147.926 367.823H148.082H148.841H148.998H149.118H149.226C149.324 367.795 149.417 367.754 149.503 367.702L149.6 367.642L149.684 367.558C149.689 367.534 149.689 367.509 149.684 367.485C149.689 367.462 149.689 367.437 149.684 367.413V366.968C149.69 367.012 149.69 367.056 149.684 367.1L149.66 366.932Z" fill="#6F7077"/>
<path id="Vector_107" d="M147.155 368.424C147.159 368.46 147.159 368.497 147.155 368.533L147.059 368.641L146.975 368.701H146.891C146.772 368.764 146.647 368.812 146.517 368.846C146.373 368.864 146.228 368.864 146.084 368.846C145.936 368.864 145.786 368.864 145.638 368.846C145.499 368.814 145.365 368.761 145.241 368.689L145.085 368.581C145.023 368.534 144.973 368.474 144.937 368.405C144.902 368.337 144.882 368.261 144.88 368.184V368.617C144.887 368.727 144.925 368.832 144.989 368.921C145.052 369.011 145.14 369.08 145.241 369.123L145.41 369.219H145.566H145.699H145.819H146.325H146.481H146.553H146.65C146.748 369.194 146.841 369.153 146.927 369.099L147.023 369.026L147.107 368.942V368.87C147.113 368.846 147.113 368.821 147.107 368.798V368.352C147.113 368.396 147.113 368.441 147.107 368.485L147.155 368.424Z" fill="#6F7077"/>
<path id="Vector_108" d="M135.609 367.425C135.609 367.425 135.609 367.425 135.537 367.485H135.452H135.163H135.031H134.874L134.67 367.413C134.569 367.375 134.472 367.326 134.381 367.269C134.238 367.198 134.112 367.1 134.008 366.98C133.933 366.91 133.886 366.816 133.875 366.715V367.16C133.875 367.317 134.056 367.522 134.381 367.714L134.67 367.847L134.862 367.907H135.007H135.488V367.835V367.401C135.494 367.429 135.494 367.458 135.488 367.485L135.609 367.425Z" fill="#6F7077"/>
<path id="Vector_109" d="M134.044 368.327C134.036 368.342 134.026 368.354 134.014 368.365C134.001 368.375 133.987 368.383 133.971 368.387C133.971 368.387 133.971 368.387 133.887 368.387H133.442H133.285H133.092L132.791 368.255C132.654 368.177 132.528 368.08 132.418 367.966C132.346 367.895 132.299 367.802 132.286 367.701V368.135C132.286 368.291 132.466 368.508 132.791 368.688L133.08 368.833L133.273 368.905H133.418H133.899V368.833V368.4C133.909 368.427 133.909 368.457 133.899 368.484L134.044 368.327Z" fill="#6F7077"/>
<path id="Vector_110" d="M133.562 367.69C134.008 367.943 134.2 368.268 133.971 368.388C133.766 368.435 133.553 368.438 133.346 368.399C133.139 368.36 132.942 368.278 132.767 368.16C132.322 367.895 132.129 367.582 132.358 367.449C132.564 367.403 132.778 367.4 132.986 367.441C133.193 367.483 133.39 367.568 133.562 367.69Z" fill="#B8BAC5"/>
<path id="Vector_111" d="M129.565 369.4C129.558 369.356 129.558 369.311 129.565 369.268V369.4Z" fill="#6F7077"/>
<path id="Vector_112" d="M131.551 368.845C131.659 368.879 131.753 368.946 131.82 369.037C131.887 369.128 131.923 369.238 131.923 369.351C131.923 369.464 131.887 369.574 131.82 369.665C131.753 369.756 131.659 369.823 131.551 369.857C131.282 369.999 130.983 370.073 130.678 370.073C130.374 370.073 130.074 369.999 129.805 369.857C129.324 369.58 129.312 369.122 129.805 368.845C130.077 368.711 130.376 368.641 130.678 368.641C130.981 368.641 131.28 368.711 131.551 368.845Z" fill="#B8BAC5"/>
<path id="Vector_113" d="M138.956 369.35C138.942 369.376 138.921 369.397 138.896 369.411C138.828 369.445 138.755 369.465 138.679 369.471H138.39L138.077 369.374L137.74 369.218C137.415 369.025 137.234 368.821 137.234 368.664V369.097C137.234 369.254 137.415 369.471 137.74 369.651L138.053 369.808H138.197H138.342H138.836V369.736V369.302C138.88 369.303 138.923 369.32 138.956 369.35Z" fill="#6F7077"/>
<path id="Vector_114" d="M138.462 368.713C138.92 368.978 139.101 369.291 138.884 369.411C138.678 369.458 138.465 369.462 138.258 369.423C138.051 369.383 137.854 369.302 137.68 369.182C137.222 368.918 137.042 368.605 137.258 368.472C137.465 368.428 137.678 368.426 137.885 368.467C138.093 368.509 138.289 368.592 138.462 368.713Z" fill="#B8BAC5"/>
<path id="Vector_115" d="M137.391 370.254C137.373 370.284 137.348 370.309 137.319 370.326C137.247 370.341 137.173 370.341 137.102 370.326C137.002 370.338 136.901 370.338 136.801 370.326C136.697 370.305 136.596 370.273 136.5 370.23C136.383 370.188 136.27 370.135 136.163 370.073C135.968 369.982 135.805 369.835 135.693 369.652C135.684 369.608 135.684 369.563 135.693 369.52V369.965C135.693 370.109 135.874 370.326 136.199 370.519C136.3 370.574 136.404 370.622 136.512 370.663H136.668H136.813H136.885H137.198H137.27V370.591V370.146C137.298 370.152 137.323 370.165 137.344 370.184C137.365 370.203 137.381 370.227 137.391 370.254Z" fill="#6F7077"/>
<path id="Vector_116" d="M136.909 369.628C137.355 369.892 137.547 370.206 137.319 370.338C137.112 370.382 136.899 370.383 136.692 370.342C136.485 370.3 136.288 370.217 136.115 370.097C135.669 369.832 135.476 369.519 135.705 369.399C135.911 369.353 136.124 369.349 136.331 369.388C136.538 369.428 136.735 369.509 136.909 369.628Z" fill="#B8BAC5"/>
<path id="Vector_117" d="M131.082 372.156V372.601L131.07 371.229V370.783L131.082 372.156Z" fill="#6B6C73"/>
<path id="Vector_118" d="M134.899 373L134.886 373.433H132.539V373H134.899Z" fill="#9597A0"/>
<path id="Vector_119" d="M131.973 372.481L131.624 372.312H131.551L131.383 372.252H131.13V372.697C131.274 372.725 131.415 372.765 131.551 372.818H131.624C131.762 372.863 131.895 372.924 132.021 372.998C132.136 373.065 132.245 373.141 132.346 373.227C132.433 373.31 132.51 373.403 132.575 373.504V373.071C132.427 372.827 132.22 372.624 131.973 372.481Z" fill="#6F7077"/>
<path id="Vector_120" d="M131.973 372.482C131.694 372.328 131.394 372.219 131.082 372.156V370.832C131.96 370.907 132.813 371.166 133.586 371.591C134.193 371.895 134.665 372.414 134.911 373.047H132.503C132.372 372.82 132.191 372.627 131.973 372.482Z" fill="#B8BAC5"/>
<path id="Vector_121" d="M128.517 372.939H128.589C128.686 372.884 128.787 372.835 128.89 372.794H128.999C129.135 372.742 129.276 372.701 129.42 372.674V372.229L129.071 372.325H128.999H128.89L128.589 372.457H128.517C128.448 372.494 128.384 372.539 128.325 372.59L128.216 372.674C128.165 372.727 128.116 372.783 128.072 372.843L127.999 372.939V373.372C128.062 373.273 128.139 373.184 128.228 373.107L128.337 373.023L128.517 372.939Z" fill="#8D8F97"/>
<path id="Vector_122" d="M129.42 372.157C128.844 372.239 128.322 372.541 127.963 373H125.555C125.892 371.868 127.409 370.99 129.348 370.797L129.42 372.157Z" fill="#B8BAC5"/>
<path id="Vector_123" d="M127.963 373V373.433H125.615V373H127.963Z" fill="#9597A0"/>
<path id="Vector_124" d="M131.455 373.614L131.395 373.722L131.298 373.83L131.214 373.89H131.13C131.014 373.958 130.888 374.007 130.757 374.035C130.621 374.053 130.483 374.053 130.347 374.035C130.203 374.053 130.058 374.053 129.914 374.035C129.774 374.003 129.64 373.95 129.516 373.878C129.363 373.804 129.243 373.675 129.179 373.517C129.174 373.473 129.174 373.429 129.179 373.385V373.818C129.19 373.927 129.229 374.03 129.293 374.119C129.356 374.208 129.442 374.278 129.541 374.324L129.721 374.408H129.866H129.998H130.118H130.612H130.769H130.889H130.997C131.09 374.385 131.18 374.348 131.262 374.3L131.347 374.24L131.419 374.155C131.419 374.155 131.419 374.155 131.419 374.083V374.011V373.565C131.432 373.581 131.444 373.597 131.455 373.614Z" fill="#6F7077"/>
<path id="Vector_125" d="M131.118 372.987C131.223 373.02 131.314 373.086 131.379 373.174C131.444 373.263 131.48 373.37 131.48 373.48C131.48 373.59 131.444 373.698 131.379 373.786C131.314 373.875 131.223 373.941 131.118 373.974C130.851 374.11 130.556 374.181 130.257 374.181C129.958 374.181 129.663 374.11 129.396 373.974C129.291 373.941 129.2 373.875 129.135 373.786C129.069 373.698 129.034 373.59 129.034 373.48C129.034 373.37 129.069 373.263 129.135 373.174C129.2 373.086 129.291 373.02 129.396 372.987C129.663 372.85 129.958 372.779 130.257 372.779C130.556 372.779 130.851 372.85 131.118 372.987Z" fill="#B8BAC5"/>
<path id="Vector_126" d="M134.85 373.963C134.81 374.101 134.753 374.235 134.682 374.36V374.42C134.621 374.518 134.553 374.611 134.477 374.697L134.357 374.83L134.116 375.059L134.032 375.131L133.634 375.396L133.381 375.528L133.105 375.661L132.828 375.769L132.527 375.877C132.266 375.96 132 376.028 131.732 376.082L131.106 376.166V376.612L131.684 376.527C131.948 376.479 132.21 376.415 132.466 376.335L132.731 376.226L133.008 376.13L133.285 375.986L133.526 375.865C133.656 375.795 133.777 375.71 133.887 375.612L133.983 375.54L134.116 375.432L134.224 375.323L134.345 375.179L134.417 375.107C134.468 375.043 134.512 374.975 134.549 374.902L134.682 374.637V374.529L134.85 373.963Z" fill="#92939C"/>
<path id="Vector_127" d="M131.106 376.165V376.611L131.094 375.238V374.805L131.106 376.165Z" fill="#6B6C73"/>
<path id="Vector_128" d="M134.85 373.963C134.513 375.083 132.996 375.974 131.058 376.166V374.806C131.632 374.727 132.151 374.424 132.503 373.963H134.85Z" fill="#B8BAC5"/>
<path id="Vector_129" d="M128.541 374.443C128.819 374.601 129.12 374.714 129.432 374.78V376.141C128.552 376.075 127.697 375.816 126.928 375.382C126.322 375.086 125.852 374.569 125.615 373.938H128.024C128.154 374.144 128.332 374.317 128.541 374.443Z" fill="#B8BAC5"/>
<path id="Vector_130" d="M128.83 376.07H128.746C128.546 376.034 128.349 375.986 128.156 375.925L127.915 375.841C127.804 375.808 127.696 375.768 127.59 375.72C127.372 375.642 127.162 375.541 126.964 375.419C126.358 375.123 125.888 374.606 125.652 373.975V374.444C125.892 375.073 126.361 375.589 126.964 375.889C127.163 376.001 127.368 376.102 127.578 376.19L127.855 376.286L128.096 376.359L128.589 376.479H128.83H129.179H129.48V376.033C129.265 376.059 129.047 376.071 128.83 376.07Z" fill="#6F7077"/>
<path id="Vector_131" d="M121.751 375.033C122.032 375.176 122.344 375.251 122.66 375.251C122.975 375.251 123.287 375.176 123.569 375.033C123.691 374.988 123.799 374.908 123.878 374.804C123.957 374.699 124.004 374.574 124.014 374.444C124 374.324 123.954 374.21 123.882 374.113C123.811 374.016 123.715 373.939 123.605 373.89C123.324 373.744 123.012 373.668 122.696 373.668C122.379 373.668 122.068 373.744 121.787 373.89C121.67 373.932 121.57 374.009 121.499 374.11C121.428 374.211 121.39 374.332 121.39 374.456C121.39 374.579 121.428 374.7 121.499 374.801C121.57 374.902 121.67 374.979 121.787 375.021L121.751 375.033Z" fill="black"/>
<path id="Vector_132" d="M120.185 376.852C120.595 376.611 120.835 376.31 120.835 376.033C120.832 375.949 120.806 375.867 120.759 375.797C120.712 375.727 120.647 375.671 120.571 375.636C120.248 375.521 119.903 375.481 119.563 375.521C119.222 375.561 118.896 375.678 118.608 375.865L118.512 375.925L120.149 376.864L120.185 376.852Z" fill="black"/>
<path id="Vector_133" d="M117.681 377.394C117.878 377.495 118.098 377.545 118.319 377.539C118.789 377.528 119.248 377.4 119.656 377.165L119.752 377.105L118.114 376.166C117.705 376.407 117.464 376.708 117.464 376.985C117.459 377.066 117.477 377.148 117.515 377.22C117.553 377.292 117.611 377.352 117.681 377.394Z" fill="black"/>
<path id="Vector_134" d="M120.836 377.467C120.632 377.539 120.455 377.673 120.33 377.85C120.205 378.026 120.138 378.237 120.138 378.454C120.138 378.67 120.205 378.882 120.33 379.058C120.455 379.235 120.632 379.369 120.836 379.441C121.343 379.712 121.91 379.849 122.485 379.839C123.056 379.85 123.62 379.713 124.123 379.441C124.314 379.354 124.479 379.218 124.602 379.047C124.724 378.876 124.8 378.675 124.821 378.466C124.803 378.251 124.727 378.045 124.602 377.869C124.477 377.693 124.308 377.554 124.111 377.467C123.603 377.209 123.042 377.074 122.473 377.074C121.904 377.074 121.343 377.209 120.836 377.467Z" fill="black"/>
<path id="Vector_135" d="M130.263 377.78C129.981 377.637 129.67 377.562 129.354 377.562C129.038 377.562 128.727 377.637 128.445 377.78C128.335 377.83 128.24 377.91 128.17 378.009C128.1 378.108 128.058 378.225 128.048 378.346C128.059 378.466 128.102 378.582 128.171 378.681C128.241 378.78 128.335 378.86 128.445 378.911C128.723 379.059 129.033 379.134 129.348 379.128C129.667 379.131 129.982 379.052 130.263 378.899C130.373 378.852 130.468 378.775 130.538 378.678C130.608 378.58 130.651 378.465 130.66 378.346C130.65 378.225 130.608 378.108 130.538 378.009C130.468 377.91 130.373 377.83 130.263 377.78Z" fill="black"/>
<path id="Vector_136" d="M127.277 379.513C126.952 379.398 126.605 379.358 126.263 379.398C125.921 379.437 125.592 379.555 125.302 379.742L125.206 379.802L126.844 380.753C127.253 380.512 127.494 380.211 127.494 379.947C127.5 379.861 127.484 379.776 127.446 379.7C127.407 379.623 127.349 379.559 127.277 379.513Z" fill="black"/>
<path id="Vector_137" d="M124.773 380.055C124.606 380.124 124.458 380.234 124.345 380.375C124.231 380.516 124.155 380.683 124.122 380.861C124.125 380.947 124.151 381.031 124.198 381.103C124.244 381.175 124.31 381.233 124.387 381.271C124.58 381.371 124.797 381.416 125.013 381.403C125.483 381.394 125.943 381.266 126.35 381.03H126.446L124.809 380.079L124.773 380.055Z" fill="black"/>
<path id="Vector_138" d="M115.863 378.38C115.677 378.252 115.466 378.165 115.244 378.123C115.022 378.082 114.794 378.087 114.575 378.139C114.538 378.163 114.508 378.195 114.488 378.233C114.467 378.271 114.455 378.313 114.454 378.356C114.454 378.537 114.659 378.766 114.996 378.97C115.297 379.144 115.636 379.243 115.983 379.259C116.083 379.268 116.184 379.247 116.272 379.199C116.311 379.18 116.343 379.151 116.366 379.115C116.39 379.079 116.403 379.037 116.405 378.994C116.405 378.802 116.2 378.573 115.863 378.38Z" fill="black"/>
<path id="Vector_139" d="M117.994 379.621C117.809 379.491 117.598 379.402 117.376 379.361C117.154 379.319 116.925 379.326 116.706 379.381C116.669 379.4 116.638 379.43 116.617 379.466C116.596 379.502 116.585 379.543 116.585 379.585C116.585 379.778 116.778 380.007 117.127 380.199C117.422 380.38 117.757 380.483 118.102 380.5C118.202 380.522 118.304 380.522 118.403 380.5C118.443 380.48 118.477 380.449 118.501 380.411C118.524 380.373 118.536 380.328 118.536 380.284C118.548 380.043 118.343 379.814 117.994 379.621Z" fill="black"/>
<path id="Vector_140" d="M120.402 381.019C120.22 380.888 120.011 380.799 119.791 380.757C119.57 380.716 119.343 380.723 119.126 380.778C119.088 380.797 119.055 380.826 119.032 380.862C119.009 380.898 118.995 380.94 118.993 380.982C118.993 381.175 119.198 381.404 119.535 381.597C119.835 381.776 120.174 381.879 120.523 381.898C120.626 381.9 120.729 381.879 120.824 381.837C120.861 381.815 120.891 381.783 120.912 381.745C120.933 381.707 120.944 381.664 120.944 381.621C120.956 381.44 120.751 381.211 120.402 381.019Z" fill="black"/>
<path id="Vector_141" d="M122.557 382.245C122.374 382.116 122.165 382.028 121.945 381.989C121.724 381.949 121.498 381.959 121.281 382.016C121.243 382.036 121.21 382.065 121.187 382.101C121.164 382.137 121.15 382.178 121.149 382.221C121.149 382.402 121.353 382.63 121.69 382.835C121.99 383.014 122.329 383.118 122.678 383.136C122.779 383.141 122.88 383.116 122.967 383.064C123.005 383.045 123.037 383.016 123.061 382.98C123.084 382.944 123.097 382.902 123.099 382.859C123.099 382.667 122.894 382.438 122.557 382.245Z" fill="black"/>
<path id="Vector_142" d="M123.93 374.118C123.938 374.154 123.938 374.191 123.93 374.227L123.834 374.335L123.749 374.395L123.677 374.456C123.554 374.518 123.425 374.567 123.292 374.6C123.152 374.618 123.01 374.618 122.87 374.6C122.722 374.618 122.573 374.618 122.425 374.6C122.282 374.568 122.144 374.515 122.015 374.444C121.863 374.362 121.744 374.23 121.678 374.07C121.673 374.022 121.673 373.974 121.678 373.926V374.444C121.688 374.552 121.727 374.657 121.79 374.745C121.854 374.834 121.94 374.905 122.04 374.949L122.22 375.033H122.365H122.497H122.617H123.123H123.28H123.352H123.46L123.737 374.913L123.822 374.841L123.894 374.757V374.684V374.444V374.01C123.91 374.045 123.922 374.081 123.93 374.118Z" fill="#6F7077"/>
<path id="Vector_143" d="M120.823 375.564C120.835 375.624 120.835 375.685 120.823 375.745C120.796 375.81 120.76 375.871 120.715 375.926C120.673 375.976 120.624 376.02 120.571 376.058C120.508 376.117 120.439 376.169 120.366 376.215L120.27 376.275V376.72L120.474 376.564L120.583 376.443C120.618 376.411 120.643 376.369 120.655 376.323C120.66 376.295 120.66 376.267 120.655 376.239C120.655 376.239 120.655 376.239 120.655 376.166L120.823 375.564Z" fill="#9A9CA5"/>
<path id="Vector_144" d="M120.197 376.31V376.756L118.692 375.889V375.443L120.197 376.31Z" fill="#73747B"/>
<path id="Vector_145" d="M119.668 377.058V376.624C119.518 376.714 119.361 376.791 119.198 376.853L118.921 376.925H118.777H118.704H118.488H118.235H118.042L117.874 376.853C117.804 376.817 117.746 376.763 117.705 376.697C117.667 376.639 117.646 376.573 117.645 376.504V376.949C117.648 377.021 117.671 377.091 117.711 377.151C117.752 377.21 117.808 377.257 117.874 377.286H117.97H118.042H118.114H118.909L119.186 377.214C119.367 377.158 119.54 377.081 119.704 376.985L119.668 377.058Z" fill="#6F7077"/>
<path id="Vector_146" d="M124.773 378.212C124.746 378.285 124.71 378.354 124.664 378.416C124.614 378.493 124.553 378.562 124.484 378.621L124.327 378.742L124.183 378.838C124.041 378.916 123.892 378.981 123.737 379.031L123.569 379.091H123.34H123.063H122.991H122.605H122.232C122.112 379.091 121.991 379.091 121.871 379.018H121.606L121.293 378.922C121.177 378.873 121.065 378.817 120.956 378.754C120.811 378.686 120.681 378.591 120.574 378.473C120.467 378.355 120.384 378.217 120.33 378.067C120.313 377.984 120.313 377.898 120.33 377.814V378.26C120.347 378.461 120.419 378.654 120.538 378.818C120.657 378.981 120.818 379.109 121.004 379.187C121.105 379.253 121.214 379.306 121.329 379.344H121.534H121.642H121.763H121.991H123.027H123.219H123.304L123.532 379.283H123.653C123.808 379.23 123.957 379.161 124.098 379.079L124.219 378.994L124.375 378.874L124.52 378.73V378.657C124.524 378.617 124.524 378.577 124.52 378.537C124.52 378.537 124.52 378.477 124.52 378.453C124.527 378.409 124.527 378.364 124.52 378.32V377.875C124.632 377.963 124.719 378.08 124.773 378.212Z" fill="#6F7077"/>
<path id="Vector_147" d="M130.624 377.983C130.628 378.019 130.628 378.056 130.624 378.092L130.528 378.2L130.432 378.26L130.359 378.32C130.238 378.385 130.108 378.434 129.974 378.465C129.834 378.483 129.693 378.483 129.553 378.465C129.401 378.483 129.247 378.483 129.095 378.465C128.955 378.435 128.821 378.382 128.698 378.308C128.596 378.266 128.507 378.196 128.442 378.107C128.376 378.018 128.335 377.913 128.325 377.803V378.236C128.334 378.347 128.372 378.453 128.435 378.544C128.499 378.635 128.585 378.707 128.686 378.754L128.866 378.838H129.023H129.143H129.264H129.769H129.938H130.046C130.144 378.811 130.237 378.77 130.323 378.718L130.408 378.646L130.48 378.561C130.485 378.537 130.485 378.513 130.48 378.489C130.479 378.469 130.479 378.449 130.48 378.429V377.983C130.528 377.977 130.576 377.977 130.624 377.983Z" fill="#6F7077"/>
<path id="Vector_148" d="M127.482 379.609C127.455 379.674 127.418 379.735 127.373 379.79L127.241 379.922C127.176 379.984 127.103 380.036 127.024 380.079L126.94 380.151V380.584L127.157 380.428C127.199 380.394 127.235 380.353 127.265 380.307L127.349 380.199C127.349 380.199 127.349 380.199 127.349 380.139C127.354 380.111 127.354 380.082 127.349 380.055C127.355 380.031 127.355 380.006 127.349 379.982V379.549C127.396 379.562 127.441 379.582 127.482 379.609Z" fill="#9A9CA5"/>
<path id="Vector_149" d="M126.892 380.175V380.621L125.387 379.754V379.309L126.892 380.175Z" fill="#73747B"/>
<path id="Vector_150" d="M126.422 380.464C126.258 380.558 126.084 380.634 125.904 380.693L125.628 380.765H125.483H124.941H124.749C124.69 380.748 124.633 380.724 124.58 380.693C124.512 380.663 124.455 380.614 124.414 380.552C124.374 380.49 124.352 380.418 124.351 380.344V380.789C124.355 380.863 124.378 380.934 124.418 380.995C124.458 381.057 124.514 381.106 124.58 381.138H124.676H124.773H124.857H125.64C125.734 381.125 125.827 381.101 125.916 381.066C126.098 381.013 126.272 380.936 126.434 380.837L126.422 380.464Z" fill="#6F7077"/>
<path id="Vector_151" d="M116.393 378.501C116.4 378.528 116.4 378.557 116.393 378.585L116.32 378.657H116.236H115.947H115.815H115.658L115.466 378.585C115.362 378.544 115.261 378.496 115.165 378.441L114.948 378.296C114.767 378.152 114.659 378.007 114.659 377.887V378.32C114.659 378.477 114.839 378.693 115.165 378.874L115.454 379.018L115.658 379.079H115.803H116.284V379.018L116.393 378.501Z" fill="#6F7077"/>
<path id="Vector_152" d="M118.536 379.742C118.541 379.77 118.541 379.799 118.536 379.827H118.464C118.433 379.839 118.398 379.839 118.367 379.827H117.934C117.882 379.838 117.829 379.838 117.777 379.827L117.573 379.766L117.284 379.634C116.959 379.441 116.778 379.225 116.778 379.08V379.513C116.778 379.67 116.959 379.887 117.284 380.067L117.573 380.212L117.777 380.284H117.922H118.403H118.464V380.212L118.536 379.742Z" fill="#6F7077"/>
<path id="Vector_153" d="M120.92 381.223C120.912 381.238 120.902 381.251 120.89 381.261C120.877 381.271 120.863 381.279 120.848 381.284C120.848 381.284 120.848 381.284 120.763 381.284H120.655H120.342H120.173L119.981 381.223L119.692 381.091C119.367 380.898 119.174 380.682 119.174 380.537V380.971C119.174 381.127 119.367 381.344 119.68 381.524C119.776 381.524 119.884 381.621 119.981 381.669L120.173 381.741H120.318H120.799H120.86V381.669V381.235C120.878 381.226 120.899 381.222 120.92 381.223Z" fill="#6F7077"/>
<path id="Vector_154" d="M123.087 382.366C123.094 382.394 123.094 382.423 123.087 382.45C123.087 382.45 123.087 382.45 123.015 382.45H122.931H122.654H122.509H122.353L122.16 382.378C122.055 382.34 121.954 382.291 121.859 382.234C121.546 382.053 121.353 381.836 121.353 381.68V382.125C121.353 382.27 121.546 382.486 121.859 382.679L122.16 382.811L122.353 382.872H122.497H122.979H123.039L123.087 382.366Z" fill="#6F7077"/>
<path id="Vector_155" d="M123.581 373.482C124.062 373.759 124.074 374.216 123.581 374.493C123.308 374.63 123.007 374.701 122.702 374.701C122.397 374.701 122.096 374.63 121.823 374.493C121.715 374.459 121.621 374.392 121.554 374.301C121.487 374.21 121.451 374.1 121.451 373.987C121.451 373.874 121.487 373.764 121.554 373.673C121.621 373.583 121.715 373.515 121.823 373.482C122.093 373.337 122.395 373.262 122.702 373.262C123.008 373.262 123.31 373.337 123.581 373.482Z" fill="#B8BAC5"/>
<path id="Vector_156" d="M120.595 375.214C121.016 375.455 120.836 375.949 120.197 376.31L118.692 375.443C118.972 375.266 119.289 375.153 119.618 375.114C119.947 375.074 120.281 375.108 120.595 375.214Z" fill="#B8BAC5"/>
<path id="Vector_157" d="M119.68 376.623C119.4 376.8 119.083 376.913 118.754 376.952C118.425 376.992 118.091 376.957 117.777 376.852C117.356 376.611 117.537 376.117 118.175 375.756L119.68 376.623Z" fill="#B8BAC5"/>
<path id="Vector_158" d="M124.135 377.032C125.026 377.549 125.038 378.38 124.135 378.898C123.637 379.153 123.086 379.287 122.527 379.287C121.968 379.287 121.417 379.153 120.92 378.898C120.726 378.831 120.557 378.705 120.438 378.537C120.319 378.37 120.255 378.17 120.255 377.965C120.255 377.759 120.319 377.559 120.438 377.392C120.557 377.225 120.726 377.099 120.92 377.032C121.417 376.776 121.968 376.643 122.527 376.643C123.086 376.643 123.637 376.776 124.135 377.032Z" fill="#B8BAC5"/>
<path id="Vector_159" d="M130.275 377.346C130.769 377.623 130.769 378.081 130.275 378.358C130.004 378.494 129.705 378.565 129.402 378.565C129.099 378.565 128.8 378.494 128.529 378.358C128.036 378.081 128.036 377.623 128.529 377.346C128.8 377.21 129.099 377.139 129.402 377.139C129.705 377.139 130.004 377.21 130.275 377.346Z" fill="#B8BAC5"/>
<path id="Vector_160" d="M127.289 379.078C127.71 379.319 127.53 379.813 126.904 380.186L125.399 379.307C125.676 379.129 125.99 379.016 126.318 378.977C126.645 378.937 126.977 378.972 127.289 379.078Z" fill="#B8BAC5"/>
<path id="Vector_161" d="M126.422 380.465C126.143 380.645 125.827 380.76 125.497 380.799C125.168 380.839 124.833 380.803 124.52 380.693C124.11 380.453 124.279 379.959 124.917 379.598L126.422 380.465Z" fill="#B8BAC5"/>
<path id="Vector_162" d="M115.887 377.948C116.333 378.213 116.513 378.526 116.296 378.658C116.09 378.702 115.877 378.703 115.67 378.662C115.463 378.621 115.266 378.537 115.092 378.417C114.647 378.153 114.454 377.84 114.683 377.719C114.889 377.673 115.102 377.669 115.309 377.709C115.516 377.748 115.713 377.829 115.887 377.948Z" fill="#B8BAC5"/>
<path id="Vector_163" d="M117.994 379.187C118.44 379.452 118.62 379.765 118.403 379.885C118.198 379.932 117.985 379.935 117.778 379.896C117.571 379.856 117.374 379.775 117.199 379.657C116.754 379.392 116.561 379.079 116.778 378.946C116.986 378.902 117.202 378.901 117.411 378.942C117.62 378.984 117.818 379.067 117.994 379.187Z" fill="#B8BAC5"/>
<path id="Vector_164" d="M120.402 380.584C120.86 380.837 121.04 381.162 120.811 381.282C120.606 381.331 120.393 381.335 120.185 381.296C119.978 381.256 119.781 381.174 119.607 381.053C119.15 380.788 118.969 380.475 119.186 380.343C119.394 380.294 119.61 380.29 119.82 380.331C120.03 380.373 120.228 380.459 120.402 380.584Z" fill="#B8BAC5"/>
<path id="Vector_165" d="M122.581 381.813C123.027 382.078 123.219 382.391 122.991 382.524C122.784 382.57 122.57 382.573 122.363 382.532C122.156 382.49 121.959 382.405 121.787 382.283C121.341 382.03 121.161 381.705 121.377 381.584C121.583 381.538 121.796 381.535 122.003 381.574C122.21 381.613 122.407 381.695 122.581 381.813Z" fill="#B8BAC5"/>
<path id="Vector_166" opacity="0.4" d="M55.6258 601.999C86.347 601.999 111.252 587.618 111.252 569.877C111.252 552.136 86.347 537.754 55.6258 537.754C24.9045 537.754 0 552.136 0 569.877C0 587.618 24.9045 601.999 55.6258 601.999Z" fill="#D6D8E5"/>
<g id="Men 2">
<path id="Vector_167" d="M21.4075 357.18C20.8536 361.996 15.0503 383.042 16.2904 390.229C17.5305 397.417 37.3608 409.493 37.3608 409.493L40.118 397.177L29.1373 386.425L32.0992 366.017L21.4075 357.18Z" fill="#FFCEA9"/>
<path id="Vector_168" d="M36.7467 336.495C34.8177 335.6 32.6269 335.445 30.5912 336.06C28.5554 336.675 26.8167 338.016 25.7058 339.83C22.7921 344.646 19.758 361.237 19.481 364.066C19.481 364.066 23.5747 369.725 29.7152 368.786L36.7467 336.495Z" fill="#EDEDED"/>
<path id="Vector_169" d="M59.4064 570.577C63.7223 571.768 68.334 571.21 72.2412 569.024C75.3356 569.12 92.1196 561.932 94.3952 567.964C96.4059 573.25 89.1336 578.138 85.2446 579.089C76.8165 581.136 70.4954 585.362 67.088 586.084C64.5475 586.614 61.2726 586.963 59.2498 584.977C56.8177 582.581 57.0344 573.731 59.4064 570.577Z" fill="#2B2A30"/>
<path id="Vector_170" d="M67.088 584.615C70.4954 583.905 76.7202 579.679 85.2447 577.62C88.4955 576.837 94.1063 573.274 94.6722 569.023C95.4307 573.839 88.8688 578.21 85.2447 579.089C76.8165 581.136 70.4954 585.362 67.088 586.084C64.5476 586.614 61.2726 586.963 59.2499 584.976C58.7254 584.398 58.3422 583.705 58.1301 582.954C59.3905 583.91 60.8569 584.558 62.4122 584.846C63.9675 585.135 65.5687 585.055 67.088 584.615Z" fill="#BF4B4B"/>
<path id="Vector_171" d="M32.1835 558.356C36.4995 559.548 41.1111 558.989 45.0183 556.803C48.1127 556.899 64.8967 549.711 67.1723 555.743C69.183 561.029 61.9107 565.917 58.0218 566.856C49.5936 568.915 43.2725 573.141 39.8651 573.864C37.3247 574.393 34.0497 574.743 32.027 572.756C29.5948 570.36 29.8116 561.511 32.1835 558.356Z" fill="#2B2A30"/>
<path id="Vector_172" d="M39.8651 572.395C43.2725 571.672 49.4973 567.446 58.0217 565.399C61.2726 564.605 66.8833 561.041 67.4492 556.803C68.2078 561.619 61.6458 565.977 58.0217 566.856C49.5936 568.915 43.2725 573.141 39.8651 573.863C37.3246 574.393 34.0497 574.742 32.0269 572.756C31.4998 572.174 31.1163 571.477 30.9072 570.721C33.857 573.177 37.3246 572.924 39.8651 572.395Z" fill="#BF4B4B"/>
<path id="Vector_173" d="M31.8464 512.747C32.5712 506.512 33.869 500.358 35.7233 494.362C35.7233 494.362 34.5193 478.505 33.9895 463.455C33.3273 446.394 27.4156 431.369 32.0872 417.703L84.751 429.406C84.751 429.406 81.5604 497.456 80.862 505.703C80.4542 512.112 79.65 518.49 78.454 524.799C76.0941 538.067 72.2412 569.491 72.2412 569.491C66.6787 572.718 59.3703 570.936 59.3703 570.936C59.3703 570.936 59.7676 531.204 60.1288 521.669C60.5622 510.05 60.9235 510.941 60.9235 510.941L59.1174 481.985L57.9134 467.537C57.9134 467.537 56.4565 478.108 55.5054 487.547C54.6866 495.783 52.7 503.199 50.4726 518.55C48.5461 531.794 45.4277 558.559 45.4277 558.559C39.8531 561.798 32.2918 559.101 32.2918 559.101C32.2918 559.101 30.3413 524.281 31.8464 512.747Z" fill="#E26D6D"/>
<path id="Vector_174" d="M39.54 336.783C43.5494 336.976 46.5354 337.987 47.0411 336.783C47.4646 334.715 47.7702 332.625 47.9561 330.522C47.4866 329.318 47.0892 328.114 47.0892 328.114C42.0564 325.02 40.4671 319.578 39.8651 313.233C38.7333 302.397 44.5849 292.922 55.4211 291.778C65.6071 290.718 73.0961 297.882 75.1068 307.707C76.1784 312.523 78.3215 321.733 75.4198 329.716C73.8065 334.183 71.7115 337.722 69.6285 338.409C67.613 338.352 65.6028 338.175 63.6084 337.879C63.6084 337.879 63.0666 340.889 62.6933 342.815C62.3201 344.742 62.4646 345.765 66.3054 348.137C70.1462 350.509 60.49 355.361 54.1809 354.891C47.8719 354.422 40.7681 350.605 38.8176 346.463C36.6022 342.009 36.7828 336.651 39.54 336.783Z" fill="#FFCEA9"/>
<path id="Vector_175" d="M45.3434 337.374C44.2357 340.143 47.0531 343.538 54.5903 345.898C62.1275 348.258 62.8017 345.224 62.8017 345.224C62.8017 345.224 73.8426 350.257 77.4426 352.761C81.9577 355.928 83.9684 365.066 84.5704 380.513C85.2808 398.381 85.341 424.893 84.751 429.456C84.751 429.456 76.3229 437.884 65.4867 436.993C54.6505 436.102 36.4818 426.542 32.0631 419.15C32.1835 403.498 34.0136 400.933 31.4852 391.903C25.6818 371.243 22.6236 362.79 25.4651 349.053C27.7888 337.735 31.0517 336.339 35.5186 336.447C38.8077 336.581 42.0873 336.891 45.3434 337.374Z" fill="#F4F4F4"/>
<path id="Vector_176" d="M101.571 395.285C92.6975 397.525 90.6146 391.926 89.4467 387.291C86.6293 376.081 85.1002 365.944 83.0052 359.599C80.5249 352.098 77.9242 350.894 74.276 349.437C69.9897 347.715 66.3054 351.339 67.7382 360.899C69.4238 372.192 71.6392 380.163 75.8653 393.515C76.973 397.007 79.4774 403.22 83.1496 406.218C89.4467 411.298 100.427 408.866 107.375 406.711C117.007 403.725 126.639 395.875 133.682 388.964C134.416 388.377 135.076 387.702 135.645 386.954C135.904 386.398 136.198 385.859 136.524 385.34C136.873 384.931 137.391 384.594 137.451 384.052C137.451 383.859 137.451 383.655 137.451 383.45C137.523 383.004 137.993 382.752 138.234 382.366C138.424 381.995 138.504 381.577 138.462 381.162C138.425 381.004 138.425 380.839 138.462 380.681C138.547 380.548 138.653 380.43 138.775 380.332C139.244 379.906 139.572 379.347 139.715 378.73C139.715 378.646 139.907 377.189 139.474 377.43C139.474 377.43 138.089 378.212 137.656 378.393L131.636 380.958L128.698 382.162C128.132 382.414 126.856 382.643 126.591 383.269C126.819 382.246 127.048 381.21 127.289 380.187C127.482 379.38 127.903 378.682 128.144 377.887C128.83 375.552 128.144 372.843 126.783 372.554C125.423 372.265 125.688 372.349 124.604 374.649C123.52 376.948 121.847 378.622 120.571 381.969C119.899 384.328 118.659 386.486 116.959 388.254C114.839 390.59 110.011 393.154 101.571 395.285Z" fill="#FFCEA9"/>
<path id="Vector_177" d="M71.0372 347.872C76.961 347.005 81.151 349.666 83.7637 358.648C86.3764 367.629 88.2186 374.998 88.2186 374.998C85.8646 378.386 82.3009 380.743 78.2613 381.584C71.1697 383.305 68.6292 379.922 68.6292 379.922C68.6292 379.922 66.6546 370.507 65.4385 364.102C64.2225 357.696 63.6566 348.955 71.0372 347.872Z" fill="#EDEDED"/>
<path id="Vector_178" d="M74.6493 306.298C74.6493 306.298 84.0166 292.067 63.7288 289.165C49.1 287.082 39.6484 296.473 38.613 306.671C37.5655 316.424 43.5735 326.537 47.908 330.559C50.0151 331.305 54.5783 331.763 60.5502 329.03C60.7885 326.376 60.881 323.711 60.8272 321.047C60.8272 321.047 53.7475 306.045 74.6493 306.298Z" fill="#2B2A30"/>
</g>
</g>
</g>
</g>
</svg>
