<svg width="552" height="602" viewBox="0 0 552 602" fill="none" xmlns="http://www.w3.org/2000/svg">
<g id="Web_design_SVG" clip-path="url(#clip0)">
<g id="&#208;&#161;&#208;&#187;&#208;&#190;&#208;&#185; 2">
<g id="&#208;&#161;&#208;&#187;&#208;&#190;&#208;&#185; 1">
<g id="monitor">
<path id="Vector" opacity="0.4" d="M374.276 464.324L316.637 431.033C312.479 428.625 313.021 424.447 317.843 421.678L355.208 400.139L427.888 442.122L390.523 463.662C385.702 466.419 378.47 466.72 374.276 464.324Z" fill="#D6D8E5"/>
<path id="Vector_2" d="M379.483 461.278L321.82 428.035C317.674 425.627 318.204 421.449 323.026 418.68L360.39 397.141L433.095 439.076L395.73 460.616C390.897 463.373 383.641 463.674 379.483 461.278Z" fill="#B1B4C4"/>
<path id="Vector_3" d="M433.047 439.074V436.871L429.684 438.81L433.047 439.074Z" fill="#B1B4C4"/>
<path id="Vector_4" d="M319.036 424.073V421.834L322.483 423.267L319.036 424.073Z" fill="#B1B4C4"/>
<path id="Vector_5" d="M379.483 459.085L321.82 425.831C317.674 423.423 318.204 419.257 323.026 416.488L360.39 394.912L433.095 436.835L395.73 458.375C390.897 461.132 383.641 461.481 379.483 459.085Z" fill="#D6D8E5"/>
<path id="Vector_6" d="M360.547 395.045L351.543 365.234L425.032 407.338L433.047 436.872L360.547 395.045Z" fill="#9EA1AF"/>
<path id="Vector_7" d="M430.914 438.1L433.047 436.896L429.877 434.367L430.914 438.1Z" fill="#9EA1AF"/>
<path id="Vector_8" d="M358.221 396.165L349.229 366.354L422.717 408.457L430.914 438.1L358.221 396.165Z" fill="#B1B4C4"/>
<path id="Vector_9" d="M544.804 488.355L260.349 324.298C256.359 321.998 253.117 315.87 253.117 310.5V90.698C253.117 85.3884 256.347 82.9442 260.349 85.2439L544.804 249.301C548.794 251.601 552.036 257.729 552.036 263.087V482.901C552.036 488.211 548.77 490.655 544.804 488.355Z" fill="#B1B4C4"/>
<path id="Vector_10" d="M546.239 490.618L549.396 488.8L548.034 479.469L546.239 490.618Z" fill="#B1B4C4"/>
<path id="Vector_11" d="M252.575 86.6045L255.684 84.8105L260.144 87.351C260.144 87.351 255.395 88.0734 255.323 88.0493C255.25 88.0252 252.575 86.6045 252.575 86.6045Z" fill="#B1B4C4"/>
<path id="Vector_12" d="M542.177 489.861L257.721 325.804C253.732 323.504 250.489 317.376 250.489 312.006V92.2039C250.489 86.8942 253.732 84.4501 257.721 86.7497L542.177 250.807C546.166 253.106 549.409 259.235 549.409 264.593V484.407C549.397 489.716 546.166 492.161 542.177 489.861Z" fill="#E4E7F2"/>
<path id="Vector_13" d="M541.67 490.138L257.215 326.081C253.225 323.781 249.983 317.653 249.983 312.295V92.4929C249.983 87.1833 253.213 84.7392 257.215 87.0388L541.67 251.096C545.66 253.395 548.902 259.524 548.902 264.882V484.684C548.902 490.03 545.66 492.438 541.67 490.138Z" fill="#D6D8E5"/>
<path id="Vector_14" d="M544.985 476.785L253.587 308.731L253.744 93.3714C253.744 91.1681 255.299 90.2771 257.203 91.3727L541.658 255.43C542.67 256.089 543.51 256.979 544.111 258.025C544.713 259.071 545.058 260.245 545.118 261.45L544.985 476.785Z" fill="white"/>
<path id="Vector_15" d="M526.941 289.563L268.642 140.604C267.747 139.963 267.015 139.122 266.504 138.147C265.993 137.173 265.718 136.093 265.701 134.993V116.367C265.701 114.212 267.014 113.213 268.642 114.152L526.941 263.111C527.838 263.753 528.571 264.596 529.082 265.573C529.592 266.549 529.867 267.632 529.882 268.734V287.348C529.882 289.515 528.569 290.502 526.941 289.563Z" fill="#E9EAF2"/>
<path id="Vector_16" d="M513.466 339.419L452.754 304.407C451.859 303.766 451.127 302.925 450.617 301.951C450.106 300.976 449.831 299.896 449.813 298.796V259.654C449.813 257.487 451.127 256.5 452.754 257.439L513.466 292.451C514.362 293.091 515.095 293.932 515.606 294.906C516.117 295.881 516.391 296.962 516.407 298.062V337.204C516.359 339.359 515.045 340.358 513.466 339.419Z" fill="#E9EAF2"/>
<path id="Vector_17" d="M433.445 352.135L281.141 264.243C280.692 263.924 280.324 263.504 280.069 263.017C279.813 262.529 279.677 261.988 279.67 261.438V254.707C279.67 253.624 280.321 253.118 281.141 253.588L433.445 341.48C433.892 341.8 434.258 342.221 434.513 342.708C434.768 343.195 434.906 343.735 434.915 344.285V351.027C434.915 352.099 434.252 352.605 433.445 352.135Z" fill="#E9EAF2"/>
<path id="Vector_18" d="M418.451 359.43L281.575 280.532C281.128 280.21 280.763 279.789 280.508 279.302C280.253 278.816 280.114 278.276 280.104 277.726V274.367C280.104 273.284 280.767 272.79 281.575 273.26L418.451 352.194C418.898 352.515 419.263 352.935 419.519 353.422C419.774 353.909 419.912 354.449 419.921 354.999V358.346C419.921 359.394 419.258 359.899 418.451 359.43Z" fill="#E9EAF2"/>
<path id="Vector_19" d="M418.451 372.146L281.575 293.212C281.128 292.891 280.762 292.47 280.507 291.983C280.251 291.496 280.113 290.956 280.104 290.406V287.047C280.104 285.976 280.767 285.47 281.575 285.939L418.451 364.874C418.898 365.194 419.263 365.615 419.519 366.102C419.774 366.589 419.912 367.129 419.921 367.679V371.038C419.921 372.122 419.258 372.615 418.451 372.146Z" fill="#E9EAF2"/>
<path id="Vector_20" d="M383.46 364.68L281.575 305.924C281.128 305.604 280.762 305.183 280.507 304.696C280.251 304.209 280.113 303.669 280.104 303.119V299.796C280.104 298.712 280.767 298.219 281.575 298.676L383.46 357.431C383.904 357.758 384.267 358.182 384.522 358.67C384.777 359.158 384.917 359.698 384.931 360.249V363.608C384.931 364.656 384.268 365.149 383.46 364.68Z" fill="#E9EAF2"/>
<path id="Vector_21" d="M514.888 355.699L451.235 318.989C450.786 318.67 450.419 318.25 450.163 317.762C449.908 317.275 449.771 316.734 449.765 316.183V312.824C449.765 311.741 450.416 311.247 451.235 311.717L514.888 348.427C515.335 348.747 515.701 349.168 515.956 349.655C516.212 350.142 516.349 350.682 516.359 351.232V354.591C516.359 355.675 515.696 356.168 514.888 355.699Z" fill="#E9EAF2"/>
<path id="Vector_22" d="M514.888 368.426L451.235 331.704C450.786 331.385 450.419 330.965 450.163 330.477C449.908 329.99 449.771 329.449 449.765 328.898V325.551C449.765 324.468 450.416 323.962 451.235 324.431L514.888 361.202C515.337 361.521 515.703 361.941 515.959 362.429C516.214 362.916 516.351 363.457 516.359 364.007V367.354C516.359 368.426 515.696 368.883 514.888 368.426Z" fill="#E9EAF2"/>
<path id="Vector_23" d="M498.219 371.519L451.211 344.417C450.762 344.098 450.395 343.677 450.139 343.19C449.884 342.702 449.747 342.161 449.741 341.611V338.324C449.741 337.241 450.392 336.747 451.211 337.217L498.219 364.307C498.666 364.627 499.033 365.047 499.288 365.534C499.543 366.022 499.681 366.562 499.689 367.112V370.471C499.689 371.494 499.002 372.036 498.219 371.519Z" fill="#E9EAF2"/>
<path id="Vector_24" d="M513.466 437.425L452.754 402.413C451.859 401.772 451.127 400.931 450.617 399.957C450.106 398.982 449.831 397.902 449.813 396.802V357.66C449.813 355.505 451.127 354.506 452.754 355.445L513.466 390.457C514.358 391.108 515.085 391.959 515.587 392.942C516.09 393.925 516.354 395.013 516.359 396.116V435.258C516.359 437.365 515.045 438.365 513.466 437.425Z" fill="#E9EAF2"/>
<path id="Vector_25" d="M514.888 453.705L451.235 416.995C450.786 416.676 450.419 416.256 450.163 415.768C449.908 415.281 449.771 414.74 449.765 414.189V410.842C449.765 409.759 450.416 409.253 451.235 409.722L514.888 446.432C515.332 446.759 515.695 447.183 515.95 447.671C516.205 448.159 516.345 448.699 516.359 449.25V452.597C516.359 453.68 515.696 454.174 514.888 453.705Z" fill="#E9EAF2"/>
<path id="Vector_26" d="M281.54 139.346C283.748 138.073 283.746 133.941 281.536 130.117C279.326 126.293 275.744 124.226 273.536 125.499C271.328 126.772 271.33 130.904 273.54 134.728C275.75 138.552 279.332 140.619 281.54 139.346Z" fill="#DADCE5"/>
<path id="Vector_27" d="M411.833 212.327L389.487 199.444C389.263 199.283 389.08 199.071 388.952 198.827C388.824 198.582 388.756 198.311 388.751 198.035V195.049C388.751 194.508 389.077 194.255 389.487 194.496L411.833 207.378C412.058 207.536 412.243 207.745 412.371 207.988C412.498 208.231 412.566 208.501 412.569 208.775V211.737C412.569 212.315 412.219 212.568 411.833 212.327Z" fill="#DADCE5"/>
<path id="Vector_28" d="M447.993 233.19L425.646 220.332C425.423 220.172 425.241 219.963 425.113 219.72C424.985 219.478 424.916 219.209 424.911 218.935V215.973C424.911 215.431 425.249 215.179 425.646 215.419L447.993 228.302C448.217 228.464 448.4 228.675 448.528 228.92C448.655 229.164 448.724 229.435 448.728 229.711V232.673C448.728 233.166 448.379 233.419 447.993 233.19Z" fill="#DADCE5"/>
<path id="Vector_29" d="M483.574 253.708L461.227 240.801C461.002 240.644 460.818 240.435 460.69 240.192C460.562 239.949 460.494 239.679 460.492 239.405V236.443C460.492 235.901 460.818 235.66 461.227 235.889L483.574 248.772C483.798 248.933 483.981 249.144 484.109 249.389C484.236 249.634 484.305 249.905 484.309 250.18V253.142C484.309 253.696 483.984 253.937 483.574 253.708Z" fill="#DADCE5"/>
<path id="Vector_30" d="M519.734 274.512L497.399 261.63C497.175 261.468 496.992 261.257 496.864 261.012C496.737 260.768 496.668 260.497 496.664 260.221V257.259C496.664 256.717 496.989 256.477 497.399 256.705L519.734 269.696C519.959 269.854 520.143 270.063 520.271 270.306C520.399 270.549 520.467 270.819 520.469 271.093V274.055C520.469 274.512 520.143 274.801 519.734 274.512Z" fill="#DADCE5"/>
<path id="Vector_31" d="M470.412 297.28L466.145 286.312L458.395 297.34L466.905 302.253L473.907 306.286L489.516 315.292L478.21 286.191L470.412 297.28Z" fill="#DADCE5"/>
<path id="Vector_32" d="M507.454 305.235C509.452 304.088 509.461 300.358 507.474 296.904C505.487 293.451 502.256 291.581 500.258 292.728C498.26 293.875 498.251 297.604 500.238 301.058C502.225 304.512 505.456 306.382 507.454 305.235Z" fill="#DADCE5"/>
<path id="Vector_33" d="M470.846 396.731L466.591 385.763L458.829 396.792L467.35 401.704L474.353 405.737L489.962 414.743L478.656 385.643L470.846 396.731Z" fill="#DADCE5"/>
<path id="Vector_34" d="M505.905 403.482C507.894 402.335 507.896 398.618 505.909 395.18C503.922 391.743 500.699 389.885 498.71 391.032C496.721 392.18 496.719 395.896 498.706 399.334C500.693 402.772 503.916 404.629 505.905 403.482Z" fill="#DADCE5"/>
</g>
<path id="Vector_35" d="M327.461 247.217L321.82 269.78V250.468L327.461 247.217Z" fill="#232733"/>
<path id="Vector_36" d="M261.759 208.967L256.118 231.542V212.23L261.759 208.967Z" fill="#232733"/>
<path id="Vector_37" d="M354.533 348.956L220.236 271.502C219.434 270.927 218.779 270.173 218.322 269.298C217.866 268.424 217.621 267.455 217.608 266.47V197.842C217.608 195.903 218.814 195.012 220.236 195.855L354.533 273.308C355.336 273.879 355.994 274.631 356.453 275.504C356.911 276.376 357.158 277.344 357.172 278.329V347.017C357.172 348.908 355.991 349.798 354.533 348.956Z" fill="#E9EAF2"/>
<path id="Vector_38" d="M257.613 268.492L250.333 249.746L237.074 268.589L251.634 276.993L263.591 283.891L290.289 299.291L270.956 249.529L257.613 268.492Z" fill="#8C50FF"/>
<path id="Vector_39" d="M332.611 288.705C336.007 286.747 336.005 280.393 332.606 274.513C329.208 268.634 323.701 265.455 320.305 267.413C316.91 269.371 316.912 275.725 320.31 281.605C323.708 287.484 329.216 290.663 332.611 288.705Z" fill="#8C50FF"/>
<path id="Vector_40" d="M319.349 242.534L319.337 216.793L312.033 211.314V242.534L303.909 247.218L315.685 254.008L327.461 247.218L319.349 242.534Z" fill="#353C4C"/>
<path id="Vector_41" d="M315.685 254.009L321.82 269.781V251.564V250.469L315.685 254.009Z" fill="#232733"/>
<path id="Vector_42" d="M303.909 247.217L309.128 262.363L321.82 269.78L315.685 254.007L303.909 247.217Z" fill="#2B303F"/>
<path id="Vector_43" d="M253.635 204.294V173.062H246.331V204.282L238.207 208.966L249.983 215.768L261.759 208.966L253.635 204.294Z" fill="#353C4C"/>
<path id="Vector_44" d="M249.983 215.768L256.118 231.541V213.324V212.229L249.983 215.768Z" fill="#232733"/>
<path id="Vector_45" d="M238.207 208.967L243.426 224.113L256.118 231.542L249.983 215.769L238.207 208.967Z" fill="#2B303F"/>
<path id="Vector_46" opacity="0.4" d="M173.289 350.051L100.536 307.887L12.8728 358.443L91.3029 403.882L178.978 353.326V346.776L173.289 350.051Z" fill="#D6D8E5"/>
<path id="Vector_47" d="M182.521 344.369L100.536 297.088L18.5499 344.369L12.8728 341.094V347.644L100.536 398.212L188.199 347.644V341.094L182.521 344.369Z" fill="#B1B4C4"/>
<path id="Vector_48" d="M100.536 391.649L12.8728 341.093L100.536 290.537L188.199 341.093L100.536 391.649Z" fill="#E7E9F2"/>
<path id="Vector_49" d="M100.259 322.371L105.984 319.072V74.8887L100.259 78.1876V322.371Z" fill="#B1B4C4"/>
<path id="Vector_50" d="M100.716 177.819L140.745 241.102L146.47 238.766L105.984 174.857L100.716 177.819Z" fill="#B1B4C4"/>
<path id="Vector_51" d="M100.475 189.077L140.528 252.672V240.777L100.475 177.41V189.077Z" fill="#D6D8E5"/>
<path id="Vector_52" d="M94.7501 319.072L100.475 322.371V78.1876L94.7501 74.8887V319.072Z" fill="#D6D8E5"/>
<path id="Vector_53" d="M140.528 345.476L146.253 348.775V104.592L140.528 101.293V345.476Z" fill="#D6D8E5"/>
<path id="Vector_54" d="M146.036 348.775L151.762 345.476V101.293L146.036 104.592V348.775Z" fill="#B1B4C4"/>
<path id="Vector_55" d="M100.475 304.768L140.528 256.861V245.375L100.475 293.354V304.768Z" fill="#D6D8E5"/>
<path id="Vector_56" d="M100.475 304.769L105.984 301.759L140.528 260.161V255.971L100.475 304.769Z" fill="#B1B4C4"/>
<path id="Vector_57" d="M100.475 177.819L140.528 129.912V118.426L100.475 166.405V177.819Z" fill="#D6D8E5"/>
<path id="Vector_58" d="M100.475 177.82L105.984 174.798L140.528 133.211V129.021L100.475 177.82Z" fill="#B1B4C4"/>
<path id="Vector_59" d="M54.8179 348.738L60.5431 345.439V101.256L54.8179 104.555V348.738Z" fill="#B1B4C4"/>
<path id="Vector_60" d="M55.2759 204.186L95.3045 267.457L101.03 265.133L60.5431 201.225L55.2759 204.186Z" fill="#B1B4C4"/>
<path id="Vector_61" d="M55.0349 215.444L95.0877 279.028V267.144L55.0349 203.766V215.444Z" fill="#D6D8E5"/>
<path id="Vector_62" d="M49.3217 345.439L55.0349 348.738V104.555L49.3217 101.256V345.439Z" fill="#D6D8E5"/>
<path id="Vector_63" d="M95.0876 371.832L100.813 375.131V130.959L95.0876 127.648V371.832Z" fill="#D6D8E5"/>
<path id="Vector_64" d="M100.596 375.131L106.321 371.832V127.648L100.596 130.959V375.131Z" fill="#B1B4C4"/>
<path id="Vector_65" d="M55.0349 331.136L95.0877 283.229V271.73L55.0349 319.722V331.136Z" fill="#D6D8E5"/>
<path id="Vector_66" d="M55.0349 331.136L60.5432 328.114L95.0877 286.528V282.326L55.0349 331.136Z" fill="#B1B4C4"/>
<path id="Vector_67" d="M55.0349 204.187L95.0877 156.279V144.781L55.0349 192.761V204.187Z" fill="#D6D8E5"/>
<path id="Vector_68" d="M55.0349 204.187L60.5432 201.165L95.0877 159.567V155.377L55.0349 204.187Z" fill="#B1B4C4"/>
<path id="Vector_69" d="M100.813 143.324L41.7161 109.239L100.813 75.166L159.91 109.239L100.813 143.324Z" fill="#F7DC6B"/>
<path id="Vector_70" d="M96.4136 45.6447L26.3484 86.0509L6.29187 74.4805L76.3571 34.0742L96.4136 45.6447Z" fill="#353C4C"/>
<path id="Vector_71" d="M6.29187 90.6844V74.4785L26.3484 86.049V102.255L6.29187 90.6844Z" fill="#2B303F"/>
<path id="Vector_72" d="M26.3483 102.257L96.4135 61.8504V45.6445L26.3483 86.0508V100.679" fill="#232733"/>
<path id="Vector_73" d="M96.4136 27.463L26.3484 67.8693L6.29187 56.2988L76.3571 15.8926L96.4136 27.463Z" fill="#353C4C"/>
<path id="Vector_74" d="M6.29187 72.5167V56.2988L26.3484 67.8693V84.0871L6.29187 72.5167Z" fill="#2B303F"/>
<path id="Vector_75" d="M26.3483 84.087L96.4135 43.6808V27.4629L26.3483 67.8691V82.5098" fill="#232733"/>
<path id="Vector_76" d="M43.4518 77.7191L0 52.8203V43.7422L43.4518 68.4844V77.7191Z" fill="#D6D8E5"/>
<path id="Vector_77" d="M106.321 104.532L0 43.7422L7.87073 39.2031L114.192 99.9931L106.321 104.532Z" fill="#E7E9F2"/>
<path id="Vector_78" d="M91.2547 63.3674L36.6658 31.8226V22.7324L91.2547 51.9535V63.3674Z" fill="#D6D8E5"/>
<path id="Vector_79" d="M132.657 77.1649L36.6658 22.7442L44.5365 18.2051L140.528 72.6259L132.657 77.1649Z" fill="#E7E9F2"/>
<path id="Vector_80" d="M65.7501 39.4922V48.5703L69.4866 74.7092L75.0311 78.1526L65.7501 39.4922Z" fill="#D6D8E5"/>
<path id="Vector_81" d="M82.1786 82.0295L74.9949 44.8259L65.7501 39.4922L71.3549 76.154L82.1786 82.0295Z" fill="#E7E9F2"/>
<path id="Vector_82" d="M65.7502 48.5688L37.0757 56.1179L22.3467 47.6176L64.4967 38.7441L65.7502 39.4906V48.5688Z" fill="#B1B4C4"/>
<path id="Vector_83" d="M65.7502 39.491L25.818 49.6287L17.2361 44.6803L57.4817 34.4102L65.7502 39.491Z" fill="#E7E9F2"/>
<path id="Vector_84" d="M100.813 68.1705L41.7161 34.0852L100.813 0L159.91 34.0852L100.813 68.1705Z" fill="#E7E9F2"/>
<path id="Vector_85" d="M41.7161 139.34V34.0859L100.813 68.1712V173.425L41.7161 139.34Z" fill="#D6D8E5"/>
<path id="Vector_86" d="M159.91 34.0859V139.34L100.813 173.425V68.1591L159.91 34.0859Z" fill="#B1B4C4"/>
<path id="Vector_87" d="M100.813 104.832L66.8831 85.267L55.975 50.5918L100.813 76.4537V104.832Z" fill="#8C50FF"/>
<path id="Vector_88" d="M159.91 42.3691V70.7474L100.813 104.845V76.4664L159.91 42.3691Z" fill="#7C4CF2"/>
<path id="Vector_89" d="M364.332 264.001L108.623 116.523V107.445L364.332 254.923V264.001Z" fill="#D6D8E5"/>
<path id="Vector_90" d="M364.332 254.923L108.623 107.457L116.494 102.918L372.203 250.384L364.332 254.923Z" fill="#E7E9F2"/>
<path id="Vector_91" d="M400.998 243.003L145.289 95.5254V86.4473L400.998 233.925V243.003Z" fill="#D6D8E5"/>
<path id="Vector_92" d="M400.998 233.925L145.289 86.4473L153.16 81.9082L408.868 229.386L400.998 233.925Z" fill="#E7E9F2"/>
<path id="Vector_93" d="M408.868 238.488L364.332 264.001V254.911L408.868 229.41V238.488Z" fill="#B1B4C4"/>
<path id="Vector_94" d="M408.868 229.409L364.356 254.922L357.69 251.081L402.203 225.568L408.868 229.409Z" fill="#E7E9F2"/>
<path id="Vector_95" d="M368.948 224.498L340.262 232.048L325.533 223.547L367.683 214.674L368.948 215.42V224.498Z" fill="#B1B4C4"/>
<path id="Vector_96" d="M368.948 215.419L329.016 225.556L320.434 220.596L360.668 210.338L368.948 215.419Z" fill="#E7E9F2"/>
<path id="Vector_97" d="M304.235 178.145V187.223L307.971 213.362L313.516 216.793L304.235 178.145Z" fill="#D6D8E5"/>
<path id="Vector_98" d="M320.663 220.682L313.479 183.478L304.235 178.145L309.851 214.806L320.663 220.682Z" fill="#E7E9F2"/>
<path id="Vector_99" d="M304.235 187.221L275.56 194.77L260.831 186.27L302.981 177.396L304.235 178.143V187.221Z" fill="#B1B4C4"/>
<path id="Vector_100" d="M304.235 178.143L264.314 188.281L255.733 183.333L295.966 173.062L304.235 178.143Z" fill="#E7E9F2"/>
<path id="Vector_101" d="M239.304 140.664V149.742L243.029 175.881L248.585 179.324L239.304 140.664Z" fill="#D6D8E5"/>
<path id="Vector_102" d="M255.733 183.201L248.549 145.998L239.304 140.664L244.909 177.326L255.733 183.201Z" fill="#E7E9F2"/>
<path id="Vector_103" d="M239.304 149.743L210.63 157.292L195.901 148.791L238.051 139.918L239.304 140.664V149.743Z" fill="#B1B4C4"/>
<path id="Vector_104" d="M239.304 140.663L199.372 150.801L190.79 145.852L231.036 135.582L239.304 140.663Z" fill="#E7E9F2"/>
<path id="Vector_105" d="M174.374 103.207V112.285L178.098 138.424L183.654 141.855L174.374 103.207Z" fill="#D6D8E5"/>
<path id="Vector_106" d="M190.79 145.744L183.618 108.541L174.374 103.207L179.978 139.869L190.79 145.744Z" fill="#E7E9F2"/>
<path id="Vector_107" d="M174.374 112.286L145.699 119.835L130.97 111.334L173.12 102.461L174.374 103.207V112.286Z" fill="#B1B4C4"/>
<path id="Vector_108" d="M174.373 103.208L134.441 113.346L125.859 108.397L166.093 98.127L174.373 103.208Z" fill="#E7E9F2"/>
<path id="Vector_109" opacity="0.4" d="M113.505 602L79.9729 582.832L130.162 554.141L163.694 573.296L113.505 602Z" fill="#D6D8E5"/>
<path id="Vector_110" d="M114.204 563.365L86.4335 547.339L114.204 531.326L141.975 547.351L114.204 563.365Z" fill="#D6D8E5"/>
<path id="Vector_111" d="M114.204 595.401L86.4335 579.376V547.338L114.204 563.363V595.401Z" fill="#B1B6C4"/>
<path id="Vector_112" d="M141.975 579.376L114.204 595.401V563.363L141.975 547.338V579.376Z" fill="#C4C7D6"/>
<g id="Men 5">
<path id="Vector_113" d="M151.533 569.299C153.936 569.965 156.506 569.653 158.68 568.432C160.404 568.432 169.757 564.483 171.035 567.842C172.144 570.792 168.094 573.513 165.924 574.031C161.199 575.235 157.704 577.534 155.812 577.932C154.401 578.233 152.569 578.425 151.436 577.318C150.086 575.981 150.207 571.057 151.533 569.299Z" fill="#38226D"/>
<path id="Vector_114" d="M155.812 577.113C157.704 576.716 161.199 574.368 165.924 573.224C167.744 572.779 170.866 570.816 171.18 568.408C171.601 571.117 167.949 573.525 165.924 574.007C161.199 575.211 157.704 577.51 155.812 577.908C154.401 578.209 152.569 578.401 151.436 577.294C151.151 576.966 150.941 576.58 150.822 576.162C151.521 576.698 152.337 577.064 153.204 577.229C154.07 577.394 154.963 577.355 155.812 577.113Z" fill="#9C73FF"/>
<path id="Vector_115" d="M134.658 560.328C137.066 560.995 139.64 560.683 141.818 559.462C143.542 559.462 152.895 555.512 154.16 558.872C155.281 561.821 151.231 564.542 149.062 565.06C144.337 566.204 140.842 568.564 138.937 568.961C137.527 569.262 135.695 569.455 134.574 568.347C133.224 567.011 133.333 562.086 134.658 560.328Z" fill="#38226D"/>
<path id="Vector_116" d="M138.937 568.142C140.842 567.745 144.337 565.397 149.062 564.254C150.87 563.808 154.004 561.846 154.317 559.438C154.739 562.147 151.075 564.555 149.062 565.036C144.337 566.18 140.842 568.54 138.937 568.937C137.527 569.238 135.695 569.431 134.574 568.323C134.28 567.999 134.065 567.612 133.947 567.191C134.647 567.727 135.463 568.092 136.33 568.257C137.196 568.422 138.089 568.383 138.937 568.142Z" fill="#9C73FF"/>
<path id="Vector_117" d="M108.394 548.698C115.626 551.901 122.569 552.407 128.198 549.385L134.007 546.038C134.357 553.526 134.682 560.726 134.682 560.726C134.682 560.726 139.142 564.098 142.613 561.088C142.613 561.088 143.337 550.577 144.072 540.234L150.171 536.719C150.024 537.269 149.943 537.835 149.93 538.404C149.93 540.379 151.34 569.588 151.34 569.588C151.34 569.588 155.836 572.261 159.307 569.251C159.307 569.251 161.645 535.394 162.176 529.988C162.778 523.908 156.017 520.91 151.75 522.475C150.749 522.824 148.303 523.74 145.205 524.883C145.338 523.186 145.446 521.873 145.518 521.127C146.133 515.035 139.371 512.037 135.092 513.602C131.187 515.023 104.863 524.943 104.863 524.943C105.027 527.468 105.337 529.98 105.791 532.468L95.4011 531.602C94.7744 541.318 101.114 545.496 108.394 548.698ZM126.559 531.842L133.513 527.833C133.39 528.323 133.314 528.822 133.284 529.326L126.559 531.842Z" fill="#8C50FF"/>
<path id="Vector_118" d="M89.7 501.91C89.7 501.91 90.5557 514.829 92.2552 516.695C93.9547 518.561 99.692 519.826 99.692 519.826L104.104 527.05C104.104 527.05 100.042 503.993 99.1979 503.439C98.3542 502.885 89.7 501.91 89.7 501.91Z" fill="#FFCEA9"/>
<path id="&#60;&#208;&#154;&#208;&#190;&#208;&#189;&#209;&#130;&#209;&#131;&#209;&#128;&#62;" d="M98.1974 487.619C97.1237 487.12 95.9036 487.034 94.7699 487.376C93.6362 487.717 92.6681 488.464 92.0503 489.474C90.4231 492.171 88.7357 501.393 88.579 502.97C88.579 502.97 90.857 506.125 94.2801 505.595L98.1974 487.619Z" fill="#EDEDED"/>
<path id="&#60;&#208;&#154;&#208;&#190;&#208;&#189;&#209;&#130;&#209;&#131;&#209;&#128;&#62;_2" d="M99.7523 487.728C101.994 487.837 103.658 488.415 103.935 487.728C104.175 486.58 104.344 485.418 104.441 484.249C104.188 483.599 103.959 482.9 103.959 482.9C101.163 481.179 100.271 478.084 99.897 474.617C99.2702 468.597 102.537 463.299 108.575 462.673C114.252 462.083 118.423 466.068 119.544 471.535C120.134 474.244 121.34 479.349 119.724 483.791C118.82 486.272 117.651 488.246 116.494 488.607C115.368 488.575 114.245 488.474 113.131 488.306C113.131 488.306 112.83 489.98 112.625 491.051C112.42 492.123 112.505 492.701 114.638 494.013C116.771 495.326 111.396 498.047 107.888 497.782C104.381 497.517 100.415 495.374 99.3184 493.122C98.1131 490.642 98.2216 487.62 99.7523 487.728Z" fill="#FFCEA9"/>
<g id="&#60;&#208;&#147;&#209;&#128;&#209;&#131;&#208;&#191;&#208;&#191;&#208;&#176;&#62;">
<g id="&#60;&#208;&#147;&#209;&#128;&#209;&#131;&#208;&#191;&#208;&#191;&#208;&#176;&#62;_2">
<g id="&#60;&#208;&#147;&#209;&#128;&#209;&#131;&#208;&#191;&#208;&#191;&#208;&#176;&#62;_3">
<path id="&#60;&#208;&#154;&#208;&#190;&#208;&#189;&#209;&#130;&#209;&#131;&#209;&#128;&#62;_3" d="M156.378 527.244C156.381 527.563 156.298 527.877 156.139 528.154C155.98 528.431 155.751 528.661 155.474 528.821L138.443 538.646C138.166 538.805 137.853 538.889 137.533 538.889C137.214 538.889 136.9 538.805 136.623 538.646L112.734 524.872C112.459 524.713 112.23 524.485 112.072 524.21C111.913 523.935 111.829 523.624 111.83 523.307V523.162L156.378 527.244Z" fill="#E5E5E5"/>
<path id="&#60;&#208;&#154;&#208;&#190;&#208;&#189;&#209;&#130;&#209;&#131;&#209;&#128;&#62;_4" d="M155.486 528.821L138.455 538.646C138.177 538.807 137.86 538.89 137.539 538.887V527.244H156.39C156.393 527.563 156.31 527.878 156.151 528.155C155.993 528.432 155.763 528.662 155.486 528.821Z" fill="#E5E5E5"/>
<g id="&#60;&#208;&#147;&#209;&#128;&#209;&#131;&#208;&#191;&#208;&#191;&#208;&#176;&#62;_4">
<path id="&#60;&#208;&#154;&#208;&#190;&#208;&#189;&#209;&#130;&#209;&#131;&#209;&#128;&#62;_5" d="M138.165 537.755C137.971 537.867 137.751 537.926 137.527 537.926C137.302 537.926 137.082 537.867 136.888 537.755L112.094 523.44C111.769 523.259 111.769 522.958 112.094 522.778L130.367 512.23L156.402 527.244L138.165 537.755Z" fill="#F4F4F4"/>
</g>
<g id="&#60;&#208;&#147;&#209;&#128;&#209;&#131;&#208;&#191;&#208;&#191;&#208;&#176;&#62;_5">
<path id="&#60;&#208;&#154;&#208;&#190;&#208;&#189;&#209;&#130;&#209;&#131;&#209;&#128;&#62;_6" d="M122.268 527.245L122.388 527.317L130.343 531.904L134.707 529.388L134.839 529.316L126.751 524.656L122.268 527.245Z" fill="#BFBFBF"/>
<path id="&#60;&#208;&#154;&#208;&#190;&#208;&#189;&#209;&#130;&#209;&#131;&#209;&#128;&#62;_7" d="M122.388 527.317L130.343 531.904L134.707 529.388L126.752 524.801L122.388 527.317Z" fill="#E5E5E5"/>
</g>
<path id="Vector_119" d="M149.628 527.991L150.834 528.653C150.89 528.68 150.952 528.694 151.014 528.694C151.077 528.694 151.139 528.68 151.195 528.653L152.292 528.015C152.401 527.955 152.413 527.859 152.292 527.811L151.087 527.148C151.031 527.119 150.969 527.104 150.906 527.104C150.843 527.104 150.781 527.119 150.725 527.148L149.628 527.775C149.556 527.847 149.544 527.931 149.628 527.991Z" fill="#3A2C6D"/>
<path id="Vector_120" d="M148.013 527.052L149.219 527.714C149.274 527.743 149.336 527.759 149.399 527.759C149.462 527.759 149.525 527.743 149.58 527.714L150.677 527.076C150.786 527.016 150.798 526.919 150.677 526.871L149.472 526.209C149.416 526.179 149.354 526.164 149.291 526.164C149.228 526.164 149.166 526.179 149.11 526.209L148.013 526.847C147.929 526.907 147.917 527.004 148.013 527.052Z" fill="#3A2C6D"/>
<path id="Vector_121" d="M146.386 526.149L147.591 526.811C147.647 526.841 147.709 526.856 147.772 526.856C147.835 526.856 147.897 526.841 147.953 526.811L149.05 526.185C149.158 526.113 149.17 526.029 149.05 525.968L147.905 525.306C147.848 525.279 147.786 525.266 147.724 525.266C147.661 525.266 147.6 525.279 147.543 525.306L146.446 525.944C146.302 525.968 146.29 526.065 146.386 526.149Z" fill="#3A2C6D"/>
<path id="Vector_122" d="M144.759 525.185L145.964 525.847C146.023 525.873 146.087 525.887 146.151 525.887C146.215 525.887 146.279 525.873 146.338 525.847L147.435 525.221C147.543 525.221 147.555 525.064 147.435 525.004L146.229 524.342C146.172 524.312 146.108 524.297 146.043 524.297C145.978 524.297 145.914 524.312 145.856 524.342L144.759 524.968C144.638 525.028 144.638 525.125 144.759 525.185Z" fill="#3A2C6D"/>
<path id="Vector_123" d="M143.132 524.247L144.337 524.909C144.393 524.939 144.455 524.954 144.518 524.954C144.581 524.954 144.643 524.939 144.699 524.909L145.795 524.283C145.904 524.223 145.916 524.126 145.795 524.078L144.59 523.416C144.532 523.387 144.468 523.371 144.403 523.371C144.338 523.371 144.274 523.387 144.217 523.416L143.132 524.042C143.059 524.09 143.047 524.187 143.132 524.247Z" fill="#3A2C6D"/>
<path id="Vector_124" d="M141.517 523.308L142.722 523.97C142.778 523.997 142.84 524.01 142.903 524.01C142.965 524.01 143.027 523.997 143.084 523.97L144.18 523.332C144.289 523.332 144.301 523.175 144.18 523.127L142.975 522.465C142.919 522.435 142.857 522.42 142.794 522.42C142.731 522.42 142.669 522.435 142.613 522.465L141.517 523.091C141.432 523.163 141.42 523.247 141.517 523.308Z" fill="#3A2C6D"/>
<path id="Vector_125" d="M139.889 522.368L141.095 523.03C141.15 523.06 141.213 523.075 141.276 523.075C141.339 523.075 141.401 523.06 141.456 523.03L142.553 522.392C142.662 522.332 142.674 522.236 142.553 522.188L141.408 521.525C141.352 521.496 141.29 521.48 141.227 521.48C141.164 521.48 141.102 521.496 141.047 521.525L139.95 522.164C139.817 522.224 139.817 522.32 139.889 522.368Z" fill="#3A2C6D"/>
<path id="Vector_126" d="M138.262 521.429L139.468 522.091C139.525 522.121 139.589 522.136 139.654 522.136C139.719 522.136 139.783 522.121 139.841 522.091L140.938 521.465C141.046 521.393 141.046 521.308 140.938 521.248L139.733 520.586C139.674 520.559 139.61 520.545 139.546 520.545C139.481 520.545 139.418 520.559 139.359 520.586L138.262 521.224C138.178 521.332 138.166 521.332 138.262 521.429Z" fill="#3A2C6D"/>
<path id="Vector_127" d="M136.635 520.501L137.84 521.163C137.897 521.189 137.959 521.203 138.021 521.203C138.084 521.203 138.145 521.189 138.202 521.163L139.299 520.537C139.407 520.477 139.419 520.381 139.299 520.321L138.093 519.658C138.036 519.629 137.972 519.613 137.907 519.613C137.842 519.613 137.778 519.629 137.72 519.658L136.635 520.284C136.563 520.345 136.551 520.441 136.635 520.501Z" fill="#3A2C6D"/>
<path id="Vector_128" d="M134.996 519.563L136.201 520.225C136.257 520.255 136.319 520.27 136.382 520.27C136.445 520.27 136.507 520.255 136.563 520.225L137.66 519.599C137.768 519.539 137.78 519.443 137.66 519.395L136.454 518.732C136.399 518.703 136.336 518.688 136.273 518.688C136.21 518.688 136.148 518.703 136.093 518.732L134.996 519.359C134.996 519.407 134.923 519.503 134.996 519.563Z" fill="#3A2C6D"/>
<path id="Vector_129" d="M133.393 518.624L134.598 519.286C134.655 519.313 134.716 519.327 134.779 519.327C134.841 519.327 134.903 519.313 134.96 519.286L136.057 518.648C136.165 518.588 136.177 518.492 136.057 518.443L134.911 517.781C134.856 517.752 134.794 517.736 134.731 517.736C134.668 517.736 134.606 517.752 134.55 517.781L133.453 518.407C133.308 518.48 133.296 518.564 133.393 518.624Z" fill="#3A2C6D"/>
<path id="Vector_130" d="M131.766 517.72L132.971 518.382C133.029 518.412 133.093 518.427 133.158 518.427C133.223 518.427 133.287 518.412 133.345 518.382L134.441 517.744C134.55 517.684 134.55 517.587 134.441 517.539L133.236 516.877C133.178 516.847 133.114 516.832 133.049 516.832C132.984 516.832 132.92 516.847 132.862 516.877L131.766 517.515C131.681 517.539 131.669 517.636 131.766 517.72Z" fill="#3A2C6D"/>
<path id="Vector_131" d="M130.175 516.745L131.38 517.407C131.436 517.437 131.498 517.452 131.561 517.452C131.624 517.452 131.686 517.437 131.741 517.407L132.838 516.781C132.947 516.709 132.959 516.625 132.838 516.565L131.633 515.902C131.574 515.875 131.511 515.861 131.446 515.861C131.382 515.861 131.318 515.875 131.259 515.902L130.175 516.54C130.066 516.601 130.054 516.697 130.175 516.745Z" fill="#3A2C6D"/>
<path id="Vector_132" d="M127.764 515.313L129.692 516.433C129.749 516.46 129.811 516.474 129.873 516.474C129.936 516.474 129.998 516.46 130.054 516.433L131.151 515.807C131.259 515.747 131.271 515.65 131.151 515.59L129.222 514.482C129.167 514.453 129.105 514.438 129.042 514.438C128.979 514.438 128.916 514.453 128.861 514.482L127.764 515.121C127.655 515.217 127.643 515.313 127.764 515.313Z" fill="#3A2C6D"/>
<path id="Vector_133" d="M145.651 527.509L146.856 528.171C146.913 528.198 146.974 528.212 147.037 528.212C147.1 528.212 147.161 528.198 147.218 528.171L148.315 527.533C148.423 527.473 148.435 527.376 148.315 527.328L147.109 526.666C147.054 526.637 146.992 526.621 146.929 526.621C146.865 526.621 146.803 526.637 146.748 526.666L145.651 527.292C145.567 527.352 145.554 527.449 145.651 527.509Z" fill="#3A2C6D"/>
<path id="Vector_134" d="M144.024 526.569L145.229 527.232C145.288 527.259 145.351 527.273 145.416 527.273C145.48 527.273 145.544 527.259 145.603 527.232L146.687 526.593C146.796 526.533 146.808 526.437 146.687 526.389L145.482 525.727C145.426 525.697 145.364 525.682 145.301 525.682C145.238 525.682 145.176 525.697 145.121 525.727L144.024 526.365C143.939 526.425 143.927 526.521 144.024 526.569Z" fill="#3A2C6D"/>
<path id="Vector_135" d="M142.396 525.632L143.602 526.294C143.66 526.324 143.724 526.339 143.789 526.339C143.854 526.339 143.918 526.324 143.975 526.294L145.06 525.656C145.169 525.596 145.181 525.499 145.06 525.451L143.855 524.789C143.799 524.76 143.737 524.744 143.674 524.744C143.611 524.744 143.549 524.76 143.493 524.789L142.396 525.427C142.312 525.487 142.3 525.584 142.396 525.632Z" fill="#3A2C6D"/>
<path id="Vector_136" d="M140.769 524.692L141.914 525.355C141.972 525.384 142.036 525.4 142.101 525.4C142.166 525.4 142.23 525.384 142.288 525.355L143.373 524.717C143.481 524.656 143.493 524.56 143.373 524.512L142.167 523.85C142.112 523.82 142.05 523.805 141.987 523.805C141.924 523.805 141.862 523.82 141.806 523.85L140.709 524.488C140.685 524.548 140.673 524.644 140.769 524.692Z" fill="#3A2C6D"/>
<path id="Vector_137" d="M139.154 523.741L140.36 524.403C140.418 524.43 140.482 524.444 140.546 524.444C140.611 524.444 140.675 524.43 140.733 524.403L141.818 523.765C141.926 523.765 141.938 523.609 141.818 523.561L140.613 522.898C140.557 522.869 140.495 522.854 140.432 522.854C140.369 522.854 140.307 522.869 140.251 522.898L139.154 523.525C139.07 523.621 139.058 523.741 139.154 523.741Z" fill="#3A2C6D"/>
<path id="Vector_138" d="M137.527 522.825L138.732 523.487C138.791 523.514 138.855 523.528 138.919 523.528C138.984 523.528 139.047 523.514 139.106 523.487L140.191 522.849C140.299 522.789 140.311 522.693 140.191 522.645L138.985 521.982C138.93 521.953 138.868 521.938 138.805 521.938C138.742 521.938 138.68 521.953 138.624 521.982L137.527 522.609C137.407 522.681 137.407 522.765 137.527 522.825Z" fill="#3A2C6D"/>
<path id="Vector_139" d="M135.9 521.886L137.105 522.548C137.164 522.575 137.227 522.589 137.292 522.589C137.356 522.589 137.42 522.575 137.479 522.548L138.564 521.91C138.672 521.85 138.684 521.753 138.564 521.705L137.358 521.043C137.303 521.014 137.24 520.998 137.177 520.998C137.114 520.998 137.052 521.014 136.997 521.043L135.9 521.669C135.815 521.741 135.803 521.826 135.9 521.886Z" fill="#3A2C6D"/>
<path id="Vector_140" d="M134.273 520.946L135.418 521.609C135.476 521.636 135.54 521.65 135.605 521.65C135.669 521.65 135.733 521.636 135.791 521.609L136.888 520.97C136.985 520.91 136.997 520.814 136.888 520.766L135.683 520.104C135.627 520.074 135.565 520.059 135.502 520.059C135.439 520.059 135.377 520.074 135.321 520.104L134.224 520.742C134.188 520.802 134.176 520.898 134.273 520.946Z" fill="#3A2C6D"/>
<path id="Vector_141" d="M132.645 520.009L133.851 520.671C133.909 520.701 133.973 520.716 134.038 520.716C134.103 520.716 134.167 520.701 134.224 520.671L135.321 520.033C135.418 519.973 135.43 519.876 135.321 519.828L134.176 519.166C134.118 519.137 134.054 519.121 133.989 519.121C133.924 519.121 133.86 519.137 133.803 519.166L132.706 519.804C132.585 519.864 132.585 519.961 132.645 520.009Z" fill="#3A2C6D"/>
<path id="Vector_142" d="M131.018 519.069L132.224 519.732C132.281 519.761 132.346 519.777 132.41 519.777C132.475 519.777 132.539 519.761 132.597 519.732L133.694 519.093C133.803 519.033 133.803 518.937 133.694 518.889L132.489 518.227C132.43 518.2 132.366 518.186 132.302 518.186C132.237 518.186 132.174 518.2 132.115 518.227L131.018 518.865C130.934 518.925 130.922 519.021 131.018 519.069Z" fill="#3A2C6D"/>
<path id="Vector_143" d="M129.391 518.13L130.596 518.792C130.654 518.822 130.718 518.837 130.783 518.837C130.848 518.837 130.912 518.822 130.97 518.792L132.067 518.166C132.175 518.094 132.175 517.997 132.067 517.949L130.862 517.287C130.803 517.26 130.739 517.246 130.675 517.246C130.61 517.246 130.547 517.26 130.488 517.287L129.391 517.925C129.307 517.985 129.295 518.082 129.391 518.13Z" fill="#3A2C6D"/>
<path id="Vector_144" d="M127.764 517.19L128.969 517.853C129.027 517.882 129.091 517.898 129.156 517.898C129.221 517.898 129.285 517.882 129.343 517.853L130.44 517.227C130.548 517.154 130.56 517.07 130.44 517.01L129.234 516.348C129.176 516.321 129.112 516.307 129.048 516.307C128.983 516.307 128.919 516.321 128.861 516.348L127.764 516.986C127.68 517.046 127.667 517.142 127.764 517.19Z" fill="#3A2C6D"/>
<path id="Vector_145" d="M147.278 528.448L149.206 529.556C149.262 529.585 149.324 529.601 149.387 529.601C149.45 529.601 149.512 529.585 149.568 529.556L150.665 528.93C150.773 528.858 150.785 528.773 150.665 528.713L148.736 527.605C148.681 527.576 148.619 527.561 148.556 527.561C148.493 527.561 148.43 527.576 148.375 527.605L147.278 528.232C147.194 528.304 147.182 528.388 147.278 528.448Z" fill="#3A2C6D"/>
<path id="Vector_146" d="M127.631 515.409L128.837 516.072C128.862 516.072 128.887 516.082 128.905 516.1C128.923 516.118 128.933 516.142 128.933 516.168C128.933 516.193 128.923 516.218 128.905 516.236C128.887 516.254 128.862 516.264 128.837 516.264L127.631 516.938C127.578 516.962 127.521 516.975 127.463 516.975C127.404 516.975 127.347 516.962 127.294 516.938L127.197 516.878C127.149 516.855 127.095 516.843 127.041 516.843C126.987 516.843 126.933 516.855 126.884 516.878L125.679 517.589C125.626 517.613 125.568 517.625 125.51 517.625C125.452 517.625 125.394 517.613 125.341 517.589L124.606 517.167C124.51 517.107 124.51 517.023 124.606 516.975L125.811 516.312L126.052 516.18L126.221 516.072L126.39 515.975L127.378 515.409C127.459 515.377 127.55 515.377 127.631 515.409Z" fill="#3A2C6D"/>
<path id="Vector_147" d="M143.337 531.614L144.542 532.276C144.598 532.306 144.66 532.321 144.723 532.321C144.786 532.321 144.848 532.306 144.904 532.276L146 531.65C146.109 531.578 146.121 531.494 146 531.433L144.855 530.771C144.799 530.744 144.737 530.73 144.675 530.73C144.612 530.73 144.55 530.744 144.494 530.771L143.397 531.409C143.252 531.469 143.24 531.566 143.337 531.614Z" fill="#3A2C6D"/>
<path id="Vector_148" d="M141.709 530.688L142.915 531.35C142.973 531.38 143.037 531.395 143.102 531.395C143.167 531.395 143.231 531.38 143.288 531.35L144.373 530.724C144.482 530.724 144.494 530.568 144.373 530.508L143.168 529.857C143.112 529.828 143.05 529.812 142.987 529.812C142.924 529.812 142.862 529.828 142.806 529.857L141.709 530.484C141.625 530.532 141.613 530.628 141.709 530.688Z" fill="#3A2C6D"/>
<path id="Vector_149" d="M140.094 529.761L141.3 530.423C141.355 530.452 141.417 530.468 141.48 530.468C141.543 530.468 141.605 530.452 141.661 530.423L142.758 529.785C142.866 529.725 142.879 529.628 142.758 529.58L141.553 528.918C141.497 528.888 141.435 528.873 141.372 528.873C141.309 528.873 141.247 528.888 141.191 528.918L140.094 529.556C140.01 529.604 139.998 529.761 140.094 529.761Z" fill="#3A2C6D"/>
<path id="Vector_150" d="M126.293 521.79L127.499 522.452C127.554 522.482 127.617 522.497 127.68 522.497C127.743 522.497 127.805 522.482 127.86 522.452L128.957 521.826C129.066 521.826 129.078 521.67 128.957 521.61L127.752 520.947C127.694 520.918 127.63 520.902 127.565 520.902C127.5 520.902 127.436 520.918 127.378 520.947L126.293 521.573C126.221 521.646 126.209 521.742 126.293 521.79Z" fill="#3A2C6D"/>
<path id="Vector_151" d="M124.678 520.864L125.884 521.526C125.942 521.553 126.006 521.567 126.07 521.567C126.135 521.567 126.199 521.553 126.257 521.526L127.342 520.888C127.45 520.828 127.463 520.732 127.342 520.684L126.137 520.021C126.081 519.992 126.019 519.977 125.956 519.977C125.893 519.977 125.831 519.992 125.775 520.021L124.678 520.648C124.594 520.72 124.582 520.804 124.678 520.864Z" fill="#3A2C6D"/>
<path id="Vector_152" d="M123.063 519.925L124.268 520.587C124.324 520.616 124.386 520.632 124.449 520.632C124.512 520.632 124.574 520.616 124.63 520.587L125.727 519.961C125.835 519.888 125.847 519.804 125.727 519.744L124.522 519.082C124.465 519.055 124.403 519.041 124.341 519.041C124.278 519.041 124.217 519.055 124.16 519.082L123.063 519.72C122.943 519.78 122.943 519.876 123.063 519.925Z" fill="#3A2C6D"/>
<path id="Vector_153" d="M121.436 518.997L122.641 519.659C122.697 519.689 122.759 519.704 122.822 519.704C122.885 519.704 122.947 519.689 123.003 519.659L124.1 519.033C124.208 518.973 124.22 518.876 124.1 518.816L122.894 518.166C122.837 518.137 122.773 518.121 122.708 518.121C122.643 518.121 122.579 518.137 122.521 518.166L121.436 518.792C121.364 518.84 121.352 518.925 121.436 518.997Z" fill="#3A2C6D"/>
<path id="Vector_154" d="M138.057 528.556L139.624 529.447C139.68 529.477 139.742 529.492 139.805 529.492C139.868 529.492 139.93 529.477 139.986 529.447L141.083 528.821C141.191 528.761 141.203 528.664 141.083 528.604L139.516 527.701C139.46 527.672 139.398 527.656 139.335 527.656C139.272 527.656 139.21 527.672 139.154 527.701L138.057 528.327C137.973 528.424 137.961 528.556 138.057 528.556Z" fill="#3A2C6D"/>
<path id="Vector_155" d="M127.921 522.73L129.487 523.633C129.544 523.659 129.606 523.673 129.668 523.673C129.731 523.673 129.793 523.659 129.849 523.633L130.946 522.994C131.054 522.934 131.066 522.838 130.946 522.79L129.379 521.887C129.323 521.857 129.261 521.842 129.198 521.842C129.135 521.842 129.073 521.857 129.017 521.887L127.921 522.525C127.836 522.537 127.824 522.681 127.921 522.73Z" fill="#3A2C6D"/>
<path id="Vector_156" d="M129.958 523.91L137.587 528.304C137.644 528.331 137.706 528.345 137.768 528.345C137.831 528.345 137.892 528.331 137.949 528.304L139.046 527.666C139.154 527.606 139.166 527.509 139.046 527.461L131.416 523.055C131.36 523.025 131.298 523.01 131.235 523.01C131.172 523.01 131.11 523.025 131.054 523.055L129.958 523.681C129.873 523.741 129.861 523.849 129.958 523.91Z" fill="#3A2C6D"/>
<path id="Vector_157" d="M143.638 528.159L144.843 528.821C144.899 528.851 144.961 528.866 145.024 528.866C145.087 528.866 145.149 528.851 145.205 528.821L146.302 528.183C146.41 528.123 146.422 528.026 146.302 527.978L145.157 527.316C145.1 527.289 145.038 527.275 144.976 527.275C144.913 527.275 144.852 527.289 144.795 527.316L143.698 527.954C143.554 528.014 143.542 528.111 143.638 528.159Z" fill="#3A2C6D"/>
<path id="Vector_158" d="M142.011 527.22L143.216 527.882C143.274 527.911 143.338 527.927 143.403 527.927C143.468 527.927 143.532 527.911 143.59 527.882L144.675 527.256C144.783 527.196 144.795 527.099 144.675 527.039L143.469 526.377C143.414 526.347 143.352 526.332 143.289 526.332C143.225 526.332 143.163 526.347 143.108 526.377L142.011 527.003C141.926 527.075 141.914 527.172 142.011 527.22Z" fill="#3A2C6D"/>
<path id="Vector_159" d="M140.396 526.294L141.601 526.956C141.657 526.985 141.719 527.001 141.782 527.001C141.845 527.001 141.907 526.985 141.963 526.956L143.059 526.33C143.168 526.27 143.18 526.173 143.059 526.125L141.854 525.463C141.798 525.433 141.736 525.418 141.673 525.418C141.61 525.418 141.548 525.433 141.492 525.463L140.396 526.089C140.311 526.149 140.299 526.233 140.396 526.294Z" fill="#3A2C6D"/>
<path id="Vector_160" d="M138.768 525.355L139.974 526.017C140.029 526.046 140.092 526.062 140.155 526.062C140.218 526.062 140.28 526.046 140.335 526.017L141.432 525.379C141.541 525.318 141.553 525.222 141.432 525.174L140.227 524.512C140.171 524.482 140.109 524.467 140.046 524.467C139.983 524.467 139.921 524.482 139.865 524.512L138.768 525.15C138.684 525.21 138.672 525.306 138.768 525.355Z" fill="#3A2C6D"/>
<path id="Vector_161" d="M137.141 524.415L138.347 525.077C138.402 525.107 138.464 525.122 138.527 525.122C138.59 525.122 138.653 525.107 138.708 525.077L139.805 524.451C139.914 524.379 139.926 524.295 139.805 524.234L138.6 523.572C138.541 523.545 138.477 523.531 138.413 523.531C138.348 523.531 138.285 523.545 138.226 523.572L137.129 524.21C137.069 524.271 137.057 524.367 137.141 524.415Z" fill="#3A2C6D"/>
<path id="Vector_162" d="M135.526 523.487L136.731 524.149C136.787 524.179 136.849 524.194 136.912 524.194C136.975 524.194 137.037 524.179 137.093 524.149L138.19 523.523C138.298 523.463 138.31 523.367 138.19 523.306L136.985 522.644C136.928 522.617 136.866 522.604 136.804 522.604C136.741 522.604 136.679 522.617 136.623 522.644L135.526 523.27C135.442 523.33 135.43 523.427 135.526 523.487Z" fill="#3A2C6D"/>
<path id="Vector_163" d="M133.899 522.536L135.104 523.198C135.163 523.225 135.227 523.239 135.291 523.239C135.356 523.239 135.419 523.225 135.478 523.198L136.563 522.56C136.671 522.56 136.683 522.404 136.563 522.356L135.357 521.693C135.302 521.664 135.24 521.648 135.177 521.648C135.114 521.648 135.052 521.664 134.996 521.693L133.899 522.319C133.791 522.404 133.791 522.536 133.899 522.536Z" fill="#3A2C6D"/>
<path id="Vector_164" d="M132.284 521.61L133.489 522.272C133.545 522.302 133.607 522.317 133.67 522.317C133.733 522.317 133.795 522.302 133.851 522.272L134.948 521.634C135.056 521.574 135.068 521.478 134.948 521.429L133.742 520.767C133.686 520.74 133.624 520.727 133.561 520.727C133.499 520.727 133.437 520.74 133.381 520.767L132.284 521.405C132.199 521.466 132.187 521.562 132.284 521.61Z" fill="#3A2C6D"/>
<path id="Vector_165" d="M130.657 520.671L131.802 521.333C131.857 521.363 131.919 521.378 131.982 521.378C132.045 521.378 132.108 521.363 132.163 521.333L133.26 520.707C133.369 520.647 133.381 520.551 133.26 520.49L132.055 519.828C131.999 519.799 131.937 519.783 131.874 519.783C131.811 519.783 131.749 519.799 131.693 519.828L130.596 520.454C130.572 520.526 130.56 520.623 130.657 520.671Z" fill="#3A2C6D"/>
<path id="Vector_166" d="M129.03 519.743L130.235 520.405C130.293 520.435 130.357 520.45 130.422 520.45C130.487 520.45 130.551 520.435 130.609 520.405L131.705 519.779C131.814 519.719 131.826 519.623 131.705 519.574L130.56 518.912C130.503 518.883 130.438 518.867 130.374 518.867C130.309 518.867 130.245 518.883 130.187 518.912L129.09 519.538C128.969 519.586 128.969 519.683 129.03 519.743Z" fill="#3A2C6D"/>
<path id="Vector_167" d="M127.414 518.804L128.62 519.466C128.675 519.496 128.737 519.511 128.8 519.511C128.863 519.511 128.926 519.496 128.981 519.466L130.078 518.828C130.187 518.768 130.199 518.671 130.078 518.623L128.873 517.961C128.817 517.931 128.755 517.916 128.692 517.916C128.629 517.916 128.567 517.931 128.511 517.961L127.414 518.599C127.33 518.659 127.318 518.756 127.414 518.804Z" fill="#3A2C6D"/>
<path id="Vector_168" d="M125.787 517.866L126.993 518.528C127.05 518.558 127.114 518.573 127.179 518.573C127.244 518.573 127.308 518.558 127.366 518.528L128.451 517.902C128.559 517.83 128.572 517.745 128.451 517.685L127.246 517.023C127.189 516.996 127.127 516.982 127.065 516.982C127.002 516.982 126.941 516.996 126.884 517.023L125.787 517.661C125.703 517.721 125.691 517.818 125.787 517.866Z" fill="#3A2C6D"/>
<path id="Vector_169" d="M145.253 529.098L147.664 530.471C147.72 530.498 147.782 530.512 147.844 530.512C147.907 530.512 147.969 530.498 148.025 530.471L149.122 529.845C149.231 529.785 149.243 529.688 149.122 529.628L146.711 528.268C146.654 528.238 146.59 528.223 146.525 528.223C146.46 528.223 146.396 528.238 146.338 528.268L145.253 528.894C145.181 528.954 145.169 529.038 145.253 529.098Z" fill="#3A2C6D"/>
<path id="Vector_170" d="M142.867 529.532L144.072 530.194C144.128 530.224 144.19 530.239 144.253 530.239C144.316 530.239 144.378 530.224 144.433 530.194L145.53 529.556C145.639 529.496 145.651 529.399 145.53 529.351L144.385 528.689C144.329 528.662 144.267 528.648 144.204 528.648C144.142 528.648 144.08 528.662 144.024 528.689L142.927 529.327C142.782 529.387 142.77 529.484 142.867 529.532Z" fill="#3A2C6D"/>
<path id="Vector_171" d="M141.239 528.556L142.445 529.218C142.5 529.247 142.562 529.263 142.626 529.263C142.689 529.263 142.751 529.247 142.806 529.218L143.903 528.592C144.012 528.532 144.024 528.435 143.903 528.375L142.698 527.713C142.64 527.683 142.576 527.668 142.511 527.668C142.446 527.668 142.382 527.683 142.324 527.713L141.239 528.339C141.167 528.447 141.155 528.556 141.239 528.556Z" fill="#3A2C6D"/>
<path id="Vector_172" d="M139.624 527.665L140.83 528.327C140.885 528.356 140.947 528.372 141.01 528.372C141.073 528.372 141.136 528.356 141.191 528.327L142.288 527.701C142.397 527.701 142.409 527.544 142.288 527.496L141.083 526.834C141.027 526.805 140.965 526.789 140.902 526.789C140.839 526.789 140.777 526.805 140.721 526.834L139.624 527.46C139.54 527.508 139.528 527.605 139.624 527.665Z" fill="#3A2C6D"/>
<path id="Vector_173" d="M137.997 526.728L139.202 527.39C139.26 527.419 139.324 527.435 139.389 527.435C139.454 527.435 139.518 527.419 139.576 527.39L140.673 526.752C140.769 526.692 140.781 526.595 140.673 526.547L139.468 525.885C139.41 525.855 139.346 525.84 139.281 525.84C139.216 525.84 139.152 525.855 139.094 525.885L137.997 526.523C137.913 526.583 137.901 526.68 137.997 526.728Z" fill="#3A2C6D"/>
<path id="Vector_174" d="M136.382 525.788L137.527 526.45C137.583 526.479 137.645 526.495 137.708 526.495C137.771 526.495 137.833 526.479 137.889 526.45L138.985 525.824C139.094 525.752 139.106 525.667 138.985 525.607L137.78 524.945C137.724 524.918 137.662 524.904 137.599 524.904C137.537 524.904 137.475 524.918 137.419 524.945L136.322 525.583C136.298 525.643 136.286 525.74 136.382 525.788Z" fill="#3A2C6D"/>
<path id="Vector_175" d="M134.755 524.861L135.96 525.523C136.018 525.553 136.082 525.568 136.147 525.568C136.212 525.568 136.276 525.553 136.334 525.523L137.419 524.897C137.527 524.837 137.539 524.74 137.419 524.68L136.213 524.018C136.156 523.992 136.095 523.979 136.032 523.979C135.97 523.979 135.908 523.992 135.852 524.018L134.755 524.644C134.67 524.704 134.658 524.801 134.755 524.861Z" fill="#3A2C6D"/>
<path id="Vector_176" d="M133.128 523.921L134.333 524.583C134.389 524.61 134.451 524.624 134.514 524.624C134.576 524.624 134.638 524.61 134.694 524.583L135.791 523.945C135.9 523.885 135.912 523.789 135.791 523.74L134.586 523.078C134.528 523.049 134.464 523.033 134.399 523.033C134.334 523.033 134.27 523.049 134.212 523.078L133.128 523.704C133.055 523.74 133.043 523.861 133.128 523.921Z" fill="#3A2C6D"/>
<path id="Vector_177" d="M131.512 522.981L132.718 523.643C132.773 523.673 132.835 523.688 132.899 523.688C132.962 523.688 133.024 523.673 133.079 523.643L134.176 523.017C134.285 522.945 134.297 522.861 134.176 522.801L132.971 522.138C132.914 522.112 132.853 522.098 132.79 522.098C132.728 522.098 132.666 522.112 132.609 522.138L131.512 522.776C131.38 522.837 131.38 522.933 131.512 522.981Z" fill="#3A2C6D"/>
<path id="Vector_178" d="M129.885 522.056L131.03 522.718C131.089 522.744 131.153 522.758 131.217 522.758C131.281 522.758 131.345 522.744 131.404 522.718L132.501 522.092C132.609 522.032 132.621 521.935 132.501 521.875L131.295 521.213C131.238 521.183 131.174 521.168 131.109 521.168C131.044 521.168 130.98 521.183 130.922 521.213L129.825 521.839C129.813 521.899 129.801 521.996 129.885 522.056Z" fill="#3A2C6D"/>
<path id="Vector_179" d="M128.27 521.116L129.476 521.778C129.532 521.805 129.594 521.819 129.656 521.819C129.719 521.819 129.781 521.805 129.837 521.778L130.934 521.14C131.042 521.08 131.054 520.984 130.934 520.936L129.789 520.273C129.733 520.244 129.671 520.229 129.608 520.229C129.545 520.229 129.483 520.244 129.427 520.273L128.33 520.9C128.186 520.972 128.174 521.056 128.27 521.116Z" fill="#3A2C6D"/>
<path id="Vector_180" d="M126.643 520.13L127.848 520.792C127.906 520.821 127.97 520.837 128.035 520.837C128.1 520.837 128.164 520.821 128.222 520.792L129.307 520.154C129.415 520.093 129.427 519.997 129.307 519.949L128.101 519.287C128.045 519.26 127.983 519.246 127.921 519.246C127.858 519.246 127.796 519.26 127.74 519.287L126.643 519.925C126.558 520.033 126.558 520.13 126.643 520.13Z" fill="#3A2C6D"/>
<path id="Vector_181" d="M123.015 518.083L126.173 519.901C126.229 519.93 126.291 519.946 126.354 519.946C126.417 519.946 126.479 519.93 126.534 519.901L127.631 519.275C127.74 519.275 127.752 519.118 127.631 519.058L124.473 517.24C124.417 517.213 124.355 517.199 124.293 517.199C124.23 517.199 124.168 517.213 124.112 517.24L123.015 517.878C122.943 517.938 122.943 518.035 123.015 518.083Z" fill="#3A2C6D"/>
<path id="Vector_182" d="M144.494 530.472L146.049 531.375C146.107 531.402 146.171 531.416 146.235 531.416C146.3 531.416 146.364 531.402 146.422 531.375L147.507 530.737C147.616 530.676 147.628 530.58 147.507 530.532L145.94 529.629C145.884 529.599 145.822 529.584 145.759 529.584C145.696 529.584 145.634 529.599 145.579 529.629L144.482 530.255C144.409 530.327 144.397 530.412 144.494 530.472Z" fill="#3A2C6D"/>
</g>
<g id="&#60;&#208;&#147;&#209;&#128;&#209;&#131;&#208;&#191;&#208;&#191;&#208;&#176;&#62;_6">
<g id="&#60;&#208;&#147;&#209;&#128;&#209;&#131;&#208;&#191;&#208;&#191;&#208;&#176;&#62;_7">
<g id="&#60;&#208;&#147;&#209;&#128;&#209;&#131;&#208;&#191;&#208;&#191;&#208;&#176;&#62;_8">
<path id="&#60;&#208;&#154;&#208;&#190;&#208;&#189;&#209;&#130;&#209;&#131;&#209;&#128;&#62;_8" d="M156.378 527.244L130.343 512.23V491.762L130.548 491.304L130.765 491.196C131.039 491.042 131.349 490.961 131.663 490.961C131.978 490.961 132.287 491.042 132.561 491.196L156.378 504.946C156.653 505.101 156.882 505.327 157.04 505.6C157.199 505.873 157.283 506.183 157.282 506.499V525.678C157.113 526.69 156.933 526.931 156.378 527.244Z" fill="#E5E5E5"/>
<path id="&#60;&#208;&#154;&#208;&#190;&#208;&#189;&#209;&#130;&#209;&#131;&#209;&#128;&#62;_9" d="M153.992 507.426L130.343 492.436V491.75L130.548 491.292L130.765 491.184C131.039 491.03 131.349 490.949 131.663 490.949C131.978 490.949 132.287 491.03 132.561 491.184L156.378 504.934C156.67 505.096 156.908 505.338 157.065 505.632L153.992 507.426Z" fill="#E5E5E5"/>
<path id="&#60;&#208;&#154;&#208;&#190;&#208;&#189;&#209;&#130;&#209;&#131;&#209;&#128;&#62;_10" d="M130.946 491.317L155.944 505.765C156.076 505.839 156.186 505.948 156.262 506.079C156.339 506.21 156.379 506.359 156.378 506.511V527.268L130.343 512.254V491.666C130.342 491.595 130.359 491.525 130.394 491.463C130.429 491.401 130.48 491.349 130.541 491.313C130.603 491.278 130.673 491.259 130.744 491.26C130.815 491.26 130.885 491.28 130.946 491.317Z" fill="#DCEEFF"/>
<path id="&#60;&#208;&#154;&#208;&#190;&#208;&#189;&#209;&#130;&#209;&#131;&#209;&#128;&#62;_11" d="M130.946 491.317L155.944 505.765C156.076 505.839 156.186 505.948 156.262 506.079C156.339 506.21 156.379 506.359 156.378 506.511V527.268L130.343 512.254V491.666C130.342 491.595 130.359 491.525 130.394 491.463C130.429 491.401 130.48 491.349 130.541 491.313C130.603 491.278 130.673 491.259 130.744 491.26C130.815 491.26 130.885 491.28 130.946 491.317Z" fill="#F4F4F4"/>
<path id="&#60;&#208;&#154;&#208;&#190;&#208;&#189;&#209;&#130;&#209;&#131;&#209;&#128;&#62;_12" d="M156.378 527.245V526.51L130.343 511.484V512.231L156.378 527.245Z" fill="#DBDBDB"/>
</g>
<path id="&#60;&#208;&#154;&#208;&#190;&#208;&#189;&#209;&#130;&#209;&#131;&#209;&#128;&#62;_13" d="M131.018 511.147V492.389L131.344 492.569V510.978L131.018 511.147Z" fill="#1E3779"/>
<path id="&#60;&#208;&#154;&#208;&#190;&#208;&#189;&#209;&#130;&#209;&#131;&#209;&#128;&#62;_14" d="M131.344 492.568V510.978L155.546 524.908V506.535L131.344 492.568Z" fill="#3A2C6D"/>
<path id="&#60;&#208;&#154;&#208;&#190;&#208;&#189;&#209;&#130;&#209;&#131;&#209;&#128;&#62;_15" d="M131.018 511.147L155.546 525.282V524.909L131.344 510.979L131.018 511.147Z" fill="#031F60"/>
</g>
</g>
</g>
</g>
<path id="&#60;&#208;&#154;&#208;&#190;&#208;&#189;&#209;&#130;&#209;&#131;&#209;&#128;&#62;_16" d="M102.983 488.066C102.368 489.607 103.947 491.485 108.141 492.809C112.336 494.134 112.721 492.436 112.721 492.436C115.516 493.682 118.24 495.081 120.882 496.626C123.401 498.396 124.497 503.477 124.847 512.073C125.245 522.018 125.281 536.78 124.943 539.32C124.943 539.32 120.243 544.016 114.216 543.522C108.19 543.028 98.0528 537.695 95.5939 533.589C95.5939 524.86 96.6787 523.439 95.2685 518.419C92.0262 506.92 90.3267 502.213 91.8936 494.567C93.1953 488.27 95.0154 487.488 97.4983 487.548C99.3344 487.622 101.165 487.795 102.983 488.066Z" fill="#F4F4F4"/>
<path id="&#60;&#208;&#154;&#208;&#190;&#208;&#189;&#209;&#130;&#209;&#131;&#209;&#128;&#62;_17" d="M134.767 522.739C129.813 523.943 128.656 520.873 128.005 518.284C126.438 512.048 125.594 506.401 124.389 502.861C123.003 498.683 121.556 498.045 119.568 497.202C117.157 496.251 115.12 498.262 115.952 503.583C116.924 509.757 118.44 515.833 120.484 521.74C121.098 523.69 122.485 527.146 124.546 528.807C127.101 530.866 130.934 530.782 136.756 529.337C139.166 528.723 141.95 527.242 146.639 525.051C147.844 524.473 148.881 524.076 151.292 522.956C153.722 521.879 155.853 520.226 157.499 518.14C158.765 516.31 158.933 515.455 158.704 515.034C158.475 514.612 157.812 514.624 157.137 515.395C156.147 516.705 154.92 517.819 153.521 518.682C153.521 518.682 155.088 517.08 155.932 516.033C156.697 515.107 157.326 514.077 157.8 512.975C158.258 511.903 157.33 510.458 156.595 511.217C155.86 511.975 155.558 512.758 154.281 514.287C153.611 515.105 152.842 515.837 151.991 516.466C152.785 515.393 153.49 514.258 154.1 513.071C154.651 512.149 154.919 511.086 154.871 510.013C154.871 509.447 154.052 508.809 153.305 509.844C152.589 511.299 151.699 512.662 150.653 513.902C149.52 515.106 148.568 515.744 148.531 515.419C148.495 515.094 149.219 514.456 149.616 513.095C150.014 511.735 149.616 510.278 148.869 510.121C148.122 509.965 148.254 510.013 147.664 511.325C146.829 512.636 146.08 513.999 145.422 515.407C145.036 516.718 144.337 517.917 143.385 518.898C142.155 520.126 139.467 521.559 134.767 522.739Z" fill="#FFCEA9"/>
<path id="&#60;&#208;&#154;&#208;&#190;&#208;&#189;&#209;&#130;&#209;&#131;&#209;&#128;&#62;_18" d="M117.724 496.348C121.026 495.866 123.352 497.347 124.811 502.368C126.269 507.388 127.294 511.47 127.294 511.47C125.974 513.33 123.997 514.621 121.761 515.082C117.808 516.033 116.386 514.155 116.386 514.155C116.386 514.155 115.289 508.905 114.614 505.342C113.939 501.778 113.638 496.95 117.724 496.348Z" fill="#EDEDED"/>
<path id="Vector_183" d="M119.327 470.763C119.327 470.763 124.546 462.841 113.3 461.228C105.14 460.024 99.909 465.297 99.2943 470.968C98.7157 476.398 102.066 482.033 104.477 484.272C106.853 484.864 109.363 484.56 111.528 483.418C111.663 481.941 111.716 480.457 111.685 478.975C111.685 478.975 107.671 470.619 119.327 470.763Z" fill="#3A2C6D"/>
</g>
<path id="Vector_184" d="M141.975 571.01V547.219L123.063 558.247L130.343 573.297L141.975 571.01Z" fill="#C4C7D6"/>
<path id="Vector_185" d="M129.584 548.591L136.84 544.377L141.974 547.351L134.453 551.613L129.584 548.591Z" fill="#D6D8E5"/>
<path id="Vector_186" opacity="0.4" d="M38.2689 416.138L6.02656 397.247C2.41061 395.104 2.82041 391.359 7.05108 388.891L23.4434 379.259C27.6741 376.851 34.0623 376.526 37.7265 378.669L70.017 397.56C73.6329 399.691 73.2111 403.435 68.9924 405.916L52.6001 415.548C48.3212 418.016 41.921 418.281 38.2689 416.138Z" fill="#D6D8E5"/>
<path id="Vector_187" d="M78.3457 397.512V351.845L9.37732 343.982V389.939C9.39052 390.725 9.62314 391.493 10.049 392.154C10.4749 392.816 11.0771 393.345 11.788 393.684L44.1146 412.574C47.7306 414.717 54.179 414.453 58.3976 411.972L74.79 402.34C77.2006 400.944 78.4059 399.15 78.2854 397.524L78.3457 397.512Z" fill="#D6D8E5"/>
<path id="Vector_188" d="M78.2734 356.83V351.845H72.97L43.5361 334.604C39.9201 332.461 33.4716 332.738 29.253 335.206L12.8607 344.838C12.5648 345.006 12.2791 345.191 12.0049 345.392L9.37732 343.983C9.37732 343.983 9.37732 349.245 9.37732 349.425C9.39547 350.209 9.63025 350.972 10.0557 351.631C10.4811 352.29 11.0806 352.818 11.788 353.158L44.1146 372.036C47.7306 374.18 54.179 373.903 58.3977 371.434L74.79 361.802C77.2006 360.37 78.406 358.516 78.2734 356.782V356.83Z" fill="#EDF0F9"/>
<path id="Vector_189" d="M44.1147 366.617L11.8363 347.726C8.2203 345.583 8.63011 341.839 12.8608 339.371L29.2531 329.739C33.4717 327.331 39.872 326.994 43.5361 329.137L75.8266 348.027C79.4426 350.171 79.0207 353.915 74.7901 356.383L58.3977 366.015C54.2394 368.483 47.7789 368.76 44.1147 366.617Z" fill="#E2E5F2"/>
<path id="Vector_190" d="M36.8467 340.828V339.01H35.7499L35.4003 338.794C34.3218 338.236 33.1252 337.945 31.9109 337.945C30.6966 337.945 29.5 338.236 28.4215 338.794C28.2154 338.91 28.0216 339.047 27.843 339.203L26.9872 339.01V340.828C27.016 341.268 27.1649 341.691 27.4178 342.052C27.6707 342.413 28.0179 342.698 28.4215 342.875C29.5018 343.427 30.6977 343.714 31.9109 343.714C33.1241 343.714 34.3201 343.427 35.4003 342.875C35.8001 342.691 36.1442 342.405 36.3982 342.045C36.6521 341.686 36.8068 341.266 36.8467 340.828Z" fill="#6E48E5"/>
<path id="Vector_191" d="M31.9169 341.9C34.6396 341.9 36.8467 340.607 36.8467 339.011C36.8467 337.415 34.6396 336.121 31.9169 336.121C29.1943 336.121 26.9872 337.415 26.9872 339.011C26.9872 340.607 29.1943 341.9 31.9169 341.9Z" fill="#8C50FF"/>
<path id="Vector_192" d="M48.7551 347.68V345.862H47.6583L47.3208 345.645C46.2423 345.088 45.0457 344.797 43.8314 344.797C42.6171 344.797 41.4205 345.088 40.342 345.645C40.1303 345.759 39.9322 345.896 39.7514 346.055L38.8956 345.862V347.68C38.9356 348.118 39.0903 348.538 39.3442 348.897C39.5981 349.256 39.9422 349.543 40.342 349.727C41.4223 350.278 42.6182 350.566 43.8314 350.566C45.0446 350.566 46.2406 350.278 47.3208 349.727C47.7244 349.549 48.0716 349.265 48.3245 348.904C48.5774 348.543 48.7264 348.12 48.7551 347.68Z" fill="#6E48E5"/>
<path id="Vector_193" d="M43.8254 348.75C46.548 348.75 48.7551 347.456 48.7551 345.86C48.7551 344.264 46.548 342.971 43.8254 342.971C41.1028 342.971 38.8956 344.264 38.8956 345.86C38.8956 347.456 41.1028 348.75 43.8254 348.75Z" fill="#8C50FF"/>
<path id="Vector_194" d="M60.6878 355V353.182H59.579L59.2415 352.965C58.163 352.408 56.9664 352.117 55.7521 352.117C54.5378 352.117 53.3412 352.408 52.2627 352.965C52.0536 353.083 51.8559 353.22 51.6721 353.375L50.8163 353.182V355C50.8538 355.439 51.0075 355.86 51.2617 356.219C51.5159 356.579 51.8614 356.865 52.2627 357.047C53.3412 357.604 54.5378 357.895 55.7521 357.895C56.9664 357.895 58.163 357.604 59.2415 357.047C59.6427 356.865 59.9882 356.579 60.2424 356.219C60.4966 355.86 60.6503 355.439 60.6878 355Z" fill="#6E48E5"/>
<path id="Vector_195" d="M55.746 356.07C58.4687 356.07 60.6758 354.776 60.6758 353.181C60.6758 351.585 58.4687 350.291 55.746 350.291C53.0234 350.291 50.8163 351.585 50.8163 353.181C50.8163 354.776 53.0234 356.07 55.746 356.07Z" fill="#8C50FF"/>
</g>
</g>
</g>
<defs>
<clipPath id="clip0">
<rect width="552" height="602" fill="white"/>
</clipPath>
</defs>
</svg>
