<svg width="594" height="597" viewBox="0 0 594 597" fill="none" xmlns="http://www.w3.org/2000/svg">
<g id="drone_delivery_SVG">
<g id="&#208;&#161;&#208;&#187;&#208;&#190;&#208;&#185; 2">
<g id="&#208;&#161;&#208;&#187;&#208;&#190;&#208;&#185; 1">
<path id="Vector" d="M572.504 406.603C572.504 406.711 572.504 406.82 572.504 406.94C572.504 407.061 572.504 407.181 572.504 407.302C572.5 407.342 572.5 407.382 572.504 407.422C572.511 407.298 572.511 407.173 572.504 407.049C572.51 406.973 572.51 406.896 572.504 406.82V406.747C572.51 406.639 572.51 406.53 572.504 406.422V399.19C572.504 399.31 572.504 399.419 572.504 399.539C572.504 399.66 572.504 399.78 572.504 399.901C572.487 400.003 572.463 400.104 572.432 400.202C572.432 400.263 572.432 400.311 572.432 400.371C573.07 398.262 571.999 396.008 569.181 394.344C566.623 393.043 563.795 392.365 560.926 392.365C558.057 392.365 555.228 393.043 552.671 394.344C550.407 395.658 549.287 397.382 549.287 399.105V400.311L527.574 401.384C525.619 401.408 523.679 401.027 521.878 400.263L509.932 394.947C504.708 392.642 499.611 390.059 494.663 387.209C490.022 384.54 485.546 381.594 481.26 378.385L472.059 371.406C471.484 370.988 470.997 370.46 470.626 369.852L472.288 355.484C472.294 355.375 472.294 355.267 472.288 355.158V355.062V348.71C472.288 348.854 472.288 348.999 472.288 349.131C472.288 349.264 472.288 349.059 472.288 349.023C472.288 348.987 472.288 348.915 472.288 348.854V341.212C472.294 341.325 472.294 341.437 472.288 341.55C472.288 341.67 472.288 341.803 472.288 341.923C472.288 342.044 472.288 342.116 472.216 342.225V342.381C472.866 340.272 471.782 338.03 468.964 336.355C466.408 335.051 463.579 334.371 460.709 334.371C457.84 334.371 455.011 335.051 452.454 336.355C450.202 337.669 449.071 339.392 449.083 341.176V348.698C449.083 348.698 449.083 348.77 449.083 348.806V355.086C449.09 355.342 449.122 355.596 449.179 355.845L450.853 370.044C450.5 370.591 450.051 371.068 449.528 371.455L440.4 378.373C431.564 384.962 422.005 390.519 411.908 394.935L400.022 400.178C398.226 400.943 396.29 401.325 394.338 401.299L372.818 400.311V399.045C372.824 399.162 372.824 399.278 372.818 399.395C372.818 399.515 372.818 399.636 372.818 399.756L372.746 400.058C372.741 400.114 372.741 400.17 372.746 400.226C373.384 398.117 372.313 395.863 369.495 394.2C366.938 392.896 364.109 392.216 361.24 392.216C358.37 392.216 355.542 392.896 352.985 394.2C350.721 395.514 349.601 397.237 349.601 399.021V406.543V417.559C349.595 417.632 349.595 417.704 349.601 417.776V420.778C349.601 422.526 350.805 424.273 353.045 425.599C353.589 425.904 354.152 426.174 354.731 426.407H354.827L355.116 426.515C355.453 426.636 355.791 426.756 356.152 426.865L356.73 426.997L357.067 427.082C357.166 427.113 357.266 427.137 357.368 427.154C357.741 427.238 358.127 427.299 358.572 427.359H358.982H359.271H359.704L360.848 427.419H361.21C361.314 427.425 361.418 427.425 361.523 427.419C361.691 427.419 361.872 427.419 362.041 427.419C362.474 427.419 362.908 427.419 363.341 427.335H363.486H363.835C364.16 427.335 364.497 427.263 364.822 427.202C365.148 427.142 365.099 427.13 365.244 427.094C365.641 427.009 366.027 426.913 366.448 426.805L367.074 426.648C367.231 426.648 367.387 426.527 367.544 426.467L368.002 426.298C368.56 426.078 369.103 425.82 369.627 425.527L369.772 425.442C369.88 425.382 369.964 425.31 370.073 425.238L370.494 424.96L370.819 424.707L371.181 424.406H371.253L371.373 424.273L371.638 423.984L394.579 423.164C395.066 423.164 395.552 423.188 396.036 423.237H396.241C396.65 423.237 397.06 423.333 397.445 423.405H397.614C398.035 423.49 398.432 423.598 398.818 423.707L399.263 423.863C399.601 423.976 399.926 424.097 400.239 424.225L412.209 429.541C417.43 431.853 422.526 434.436 427.479 437.279C432.075 439.977 436.507 442.947 440.749 446.175L449.95 453.081C450.304 453.345 450.627 453.648 450.913 453.985C450.172 454.799 449.745 455.85 449.709 456.95V464.484C449.709 464.568 449.709 464.641 449.709 464.713V468.329V475.874C449.709 477.622 450.853 479.37 453.153 480.696C453.692 481.011 454.256 481.281 454.839 481.504H454.935L455.224 481.6C455.561 481.72 455.898 481.853 456.248 481.949L456.838 482.094L457.175 482.179L457.464 482.251C457.849 482.323 458.235 482.395 458.668 482.444H459.09H459.379H459.812C460.186 482.444 460.571 482.444 461.016 482.504H462.221C462.654 482.504 463.088 482.504 463.521 482.408H463.666H464.003C464.34 482.408 464.677 482.323 465.003 482.263L465.424 482.166C465.821 482.082 466.207 481.974 466.628 481.865C467.05 481.757 467.05 481.781 467.254 481.72L467.724 481.54L468.182 481.359C468.742 481.143 469.286 480.885 469.807 480.587L469.952 480.503L470.241 480.31L470.674 480.021L471 479.768L471.361 479.466C471.361 479.466 471.361 479.466 471.433 479.406L471.553 479.274C471.727 479.106 471.892 478.929 472.047 478.743L472.156 478.623L472.228 478.514C472.336 478.37 472.421 478.237 472.505 478.104L472.625 477.936V477.839C472.691 477.724 472.748 477.603 472.794 477.478L472.902 477.261C472.902 477.261 472.902 477.261 472.902 477.188C472.946 477.074 472.982 476.957 473.011 476.839C473.011 476.766 473.011 476.682 473.071 476.61C473.075 476.59 473.075 476.569 473.071 476.549C473.071 476.429 473.071 476.296 473.071 476.176V475.935V468.293C473.077 468.385 473.077 468.478 473.071 468.57V456.975C473.077 457.091 473.077 457.208 473.071 457.324C473.071 457.445 473.071 457.565 473.071 457.686C473.052 457.787 473.028 457.888 472.999 457.987C472.999 457.987 472.999 458.096 472.999 458.156C473.206 457.407 473.209 456.617 473.008 455.866C472.807 455.116 472.408 454.433 471.855 453.889V453.829L471.987 453.684C472.199 453.461 472.429 453.255 472.673 453.069L481.802 446.15C482.753 445.427 483.728 444.704 484.716 444.005L485.691 443.33L487.762 441.908L488.967 441.136L490.978 439.846L492.182 439.087C492.724 438.75 493.29 438.424 493.844 438.099C494.627 437.629 495.421 437.159 496.252 436.7L497.818 435.821L500.323 434.471L501.876 433.651C502.803 433.169 503.743 432.699 504.694 432.229L506.043 431.566C507.448 430.891 508.881 430.228 510.342 429.577L522.24 424.261C522.637 424.092 523.047 423.936 523.444 423.803C523.969 423.637 524.504 423.504 525.046 423.405C525.467 423.321 525.913 423.261 526.358 423.213H526.418C526.9 423.164 527.394 423.14 527.9 423.14L551.081 423.96C551.616 424.487 552.215 424.944 552.863 425.322C553.402 425.629 553.961 425.899 554.537 426.13H554.634L554.923 426.226C555.261 426.362 555.607 426.479 555.958 426.575L556.536 426.72L556.873 426.805L557.174 426.877C557.56 426.961 557.945 427.021 558.379 427.082H558.8H559.089H559.511C559.896 427.082 560.297 427.106 560.715 427.154H561.919C562.353 427.154 562.786 427.154 563.208 427.07H563.352H563.701C564.039 427.07 564.376 426.997 564.701 426.937C565.026 426.877 564.978 426.853 565.122 426.829C565.52 426.744 565.905 426.648 566.327 426.539L566.941 426.383C567.109 426.383 567.254 426.262 567.41 426.202L567.868 426.033C568.427 425.813 568.97 425.555 569.494 425.262L569.638 425.177L569.939 424.972L570.361 424.695C570.474 424.613 570.583 424.525 570.686 424.43L571.047 424.141L571.119 424.08C571.157 424.034 571.197 423.989 571.24 423.948C571.414 423.78 571.579 423.603 571.734 423.417L571.842 423.297C571.842 423.297 571.842 423.213 571.926 423.176C572.026 423.045 572.118 422.908 572.203 422.767C572.244 422.713 572.28 422.657 572.312 422.598C572.312 422.598 572.312 422.538 572.312 422.513C572.312 422.489 572.42 422.272 572.48 422.14C572.54 422.007 572.553 422.007 572.577 421.935C572.601 421.863 572.577 421.935 572.577 421.863C572.577 421.79 572.649 421.634 572.673 421.513L572.745 421.272V421.212C572.745 421.091 572.745 420.971 572.745 420.85C572.745 420.73 572.745 420.681 572.745 420.609V420.5V412.955L572.504 406.603Z" fill="#F4F4F4"/>
<path id="Vector_2" d="M409.56 245.65L408.151 244.204L460.691 190.518L513.352 244.071L511.931 245.494L460.679 193.35L409.56 245.65Z" fill="#4D4D4D"/>
<path id="Vector_3" d="M513.352 244.072L513.208 293.335L460.788 323.831L460.92 274.568L513.352 244.072Z" fill="#CC8B14"/>
<path id="Vector_4" d="M460.92 274.568L460.788 323.831L408.018 293.347L408.151 244.072L460.92 274.568Z" fill="#DD9917"/>
<path id="Vector_5" d="M513.352 244.072L488.172 258.717L487.461 259.115L460.908 274.555L435.848 260.091L435.089 259.645L434.379 259.223L433.632 258.801L408.151 244.072L434.704 228.619L435.39 228.21L460.571 213.564L486.077 228.318L486.823 228.74L487.522 229.138L488.292 229.584L513.352 244.072Z" fill="#F7CB11"/>
<path id="Vector_6" d="M488.292 229.584L435.848 260.092L435.089 259.646L434.379 259.224L433.632 258.802L486.077 228.318L486.823 228.74L487.522 229.138L488.292 229.584Z" fill="#CC8B14"/>
<path id="Vector_7" d="M461.691 274.11L460.92 274.568L459.68 273.845V191.941H461.691V274.11Z" fill="#4D4D4D"/>
<path id="Vector_8" d="M465.713 192.145V188.867C465.715 189.039 465.686 189.21 465.629 189.373C465.629 189.373 465.629 189.481 465.568 189.53C465.518 189.655 465.458 189.776 465.388 189.891C465.353 189.933 465.321 189.977 465.292 190.024C465.18 190.179 465.05 190.32 464.906 190.446C464.71 190.602 464.505 190.746 464.292 190.88C464.048 191.015 463.795 191.132 463.533 191.229C463.274 191.328 463.009 191.408 462.739 191.47H462.654C462.401 191.53 462.136 191.567 461.884 191.603C461.508 191.651 461.13 191.675 460.752 191.675H460.583C460.258 191.675 459.933 191.675 459.62 191.603L459.27 191.543C459.005 191.543 458.753 191.422 458.5 191.35L458.187 191.253C457.854 191.14 457.532 190.999 457.223 190.831C456.813 190.647 456.46 190.356 456.2 189.99C455.94 189.623 455.782 189.194 455.742 188.746V192.037C455.784 192.486 455.944 192.915 456.207 193.282C456.469 193.648 456.824 193.938 457.235 194.122C457.539 194.291 457.857 194.433 458.187 194.544L458.5 194.64C458.753 194.713 459.005 194.773 459.27 194.821L459.62 194.881C459.939 194.928 460.261 194.956 460.583 194.966H460.752C461.13 194.972 461.509 194.948 461.884 194.893H461.98L462.594 194.785H462.654H462.739L463.064 194.701L463.473 194.568H463.533L463.762 194.472L464.087 194.315L464.28 194.206L464.4 194.134L464.689 193.941L464.894 193.772C464.99 193.688 465.075 193.592 465.159 193.507L465.243 193.375C465.279 193.333 465.312 193.289 465.34 193.242C465.368 193.209 465.392 193.172 465.412 193.134C465.453 193.056 465.489 192.975 465.52 192.893C465.523 192.84 465.523 192.788 465.52 192.736C465.623 192.554 465.689 192.353 465.713 192.145Z" fill="#282828"/>
<path id="Vector_9" d="M464.232 186.829C466.195 187.962 466.219 189.818 464.232 190.963C463.129 191.522 461.91 191.812 460.673 191.812C459.437 191.812 458.218 191.522 457.115 190.963C455.152 189.83 455.128 187.974 457.115 186.841C458.217 186.28 459.435 185.986 460.672 185.984C461.908 185.982 463.128 186.272 464.232 186.829Z" fill="#6E6E6E"/>
<path id="Vector_10" d="M461.691 128.707H459.68V188.818H461.691V128.707Z" fill="#4D4D4D"/>
<path id="Vector_11" d="M572.505 91.4509L549.13 91.3906V98.9241C549.13 100.672 550.335 102.42 552.586 103.746C553.12 104.063 553.68 104.333 554.26 104.553H554.357L554.646 104.65C554.983 104.77 555.32 104.903 555.681 104.999L556.259 105.144L556.597 105.228L556.898 105.3L558.102 105.505H558.523H558.812H559.234C559.619 105.505 560.005 105.505 560.438 105.505H561.642L562.931 105.421H563.075H563.425C563.762 105.421 564.099 105.337 564.424 105.276L564.846 105.18C565.243 105.096 565.628 104.987 566.05 104.879C566.471 104.77 566.471 104.794 566.664 104.734L567.134 104.553L567.591 104.384C568.152 104.165 568.696 103.903 569.217 103.601L569.361 103.516L569.663 103.324L570.084 103.034L570.409 102.781C570.535 102.687 570.656 102.587 570.77 102.48H570.843L570.963 102.359C571.137 102.188 571.302 102.007 571.457 101.817C571.496 101.784 571.532 101.748 571.565 101.708C571.59 101.666 571.619 101.626 571.65 101.588L571.927 101.178L572.035 101.009C572.035 101.009 572.035 100.949 572.035 100.913L572.203 100.551C572.203 100.479 572.276 100.407 572.3 100.346C572.324 100.286 572.3 100.346 572.3 100.274C572.3 100.202 572.372 100.033 572.396 99.9245L572.468 99.6835C572.468 99.5629 572.468 99.4303 572.468 99.3098C572.468 99.1893 572.468 99.1531 572.468 99.0687V98.9723L572.505 91.4509Z" fill="#7040CC"/>
<g id="Group">
<g id="Group_2">
<path id="Vector_12" d="M472.323 27.1211V33.4613V27.2175C472.33 27.1857 472.33 27.1529 472.323 27.1211Z" fill="black"/>
<path id="Vector_13" d="M472.312 27.2168V33.569C472.318 33.6774 472.318 33.7861 472.312 33.8945V27.5422C472.318 27.4338 472.318 27.3252 472.312 27.2168Z" fill="black"/>
</g>
</g>
<g id="Group_3">
<g id="Group_4">
<path id="Vector_14" d="M449.095 27.9042V34.2444C449.038 33.9909 449.006 33.7326 448.998 33.473V27.1328C449.011 27.3927 449.047 27.651 449.107 27.9042" fill="black"/>
</g>
</g>
<path id="Vector_15" d="M472.3 27.543L472.276 33.8952L470.084 52.8554L470.096 46.5152L472.3 27.543Z" fill="#7040CC"/>
<path id="Vector_16" d="M451.431 46.527L451.407 52.8672L449.083 34.2445L449.095 27.9043L451.431 46.527Z" fill="#7040CC"/>
<path id="Vector_17" d="M572.468 85.3513C572.468 85.4719 572.468 85.5924 572.468 85.7129L572.396 86.0143C572.396 86.1348 572.336 86.2433 572.288 86.3638C572.26 86.4612 572.22 86.5545 572.167 86.6411C572.123 86.7709 572.067 86.896 571.999 87.0147C571.951 87.1018 571.899 87.1862 571.842 87.2679C571.758 87.4004 571.674 87.5451 571.577 87.6777L571.385 87.9067C571.228 88.0875 571.071 88.2683 570.891 88.4491L570.698 88.6299C570.583 88.7368 570.463 88.8374 570.337 88.9312L570.012 89.1844L569.59 89.4616C569.446 89.558 569.301 89.6665 569.145 89.7509C568.637 90.0399 568.11 90.2937 567.567 90.5103L567.097 90.6911L566.002 91.0286L564.797 91.3058C564.388 91.3902 563.978 91.4745 563.593 91.5348H563.123C562.461 91.6071 561.787 91.6553 561.112 91.6674H560.281C560.005 91.6674 559.74 91.6674 559.475 91.6674L527.659 90.5344H527.129L526.178 90.5946H526.105C525.708 90.5946 525.311 90.6911 524.901 90.7513H524.793C524.254 90.844 523.722 90.977 523.203 91.1491H523.143C522.732 91.2711 522.33 91.42 521.939 91.5951L510.029 96.9107C508.572 97.5495 507.151 98.2245 505.742 98.8995L504.393 99.5625L501.563 100.973L500.022 101.792L497.505 103.154L495.951 104.034L493.543 105.42L492.616 105.963L491.881 106.421L490.677 107.18C490.002 107.602 489.34 108.036 488.678 108.47C488.28 108.723 487.883 108.976 487.473 109.241L485.402 110.664L484.439 111.339C483.451 112.038 482.476 112.749 481.525 113.472L472.457 120.536C472.276 120.68 472.107 120.813 471.951 120.958L471.758 121.162L471.529 121.416L471.373 121.584C471.264 121.727 471.164 121.876 471.072 122.03C471.059 122.063 471.038 122.092 471.012 122.115C470.91 122.283 470.826 122.46 470.759 122.645C470.759 122.645 470.759 122.778 470.699 122.838V122.995C470.673 123.053 470.653 123.113 470.638 123.175C470.626 123.356 470.626 123.537 470.638 123.718V134.819C470.638 134.546 470.675 134.275 470.747 134.011C470.741 133.959 470.741 133.907 470.747 133.855C470.824 133.59 470.933 133.335 471.072 133.095C471.074 133.067 471.074 133.039 471.072 133.011C471.21 132.793 471.367 132.587 471.542 132.396L471.77 132.143C471.982 131.916 472.212 131.707 472.457 131.516L481.585 124.598C482.536 123.874 483.512 123.163 484.499 122.464L485.474 121.789L487.546 120.367L488.75 119.595C489.412 119.162 490.075 118.728 490.761 118.306L491.965 117.546L493.627 116.546C494.41 116.076 495.205 115.618 496.036 115.16L497.601 114.268L500.106 112.918L501.659 112.098L504.477 110.688L505.826 110.025C507.235 109.35 508.668 108.675 510.125 108.036L522.023 102.72C522.415 102.544 522.817 102.391 523.227 102.262C523.75 102.09 524.286 101.957 524.829 101.865C525.262 101.775 525.701 101.711 526.141 101.672H526.202C526.683 101.624 527.177 101.6 527.683 101.6L559.499 102.733C559.752 102.733 560.017 102.733 560.306 102.733H561.594C562.028 102.733 562.461 102.733 562.895 102.648H563.136H563.605L564.4 102.54L564.858 102.419L566.062 102.142C566.242 102.142 566.435 102.058 566.616 101.997L567.146 101.804L567.615 101.624C568.162 101.407 568.693 101.153 569.205 100.864L569.349 100.78L569.65 100.587L570.072 100.298L570.385 100.045C570.513 99.9538 570.634 99.8531 570.746 99.7433C570.77 99.7481 570.795 99.7481 570.819 99.7433L570.939 99.6227C571.113 99.4511 571.278 99.27 571.433 99.0803C571.472 99.0473 571.508 99.011 571.541 98.9718C571.573 98.9346 571.601 98.8942 571.625 98.8513L571.902 98.4415C571.943 98.3881 571.979 98.3316 572.011 98.2727C572.011 98.2727 572.011 98.2125 572.011 98.1884C572.074 98.0672 572.13 97.9424 572.179 97.8147C572.179 97.8147 572.252 97.6821 572.276 97.6098C572.3 97.5375 572.276 97.6098 572.276 97.5375C572.276 97.4651 572.348 97.3085 572.372 97.1879L572.444 96.9469C572.444 96.8263 572.444 96.7058 572.444 96.5852C572.444 96.4647 572.444 96.4165 572.444 96.3442V96.2357V85.2188C572.453 85.2628 572.461 85.307 572.468 85.3513Z" fill="#B1B6C3"/>
<path id="Vector_18" d="M449.925 120.536L440.749 113.557C436.463 110.348 431.987 107.402 427.346 104.734C422.398 101.883 417.301 99.3003 412.076 96.9953L400.106 91.6797C399.965 91.6082 399.821 91.5438 399.673 91.4868L399.143 91.3181L398.685 91.1614H398.541C398.216 91.0626 397.887 90.9821 397.553 90.9203H397.397H397.216L396.554 90.7998H396.012H395.795H395.663H394.784H394.35L362.474 91.6917C362.149 91.6917 361.836 91.6917 361.511 91.6917C360.752 91.6917 359.993 91.6917 359.271 91.5832H358.982C358.307 91.5109 357.645 91.4024 357.007 91.2699L356.718 91.1975C356.14 91.0529 355.586 90.8841 355.044 90.6913L354.755 90.5949C354.134 90.3649 353.534 90.0826 352.961 89.7511C350.661 88.4252 349.517 86.6775 349.517 84.9297V95.9466C349.517 97.6823 350.661 99.4301 352.961 100.768C353.499 101.076 354.059 101.345 354.635 101.576H354.743L355.044 101.672C355.357 101.793 355.682 101.913 356.019 102.01L356.718 102.178L357.007 102.251H357.224C357.609 102.335 357.994 102.395 358.428 102.456L359.018 102.516H359.295H359.608C360.017 102.516 360.427 102.516 360.812 102.516H361.944H362.474L394.434 101.383C394.928 101.383 395.41 101.383 395.892 101.383H396.096C396.506 101.383 396.915 101.491 397.301 101.564H397.469C397.876 101.639 398.279 101.74 398.673 101.865L399.119 102.022C399.451 102.122 399.777 102.243 400.094 102.383L412.064 107.699C417.281 110.098 422.366 112.773 427.298 115.714C431.953 118.398 436.445 121.357 440.749 124.574L449.95 131.493C450.51 131.85 450.978 132.334 451.317 132.905C451.655 133.477 451.855 134.12 451.9 134.783V123.766C451.845 123.111 451.637 122.478 451.294 121.917C450.951 121.357 450.483 120.884 449.925 120.536Z" fill="#B1B6C3"/>
<path id="Vector_19" d="M472.963 146.727C472.968 146.84 472.968 146.952 472.963 147.065C472.963 147.185 472.963 147.306 472.963 147.438C472.963 147.571 472.963 147.631 472.89 147.74C472.818 147.848 472.83 147.969 472.794 148.077L472.674 148.367L472.505 148.728L472.348 148.993L472.059 149.463C471.999 149.536 471.939 149.62 471.867 149.692C471.715 149.881 471.55 150.058 471.373 150.223L471.18 150.416C471.065 150.523 470.945 150.623 470.819 150.717L470.494 150.97L470.072 151.247C469.928 151.344 469.783 151.452 469.627 151.537C469.105 151.835 468.562 152.092 468.001 152.308L467.543 152.489C467.194 152.609 466.821 152.718 466.46 152.814C466.098 152.911 465.689 153.031 465.255 153.104C464.822 153.176 464.316 153.296 463.834 153.357H463.485C462.835 153.357 462.185 153.453 461.522 153.465H461.221C460.571 153.465 459.921 153.465 459.282 153.357H458.993C458.355 153.284 457.729 153.176 457.115 153.043L456.778 152.959C456.232 152.821 455.693 152.656 455.164 152.465L454.875 152.368C454.263 152.136 453.671 151.854 453.105 151.525C450.805 150.199 449.649 148.451 449.649 146.703V154.249C449.649 155.996 450.793 157.744 453.093 159.07C453.634 159.38 454.198 159.65 454.779 159.878H454.875L455.164 159.974L456.188 160.324L456.778 160.468L457.115 160.541L457.404 160.613C457.789 160.697 458.175 160.77 458.608 160.818H459.03H459.319H459.752H460.956H462.161C462.594 160.818 463.028 160.818 463.461 160.733H463.606H463.943C464.28 160.733 464.617 160.661 464.942 160.601C465.267 160.541 465.219 160.529 465.364 160.492C465.761 160.408 466.147 160.312 466.568 160.203C466.99 160.095 466.99 160.119 467.194 160.046L467.664 159.866L468.122 159.697C468.68 159.476 469.223 159.219 469.747 158.925L469.892 158.841L470.181 158.636L470.614 158.359L470.939 158.106L471.301 157.804C471.301 157.804 471.301 157.804 471.373 157.744L471.493 157.612C471.667 157.444 471.832 157.267 471.987 157.081L472.095 156.961L472.168 156.84C472.271 156.711 472.364 156.574 472.445 156.43L472.565 156.262V156.177C472.631 156.062 472.688 155.941 472.734 155.816L472.842 155.599C472.842 155.599 472.842 155.599 472.842 155.526C472.842 155.454 472.914 155.297 472.95 155.177C472.987 155.056 472.95 155.02 473.011 154.948C473.016 154.924 473.016 154.899 473.011 154.875C473.011 154.755 473.011 154.634 473.011 154.514V154.273V154.285L472.963 146.727Z" fill="#7040CC"/>
<path id="Vector_20" d="M472.95 142.811C472.956 142.927 472.956 143.044 472.95 143.16C472.95 143.293 472.95 143.437 472.95 143.582C472.932 143.684 472.908 143.784 472.878 143.883C472.849 144.01 472.813 144.135 472.77 144.257C472.77 144.353 472.698 144.45 472.649 144.558C472.601 144.667 472.541 144.799 472.481 144.92L472.312 145.197C472.236 145.331 472.152 145.46 472.059 145.583L471.867 145.836L471.385 146.342L471.192 146.535L470.855 146.812L470.518 147.077C470.39 147.173 470.258 147.261 470.121 147.343L469.663 147.644C469.138 147.944 468.591 148.202 468.025 148.415L467.58 148.584C467.221 148.717 466.855 148.829 466.484 148.922C466.098 149.03 465.713 149.139 465.28 149.211C464.846 149.283 464.34 149.404 463.859 149.464H463.521C462.871 149.464 462.209 149.561 461.558 149.573H461.221C460.571 149.573 459.921 149.573 459.282 149.464H458.993C458.361 149.393 457.734 149.284 457.115 149.139L456.79 149.066C456.244 148.929 455.705 148.764 455.176 148.572L454.887 148.476C454.271 148.243 453.675 147.961 453.105 147.632C450.877 146.342 449.721 144.655 449.661 142.967V149.307C449.721 151.007 450.865 152.682 453.105 153.984C453.643 154.292 454.203 154.562 454.779 154.792H454.875L455.164 154.888C455.502 155.025 455.848 155.141 456.2 155.238L456.778 155.382L457.115 155.467L457.416 155.539C457.789 155.623 458.175 155.684 458.62 155.744H459.042H459.331H459.752C460.137 155.744 460.523 155.744 460.896 155.744C461.017 155.744 461.137 155.744 461.257 155.744H462.1C462.534 155.744 462.955 155.744 463.389 155.66H463.533H463.883L464.882 155.527C465.027 155.527 465.159 155.443 465.304 155.419C465.705 155.338 466.106 155.242 466.508 155.129L467.134 154.973L467.604 154.792L468.061 154.623C468.62 154.402 469.163 154.145 469.687 153.852L469.844 153.755L470.157 153.55L470.542 153.285L470.879 153.02L471.216 152.743H471.289L471.409 152.61C471.582 152.449 471.743 152.276 471.891 152.092L471.999 151.983C472.032 151.938 472.06 151.889 472.083 151.839C472.179 151.715 472.267 151.586 472.348 151.453C472.391 151.401 472.428 151.345 472.457 151.284V151.176L472.625 150.814C472.625 150.814 472.686 150.682 472.71 150.609V150.513C472.71 150.392 472.782 150.272 472.806 150.151C472.83 150.031 472.806 149.994 472.878 149.922C472.873 149.894 472.873 149.866 472.878 149.838C472.878 149.705 472.878 149.561 472.878 149.416C472.878 149.271 472.878 149.271 472.878 149.187V149.078L472.95 142.811Z" fill="#DADCE0"/>
<path id="Vector_21" d="M569.06 80.1926C573.624 82.8324 573.648 87.1114 569.06 89.7511C566.6 91.0741 563.845 91.7541 561.052 91.7279C560.414 91.7279 559.908 91.7279 559.414 91.7279L527.599 90.5948C525.65 90.5773 523.719 90.963 521.927 91.7279L510.017 97.0435C499.924 101.46 490.368 107.016 481.537 113.605L472.457 120.536C471.9 120.898 471.436 121.385 471.102 121.958C470.767 122.532 470.571 123.176 470.53 123.839L472.878 142.124C472.926 142.325 472.95 142.531 472.95 142.738C472.95 144.607 471.879 146.355 469.591 147.705C467.035 149.006 464.209 149.684 461.342 149.684C458.475 149.684 455.648 149.006 453.093 147.705C450.865 146.415 449.709 144.727 449.649 143.04C449.631 142.686 449.671 142.332 449.769 141.991L451.864 123.826C451.822 123.164 451.624 122.521 451.287 121.95C450.95 121.378 450.484 120.894 449.926 120.536L440.749 113.557C436.463 110.348 431.987 107.402 427.346 104.734C422.398 101.883 417.301 99.3003 412.077 96.9953L400.106 91.6797C398.314 90.9156 396.382 90.5338 394.435 90.5587L362.474 91.6917C362.149 91.6917 361.836 91.6917 361.511 91.6917C358.538 91.7856 355.591 91.1044 352.961 89.7149C348.397 87.0752 348.373 82.7962 352.961 80.1565C355.498 78.7949 358.343 78.11 361.222 78.1676C361.788 78.1676 362.306 78.1676 362.811 78.24L394.435 79.6984C396.386 79.7184 398.321 79.3368 400.118 78.5775L412.004 73.2618C422.104 68.8463 431.664 63.2854 440.496 56.6882L449.624 49.7815C450.178 49.4218 450.639 48.9362 450.97 48.3644C451.3 47.7926 451.491 47.1506 451.527 46.4909L449.191 27.8682C449.131 27.6149 449.095 27.3567 449.083 27.0968C449.083 25.3249 450.203 23.5892 452.491 22.2753C455.044 20.9736 457.868 20.2949 460.734 20.2949C463.599 20.2949 466.423 20.9736 468.977 22.2753C471.469 23.7097 472.589 25.6383 472.397 27.5186L470.193 46.4909C470.228 47.1516 470.415 47.7952 470.739 48.372C471.062 48.9489 471.514 49.4435 472.059 49.8177L481.272 56.7244C485.558 59.9368 490.034 62.8873 494.675 65.5596C499.626 68.4051 504.723 70.9881 509.945 73.298L521.891 78.6136C523.693 79.372 525.631 79.7535 527.587 79.7346L559.174 78.2761C559.691 78.2761 560.233 78.2038 560.763 78.2038C563.653 78.1496 566.509 78.8342 569.06 80.1926Z" fill="#C4C7D2"/>
<path id="Vector_22" d="M472.324 19.6231C472.324 19.7316 472.324 19.8401 472.324 19.9606C472.324 20.0811 472.324 20.2017 472.324 20.3222C472.307 20.4242 472.283 20.5249 472.252 20.6235C472.227 20.7419 472.195 20.8587 472.156 20.9731L472.035 21.2624L471.867 21.624L471.71 21.8771C471.625 22.0184 471.532 22.1552 471.433 22.2869L471.24 22.528C471.089 22.7164 470.924 22.8936 470.747 23.0584L470.554 23.2512L470.193 23.5405C470.09 23.6354 469.981 23.7239 469.868 23.8057L469.446 24.0829L469.001 24.3722C468.476 24.6653 467.933 24.9231 467.375 25.1436L466.917 25.3124C466.558 25.4447 466.193 25.5574 465.821 25.6499C465.444 25.7543 465.043 25.8508 464.617 25.9392C464.148 26.0356 463.678 26.132 463.196 26.1923H462.847C462.197 26.2646 461.546 26.3008 460.884 26.3128H460.571C459.933 26.3128 459.282 26.3128 458.644 26.2043H458.355C457.723 26.1331 457.096 26.0244 456.477 25.8789L456.139 25.8066C455.585 25.6619 455.044 25.4932 454.526 25.3124L454.237 25.2159C453.625 24.9836 453.032 24.7014 452.466 24.3722C450.166 23.0463 449.01 21.2985 449.01 19.5508V27.0963C449.01 28.832 450.154 30.5798 452.454 31.9177C452.998 32.2229 453.562 32.4927 454.14 32.7253H454.237L454.526 32.8217C454.861 32.9562 455.202 33.0729 455.549 33.1713C455.742 33.2316 455.947 33.2677 456.139 33.3159L456.477 33.4003L456.766 33.4726C457.151 33.557 457.536 33.6173 457.97 33.6775H458.391H458.68H459.114C459.487 33.6775 459.873 33.7378 460.258 33.7499H460.932C461.101 33.7499 461.281 33.7499 461.45 33.7499C461.884 33.7499 462.317 33.7499 462.751 33.6655H462.895H463.232C463.57 33.6655 463.907 33.5932 464.232 33.5329C464.557 33.4726 464.509 33.4485 464.653 33.4244C465.051 33.34 465.436 33.2436 465.858 33.1351L466.472 32.9784C466.64 32.9784 466.797 32.8579 466.953 32.7976L467.411 32.6289C467.97 32.4083 468.513 32.1506 469.037 31.8575L469.181 31.7731L469.47 31.5682L469.904 31.2909C470.013 31.2091 470.118 31.1205 470.217 31.0258L470.59 30.7365C470.609 30.7103 470.633 30.6896 470.662 30.6762C470.696 30.6265 470.737 30.5818 470.783 30.5436C470.951 30.3628 471.12 30.1941 471.277 30.0133C471.306 29.9676 471.343 29.927 471.385 29.8927L471.457 29.7722C471.56 29.6433 471.653 29.5062 471.734 29.3624L471.855 29.1936V29.1092C471.923 28.9905 471.979 28.8654 472.023 28.7356L472.132 28.5307C472.132 28.5307 472.132 28.5307 472.132 28.4584C472.132 28.386 472.204 28.2293 472.24 28.1088C472.276 27.9883 472.24 27.9521 472.3 27.8677C472.308 27.8483 472.308 27.8269 472.3 27.8075C472.3 27.6869 472.3 27.5664 472.3 27.4459V27.2048V27.0963L472.324 19.6231Z" fill="#7040CC"/>
<path id="Vector_23" d="M372.83 77.4805C372.836 77.5929 372.836 77.7056 372.83 77.818C372.83 77.9386 372.83 78.0712 372.83 78.1917L372.758 78.493C372.758 78.6015 372.698 78.722 372.65 78.8305C372.615 78.929 372.575 79.0256 372.529 79.1198C372.483 79.2448 372.427 79.3657 372.361 79.4814C372.316 79.5739 372.263 79.6625 372.204 79.7466C372.12 79.8792 372.036 80.0118 371.927 80.1564L371.747 80.3854C371.59 80.5662 371.422 80.747 371.253 80.9158L371.048 81.1086C370.937 81.2154 370.821 81.316 370.699 81.41L370.362 81.6631L369.952 81.9524C369.796 82.0488 369.663 82.1452 369.507 82.2296C368.985 82.5347 368.437 82.7929 367.869 83.001L367.423 83.1819C367.074 83.3024 366.701 83.4109 366.328 83.5073C365.954 83.6037 365.557 83.7243 365.123 83.8086C364.69 83.893 364.184 83.9894 363.702 84.0497H363.365C362.715 84.122 362.053 84.1461 361.402 84.1582H361.089C360.441 84.1584 359.794 84.1222 359.15 84.0497H358.861C358.223 83.9774 357.597 83.8689 356.983 83.7363L356.658 83.6519C356.098 83.5253 355.547 83.3643 355.008 83.1698L354.719 83.0734C354.103 82.8411 353.507 82.5589 352.937 82.2296C350.636 80.9037 349.48 79.156 349.492 77.4082V84.9537C349.492 86.7015 350.636 88.4493 352.949 89.7751C353.485 90.0874 354.044 90.3574 354.623 90.5827H354.719L355.008 90.6792C355.345 90.7997 355.682 90.9202 356.043 91.0287L356.622 91.1734L356.959 91.2457L357.26 91.33C357.633 91.4024 358.018 91.4747 358.464 91.5229H358.885H359.175H359.596L360.74 91.5832H361.944C362.378 91.5832 362.799 91.5832 363.233 91.4988H363.377H363.726L364.726 91.3542C364.864 91.3252 365.001 91.2889 365.135 91.2457C365.542 91.17 365.943 91.0734 366.34 90.9564C366.532 90.8961 366.749 90.872 366.954 90.7997C367.159 90.7274 367.267 90.6792 367.423 90.6189L367.881 90.4501C368.442 90.2346 368.985 89.9767 369.507 89.6787L369.651 89.5943L369.952 89.4015L370.374 89.1122L370.699 88.8591L371.06 88.5577H371.133C371.176 88.5163 371.216 88.472 371.253 88.4251C371.43 88.2604 371.595 88.0832 371.747 87.8948C371.789 87.8605 371.825 87.8199 371.855 87.7743C371.886 87.7361 371.914 87.6958 371.939 87.6537L372.216 87.2559C372.257 87.1984 372.293 87.138 372.325 87.0751C372.325 87.0751 372.325 87.0751 372.325 86.9908L372.493 86.6292C372.493 86.5568 372.566 86.4845 372.59 86.4122C372.614 86.3399 372.59 86.4122 372.59 86.3399C372.629 86.2254 372.661 86.1087 372.686 85.9903L372.758 85.7613V85.689C372.758 85.5684 372.758 85.4479 372.758 85.3274C372.758 85.2068 372.758 85.1707 372.758 85.0863V84.9899L372.83 77.4805Z" fill="#7040CC"/>
<path id="Vector_24" d="M369.386 72.6717C373.95 75.3114 373.975 79.5904 369.386 82.2302C366.831 83.5311 364.004 84.2092 361.137 84.2092C358.27 84.2092 355.444 83.5311 352.888 82.2302C348.324 79.5904 348.288 75.3114 352.828 72.6717C355.391 71.3598 358.229 70.6758 361.107 70.6758C363.986 70.6758 366.823 71.3598 369.386 72.6717Z" fill="#8C50FF"/>
<path id="Vector_25" d="M472.963 135.409C472.968 135.521 472.968 135.634 472.963 135.746C472.969 135.871 472.969 135.996 472.963 136.12C472.963 136.217 472.963 136.313 472.89 136.421C472.818 136.53 472.83 136.65 472.794 136.771C472.758 136.892 472.71 136.952 472.673 137.048L472.505 137.41C472.505 137.506 472.396 137.591 472.348 137.675L472.071 138.085C472.011 138.157 471.951 138.242 471.879 138.314C471.727 138.502 471.562 138.679 471.385 138.844L471.192 139.037C471.077 139.144 470.957 139.245 470.831 139.338L470.506 139.592L470.084 139.881C469.94 139.977 469.795 140.074 469.639 140.158C469.117 140.46 468.574 140.722 468.013 140.942L467.556 141.11L466.472 141.448C466.086 141.556 465.701 141.653 465.267 141.737C464.834 141.821 464.328 141.918 463.846 141.978H463.497C462.845 142.051 462.19 142.087 461.534 142.087H461.221C460.573 142.087 459.926 142.051 459.282 141.978H458.993C458.359 141.89 457.733 141.781 457.115 141.653L456.778 141.568C456.23 141.436 455.691 141.271 455.164 141.074L454.875 140.978C454.263 140.745 453.671 140.463 453.105 140.134C450.805 138.808 449.649 137.06 449.649 135.312V142.858C449.649 144.606 450.793 146.354 453.093 147.679C453.634 147.989 454.198 148.259 454.779 148.487H454.875L455.164 148.583C455.501 148.704 455.838 148.837 456.188 148.933L456.778 149.078L457.115 149.162L457.404 149.234C457.789 149.307 458.175 149.379 458.608 149.427H459.03H459.319H459.752L460.956 149.487H462.161C462.594 149.487 463.028 149.487 463.461 149.391H463.606H463.943C464.28 149.391 464.617 149.307 464.942 149.246C465.267 149.186 465.219 149.174 465.364 149.138C465.761 149.066 466.147 148.957 466.568 148.849C466.99 148.74 466.99 148.764 467.194 148.704L467.664 148.523L468.122 148.342C468.682 148.127 469.226 147.869 469.747 147.571L469.892 147.487L470.181 147.294L470.614 147.004L470.939 146.751L471.301 146.45C471.301 146.45 471.301 146.45 471.373 146.45L471.493 146.317C471.667 146.15 471.832 145.972 471.987 145.787L472.095 145.666L472.168 145.558C472.276 145.413 472.36 145.281 472.445 145.148L472.565 144.967V144.883C472.631 144.767 472.688 144.646 472.734 144.521L472.842 144.304C472.842 144.304 472.842 144.304 472.842 144.232C472.885 144.118 472.922 144.001 472.95 143.883C472.95 143.81 472.95 143.726 473.011 143.654C473.011 143.521 473.011 143.4 473.011 143.28V143.039V142.942L472.963 135.409Z" fill="#7040CC"/>
<path id="Vector_26" d="M469.53 130.6C474.094 133.24 474.119 137.519 469.53 140.159C466.98 141.468 464.154 142.151 461.287 142.151C458.421 142.151 455.595 141.468 453.045 140.159C448.468 137.519 448.432 133.24 452.972 130.6C455.536 129.29 458.373 128.607 461.251 128.607C464.13 128.607 466.967 129.29 469.53 130.6Z" fill="#8C50FF"/>
<path id="Vector_27" d="M572.492 77.5648C572.492 77.6854 572.492 77.7939 572.492 77.9144C572.492 78.0349 572.492 78.1555 572.492 78.276C572.474 78.3777 572.45 78.4783 572.42 78.5773C572.42 78.6858 572.42 78.8064 572.324 78.9269C572.228 79.0474 572.24 79.1077 572.203 79.2041C572.167 79.3006 572.095 79.4572 572.023 79.5778C571.979 79.6673 571.927 79.7522 571.866 79.8309C571.782 79.9635 571.698 80.1081 571.601 80.2407L571.409 80.4698C571.254 80.6594 571.089 80.8405 570.915 81.0122L570.722 81.193L570.361 81.4943L570.036 81.7595L569.614 82.0367L569.169 82.326C568.645 82.6191 568.102 82.8769 567.543 83.0974L567.085 83.2662C566.736 83.3988 566.363 83.4952 565.99 83.6037C565.616 83.7122 565.219 83.8086 564.785 83.893C564.352 83.9773 563.846 84.0738 563.364 84.134H563.027C562.375 84.2066 561.72 84.2428 561.064 84.2425H560.751C560.103 84.2424 559.456 84.2062 558.812 84.134H558.535C557.901 84.0537 557.275 83.9452 556.657 83.8086L556.32 83.7242C555.772 83.5922 555.233 83.4272 554.706 83.23L554.417 83.1336C553.803 82.9003 553.208 82.6223 552.635 82.3019C550.335 80.9639 549.191 79.2162 549.191 77.4805V85.026C549.191 86.7738 550.335 88.5215 552.635 89.8474C553.172 90.1647 553.736 90.4349 554.321 90.655H554.405L554.694 90.7514C555.043 90.872 555.38 91.0046 555.73 91.101L556.32 91.2456L556.645 91.33L556.946 91.4023C557.331 91.4746 557.716 91.547 558.15 91.5952H558.572H558.861H559.282C559.667 91.5952 560.053 91.5952 560.486 91.5952H561.69C562.124 91.5952 562.558 91.5952 562.979 91.4987H563.124H563.473C563.81 91.4987 564.147 91.4144 564.472 91.3541L564.894 91.2577C565.291 91.1733 565.676 91.0648 566.098 90.9563C566.519 90.8479 566.519 90.872 566.712 90.8117C566.905 90.7514 567.025 90.6791 567.194 90.6309L567.639 90.4501C568.201 90.2369 568.745 89.9789 569.265 89.6787L569.41 89.5943L569.711 89.4014L570.132 89.1121L570.457 88.859C570.585 88.7682 570.706 88.6675 570.819 88.5577C570.819 88.5577 570.819 88.5577 570.891 88.4974C570.937 88.4592 570.978 88.4146 571.011 88.3648C571.189 88.1971 571.358 88.02 571.517 87.8345L571.625 87.7139L571.698 87.6054C571.806 87.4608 571.89 87.3282 571.975 87.1956L572.095 87.0269V86.9305C572.155 86.8099 572.215 86.6894 572.264 86.5688C572.301 86.4988 572.333 86.4263 572.36 86.3519C572.36 86.3519 572.36 86.3519 572.36 86.2796C572.409 86.0847 572.465 85.8917 572.529 85.701C572.529 85.5805 572.529 85.4479 572.529 85.3273C572.535 85.2471 572.535 85.1665 572.529 85.0863C572.529 85.0863 572.529 85.0863 572.529 84.9898L572.492 77.5648Z" fill="#7040CC"/>
<path id="Vector_28" d="M569.048 72.7557C573.624 75.3954 573.649 79.6744 569.048 82.3262C566.493 83.6272 563.666 84.3053 560.799 84.3053C557.932 84.3053 555.106 83.6272 552.55 82.3262C547.986 79.6865 547.95 75.3954 552.49 72.7557C555.053 71.4438 557.891 70.7598 560.769 70.7598C563.648 70.7598 566.485 71.4438 569.048 72.7557Z" fill="#8C50FF"/>
<path id="Vector_29" d="M468.88 14.802C473.456 17.4418 473.48 21.7328 468.88 24.3725C466.327 25.6743 463.502 26.353 460.637 26.353C457.772 26.353 454.947 25.6743 452.394 24.3725C447.818 21.7328 447.782 17.4418 452.322 14.802C454.886 13.493 457.723 12.8105 460.601 12.8105C463.479 12.8105 466.316 13.493 468.88 14.802Z" fill="#8C50FF"/>
<path id="Vector_30" d="M491.327 70.32C491.32 70.494 491.299 70.6672 491.267 70.8383C491.242 70.9765 491.21 71.1132 491.171 71.2481C491.171 71.4169 491.086 71.5735 491.026 71.7423C490.966 71.911 490.918 72.0075 490.857 72.1401C490.797 72.2726 490.713 72.4776 490.629 72.6463L490.412 73.0079C490.291 73.1887 490.171 73.3816 490.027 73.5624L489.762 73.8878C489.549 74.1515 489.32 74.4011 489.075 74.6351C488.991 74.7195 488.919 74.8039 488.822 74.8883L488.341 75.286L487.883 75.6476L487.317 76.0334C487.112 76.1659 486.92 76.2985 486.691 76.4311L464.232 89.4731C463.871 89.678 463.461 89.8949 463.028 90.1119L462.847 90.2083L461.45 90.8472L461.173 90.9557C460.667 91.1726 460.137 91.3896 459.571 91.6065L459.319 91.703L457.488 92.3539L455.79 92.9083L454.586 93.282L453.502 93.5954L452.202 93.9449L451.082 94.2342L449.745 94.5476L448.613 94.8128L447.252 95.078C446.879 95.1503 446.493 95.2347 446.108 95.2949L445.169 95.4516L443.82 95.6565L442.869 95.765L441.665 95.8976C441.171 95.8976 440.677 95.9699 440.195 95.994C439.714 96.0181 439.533 95.994 439.22 95.994H438.546C438.076 95.994 437.618 95.994 437.185 95.994H436.799C436.245 95.994 435.716 95.9338 435.21 95.8132H434.993C434.495 95.7375 434.003 95.6206 433.524 95.4637L433.307 95.3914C432.889 95.2551 432.486 95.0774 432.103 94.861C431.44 94.5068 430.889 93.9732 430.515 93.321C430.14 92.6689 429.956 91.9244 429.983 91.1726V97.5248C429.944 98.2807 430.12 99.0322 430.491 99.6917C430.862 100.351 431.413 100.891 432.079 101.249C432.344 101.395 432.617 101.523 432.898 101.635L433.295 101.78L433.524 101.852L433.717 101.924L434.535 102.117H434.909H435.138H435.415C435.752 102.165 436.101 102.202 436.462 102.226H436.715H437.1H437.739H439.449H440.123L441.592 102.117H441.978L442.772 102.021L443.724 101.9L445.072 101.695L446.024 101.551H446.301L447.168 101.382L448.517 101.105L449.649 100.852L450.997 100.538L452.105 100.249L453.406 99.8994L454.49 99.5739L455.694 99.2003L456.139 99.0677L457.344 98.6579L459.162 97.9949L459.427 97.8985C459.981 97.6815 460.511 97.4766 461.017 97.2597L461.306 97.1391L462.69 96.5123C462.752 96.4754 462.817 96.4432 462.883 96.4159C463.317 96.1989 463.738 95.982 464.087 95.765L486.522 82.7231L486.715 82.6146L487.136 82.3253L487.702 81.9516C487.871 81.8311 488.015 81.7106 488.16 81.59C488.328 81.463 488.489 81.3262 488.642 81.1802L488.738 81.1079L488.907 80.9271C489.151 80.6971 489.38 80.4515 489.593 80.1918L489.737 80.0351C489.775 79.9769 489.815 79.9206 489.858 79.8664L490.231 79.2999L490.388 79.0709L490.448 78.9383C490.538 78.7743 490.618 78.6053 490.689 78.432C490.689 78.3356 490.785 78.2392 490.821 78.1427C490.857 78.0463 490.821 78.0704 490.821 78.0342C490.881 77.8771 490.929 77.716 490.966 77.5521C490.966 77.4436 491.038 77.3351 491.062 77.2267C491.056 77.1988 491.056 77.1701 491.062 77.1423C491.062 76.9615 491.062 76.7927 491.062 76.624C491.056 76.5156 491.056 76.4069 491.062 76.2985V69.9102C491.327 70.0066 491.327 70.1633 491.327 70.32Z" fill="#7040CC"/>
<path id="Vector_31" d="M486.57 63.1721C492.881 66.7882 492.929 72.815 486.655 76.431L464.232 89.473C457.97 93.0891 438.401 98.5011 432.103 94.8609C425.805 91.2207 435.029 79.8543 441.291 76.2141L463.714 63.1721C469.988 59.5199 480.272 59.532 486.57 63.1721Z" fill="#8C50FF"/>
<path id="Vector_32" d="M464.629 134.023C464.587 134.158 464.522 134.285 464.437 134.397V134.469C464.338 134.595 464.229 134.711 464.111 134.819C464.02 134.898 463.924 134.97 463.822 135.036L463.57 135.217C463.316 135.357 463.05 135.474 462.775 135.566L462.474 135.663L462.064 135.759L461.57 135.844H461.45C461.225 135.856 461 135.856 460.776 135.844H460.667H459.993H459.897C459.678 135.821 459.461 135.785 459.246 135.735H459.126L458.56 135.566H458.464C458.252 135.484 458.047 135.388 457.849 135.277C457.519 135.129 457.233 134.896 457.021 134.602C456.81 134.308 456.68 133.963 456.645 133.602V135.807C456.679 136.167 456.809 136.511 457.021 136.803C457.233 137.096 457.519 137.326 457.849 137.471C458.039 137.582 458.236 137.678 458.439 137.76H458.548C458.665 137.811 458.786 137.856 458.909 137.893H459.102H459.222H459.331L459.728 137.965H459.969H460.125H460.932H461.39H461.558H461.908H462.052L462.45 137.856H462.666H462.763C463.035 137.757 463.3 137.64 463.557 137.507L463.762 137.362L464.039 137.145C464.13 137.063 464.214 136.974 464.292 136.88V136.808L464.364 136.699C464.41 136.628 464.447 136.551 464.473 136.47C464.478 136.422 464.478 136.374 464.473 136.326C464.478 136.249 464.478 136.173 464.473 136.097V133.855C464.53 133.906 464.583 133.962 464.629 134.023Z" fill="#232833"/>
<path id="Vector_33" d="M443.411 85.9054C445.578 87.1107 445.602 89.196 443.411 90.4616C442.19 91.0801 440.841 91.4024 439.473 91.4024C438.105 91.4024 436.756 91.0801 435.535 90.4616C433.367 89.2563 433.343 87.1589 435.535 85.8933C436.755 85.272 438.105 84.9491 439.474 84.9512C440.843 84.9533 442.192 85.2803 443.411 85.9054Z" fill="#394051"/>
<path id="Vector_34" d="M463.509 15.9701C465.099 16.8982 465.099 18.3808 463.509 19.2968C462.624 19.7487 461.643 19.9843 460.649 19.9843C459.655 19.9843 458.675 19.7487 457.789 19.2968C456.2 18.3808 456.188 16.8861 457.789 15.9821C458.674 15.5274 459.653 15.2892 460.648 15.2871C461.642 15.285 462.623 15.5191 463.509 15.9701Z" fill="#394051"/>
<path id="Vector_35" d="M463.509 131.938C465.099 132.855 465.099 134.349 463.509 135.265C462.624 135.717 461.643 135.953 460.649 135.953C459.655 135.953 458.675 135.717 457.789 135.265C456.2 134.349 456.188 132.855 457.789 131.938C458.676 131.488 459.655 131.254 460.649 131.254C461.643 131.254 462.623 131.488 463.509 131.938Z" fill="#394051"/>
<path id="Vector_36" d="M562.955 74.4058C564.545 75.3339 564.557 76.8165 562.955 77.7326C562.067 78.1846 561.085 78.4202 560.089 78.4202C559.093 78.4202 558.111 78.1846 557.223 77.7326C555.633 76.8165 555.633 75.3219 557.223 74.4179C558.108 73.9593 559.09 73.7189 560.087 73.7168C561.084 73.7147 562.068 73.9509 562.955 74.4058Z" fill="#394051"/>
<path id="Vector_37" d="M364.004 74.4058C365.593 75.3339 365.605 76.8165 364.004 77.7326C363.116 78.1846 362.134 78.4202 361.137 78.4202C360.141 78.4202 359.159 78.1846 358.271 77.7326C356.682 76.8165 356.682 75.3219 358.271 74.4179C359.157 73.9593 360.139 73.7189 361.136 73.7168C362.133 73.7147 363.116 73.9509 364.004 74.4058Z" fill="#394051"/>
<path id="Vector_38" d="M474.251 63.4494L441.448 82.5302L439.497 81.3972L472.3 62.3164L474.251 63.4494Z" fill="#232833"/>
<path id="Vector_39" d="M457.645 59.2561L424.841 78.3368L422.878 77.2038L455.682 58.123L457.645 59.2561Z" fill="#232833"/>
<path id="Vector_40" d="M501.804 92.2092L469.001 111.278L467.05 110.157L499.853 91.0762L501.804 92.2092Z" fill="#232833"/>
<path id="Vector_41" d="M483.584 72.7792L450.781 91.8599L448.818 90.739L481.621 71.6582L483.584 72.7792Z" fill="#232833"/>
<path id="Vector_42" d="M408.62 97.8633C409.596 98.4178 410.366 100.358 410.354 102.191C410.342 104.023 409.572 105.059 408.608 104.493C407.645 103.926 406.862 101.998 406.862 100.178C406.862 98.3575 407.657 97.3088 408.62 97.8633Z" fill="#232833"/>
<path id="Vector_43" d="M414.34 100.527C415.316 101.082 416.087 103.022 416.075 104.855C416.062 106.687 415.292 107.723 414.316 107.157C413.341 106.59 412.582 104.662 412.582 102.842C412.582 101.022 413.377 99.9729 414.34 100.527Z" fill="#232833"/>
<path id="Vector_44" d="M419.47 103.069C420.446 103.636 421.205 105.564 421.205 107.409C421.205 109.253 420.422 110.277 419.446 109.711C418.471 109.144 417.7 107.216 417.712 105.384C417.724 103.551 418.507 102.515 419.47 103.069Z" fill="#232833"/>
<path id="Vector_45" d="M431.73 110.013C432.705 110.579 433.476 112.508 433.464 114.352C433.452 116.196 432.681 117.209 431.705 116.654C430.73 116.1 429.959 114.159 429.971 112.327C429.983 110.495 430.766 109.458 431.73 110.013Z" fill="#232833"/>
<path id="Vector_46" d="M105.394 535.828C132.008 551.208 134.946 574.544 111.933 587.923C88.9205 601.302 48.651 599.687 22.0495 584.307C-4.55203 568.927 -7.5024 545.603 15.5346 532.211C38.5716 518.82 78.7689 520.447 105.394 535.828Z" fill="#F4F4F4"/>
<path id="Vector_47" d="M86.5843 287.38C92.9858 284.601 99.8255 282.969 106.791 282.559C108.128 282.559 109.898 282.125 110.476 282.125C111.105 282.211 111.72 282.377 112.307 282.619L89.1132 295.432L86.5843 287.38Z" fill="#FFCEA9"/>
<path id="Vector_48" d="M115.197 284.258L156.406 308.076L131.514 322.54L90.3175 298.734L115.197 284.258ZM139.029 305.677C137.21 304.744 135.196 304.258 133.152 304.258C131.108 304.258 129.094 304.744 127.275 305.677C124.036 307.557 124.06 310.607 127.275 312.487C129.094 313.414 131.105 313.898 133.146 313.898C135.187 313.898 137.198 313.414 139.017 312.487C142.256 310.607 142.232 307.545 139.017 305.677H139.029ZM119.424 301.145C122.651 299.252 122.639 296.215 119.424 294.323C117.603 293.395 115.59 292.912 113.547 292.912C111.505 292.912 109.491 293.395 107.67 294.323C104.431 296.215 104.455 299.252 107.67 301.145C109.489 302.072 111.5 302.555 113.541 302.555C115.582 302.555 117.593 302.072 119.412 301.145H119.424ZM131.851 321.154L133.369 320.262L116.293 310.39L114.775 311.282L131.851 321.154ZM109.802 308.401L111.331 307.509L94.2433 297.637L92.7259 298.529L109.802 308.401ZM149.722 309.884L148.434 309.124L133.212 317.984L134.513 318.731L149.722 309.884ZM112.114 288.187L96.8926 297.035L98.1932 297.794L113.415 288.935L112.114 288.187ZM111.488 310.366C111.976 310.615 112.517 310.746 113.065 310.746C113.614 310.746 114.155 310.615 114.643 310.366C114.834 310.299 115 310.175 115.117 310.009C115.235 309.844 115.298 309.646 115.298 309.444C115.298 309.241 115.235 309.043 115.117 308.878C115 308.713 114.834 308.588 114.643 308.522C114.15 308.281 113.608 308.156 113.059 308.156C112.511 308.156 111.969 308.281 111.476 308.522C111.285 308.588 111.119 308.713 111.001 308.878C110.884 309.043 110.821 309.241 110.821 309.444C110.821 309.646 110.884 309.844 111.001 310.009C111.119 310.175 111.285 310.299 111.476 310.366H111.488ZM131.743 294.805L129.07 296.372L131.767 297.927L134.441 296.372L131.743 294.805ZM127.95 292.623L125.24 294.106L127.938 295.66L130.659 294.106L127.962 292.551L127.95 292.623ZM135.548 296.926L132.875 298.481L135.561 300.036L138.246 298.481L135.548 296.926ZM150.71 305.689L148.024 307.244L150.722 308.799L153.395 307.244L150.71 305.689ZM124.217 290.357L121.543 291.912L124.229 293.467L126.902 291.912L124.217 290.357ZM129.034 301.639C129.197 301.585 129.338 301.48 129.439 301.341C129.539 301.201 129.593 301.034 129.593 300.862C129.593 300.69 129.539 300.522 129.439 300.382C129.338 300.243 129.197 300.139 129.034 300.084C128.618 299.871 128.158 299.759 127.691 299.759C127.224 299.759 126.764 299.871 126.348 300.084C126.185 300.139 126.043 300.243 125.943 300.382C125.843 300.522 125.789 300.69 125.789 300.862C125.789 301.034 125.843 301.201 125.943 301.341C126.043 301.48 126.185 301.585 126.348 301.639C126.764 301.853 127.224 301.964 127.691 301.964C128.158 301.964 128.618 301.853 129.034 301.639ZM122.747 303.748C123.163 303.962 123.623 304.073 124.09 304.073C124.557 304.073 125.018 303.962 125.433 303.748C125.596 303.694 125.738 303.59 125.838 303.45C125.938 303.311 125.992 303.143 125.992 302.971C125.992 302.799 125.938 302.631 125.838 302.492C125.738 302.352 125.596 302.248 125.433 302.194C125.02 301.98 124.561 301.869 124.096 301.869C123.631 301.869 123.173 301.98 122.76 302.194C122.597 302.248 122.455 302.352 122.354 302.492C122.254 302.631 122.2 302.799 122.2 302.971C122.2 303.143 122.254 303.311 122.354 303.45C122.455 303.59 122.597 303.694 122.76 303.748H122.747ZM116.606 285.994L113.932 287.548L116.63 289.103L119.303 287.548L116.606 285.994ZM146.916 303.519L144.243 305.086L146.928 306.629L149.602 305.074L146.916 303.519ZM120.423 288.199L117.75 289.754L120.435 291.309L123.109 289.742L120.423 288.199ZM143.123 301.338L140.45 302.893L143.135 304.448L145.821 302.893L143.123 301.338ZM139.342 299.144L136.656 300.699L139.354 302.254L142.027 300.699L139.342 299.144ZM121.724 305.918C121.887 305.864 122.029 305.759 122.129 305.62C122.229 305.48 122.283 305.313 122.283 305.141C122.283 304.969 122.229 304.801 122.129 304.662C122.029 304.522 121.887 304.418 121.724 304.363C121.309 304.155 120.851 304.047 120.387 304.047C119.923 304.047 119.465 304.155 119.05 304.363C118.888 304.418 118.746 304.522 118.645 304.662C118.545 304.801 118.491 304.969 118.491 305.141C118.491 305.313 118.545 305.48 118.645 305.62C118.746 305.759 118.888 305.864 119.05 305.918C119.468 306.126 119.927 306.234 120.393 306.234C120.859 306.234 121.319 306.126 121.736 305.918" fill="white"/>
<path id="Vector_49" d="M86.5964 297.445C86.637 297.884 86.7934 298.303 87.0494 298.661C87.3055 299.019 87.652 299.303 88.0535 299.482L128.504 322.854C128.744 322.991 128.994 323.112 129.25 323.216H129.371L130.057 323.433H130.202C130.467 323.497 130.732 323.545 130.996 323.577H131.117C131.394 323.577 131.671 323.577 131.948 323.577H132.08C132.357 323.577 132.634 323.577 132.911 323.577H133.056L133.658 323.481L134.152 323.348L134.621 323.216L134.802 323.143C135.044 323.051 135.277 322.938 135.5 322.806L157.176 310.186C157.384 310.071 157.578 309.934 157.755 309.776C157.903 309.643 158.036 309.493 158.152 309.33V309.246C158.25 309.105 158.327 308.95 158.381 308.788V308.727C158.432 308.563 158.46 308.393 158.465 308.221V310.21C158.47 310.302 158.47 310.395 158.465 310.487C158.47 310.547 158.47 310.608 158.465 310.668C158.465 310.668 158.465 310.668 158.465 310.728C158.426 310.827 158.382 310.924 158.333 311.018C158.304 311.065 158.272 311.109 158.236 311.15V311.235L158.176 311.307C158.089 311.431 157.988 311.544 157.875 311.644C157.713 311.792 157.535 311.921 157.345 312.03H157.285L135.609 324.65C135.389 324.778 135.16 324.887 134.922 324.976C134.86 325.005 134.796 325.029 134.73 325.048L134.525 325.132L134.272 325.193C134.107 325.245 133.938 325.286 133.766 325.313H133.598L133.164 325.373H133.02H132.478C132.402 325.379 132.325 325.379 132.249 325.373H131.972H131.478H131.177H130.996L130.503 325.289H130.382H130.238H129.985L129.551 325.144H129.431C129.181 325.052 128.94 324.939 128.708 324.807L88.0535 301.423C87.6488 301.243 87.2994 300.958 87.0412 300.598C86.783 300.238 86.6253 299.815 86.5843 299.374L86.5964 297.445Z" fill="#151515"/>
<path id="Vector_50" d="M148.024 307.27L150.722 308.825L153.395 307.27L150.71 305.715L148.024 307.27Z" fill="#232323"/>
<path id="Vector_51" d="M146.928 306.641L149.602 305.074L146.916 303.52L144.243 305.087L146.928 306.641Z" fill="#232323"/>
<path id="Vector_52" d="M143.147 304.436L145.809 302.881L143.135 301.338L140.45 302.881L143.147 304.436Z" fill="#232323"/>
<path id="Vector_53" d="M139.354 302.254L142.027 300.699L139.33 299.145L136.656 300.699L139.354 302.254Z" fill="#232323"/>
<path id="Vector_54" d="M133.212 317.972L134.513 318.732L149.722 309.872L148.422 309.125L133.212 317.972Z" fill="#232323"/>
<path id="Vector_55" d="M135.573 300.061L138.246 298.518L135.548 296.951L132.863 298.518L135.573 300.061Z" fill="#232323"/>
<path id="Vector_56" d="M131.779 297.879L134.453 296.324L131.755 294.77L129.082 296.324L131.779 297.879Z" fill="#232323"/>
<path id="Vector_57" d="M127.275 305.666C124.036 307.559 124.06 310.596 127.275 312.489C129.096 313.416 131.109 313.899 133.152 313.899C135.195 313.899 137.208 313.416 139.029 312.489C142.256 310.596 142.244 307.559 139.029 305.666C137.208 304.739 135.195 304.256 133.152 304.256C131.109 304.256 129.096 304.739 127.275 305.666Z" fill="#232323"/>
<path id="Vector_58" d="M129.034 301.665C129.197 301.611 129.338 301.506 129.439 301.367C129.539 301.227 129.593 301.06 129.593 300.888C129.593 300.716 129.539 300.548 129.439 300.408C129.338 300.269 129.197 300.165 129.034 300.11C128.62 299.897 128.162 299.785 127.697 299.785C127.232 299.785 126.773 299.897 126.36 300.11C125.614 300.544 125.614 301.243 126.36 301.665C126.774 301.877 127.232 301.987 127.697 301.987C128.162 301.987 128.62 301.877 129.034 301.665Z" fill="#232323"/>
<path id="Vector_59" d="M127.986 295.686L130.659 294.131L127.962 292.564L125.288 294.131L127.986 295.686Z" fill="#232323"/>
<path id="Vector_60" d="M125.433 303.749C125.596 303.695 125.738 303.59 125.838 303.451C125.938 303.311 125.992 303.144 125.992 302.972C125.992 302.8 125.938 302.632 125.838 302.493C125.738 302.353 125.596 302.249 125.433 302.194C125.017 301.981 124.557 301.869 124.09 301.869C123.623 301.869 123.163 301.981 122.747 302.194C122.013 302.616 122.013 303.315 122.747 303.749C123.165 303.957 123.624 304.065 124.09 304.065C124.556 304.065 125.016 303.957 125.433 303.749Z" fill="#232323"/>
<path id="Vector_61" d="M124.193 293.493L126.866 291.938L124.18 290.383L121.507 291.95L124.193 293.493Z" fill="#232323"/>
<path id="Vector_62" d="M121.712 304.364C121.299 304.15 120.84 304.039 120.375 304.039C119.91 304.039 119.452 304.15 119.038 304.364C118.875 304.418 118.734 304.523 118.633 304.662C118.533 304.802 118.479 304.969 118.479 305.141C118.479 305.313 118.533 305.481 118.633 305.621C118.734 305.76 118.875 305.864 119.038 305.919C119.455 306.127 119.915 306.235 120.381 306.235C120.847 306.235 121.307 306.127 121.724 305.919C121.886 305.863 122.027 305.758 122.127 305.617C122.226 305.477 122.279 305.309 122.277 305.137C122.276 304.965 122.221 304.798 122.119 304.659C122.018 304.52 121.875 304.417 121.712 304.364Z" fill="#232323"/>
<path id="Vector_63" d="M120.399 291.297L123.085 289.742L120.387 288.199L117.714 289.742L120.399 291.297Z" fill="#232323"/>
<path id="Vector_64" d="M116.317 310.391L114.799 311.283L131.876 321.154L133.393 320.262L116.317 310.391Z" fill="#232323"/>
<path id="Vector_65" d="M116.594 286.006L113.92 287.561L116.618 289.116L119.291 287.561L116.594 286.006Z" fill="#232323"/>
<path id="Vector_66" d="M111.488 310.318C111.978 310.567 112.521 310.698 113.071 310.698C113.622 310.698 114.164 310.567 114.655 310.318C114.848 310.254 115.016 310.132 115.135 309.967C115.254 309.803 115.318 309.605 115.318 309.402C115.318 309.198 115.254 309.001 115.135 308.836C115.016 308.672 114.848 308.549 114.655 308.485C114.164 308.236 113.622 308.105 113.071 308.105C112.521 308.105 111.978 308.236 111.488 308.485C110.609 308.98 110.609 309.775 111.488 310.318Z" fill="#232323"/>
<path id="Vector_67" d="M119.4 294.324C117.578 293.402 115.565 292.922 113.523 292.922C111.481 292.922 109.468 293.402 107.646 294.324C104.407 296.216 104.431 299.254 107.646 301.146C109.465 302.073 111.476 302.556 113.517 302.556C115.558 302.556 117.569 302.073 119.388 301.146C122.675 299.254 122.651 296.204 119.4 294.324Z" fill="#232323"/>
<path id="Vector_68" d="M98.1932 297.747L113.403 288.888L112.102 288.141L96.8926 296.988L98.1932 297.747Z" fill="#232323"/>
<path id="Vector_69" d="M111.319 307.511L94.2433 297.639L92.7259 298.531L109.802 308.39L111.319 307.511Z" fill="#232323"/>
<path id="Vector_70" d="M88.0535 299.483L128.492 322.854C129.577 323.407 130.778 323.695 131.996 323.695C133.214 323.695 134.415 323.407 135.5 322.854L157.176 310.246C159.103 309.113 159.103 307.305 157.176 306.172L116.726 282.8C115.641 282.254 114.443 281.969 113.228 281.969C112.013 281.969 110.815 282.254 109.73 282.8L88.0535 295.433C86.1027 296.517 86.1147 298.362 88.0535 299.483ZM90.3054 298.735L115.197 284.271L156.418 308.089L131.526 322.553L90.3054 298.735Z" fill="#232323"/>
<path id="Vector_71" d="M110.549 295.155L109.079 296.011L108.55 294.854L110.549 295.155Z" fill="#9A9A9A"/>
<path id="Vector_72" d="M138.138 306.195L137.608 307.352L136.139 306.497L138.138 306.195Z" fill="#9A9A9A"/>
<path id="Vector_73" d="M137.632 310.812L138.174 311.97L136.163 311.656L137.632 310.812Z" fill="#9A9A9A"/>
<path id="Vector_74" d="M134.248 308.449C134.363 308.502 134.461 308.587 134.529 308.694C134.598 308.801 134.634 308.925 134.634 309.052C134.634 309.179 134.598 309.303 134.529 309.41C134.461 309.517 134.363 309.602 134.248 309.655C133.912 309.824 133.54 309.913 133.164 309.913C132.788 309.913 132.416 309.824 132.08 309.655C131.49 309.305 131.478 308.751 132.08 308.449C132.416 308.28 132.788 308.191 133.164 308.191C133.54 308.191 133.912 308.28 134.248 308.449Z" fill="#9A9A9A"/>
<path id="Vector_75" d="M109.103 299.459L110.573 300.315L108.574 300.628L109.103 299.459Z" fill="#9A9A9A"/>
<path id="Vector_76" d="M118.509 294.842L117.979 296.011L116.51 295.155L118.509 294.842Z" fill="#9A9A9A"/>
<path id="Vector_77" d="M114.619 297.108C114.734 297.161 114.832 297.246 114.9 297.353C114.969 297.46 115.005 297.584 115.005 297.711C115.005 297.838 114.969 297.962 114.9 298.069C114.832 298.176 114.734 298.261 114.619 298.314C114.284 298.481 113.915 298.569 113.541 298.569C113.167 298.569 112.798 298.481 112.463 298.314C111.873 297.964 111.861 297.41 112.463 297.108C112.798 296.941 113.167 296.854 113.541 296.854C113.915 296.854 114.284 296.941 114.619 297.108Z" fill="#9A9A9A"/>
<path id="Vector_78" d="M128.733 310.812L130.202 311.656L128.215 311.97L128.733 310.812Z" fill="#9A9A9A"/>
<path id="Vector_79" d="M118.003 299.459L118.545 300.628L116.534 300.315L118.003 299.459Z" fill="#9A9A9A"/>
<path id="Vector_80" d="M125.421 302.207C125.584 302.261 125.726 302.366 125.826 302.505C125.926 302.645 125.98 302.812 125.98 302.984C125.98 303.156 125.926 303.324 125.826 303.464C125.726 303.603 125.584 303.707 125.421 303.762C125.005 303.975 124.545 304.087 124.078 304.087C123.611 304.087 123.151 303.975 122.735 303.762C122.572 303.707 122.431 303.603 122.33 303.464C122.23 303.324 122.176 303.156 122.176 302.984C122.176 302.812 122.23 302.645 122.33 302.505C122.431 302.366 122.572 302.261 122.735 302.207C123.15 301.991 123.611 301.879 124.078 301.879C124.546 301.879 125.006 301.991 125.421 302.207Z" fill="#232323"/>
<path id="Vector_81" d="M130.659 294.131L127.986 295.686L125.288 294.131L127.962 292.576L130.659 294.131Z" fill="#232323"/>
<path id="Vector_82" d="M123.073 289.742L120.399 291.309L117.714 289.754L120.387 288.188L123.073 289.742Z" fill="#232323"/>
<path id="Vector_83" d="M149.602 305.074L146.928 306.629L144.243 305.074L146.916 303.52L149.602 305.074Z" fill="#232323"/>
<path id="Vector_84" d="M138.246 298.506L135.56 300.061L132.875 298.506L135.548 296.951L138.246 298.506Z" fill="#232323"/>
<path id="Vector_85" d="M142.027 300.699L139.354 302.254L136.656 300.699L139.342 299.145L142.027 300.699Z" fill="#232323"/>
<path id="Vector_86" d="M145.821 302.893L143.135 304.448L140.45 302.893L143.123 301.338L145.821 302.893Z" fill="#232323"/>
<path id="Vector_87" d="M126.866 291.938L124.193 293.493L121.507 291.938L124.18 290.383L126.866 291.938Z" fill="#232323"/>
<path id="Vector_88" d="M119.4 294.324C122.651 296.216 122.663 299.253 119.4 301.146C117.581 302.073 115.57 302.556 113.529 302.556C111.488 302.556 109.477 302.073 107.658 301.146C104.395 299.253 104.371 296.216 107.658 294.324C109.477 293.398 111.489 292.916 113.529 292.916C115.569 292.916 117.581 293.398 119.4 294.324ZM112.463 298.361C112.798 298.529 113.167 298.616 113.541 298.616C113.915 298.616 114.284 298.529 114.619 298.361C114.734 298.309 114.832 298.224 114.9 298.117C114.969 298.01 115.005 297.886 115.005 297.759C115.005 297.632 114.969 297.508 114.9 297.401C114.832 297.294 114.734 297.209 114.619 297.156C114.284 296.989 113.915 296.901 113.541 296.901C113.167 296.901 112.798 296.989 112.463 297.156C111.861 297.506 111.873 298.06 112.463 298.361ZM118.484 294.842L116.485 295.155L117.955 296.011L118.484 294.806V294.842ZM116.51 300.278L118.521 300.591L117.979 299.386L116.51 300.242V300.278ZM108.55 300.555L110.549 300.242L109.079 299.386L108.55 300.591V300.555ZM109.055 295.975L110.524 295.119L108.525 294.818L109.055 296.023" fill="#232323"/>
<path id="Vector_89" d="M129.034 300.134C129.197 300.188 129.338 300.292 129.439 300.432C129.539 300.572 129.593 300.739 129.593 300.911C129.593 301.083 129.539 301.251 129.439 301.39C129.338 301.53 129.197 301.634 129.034 301.689C128.618 301.902 128.158 302.014 127.691 302.014C127.224 302.014 126.764 301.902 126.348 301.689C126.185 301.634 126.043 301.53 125.943 301.39C125.843 301.251 125.789 301.083 125.789 300.911C125.789 300.739 125.843 300.572 125.943 300.432C126.043 300.292 126.185 300.188 126.348 300.134C126.764 299.92 127.224 299.809 127.691 299.809C128.158 299.809 128.618 299.92 129.034 300.134Z" fill="#232323"/>
<path id="Vector_90" d="M139.029 305.678C142.28 307.546 142.304 310.608 139.029 312.488C137.21 313.415 135.199 313.899 133.158 313.899C131.117 313.899 129.106 313.415 127.287 312.488C124.024 310.608 124 307.558 127.287 305.678C129.105 304.747 131.117 304.262 133.158 304.262C135.199 304.262 137.212 304.747 139.029 305.678ZM132.092 309.704C132.428 309.874 132.8 309.962 133.176 309.962C133.553 309.962 133.924 309.874 134.26 309.704C134.375 309.651 134.473 309.566 134.541 309.459C134.61 309.353 134.646 309.228 134.646 309.101C134.646 308.974 134.61 308.85 134.541 308.743C134.473 308.636 134.375 308.552 134.26 308.499C133.925 308.331 133.556 308.244 133.182 308.244C132.808 308.244 132.439 308.331 132.104 308.499C131.502 308.848 131.514 309.403 132.104 309.704H132.092ZM128.708 307.366L130.178 306.51L128.167 306.196L128.708 307.402V307.366ZM138.138 306.196L136.139 306.51L137.608 307.366L138.138 306.16V306.196ZM136.163 311.633L138.174 311.946L137.632 310.741L136.163 311.584V311.633ZM128.203 311.898L130.202 311.584L128.732 310.741L128.203 311.946" fill="#232323"/>
<path id="Vector_91" d="M149.722 309.884L134.513 318.732L133.212 317.984L148.422 309.125L149.722 309.884Z" fill="#232323"/>
<path id="Vector_92" d="M133.393 320.262L131.876 321.154L114.799 311.283L116.317 310.391L133.393 320.262Z" fill="#232323"/>
<path id="Vector_93" d="M114.643 308.474C114.834 308.541 115 308.666 115.117 308.831C115.235 308.996 115.298 309.194 115.298 309.396C115.298 309.599 115.235 309.797 115.117 309.962C115 310.127 114.834 310.252 114.643 310.319C114.155 310.568 113.614 310.698 113.065 310.698C112.517 310.698 111.976 310.568 111.488 310.319C111.297 310.252 111.131 310.127 111.013 309.962C110.896 309.797 110.833 309.599 110.833 309.396C110.833 309.194 110.896 308.996 111.013 308.831C111.131 308.666 111.297 308.541 111.488 308.474C111.98 308.235 112.519 308.111 113.065 308.111C113.612 308.111 114.151 308.235 114.643 308.474Z" fill="#232323"/>
<path id="Vector_94" d="M122.264 305.138C122.265 304.533 121.42 304.039 120.376 304.036C119.332 304.033 118.484 304.522 118.482 305.128C118.481 305.734 119.326 306.227 120.37 306.23C121.414 306.233 122.262 305.744 122.264 305.138Z" fill="#232323"/>
<path id="Vector_95" d="M134.453 296.325L131.779 297.88L129.082 296.325L131.755 294.758L134.453 296.325Z" fill="#232323"/>
<path id="Vector_96" d="M153.395 307.27L150.722 308.825L148.024 307.27L150.698 305.715L153.395 307.27Z" fill="#232323"/>
<path id="Vector_97" d="M119.291 287.561L116.606 289.116L113.92 287.561L116.606 286.006L119.291 287.561Z" fill="#232323"/>
<path id="Vector_98" d="M113.403 288.888L98.1932 297.747L96.8926 296.988L112.114 288.141L113.403 288.888Z" fill="#232323"/>
<path id="Vector_99" d="M111.331 307.511L109.802 308.402L92.7259 298.531L94.2433 297.639L111.331 307.511Z" fill="#232323"/>
<path id="Vector_100" d="M130.178 306.497L128.72 307.352L128.167 306.195L130.178 306.497Z" fill="#9A9A9A"/>
<path id="Vector_101" opacity="0.1" d="M115.197 284.258L156.406 308.076L131.514 322.54L90.3175 298.734L115.197 284.258ZM139.029 305.677C137.21 304.744 135.196 304.258 133.152 304.258C131.108 304.258 129.094 304.744 127.275 305.677C124.036 307.557 124.06 310.607 127.275 312.487C129.094 313.414 131.105 313.898 133.146 313.898C135.187 313.898 137.198 313.414 139.017 312.487C142.256 310.607 142.232 307.545 139.017 305.677H139.029ZM119.424 301.145C122.651 299.252 122.639 296.215 119.424 294.323C117.603 293.395 115.59 292.912 113.547 292.912C111.505 292.912 109.491 293.395 107.67 294.323C104.431 296.215 104.455 299.252 107.67 301.145C109.489 302.072 111.5 302.555 113.541 302.555C115.582 302.555 117.593 302.072 119.412 301.145H119.424ZM131.851 321.154L133.369 320.262L116.293 310.39L114.775 311.282L131.851 321.154ZM109.802 308.401L111.331 307.509L94.2433 297.637L92.7259 298.529L109.802 308.401ZM149.722 309.884L148.434 309.124L133.212 317.984L134.513 318.731L149.722 309.884ZM112.114 288.187L96.8926 297.035L98.1932 297.794L113.415 288.935L112.114 288.187ZM111.488 310.366C111.976 310.615 112.517 310.746 113.065 310.746C113.614 310.746 114.155 310.615 114.643 310.366C114.834 310.299 115 310.175 115.117 310.009C115.235 309.844 115.298 309.646 115.298 309.444C115.298 309.241 115.235 309.043 115.117 308.878C115 308.713 114.834 308.588 114.643 308.522C114.15 308.281 113.608 308.156 113.059 308.156C112.511 308.156 111.969 308.281 111.476 308.522C111.285 308.588 111.119 308.713 111.001 308.878C110.884 309.043 110.821 309.241 110.821 309.444C110.821 309.646 110.884 309.844 111.001 310.009C111.119 310.175 111.285 310.299 111.476 310.366H111.488ZM131.743 294.805L129.07 296.372L131.767 297.927L134.441 296.372L131.743 294.805ZM127.95 292.623L125.24 294.106L127.938 295.66L130.659 294.106L127.962 292.551L127.95 292.623ZM135.548 296.926L132.875 298.481L135.561 300.036L138.246 298.481L135.548 296.926ZM150.71 305.689L148.024 307.244L150.722 308.799L153.395 307.244L150.71 305.689ZM124.217 290.357L121.543 291.912L124.229 293.467L126.902 291.912L124.217 290.357ZM129.034 301.639C129.197 301.585 129.338 301.48 129.439 301.341C129.539 301.201 129.593 301.034 129.593 300.862C129.593 300.69 129.539 300.522 129.439 300.382C129.338 300.243 129.197 300.139 129.034 300.084C128.618 299.871 128.158 299.759 127.691 299.759C127.224 299.759 126.764 299.871 126.348 300.084C126.185 300.139 126.043 300.243 125.943 300.382C125.843 300.522 125.789 300.69 125.789 300.862C125.789 301.034 125.843 301.201 125.943 301.341C126.043 301.48 126.185 301.585 126.348 301.639C126.764 301.853 127.224 301.964 127.691 301.964C128.158 301.964 128.618 301.853 129.034 301.639ZM122.747 303.748C123.163 303.962 123.623 304.073 124.09 304.073C124.557 304.073 125.018 303.962 125.433 303.748C125.596 303.694 125.738 303.59 125.838 303.45C125.938 303.311 125.992 303.143 125.992 302.971C125.992 302.799 125.938 302.631 125.838 302.492C125.738 302.352 125.596 302.248 125.433 302.194C125.02 301.98 124.561 301.869 124.096 301.869C123.631 301.869 123.173 301.98 122.76 302.194C122.597 302.248 122.455 302.352 122.354 302.492C122.254 302.631 122.2 302.799 122.2 302.971C122.2 303.143 122.254 303.311 122.354 303.45C122.455 303.59 122.597 303.694 122.76 303.748H122.747ZM116.606 285.994L113.932 287.548L116.63 289.103L119.303 287.548L116.606 285.994ZM146.916 303.519L144.243 305.086L146.928 306.629L149.602 305.074L146.916 303.519ZM120.423 288.199L117.75 289.754L120.435 291.309L123.109 289.742L120.423 288.199ZM143.123 301.338L140.45 302.893L143.135 304.448L145.821 302.893L143.123 301.338ZM139.342 299.144L136.656 300.699L139.354 302.254L142.027 300.699L139.342 299.144ZM121.724 305.918C121.887 305.864 122.029 305.759 122.129 305.62C122.229 305.48 122.283 305.313 122.283 305.141C122.283 304.969 122.229 304.801 122.129 304.662C122.029 304.522 121.887 304.418 121.724 304.363C121.309 304.155 120.851 304.047 120.387 304.047C119.923 304.047 119.465 304.155 119.05 304.363C118.888 304.418 118.746 304.522 118.645 304.662C118.545 304.801 118.491 304.969 118.491 305.141C118.491 305.313 118.545 305.48 118.645 305.62C118.746 305.759 118.888 305.864 119.05 305.918C119.468 306.126 119.927 306.234 120.393 306.234C120.859 306.234 121.319 306.126 121.736 305.918" fill="#3A79B6"/>
<path id="Vector_102" d="M90.6907 292.563C91.5056 293.473 92.6311 294.045 93.8458 294.166C95.592 294.166 99.867 292.961 100.891 292.961C101.914 292.961 106.43 296.348 107.959 296.348C109.489 296.348 113.017 294.937 113.017 294.395C113.017 293.853 110.874 291.406 102.962 288.971L96.3386 286.717" fill="#FFCEA9"/>
<path id="Vector_103" d="M54.7324 564.372C60.3801 565.935 66.4161 565.208 71.5314 562.347C75.5777 562.467 97.5429 553.053 100.529 560.948C103.155 567.879 93.6412 574.28 88.5593 575.521C77.4563 578.209 69.2916 583.742 64.7877 584.682C61.4761 585.381 57.177 585.887 54.5277 583.235C51.3605 580.101 51.6255 568.506 54.7324 564.372Z" fill="#38226D"/>
<path id="Vector_104" d="M64.7877 582.764C69.2434 581.824 77.4562 576.292 88.5593 573.592C92.8102 572.567 100.156 567.902 100.891 562.346C101.878 568.71 93.2919 574.399 88.5593 575.52C77.4562 578.208 69.2915 583.741 64.7877 584.681C61.4761 585.38 57.1769 585.886 54.5276 583.235C53.8434 582.475 53.3446 581.568 53.0705 580.583C56.9241 583.789 61.4761 583.464 64.7877 582.764Z" fill="#9C73FF"/>
<path id="Vector_105" d="M19.1112 548.364C24.7792 549.939 30.8398 549.207 35.9704 546.327C40.0167 546.447 61.9819 537.033 64.9684 544.941C67.5816 551.859 58.0681 558.272 52.9862 559.501C41.8953 562.189 33.7185 567.734 29.2267 568.674C25.903 569.373 21.6039 569.879 18.9667 567.216C15.7273 564.106 16.0043 552.486 19.1112 548.364Z" fill="#38226D"/>
<path id="Vector_106" d="M29.1665 566.757C33.6222 565.817 41.8351 560.272 52.926 557.584C57.189 556.548 64.5228 551.883 65.2694 546.326C66.2569 552.702 57.6707 558.38 52.926 559.501C41.8351 562.189 33.6583 567.733 29.1665 568.673C25.8428 569.373 21.5437 569.879 18.9065 567.215C18.2197 566.458 17.7206 565.549 17.4493 564.563C21.3029 567.721 25.8428 567.456 29.1665 566.757Z" fill="#9C73FF"/>
<path id="Vector_107" d="M18.6656 488.627C19.6152 480.453 21.3123 472.384 23.7354 464.52C23.7354 464.52 22.2301 443.74 21.4715 424.032C20.6164 401.673 12.8612 381.99 18.9787 364.15L87.909 379.519C87.909 379.519 83.7423 468.655 82.8271 479.455C82.3095 487.851 81.2759 496.208 79.7322 504.478C76.5651 521.787 71.4592 562.901 71.4592 562.901C64.1736 567.132 54.5999 564.794 54.5999 564.794C54.5999 564.794 55.1298 512.734 55.5994 500.271C56.1774 485.035 56.6351 486.205 56.6351 486.205L54.3591 448.393L52.8658 429.469C52.8658 429.469 50.9631 443.306 49.7228 455.625C48.639 466.413 46.0258 476.116 43.1236 496.233C40.6067 513.651 36.5244 548.642 36.5244 548.642C29.2267 552.885 19.3279 549.365 19.3279 549.365C19.3279 549.365 16.7027 503.73 18.6656 488.627Z" fill="#8C50FF"/>
<path id="Vector_108" d="M28.733 258.114C33.9834 258.367 37.8972 259.717 38.5475 258.174C39.0653 256.969 39.7517 249.966 39.7517 249.954C39.1376 248.435 38.6197 246.796 38.6197 246.796C33.2578 241.613 29.8826 234.711 29.0822 227.293C27.601 213.106 35.2599 200.679 49.4458 199.196C62.7767 197.81 72.5791 207.188 75.2043 220.061C76.6012 226.425 79.4192 238.431 75.6258 248.893C73.5064 254.739 70.8089 259.38 68.0392 260.284C65.3985 260.205 62.7648 259.971 60.1514 259.585C60.1514 259.585 59.4409 263.526 58.9472 266.045C58.4535 268.565 58.6582 269.927 63.6919 273.024C68.7256 276.122 56.0811 282.511 47.8201 281.884C39.559 281.257 30.2624 276.267 27.7094 270.915C24.8915 264.961 25.1323 257.945 28.733 258.114Z" fill="#FFCEA9"/>
<path id="Vector_109" d="M36.3317 258.885C34.8746 262.501 38.5715 266.961 48.374 270.059C58.1765 273.156 59.1158 269.167 59.1158 269.167C59.1158 269.167 73.5666 275.76 78.2751 279.051C84.1999 283.185 86.8131 295.166 87.62 315.392C88.5352 338.8 88.6195 373.526 87.8367 379.517C87.8367 379.517 76.7819 390.546 62.6321 389.389C48.4824 388.232 24.6747 375.684 18.8944 366.005C19.0509 345.514 21.4474 342.151 18.1357 330.326C10.5972 303.254 6.58712 292.177 10.2841 274.193C13.3308 259.367 17.5938 257.523 23.4464 257.668C27.76 257.845 32.0612 258.251 36.3317 258.885Z" fill="#F4F4F4"/>
<path id="Vector_110" d="M74.7467 218.168C74.7467 218.168 87.0058 199.521 60.4525 195.724C41.3052 192.988 28.9979 205.295 27.5769 218.626C26.2161 231.427 34.0798 244.686 39.7397 249.953C42.4974 250.942 48.4583 251.508 56.2858 247.952C56.596 244.478 56.7166 240.989 56.6471 237.502C56.6471 237.502 47.3263 217.843 74.7467 218.168Z" fill="#3A2C6D"/>
<path id="Vector_111" d="M111.994 336.861C100.385 339.79 97.6633 332.462 96.1339 326.399C92.4369 311.718 90.4499 298.447 87.7043 290.118C84.4649 280.282 81.0569 278.715 76.2882 276.799C70.6885 274.557 65.8595 279.294 67.7261 291.805C69.9298 306.607 72.832 316.997 78.3594 334.511C79.8045 339.091 83.0439 347.215 87.897 351.145C93.9181 355.966 102.902 355.785 116.546 352.35C122.374 350.892 128.757 347.42 139.763 342.273C142.714 340.899 145.014 339.983 150.686 337.331C156.358 334.68 158.164 310.103 156.43 312.598L144.315 319.553C144.315 318.793 145.929 317.274 146.868 314.08C147.808 310.886 146.868 307.475 145.098 307.101C143.328 306.728 143.665 306.836 142.244 309.837C140.823 312.839 138.631 315.057 136.969 319.48C135.5 323.337 134.838 324.904 132.153 327.701C129.335 330.726 123.012 334.077 111.994 336.861Z" fill="#FFCEA9"/>
<path id="Vector_112" d="M71.977 274.821C79.7323 273.676 85.2236 277.16 88.6315 288.924C92.0395 300.688 94.448 310.319 94.448 310.319C94.448 310.319 90.739 316.707 81.4543 318.961C72.1697 321.215 68.846 316.768 68.846 316.768C68.846 316.768 66.2328 304.425 64.6793 296.035C63.1259 287.646 62.3913 276.207 71.977 274.821Z" fill="#EDEDED"/>
<g id="Group_5" opacity="0.4">
<path id="Vector_113" opacity="0.4" d="M460.655 0C479.381 0 494.554 8.77498 494.554 19.587H460.655V0Z" fill="#DADCE0"/>
<path id="Vector_114" opacity="0.4" d="M460.655 39.1749C441.941 39.1749 426.768 30.412 426.768 19.5879H460.655V39.1749Z" fill="#DADCE0"/>
<path id="Vector_115" opacity="0.4" d="M460.655 115.967C479.381 115.967 494.554 124.73 494.554 135.554H460.655V115.967Z" fill="#DADCE0"/>
<path id="Vector_116" opacity="0.4" d="M460.655 155.142C441.941 155.142 426.768 146.367 426.768 135.555H460.655V155.142Z" fill="#DADCE0"/>
<path id="Vector_117" opacity="0.4" d="M560.113 58.4355C578.827 58.4355 594 67.2105 594 78.0226H560.113V58.4355Z" fill="#DADCE0"/>
<path id="Vector_118" opacity="0.4" d="M560.113 97.6346C541.387 97.6346 526.25 88.8475 526.25 78.0234H560.149L560.113 97.6346Z" fill="#DADCE0"/>
<path id="Vector_119" opacity="0.4" d="M361.161 58.4355C379.875 58.4355 395.049 67.2105 395.049 78.0226H361.161V58.4355Z" fill="#DADCE0"/>
<path id="Vector_120" opacity="0.4" d="M361.161 97.6339C342.436 97.6339 327.262 88.871 327.262 78.0469H361.161V97.6339Z" fill="#DADCE0"/>
</g>
<g id="Group_6" opacity="0.3">
<path id="Vector_121" opacity="0.3" d="M494.554 19.5879C494.554 30.4361 479.381 39.1749 460.655 39.1749V19.5879H494.554Z" fill="#DADCE0"/>
<path id="Vector_122" opacity="0.3" d="M426.768 19.587C426.768 8.77498 441.953 0 460.655 0V19.587H426.768Z" fill="#DADCE0"/>
<path id="Vector_123" opacity="0.3" d="M494.554 135.555C494.554 146.403 479.381 155.142 460.655 155.142V135.555H494.554Z" fill="#DADCE0"/>
<path id="Vector_124" opacity="0.3" d="M426.768 135.554C426.768 124.706 441.941 115.967 460.655 115.967V135.554H426.768Z" fill="#DADCE0"/>
<path id="Vector_125" opacity="0.3" d="M594 78.0234C594 88.8716 578.827 97.6105 560.113 97.6105V78.0234H594Z" fill="#DADCE0"/>
<path id="Vector_126" opacity="0.3" d="M526.25 78.0226C526.25 67.1744 541.423 58.4355 560.149 58.4355V78.0226H526.25Z" fill="#DADCE0"/>
<path id="Vector_127" opacity="0.3" d="M395.049 78.0234C395.049 88.8716 379.875 97.6105 361.161 97.6105V78.0234H395.049Z" fill="#DADCE0"/>
<path id="Vector_128" opacity="0.3" d="M327.262 78.0226C327.262 67.1744 342.436 58.4355 361.161 58.4355V78.0226H327.262Z" fill="#DADCE0"/>
</g>
</g>
</g>
</g>
</svg>
