<svg width="721" height="456" viewBox="0 0 721 456" fill="none" xmlns="http://www.w3.org/2000/svg">
<g id="Asset 121">
<g id="Layer 2">
<g id="Layer 1">
<path id="Vector" d="M682.956 291.405C657.475 357.407 609.568 415.231 543.026 440.643C534.372 443.943 525.535 446.743 516.559 449.028C469.084 461.137 417.147 456.925 373.384 434.861C354.81 425.489 337.873 413.105 319.232 403.868C300.591 394.631 279.303 388.585 259.014 393.161C241.544 397.087 226.805 408.338 211.965 418.361C176.982 441.99 134.917 460.689 93.4918 452.573C74.4302 448.843 55.6601 438.512 46.8077 421.243C27.2415 383.066 64.1425 337.676 56.6692 295.454C51.8814 268.415 30.0334 248.179 16.4548 224.343C-6.7779 183.552 -4.02518 129.367 23.2161 91.1392C50.4574 52.9111 100.769 32.6361 146.887 41.307C203.124 51.8847 245.643 99.496 300.327 116.344C334.526 126.871 371.657 123.731 404.319 109.866C457.092 87.46 529.594 53.0962 588.982 58.6936C620.562 61.6717 651.537 75.6932 672.382 99.6362C698.732 129.861 706.631 172.772 702.236 212.627C699.219 239.606 692.739 266.083 682.956 291.405Z" fill="url(#paint0_linear)"/>
<path id="Vector_2" d="M699.908 343.609C698.737 343.607 697.57 343.466 696.432 343.188C692.834 342.304 689.71 340.078 687.696 336.967C685.683 333.855 684.932 330.092 685.598 326.445C686.264 322.799 688.296 319.545 691.279 317.346C694.263 315.148 697.972 314.172 701.651 314.617C705.329 315.062 708.699 316.895 711.072 319.742C713.445 322.588 714.643 326.234 714.421 329.934C714.198 333.634 712.573 337.109 709.876 339.651C707.179 342.192 703.614 343.608 699.908 343.609ZM699.908 321.074C697.981 321.081 696.123 321.793 694.684 323.076C693.245 324.359 692.324 326.124 692.095 328.038C691.866 329.953 692.345 331.885 693.441 333.471C694.538 335.057 696.176 336.187 698.047 336.649C699.131 336.909 700.257 336.937 701.352 336.731C702.447 336.525 703.486 336.089 704.401 335.453C705.315 334.816 706.085 333.993 706.659 333.037C707.233 332.081 707.598 331.015 707.73 329.908C707.862 328.801 707.759 327.679 707.426 326.615C707.094 325.551 706.54 324.569 705.801 323.735C705.062 322.9 704.155 322.232 703.14 321.773C702.124 321.314 701.023 321.076 699.908 321.074Z" fill="#E7F6FF"/>
<path id="Vector_3" d="M686.639 359.04C687.466 355.629 685.372 352.194 681.963 351.367C678.553 350.54 675.119 352.634 674.293 356.045C673.466 359.456 675.56 362.891 678.969 363.718C682.378 364.545 685.812 362.451 686.639 359.04Z" fill="#E7F6FF"/>
<path id="Vector_4" d="M30.9412 342.225C27.0905 342.141 23.4284 340.541 20.7498 337.772C18.0713 335.003 16.5926 331.289 16.6347 327.436C16.6767 323.583 18.2362 319.902 20.9746 317.192C23.7129 314.483 27.4091 312.963 31.2608 312.963C35.1124 312.963 38.8086 314.483 41.547 317.192C44.2853 319.902 45.8448 323.583 45.8869 327.436C45.929 331.289 44.4502 335.003 41.7717 337.772C39.0932 340.541 35.4311 342.141 31.5803 342.225H30.9412ZM30.9412 319.695H30.6104C28.5307 319.74 26.5527 320.604 25.1058 322.099C23.6589 323.595 22.86 325.601 22.8825 327.681C22.9051 329.762 23.7472 331.75 25.2261 333.214C26.7049 334.678 28.7012 335.498 30.7814 335.498C32.8617 335.498 34.8579 334.678 36.3368 333.214C37.8157 331.75 38.6578 329.762 38.6803 327.681C38.7028 325.601 37.9039 323.595 36.4571 322.099C35.0102 320.604 33.0322 319.74 30.9524 319.695H30.9412Z" fill="#E7F6FF"/>
<path id="Vector_5" d="M20.5137 366.783C24.0186 366.631 26.7373 363.667 26.5861 360.16C26.4349 356.654 23.4711 353.934 19.9662 354.086C16.4614 354.237 13.7427 357.202 13.8939 360.708C14.0451 364.214 17.0089 366.934 20.5137 366.783Z" fill="#E7F6FF"/>
<path id="Vector_6" d="M397.536 105.654C394.045 105.659 390.668 104.414 388.016 102.144C385.364 99.8738 383.612 96.729 383.077 93.2786C382.542 89.8282 383.259 86.3002 385.099 83.333C386.939 80.3659 389.78 78.1557 393.108 77.1026C396.436 76.0494 400.03 76.2228 403.241 77.5915C406.452 78.9601 409.067 81.4335 410.613 84.564C412.159 87.6944 412.534 91.2752 411.669 94.6581C410.805 98.0409 408.758 101.002 405.9 103.007C403.449 104.725 400.529 105.649 397.536 105.654ZM397.491 83.1241C395.448 83.122 393.484 83.9084 392.007 85.3195C390.53 86.7306 389.655 88.6574 389.563 90.6984C389.471 92.7394 390.171 94.7371 391.515 96.2751C392.859 97.813 394.745 98.7727 396.779 98.9539C398.813 99.1352 400.839 98.5241 402.434 97.248C404.029 95.9719 405.07 94.1293 405.34 92.1042C405.61 90.0791 405.089 88.0278 403.885 86.3778C402.68 84.7279 400.886 83.6065 398.875 83.2475C398.418 83.166 397.955 83.1247 397.491 83.1241Z" fill="#E7F6FF"/>
<path id="Vector_7" d="M367.714 104.851C370.587 102.836 371.282 98.8731 369.268 95.9997C367.254 93.1262 363.293 92.4303 360.42 94.4453C357.548 96.4603 356.853 100.423 358.867 103.297C360.881 106.17 364.842 106.866 367.714 104.851Z" fill="#E7F6FF"/>
<path id="Vector_8" d="M720.977 181.027C720.977 174.86 718.528 168.946 714.169 164.585C709.81 160.224 703.898 157.774 697.733 157.774C697.217 157.774 696.707 157.774 696.203 157.825C696.236 157.32 696.253 156.81 696.253 156.294C696.253 152.989 695.548 149.722 694.186 146.711C692.824 143.7 690.835 141.014 688.354 138.832C685.873 136.65 682.955 135.023 679.795 134.058C676.636 133.093 673.307 132.813 670.03 133.237C666.754 133.66 663.605 134.778 660.795 136.514C657.984 138.251 655.576 140.567 653.73 143.308C651.885 146.05 650.644 149.153 650.092 152.411C649.54 155.67 649.688 159.008 650.528 162.205C647.718 160.167 644.489 158.784 641.075 158.158C637.662 157.531 634.152 157.677 630.803 158.585C627.453 159.493 624.349 161.14 621.719 163.405C619.089 165.669 616.999 168.494 615.603 171.672C614.206 174.85 613.539 178.301 613.65 181.771C613.76 185.241 614.646 188.642 616.242 191.724C617.838 194.807 620.104 197.493 622.873 199.585C625.643 201.677 628.845 203.123 632.245 203.815C633.634 207.499 635.934 210.769 638.932 213.321C641.929 215.872 645.524 217.62 649.381 218.401C653.238 219.183 657.23 218.972 660.983 217.788C664.737 216.604 668.128 214.486 670.839 211.633C673.614 213.729 676.823 215.174 680.23 215.865C683.637 216.555 687.156 216.472 690.526 215.621C693.897 214.771 697.034 213.175 699.707 210.952C702.379 208.728 704.519 205.933 705.969 202.772C710.38 201.099 714.179 198.123 716.86 194.239C719.54 190.355 720.976 185.747 720.977 181.027Z" fill="white"/>
<path id="Vector_9" d="M107.334 125.111C107.334 118.945 104.885 113.032 100.528 108.671C96.1697 104.31 90.259 101.86 84.0953 101.858C83.5795 101.858 83.0693 101.858 82.5647 101.909C82.5984 101.404 82.6152 100.894 82.6152 100.378C82.6145 97.0726 81.9097 93.8058 80.5476 90.7949C79.1856 87.7839 77.1975 85.098 74.7161 82.9162C72.2347 80.7344 69.3169 79.1068 66.1572 78.1419C62.9976 77.1771 59.6686 76.8971 56.3922 77.3207C53.1158 77.7443 49.9673 78.8616 47.1566 80.5984C44.3459 82.3351 41.9376 84.6512 40.0921 87.3924C38.2467 90.1336 37.0065 93.2369 36.4543 96.4953C35.9021 99.7537 36.0505 103.092 36.8897 106.289C34.0806 104.251 30.8512 102.869 27.4383 102.243C24.0254 101.617 20.5158 101.763 17.1668 102.671C13.8178 103.579 10.7144 105.225 8.08441 107.489C5.45439 109.753 3.36444 112.578 1.96787 115.755C0.571311 118.933 -0.0964251 122.383 0.0136548 125.852C0.123735 129.322 1.00884 132.723 2.60403 135.805C4.19922 138.888 6.46402 141.574 9.23227 143.667C12.0005 145.759 15.202 147.206 18.6018 147.899C19.9911 151.581 22.2915 154.849 25.2878 157.399C28.284 159.948 31.878 161.695 35.7332 162.477C39.5884 163.258 43.5787 163.047 47.3305 161.865C51.0824 160.683 54.4729 158.568 57.1848 155.717C59.9593 157.813 63.1682 159.258 66.5753 159.949C69.9823 160.639 73.5007 160.556 76.8714 159.705C80.2421 158.855 83.3793 157.259 86.0518 155.035C88.7244 152.812 90.8644 150.017 92.3142 146.856C96.7278 145.185 100.529 142.209 103.211 138.325C105.894 134.441 107.332 129.832 107.334 125.111Z" fill="white"/>
<path id="Vector_10" d="M534.948 455.977H200.528V448.686H534.948C535.914 448.686 536.841 449.07 537.524 449.753C538.208 450.437 538.592 451.364 538.592 452.331C538.592 453.298 538.208 454.225 537.524 454.909C536.841 455.593 535.914 455.977 534.948 455.977Z" fill="#426572"/>
<path id="Vector_11" d="M185.57 455.977H165.124C164.158 455.977 163.231 455.593 162.547 454.909C161.864 454.225 161.48 453.298 161.48 452.331C161.48 451.364 161.864 450.437 162.547 449.753C163.231 449.07 164.158 448.686 165.124 448.686H185.57C186.537 448.686 187.464 449.07 188.147 449.753C188.831 450.437 189.215 451.364 189.215 452.331C189.215 453.298 188.831 454.225 188.147 454.909C187.464 455.593 186.537 455.977 185.57 455.977Z" fill="#426572"/>
<path id="Vector_12" d="M151.854 455.977H145.339C144.372 455.977 143.446 455.593 142.762 454.909C142.079 454.225 141.695 453.298 141.695 452.331C141.695 451.364 142.079 450.437 142.762 449.753C143.446 449.07 144.372 448.686 145.339 448.686H151.854C152.82 448.686 153.747 449.07 154.43 449.753C155.114 450.437 155.498 451.364 155.498 452.331C155.498 453.298 155.114 454.225 154.43 454.909C153.747 455.593 152.82 455.977 151.854 455.977Z" fill="#426572"/>
<path id="Vector_13" d="M652.21 455.977H549.423V448.686H652.21C653.176 448.686 654.103 449.07 654.787 449.753C655.47 450.437 655.854 451.364 655.854 452.331C655.854 453.298 655.47 454.225 654.787 454.909C654.103 455.593 653.176 455.977 652.21 455.977Z" fill="#426572"/>
<path id="Vector_14" d="M126.704 455.977H23.9111V448.686H126.704C127.67 448.686 128.597 449.07 129.28 449.753C129.964 450.437 130.348 451.364 130.348 452.331C130.348 453.298 129.964 454.225 129.28 454.909C128.597 455.593 127.67 455.977 126.704 455.977Z" fill="#426572"/>
<path id="Vector_15" d="M163.145 34.6899C160.581 34.6899 158.075 33.9294 155.944 32.5046C153.812 31.0798 152.151 29.0546 151.17 26.6852C150.189 24.3158 149.932 21.7085 150.432 19.1932C150.932 16.6778 152.167 14.3673 153.98 12.5538C155.792 10.7403 158.102 9.50536 160.616 9.00502C163.131 8.50469 165.737 8.76148 168.105 9.74292C170.474 10.7244 172.498 12.3864 173.922 14.5188C175.347 16.6512 176.107 19.1583 176.107 21.7229C176.102 25.1606 174.735 28.4562 172.306 30.8871C169.876 33.3179 166.581 34.6855 163.145 34.6899ZM163.145 15.4806C161.912 15.4806 160.707 15.8462 159.682 16.5312C158.657 17.2163 157.858 18.19 157.386 19.3293C156.914 20.4686 156.79 21.7223 157.03 22.932C157.27 24.1416 157.863 25.2529 158.735 26.1254C159.606 26.9978 160.716 27.5922 161.925 27.8335C163.134 28.0748 164.388 27.9521 165.527 27.4809C166.666 27.0097 167.64 26.2112 168.326 25.1863C169.012 24.1614 169.378 22.9562 169.379 21.7229C169.378 20.0688 168.721 18.4827 167.552 17.3125C166.383 16.1423 164.799 15.4835 163.145 15.4806Z" fill="#E7F6FF"/>
<path id="Vector_16" d="M190.706 37.4823C193.697 37.4823 196.122 35.0566 196.122 32.0644C196.122 29.0722 193.697 26.6465 190.706 26.6465C187.715 26.6465 185.29 29.0722 185.29 32.0644C185.29 35.0566 187.715 37.4823 190.706 37.4823Z" fill="#E7F6FF"/>
<path id="Vector_17" d="M496.891 112.693H247.717C244.001 112.693 240.989 115.707 240.989 119.424V430.52C240.989 434.237 244.001 437.251 247.717 437.251H496.891C500.607 437.251 503.619 434.237 503.619 430.52V119.424C503.619 115.707 500.607 112.693 496.891 112.693Z" fill="#EBF0F9"/>
<g id="Group" opacity="0.5">
<path id="Vector_18" opacity="0.5" d="M269.256 314.877V326.778C265.814 337.732 260.404 350.536 253.301 364.67C250.38 370.279 247.246 376.196 243.899 382.275C246.186 378.417 248.384 374.558 250.514 370.761C248.036 375.466 245.413 380.346 242.666 385.315V366.807C242.942 366.291 243.217 365.775 243.49 365.259C243.215 365.747 242.929 366.235 242.666 366.723V366.038C243.903 363.705 245.104 361.415 246.27 359.168C253.985 343.823 259.726 330.037 263.089 318.494C265.153 317.345 267.216 316.128 269.256 314.877Z" fill="#BBD2E5"/>
</g>
<path id="Vector_19" d="M478.974 257.592H268.085V396.152H478.974V257.592Z" fill="#87D6FE"/>
<g id="Group_2" opacity="0.5">
<path id="Vector_20" opacity="0.5" d="M382.505 257.598L339.095 396.152H319.405L362.815 257.598H382.505Z" fill="#37B5FF"/>
<path id="Vector_21" opacity="0.5" d="M425.831 257.598L382.415 396.152H346.058L389.468 257.598H425.831Z" fill="#37B5FF"/>
</g>
<path id="Vector_22" d="M504.791 124.554V241.773C504.656 241.667 504.527 241.555 504.398 241.442C503.604 240.755 502.855 240.017 502.156 239.233C502.021 239.087 501.892 238.941 501.763 238.795V240.007C498.235 236.877 495.673 232.805 494.38 228.268C493.755 226.079 493.44 223.814 493.443 221.538C493.429 228.078 490.825 234.346 486.202 238.971C481.579 243.596 475.313 246.201 468.775 246.215C463.8 246.215 458.942 244.699 454.849 241.869C454.341 241.461 453.851 241.031 453.38 240.579C453.661 240.876 453.941 241.14 454.255 241.442C451.126 239.156 448.579 236.165 446.821 232.711C445.063 229.256 444.143 225.436 444.136 221.56C444.121 228.1 441.517 234.369 436.894 238.994C432.271 243.618 426.005 246.223 419.468 246.238C412.929 246.224 406.663 243.62 402.039 238.995C397.416 234.37 394.813 228.101 394.8 221.56C394.795 223.286 394.607 225.006 394.239 226.692C394.104 226.131 393.987 225.525 393.903 224.931C393.557 228.784 392.303 232.499 390.242 235.772V235.811C386.821 240.66 381.763 244.106 376 245.514C370.238 246.923 364.161 246.197 358.891 243.473C355.615 241.774 352.759 239.367 350.529 236.427C348.298 233.486 346.75 230.086 345.996 226.473C345.665 224.856 345.498 223.21 345.497 221.56C345.497 223.21 345.33 224.856 344.998 226.473C344.026 231.173 341.704 235.487 338.318 238.887C334.931 242.287 330.628 244.626 325.933 245.616C321.239 246.607 316.357 246.206 311.887 244.464C307.417 242.721 303.551 239.713 300.764 235.806V235.767C298.307 231.862 297.005 227.341 297.008 222.727C297.008 223.977 296.912 225.226 296.722 226.462C296.391 224.845 296.224 223.199 296.223 221.549C296.222 222.516 296.164 223.482 296.049 224.443C295.325 230.428 292.442 235.943 287.942 239.952C283.441 243.961 277.632 246.188 271.606 246.215C267.684 246.219 263.819 245.279 260.337 243.473C256.835 241.652 253.815 239.026 251.524 235.811V235.772C249.857 233.125 248.715 230.181 248.16 227.101C248.087 227.494 248.008 227.887 247.919 228.268C247.294 226.079 246.978 223.814 246.982 221.538C246.991 226.786 245.312 231.898 242.195 236.12L241.802 236.642C241.116 237.534 240.367 238.375 239.56 239.16V125.866C240.429 125.547 241.309 125.255 242.206 124.992L243.064 124.745C244.224 124.414 245.407 124.128 246.607 123.887V123.23H295.903V133.887H298.253V123.73H297.081V123.259H344.791V131.559H345.183V123.259H393.678V133.915H396.807V123.73H394.85V123.259H492.272V123.915L493.443 124.167V133.904H495.793V124.762C497.829 125.327 499.826 126.028 501.769 126.859L502.161 127.027C502.924 127.358 503.675 127.706 504.404 128.082V127.958C504.404 127.154 504.198 126.363 503.805 125.661C503.413 124.959 502.847 124.369 502.161 123.948H502.128H502.161C503.042 124.117 503.922 124.319 504.791 124.554Z" fill="#BBD2E5"/>
<path id="Vector_23" d="M496.987 439.152H247.801C245.124 439.152 242.558 438.088 240.665 436.195C238.773 434.302 237.709 431.734 237.709 429.056V117.937C237.709 115.26 238.773 112.692 240.665 110.799C242.558 108.905 245.124 107.842 247.801 107.842H496.987C499.663 107.842 502.23 108.905 504.122 110.799C506.015 112.692 507.078 115.26 507.078 117.937V282.269H500.35V117.937C500.35 117.045 499.996 116.189 499.365 115.558C498.734 114.927 497.879 114.572 496.987 114.572H247.801C246.909 114.572 246.053 114.927 245.422 115.558C244.791 116.189 244.437 117.045 244.437 117.937V429.056C244.437 429.949 244.791 430.805 245.422 431.436C246.053 432.067 246.909 432.422 247.801 432.422H496.987C497.879 432.422 498.734 432.067 499.365 431.436C499.996 430.805 500.35 429.949 500.35 429.056V351.237H507.078V429.056C507.078 431.734 506.015 434.302 504.122 436.195C502.23 438.088 499.663 439.152 496.987 439.152Z" fill="#426572"/>
<path id="Vector_24" d="M497.749 112.379H500.49C506.601 112.379 512.652 113.583 518.298 115.922C523.943 118.262 529.073 121.691 533.394 126.013C537.715 130.336 541.143 135.468 543.481 141.116C545.82 146.764 547.023 152.817 547.023 158.93V213.53C547.023 219.706 544.571 225.629 540.205 229.996C535.84 234.363 529.919 236.816 523.746 236.816H521.004C514.831 236.816 508.91 234.363 504.544 229.996C500.179 225.629 497.727 219.706 497.727 213.53V112.379H497.749Z" fill="white"/>
<path id="Vector_25" d="M249.696 112.379H298.992V213.558C298.992 219.734 296.54 225.657 292.175 230.024C287.809 234.391 281.888 236.845 275.715 236.845H272.973C266.8 236.845 260.879 234.391 256.514 230.024C252.148 225.657 249.696 219.734 249.696 213.558V112.379Z" fill="#EF4F43"/>
<path id="Vector_26" d="M346.725 112.379H396.022V213.558C396.022 219.734 393.569 225.657 389.204 230.024C384.839 234.391 378.918 236.845 372.744 236.845H370.02C363.846 236.845 357.925 234.391 353.56 230.024C349.194 225.657 346.742 219.734 346.742 213.558V112.379H346.725Z" fill="#E8837E"/>
<path id="Vector_27" d="M447.667 112.379H496.964V213.558C496.964 219.734 494.512 225.657 490.146 230.024C485.781 234.391 479.86 236.845 473.687 236.845H470.934C464.76 236.845 458.84 234.391 454.474 230.024C450.109 225.657 447.656 219.734 447.656 213.558V112.379H447.667Z" fill="#E8837E"/>
<path id="Vector_28" d="M247.739 112.379H250.481V213.558C250.481 219.734 248.028 225.657 243.663 230.024C239.298 234.391 233.377 236.845 227.203 236.845H224.462C218.288 236.845 212.367 234.391 208.002 230.024C203.637 225.657 201.184 219.734 201.184 213.558V158.958C201.18 152.841 202.382 146.783 204.72 141.13C207.059 135.477 210.488 130.341 214.811 126.015C219.135 121.689 224.269 118.259 229.919 115.919C235.569 113.579 241.624 112.376 247.739 112.379Z" fill="white"/>
<path id="Vector_29" opacity="0.5" d="M209.005 161.695V212.172C209.017 217.858 210.986 223.365 214.58 227.77C218.174 232.174 223.174 235.206 228.739 236.357C227.131 236.686 225.493 236.851 223.851 236.85C217.313 236.835 211.047 234.231 206.424 229.606C201.801 224.981 199.197 218.713 199.183 212.172V161.695C199.183 148.616 204.376 136.072 213.621 126.823C222.866 117.575 235.405 112.379 248.479 112.379V113.349C237.338 115.623 227.324 121.676 220.132 130.486C212.939 139.296 209.008 150.32 209.005 161.695Z" fill="#D9E2EF"/>
<path id="Vector_30" opacity="0.5" d="M533.725 161.696V212.174C533.708 217.859 531.734 223.365 528.136 227.767C524.538 232.168 519.535 235.196 513.969 236.341C515.577 236.67 517.215 236.836 518.857 236.835C525.395 236.82 531.661 234.215 536.284 229.59C540.907 224.965 543.51 218.697 543.525 212.157V161.68C543.525 155.203 542.25 148.79 539.773 142.807C537.295 136.824 533.664 131.387 529.087 126.808C524.509 122.228 519.075 118.596 513.094 116.117C507.113 113.639 500.702 112.363 494.229 112.363V113.334C505.376 115.603 515.398 121.657 522.595 130.471C529.793 139.284 533.725 150.315 533.725 161.696Z" fill="#D9E2EF"/>
<path id="Vector_31" d="M260.258 123.338V223.171C260.254 226.969 261.137 230.716 262.837 234.113C259.192 231.924 256.175 228.829 254.078 225.129C251.98 221.429 250.875 217.25 250.868 212.997V113.164H300.164V123.338H260.258Z" fill="#DD3E3A"/>
<path id="Vector_32" d="M358.852 123.338V223.171C358.847 226.969 359.73 230.716 361.43 234.113C357.786 231.924 354.768 228.829 352.671 225.129C350.574 221.429 349.468 217.25 349.461 212.997V113.164H398.758V123.338H358.852Z" fill="#D66765"/>
<path id="Vector_33" d="M457.843 123.338V223.171C457.839 226.969 458.722 230.716 460.422 234.113C456.777 231.924 453.76 228.829 451.663 225.129C449.565 221.429 448.46 217.25 448.453 212.997V113.164H497.749V123.338H457.843Z" fill="#D66765"/>
<path id="Vector_34" d="M298.993 112.379H348.289V213.558C348.289 219.734 345.837 225.657 341.472 230.024C337.106 234.391 331.185 236.845 325.012 236.845H322.27C316.097 236.845 310.176 234.391 305.811 230.024C301.445 225.657 298.993 219.734 298.993 213.558V112.379Z" fill="white"/>
<path id="Vector_35" opacity="0.5" d="M307.228 120.988V220.821C307.224 224.62 308.107 228.367 309.807 231.764C306.162 229.574 303.145 226.479 301.047 222.779C298.95 219.08 297.844 214.9 297.837 210.647V110.814H347.134V120.988H307.228Z" fill="#D9E2EF"/>
<path id="Vector_36" d="M396.807 112.379H446.103V213.558C446.103 219.734 443.651 225.657 439.285 230.024C434.92 234.391 428.999 236.845 422.826 236.845H420.084C413.911 236.845 407.99 234.391 403.624 230.024C399.259 225.657 396.807 219.734 396.807 213.558V112.379Z" fill="white"/>
<path id="Vector_37" opacity="0.5" d="M405.02 120.988V220.821C405.016 224.62 405.899 228.367 407.599 231.764C403.954 229.574 400.937 226.479 398.839 222.779C396.742 219.08 395.636 214.9 395.629 210.647V110.814H444.926V120.988H405.02Z" fill="#D9E2EF"/>
<path id="Vector_38" d="M225.634 239.037H222.892C215.824 239.036 209.046 236.228 204.046 231.231C199.045 226.234 196.232 219.456 196.223 212.385V157.785C196.245 144.554 201.509 131.87 210.862 122.514C220.214 113.158 232.893 107.891 246.119 107.869H252.286V212.413C252.27 219.476 249.455 226.244 244.459 231.235C239.464 236.225 232.694 239.031 225.634 239.037ZM245.559 114.577C234.22 114.755 223.405 119.381 215.443 127.458C207.481 135.536 203.009 146.419 202.99 157.763V212.363C202.995 217.644 205.095 222.708 208.829 226.443C212.562 230.178 217.624 232.278 222.903 232.284H225.645C230.921 232.278 235.979 230.181 239.712 226.451C243.444 222.721 245.547 217.663 245.559 212.385V114.577Z" fill="#426572"/>
<path id="Vector_39" d="M274.93 239.038H272.189C265.128 239.026 258.359 236.214 253.368 231.218C248.376 226.222 245.567 219.45 245.559 212.386V107.842H301.583V212.386C301.574 219.453 298.763 226.229 293.766 231.226C288.769 236.222 281.995 239.032 274.93 239.038ZM252.286 114.572V212.386C252.292 217.666 254.391 222.728 258.121 226.462C261.852 230.196 266.911 232.299 272.189 232.307H274.93C280.21 232.301 285.272 230.201 289.005 226.466C292.738 222.731 294.838 217.667 294.844 212.386V114.572H252.286Z" fill="#426572"/>
<path id="Vector_40" d="M324.227 239.038H321.485C314.422 239.029 307.651 236.218 302.657 231.222C297.662 226.225 294.853 219.452 294.844 212.386V107.842H350.868V212.386C350.859 219.452 348.049 226.225 343.055 231.222C338.061 236.218 331.29 239.029 324.227 239.038ZM301.571 114.572V212.386C301.577 217.667 303.677 222.731 307.411 226.466C311.144 230.201 316.206 232.301 321.485 232.307H324.227C329.506 232.301 334.568 230.201 338.301 226.466C342.035 222.731 344.135 217.667 344.14 212.386V114.572H301.571Z" fill="#426572"/>
<path id="Vector_41" d="M373.529 239.038H370.787C363.724 239.029 356.953 236.218 351.959 231.222C346.965 226.225 344.155 219.452 344.146 212.386V107.842H400.17V212.386C400.161 219.452 397.352 226.225 392.357 231.222C387.363 236.218 380.592 239.029 373.529 239.038ZM350.874 114.572V212.386C350.88 217.667 352.98 222.731 356.713 226.466C360.446 230.201 365.508 232.301 370.787 232.307H373.529C378.809 232.301 383.87 230.201 387.604 226.466C391.337 222.731 393.437 217.667 393.443 212.386V114.572H350.874Z" fill="#426572"/>
<path id="Vector_42" d="M422.826 239.038H420.084C413.021 239.029 406.25 236.218 401.256 231.222C396.261 226.225 393.452 219.452 393.443 212.386V107.842H449.467V212.386C449.458 219.452 446.649 226.225 441.654 231.222C436.66 236.218 429.889 239.029 422.826 239.038ZM400.17 114.572V212.386C400.176 217.667 402.276 222.731 406.01 226.466C409.743 230.201 414.805 232.301 420.084 232.307H422.826C428.105 232.301 433.167 230.201 436.9 226.466C440.634 222.731 442.734 217.667 442.74 212.386V114.572H400.17Z" fill="#426572"/>
<path id="Vector_43" d="M472.123 239.038H469.381C462.318 239.029 455.547 236.218 450.553 231.222C445.558 226.225 442.749 219.452 442.74 212.386V107.842H498.764V212.386C498.755 219.452 495.945 226.225 490.951 231.222C485.957 236.218 479.186 239.029 472.123 239.038ZM449.467 114.572V212.386C449.473 217.667 451.573 222.731 455.307 226.466C459.04 230.201 464.101 232.301 469.381 232.307H472.123C477.402 232.301 482.464 230.201 486.197 226.466C489.931 222.731 492.031 217.667 492.036 212.386V114.572H449.467Z" fill="#426572"/>
<path id="Vector_44" d="M521.419 239.038H518.678C511.615 239.029 504.843 236.218 499.849 231.222C494.855 226.225 492.045 219.452 492.036 212.386V107.842H498.141C511.368 107.864 524.047 113.13 533.399 122.487C542.752 131.843 548.016 144.526 548.038 157.758V212.358C548.037 219.424 545.233 226.202 540.243 231.204C535.253 236.206 528.483 239.023 521.419 239.038ZM498.769 114.578V212.386C498.775 217.667 500.875 222.731 504.609 226.466C508.342 230.201 513.403 232.301 518.683 232.307H521.425C526.704 232.301 531.766 230.201 535.499 226.466C539.233 222.731 541.333 217.667 541.338 212.386V157.786C541.325 146.438 536.855 135.549 528.893 127.467C520.93 119.385 510.112 114.756 498.769 114.578Z" fill="#426572"/>
<path id="Vector_45" d="M285.431 135.862V158.162C285.431 160.327 288.794 160.332 288.794 158.162V135.862C288.794 133.697 285.431 133.692 285.431 135.862Z" fill="white"/>
<path id="Vector_46" d="M285.431 165.223V174.225C285.431 176.39 288.794 176.396 288.794 174.225V165.223C288.794 163.059 285.431 163.053 285.431 165.223Z" fill="white"/>
<path id="Vector_47" d="M507.695 429.033H239.33C233.818 429.033 229.351 433.503 229.351 439.016V440.189C229.351 445.702 233.818 450.172 239.33 450.172H507.695C513.206 450.172 517.674 445.702 517.674 440.189V439.016C517.674 433.503 513.206 429.033 507.695 429.033Z" fill="#DEE6F1"/>
<path id="Vector_48" d="M236.28 430.6H512.04C512.864 430.6 513.681 430.762 514.443 431.078C515.204 431.393 515.897 431.856 516.48 432.439C517.063 433.023 517.525 433.715 517.841 434.477C518.156 435.239 518.319 436.056 518.319 436.881V437.251H229.995V436.909C229.995 435.243 230.657 433.646 231.834 432.467C233.012 431.289 234.609 430.628 236.274 430.628L236.28 430.6Z" fill="#A7BCD5"/>
<path id="Vector_49" d="M508.496 453.924H240.142C236.605 453.921 233.212 452.513 230.711 450.011C228.209 447.508 226.802 444.115 226.799 440.575V439.403C226.802 435.864 228.209 432.47 230.711 429.968C233.212 427.465 236.605 426.058 240.142 426.055H508.496C512.034 426.058 515.426 427.465 517.928 429.968C520.43 432.47 521.837 435.864 521.84 439.403V440.575C521.837 444.115 520.43 447.508 517.928 450.011C515.426 452.513 512.034 453.921 508.496 453.924ZM240.142 432.785C238.388 432.786 236.707 433.484 235.466 434.725C234.226 435.966 233.528 437.648 233.527 439.403V440.575C233.528 442.33 234.226 444.013 235.466 445.253C236.707 446.494 238.388 447.192 240.142 447.193H508.496C510.25 447.192 511.932 446.494 513.173 445.253C514.413 444.013 515.11 442.33 515.112 440.575V439.403C515.11 437.648 514.413 435.966 513.173 434.725C511.932 433.484 510.25 432.786 508.496 432.785H240.142Z" fill="#426572"/>
<path id="Vector_50" d="M481.945 399.129H264.329V253.867H481.945V399.129ZM271.056 392.399H475.217V260.597H271.056V392.399Z" fill="#426572"/>
<path id="Vector_51" opacity="0.1" d="M233.46 8.61381C142.502 8.4119 85.8444 65.6755 85.6481 155.845C85.5865 183.708 100.225 227.186 125.532 279.705C136.958 301.864 150.811 326.48 165.533 351.096C183.473 381.455 203.096 411.831 222.718 439.74L232.518 452.886C235.803 448.786 239.089 444.692 242.379 439.785C262.114 411.142 281.837 381.674 299.923 351.388C314.735 326.822 327.893 302.268 339.409 280.159C365.759 227.752 380.587 184.342 380.649 156.478C380.817 68.7714 321.956 8.80451 233.46 8.61381ZM232.95 246.322C178.843 246.216 134.715 201.857 134.833 147.746C134.95 93.6343 179.291 49.4779 233.37 49.5957C287.449 49.7135 331.599 94.0717 331.481 148.172C331.364 202.272 287.045 246.44 232.944 246.322H232.95Z" fill="#070707"/>
<path id="Vector_52" d="M320.017 141.516C319.899 195.633 275.553 239.789 221.474 239.666C174.638 239.565 135.242 206.284 125.605 162.206C124.612 156.543 124.121 150.804 124.136 145.055C124.254 90.9599 168.6 46.7868 222.673 46.9045C269.442 47.0055 308.787 80.2027 318.497 124.157C318.493 124.181 318.493 124.206 318.497 124.23C319.515 129.935 320.024 135.72 320.017 141.516Z" fill="white"/>
<path id="Vector_53" d="M222.965 3.19777C132.013 3.00147 75.3495 60.2595 75.1589 150.429C75.0972 178.292 89.7354 221.77 115.043 274.288C126.463 296.454 140.338 321.07 155.038 345.697C172.979 376.056 192.601 406.432 212.223 434.341L222.012 447.481C225.297 443.382 228.582 439.287 231.873 434.38C251.608 405.737 271.331 376.269 289.417 345.983C304.229 321.417 317.387 296.863 328.903 274.754C355.252 222.347 370.081 178.937 370.143 151.074C370.328 63.3778 311.461 3.36603 222.965 3.19777ZM222.455 240.906C168.376 240.788 124.226 196.441 124.343 142.33C124.461 88.2182 168.802 44.0619 222.881 44.1797C276.96 44.2974 321.11 88.6557 320.992 142.756C320.874 196.856 276.534 241.024 222.455 240.906Z" fill="#E8837E"/>
<path id="Vector_54" d="M323.229 287.827C313.137 307.014 301.835 327.648 289.383 348.299C271.303 378.585 251.574 408.047 231.845 436.69C228.56 441.603 225.275 445.664 221.978 449.798L212.178 436.651C192.556 408.743 172.973 378.367 154.993 348.036C140.282 323.403 126.401 298.787 114.992 276.627C89.7017 224.086 75.0691 180.597 75.1252 152.739C75.2036 115.532 84.9026 83.9387 102.658 59.6367C95.6332 77.96 91.905 98.8239 91.8545 121.825C91.7929 149.688 106.431 193.171 131.738 245.685C143.164 267.844 157.034 292.46 171.74 317.093C189.68 347.447 209.302 377.823 228.924 405.709L238.724 418.855C242.015 414.75 245.301 410.661 248.591 405.748C268.32 377.11 288.049 347.637 306.13 317.357C312.089 307.48 317.785 297.57 323.229 287.827Z" fill="#D66765"/>
<path id="Vector_55" d="M221.872 454.626L208.977 437.323C189.355 409.404 169.531 378.663 151.646 348.422C136.313 322.746 122.443 297.978 111.539 276.817L111.494 276.722C84.7009 221.107 71.1504 178.858 71.2008 151.151C71.2961 105.75 85.4802 67.6227 112.223 40.8809C138.965 14.1392 177.088 0 222.477 0H222.948C245.183 0.0448686 265.966 3.7914 284.725 11.1218C302.688 17.9841 318.985 28.5939 332.532 42.2456C346.078 55.8973 356.564 72.2779 363.292 90.2981C370.463 109.025 374.073 129.71 374.023 151.791C373.961 179.749 359.558 223.126 332.367 277.227V277.277C322.119 296.957 308.355 322.864 292.758 348.725C273.422 381.097 252.746 411.67 235.075 437.335C231.767 442.276 228.42 446.454 225.179 450.498L221.872 454.626ZM215.357 432.752L222.085 441.771C224.277 438.967 226.418 436.162 228.583 432.915C246.215 407.323 266.801 376.869 286.02 344.692C301.504 319.01 315.173 293.256 325.382 273.682C352.018 220.681 366.129 178.527 366.185 151.779C366.275 109.715 352.73 73.7528 326.997 47.8019C301.174 21.7557 265.181 7.94175 222.931 7.85201H222.477C179.213 7.85201 143.018 21.1892 117.778 46.4334C92.5386 71.6777 79.1506 107.887 79.0497 151.162C78.9937 177.298 92.6451 219.52 118.524 273.261C129.356 294.271 143.136 318.87 158.38 344.406C176.169 374.474 195.864 405.024 215.363 432.764L215.357 432.752ZM222.645 245.549H222.421C202.198 245.529 182.436 239.502 165.641 228.234C148.845 216.966 135.771 200.963 128.076 182.254C120.381 163.545 118.412 142.971 122.417 123.141C126.423 103.311 136.223 85.1168 150.576 70.8644C160.024 61.376 171.254 53.8505 183.621 48.7211C195.988 43.5916 209.247 40.9596 222.634 40.9763H222.858C243.083 40.9973 262.845 47.0244 279.642 58.2935C296.438 69.5627 309.512 85.5666 317.207 104.277C324.902 122.987 326.871 143.562 322.865 163.393C318.859 183.225 309.058 201.42 294.704 215.672C285.256 225.161 274.025 232.687 261.659 237.816C249.292 242.946 236.033 245.577 222.645 245.56V245.549ZM222.438 237.697H222.645C247.683 237.724 271.705 227.8 289.428 210.108C307.151 192.416 317.122 168.405 317.149 143.358C317.176 118.311 307.255 94.2792 289.57 76.5493C271.885 58.8194 247.884 48.8439 222.847 48.8171H222.64C197.603 48.7903 173.58 58.7145 155.857 76.4066C138.135 94.0986 128.163 118.109 128.136 143.156C128.109 168.203 138.03 192.235 155.715 209.965C173.4 227.695 197.401 237.67 222.438 237.697Z" fill="#426572"/>
<path id="Vector_56" d="M309.516 52.7201C329.087 70.8975 342.638 94.3918 348.048 120.612C349.982 130.255 350.932 140.07 350.885 149.906C350.885 154.235 357.613 154.241 357.613 149.906C357.579 118.34 348.037 87.8018 328.286 63.0174C323.995 57.6555 319.31 52.6218 314.27 47.9584C311.102 45.0139 306.331 49.7644 309.51 52.7201H309.516Z" fill="white"/>
<path id="Vector_57" d="M274.291 29.164L274.683 29.3267C273.607 28.8948 275.244 29.579 275.491 29.6912C277.133 30.4372 278.748 31.2392 280.346 32.0693C285.861 34.9791 291.173 38.2583 296.246 41.8843C299.783 44.3913 303.153 38.5584 299.643 36.0738C292.315 30.8802 284.467 25.9783 276.096 22.6749C272.071 21.082 270.322 27.588 274.308 29.164H274.291Z" fill="white"/>
<path id="Vector_58" d="M362.939 257.119H356.211V396.75H362.939V257.119Z" fill="#426572"/>
<path id="Vector_59" d="M478.71 323.57H301.79V330.301H478.71V323.57Z" fill="#426572"/>
<path id="Vector_60" opacity="0.3" d="M478.704 328.904H299.122V335.635H478.704V328.904Z" fill="#426572"/>
<path id="Vector_61" opacity="0.3" d="M367.384 257.119H360.657V396.75H367.384V257.119Z" fill="#426572"/>
<path id="Vector_62" d="M507.072 331.143H500.345V343.762H507.072V331.143Z" fill="#426572"/>
<path id="Vector_63" d="M507.072 288.982H500.345V323.004H507.072V288.982Z" fill="#426572"/>
</g>
</g>
</g>
<defs>
<linearGradient id="paint0_linear" x1="0.740223" y1="247.506" x2="703.374" y2="247.506" gradientUnits="userSpaceOnUse">
<stop stop-color="#C5E9FA"/>
<stop offset="1" stop-color="#C4F4EA"/>
</linearGradient>
</defs>
</svg>
