<svg width="602" height="546" viewBox="0 0 602 546" fill="none" xmlns="http://www.w3.org/2000/svg">
<g id="Map_SVG" clip-path="url(#clip0)">
<g id="&#208;&#161;&#208;&#187;&#208;&#190;&#208;&#185; 2">
<g id="&#208;&#161;&#208;&#187;&#208;&#190;&#208;&#185; 1">
<g id="Mobile">
<path id="Vector" opacity="0.4" d="M158.675 541.071L8.58453 454.307C-4.12971 446.956 -2.54043 434.122 12.1965 425.638L374.709 216.127C389.398 207.691 411.599 206.727 424.314 214.066L574.404 300.83C587.118 308.169 585.517 321.003 570.792 329.487L208.292 538.974C193.591 547.458 171.389 548.386 158.675 541.071Z" fill="#D6D8E5"/>
<path id="Vector_2" d="M177.686 529.612L27.5957 442.847C14.8815 435.509 16.4828 422.675 31.2077 414.191L393.708 204.716C408.397 196.28 430.599 195.304 443.313 202.655L593.404 289.419C606.118 296.77 604.528 309.604 589.792 318.088L227.291 527.563C212.602 536.047 190.401 536.962 177.686 529.612Z" fill="#B1B4C4"/>
<path id="Vector_3" d="M19.0112 430.254V416.42L35.217 422.542L19.0112 430.254Z" fill="#B1B4C4"/>
<path id="Vector_4" d="M602 301.362V288.059L589.105 296.373L602 301.362Z" fill="#B1B4C4"/>
<path id="Vector_5" d="M177.686 517.91L27.5957 431.146C14.8815 423.795 16.4828 410.961 31.2077 402.477L393.708 193.002C408.397 184.566 430.599 183.602 443.313 190.941L593.404 277.705C606.118 285.044 604.528 297.878 589.792 306.362L227.291 515.849C212.602 524.333 190.401 525.261 177.686 517.91Z" fill="#616E84"/>
<path id="Vector_6" d="M45.7063 448.942C46.478 448.496 46.4809 447.055 45.7129 445.724C44.9449 444.392 43.6968 443.674 42.9251 444.12C42.1534 444.566 42.1505 446.007 42.9185 447.338C43.6865 448.67 44.9347 449.388 45.7063 448.942Z" fill="#757B89"/>
<path id="Vector_7" d="M52.9317 453.118C53.7033 452.672 53.7063 451.231 52.9383 449.899C52.1703 448.568 50.9221 447.85 50.1504 448.296C49.3788 448.742 49.3758 450.183 50.1439 451.514C50.9119 452.846 52.16 453.564 52.9317 453.118Z" fill="#757B89"/>
<path id="Vector_8" d="M60.1631 457.295C60.9348 456.849 60.9377 455.409 60.1697 454.077C59.4017 452.746 58.1535 452.028 57.3819 452.474C56.6102 452.92 56.6073 454.361 57.3753 455.692C58.1433 457.023 59.3915 457.741 60.1631 457.295Z" fill="#757B89"/>
<path id="Vector_9" d="M67.3885 461.471C68.1601 461.025 68.1631 459.584 67.3951 458.253C66.6271 456.922 65.3789 456.204 64.6072 456.65C63.8356 457.096 63.8326 458.536 64.6007 459.868C65.3687 461.199 66.6168 461.917 67.3885 461.471Z" fill="#757B89"/>
<path id="Vector_10" d="M129.416 497.317C130.187 496.871 130.19 495.43 129.422 494.099C128.654 492.767 127.406 492.049 126.635 492.495C125.863 492.941 125.86 494.382 126.628 495.713C127.396 497.045 128.644 497.763 129.416 497.317Z" fill="#757B89"/>
<path id="Vector_11" d="M136.641 501.491C137.413 501.045 137.416 499.604 136.648 498.273C135.88 496.941 134.632 496.223 133.86 496.669C133.088 497.115 133.085 498.556 133.853 499.887C134.621 501.219 135.869 501.937 136.641 501.491Z" fill="#757B89"/>
<path id="Vector_12" d="M143.861 505.668C144.632 505.223 144.635 503.782 143.867 502.45C143.099 501.119 141.851 500.401 141.079 500.847C140.308 501.293 140.305 502.734 141.073 504.065C141.841 505.396 143.089 506.114 143.861 505.668Z" fill="#757B89"/>
<path id="Vector_13" d="M151.086 509.844C151.858 509.398 151.86 507.957 151.092 506.626C150.324 505.295 149.076 504.577 148.305 505.023C147.533 505.469 147.53 506.909 148.298 508.241C149.066 509.572 150.314 510.29 151.086 509.844Z" fill="#757B89"/>
<path id="Vector_14" d="M106.939 485.748L87.0973 474.276C86.41 473.785 85.8465 473.141 85.4514 472.394C85.0564 471.647 84.8408 470.818 84.8218 469.973C84.8218 468.298 85.8331 467.563 87.0973 468.25L106.939 479.722C107.633 480.218 108.201 480.87 108.596 481.626C108.991 482.381 109.203 483.22 109.215 484.073C109.215 485.699 108.203 486.471 106.939 485.748Z" fill="#757B89"/>
<path id="Vector_15" d="M556.573 334.297L538.116 344.961C536.912 345.636 535.997 344.961 535.997 343.359C536.009 342.565 536.207 341.785 536.575 341.082C536.943 340.378 537.471 339.772 538.116 339.31L556.573 328.645C557.777 327.97 558.68 328.645 558.68 330.248C558.669 331.04 558.473 331.82 558.107 332.523C557.741 333.226 557.216 333.833 556.573 334.297Z" fill="#757B89"/>
<path id="Vector_16" d="M528.303 350.673L509.846 361.338C508.642 362.013 507.727 361.338 507.727 359.735C507.74 358.943 507.938 358.166 508.306 357.464C508.674 356.763 509.202 356.158 509.846 355.698L528.303 345.034C529.507 344.359 530.41 345.033 530.41 346.636C530.4 347.427 530.203 348.205 529.837 348.906C529.471 349.607 528.946 350.213 528.303 350.673Z" fill="#757B89"/>
<path id="Vector_17" d="M177.686 515.766L27.5957 429.001C14.8815 421.663 16.4828 408.829 31.2077 400.345L393.708 190.882C408.397 182.446 430.599 181.47 443.313 188.821L593.404 275.585C606.118 282.936 604.528 295.77 589.792 304.254L227.291 513.729C212.602 522.213 190.401 523.129 177.686 515.766Z" fill="#20232D"/>
<path id="Vector_18" d="M570.082 282.622L511.483 248.76L511.339 248.845C504.416 252.845 493.195 252.845 486.272 248.845C479.349 244.844 479.349 238.361 486.272 234.384L486.416 234.299L427.817 200.437C418.92 195.292 404.484 195.292 395.586 200.437L42.4651 404.466C33.5675 409.611 33.5675 417.95 42.4651 423.084L184.718 505.293C193.627 510.439 208.051 510.439 216.949 505.293L570.082 301.265C578.979 296.107 578.979 287.768 570.082 282.622Z" fill="#F2F5F9"/>
<path id="Vector_19" d="M502.176 244.097C505.893 244.097 508.907 242.355 508.907 240.205C508.907 238.055 505.893 236.312 502.176 236.312C498.459 236.312 495.446 238.055 495.446 240.205C495.446 242.355 498.459 244.097 502.176 244.097Z" fill="#2B303F"/>
<path id="Vector_20" opacity="0.1" d="M500.19 241.361C499.944 241.285 499.73 241.132 499.577 240.925C499.425 240.718 499.343 240.468 499.343 240.211C499.343 239.953 499.425 239.703 499.577 239.496C499.73 239.289 499.944 239.136 500.19 239.06C500.807 238.744 501.49 238.58 502.182 238.58C502.875 238.58 503.558 238.744 504.175 239.06C504.42 239.136 504.635 239.289 504.787 239.496C504.94 239.703 505.022 239.953 505.022 240.211C505.022 240.468 504.94 240.718 504.787 240.925C504.635 241.132 504.42 241.285 504.175 241.361C503.558 241.677 502.875 241.841 502.182 241.841C501.49 241.841 500.807 241.677 500.19 241.361Z" fill="white"/>
</g>
<path id="Vector_21" d="M334.11 421.313L208.966 494.147L158.218 464.828L283.373 391.994L334.11 421.313Z" fill="#B9CC00"/>
<path id="Vector_22" d="M462.107 242.181L246.23 368.11L187.126 335.718L402.991 209.789L462.107 242.181Z" fill="#B9CC00"/>
<path id="Vector_23" d="M248.144 318.256H242.269V338.935C242.291 339.194 242.382 339.442 242.532 339.654C242.683 339.865 242.887 340.033 243.124 340.14C243.767 340.467 244.479 340.637 245.201 340.637C245.922 340.637 246.634 340.467 247.277 340.14C247.517 340.036 247.725 339.869 247.877 339.657C248.03 339.445 248.122 339.195 248.144 338.935V318.256Z" fill="#443D31"/>
<path id="Vector_24" d="M245.351 318.569C253.856 318.569 260.75 311.669 260.75 303.157C260.75 294.645 253.856 287.744 245.351 287.744C236.846 287.744 229.952 294.645 229.952 303.157C229.952 311.669 236.846 318.569 245.351 318.569Z" fill="#C6E800"/>
<path id="Vector_25" d="M284.144 297.578H278.268V318.245C278.291 318.505 278.383 318.755 278.536 318.967C278.688 319.18 278.896 319.346 279.135 319.45C279.779 319.777 280.491 319.947 281.212 319.947C281.934 319.947 282.646 319.777 283.289 319.45C283.526 319.344 283.73 319.176 283.88 318.964C284.031 318.752 284.122 318.504 284.144 318.245V297.578Z" fill="#443D31"/>
<path id="Vector_26" d="M281.351 297.892C289.855 297.892 296.75 290.991 296.75 282.479C296.75 273.967 289.855 267.066 281.351 267.066C272.846 267.066 265.952 273.967 265.952 282.479C265.952 290.991 272.846 297.892 281.351 297.892Z" fill="#C6E800"/>
<path id="Vector_27" d="M359.069 258.209H353.193V278.888C353.216 279.148 353.308 279.398 353.461 279.61C353.613 279.822 353.82 279.989 354.06 280.093C354.704 280.42 355.415 280.59 356.137 280.59C356.859 280.59 357.571 280.42 358.214 280.093C358.451 279.986 358.655 279.819 358.805 279.607C358.956 279.395 359.047 279.147 359.069 278.888V258.209Z" fill="#443D31"/>
<path id="Vector_28" d="M356.276 258.523C364.78 258.523 371.675 251.622 371.675 243.11C371.675 234.598 364.78 227.697 356.276 227.697C347.771 227.697 340.876 234.598 340.876 243.11C340.876 251.622 347.771 258.523 356.276 258.523Z" fill="#C6E800"/>
<path id="Vector_29" d="M470.463 266.185L141.915 456.042L129.406 448.812L457.953 258.955L470.463 266.185Z" fill="#FF6161"/>
<path id="Vector_30" d="M495.193 332.404L443.06 302.277V176.951L495.193 207.078V332.404Z" fill="#E4E7EF"/>
<path id="Vector_31" d="M495.193 207.077L443.06 176.951L495.193 146.824L547.326 176.951L495.193 207.077Z" fill="#EDF1F9"/>
<path id="Vector_32" d="M485.814 232.986L452.451 213.705V196.834L485.814 216.115V232.986Z" fill="#6675FF"/>
<path id="Vector_33" d="M547.326 302.277L495.193 332.415V207.089L547.326 176.963V302.277Z" fill="#DADCE5"/>
<path id="Vector_34" d="M517.094 225.769L504.572 233V216.129L517.094 208.898V225.769Z" fill="#6675FF"/>
<path id="Vector_35" d="M537.947 213.718L525.426 220.949V204.078L537.947 196.848V213.718Z" fill="#6675FF"/>
<path id="Vector_36" d="M517.094 251.074L504.572 258.304V241.433L517.094 234.203V251.074Z" fill="#6675FF"/>
<path id="Vector_37" d="M537.947 239.023L525.426 246.254V229.383L537.947 222.152V239.023Z" fill="#6675FF"/>
<path id="Vector_38" d="M517.094 276.381L504.572 283.611V266.74L517.094 259.51V276.381Z" fill="#6675FF"/>
<path id="Vector_39" d="M537.947 264.33L525.426 271.56V254.689L537.947 247.459V264.33Z" fill="#6675FF"/>
<path id="Vector_40" d="M517.094 302.892L504.572 310.123V293.252L517.094 286.021V302.892Z" fill="#6675FF"/>
<path id="Vector_41" d="M537.947 290.842L525.426 298.072V281.201L537.947 273.971V290.842Z" fill="#6675FF"/>
<path id="Vector_42" d="M485.814 258.292L452.451 239.011V222.141L485.814 241.422V258.292Z" fill="#6675FF"/>
<path id="Vector_43" d="M485.814 283.599L452.451 264.318V247.447L485.814 266.728V283.599Z" fill="#6675FF"/>
<path id="Vector_44" d="M485.814 310.111L452.451 290.83V273.959L485.814 293.24V310.111Z" fill="#6675FF"/>
<path id="Vector_45" d="M495.193 193.834L465.117 176.457V171.07L495.193 188.459V193.834Z" fill="#E4E7EF"/>
<path id="Vector_46" d="M495.193 193.834L525.281 176.457V171.07L495.193 188.459V193.834Z" fill="#DADCE5"/>
<path id="Vector_47" d="M183.598 404.357L131.465 374.231V176.613L183.598 206.74V404.357Z" fill="#E4E7EF"/>
<path id="Vector_48" d="M183.598 206.741L131.465 176.615L183.598 146.488L235.731 176.615L183.598 206.741Z" fill="#EDF1F9"/>
<path id="Vector_49" d="M174.207 232.65L140.844 213.369V196.498L174.207 215.779V232.65Z" fill="#84A6F4"/>
<path id="Vector_50" d="M235.731 374.243L183.598 404.369V206.74L235.731 176.613V374.243Z" fill="#DADCE5"/>
<path id="Vector_51" d="M205.487 225.42L192.977 232.65V215.779L205.487 208.549V225.42Z" fill="#84A6F4"/>
<path id="Vector_52" d="M226.34 213.369L213.83 220.599V203.728L226.34 196.498V213.369Z" fill="#84A6F4"/>
<path id="Vector_53" d="M205.487 250.724L192.977 257.955V241.084L205.487 233.854V250.724Z" fill="#84A6F4"/>
<path id="Vector_54" d="M226.34 238.674L213.83 245.904V229.033L226.34 221.803V238.674Z" fill="#84A6F4"/>
<path id="Vector_55" d="M205.487 276.031L192.977 283.261V266.391L205.487 259.16V276.031Z" fill="#84A6F4"/>
<path id="Vector_56" d="M226.34 263.98L213.83 271.211V254.34L226.34 247.109V263.98Z" fill="#84A6F4"/>
<path id="Vector_57" d="M205.487 302.543L192.977 309.773V292.902L205.487 285.672V302.543Z" fill="#84A6F4"/>
<path id="Vector_58" d="M226.34 290.492L213.83 297.722V280.851L226.34 273.621V290.492Z" fill="#84A6F4"/>
<path id="Vector_59" d="M205.487 330.849L192.977 338.079V321.221L205.487 313.99V330.849Z" fill="#84A6F4"/>
<path id="Vector_60" d="M226.34 318.798L213.83 326.029V309.17L226.34 301.939V318.798Z" fill="#84A6F4"/>
<path id="Vector_61" d="M205.487 359.795L192.977 367.025V350.154L205.487 342.924V359.795Z" fill="#84A6F4"/>
<path id="Vector_62" d="M226.34 347.744L213.83 354.974V338.103L226.34 330.873V347.744Z" fill="#84A6F4"/>
<path id="Vector_63" d="M174.207 257.954L140.844 238.674V221.803L174.207 241.084V257.954Z" fill="#84A6F4"/>
<path id="Vector_64" d="M174.207 283.261L140.844 263.98V247.109L174.207 266.39V283.261Z" fill="#84A6F4"/>
<path id="Vector_65" d="M174.207 309.773L140.844 290.492V273.621L174.207 292.902V309.773Z" fill="#84A6F4"/>
<path id="Vector_66" d="M174.207 338.079L140.844 318.798V301.939L174.207 321.22V338.079Z" fill="#84A6F4"/>
<path id="Vector_67" d="M174.207 367.025L140.844 347.744V330.873L174.207 350.154V367.025Z" fill="#84A6F4"/>
<path id="Vector_68" d="M183.598 193.498L153.51 176.121V170.734L183.598 188.123V193.498Z" fill="#E4E7EF"/>
<path id="Vector_69" d="M183.598 193.498L213.686 176.121V170.734L183.598 188.123V193.498Z" fill="#DADCE5"/>
<path id="Vector_70" d="M183.598 404.357L131.465 374.231V176.613L183.598 206.74V404.357Z" fill="#E4E7EF"/>
<path id="Vector_71" d="M183.598 206.741L131.465 176.615L183.598 146.488L235.731 176.615L183.598 206.741Z" fill="#EDF1F9"/>
<path id="Vector_72" d="M174.219 232.65L140.844 213.369V196.498L174.219 215.779V232.65Z" fill="#6675FF"/>
<path id="Vector_73" d="M235.731 374.243L183.598 404.369V206.74L235.731 176.613V374.243Z" fill="#DADCE5"/>
<path id="Vector_74" d="M205.499 225.42L192.977 232.65V215.779L205.499 208.549V225.42Z" fill="#6675FF"/>
<path id="Vector_75" d="M226.352 213.369L213.83 220.599V203.728L226.352 196.498V213.369Z" fill="#6675FF"/>
<path id="Vector_76" d="M205.499 250.724L192.977 257.955V241.084L205.499 233.854V250.724Z" fill="#6675FF"/>
<path id="Vector_77" d="M226.352 238.674L213.83 245.904V229.033L226.352 221.803V238.674Z" fill="#6675FF"/>
<path id="Vector_78" d="M205.499 276.031L192.977 283.261V266.391L205.499 259.16V276.031Z" fill="#6675FF"/>
<path id="Vector_79" d="M226.352 263.98L213.83 271.211V254.34L226.352 247.109V263.98Z" fill="#6675FF"/>
<path id="Vector_80" d="M205.499 302.543L192.977 309.773V292.902L205.499 285.672V302.543Z" fill="#6675FF"/>
<path id="Vector_81" d="M226.352 290.492L213.83 297.722V280.851L226.352 273.621V290.492Z" fill="#6675FF"/>
<path id="Vector_82" d="M205.499 330.849L192.977 338.079V321.221L205.499 313.99V330.849Z" fill="#6675FF"/>
<path id="Vector_83" d="M226.352 318.798L213.83 326.029V309.17L226.352 301.939V318.798Z" fill="#6675FF"/>
<path id="Vector_84" d="M205.499 359.795L192.977 367.025V350.154L205.499 342.924V359.795Z" fill="#6675FF"/>
<path id="Vector_85" d="M226.352 347.744L213.83 354.974V338.103L226.352 330.873V347.744Z" fill="#6675FF"/>
<path id="Vector_86" d="M174.219 257.954L140.844 238.674V221.803L174.219 241.084V257.954Z" fill="#6675FF"/>
<path id="Vector_87" d="M174.219 283.261L140.844 263.98V247.109L174.219 266.39V283.261Z" fill="#6675FF"/>
<path id="Vector_88" d="M174.219 309.773L140.844 290.492V273.621L174.219 292.902V309.773Z" fill="#6675FF"/>
<path id="Vector_89" d="M174.219 338.079L140.844 318.798V301.939L174.219 321.22V338.079Z" fill="#6675FF"/>
<path id="Vector_90" d="M174.219 367.025L140.844 347.744V330.873L174.219 350.154V367.025Z" fill="#6675FF"/>
<path id="Vector_91" d="M183.598 193.498L153.51 176.121V170.734L183.598 188.123V193.498Z" fill="#E4E7EF"/>
<path id="Vector_92" d="M183.598 193.498L213.686 176.121V170.734L183.598 188.123V193.498Z" fill="#DADCE5"/>
<path id="Vector_93" d="M418.041 375.184L365.908 345.057V147.428L418.041 177.554V375.184Z" fill="#E4E7EF"/>
<path id="Vector_94" d="M418.041 177.554L365.896 147.427L418.029 117.301L470.174 147.427L418.041 177.554Z" fill="#EDF1F9"/>
<path id="Vector_95" d="M408.65 203.462L375.287 184.181V167.311L408.65 186.591V203.462Z" fill="#6675FF"/>
<path id="Vector_96" d="M470.174 345.069L418.029 375.196V177.566L470.174 147.439V345.069Z" fill="#DADCE5"/>
<path id="Vector_97" d="M439.93 196.244L427.42 203.474V186.603L439.93 179.373V196.244Z" fill="#6675FF"/>
<path id="Vector_98" d="M460.783 184.193L448.273 191.423V174.553L460.783 167.322V184.193Z" fill="#6675FF"/>
<path id="Vector_99" d="M439.93 221.551L427.42 228.781V211.91L439.93 204.68V221.551Z" fill="#6675FF"/>
<path id="Vector_100" d="M460.783 209.5L448.273 216.73V199.859L460.783 192.629V209.5Z" fill="#6675FF"/>
<path id="Vector_101" d="M439.93 246.857L427.42 254.088V237.217L439.93 229.986V246.857Z" fill="#6675FF"/>
<path id="Vector_102" d="M460.783 234.806L448.273 242.037V225.166L460.783 217.936V234.806Z" fill="#6675FF"/>
<path id="Vector_103" d="M439.93 273.369L427.42 280.599V263.728L439.93 256.498V273.369Z" fill="#6675FF"/>
<path id="Vector_104" d="M460.783 261.318L448.273 268.548V251.678L460.783 244.447V261.318Z" fill="#6675FF"/>
<path id="Vector_105" d="M439.93 301.676L427.42 308.906V292.035L439.93 284.805V301.676Z" fill="#6675FF"/>
<path id="Vector_106" d="M460.783 289.625L448.273 296.855V279.984L460.783 272.754V289.625Z" fill="#6675FF"/>
<path id="Vector_107" d="M439.93 330.621L427.42 337.851V320.98L439.93 313.75V330.621Z" fill="#6675FF"/>
<path id="Vector_108" d="M460.783 318.57L448.273 325.801V308.93L460.783 301.688V318.57Z" fill="#6675FF"/>
<path id="Vector_109" d="M408.65 228.769L375.287 209.488V192.617L408.65 211.898V228.769Z" fill="#6675FF"/>
<path id="Vector_110" d="M408.65 254.076L375.287 234.795V217.924L408.65 237.205V254.076Z" fill="#6675FF"/>
<path id="Vector_111" d="M408.65 280.585L375.287 261.304V244.434L408.65 263.715V280.585Z" fill="#6675FF"/>
<path id="Vector_112" d="M408.65 308.906L375.287 289.625V272.754L408.65 292.035V308.906Z" fill="#6675FF"/>
<path id="Vector_113" d="M408.65 337.851L375.287 318.57V301.688L408.65 320.98V337.851Z" fill="#6675FF"/>
<path id="Vector_114" d="M418.041 164.322L387.953 146.933V141.559L418.041 158.936V164.322Z" fill="#E4E7EF"/>
<path id="Vector_115" d="M418.041 164.322L448.129 146.933V141.559L418.041 158.936V164.322Z" fill="#DADCE5"/>
<path id="Vector_116" d="M115.825 442.931L63.6916 412.805V287.479L115.825 317.605V442.931Z" fill="#E4E7EF"/>
<path id="Vector_117" d="M115.825 317.606L63.6916 287.48L115.813 257.354L167.958 287.48L115.825 317.606Z" fill="#EDF1F9"/>
<path id="Vector_118" d="M106.434 343.515L73.0707 324.234V307.363L106.434 326.644V343.515Z" fill="#6675FF"/>
<path id="Vector_119" d="M167.958 412.806L115.825 442.933V317.619L167.958 287.492V412.806Z" fill="#DADCE5"/>
<path id="Vector_120" d="M137.714 336.297L125.204 343.527V326.656L137.714 319.426V336.297Z" fill="#6675FF"/>
<path id="Vector_121" d="M158.567 324.246L146.057 331.476V314.605L158.567 307.375V324.246Z" fill="#6675FF"/>
<path id="Vector_122" d="M137.714 361.603L125.204 368.834V351.963L137.714 344.732V361.603Z" fill="#6675FF"/>
<path id="Vector_123" d="M158.567 349.552L146.057 356.783V339.912L158.567 332.682V349.552Z" fill="#6675FF"/>
<path id="Vector_124" d="M137.714 386.908L125.204 394.138V377.267L137.714 370.037V386.908Z" fill="#6675FF"/>
<path id="Vector_125" d="M158.567 374.857L146.057 382.087V365.217L158.567 357.986V374.857Z" fill="#6675FF"/>
<path id="Vector_126" d="M137.714 413.408L125.204 420.638V403.767L137.714 396.537V413.408Z" fill="#6675FF"/>
<path id="Vector_127" d="M158.567 401.357L146.057 408.588V391.717L158.567 384.486V401.357Z" fill="#6675FF"/>
<path id="Vector_128" d="M106.434 368.822L73.0707 349.541V332.67L106.434 351.951V368.822Z" fill="#6675FF"/>
<path id="Vector_129" d="M106.434 394.126L73.0707 374.845V357.975L106.434 377.256V394.126Z" fill="#6675FF"/>
<path id="Vector_130" d="M106.434 420.638L73.0707 401.357V384.486L106.434 403.767V420.638Z" fill="#6675FF"/>
<path id="Vector_131" d="M115.825 304.363L85.7368 286.986V281.6L115.825 298.989V304.363Z" fill="#E4E7EF"/>
<path id="Vector_132" d="M115.825 304.363L145.913 286.986V281.6L115.825 298.989V304.363Z" fill="#DADCE5"/>
<path id="Vector_133" d="M343.501 416.673L291.368 386.547V261.221L343.501 291.347V416.673Z" fill="#E4E7EF"/>
<path id="Vector_134" d="M343.501 291.349L291.356 261.222L343.489 231.096L395.634 261.222L343.501 291.349Z" fill="#EDF1F9"/>
<path id="Vector_135" d="M334.11 317.257L300.747 297.976V281.105L334.11 300.386V317.257Z" fill="#6675FF"/>
<path id="Vector_136" d="M395.634 386.546L343.501 416.673V291.359L395.634 261.232V386.546Z" fill="#DADCE5"/>
<path id="Vector_137" d="M365.39 310.039L352.88 317.269V300.398L365.39 293.168V310.039Z" fill="#6675FF"/>
<path id="Vector_138" d="M386.243 297.988L373.734 305.218V288.348L386.243 281.117V297.988Z" fill="#6675FF"/>
<path id="Vector_139" d="M365.39 335.343L352.88 342.574V325.703L365.39 318.473V335.343Z" fill="#6675FF"/>
<path id="Vector_140" d="M386.243 323.295L373.734 330.525V313.654L386.243 306.424V323.295Z" fill="#6675FF"/>
<path id="Vector_141" d="M365.39 360.638L352.88 367.869V350.998L365.39 343.768V360.638Z" fill="#6675FF"/>
<path id="Vector_142" d="M386.243 348.588L373.734 355.818V338.947L386.243 331.717V348.588Z" fill="#6675FF"/>
<path id="Vector_143" d="M365.39 387.15L352.88 394.38V377.51L365.39 370.279V387.15Z" fill="#6675FF"/>
<path id="Vector_144" d="M386.243 375.099L373.734 382.33V365.459L386.243 358.229V375.099Z" fill="#6675FF"/>
<path id="Vector_145" d="M334.11 342.562L300.747 323.281V306.41L334.11 325.691V342.562Z" fill="#6675FF"/>
<path id="Vector_146" d="M334.11 367.869L300.747 348.588V331.717L334.11 350.998V367.869Z" fill="#6675FF"/>
<path id="Vector_147" d="M334.11 394.38L300.747 375.099V358.229L334.11 377.509V394.38Z" fill="#6675FF"/>
<path id="Vector_148" d="M343.501 278.103L313.413 260.726V255.34L343.501 272.729V278.103Z" fill="#E4E7EF"/>
<path id="Vector_149" d="M343.501 278.103L373.589 260.726V255.34L343.501 272.729V278.103Z" fill="#DADCE5"/>
<path id="Vector_150" d="M284.963 406.299H279.087V426.978C279.112 427.237 279.205 427.486 279.357 427.698C279.51 427.909 279.716 428.077 279.954 428.183C280.598 428.51 281.309 428.68 282.031 428.68C282.753 428.68 283.464 428.51 284.108 428.183C284.343 428.074 284.546 427.906 284.696 427.694C284.846 427.483 284.938 427.236 284.963 426.978V406.299Z" fill="#443D31"/>
<path id="Vector_151" d="M282.169 406.611C290.674 406.611 297.569 399.71 297.569 391.198C297.569 382.686 290.674 375.785 282.169 375.785C273.665 375.785 266.77 382.686 266.77 391.198C266.77 399.71 273.665 406.611 282.169 406.611Z" fill="#C6E800"/>
<path id="Vector_152" d="M249.324 426.93H243.449V447.609C243.471 447.869 243.563 448.119 243.716 448.331C243.869 448.543 244.076 448.71 244.316 448.814C244.959 449.141 245.671 449.311 246.393 449.311C247.114 449.311 247.826 449.141 248.469 448.814C248.706 448.707 248.91 448.539 249.061 448.327C249.211 448.116 249.302 447.867 249.324 447.609V426.93Z" fill="#443D31"/>
<path id="Vector_153" d="M246.531 427.241C255.036 427.241 261.93 420.341 261.93 411.829C261.93 403.317 255.036 396.416 246.531 396.416C238.026 396.416 231.132 403.317 231.132 411.829C231.132 420.341 238.026 427.241 246.531 427.241Z" fill="#C6E800"/>
<path id="Vector_154" d="M211.194 448.994H205.318V469.661C205.342 469.919 205.433 470.167 205.583 470.379C205.733 470.59 205.937 470.758 206.173 470.866C206.819 471.193 207.532 471.364 208.256 471.364C208.98 471.364 209.693 471.193 210.339 470.866C210.575 470.758 210.778 470.59 210.928 470.379C211.079 470.167 211.17 469.919 211.194 469.661V448.994Z" fill="#443D31"/>
<path id="Vector_155" d="M208.4 449.306C216.905 449.306 223.8 442.405 223.8 433.893C223.8 425.381 216.905 418.48 208.4 418.48C199.896 418.48 193.001 425.381 193.001 433.893C193.001 442.405 199.896 449.306 208.4 449.306Z" fill="#C6E800"/>
<path id="Vector_156" d="M425.686 4.37491C417.523 -0.336866 410.034 -1.1081 404.4 1.42252C403.521 1.81545 402.683 2.29161 401.895 2.84449L390.457 9.31565C390.457 9.31565 392.636 10.8099 395.105 12.4368C394.035 15.8186 393.511 19.3496 393.552 22.8967C393.568 26.5443 393.971 30.18 394.756 33.7422L391.445 33.9953C391.445 34.3327 396.682 61.9647 397.284 63.0733C397.886 64.182 407.686 75.9795 407.939 75.8831C408.53 75.0159 409.069 74.1146 409.553 73.1838C413.514 82.0168 417.391 90.0546 420.389 95.9232L410.395 100.527L414.007 112.806L426.926 105.419C426.998 105.39 427.067 105.354 427.131 105.311C431.658 101.84 447.057 89.2954 455.1 73.6176C457.09 69.3919 458.052 64.7542 457.905 60.0848C457.821 39.5988 443.409 14.6179 425.686 4.37491ZM425.686 60.7958C416.488 55.4815 408.999 42.503 408.999 31.8744C408.999 22.9931 414.224 18.5344 421.292 20.3901L419.895 21.0168C420.834 22.1254 436.221 49.1428 436.908 52.0711C437.713 54.5124 438.935 56.7956 440.52 58.8195C437.811 63.483 432.236 64.5555 425.686 60.7958Z" fill="#DB4949"/>
<path id="Vector_157" d="M412.791 11.7495C395.081 1.50655 380.669 9.84556 380.669 30.3195C380.727 36.0269 381.673 41.6904 383.474 47.106C391.505 72.0627 406.952 102.43 411.443 111.119C411.747 111.734 412.213 112.255 412.791 112.625C412.986 112.771 413.22 112.855 413.462 112.866C413.705 112.877 413.946 112.814 414.152 112.685C418.679 109.215 434.09 96.67 442.121 80.9922C444.108 76.7738 445.069 72.1449 444.926 67.4835C444.926 46.9975 430.514 21.9925 412.791 11.7495ZM412.791 68.1824C403.593 62.8561 396.104 49.8776 396.104 39.261C396.104 28.6445 403.593 24.3063 412.791 29.6206C421.99 34.9349 429.491 47.9134 429.491 58.542C429.491 69.1706 422.002 73.5088 412.791 68.1824Z" fill="#FF6161"/>
<path id="Vector_158" opacity="0.1" d="M418.041 149.501C427.211 149.501 434.644 145.206 434.644 139.909C434.644 134.611 427.211 130.316 418.041 130.316C408.871 130.316 401.438 134.611 401.438 139.909C401.438 145.206 408.871 149.501 418.041 149.501Z" fill="black"/>
</g>
</g>
</g>
<defs>
<clipPath id="clip0">
<rect width="602" height="546" fill="white"/>
</clipPath>
</defs>
</svg>
