<svg width="464" height="602" viewBox="0 0 464 602" fill="none" xmlns="http://www.w3.org/2000/svg">
<g id="Web_SVG" clip-path="url(#clip0)">
<g id="&#208;&#161;&#208;&#187;&#208;&#190;&#208;&#185; 2">
<g id="&#208;&#161;&#208;&#187;&#208;&#190;&#208;&#185; 1">
<path id="Vector" opacity="0.4" d="M275.189 478.313L218.408 445.588C215.766 444.059 216.092 441.398 219.155 439.64L274.442 407.77C277.505 406.013 282.124 405.82 284.766 407.337L341.535 440.062C344.189 441.591 343.851 444.252 340.8 446.009L285.501 477.879C282.45 479.649 277.831 479.83 275.189 478.313Z" fill="#D6D8E5"/>
<path id="Vector_2" opacity="0.4" d="M250.127 458.736V458.748L106.701 541.403L23.9766 589.081L25.8098 590.141L108.534 542.45L251.948 459.796L250.127 458.736Z" fill="#D6D8E5"/>
<path id="Vector_3" d="M347.349 436.293L344.551 437.148L288.794 405.001C286.153 403.484 281.557 403.677 278.482 405.435L223.183 437.304L223.051 437.389L220.639 436.654V440.266C220.639 440.399 220.639 440.531 220.639 440.676V440.965C220.738 441.445 220.947 441.897 221.248 442.285C221.549 442.673 221.934 442.987 222.375 443.204L279.157 475.929C281.799 477.446 286.394 477.265 289.481 475.495L344.936 443.674C345.581 443.386 346.146 442.946 346.583 442.393C347.02 441.839 347.316 441.188 347.445 440.495L347.349 436.293Z" fill="#D5D6E0"/>
<path id="Vector_4" d="M279.266 472.137L222.484 439.46C219.843 437.943 220.18 435.282 223.232 433.524L278.53 401.654C281.582 399.885 286.201 399.692 288.842 401.221L345.624 433.946C348.265 435.475 347.94 438.136 344.876 439.893L289.59 471.763C286.527 473.473 281.907 473.666 279.266 472.137Z" fill="#E9EAF4"/>
<path id="Vector_5" d="M308.007 433.74V428.924L301.132 430.73L285.839 421.881C285.22 421.6 284.544 421.469 283.865 421.498C283.186 421.527 282.524 421.716 281.931 422.049L267.061 430.622L260.029 428.768V433.957V435.161C260.023 435.209 260.023 435.258 260.029 435.305V435.426C260.067 435.608 260.147 435.779 260.262 435.925C260.377 436.071 260.524 436.189 260.693 436.269L282.221 448.778C282.839 449.058 283.515 449.19 284.193 449.163C284.872 449.135 285.535 448.95 286.129 448.622L307.09 436.582C307.333 436.472 307.546 436.306 307.71 436.096C307.874 435.886 307.984 435.64 308.031 435.378V433.788L308.007 433.74Z" fill="#D5D6E0"/>
<path id="Vector_6" d="M282.221 442.266L260.668 429.829C259.667 429.251 259.788 428.239 260.946 427.577L281.907 415.537C282.503 415.202 283.171 415.013 283.854 414.986C284.538 414.959 285.218 415.094 285.839 415.381L307.355 427.782C308.356 428.36 308.236 429.371 307.078 430.045L286.116 442.085C285.526 442.416 284.866 442.604 284.19 442.636C283.514 442.667 282.839 442.54 282.221 442.266Z" fill="#E9EAF4"/>
<path id="Vector_7" d="M284.006 428.817L155.68 314.148L412.682 309.344L284.006 428.817Z" fill="url(#paint0_linear)"/>
<path id="Vector_8" d="M281.509 364.379C382.303 364.379 464.012 282.81 464.012 182.189C464.012 81.5689 382.303 0 281.509 0C180.716 0 99.0063 81.5689 99.0063 182.189C99.0063 282.81 180.716 364.379 281.509 364.379Z" fill="#E9EAF4"/>
<g id="Group">
<path id="Vector_9" d="M233.508 73.8172L234.123 71.662V66.9905C233.254 67.0947 232.375 67.0947 231.506 66.9905C231.047 66.7858 231.361 65.5096 231.361 65.5096L233.508 63.6674L229.202 64.5825L227.658 66.9905L222.834 69.9644L224.993 71.1684L226.38 72.0834L228.454 72.3964V71.0359C228.454 71.0359 230.866 70.4219 231.457 71.3369L231.156 73.0345L233.508 73.8172ZM180.175 140.338C179.553 140.059 178.879 139.915 178.197 139.915C177.515 139.915 176.841 140.059 176.219 140.338C176.23 141.178 175.914 141.99 175.339 142.602C174.763 143.215 173.972 143.582 173.132 143.625L176.653 145.588L180.175 144.275L184.782 142.746L188.726 145.588C191.693 141.976 188.726 139.893 188.726 139.893L180.175 140.338ZM255.072 207.317L251.659 206.594L245.725 202.826H240.515L236.016 200.502H234.219C234.219 200.502 234.581 197.986 234.038 197.805C233.496 197.624 229.552 195.289 229.552 195.289L226.488 196.372V194.217L224.329 193.314H222.532L222.713 191.52C222.713 191.52 224.329 188.33 223.437 187.776C222.545 187.222 219.3 180.034 219.3 180.034L214.476 177.337H209.266L204.767 173.039L200.28 169.427L197.76 164.406L195.058 162.612C195.058 162.612 192.007 164.587 191.283 164.406C190.559 164.226 186.073 162.612 186.073 162.612L182.298 161.541L177.582 163.744V168.56L175.785 167.356V165.55L177.401 162.504L178.125 160.349L176.509 159.638L174.35 162.143L168.959 163.744L167.873 166.08L165.353 168.415L164.641 170.39L160.685 167.163C159.351 167.86 157.969 168.46 156.548 168.957C155.091 168.185 153.706 167.282 152.411 166.26L150.433 162.492L151.519 157.471L152.411 152.258L148.998 150.103H144.319L140.7 149.031L142.389 146.334L144.367 142.385L146.164 139.519C146.164 139.519 146.671 138.207 147.249 137.906C149.541 136.702 147.249 135.57 147.249 135.57C147.249 135.57 142.425 135.209 141.677 135.57C140.93 135.932 138.976 137.003 138.976 137.003V141.133L135.358 142.746L129.786 143.95L126.011 140.17C125.468 139.64 124.213 133.716 124.213 133.716L126.541 131.561L127.627 129.767L127.808 125.457L130.135 123.482L131.04 121.146L133.717 119.196L136.286 116.848L138.626 116.138L141.858 116.848C142.039 115.644 147.973 116.138 147.973 116.138L150.313 116.017L150.132 114.705C151.217 113.802 154.812 114.705 154.812 114.705L159.636 114.296C160.697 114.524 161.59 116.704 161.59 116.704L159.431 118.678L160.878 122.976L162.313 124.951L161.771 126.926L165.232 126.42L165.401 123.001L165.582 118.871L165.051 114.344L168.283 107.385L181.405 98.9567L181.224 95.8985L182.117 91.5039L184.457 92.3106L188.594 87.4103L193.985 85.6284L197.217 83.4371L198.833 80.1983L204.767 78.4044L210.701 75.3583L207.975 78.2599L207.613 80.7763L210.846 80.0539L213.728 78.4405L216.237 77.7301L218.577 77.0078L219.3 75.3944H217.684L215.163 74.4914C213.547 73.2874 211.545 71.8065 211.545 71.8065C211.508 71.5132 211.536 71.2153 211.628 70.9343C211.719 70.6532 211.872 70.396 212.076 70.1811L213.704 68.7242C213.704 68.7242 214.416 67.8574 213.885 67.8574C213.354 67.8574 209.386 66.9905 209.386 66.9905L205.069 68.7242H202.62L205.684 66.0634H209.097L212.872 65.1604H220.711L225.029 64.2574L228.105 62.6079L231.88 62.2226L232.965 58.1892L230.444 56.0341L226.826 54.1679L226.102 49.9298L224.124 45.6195H222.327L222.147 47.9552H219.276L218.552 49.388L217.479 50.1104L215.682 50.4716L214.054 48.8462L216.213 46.5225L213.704 44.1867L210.641 42.5734H207.444L205.105 43.2837L201.872 47.0522L199.352 49.2074L200.075 51.1819L199.159 54.1799L199.702 55.3839L196.638 56.4675L193.225 57.1779L191.79 56.8167L190.704 58.2615L192.682 62.2949L190.704 63.6434H188.015L185.735 60.7176L185.192 59.0561L186.809 58.1652L185.603 56.01L181.828 55.8294L176.798 52.711H174.458L173.916 50.7967L172.3 50.0863L174.639 47.3894L178.053 45.4148L183.986 43.2596L186.145 42.5493L190.813 41.4657L193.949 39.7319L196.819 37.2156H200.594L205.093 36.0838H207.975L209.181 32.7367H203.428L201.269 34.3861H197.494C196.693 33.5963 195.7 33.028 194.612 32.7367V31.4123L196.59 29.6183L199.159 27.6919C200.057 26.5463 200.784 25.277 201.318 23.9234L206.528 25.7174L210.472 25.5127L213.185 25.3561L216.599 25.5367L218.577 26.2591C218.034 27.6919 215.887 26.6204 215.887 26.6204L209.41 27.3307L206.528 28.8959L207.432 26.9214L204.369 27.102L200.751 29.4257L203.271 30.6899H209.205L212.438 31.8939L215.139 30.8223L218.01 31.8939L221.435 32.9775L217.298 34.2658L213.68 35.9634L210.062 36.746L207.191 37.8176L208.397 40.3339L215.947 40.1533L220.711 43.079H224.667L224.848 41.4657L225.741 39.8523L227.55 39.4911L226.102 37.5166L225.572 36.0236H227.719L229.528 37.3359C230.963 38.4195 234.014 36.0236 234.014 36.0236L238.513 34.3259L232.941 32.6765L231.144 30.8825C231.674 29.7989 225.21 28.1855 225.21 28.1855L220.169 25.1394L218.962 23.8752H214.681L218.094 22.4425L226.537 23.3334L230.854 22.4425L240.744 19.9261L247.39 18.3127L252.214 16.5188L246.63 15.6519C246.63 15.6519 242.674 16.7355 242.131 16.7355C241.588 16.7355 236.921 17.0967 236.378 17.0967H223.787L219.843 17.9877L223.461 18.8907L221.302 20.0947H217.527L215.368 20.8171L218.239 18.6619L215.187 17.9395L211.412 18.8425L206.733 21.5274L208.892 22.2498L211.955 21.0458L214.464 21.5756L211.774 22.298L210.689 23.7307L212.486 24.2725L207.662 24.6337L199.219 23.201L195.806 27.3187L188.967 32.1347L190.765 33.5674L189.558 34.3259L187.942 35.1808L183.263 34.3259L176.798 36.0236L164.93 38.9493L125.263 77.0559L109.439 97.6443L100.273 152.571L116.446 147.189L118.967 149.874L123.285 150.596L126.167 152.39L129.219 151.186L131.739 153.703L137.311 156.749L142.703 157.471L144.319 162.853C144.319 162.853 148.094 166.26 147.937 166.983C147.78 167.705 149.143 170.932 149.915 170.932C151.714 171.573 153.46 172.354 155.137 173.268L158.189 173.617L159.395 170.932H162.096V173.617L163.182 175.061L163.531 179.179L164.617 182.237L162.82 184.212L159.937 187.824L156.319 192.82L156.681 197.636L155.776 200.863L158.478 201.766L156.138 204.993C156.616 206.346 157.018 207.725 157.344 209.123C157.902 210.662 158.563 212.162 159.322 213.614L161.843 215.769L162.928 219.381L169.043 231.938L173.349 235.55L179.645 238.777C179.645 238.777 183.6 243.088 183.781 243.593C183.962 244.099 185.94 252.021 185.94 252.021L185.856 256.452L187.062 261.111L187.424 266.325L187.966 273.549L189.763 279.292L191.38 286.829L189.402 289.345L190.608 293.066L192.055 298.496L194.564 301.193L194.395 305.503L194.925 309.801L206.082 321.648L208.228 323.984V318.422L211.847 316.339V313.04L208.228 311.427V308.91L210.001 307.297L211.786 304.419V302.083C213.27 301.554 211.786 299.928 211.786 299.928H209.314L209.133 297.605H211.473L212.438 299.037L214.343 297.605L212.908 294.727C213.27 293.836 215.791 294.727 215.791 294.727L220.096 292.211L221.893 290.068V287.19L219.843 285.348L218.034 282.47H220.193C220.193 282.47 223.437 284.096 224.51 282.47C225.584 280.845 227.212 278.702 227.212 278.702L229.19 274.042C229.19 274.042 232.965 267.216 233.327 266.674C233.689 266.132 233.327 259.45 233.327 259.45L239.261 254.634H243.217L246.449 249.24L248.97 245.7V239.68L249.862 233.937L248.451 228.326L253.48 221.68L257.255 218.068L255.82 211.434L255.072 207.317ZM295.138 66.2801L296.344 66.9905L297.984 65.5697H300.312L302.459 64.8474L303.424 63.5229L302.965 61.6929L303.882 60.7176C303.991 59.2367 301.639 58.1652 301.639 58.1652H300.312L298.672 60.0554H296.935L296.32 62.1986L296.573 63.8119L295.138 64.7029V66.2801ZM305.993 52.711L304.159 53.5298V56.2869L304.364 56.9973C304.499 57.5655 304.568 58.1472 304.569 58.731L305.896 59.6461L307.223 60.4648L307.838 61.6688C307.838 61.6688 307.633 62.8728 306.921 62.8728L305.281 63.3905L305.896 64.5102C305.896 64.5102 304.69 65.1243 304.569 65.6299L305.691 66.4487L304.666 67.4721H302.423V68.6761H307.126L309.068 67.4721L311.926 67.9777C311.926 67.9777 314.278 67.4721 314.785 67.4721L314.375 66.9544L315.098 66.0393L316.22 64.7149L314.785 64.137L313.157 63.6313L313.362 61.8976L311.818 60.6936L309.478 59.4173L309.273 57.0695L309.478 55.0347H307.066L306.559 54.0114L307.983 52.687L305.993 52.711ZM319.38 61.4882V60.7176H321.02L321.937 60.0554V57.5029L323.143 56.8889L322.733 54.8542L320.815 54.1799L317.957 55.0949V56.5879L316.22 56.7926L315.81 58.1652L317.016 58.731L315.074 59.8507L314.556 60.7176L316.196 62.1986L319.38 61.4882ZM422.379 123.338L429.133 126.95L432.618 125.601L434.934 128.876L441.121 130.237L443.822 131.585L451.36 111.719L449.202 101.136L415.432 45.9686L405.349 38.5279H393.18L387.764 39.2985L386.414 42.0075L383.531 40.9359L382.168 38.5279H379.454L380.661 39.7319L381.637 41.6704H377.38V44.0663L374.341 43.6208L372.495 43.3439L371.458 43.8616L372.423 44.4516L373.762 44.7526L372.556 45.1981L370.94 44.5479L368.925 43.8737L368.322 42.5372L366.839 41.3332L365.126 41.1045L363.92 39.6958L366.549 39.9246L368.865 40.96L370.795 41.1887C370.795 41.1887 372.001 40.8878 372.134 41.1045C373.056 41.3984 374.005 41.6 374.968 41.7065L376.536 40.5025L373.882 38.5279L369.179 37.1433C369.179 37.1433 361.279 36.0597 360.905 36.0838C359.771 35.7992 358.652 35.4576 357.552 35.0604L354.802 34.3861H348.772L339.606 36.0838L334.54 39.2985L328.51 44.7285C328.51 44.7285 323.3 45.475 322.998 45.5472C322.143 46.2585 321.337 47.0268 320.586 47.8469L321.792 50.4595L321.491 51.6636L322.311 52.3257L322.914 53.5298L323.734 54.7337L326.785 54.2883L330.066 52.4341L332.599 53.7705L334.54 57.1177L334.902 59.1284L337.218 59.5738L338.786 58.2374L340.426 57.8642L341.318 55.1792L341.463 53.0963L343.707 52.4341V51.0616L342.886 50.4716L341.837 49.7974L341.463 47.3894L344.876 45.2342C344.876 45.2342 346.686 43.5968 346.686 43.3078C346.686 43.0188 347.578 42.0316 347.578 42.0316C347.578 42.0316 349.001 42.1158 349.447 42.1881C349.894 42.2603 352.27 43.079 352.27 43.079L353.174 43.7533L350.412 45.0897L348.784 46.7272L347.578 47.5459L348.7 50.1465L351.606 51.6395L354.211 51.1097L358.348 50.905C358.348 50.905 363.088 51.8562 363.305 52.0127C363.522 52.1692 361.942 52.6749 361.942 52.6749L360.097 53.1926L359.06 53.8669L357.299 52.9759C356.589 52.4797 355.752 52.1957 354.887 52.1572C354.157 52.2988 353.468 52.6034 352.873 53.0482L353.994 54.7578L355.55 55.8053C355.55 55.8053 354.887 57.7317 354.441 57.6595C353.994 57.5872 353.234 56.2508 353.234 56.2508L351.51 55.5765L350.4 56.2508L350.545 57.8882L350.062 60.1999L348.205 61.4039L346.854 62.4514L345.069 61.4039L342.766 62.0782L338.737 61.8494L337.845 62.6681L336.422 62.0782C336.422 62.0782 332.924 62.2226 332.695 62.2949C331.895 62.0264 331.123 61.6795 330.391 61.2594L329.499 59.2487L330.609 57.9123L330.09 57.3103L329.644 56.2026L330.391 55.2996L329.27 55.0107L327.412 56.8648L327.328 58.6588C327.328 58.6588 328.305 60.3685 328.377 60.5852C328.433 61.105 328.457 61.6277 328.45 62.1504L326.592 62.8969L324.578 63.4868L324.952 64.2333L327.039 64.6066L326.363 65.8106L325.157 65.8828L324.566 67.3758L324.192 68.1945L322.552 67.749L322.624 66.7015L322.697 65.3651L322.033 64.6908L321.056 65.7383L320.019 67.0747L317.607 67.5202L316.485 68.4112L315.738 70.0486L313.953 70.8674L312.542 71.7583L310.371 70.6506L310.081 71.1684L310.527 72.276L310.009 72.878L307.175 72.6493L305.607 72.4326L305.378 74.5155L308.139 74.9609L309.478 76.1649C309.478 76.1649 310.527 77.4291 310.745 77.4291C310.962 77.4291 312.469 77.8024 312.469 77.8024L311.866 81.0773L310.527 84.1234L304.931 84.0511L298.829 83.9067L296.887 84.6411L296.284 86.3508L296.814 88.1448L295.729 91.5039L295.283 93.2979C295.285 93.9095 295.354 94.5191 295.488 95.1159C295.645 95.3326 296.537 96.8978 296.537 96.8978L295.862 99.4262L297.876 100.028L301.229 100.245L303.014 101.22L304.364 101.437L306.596 100.474L309.949 100.028L313.084 97.4156L312.566 94.225L314.495 91.817L318.596 89.2163L320.381 88.6143L320.164 85.9414L322.576 84.5207L324.988 85.3394L326.629 84.4485L331.67 82.9073L336.663 87.5307L343.514 92.2143C343.514 92.2143 344.937 95.0437 345.009 95.2604C344.737 95.9454 344.385 96.596 343.96 97.1988H340.112L338.665 97.5239C338.665 97.5239 339.111 98.6316 339.401 98.6316C339.69 98.6316 342.766 100.052 342.766 100.052L343.731 100.799L344.249 100.642L344.177 99.2336L344.478 97.8971L345.516 98.0416C345.938 97.5825 346.314 97.0824 346.637 96.5487C346.95 95.8895 347.296 95.2465 347.674 94.6223L346.854 93.0571L347.313 92.0096L348.519 92.1661L348.663 93.7193H349.11L348.965 91.7929L347.759 91.0464L346.143 89.9748L345.021 88.3494L343.079 87.8197L340.848 86.2545L340.329 84.4726L338.243 83.4371L337.7 81.7997L338.303 80.09L339.642 79.8612L339.714 81.4987L341.053 81.9441L341.958 81.4264L343.296 83.8344L346.046 85.3876L348.217 86.5916L349.556 86.7481L351.787 89.1561L352.318 92.2745L356.491 96.5968L357.082 99.643L360.061 101.726L360.881 101.052L360.435 99.1252L362.075 98.2343L361.556 96.8858L359.904 96.3199L359.229 94.9835L359.53 92.8163L358.565 91.7086L359.458 91.8531L360.121 92.6718L361.17 91.2631L362.955 91.3354L364.752 92.0818L366.091 93.9119L367.43 95.9948C367.43 95.9948 366.537 96.5126 366.465 96.7413C366.642 97.3172 366.893 97.8677 367.213 98.3787L368.925 99.9319L370.264 101.81L372.942 101.738L373.243 102.942L375.185 103.159L377.042 102.713L377.573 101.509L378.393 102.629L380.552 103.375L382.409 103.231L383.977 101.509L385.388 102.111L386.438 102.773L386.064 104.266L386.992 107.324L385.642 110.419V114.464H377.501L374.413 115.668L369.408 113.176L366.127 113.561L360.519 111.538H356.081L354.73 112.742L355.502 114.862L353.765 116.595L349.315 113.898L345.841 114.284L344.49 111.972L339.268 110.431L335.65 108.685L332.876 107.324L336.156 103.472L335.192 100.197L332.876 98.8363L319.151 100.389L313.748 102.508L310.262 102.701L306.644 104.05L302.206 103.086L299.299 106.554L295.825 108.866L292.69 115.427L293.51 118.317L289.457 122.182L285.405 123.723L283.475 127.335C283.475 127.335 279.218 136.786 278.832 137.557C278.446 138.327 278.832 143.156 278.832 143.156L280.569 148.742L276.516 158.193L278.06 162.829L280.183 167.067L285.791 174.977L285.622 178.95L297.176 187.728L304.919 184.621L312.373 186.981L321.635 181.972C321.635 181.972 324.735 181.972 325.7 183.706C326.665 185.44 327.244 186.981 330.717 186.981C334.191 186.981 335.939 190.846 335.939 190.846L334.396 195.277L335.167 197.588L333.624 201.2L337.242 208.713L339.944 214.505L342.464 220.103L343.043 227.231L342.464 231.288L338.014 239.006L339.365 250.962L340.908 253.659L340.329 255.585L343.043 258.487L344.78 265.229L343.236 271.598L345.552 276.414C345.552 276.414 347.674 281.628 347.867 282.205C348.06 282.783 349.411 284.71 349.218 285.673C349.025 286.636 348.446 289.153 348.446 289.153L349.218 293.005H359.072L363.715 291.464L375.113 279.894C376.154 278.665 377.121 277.374 378.007 276.029C378.2 275.451 379.744 268.323 379.744 268.323L387.861 265.036V258.739L386.124 253.719L390.369 249.673L401.779 243.112L402.744 238.091V229.422L400.609 222.86L401.188 218.815L399.21 217.069L402.888 211.675L404.239 204.535L409.642 201.261L410.849 197.974L420.702 187.776L423.802 178.071L426.696 172.714V166.922L423.995 165.959L420.895 168.464L416.65 168.849L412.211 170.053L408.533 167.729L408.919 164.84L404.287 159.638L399.644 156.929L397.521 149.994L392.987 145.684L392.601 140.29L389.308 135.474L385.256 126.42L380.998 122.182L380.612 118.702L382.361 119.485L384.291 121.026L385.063 123.916C386.606 123.916 387.185 121.026 387.185 121.026L388.536 123.916L389.887 127.528L394.144 133.897L396.46 134.282L399.162 139.881L398.969 142.385L406.7 150.295L408.05 157.616L409.401 160.902L411.922 163.407L423.512 160.325L425.635 158.386L430.652 156.845V154.533L436.453 150.681L438.866 146.202L440.265 143.926L442.206 141.229L439.01 136.835L434.548 133.066L433.125 129.454L431.484 129.839L430.278 133.307L425.84 134.511L423.524 132.97L422.752 129.695L421.209 130.08L418.881 125.83L416.758 124.626L414.057 120.195L415.986 118.064L422.379 123.338ZM331.923 94.9473L332.333 93.1052V90.4564C331.915 90.0853 331.401 89.8391 330.85 89.7461C330.454 89.7467 330.072 89.8923 329.776 90.1554V93.1052C329.881 93.7149 329.881 94.3377 329.776 94.9473H331.923ZM331.923 86.9889C331.946 86.7998 331.924 86.6081 331.858 86.4293C331.792 86.2506 331.685 86.09 331.544 85.9607C331.404 85.8315 331.236 85.7372 331.052 85.6857C330.868 85.6342 330.675 85.627 330.488 85.6645L329.776 87.6993L330.488 89.2284H331.923V86.9889ZM279.218 34.3259H286.454L290.398 28.6551H299.48L300.939 25.0431L306.523 22.0933C309.165 19.7937 306.523 15.6278 306.523 15.6278L295.138 14.2071L283.825 15.6519L267.374 12.5938L257.231 17.193C257.231 17.193 249.934 21.1301 248.945 20.805C246.975 20.6389 244.994 20.6389 243.024 20.805C243.024 20.805 246.642 24.0799 248.282 24.417C249.481 24.6011 250.701 24.6011 251.9 24.417C251.9 24.417 251.9 27.6197 252.564 28.3541C254.867 30.9909 250.152 32.9534 250.152 32.9534V36.0597C250.152 36.0597 250.67 41.9232 251.647 41.6583C252.624 41.3934 254.228 44.7767 254.228 44.7767L257.255 48.0636H262.791L269.702 39.8523L276.504 36.9025L279.218 34.3259ZM421.353 230.746L420.461 228.339L419.436 229.35L418.543 231.397L416.505 232.601L415.613 235.286L414.334 238.464L409.353 239.993L407.182 243.689L406.676 249.806L404.891 252.84L402.852 255.007L403.612 258.619L405.023 260.281L403.612 262.183L405.023 263.387H409.739L412.416 259.438C412.416 259.438 414.587 254.851 414.587 254.465C414.587 254.08 415.613 249.878 415.613 249.878L419.303 245.062V238.392H421.86L421.1 233.672L421.353 230.746ZM163.724 133.042L158.128 131.14C158.128 131.14 156.572 131.356 154.751 131.79C153.411 132.059 152.102 132.462 150.844 132.994L158.779 135.691H161.988L167.343 140.29H170.961C170.961 140.29 173.916 138.978 172.927 136.678L168.332 135.029L163.724 133.042Z" fill="#8C50FF"/>
</g>
<path id="Vector_10" opacity="0.05" d="M299.251 323.877C270.821 323.857 242.788 317.212 217.384 304.47C191.981 291.727 169.909 273.239 152.925 250.479C135.942 227.718 124.517 201.313 119.559 173.367C114.602 145.42 116.249 116.705 124.37 89.5059C111.224 111.714 102.951 136.456 100.099 162.095C97.2475 187.733 99.8813 213.684 107.827 238.231C115.772 262.777 128.848 285.36 146.189 304.485C163.53 323.61 184.741 338.841 208.419 349.171C232.098 359.501 257.703 364.694 283.542 364.407C309.381 364.12 334.864 358.359 358.307 347.506C381.749 336.653 402.615 320.954 419.526 301.449C436.436 281.943 449.006 259.076 456.402 234.359C440.271 261.638 417.29 284.243 389.729 299.942C362.169 315.641 330.982 323.891 299.251 323.877Z" fill="black"/>
<path id="Vector_11" opacity="0.4" d="M32.781 602L0 583.278L49.063 555.236L81.844 573.959L32.781 602Z" fill="#D6D8E5"/>
<path id="Vector_12" d="M33.4685 564.255L6.31982 548.603L33.4685 532.963L60.6172 548.603L33.4685 564.255Z" fill="#E9EAF4"/>
<path id="Vector_13" d="M33.4685 595.547L6.31982 579.895V548.604L33.4685 564.256V595.547Z" fill="#C5C7D3"/>
<path id="Vector_14" d="M60.6172 579.895L33.4685 595.547V564.256L60.6172 548.604V579.895Z" fill="#D5D6E0"/>
<g id="Men 5">
<path id="Vector_15" d="M69.9519 570.058C72.3043 570.701 74.8156 570.399 76.9471 569.215C78.6236 569.215 87.8018 565.35 89.0078 568.637C90.0933 571.503 86.1374 574.164 84.0147 574.657C79.3955 575.777 75.9823 578.077 74.1249 578.462C72.7379 578.751 70.9529 578.943 69.8554 577.86C68.5408 576.584 68.6614 571.768 69.9519 570.058Z" fill="#38226D"/>
<path id="Vector_16" d="M74.1372 577.693C75.9945 577.296 79.4077 575.008 84.027 573.888C85.7999 573.455 88.8513 571.48 89.1648 569.217C89.5749 571.854 86.0049 574.201 84.027 574.683C79.4077 575.803 75.9945 578.102 74.1372 578.488C72.7502 578.777 70.9652 578.969 69.8677 577.886C69.5815 577.569 69.3747 577.19 69.2646 576.778C69.9488 577.3 70.7459 577.654 71.592 577.813C72.4382 577.972 73.3099 577.931 74.1372 577.693Z" fill="#9C73FF"/>
<path id="Vector_17" d="M53.4651 561.294C55.817 561.944 58.3308 561.641 60.4603 560.451C62.1368 560.451 71.315 556.587 72.521 559.874C73.6186 562.751 69.6506 565.412 67.54 565.894C62.9207 567.013 59.5075 569.313 57.6502 569.698C56.2632 569.987 54.4782 570.18 53.3807 569.096C52.054 567.82 52.1746 563.004 53.4651 561.294Z" fill="#38226D"/>
<path id="Vector_18" d="M57.6502 568.927C59.5076 568.542 62.9207 566.242 67.54 565.123C69.3129 564.689 72.3643 562.715 72.6779 560.451C73.0879 563.1 69.518 565.436 67.54 565.917C62.9207 567.037 59.5076 569.337 57.6502 569.722C56.2632 570.011 54.4782 570.204 53.3807 569.12C53.0929 568.808 52.8823 568.432 52.7656 568.024C53.4544 568.542 54.254 568.893 55.1015 569.049C55.9491 569.206 56.8215 569.164 57.6502 568.927Z" fill="#9C73FF"/>
<path id="Vector_19" d="M27.7394 549.928C34.8673 553.058 41.5972 553.54 47.0969 550.602L52.7775 547.327C53.1152 554.647 53.4408 561.679 53.4408 561.679C53.4408 561.679 57.7947 564.978 61.1838 562.04C61.1838 562.04 61.8954 551.758 62.619 541.656L68.6132 538.189C68.4787 538.729 68.4059 539.282 68.3961 539.838C68.3961 541.765 69.771 570.299 69.771 570.299C69.771 570.299 74.1611 572.912 77.5502 569.974C77.5502 569.974 79.8297 536.9 80.3603 531.615C80.9513 525.679 74.33 522.753 70.157 524.27L63.7648 526.678C63.8975 525.017 64.006 523.729 64.0784 523.006C64.6694 517.058 58.048 514.133 53.8871 515.65C50.0759 517.034 24.3504 526.666 24.3504 526.666C24.5131 529.138 24.8151 531.598 25.2549 534.035L15.0998 533.18C14.4726 542.716 20.6598 546.797 27.7394 549.928ZM45.541 533.493L52.3433 529.568C52.2267 530.047 52.15 530.534 52.1141 531.025L45.541 533.493Z" fill="#8C50FF"/>
<path id="Vector_20" d="M9.51587 504.225C9.51587 504.225 10.3481 516.855 12.0124 518.673C13.6768 520.491 19.2489 521.731 19.2489 521.731L23.5666 528.834C23.5666 528.834 19.6228 506.271 18.7423 505.73C17.8619 505.188 9.51587 504.225 9.51587 504.225Z" fill="#FFCEA9"/>
<path id="&#60;&#208;&#154;&#208;&#190;&#208;&#189;&#209;&#130;&#209;&#131;&#209;&#128;&#62;" d="M17.8256 490.209C16.7719 489.722 15.5757 489.638 14.4641 489.974C13.3525 490.309 12.4029 491.039 11.7953 492.027C10.2153 494.652 8.56299 503.67 8.44238 505.211C8.44238 505.211 10.6736 508.293 14.0144 507.776L17.8256 490.209Z" fill="#EDEDED"/>
<path id="&#60;&#208;&#154;&#208;&#190;&#208;&#189;&#209;&#130;&#209;&#131;&#209;&#128;&#62;_2" d="M19.2971 490.366C21.4801 490.475 23.1083 491.041 23.3736 490.366C23.6135 489.242 23.7827 488.104 23.8802 486.959C23.6269 486.333 23.4098 485.647 23.4098 485.647C20.66 483.961 19.7916 480.999 19.4418 477.556C18.8267 471.668 22.0108 466.503 27.8843 465.889C33.4323 465.311 37.5329 469.2 38.6063 474.546C39.1973 477.195 40.3672 482.179 38.7872 486.513C37.9068 488.921 36.761 490.872 35.6273 491.245C34.5289 491.217 33.4333 491.12 32.3468 490.956C32.3468 490.956 32.0573 492.594 31.8523 493.653C31.6473 494.713 31.7317 495.255 33.8182 496.543C35.9047 497.831 30.6583 500.48 27.221 500.215C23.7837 499.95 19.9122 497.891 18.8509 495.664C17.7413 493.22 17.8378 490.294 19.2971 490.366Z" fill="#FFCEA9"/>
<g id="&#60;&#208;&#147;&#209;&#128;&#209;&#131;&#208;&#191;&#208;&#191;&#208;&#176;&#62;">
<g id="&#60;&#208;&#147;&#209;&#128;&#209;&#131;&#208;&#191;&#208;&#191;&#208;&#176;&#62;_2">
<g id="&#60;&#208;&#147;&#209;&#128;&#209;&#131;&#208;&#191;&#208;&#191;&#208;&#176;&#62;_3">
<path id="&#60;&#208;&#154;&#208;&#190;&#208;&#189;&#209;&#130;&#209;&#131;&#209;&#128;&#62;_3" d="M74.6919 528.977C74.6919 529.286 74.6105 529.59 74.456 529.859C74.3016 530.127 74.0793 530.35 73.8115 530.506L57.1556 540.138C56.8857 540.292 56.5801 540.373 56.2691 540.373C55.9582 540.373 55.6526 540.292 55.3827 540.138L32.0331 526.653C31.7622 526.5 31.5368 526.277 31.3801 526.009C31.2233 525.74 31.1407 525.435 31.1406 525.124V524.943L74.6919 528.977Z" fill="#E5E5E5"/>
<path id="&#60;&#208;&#154;&#208;&#190;&#208;&#189;&#209;&#130;&#209;&#131;&#209;&#128;&#62;_4" d="M73.8115 530.507L57.1557 540.139C56.8834 540.292 56.5756 540.371 56.2632 540.368V529.002H74.692C74.6877 529.307 74.6044 529.606 74.4502 529.87C74.2959 530.134 74.0759 530.353 73.8115 530.507Z" fill="#E5E5E5"/>
<g id="&#60;&#208;&#147;&#209;&#128;&#209;&#131;&#208;&#191;&#208;&#191;&#208;&#176;&#62;_4">
<path id="&#60;&#208;&#154;&#208;&#190;&#208;&#189;&#209;&#130;&#209;&#131;&#209;&#128;&#62;_5" d="M56.8903 539.236C56.7069 539.341 56.499 539.397 56.2873 539.397C56.0755 539.397 55.8676 539.341 55.6842 539.236L31.3577 525.245C31.0442 525.077 31.0442 524.788 31.3577 524.607L49.2197 514.301L74.6678 528.978L56.8903 539.236Z" fill="#F4F4F4"/>
</g>
<g id="&#60;&#208;&#147;&#209;&#128;&#209;&#131;&#208;&#191;&#208;&#191;&#208;&#176;&#62;_5">
<path id="&#60;&#208;&#154;&#208;&#190;&#208;&#189;&#209;&#130;&#209;&#131;&#209;&#128;&#62;_6" d="M41.344 528.978L41.4646 529.038L49.2438 533.529L53.5133 531.061L53.6339 531L45.7341 526.449L41.344 528.978Z" fill="#BFBFBF"/>
<path id="&#60;&#208;&#154;&#208;&#190;&#208;&#189;&#209;&#130;&#209;&#131;&#209;&#128;&#62;_7" d="M41.4646 529.038L49.2438 533.529L53.5133 531.061L45.7341 526.582L41.4646 529.038Z" fill="#E5E5E5"/>
</g>
<path id="Vector_21" d="M68.0947 529.76L69.2164 530.41C69.2729 530.437 69.3347 530.451 69.3973 530.451C69.4599 530.451 69.5217 530.437 69.5782 530.41L70.6516 529.796C70.7601 529.796 70.7601 529.64 70.6516 529.592L69.5299 528.941C69.4742 528.912 69.4121 528.896 69.349 528.896C69.286 528.896 69.2238 528.912 69.1681 528.941L68.1068 529.555C68.0224 529.555 68.0103 529.64 68.0947 529.76Z" fill="#3A2C6D"/>
<path id="Vector_22" d="M66.5147 528.786L67.6363 529.436C67.6908 529.462 67.7506 529.476 67.8112 529.476C67.8718 529.476 67.9317 529.462 67.9861 529.436L69.0595 528.822C69.1681 528.762 69.1801 528.665 69.0595 528.617L67.9379 527.967C67.8843 527.937 67.8241 527.922 67.763 527.922C67.7018 527.922 67.6416 527.937 67.5881 527.967L66.5147 528.581C66.4303 528.641 66.4182 528.725 66.5147 528.786Z" fill="#3A2C6D"/>
<path id="Vector_23" d="M64.9229 527.869L66.0445 528.52C66.101 528.546 66.1628 528.56 66.2254 528.56C66.288 528.56 66.3498 528.546 66.4063 528.52L67.4677 527.906C67.5762 527.845 67.5883 527.749 67.4677 527.701L66.346 527.051C66.2903 527.021 66.2282 527.006 66.1651 527.006C66.102 527.006 66.0399 527.021 65.9842 527.051L64.9108 527.665C64.8505 527.725 64.8384 527.809 64.9229 527.869Z" fill="#3A2C6D"/>
<path id="Vector_24" d="M63.3428 526.956L64.4645 527.606C64.5189 527.632 64.5787 527.646 64.6393 527.646C64.7 527.646 64.7598 527.632 64.8142 527.606L65.8876 526.992C65.9962 526.931 66.0082 526.835 65.8876 526.787L64.766 526.137C64.7103 526.107 64.6481 526.092 64.5851 526.092C64.522 526.092 64.4599 526.107 64.4042 526.137L63.3428 526.751C63.2584 526.811 63.2463 526.895 63.3428 526.956Z" fill="#3A2C6D"/>
<path id="Vector_25" d="M61.7508 526.039L62.8724 526.69C62.9269 526.716 62.9867 526.73 63.0473 526.73C63.1079 526.73 63.1677 526.716 63.2222 526.69L64.2956 526.076C64.4041 526.015 64.4162 525.919 64.2956 525.871L63.1739 525.221C63.1204 525.191 63.0602 525.176 62.9991 525.176C62.9379 525.176 62.8777 525.191 62.8242 525.221L61.7508 525.835C61.6664 525.895 61.6543 525.979 61.7508 526.039Z" fill="#3A2C6D"/>
<path id="Vector_26" d="M60.1587 525.125L61.2804 525.776C61.3369 525.802 61.3987 525.816 61.4613 525.816C61.5239 525.816 61.5857 525.802 61.6422 525.776L62.7156 525.161C62.8121 525.101 62.8242 525.005 62.7156 524.957L61.594 524.307C61.5382 524.277 61.4761 524.262 61.413 524.262C61.35 524.262 61.2879 524.277 61.2321 524.307L60.1587 524.921C60.0864 524.945 60.0743 525.065 60.1587 525.125Z" fill="#3A2C6D"/>
<path id="Vector_27" d="M58.5787 524.209L59.7003 524.859C59.7548 524.886 59.8146 524.9 59.8752 524.9C59.9358 524.9 59.9956 524.886 60.0501 524.859L61.1235 524.245C61.232 524.245 61.2441 524.089 61.1235 524.041L60.0018 523.391C59.9461 523.361 59.884 523.346 59.8209 523.346C59.7578 523.346 59.6957 523.361 59.64 523.391L58.5787 524.005C58.4942 524.065 58.4822 524.149 58.5787 524.209Z" fill="#3A2C6D"/>
<path id="Vector_28" d="M56.9869 523.295L58.1085 523.946C58.165 523.972 58.2268 523.986 58.2894 523.986C58.352 523.986 58.4138 523.972 58.4703 523.946L59.5317 523.332C59.6402 523.271 59.6523 523.175 59.5317 523.127L58.41 522.477C58.3565 522.447 58.2963 522.432 58.2351 522.432C58.174 522.432 58.1138 522.447 58.0603 522.477L56.9869 523.091C56.9024 523.151 56.8904 523.235 56.9869 523.295Z" fill="#3A2C6D"/>
<path id="Vector_29" d="M55.3948 522.379L56.5165 523.029C56.573 523.056 56.6348 523.07 56.6974 523.07C56.76 523.07 56.8217 523.056 56.8783 523.029L57.9517 522.415C58.0482 522.355 58.0602 522.259 57.9517 522.211L56.83 521.561C56.7743 521.531 56.7122 521.516 56.6491 521.516C56.5861 521.516 56.5239 521.531 56.4682 521.561L55.3948 522.175C55.3225 522.235 55.3104 522.319 55.3948 522.379Z" fill="#3A2C6D"/>
<path id="Vector_30" d="M53.8147 521.465L54.9364 522.115C54.9908 522.141 55.0507 522.155 55.1113 522.155C55.1719 522.155 55.2317 522.141 55.2862 522.115L56.3596 521.501C56.4681 521.441 56.4802 521.344 56.3596 521.296L55.2379 520.646C55.1835 520.619 55.1236 520.605 55.063 520.605C55.0024 520.605 54.9426 520.619 54.8881 520.646L53.8147 521.272C53.7303 521.332 53.7183 521.404 53.8147 521.465Z" fill="#3A2C6D"/>
<path id="Vector_31" d="M52.2227 520.551L53.3443 521.201C53.4009 521.227 53.4627 521.241 53.5253 521.241C53.5878 521.241 53.6496 521.227 53.7062 521.201L54.7675 520.587C54.8761 520.526 54.8881 520.43 54.7675 520.382L53.6459 519.732C53.5914 519.705 53.5316 519.691 53.471 519.691C53.4104 519.691 53.3506 519.705 53.2961 519.732L52.2227 520.358C52.1383 520.406 52.1262 520.49 52.2227 520.551Z" fill="#3A2C6D"/>
<path id="Vector_32" d="M50.655 519.635L51.7766 520.285C51.8332 520.312 51.895 520.326 51.9575 520.326C52.0201 520.326 52.0819 520.312 52.1384 520.285L53.2118 519.671C53.3083 519.611 53.3204 519.514 53.2118 519.466L52.0902 518.816C52.0337 518.789 51.9719 518.775 51.9093 518.775C51.8467 518.775 51.7849 518.789 51.7284 518.816L50.667 519.442C50.5585 519.49 50.5464 519.575 50.655 519.635Z" fill="#3A2C6D"/>
<path id="Vector_33" d="M49.0508 518.719L50.1725 519.357C50.226 519.386 50.2862 519.402 50.3474 519.402C50.4085 519.402 50.4687 519.386 50.5222 519.357L51.5956 518.743C51.7042 518.743 51.7162 518.586 51.5956 518.538L50.474 517.888C50.4195 517.861 50.3597 517.848 50.2991 517.848C50.2385 517.848 50.1787 517.861 50.1242 517.888L49.0508 518.514C48.9664 518.574 48.9543 518.659 49.0508 518.719Z" fill="#3A2C6D"/>
<path id="Vector_34" d="M46.699 517.36L48.5805 518.443C48.6362 518.473 48.6983 518.488 48.7614 518.488C48.8244 518.488 48.8866 518.473 48.9423 518.443L50.0036 517.829C50.1122 517.769 50.1242 517.673 50.0036 517.625L48.1101 516.541C48.0565 516.512 47.9964 516.496 47.9352 516.496C47.874 516.496 47.8139 516.512 47.7603 516.541L46.6869 517.155C46.6146 517.215 46.6025 517.312 46.699 517.36Z" fill="#3A2C6D"/>
<path id="Vector_35" d="M64.2112 529.231L65.3329 529.869C65.3864 529.898 65.4466 529.914 65.5078 529.914C65.5689 529.914 65.6291 529.898 65.6826 529.869L66.756 529.255C66.8646 529.195 66.8766 529.098 66.756 529.05L65.6344 528.4C65.5778 528.373 65.5161 528.359 65.4535 528.359C65.3909 528.359 65.3291 528.373 65.2726 528.4L64.2112 529.026C64.1268 529.086 64.1147 529.171 64.2112 529.231Z" fill="#3A2C6D"/>
<path id="Vector_36" d="M62.6192 528.315L63.7408 528.953C63.7944 528.982 63.8545 528.998 63.9157 528.998C63.9769 528.998 64.037 528.982 64.0906 528.953L65.164 528.339C65.2725 528.278 65.2846 528.182 65.164 528.134L64.0424 527.484C63.9879 527.457 63.9281 527.443 63.8675 527.443C63.8069 527.443 63.747 527.457 63.6926 527.484L62.6192 528.11C62.5348 528.17 62.5227 528.254 62.6192 528.315Z" fill="#3A2C6D"/>
<path id="Vector_37" d="M61.0271 527.352L62.1488 527.99C62.2023 528.019 62.2625 528.035 62.3237 528.035C62.3848 528.035 62.445 528.019 62.4986 527.99L63.572 527.376C63.6805 527.316 63.6926 527.219 63.572 527.171L62.4503 526.521C62.3959 526.494 62.336 526.48 62.2754 526.48C62.2148 526.48 62.155 526.494 62.1006 526.521L61.0271 527.135C60.9427 527.243 60.9307 527.352 61.0271 527.352Z" fill="#3A2C6D"/>
<path id="Vector_38" d="M59.4351 526.473L60.5568 527.123C60.6133 527.15 60.6751 527.164 60.7377 527.164C60.8002 527.164 60.862 527.15 60.9186 527.123L61.9799 526.509C62.0885 526.449 62.1005 526.353 61.9799 526.305L60.8583 525.654C60.8047 525.625 60.7446 525.609 60.6834 525.609C60.6222 525.609 60.5621 525.625 60.5085 525.654L59.4351 526.268C59.3507 526.329 59.3386 526.425 59.4351 526.473Z" fill="#3A2C6D"/>
<path id="Vector_39" d="M57.8914 525.571L59.013 526.221C59.0696 526.248 59.1314 526.262 59.194 526.262C59.2565 526.262 59.3183 526.248 59.3749 526.221L60.4362 525.607C60.5448 525.607 60.5568 525.45 60.4362 525.402L59.3146 524.752C59.2588 524.722 59.1967 524.707 59.1336 524.707C59.0706 524.707 59.0085 524.722 58.9527 524.752L57.8793 525.366C57.7828 525.426 57.7708 525.51 57.8914 525.571Z" fill="#3A2C6D"/>
<path id="Vector_40" d="M56.2632 524.655L57.3849 525.293C57.4406 525.322 57.5027 525.338 57.5658 525.338C57.6289 525.338 57.691 525.322 57.7467 525.293L58.8201 524.679C58.9166 524.679 58.9286 524.522 58.8201 524.474L57.6985 523.824C57.6419 523.797 57.5801 523.783 57.5175 523.783C57.455 523.783 57.3932 523.797 57.3366 523.824L56.2632 524.45C56.1909 524.51 56.1788 524.594 56.2632 524.655Z" fill="#3A2C6D"/>
<path id="Vector_41" d="M54.6711 523.741L55.7928 524.379C55.8485 524.408 55.9106 524.424 55.9737 524.424C56.0368 524.424 56.0989 524.408 56.1546 524.379L57.228 523.765C57.3366 523.704 57.3366 523.608 57.228 523.56L56.1064 522.91C56.0498 522.883 55.988 522.869 55.9254 522.869C55.8629 522.869 55.8011 522.883 55.7445 522.91L54.6832 523.524C54.5988 523.596 54.5867 523.741 54.6711 523.741Z" fill="#3A2C6D"/>
<path id="Vector_42" d="M53.0671 522.812L54.1887 523.463C54.2423 523.492 54.3024 523.508 54.3636 523.508C54.4248 523.508 54.4849 523.492 54.5385 523.463L55.6119 522.849C55.7204 522.788 55.7325 522.692 55.6119 522.644L54.4902 521.994C54.4337 521.967 54.3719 521.953 54.3093 521.953C54.2467 521.953 54.185 521.967 54.1284 521.994L53.0671 522.608C53.0671 522.668 52.9947 522.764 53.0671 522.812Z" fill="#3A2C6D"/>
<path id="Vector_43" d="M51.4991 521.897L52.6207 522.547C52.6752 522.574 52.735 522.588 52.7956 522.588C52.8562 522.588 52.916 522.574 52.9705 522.547L54.0439 521.933C54.1524 521.861 54.1645 521.777 54.0439 521.716L52.9222 521.078C52.8687 521.049 52.8085 521.033 52.7474 521.033C52.6862 521.033 52.626 521.049 52.5725 521.078L51.4991 521.692C51.4146 521.752 51.4026 521.849 51.4991 521.897Z" fill="#3A2C6D"/>
<path id="Vector_44" d="M49.907 520.983L51.0287 521.633C51.0831 521.66 51.1429 521.673 51.2036 521.673C51.2642 521.673 51.324 521.66 51.3784 521.633L52.4518 521.007C52.5604 520.947 52.5724 520.862 52.4518 520.802L51.3302 520.164C51.2766 520.135 51.2165 520.119 51.1553 520.119C51.0941 520.119 51.034 520.135 50.9804 520.164L49.907 520.778C49.8226 520.838 49.8105 520.935 49.907 520.983Z" fill="#3A2C6D"/>
<path id="Vector_45" d="M48.315 520.129L49.4367 520.779C49.4932 520.806 49.555 520.82 49.6176 520.82C49.6801 520.82 49.7419 520.806 49.7985 520.779L50.8598 520.153C50.9684 520.153 50.9804 520.009 50.8598 519.948L49.7382 519.298C49.6837 519.272 49.6239 519.258 49.5633 519.258C49.5027 519.258 49.4429 519.272 49.3884 519.298L48.315 519.912C48.2427 519.924 48.2427 520.021 48.315 520.129Z" fill="#3A2C6D"/>
<path id="Vector_46" d="M46.7232 519.152L47.8448 519.803C47.9013 519.829 47.9631 519.843 48.0257 519.843C48.0883 519.843 48.1501 519.829 48.2066 519.803L49.268 519.188C49.3765 519.128 49.3886 519.032 49.268 518.984L48.1463 518.334C48.0898 518.307 48.028 518.293 47.9654 518.293C47.9028 518.293 47.841 518.307 47.7845 518.334L46.7111 518.948C46.6387 519.008 46.6267 519.104 46.7232 519.152Z" fill="#3A2C6D"/>
<path id="Vector_47" d="M65.791 530.145L67.6845 531.228C67.7381 531.258 67.7983 531.273 67.8594 531.273C67.9206 531.273 67.9808 531.258 68.0343 531.228L69.1077 530.614C69.2162 530.554 69.2283 530.458 69.1077 530.41L67.2262 529.314C67.1697 529.287 67.1079 529.273 67.0453 529.273C66.9827 529.273 66.9209 529.287 66.8644 529.314L65.8031 529.928C65.7186 530 65.7066 530.097 65.791 530.145Z" fill="#3A2C6D"/>
<path id="Vector_48" d="M46.5905 517.407L47.7122 518.057C47.8087 518.057 47.8087 518.189 47.7122 518.237L46.5785 518.9C46.5275 518.923 46.4719 518.936 46.4156 518.936C46.3594 518.936 46.3038 518.923 46.2528 518.9L46.1563 518.839C46.1095 518.816 46.0579 518.804 46.0056 518.804C45.9533 518.804 45.9016 518.816 45.8548 518.839L44.6487 519.538C44.5957 519.562 44.5381 519.574 44.4799 519.574C44.4217 519.574 44.3641 519.562 44.311 519.538L43.5995 519.128C43.503 519.068 43.503 518.984 43.5995 518.936L44.7211 518.286L44.9503 518.153L45.1191 518.057L45.288 517.961L46.2528 517.407C46.3045 517.378 46.3626 517.363 46.4217 517.363C46.4807 517.363 46.5388 517.378 46.5905 517.407Z" fill="#3A2C6D"/>
<path id="Vector_49" d="M61.9436 533.239L63.0653 533.889C63.1197 533.915 63.1796 533.929 63.2402 533.929C63.3008 533.929 63.3606 533.915 63.4151 533.889L64.4885 533.263C64.597 533.263 64.6091 533.118 64.4885 533.058L63.3668 532.42C63.3111 532.39 63.249 532.375 63.1859 532.375C63.1228 532.375 63.0607 532.39 63.005 532.42L61.9436 533.034C61.8592 533.094 61.8472 533.191 61.9436 533.239Z" fill="#3A2C6D"/>
<path id="Vector_50" d="M60.3035 532.324L61.4251 532.974C61.4808 533.004 61.5429 533.019 61.606 533.019C61.6691 533.019 61.7312 533.004 61.7869 532.974L62.8603 532.36C62.9568 532.36 62.9689 532.204 62.8603 532.156L61.7387 531.506C61.6822 531.479 61.6204 531.465 61.5578 531.465C61.4952 531.465 61.4334 531.479 61.3769 531.506L60.3035 532.12C60.3035 532.168 60.3035 532.276 60.3035 532.324Z" fill="#3A2C6D"/>
<path id="Vector_51" d="M58.7718 531.422L59.8934 532.06C59.9491 532.09 60.0113 532.105 60.0743 532.105C60.1374 532.105 60.1995 532.09 60.2552 532.06L61.3166 531.446C61.4251 531.386 61.4372 531.29 61.3166 531.241L60.1949 530.591C60.1405 530.565 60.0807 530.551 60.0201 530.551C59.9594 530.551 59.8996 530.565 59.8452 530.591L58.7718 531.217C58.6873 531.277 58.6753 531.362 58.7718 531.422Z" fill="#3A2C6D"/>
<path id="Vector_52" d="M45.2878 523.645L46.4095 524.295C46.466 524.322 46.5278 524.336 46.5904 524.336C46.6529 524.336 46.7147 524.322 46.7713 524.295L47.8326 523.669C47.9412 523.609 47.9532 523.524 47.8326 523.464L46.711 522.826C46.6553 522.797 46.5931 522.781 46.5301 522.781C46.467 522.781 46.4049 522.797 46.3492 522.826L45.2758 523.44C45.2034 523.5 45.2034 523.597 45.2878 523.645Z" fill="#3A2C6D"/>
<path id="Vector_53" d="M43.7081 522.728L44.8297 523.378C44.8832 523.408 44.9434 523.423 45.0046 523.423C45.0657 523.423 45.1259 523.408 45.1795 523.378L46.2529 522.764C46.3614 522.704 46.3735 522.608 46.2529 522.56L45.1312 521.91C45.0768 521.883 45.017 521.869 44.9563 521.869C44.8957 521.869 44.8359 521.883 44.7815 521.91L43.7081 522.524C43.6236 522.536 43.6116 522.68 43.7081 522.728Z" fill="#3A2C6D"/>
<path id="Vector_54" d="M42.128 521.827L43.2496 522.465C43.3032 522.494 43.3633 522.51 43.4245 522.51C43.4857 522.51 43.5458 522.494 43.5994 522.465L44.6728 521.851C44.7813 521.79 44.7934 521.694 44.6728 521.646L43.5511 520.996C43.4946 520.969 43.4328 520.955 43.3702 520.955C43.3077 520.955 43.2459 520.969 43.1893 520.996L42.128 521.622C42.0436 521.682 42.0315 521.766 42.128 521.827Z" fill="#3A2C6D"/>
<path id="Vector_55" d="M40.5359 520.911L41.6576 521.561C41.7141 521.587 41.7759 521.601 41.8385 521.601C41.9011 521.601 41.9629 521.587 42.0194 521.561L43.0928 520.947C43.1893 520.886 43.2014 520.79 43.0928 520.742L41.9712 520.092C41.9154 520.062 41.8533 520.047 41.7902 520.047C41.7272 520.047 41.6651 520.062 41.6093 520.092L40.5359 520.706C40.4636 520.766 40.4515 520.85 40.5359 520.911Z" fill="#3A2C6D"/>
<path id="Vector_56" d="M56.7816 530.266L58.3133 531.157C58.3677 531.183 58.4276 531.197 58.4882 531.197C58.5488 531.197 58.6086 531.183 58.6631 531.157L59.7365 530.543C59.845 530.482 59.8571 530.386 59.7365 530.338L58.2048 529.459C58.1512 529.43 58.091 529.414 58.0299 529.414C57.9687 529.414 57.9085 529.43 57.855 529.459L56.7816 530.073C56.6851 530.121 56.6851 530.218 56.7816 530.266Z" fill="#3A2C6D"/>
<path id="Vector_57" d="M46.8679 524.559L48.3996 525.437C48.4553 525.467 48.5174 525.482 48.5805 525.482C48.6436 525.482 48.7057 525.467 48.7614 525.437L49.8348 524.823C49.9313 524.763 49.9434 524.667 49.8348 524.619L48.3272 523.74C48.2707 523.713 48.2089 523.699 48.1463 523.699C48.0838 523.699 48.022 523.713 47.9654 523.74L46.9041 524.354C46.7955 524.414 46.7835 524.51 46.8679 524.559Z" fill="#3A2C6D"/>
<path id="Vector_58" d="M48.8579 525.704L56.3235 530.002C56.377 530.031 56.4372 530.047 56.4984 530.047C56.5595 530.047 56.6197 530.031 56.6733 530.002L57.7467 529.388C57.8552 529.328 57.8673 529.231 57.7467 529.183L50.2931 524.885C50.2374 524.855 50.1753 524.84 50.1122 524.84C50.0491 524.84 49.987 524.855 49.9313 524.885L48.87 525.499C48.7855 525.559 48.7735 525.655 48.8579 525.704Z" fill="#3A2C6D"/>
<path id="Vector_59" d="M62.2332 529.869L63.3548 530.508C63.4106 530.537 63.4727 530.552 63.5358 530.552C63.5988 530.552 63.661 530.537 63.7167 530.508L64.7901 529.893C64.8866 529.833 64.8986 529.737 64.7901 529.689L63.6684 529.039C63.6119 529.012 63.5501 528.998 63.4875 528.998C63.4249 528.998 63.3631 529.012 63.3066 529.039L62.2332 529.665C62.1608 529.761 62.1488 529.761 62.2332 529.869Z" fill="#3A2C6D"/>
<path id="Vector_60" d="M60.6531 528.954L61.7748 529.604C61.8292 529.63 61.889 529.644 61.9497 529.644C62.0103 529.644 62.0701 529.63 62.1245 529.604L63.1979 528.99C63.3065 528.99 63.3185 528.833 63.1979 528.785L62.0763 528.135C62.0227 528.105 61.9626 528.09 61.9014 528.09C61.8402 528.09 61.7801 528.105 61.7265 528.135L60.6531 528.749C60.5687 528.809 60.5566 528.893 60.6531 528.954Z" fill="#3A2C6D"/>
<path id="Vector_61" d="M59.0975 528.039L60.2191 528.689C60.2757 528.716 60.3374 528.73 60.4 528.73C60.4626 528.73 60.5244 528.716 60.5809 528.689L61.6543 528.075C61.7508 528.015 61.7629 527.919 61.6543 527.87L60.5327 527.22C60.4762 527.194 60.4144 527.18 60.3518 527.18C60.2892 527.18 60.2274 527.194 60.1709 527.22L59.0975 527.834C58.9889 527.895 58.9769 527.991 59.0975 528.039Z" fill="#3A2C6D"/>
<path id="Vector_62" d="M57.4812 527.123L58.6029 527.773C58.6564 527.802 58.7166 527.818 58.7778 527.818C58.8389 527.818 58.8991 527.802 58.9527 527.773L60.0261 527.159C60.1346 527.099 60.1467 527.014 60.0261 526.954L58.9044 526.304C58.85 526.278 58.7901 526.264 58.7295 526.264C58.6689 526.264 58.6091 526.278 58.5547 526.304L57.4812 526.918C57.3968 526.978 57.3848 527.075 57.4812 527.123Z" fill="#3A2C6D"/>
<path id="Vector_63" d="M55.8892 526.207L57.0109 526.858C57.0674 526.884 57.1292 526.898 57.1918 526.898C57.2543 526.898 57.3161 526.884 57.3727 526.858L58.4461 526.232C58.5426 526.171 58.5546 526.087 58.4461 526.027L57.3244 525.389C57.2687 525.359 57.2066 525.344 57.1435 525.344C57.0804 525.344 57.0183 525.359 56.9626 525.389L55.8892 526.003C55.8168 526.063 55.8048 526.147 55.8892 526.207Z" fill="#3A2C6D"/>
<path id="Vector_64" d="M54.2732 525.293L55.3948 525.944C55.4493 525.97 55.5091 525.984 55.5697 525.984C55.6303 525.984 55.6902 525.97 55.7446 525.944L56.818 525.317C56.9266 525.257 56.9386 525.173 56.818 525.113L55.6964 524.475C55.6428 524.445 55.5826 524.43 55.5215 524.43C55.4603 524.43 55.4001 524.445 55.3466 524.475L54.2732 525.089C54.2732 525.149 54.2732 525.245 54.2732 525.293Z" fill="#3A2C6D"/>
<path id="Vector_65" d="M52.7173 524.377L53.839 525.027C53.8955 525.054 53.9573 525.068 54.0199 525.068C54.0825 525.068 54.1443 525.054 54.2008 525.027L55.2742 524.401C55.3707 524.341 55.3828 524.257 55.2742 524.197L54.1526 523.559C54.0968 523.529 54.0347 523.514 53.9716 523.514C53.9086 523.514 53.8465 523.529 53.7907 523.559L52.7173 524.173C52.645 524.233 52.6329 524.329 52.7173 524.377Z" fill="#3A2C6D"/>
<path id="Vector_66" d="M51.1373 523.463L52.2589 524.114C52.3133 524.14 52.3732 524.154 52.4338 524.154C52.4944 524.154 52.5542 524.14 52.6087 524.114L53.6821 523.499C53.7906 523.439 53.8027 523.343 53.6821 523.283L52.5604 522.645C52.5069 522.615 52.4467 522.6 52.3855 522.6C52.3244 522.6 52.2642 522.615 52.2107 522.645L51.1373 523.259C51.0528 523.319 51.0408 523.415 51.1373 523.463Z" fill="#3A2C6D"/>
<path id="Vector_67" d="M49.5453 522.536L50.6669 523.186C50.7234 523.213 50.7852 523.226 50.8478 523.226C50.9104 523.226 50.9722 523.213 51.0287 523.186L52.1021 522.572C52.1986 522.572 52.2107 522.415 52.1021 522.367L50.9805 521.717C50.9248 521.687 50.8627 521.672 50.7996 521.672C50.7365 521.672 50.6744 521.687 50.6187 521.717L49.5453 522.331C49.4488 522.403 49.4488 522.536 49.5453 522.536Z" fill="#3A2C6D"/>
<path id="Vector_68" d="M47.9654 521.645L49.087 522.283C49.1406 522.312 49.2007 522.328 49.2619 522.328C49.3231 522.328 49.3832 522.312 49.4368 522.283L50.5102 521.669C50.6187 521.669 50.6308 521.512 50.5102 521.464L49.3885 520.814C49.3341 520.787 49.2743 520.773 49.2137 520.773C49.153 520.773 49.0932 520.787 49.0388 520.814L47.9654 521.428C47.881 521.488 47.8689 521.584 47.9654 521.645Z" fill="#3A2C6D"/>
<path id="Vector_69" d="M46.3733 520.731L47.495 521.369C47.5507 521.399 47.6128 521.414 47.6759 521.414C47.739 521.414 47.8011 521.399 47.8568 521.369L48.9302 520.755C49.0267 520.695 49.0388 520.598 48.9302 520.55L47.8086 519.9C47.752 519.873 47.6902 519.859 47.6277 519.859C47.5651 519.859 47.5033 519.873 47.4467 519.9L46.3733 520.514C46.301 520.586 46.2889 520.671 46.3733 520.731Z" fill="#3A2C6D"/>
<path id="Vector_70" d="M44.7935 519.815L45.9152 520.453C45.9687 520.482 46.0289 520.498 46.09 520.498C46.1512 520.498 46.2114 520.482 46.2649 520.453L47.3383 519.839C47.4469 519.778 47.4589 519.682 47.3383 519.634L46.2167 518.984C46.1622 518.957 46.1024 518.943 46.0418 518.943C45.9812 518.943 45.9214 518.957 45.8669 518.984L44.7935 519.61C44.7091 519.67 44.697 519.754 44.7935 519.815Z" fill="#3A2C6D"/>
<path id="Vector_71" d="M63.8252 530.784L66.1409 532.168C66.1966 532.198 66.2587 532.213 66.3218 532.213C66.3849 532.213 66.447 532.198 66.5027 532.168L67.5641 531.554C67.6726 531.494 67.6847 531.41 67.5641 531.35L65.2484 530.013C65.194 529.986 65.1341 529.973 65.0735 529.973C65.0129 529.973 64.9531 529.986 64.8986 530.013L63.8252 530.639C63.7408 530.639 63.7288 530.723 63.8252 530.784Z" fill="#3A2C6D"/>
<path id="Vector_72" d="M61.5096 531.206L62.6312 531.856C62.6857 531.882 62.7455 531.896 62.8061 531.896C62.8667 531.896 62.9265 531.882 62.981 531.856L64.0544 531.23C64.1629 531.23 64.175 531.085 64.0544 531.025L62.9327 530.387C62.8792 530.357 62.819 530.342 62.7579 530.342C62.6967 530.342 62.6365 530.357 62.583 530.387L61.5096 530.965C61.401 531.061 61.389 531.157 61.5096 531.206Z" fill="#3A2C6D"/>
<path id="Vector_73" d="M59.8933 530.289L61.015 530.94C61.0715 530.966 61.1333 530.98 61.1959 530.98C61.2584 530.98 61.3202 530.966 61.3768 530.94L62.4502 530.314C62.5467 530.253 62.5587 530.169 62.4502 530.109L61.3285 529.471C61.2728 529.441 61.2107 529.426 61.1476 529.426C61.0845 529.426 61.0224 529.441 60.9667 529.471L59.9054 530.085C59.8209 530.145 59.8089 530.241 59.8933 530.289Z" fill="#3A2C6D"/>
<path id="Vector_74" d="M58.3135 529.375L59.4352 530.026C59.4896 530.052 59.5494 530.066 59.6101 530.066C59.6707 530.066 59.7305 530.052 59.7849 530.026L60.8583 529.412C60.9669 529.339 60.9789 529.255 60.8583 529.195L59.7367 528.557C59.6831 528.527 59.623 528.512 59.5618 528.512C59.5006 528.512 59.4405 528.527 59.3869 528.557L58.3135 529.171C58.2291 529.231 58.217 529.327 58.3135 529.375Z" fill="#3A2C6D"/>
<path id="Vector_75" d="M56.6853 528.459L57.807 529.11C57.8635 529.136 57.9253 529.15 57.9879 529.15C58.0504 529.15 58.1122 529.136 58.1688 529.11L59.2422 528.496C59.3507 528.435 59.3507 528.339 59.2422 528.291L58.1205 527.641C58.0648 527.611 58.0027 527.596 57.9396 527.596C57.8765 527.596 57.8144 527.611 57.7587 527.641L56.6974 528.255C56.6853 528.315 56.6853 528.411 56.6853 528.459Z" fill="#3A2C6D"/>
<path id="Vector_76" d="M55.1414 527.545L56.2631 528.195C56.3188 528.224 56.3809 528.24 56.444 528.24C56.507 528.24 56.5692 528.224 56.6249 528.195L57.6862 527.581C57.7948 527.521 57.8068 527.424 57.6862 527.376L56.5646 526.726C56.5101 526.699 56.4503 526.686 56.3897 526.686C56.3291 526.686 56.2693 526.699 56.2148 526.726L55.1414 527.34C55.057 527.352 55.0449 527.497 55.1414 527.545Z" fill="#3A2C6D"/>
<path id="Vector_77" d="M53.5496 526.641L54.6712 527.279C54.7269 527.309 54.789 527.324 54.8521 527.324C54.9152 527.324 54.9773 527.309 55.033 527.279L56.1064 526.665C56.215 526.605 56.227 526.509 56.1064 526.46L54.9848 525.81C54.9282 525.783 54.8664 525.77 54.8039 525.77C54.7413 525.77 54.6795 525.783 54.623 525.81L53.5616 526.436C53.4772 526.496 53.4651 526.581 53.5496 526.641Z" fill="#3A2C6D"/>
<path id="Vector_78" d="M51.9693 525.727L53.091 526.365C53.1467 526.394 53.2088 526.41 53.2719 526.41C53.335 526.41 53.3971 526.394 53.4528 526.365L54.5142 525.751C54.6227 525.691 54.6348 525.594 54.5142 525.546L53.3925 524.896C53.3381 524.869 53.2782 524.855 53.2176 524.855C53.157 524.855 53.0972 524.869 53.0428 524.896L51.9693 525.522C51.8608 525.582 51.8608 525.666 51.9693 525.727Z" fill="#3A2C6D"/>
<path id="Vector_79" d="M50.3894 524.811L51.5111 525.449C51.5646 525.479 51.6248 525.494 51.686 525.494C51.7471 525.494 51.8073 525.479 51.8609 525.449L52.9343 524.835C53.0428 524.835 53.0549 524.678 52.9343 524.63L51.8126 523.98C51.7561 523.953 51.6943 523.939 51.6317 523.939C51.5691 523.939 51.5073 523.953 51.4508 523.98L50.3894 524.606C50.305 524.666 50.293 524.751 50.3894 524.811Z" fill="#3A2C6D"/>
<path id="Vector_80" d="M48.7976 523.897L49.9193 524.547C49.9758 524.574 50.0376 524.588 50.1002 524.588C50.1628 524.588 50.2245 524.574 50.2811 524.547L51.3424 523.933C51.451 523.873 51.463 523.776 51.3424 523.728L50.2208 523.078C50.1651 523.049 50.103 523.033 50.0399 523.033C49.9768 523.033 49.9147 523.049 49.859 523.078L48.7856 523.692C48.7132 523.74 48.7011 523.837 48.7976 523.897Z" fill="#3A2C6D"/>
<path id="Vector_81" d="M47.2176 522.982L48.3392 523.633C48.3937 523.659 48.4535 523.673 48.5141 523.673C48.5747 523.673 48.6345 523.659 48.689 523.633L49.7624 523.019C49.8709 522.958 49.883 522.862 49.7624 522.814L48.6407 522.164C48.5842 522.137 48.5224 522.123 48.4598 522.123C48.3973 522.123 48.3355 522.137 48.2789 522.164L47.2176 522.778C47.1331 522.838 47.1211 522.934 47.2176 522.982Z" fill="#3A2C6D"/>
<path id="Vector_82" d="M45.6255 522.067L46.7471 522.717C46.8036 522.744 46.8654 522.758 46.928 522.758C46.9906 522.758 47.0524 522.744 47.1089 522.717L48.1703 522.091C48.2788 522.031 48.2909 521.946 48.1703 521.886L47.0486 521.248C46.9929 521.219 46.9308 521.203 46.8677 521.203C46.8046 521.203 46.7425 521.219 46.6868 521.248L45.6134 521.862C45.541 521.922 45.541 522.019 45.6255 522.067Z" fill="#3A2C6D"/>
<path id="Vector_83" d="M42.0796 520.02L45.1672 521.802C45.2216 521.828 45.2814 521.842 45.3421 521.842C45.4027 521.842 45.4625 521.828 45.5169 521.802L46.5903 521.176C46.6989 521.116 46.711 521.031 46.5903 520.971L43.5028 519.201C43.4493 519.172 43.3891 519.156 43.3279 519.156C43.2668 519.156 43.2066 519.172 43.153 519.201L42.0796 519.815C41.9952 519.875 41.9831 519.972 42.0796 520.02Z" fill="#3A2C6D"/>
<path id="Vector_84" d="M63.0654 532.168L64.5971 533.047C64.6529 533.077 64.715 533.092 64.7781 533.092C64.8411 533.092 64.9032 533.077 64.959 533.047L66.0203 532.433C66.1289 532.373 66.1409 532.277 66.0203 532.228L64.4886 531.338C64.4321 531.311 64.3703 531.297 64.3077 531.297C64.2451 531.297 64.1833 531.311 64.1268 531.338L63.0534 531.952C62.9931 531.976 62.981 532.072 63.0654 532.168Z" fill="#3A2C6D"/>
</g>
<g id="&#60;&#208;&#147;&#209;&#128;&#209;&#131;&#208;&#191;&#208;&#191;&#208;&#176;&#62;_6">
<g id="&#60;&#208;&#147;&#209;&#128;&#209;&#131;&#208;&#191;&#208;&#191;&#208;&#176;&#62;_7">
<g id="&#60;&#208;&#147;&#209;&#128;&#209;&#131;&#208;&#191;&#208;&#191;&#208;&#176;&#62;_8">
<path id="&#60;&#208;&#154;&#208;&#190;&#208;&#189;&#209;&#130;&#209;&#131;&#209;&#128;&#62;_8" d="M74.6918 528.978L49.2437 514.301V494.327L49.4366 493.869L49.6537 493.773C49.9196 493.62 50.2211 493.539 50.5281 493.539C50.8351 493.539 51.1367 493.62 51.4025 493.773L74.6918 507.198C74.9587 507.351 75.1805 507.572 75.335 507.839C75.4895 508.105 75.5713 508.407 75.5722 508.715V527.461C75.4154 528.424 75.2345 528.665 74.6918 528.978Z" fill="#E5E5E5"/>
<path id="&#60;&#208;&#154;&#208;&#190;&#208;&#189;&#209;&#130;&#209;&#131;&#209;&#128;&#62;_9" d="M72.364 509.606L49.2437 494.989V494.327L49.4366 493.869L49.6537 493.773C49.9196 493.62 50.2211 493.539 50.5281 493.539C50.8351 493.539 51.1367 493.62 51.4025 493.773L74.6918 507.198C74.9764 507.359 75.2103 507.597 75.3672 507.884L72.364 509.606Z" fill="#E5E5E5"/>
<path id="&#60;&#208;&#154;&#208;&#190;&#208;&#189;&#209;&#130;&#209;&#131;&#209;&#128;&#62;_10" d="M49.8346 493.868L74.2696 507.955C74.3978 508.03 74.5042 508.138 74.5782 508.266C74.6522 508.395 74.6914 508.541 74.6918 508.69V528.977L49.2437 514.3V494.205C49.2454 494.137 49.2648 494.07 49.2999 494.012C49.335 493.953 49.3847 493.905 49.4441 493.871C49.5035 493.837 49.5706 493.819 49.639 493.818C49.7074 493.818 49.7748 493.835 49.8346 493.868Z" fill="#DCEEFF"/>
<path id="&#60;&#208;&#154;&#208;&#190;&#208;&#189;&#209;&#130;&#209;&#131;&#209;&#128;&#62;_11" d="M49.8346 493.868L74.2696 507.955C74.3978 508.03 74.5042 508.138 74.5782 508.266C74.6522 508.395 74.6914 508.541 74.6918 508.69V528.977L49.2437 514.3V494.205C49.2454 494.137 49.2648 494.07 49.2999 494.012C49.335 493.953 49.3847 493.905 49.4441 493.871C49.5035 493.837 49.5706 493.819 49.639 493.818C49.7074 493.818 49.7748 493.835 49.8346 493.868Z" fill="#F4F4F4"/>
<path id="&#60;&#208;&#154;&#208;&#190;&#208;&#189;&#209;&#130;&#209;&#131;&#209;&#128;&#62;_12" d="M74.6918 528.977V528.243L49.2437 513.578V514.301L74.6918 528.977Z" fill="#DBDBDB"/>
</g>
<path id="&#60;&#208;&#154;&#208;&#190;&#208;&#189;&#209;&#130;&#209;&#131;&#209;&#128;&#62;_13" d="M49.907 513.241V494.916L50.2085 495.097V513.084L49.907 513.241Z" fill="#1E3779"/>
<path id="&#60;&#208;&#154;&#208;&#190;&#208;&#189;&#209;&#130;&#209;&#131;&#209;&#128;&#62;_14" d="M50.2085 495.098V513.085L73.8837 526.691V508.739L50.2085 495.098Z" fill="#3A2C6D"/>
<path id="&#60;&#208;&#154;&#208;&#190;&#208;&#189;&#209;&#130;&#209;&#131;&#209;&#128;&#62;_15" d="M49.907 513.242L73.8837 527.052V526.691L50.2085 513.086L49.907 513.242Z" fill="#031F60"/>
</g>
</g>
</g>
</g>
<path id="&#60;&#208;&#154;&#208;&#190;&#208;&#189;&#209;&#130;&#209;&#131;&#209;&#128;&#62;_16" d="M22.505 490.69C21.902 492.195 23.4337 494.038 27.5344 495.326C31.635 496.614 32.0089 494.965 32.0089 494.965C34.743 496.183 37.4084 497.549 39.9931 499.058C42.4052 500.78 43.5389 505.752 43.8766 514.156C44.2626 523.873 44.2867 538.236 43.9731 540.777C43.9731 540.777 39.3659 545.352 33.4803 544.87C27.5947 544.389 17.6808 539.188 15.2686 535.166C15.341 526.642 16.33 525.257 14.955 520.345C11.7951 509.112 10.1307 504.512 11.6625 497.048C12.9288 490.895 14.7018 490.125 17.138 490.185C18.9347 490.258 20.7263 490.427 22.505 490.69Z" fill="#F4F4F4"/>
<path id="&#60;&#208;&#154;&#208;&#190;&#208;&#189;&#209;&#130;&#209;&#131;&#209;&#128;&#62;_17" d="M53.5615 524.571C48.7372 525.775 47.5915 522.741 46.9522 520.225C45.4205 514.12 44.5401 508.618 43.4426 505.151C42.0918 501.069 40.6807 500.419 38.6907 499.624C36.3629 498.685 34.3488 500.66 35.1327 505.849C36.082 511.883 37.5632 517.822 39.559 523.596C40.1621 525.498 41.5129 528.869 43.527 530.507C46.0236 532.518 49.7745 532.433 55.4551 531.013C57.8672 530.411 60.5447 528.966 65.1036 526.835C66.3097 526.257 67.2866 525.883 69.6505 524.776C72.0121 523.71 74.0809 522.091 75.6809 520.056C76.887 518.274 77.0799 517.431 76.887 517.022C76.694 516.613 76.0065 516.625 75.3432 517.371C74.3963 518.65 73.2182 519.74 71.8697 520.586C71.8697 520.586 73.4014 519.009 74.2215 517.985C74.968 517.084 75.585 516.083 76.0548 515.011C76.4889 513.964 75.5844 512.543 74.8487 513.29C74.113 514.036 73.8356 514.795 72.5813 516.288C71.9251 517.084 71.1761 517.799 70.35 518.419C71.1251 517.372 71.8147 516.265 72.4124 515.108C72.9434 514.2 73.2029 513.16 73.1602 512.11C73.1602 511.568 72.3521 510.906 71.6285 511.953C70.9265 513.373 70.0559 514.703 69.0354 515.914C67.9258 517.058 66.9972 517.708 66.961 517.395C66.9248 517.082 67.6364 516.456 68.0223 515.12C68.4083 513.783 68.0223 512.375 67.2866 512.23C66.5509 512.086 66.6956 512.11 66.0805 513.362C65.2761 514.643 64.555 515.974 63.9217 517.347C63.5428 518.63 62.8603 519.803 61.9317 520.766C60.7859 522.019 58.1567 523.415 53.5615 524.571Z" fill="#FFCEA9"/>
<path id="&#60;&#208;&#154;&#208;&#190;&#208;&#189;&#209;&#130;&#209;&#131;&#209;&#128;&#62;_18" d="M36.9056 498.794C40.1259 498.313 42.4053 499.769 43.8406 504.646C45.2758 509.522 46.2527 513.543 46.2527 513.543C44.9756 515.393 43.0382 516.685 40.8374 517.155C36.978 518.094 35.591 516.252 35.591 516.252C35.591 516.252 34.5176 511.135 33.8543 507.656C33.1909 504.176 32.9135 499.384 36.9056 498.794Z" fill="#EDEDED"/>
<path id="Vector_85" d="M38.4978 473.799C38.4978 473.799 43.5995 466.057 32.5398 464.48C24.5677 463.336 19.454 468.453 18.863 474.003C18.2961 479.301 21.5646 484.839 23.9285 486.983C26.2478 487.567 28.7021 487.271 30.8152 486.152C30.9419 484.711 30.9902 483.264 30.9599 481.817C30.9599 481.817 27.0763 473.654 38.4978 473.799Z" fill="#3A2C6D"/>
</g>
<path id="Vector_86" d="M60.6173 571.732V548.482L42.1282 559.258L49.244 573.959L60.6173 571.732Z" fill="#D5D6E0"/>
<path id="Vector_87" d="M48.4961 549.819L55.5878 545.713L60.6171 548.602L53.2601 552.768L48.4961 549.819Z" fill="#E9EAF4"/>
<path id="Vector_88" d="M284.175 431.658C286.899 431.658 289.107 430.385 289.107 428.816C289.107 427.247 286.899 425.975 284.175 425.975C281.45 425.975 279.242 427.247 279.242 428.816C279.242 430.385 281.45 431.658 284.175 431.658Z" fill="#D5D6E0"/>
</g>
</g>
</g>
<defs>
<linearGradient id="paint0_linear" x1="284.175" y1="428.817" x2="284.175" y2="309.344" gradientUnits="userSpaceOnUse">
<stop stop-color="#E9EAF4"/>
<stop offset="0.63" stop-color="#E9EAF4" stop-opacity="0"/>
</linearGradient>
<clipPath id="clip0">
<rect width="464" height="602" fill="white"/>
</clipPath>
</defs>
</svg>
