<svg width="494" height="603" viewBox="0 0 494 603" fill="none" xmlns="http://www.w3.org/2000/svg">
<g id="Chat_SVG" clip-path="url(#clip0)">
<g id="&#208;&#161;&#208;&#187;&#208;&#190;&#208;&#185; 2">
<g id="&#208;&#161;&#208;&#187;&#208;&#190;&#208;&#185; 1">
<path id="Vector" opacity="0.4" d="M296.193 497.102L190.411 436.126C189.805 435.774 189.306 435.265 188.963 434.654C188.621 434.042 188.449 433.35 188.465 432.649C188.481 431.948 188.685 431.265 189.054 430.669C189.424 430.074 189.946 429.589 190.567 429.264L203.879 422.402C204.459 422.104 205.105 421.955 205.757 421.97C206.409 421.984 207.047 422.162 207.613 422.487L316.949 485.512C317.558 485.862 318.061 486.37 318.406 486.982C318.75 487.594 318.924 488.287 318.908 488.99C318.892 489.692 318.687 490.377 318.314 490.973C317.942 491.568 317.417 492.053 316.793 492.374L307.155 497.355C305.454 498.237 303.557 498.676 301.642 498.632C299.726 498.587 297.852 498.061 296.193 497.102Z" fill="#D6D8E5"/>
<path id="Vector_2" d="M302.674 485.619L212.54 433.52C204.903 429.106 198.771 417.275 198.771 407.085V155.368C198.771 145.178 204.963 140.498 212.601 144.912L302.734 197.011C310.372 201.425 316.564 213.256 316.564 223.447V475.163C316.504 485.354 310.312 490.033 302.674 485.619Z" fill="#B1B4C4"/>
<path id="Vector_3" d="M304.228 490.166L311.372 486.548L304.517 474.789L304.228 490.166Z" fill="#B1B4C4"/>
<path id="Vector_4" d="M197.313 147.422L203.891 143.973L202.566 153.669L197.313 147.422Z" fill="#B1B4C4"/>
<path id="Vector_5" d="M296.928 488.502L206.794 436.403C199.156 431.989 192.964 420.146 192.964 409.956V158.251C192.964 148.061 199.156 143.369 206.794 147.783L296.928 199.883C304.565 204.296 310.757 216.139 310.757 226.33V478.034C310.805 488.225 304.565 492.916 296.928 488.502Z" fill="#616E84"/>
<path id="Vector_6" d="M309.794 226.969V478.674C309.794 488.876 303.614 493.556 295.976 489.142L260.619 468.712L249.632 462.356L205.83 437.03C198.193 432.616 192.013 420.786 192.013 410.583V158.891C192.013 148.688 198.193 144.021 205.83 148.423L295.976 200.522C303.577 204.936 309.794 216.767 309.794 226.969Z" fill="#20232D"/>
<path id="Vector_7" d="M303.3 224.412V469.568C303.3 475.742 298.976 478.251 293.663 475.151L265.486 458.87L262.992 457.435L262.161 456.941L256.041 453.456L238.405 443.289L231.092 439.068L228.153 437.368L208.179 425.826C202.843 422.739 198.542 415.225 198.542 409.039V163.847C198.542 157.672 202.867 155.164 208.179 158.251L243.344 178.596V178.693C243.489 181.311 244.248 183.858 245.56 186.127C246.873 188.397 248.701 190.324 250.897 191.754C255.065 194.166 258.438 192.2 258.438 187.4C258.438 187.4 258.438 187.328 258.438 187.291L293.639 207.637C298.976 210.724 303.3 218.286 303.3 224.412Z" fill="white"/>
<path id="Vector_8" d="M253.925 189.975C255.048 189.329 255.055 187.232 253.941 185.29C252.826 183.349 251.013 182.299 249.89 182.945C248.767 183.591 248.76 185.689 249.874 187.63C250.989 189.571 252.802 190.621 253.925 189.975Z" fill="#2B303F"/>
<path id="Vector_9" opacity="0.1" d="M250.909 187.098C250.56 186.87 250.27 186.564 250.06 186.204C249.851 185.844 249.729 185.439 249.704 185.023C249.704 184.252 250.247 183.95 250.909 184.324C251.26 184.552 251.552 184.86 251.762 185.222C251.971 185.585 252.092 185.992 252.114 186.41C252.102 187.17 251.572 187.484 250.909 187.098Z" fill="white"/>
<path id="Vector_10" d="M313.456 260.086C312.721 260.52 312.119 260.086 312.119 259.085V248.351C312.126 247.852 312.252 247.361 312.484 246.919C312.716 246.477 313.049 246.096 313.456 245.807C314.191 245.372 314.781 245.807 314.781 246.807V257.541C314.775 258.039 314.652 258.53 314.422 258.972C314.192 259.414 313.861 259.796 313.456 260.086Z" fill="#757B89"/>
<path id="Vector_11" d="M313.456 277.67C312.721 278.104 312.119 277.67 312.119 276.669V265.935C312.126 265.436 312.252 264.945 312.484 264.503C312.716 264.061 313.049 263.68 313.456 263.391C314.191 262.956 314.781 263.391 314.781 264.391V275.125C314.775 275.623 314.652 276.114 314.422 276.556C314.192 276.998 313.861 277.38 313.456 277.67Z" fill="#757B89"/>
<path id="Vector_12" d="M286.314 250.281L213.107 207.962C211.972 207.151 211.045 206.085 210.398 204.849C209.751 203.613 209.404 202.242 209.384 200.847V180.658C209.384 177.921 211.047 176.654 213.107 177.848L286.314 220.155C287.447 220.97 288.373 222.039 289.019 223.277C289.666 224.514 290.014 225.886 290.037 227.282V247.459C290.037 250.208 288.362 251.462 286.314 250.281Z" fill="#E9EAF2"/>
<path id="Vector_13" d="M209.384 198.641V217.285L219.72 211.786L209.384 198.641Z" fill="#E9EAF2"/>
<path id="Vector_14" d="M279.484 229.839L224.274 197.928V192.188L279.484 224.098V229.839Z" fill="#D9DAE2"/>
<path id="Vector_15" d="M251.572 222.314L224.274 206.527V200.799L251.572 216.573V222.314Z" fill="#D9DAE2"/>
<path id="Vector_16" d="M266.461 341.707L213.107 310.87C211.972 310.059 211.045 308.992 210.398 307.756C209.751 306.52 209.404 305.149 209.384 303.754V293.25C209.384 290.512 211.047 289.246 213.107 290.44L266.461 321.277C267.594 322.09 268.52 323.157 269.166 324.393C269.813 325.628 270.161 326.998 270.184 328.393V338.885C270.184 341.635 268.509 342.901 266.461 341.707Z" fill="#E9EAF2"/>
<path id="Vector_17" d="M209.384 301.199V319.844L219.72 314.345L209.384 301.199Z" fill="#E9EAF2"/>
<path id="Vector_18" d="M262.233 332.458L220.612 308.399V302.658L262.233 326.718V332.458Z" fill="#D9DAE2"/>
<path id="Vector_19" d="M239.007 279.104L286.314 306.444C288.362 307.65 290.037 306.372 290.037 303.634V283.41C290.015 282.015 289.667 280.645 289.02 279.409C288.374 278.173 287.447 277.107 286.314 276.294L239.007 248.978C236.947 247.772 235.285 249.063 235.285 251.8V271.989C235.306 273.384 235.654 274.754 236.301 275.99C236.947 277.225 237.874 278.292 239.007 279.104Z" fill="#E9EAF2"/>
<path id="Vector_20" d="M290.037 301.428V320.073L279.689 302.622L290.037 301.428Z" fill="#E9EAF2"/>
<path id="Vector_21" d="M245.054 266.103L276.304 284.169V278.429L245.054 260.375V266.103Z" fill="#D9DAE2"/>
<path id="Vector_22" d="M245.054 274.715L261.799 284.399V278.659L245.054 268.975V274.715Z" fill="#D9DAE2"/>
<path id="Vector_23" d="M213.107 370.989L285.881 413.054C287.941 414.26 289.603 412.982 289.603 410.232V390.056C289.583 388.659 289.236 387.286 288.59 386.048C287.943 384.81 287.015 383.742 285.881 382.928L213.107 340.863C211.047 339.657 209.384 340.935 209.384 343.685V363.873C209.406 365.268 209.754 366.638 210.4 367.874C211.047 369.11 211.974 370.177 213.107 370.989Z" fill="#E9EAF2"/>
<path id="Vector_24" d="M289.603 408.037V426.682L279.267 409.231L289.603 408.037Z" fill="#E9EAF2"/>
<path id="Vector_25" d="M220.551 358.797L272.039 388.561V382.821L220.551 353.057V358.797Z" fill="#D9DAE2"/>
<path id="Vector_26" d="M220.551 367.407L268.521 395.133V389.392L220.551 361.666V367.407Z" fill="#D9DAE2"/>
<path id="Vector_27" d="M286.314 457.073L213.107 414.743C211.842 413.915 210.79 412.802 210.035 411.493C209.279 410.184 208.842 408.715 208.758 407.205V397.171C208.758 394.398 210.709 393.276 213.107 394.663L286.314 436.969C287.576 437.798 288.626 438.912 289.38 440.221C290.133 441.53 290.568 442.998 290.651 444.507V454.541C290.651 457.315 288.7 458.436 286.314 457.073ZM213.107 396.098C211.396 395.109 209.999 395.905 209.999 397.883V407.929C210.058 409.007 210.371 410.055 210.911 410.99C211.451 411.924 212.203 412.718 213.107 413.308L286.314 455.614C288.025 456.603 289.411 455.807 289.411 453.829V443.807C289.353 442.73 289.043 441.682 288.505 440.748C287.967 439.813 287.216 439.019 286.314 438.429L213.107 396.098Z" fill="#E9EAF2"/>
<path id="Vector_28" d="M215.998 411.39L214.757 410.679V401.115L215.998 401.827V411.39Z" fill="#E9EAF2"/>
<g id="Men 8">
<path id="Vector_29" opacity="0.4" d="M436.031 375.199C459.078 375.199 477.761 364.4 477.761 351.079C477.761 337.758 459.078 326.959 436.031 326.959C412.984 326.959 394.301 337.758 394.301 351.079C394.301 364.4 412.984 375.199 436.031 375.199Z" fill="#D6D8E5"/>
<path id="Vector_30" d="M458.98 344.917C456.077 347.329 451.752 345.122 451.584 345.339C448.178 348.505 444.603 351.485 440.874 354.263C439.067 355.686 436.248 357.592 436.754 360.293C437.67 365.19 445.5 363.682 448.451 362.187C451.403 360.691 453.812 358.207 456.607 356.47C458.607 355.264 460.57 354.589 460.884 352.068C461.088 350.573 459.522 344.844 458.98 344.917Z" fill="#38226D"/>
<path id="Vector_31" d="M460.86 351.078C460.486 353.49 458.547 354.153 456.571 355.384C453.728 357.144 451.222 359.701 448.271 361.197C445.548 362.571 438.742 363.946 436.826 360.449C437.862 365.176 445.548 363.693 448.475 362.21C451.403 360.726 453.836 358.23 456.631 356.493C458.631 355.287 460.595 354.612 460.908 352.091C460.924 351.753 460.908 351.413 460.86 351.078Z" fill="#9C73FF"/>
<path id="Vector_32" d="M433.827 335.534C430.923 337.946 425.84 335.317 425.635 335.534C422.608 338.595 419.41 341.482 416.058 344.181C414.251 345.605 411.432 347.51 411.95 350.211C412.853 355.108 420.684 353.6 423.635 352.105C426.587 350.609 429.008 348.125 431.803 346.388C433.791 345.182 435.754 344.507 436.067 341.986C436.248 340.491 434.345 335.474 433.827 335.534Z" fill="#38226D"/>
<path id="Vector_33" d="M435.971 341.299C435.597 343.711 433.658 344.374 431.682 345.604C428.839 347.377 426.334 349.922 423.382 351.417C420.66 352.804 413.853 354.179 411.938 350.682C412.974 355.397 420.672 353.914 423.587 352.43C426.502 350.947 428.948 348.462 431.755 346.714C433.742 345.508 435.706 344.832 436.019 342.312C436.035 341.973 436.019 341.634 435.971 341.299Z" fill="#9C73FF"/>
<path id="&#60;&#208;&#154;&#208;&#190;&#208;&#189;&#209;&#130;&#209;&#131;&#209;&#128;&#62;" d="M459.101 237.583C458.968 241.984 457.595 261.063 456.992 271.158C456.39 281.252 456.234 293.637 456.234 293.637C456.234 293.637 457.98 300.994 459.101 309.641C460.221 318.288 459.101 345.58 459.101 345.58C457.993 346.295 456.703 346.676 455.384 346.676C454.066 346.676 452.776 346.295 451.668 345.58C451.668 345.58 447.03 323.739 444.874 313.898C442.717 304.057 442.356 298.389 441.259 292.287C439.91 284.906 436.995 250.463 436.995 250.463L435.79 250.535L432.706 289.441C433.664 292.307 434.322 295.266 434.67 298.268C435.513 304.6 433.778 336.462 433.778 336.462C432.538 337.152 431.131 337.485 429.713 337.426C428.296 337.366 426.922 336.916 425.743 336.125C425.743 336.125 417.985 293.915 417.985 287.511C417.985 283.266 418.708 227.211 418.708 227.211L459.101 237.583Z" fill="#8C50FF"/>
<path id="&#60;&#208;&#154;&#208;&#190;&#208;&#189;&#209;&#130;&#209;&#131;&#209;&#128;&#62;_2" d="M448.584 152.717C448.584 152.717 448.09 162.292 448.307 163.149C448.524 164.005 452.692 166.767 453.909 167.804C455.125 168.841 447.295 176.547 443.488 178.296C439.681 180.045 427.611 175.438 427.406 169.504C427.201 163.571 429.466 158.59 431.321 158.325C433.176 158.059 448.584 152.717 448.584 152.717Z" fill="#FFCEA9"/>
<path id="Vector_34" d="M425.502 161.266C425.502 161.266 422.912 157.298 413.456 179.356C403.999 201.414 398.168 207.203 393.928 212.69C390.097 217.683 388.206 209.747 388.206 209.747C388.206 209.747 391.254 205.9 388.712 205.9C387.29 205.985 385.302 208.915 385.302 208.915L388.543 214.101L396.976 218.382C396.976 218.382 407.3 208.879 410.637 203.018C414.251 198.399 419.66 189.233 419.66 189.233L425.502 161.266Z" fill="#FFCEA9"/>
<path id="Vector_35" d="M385.339 213.389C385.242 213.317 382.724 210.386 382.724 210.386C382.724 210.386 381.219 209.072 382.857 208.975C384.495 208.879 390.338 208.867 390.338 208.867C390.935 208.809 391.532 208.977 392.012 209.337C392.747 209.916 401.216 220.649 401.216 220.649C401.216 220.649 401.59 221.3 400.493 221.373C399.397 221.445 392.302 221.373 392.302 221.373L385.339 213.389Z" fill="#20232D"/>
<path id="Vector_36" d="M384.652 211.58C384.652 211.58 382.158 211.11 382.737 213.51C383.315 215.91 386.893 218.394 386.893 218.394L390.627 221.53C391.084 221.823 391.615 221.979 392.157 221.979C392.7 221.979 393.231 221.823 393.687 221.53C394.651 220.927 396 219.287 394.518 217.731C393.036 216.175 391.711 212.762 387.929 212.907C387.929 212.907 387.724 212.002 385.519 211.701" fill="#FFCEA9"/>
<path id="&#60;&#208;&#154;&#208;&#190;&#208;&#189;&#209;&#130;&#209;&#131;&#209;&#128;&#62;_3" d="M449.656 164.801C449.656 164.801 442.705 175.148 433.02 176.125C429.972 173.11 429.695 162.389 433.923 158.964C433.923 158.964 430.032 155.816 427.37 156.431C424.219 158.135 421.808 160.944 420.599 164.318C418.816 169.782 417.817 176.077 417.973 186.244C418.13 196.41 417.973 227.453 417.973 227.453C417.973 227.453 419.346 234.025 428.104 238.91C436.862 243.794 443.319 244.264 449.343 242.877C454.246 241.732 458.294 240.007 459.98 236.449C459.546 229.322 456.366 210.737 457.571 201.777C458.775 192.816 460.643 186.099 461.185 178.863C461.727 171.627 460.221 171.759 456.595 169.215C454.393 167.576 452.073 166.101 449.656 164.801Z" fill="#F4F4F4"/>
<path id="&#60;&#208;&#154;&#208;&#190;&#208;&#189;&#209;&#130;&#209;&#131;&#209;&#128;&#62;_4" d="M453.535 241.79C454.981 240.174 457.462 231.213 458.884 225.557C460.256 219.207 460.533 212.669 459.703 206.225C458.426 198.507 454.884 187.822 453.884 183.396C452.884 178.97 454.21 177.088 456.173 175.303C458.474 173.205 461.907 173.832 464.124 179.983C467.017 188.489 468.96 197.29 469.919 206.225C470.438 212.88 469.856 219.575 468.196 226.04C466.714 232.07 464.582 236.435 461.763 241.959C461.004 243.454 459.269 247.663 458.149 250.702C457.029 253.742 452.222 243.261 453.535 241.79Z" fill="#FFCEA9"/>
<path id="&#60;&#208;&#154;&#208;&#190;&#208;&#189;&#209;&#130;&#209;&#131;&#209;&#128;&#62;_5" d="M426.924 138.437C428.068 130.996 433.417 125.364 441.079 125.786C444.16 125.948 447.112 127.074 449.519 129.006C451.927 130.937 453.668 133.576 454.497 136.551C455.326 139.526 455.201 142.687 454.14 145.587C453.079 148.487 451.136 150.981 448.584 152.716C448.309 153.84 447.904 154.929 447.379 155.96C444.669 159.132 436.477 161.098 434.128 160.784C431.104 160.35 429.478 159.084 428.032 155.779C425.502 149.918 426.297 142.115 426.924 138.437Z" fill="#FFCEA9"/>
<path id="Vector_37" d="M448.584 152.716L447.885 146.228C447.885 146.228 453.174 132.503 440.657 135.132C432.393 136.881 430.321 137.629 427.815 132.081C425.31 126.534 434.164 121.553 444.681 122.94C448.317 123.303 451.683 125.023 454.11 127.759C456.536 130.494 457.845 134.044 457.775 137.701C457.438 141.79 456.354 150.051 448.584 152.716Z" fill="#3A2C6D"/>
<path id="Vector_38" d="M469.991 189.946C469.991 189.946 463.172 196.748 455.089 194.77C453.884 193.986 451.162 178.091 451.162 178.091C451.162 178.091 451.162 169.287 457.908 169.516C464.654 169.745 469.991 189.946 469.991 189.946Z" fill="#EDEDED"/>
<path id="Vector_39" d="M418.021 181.02C418.021 181.02 413.6 181.575 412.13 179.5C412.396 175.882 418.286 157.431 427.43 156.43C425.203 158.445 423.28 160.773 421.72 163.34C418.455 168.755 418.021 181.02 418.021 181.02Z" fill="#EDEDED"/>
</g>
<g id="Men 2">
<path id="Vector_40" opacity="0.4" d="M41.6576 603.001C64.6644 603.001 83.3152 592.224 83.3152 578.929C83.3152 565.635 64.6644 554.857 41.6576 554.857C18.6507 554.857 0 565.635 0 578.929C0 592.224 18.6507 603.001 41.6576 603.001Z" fill="#D6D8E5"/>
<path id="&#60;&#208;&#154;&#208;&#190;&#208;&#189;&#209;&#130;&#209;&#131;&#209;&#128;&#62;_6" d="M11.1071 398.619C10.6373 402.671 5.81856 420.146 6.85458 426.14C7.8906 432.134 24.3826 442.144 24.3826 442.144L26.6714 431.893L17.528 422.932L19.9976 405.952L11.1071 398.619Z" fill="#FFCEA9"/>
<path id="&#60;&#208;&#154;&#208;&#190;&#208;&#189;&#209;&#130;&#209;&#131;&#209;&#128;&#62;_7" d="M23.8645 381.385C22.2588 380.645 20.4381 380.521 18.7466 381.034C17.0551 381.547 15.6102 382.663 14.6849 384.171C12.2756 388.199 9.73374 401.996 9.50485 404.359C9.50485 404.359 12.9141 409.063 18.0219 408.279L23.8645 381.385Z" fill="#EDEDED"/>
<path id="Vector_41" d="M42.7057 576.287C46.2944 577.28 50.1296 576.816 53.3791 574.996C55.957 575.081 69.9192 569.099 71.8105 574.116C73.473 578.518 67.4255 582.558 64.197 583.378C57.1497 585.079 51.9334 588.6 49.1025 589.203C46.9943 589.649 44.2838 589.939 42.5731 588.274C40.5613 586.285 40.73 578.88 42.7057 576.287Z" fill="#2B2A30"/>
<path id="Vector_42" d="M49.1025 587.985C51.9334 587.382 57.1497 583.86 64.197 582.16C66.9075 581.496 71.5696 578.542 72.0394 574.996C72.6659 579.048 67.2207 582.642 64.197 583.438C57.1497 585.139 51.9334 588.66 49.1025 589.263C46.9943 589.709 44.2838 589.999 42.5731 588.334C42.1381 587.857 41.8241 587.282 41.6576 586.658C42.7097 587.444 43.9307 587.973 45.2232 588.204C46.5157 588.434 47.844 588.359 49.1025 587.985Z" fill="#BF4B4B"/>
<path id="Vector_43" d="M20.0698 566.109C23.6586 567.102 27.4938 566.639 30.7432 564.819C33.3092 564.903 47.2713 558.921 49.1747 563.938C50.8372 568.34 44.7897 572.38 41.5612 573.2C34.5138 574.913 29.2856 578.422 26.4546 579.025C24.3464 579.472 21.6359 579.761 19.9373 578.097C17.9135 576.107 18.0701 568.738 20.0698 566.109Z" fill="#2B2A30"/>
<path id="Vector_44" d="M26.5028 577.807C29.3338 577.204 34.5621 573.683 41.6094 571.982C44.3079 571.319 48.982 568.364 49.4518 564.818C50.0782 568.871 44.6331 572.464 41.6094 573.26C34.5621 574.973 29.3338 578.482 26.5028 579.085C24.3946 579.532 21.6841 579.821 19.9855 578.157C19.551 577.677 19.2334 577.104 19.0579 576.48C20.1101 577.266 21.331 577.796 22.6235 578.026C23.916 578.256 25.2444 578.181 26.5028 577.807Z" fill="#BF4B4B"/>
<path id="&#60;&#208;&#154;&#208;&#190;&#208;&#189;&#209;&#130;&#209;&#131;&#209;&#128;&#62;_8" d="M19.7928 528.144C20.3896 522.954 21.4664 517.831 23.0093 512.84C23.0093 512.84 22.0576 499.635 21.5757 487.104C21.0216 472.898 16.0944 460.391 19.9855 449.043L63.8477 458.799C63.8477 458.799 61.1974 515.481 60.6071 522.32C60.2861 527.658 59.6302 532.971 58.6435 538.227C56.6437 549.225 53.3911 575.383 53.3911 575.383C48.7652 578.085 42.6816 576.589 42.6816 576.589C42.6816 576.589 43.0189 543.497 43.32 535.585C43.6814 525.938 43.9706 526.649 43.9706 526.649L42.525 502.529L41.5853 490.541C41.5853 490.541 40.3806 499.345 39.5856 507.208C38.8868 514.058 37.1762 520.257 35.3933 533.017C33.7911 544.088 31.189 566.326 31.189 566.326C26.563 569.016 20.2747 566.785 20.2747 566.785C20.2747 566.785 18.5399 537.744 19.7928 528.144Z" fill="#E26161"/>
<path id="&#60;&#208;&#154;&#208;&#190;&#208;&#189;&#209;&#130;&#209;&#131;&#209;&#128;&#62;_9" d="M26.1895 381.628C29.5265 381.796 32.0081 382.653 32.4177 381.628C32.7792 379.904 33.0367 378.16 33.1887 376.406C32.8032 375.429 32.4659 374.392 32.4659 374.392C28.2857 371.811 26.9605 367.276 26.4425 362.006C25.5029 352.985 30.3698 345.122 39.3807 344.145C47.8134 343.253 54.0898 349.222 55.7522 357.411C56.6437 361.451 58.4266 369.085 56.0172 375.73C54.668 379.445 52.9333 382.399 51.1985 382.966C49.521 382.913 47.8478 382.764 46.1871 382.52C46.1871 382.52 45.7414 385.016 45.4282 386.632C45.115 388.248 45.2475 389.044 48.4398 391.058C51.6322 393.072 43.6212 397.088 38.3567 396.69C33.0923 396.292 27.2015 393.072 25.5752 389.72C23.7441 385.981 23.9007 381.519 26.1895 381.628Z" fill="#FFCEA9"/>
<path id="&#60;&#208;&#154;&#208;&#190;&#208;&#189;&#209;&#130;&#209;&#131;&#209;&#128;&#62;_10" d="M31.0083 382.122C30.0927 384.437 32.4418 387.259 38.7061 389.225C44.9704 391.191 45.5366 388.658 45.5366 388.658C45.5366 388.658 54.7162 392.855 57.7038 394.941C61.4744 397.57 63.1369 405.192 63.6428 418.048C64.2331 432.918 64.2813 454.988 63.7874 458.799C63.7874 458.799 56.7642 465.806 47.7653 465.07C38.7664 464.335 23.6718 456.363 19.9735 450.212C20.0698 437.163 21.5998 435.041 19.4916 427.527C14.6729 410.33 12.119 403.287 14.4561 391.854C16.3956 382.435 19.1061 381.265 22.8888 381.35C25.6068 381.466 28.3169 381.724 31.0083 382.122Z" fill="#F4F4F4"/>
<path id="&#60;&#208;&#154;&#208;&#190;&#208;&#189;&#209;&#130;&#209;&#131;&#209;&#128;&#62;_11" d="M77.7736 430.35C70.401 432.207 68.6663 427.552 67.6905 423.693C65.3535 414.347 64.0765 405.917 62.3297 400.61C60.2697 394.363 58.1134 393.374 55.1017 392.168C51.4877 390.745 48.476 393.76 49.6566 401.72C51.066 411.127 52.9092 417.735 56.4148 428.879C57.3424 431.785 59.4024 436.947 62.4382 439.443C66.2449 442.531 71.9792 442.398 80.6528 440.239C84.3511 439.311 88.4109 437.104 95.41 433.836C97.3134 432.955 98.7831 432.352 102.397 430.664C106.019 429.034 109.193 426.552 111.649 423.428C113.54 420.69 113.203 418.941 112.854 418.326C112.504 417.711 112.095 418.17 111.083 419.315C109.626 421.266 107.826 422.933 105.77 424.236C105.77 424.236 108.107 421.824 109.384 420.256C110.514 418.867 111.454 417.334 112.179 415.697C112.842 414.093 111.468 411.923 110.42 413.068C109.372 414.214 108.878 415.36 106.975 417.651C105.946 418.866 104.777 419.955 103.493 420.895C104.677 419.29 105.728 417.593 106.638 415.818C107.842 413.346 103.807 414.612 101.494 417.024C99.8071 418.773 98.3735 419.786 98.3253 419.303C98.2772 418.821 95.0004 422.354 93.326 424.127C91.6515 425.9 84.7969 428.577 77.7736 430.35Z" fill="#FFCEA9"/>
<path id="&#60;&#208;&#154;&#208;&#190;&#208;&#189;&#209;&#130;&#209;&#131;&#209;&#128;&#62;_12" d="M52.343 390.877C57.2701 390.142 60.7757 392.361 62.932 399.838C65.0884 407.315 66.6304 413.454 66.6304 413.454C64.6812 416.271 61.7284 418.235 58.3784 418.941C52.4755 420.364 50.3553 417.554 50.3553 417.554C50.3553 417.554 48.7169 409.715 47.705 404.385C46.6931 399.054 46.2473 391.77 52.343 390.877Z" fill="#EDEDED"/>
<path id="Vector_45" d="M55.4149 356.253C55.4149 356.253 63.1971 344.398 46.3317 341.986C34.1645 340.249 26.3462 348.076 25.4427 356.566C24.5753 364.683 29.5627 373.101 33.1767 376.453C34.9355 377.08 38.7182 377.442 43.6935 375.175C43.8918 372.966 43.9682 370.747 43.9223 368.53C43.9223 368.53 37.9954 356.036 55.4149 356.253Z" fill="#2B2A30"/>
</g>
<path id="Vector_46" d="M94.9522 421.026C94.9522 421.026 93.0368 417.541 94.2535 416.672C95.4702 415.804 97.205 419.084 97.5543 420.351C97.9037 421.617 97.4218 419.965 97.4218 419.965C97.4218 419.965 96.1087 416.021 96.964 415.261C97.8194 414.501 98.9638 416.19 100.108 418.662C101.253 421.134 100.385 418.457 100.385 418.457C100.385 418.457 98.494 414.501 99.3011 413.947C100.385 413.223 102.168 415.563 103.228 417.673C104.288 419.784 101.807 422.292 101.807 422.292L94.9522 421.026Z" fill="#FFCEA9"/>
<g id="Mobile">
<path id="Vector_47" d="M98.6506 427.263L91.5551 423.126C90.9407 422.776 91.025 422.173 91.7238 421.763L108.999 411.778C109.364 411.571 109.773 411.454 110.192 411.438C110.611 411.421 111.028 411.504 111.408 411.681L118.564 415.818C119.166 416.167 119.094 416.782 118.395 417.18L101.012 427.166C100.654 427.368 100.253 427.481 99.8428 427.498C99.4324 427.515 99.0239 427.434 98.6506 427.263Z" fill="#B1B4C4"/>
<path id="Vector_48" d="M91.0853 422.534V421.871L91.8563 422.161L91.0853 422.534Z" fill="#B1B4C4"/>
<path id="Vector_49" d="M118.865 416.383V415.756L118.251 416.142L118.865 416.383Z" fill="#B1B4C4"/>
<path id="Vector_50" d="M98.6506 426.708L91.5551 422.571C90.9407 422.222 91.025 421.606 91.7238 421.209L108.939 411.247C109.303 411.037 109.712 410.919 110.131 410.902C110.551 410.886 110.968 410.971 111.348 411.15L118.504 415.287C119.106 415.637 119.034 416.24 118.335 416.65L101.06 426.635C100.693 426.838 100.283 426.951 99.864 426.963C99.445 426.976 99.0291 426.888 98.6506 426.708Z" fill="#616E84"/>
<path id="Vector_51" d="M92.7178 425.116C92.7524 425.096 92.7509 425.028 92.7145 424.965C92.678 424.901 92.6204 424.866 92.5858 424.886C92.5512 424.906 92.5527 424.973 92.5892 425.037C92.6256 425.1 92.6832 425.136 92.7178 425.116Z" fill="#757B89"/>
<path id="Vector_52" d="M92.6904 423.617C92.7249 423.597 92.7233 423.53 92.6867 423.466C92.6501 423.403 92.5924 423.368 92.5578 423.388C92.5233 423.408 92.5249 423.475 92.5615 423.539C92.5981 423.602 92.6558 423.637 92.6904 423.617Z" fill="#757B89"/>
<path id="Vector_53" d="M93.0367 423.832C93.0712 423.812 93.0696 423.745 93.033 423.681C92.9964 423.618 92.9387 423.583 92.9041 423.602C92.8696 423.622 92.8712 423.69 92.9078 423.754C92.9444 423.817 93.0021 423.852 93.0367 423.832Z" fill="#757B89"/>
<path id="Vector_54" d="M93.3874 424.018C93.422 423.998 93.4203 423.93 93.3838 423.867C93.3472 423.803 93.2895 423.768 93.2549 423.788C93.2203 423.808 93.222 423.876 93.2586 423.939C93.2952 424.003 93.3529 424.038 93.3874 424.018Z" fill="#757B89"/>
<path id="Vector_55" d="M96.341 425.735C96.3755 425.715 96.3739 425.647 96.3373 425.584C96.3007 425.52 96.243 425.485 96.2085 425.505C96.1739 425.525 96.1755 425.592 96.2121 425.656C96.2487 425.719 96.3064 425.755 96.341 425.735Z" fill="#757B89"/>
<path id="Vector_56" d="M96.6858 425.932C96.7203 425.912 96.7187 425.844 96.6821 425.781C96.6455 425.717 96.5878 425.682 96.5533 425.702C96.5187 425.722 96.5203 425.79 96.5569 425.853C96.5935 425.917 96.6512 425.952 96.6858 425.932Z" fill="#757B89"/>
<path id="Vector_57" d="M97.026 426.135C97.0606 426.115 97.059 426.047 97.0224 425.984C96.9858 425.92 96.9281 425.885 96.8935 425.905C96.859 425.925 96.8606 425.993 96.8972 426.056C96.9338 426.12 96.9915 426.155 97.026 426.135Z" fill="#757B89"/>
<path id="Vector_58" d="M97.3708 426.33C97.4053 426.31 97.4037 426.243 97.3671 426.179C97.3305 426.116 97.2728 426.081 97.2383 426.101C97.2037 426.121 97.2053 426.188 97.2419 426.252C97.2785 426.315 97.3362 426.35 97.3708 426.33Z" fill="#757B89"/>
<path id="Vector_59" d="M95.2776 425.176L94.326 424.634C94.2926 424.608 94.2655 424.575 94.2468 424.538C94.228 424.5 94.218 424.459 94.2175 424.417C94.2175 424.344 94.2175 424.308 94.326 424.344L95.2776 424.887C95.3107 424.91 95.3378 424.941 95.3567 424.976C95.3755 425.012 95.3856 425.052 95.3861 425.092C95.3861 425.176 95.3379 425.213 95.2776 425.176Z" fill="#757B89"/>
<path id="Vector_60" d="M116.697 417.951L115.817 418.457C115.817 418.457 115.721 418.457 115.721 418.385C115.723 418.348 115.733 418.312 115.75 418.279C115.766 418.246 115.789 418.216 115.817 418.192L116.697 417.686C116.697 417.686 116.805 417.686 116.805 417.758C116.805 417.797 116.795 417.835 116.776 417.868C116.757 417.902 116.73 417.93 116.697 417.951Z" fill="#757B89"/>
<path id="Vector_61" d="M115.347 418.736L114.468 419.243C114.468 419.243 114.372 419.243 114.372 419.17C114.371 419.133 114.379 419.095 114.396 419.062C114.412 419.028 114.437 418.999 114.468 418.977L115.347 418.471C115.347 418.471 115.456 418.471 115.456 418.543C115.454 418.582 115.444 418.619 115.425 418.653C115.406 418.686 115.38 418.715 115.347 418.736Z" fill="#757B89"/>
<path id="Vector_62" d="M98.6498 426.611L91.5543 422.474C90.9399 422.124 91.0242 421.509 91.723 421.099L108.998 411.114C109.363 410.907 109.772 410.79 110.191 410.774C110.61 410.757 111.027 410.84 111.407 411.017L118.563 415.154C119.165 415.503 119.093 416.118 118.394 416.516L101.119 426.502C100.749 426.723 100.329 426.848 99.8982 426.867C99.4673 426.886 99.0385 426.798 98.6498 426.611Z" fill="#20232D"/>
<path id="Vector_63" d="M117.684 415.323L114.902 413.658C114.716 413.755 114.509 413.806 114.299 413.806C114.09 413.806 113.883 413.755 113.697 413.658C113.36 413.465 113.36 413.164 113.697 412.971L110.914 411.355C110.675 411.236 110.411 411.174 110.143 411.174C109.876 411.174 109.612 411.236 109.372 411.355L92.5068 421.075C92.0852 421.328 92.0852 421.726 92.5068 421.968L99.2891 425.887C99.5267 426.006 99.7886 426.068 100.054 426.068C100.32 426.068 100.582 426.006 100.819 425.887L117.684 416.155C118.118 415.962 118.118 415.564 117.684 415.323Z" fill="#2B303F"/>
<path id="Vector_64" opacity="0.5" d="M117.684 415.323L114.902 413.658C114.716 413.755 114.509 413.806 114.299 413.806C114.09 413.806 113.883 413.755 113.697 413.658C113.36 413.465 113.36 413.164 113.697 412.971L110.914 411.355C110.675 411.236 110.411 411.174 110.143 411.174C109.876 411.174 109.612 411.236 109.372 411.355L92.5068 421.075C92.0852 421.328 92.0852 421.726 92.5068 421.968L99.2891 425.887C99.5267 426.006 99.7886 426.068 100.054 426.068C100.32 426.068 100.582 426.006 100.819 425.887L117.684 416.155C118.118 415.962 118.118 415.564 117.684 415.323Z" fill="url(#paint0_linear)"/>
<path id="Vector_65" d="M114.107 413.647C114.286 413.647 114.432 413.566 114.432 413.466C114.432 413.366 114.286 413.285 114.107 413.285C113.927 413.285 113.781 413.366 113.781 413.466C113.781 413.566 113.927 413.647 114.107 413.647Z" fill="#2B303F"/>
<path id="Vector_66" opacity="0.1" d="M114.01 413.525C114.01 413.525 114.01 413.441 114.01 413.417C114.039 413.398 114.073 413.389 114.107 413.389C114.141 413.389 114.174 413.398 114.203 413.417C114.203 413.417 114.203 413.489 114.203 413.525C114.141 413.549 114.072 413.549 114.01 413.525Z" fill="white"/>
</g>
<path id="Vector_67" d="M109.77 425.61C109.77 425.61 113.552 422.197 113.384 417.674C113.155 414.527 111.252 416.794 111.252 416.794L109.336 420.267C108.386 421.55 107.148 422.591 105.722 423.306C104.38 423.435 103.045 423.633 101.723 423.897C99.3734 424.355 97.0364 427.298 97.0364 427.298L99.9878 429.626L109.77 425.61Z" fill="#FFCEA9"/>
<path id="Vector_68" d="M92.2177 265.779L22.5756 225.523C21.9064 225.061 21.142 224.756 20.3391 224.631C19.5361 224.506 18.7153 224.563 17.9376 224.799C17.6403 224.922 17.3607 225.084 17.1063 225.282L9.33621 229.732L15.3596 236.811V265.875C15.4948 268.389 16.2197 270.836 17.4755 273.017C18.7312 275.198 20.4826 277.053 22.5876 278.43L44.2717 292.07L50.1626 305.589L43.9585 316.117L52.596 311.173L60.7998 301.633L86.9773 315.828L88.3868 324.27L97.205 319.229L97.4459 319.084H97.5303C98.2033 318.541 98.7315 317.839 99.0678 317.041C99.4042 316.244 99.5381 315.375 99.4577 314.513V278.333C99.3212 275.819 98.5944 273.371 97.3365 271.19C96.0786 269.009 94.3249 267.155 92.2177 265.779Z" fill="#FF7B7B"/>
<path id="Vector_69" d="M83.5922 270.722L13.9501 230.478C9.9506 228.163 6.72208 230.032 6.72208 234.651V270.831C6.85732 273.345 7.58219 275.791 8.83796 277.972C10.0937 280.154 11.8451 282.008 13.9501 283.385L35.6342 297.037L43.9585 316.128L52.1623 306.589L83.5802 323.642C87.5797 325.945 90.8082 324.076 90.8082 319.457V283.277C90.6743 280.764 89.9513 278.318 88.6977 276.137C87.444 273.956 85.695 272.101 83.5922 270.722Z" fill="#E26D6D"/>
<path id="Vector_70" d="M486.748 41.3173L416.961 0.988705C416.292 0.523206 415.526 0.215251 414.72 0.08786C413.915 -0.039531 413.092 0.0169379 412.311 0.253045C412.011 0.370945 411.731 0.533586 411.48 0.735445L403.698 5.19765L409.721 12.2769V41.4138C409.855 43.9312 410.58 46.3816 411.836 48.5667C413.091 50.7519 414.843 52.6106 416.949 53.9924L438.694 67.6684L444.596 81.2118L438.392 91.7643L447.054 86.8318L455.27 77.2682L481.483 91.499L482.905 99.941L491.735 94.8758L491.976 94.7431H492.06C492.737 94.2023 493.269 93.5013 493.608 92.7034C493.946 91.9054 494.081 91.0356 494 90.1724V53.9924C493.878 51.4562 493.157 48.9852 491.896 46.7819C490.636 44.5787 488.871 42.7059 486.748 41.3173Z" fill="#8C50FF"/>
<path id="Vector_71" opacity="0.2" d="M486.748 41.3173L416.961 0.988705C416.292 0.523206 415.526 0.215251 414.72 0.08786C413.915 -0.039531 413.092 0.0169379 412.311 0.253045C412.011 0.370945 411.731 0.533586 411.48 0.735445L403.698 5.19765L409.721 12.2769V41.4138C409.855 43.9312 410.58 46.3816 411.836 48.5667C413.091 50.7519 414.843 52.6106 416.949 53.9924L438.694 67.6684L444.596 81.2118L438.392 91.7643L447.054 86.8318L455.27 77.2682L481.483 91.499L482.905 99.941L491.735 94.8758L491.976 94.7431H492.06C492.737 94.2023 493.269 93.5013 493.608 92.7034C493.946 91.9054 494.081 91.0356 494 90.1724V53.9924C493.878 51.4562 493.157 48.9852 491.896 46.7819C490.636 44.5787 488.871 42.7059 486.748 41.3173Z" fill="black"/>
<path id="Vector_72" d="M478.086 46.2746L408.312 5.94601C404.312 3.63049 401.084 5.51185 401.084 10.1429V46.3229C401.218 48.8403 401.942 51.2906 403.198 53.4758C404.454 55.661 406.205 57.5197 408.312 58.9015L430.068 72.6257L438.416 91.765L446.632 82.2014L478.098 99.2783C482.11 101.594 485.326 99.7246 485.326 95.0935V58.9135C485.201 56.3845 484.48 53.921 483.221 51.7244C481.963 49.5278 480.203 47.6603 478.086 46.2746Z" fill="#8C50FF"/>
<path id="Vector_73" d="M424.038 44.6412C425.992 43.5123 425.992 39.8522 424.039 36.4663C422.087 33.0803 418.92 31.2507 416.967 32.3797C415.014 33.5086 415.013 37.1687 416.966 40.5546C418.919 43.9406 422.085 45.7702 424.038 44.6412Z" fill="white"/>
<path id="Vector_74" d="M446.476 56.8401C448.438 55.7111 448.446 52.0385 446.493 48.637C444.54 45.2355 441.367 43.3933 439.404 44.5222C437.442 45.6512 437.434 49.3238 439.387 52.7253C441.34 56.1268 444.514 57.969 446.476 56.8401Z" fill="white"/>
<path id="Vector_75" d="M465.429 68.5768C467.382 67.4478 467.382 63.7878 465.429 60.4018C463.477 57.0159 460.31 55.1862 458.357 56.3152C456.404 57.4442 456.403 61.1042 458.356 64.4902C460.309 67.8761 463.475 69.7057 465.429 68.5768Z" fill="white"/>
<path id="Vector_76" d="M366.799 116.812C366.799 108.37 360.86 98.0348 353.547 93.8017C349.644 91.5465 346.151 91.4862 343.729 93.1746L339.32 95.671L341.199 96.4187C340.554 98.0235 340.238 99.7422 340.272 101.472C340.272 109.914 346.211 120.237 353.523 124.482C354.651 125.152 355.868 125.66 357.137 125.99V128.631L362.823 125.423C365.329 123.988 366.799 121.021 366.799 116.812Z" fill="#DD990E"/>
<path id="Vector_77" d="M358.047 128.239C363.227 125.245 363.224 115.532 358.041 106.545C352.859 97.5586 344.458 92.7003 339.278 95.6943C334.098 98.6882 334.1 108.401 339.283 117.387C344.466 126.374 352.867 131.232 358.047 128.239Z" fill="#F9CB07"/>
<path id="Vector_78" d="M344.761 107.811C345.499 107.384 345.498 106.001 344.759 104.72C344.021 103.44 342.824 102.747 342.087 103.173C341.349 103.6 341.35 104.983 342.088 106.264C342.827 107.544 344.023 108.237 344.761 107.811Z" fill="#CC8B09"/>
<path id="Vector_79" d="M355.05 113.742C355.787 113.316 355.787 111.932 355.048 110.652C354.31 109.371 353.113 108.679 352.376 109.105C351.638 109.531 351.639 110.915 352.377 112.196C353.116 113.476 354.312 114.169 355.05 113.742Z" fill="#CC8B09"/>
<path id="Vector_80" d="M343.428 113.678C343.428 113.678 345.163 118.429 348.656 120.443C352.15 122.457 354.198 119.901 354.198 119.901L343.428 113.678Z" fill="#CC8B09"/>
<path id="Vector_81" d="M120.371 369.422L127.864 373.763V354.431L120.371 350.102V369.422Z" fill="#4399FF"/>
<path id="Vector_82" d="M127.864 354.455L120.371 350.113L126.442 346.604L134.237 350.969L127.864 354.455Z" fill="#70B6FC"/>
<path id="Vector_83" d="M156.318 368.24C156.287 367.328 156.028 366.439 155.565 365.653C155.102 364.867 154.45 364.21 153.668 363.741L144.886 358.664L146.283 352.067V351.573C146.288 350.871 146.191 350.172 145.994 349.498C145.729 348.63 144.79 346.568 144.187 346.99L134.996 352.308C134.441 352.465 134.164 353.104 134.164 354.069V370.242C134.221 371.207 134.502 372.146 134.985 372.983C135.468 373.821 136.14 374.534 136.947 375.066L149.488 382.302C150.596 382.941 151.572 382.7 151.994 381.819L156.174 372.798C156.299 372.464 156.348 372.105 156.318 371.749V368.24Z" fill="#FFCEA9"/>
<path id="Vector_84" d="M147.091 384.955L151.512 382.362L147.488 376.898L147.091 384.955Z" fill="#FFCEA9"/>
<path id="Vector_85" d="M152.102 370.7C152.067 369.789 151.807 368.901 151.344 368.116C150.882 367.33 150.231 366.673 149.452 366.201L140.67 361.136L142.067 354.527V354.045C142.072 353.339 141.974 352.636 141.778 351.959C141.513 351.09 140.573 349.04 139.971 349.45L130.779 354.769C130.225 354.925 129.948 355.577 129.948 356.541V372.653C130.003 373.619 130.283 374.559 130.766 375.397C131.25 376.235 131.922 376.947 132.731 377.477L145.271 384.713C146.38 385.365 147.356 385.124 147.777 384.231L151.957 375.21C152.083 374.875 152.132 374.517 152.102 374.161V370.7Z" fill="#EFBD9C"/>
</g>
</g>
</g>
<defs>
<linearGradient id="paint0_linear" x1="85.9046" y1="434.477" x2="95.0844" y2="418.522" gradientUnits="userSpaceOnUse">
<stop offset="0.21" stop-color="white" stop-opacity="0"/>
<stop offset="1" stop-color="white" stop-opacity="0.2"/>
</linearGradient>
<clipPath id="clip0">
<rect width="494" height="603" fill="white"/>
</clipPath>
</defs>
</svg>
