<svg width="542" height="603" viewBox="0 0 542 603" fill="none" xmlns="http://www.w3.org/2000/svg">
<g id="Creative_process_SVG">
<g id="&#208;&#161;&#208;&#187;&#208;&#190;&#208;&#185; 2">
<g id="&#208;&#161;&#208;&#187;&#208;&#190;&#208;&#185; 1">
<path id="Vector" opacity="0.4" d="M493.954 293.046C520.489 293.046 542 280.632 542 265.32C542 250.007 520.489 237.594 493.954 237.594C467.419 237.594 445.908 250.007 445.908 265.32C445.908 280.632 467.419 293.046 493.954 293.046Z" fill="#D6D8E5"/>
<g id="Girl 8">
<path id="&#60;&#208;&#154;&#208;&#190;&#208;&#189;&#209;&#130;&#209;&#131;&#209;&#128;&#62;" d="M501.545 16.885C503.416 13.87 517.742 11.8921 522.449 24.0124C524.235 28.6193 523.969 40.3658 525.466 47.7586C526.962 55.1513 530.474 59.3241 531.742 65.3179C533.009 71.3117 530.945 81.3818 516.547 83.215C502.149 85.0481 490.985 79.9226 487.582 75.3277C484.178 70.7329 484.094 60.9401 487.642 55.682C491.19 50.4238 493.882 46.1546 493.797 39.3166L501.545 16.885Z" fill="#3A2C6D"/>
<path id="Vector_2" d="M484.383 67.6677C484.383 67.6677 480.992 91.5947 487.4 108.672C493.809 125.749 492.047 104.282 492.047 104.282L490.502 99.2046C490.502 99.2046 489.211 79.595 489.742 74.771C490.273 69.947 490.152 65.8466 490.502 65.4607C490.852 65.0748 489.223 64.315 488.547 64.2547C487.871 64.1944 484.383 67.6677 484.383 67.6677Z" fill="#FFCEA9"/>
<path id="&#60;&#208;&#154;&#208;&#190;&#208;&#189;&#209;&#130;&#209;&#131;&#209;&#128;&#62;_2" d="M511.007 14.8218C511.007 14.8218 500.218 11.7224 493.676 17.5474C491.519 19.532 489.947 22.0706 489.134 24.8862C488.322 27.7019 488.298 30.6866 489.066 33.5148C489.935 36.9158 491.685 41.5589 494.388 41.8121C497.092 42.0654 511.007 14.8218 511.007 14.8218Z" fill="#3A2C6D"/>
<path id="&#60;&#208;&#154;&#208;&#190;&#208;&#189;&#209;&#130;&#209;&#131;&#209;&#128;&#62;_3" d="M515.123 44.2129C515.123 44.2129 514.423 56.2729 514.64 57.105C514.857 57.9372 519.359 58.8417 520.614 59.8909C521.869 60.9401 514.085 73.1569 510.114 74.9297C506.143 76.7025 493.869 72.1197 493.025 66.0174C492.228 60.3974 496.537 56.0317 498.19 54.5121C499.317 54.3996 500.45 54.3714 501.581 54.4277L501.943 48.6027C507.314 46.8902 515.123 44.2129 515.123 44.2129Z" fill="#FFCEA9"/>
<path id="&#60;&#208;&#154;&#208;&#190;&#208;&#189;&#209;&#130;&#209;&#131;&#209;&#128;&#62;_4" d="M516.776 58.2738C520.155 58.7924 524.017 60.6014 524.536 62.4466C525.164 64.6053 526.491 74.7599 523.571 82.4903C520.65 90.2208 518.683 95.1413 516.993 98.4698C516.993 98.4698 502.39 104.741 490.611 97.4327C490.611 97.4327 489.79 89.1474 489.742 84.7094C478.88 75.2302 488.161 63.5441 497.381 54.4629C498.486 54.3665 499.596 54.3665 500.7 54.4629C500.7 54.4629 492.481 64.1109 498.19 69.6947C510.428 65.9561 512.854 60.4688 516.776 58.2738Z" fill="#F4F4F4"/>
<path id="&#60;&#208;&#154;&#208;&#190;&#208;&#189;&#209;&#130;&#209;&#131;&#209;&#128;&#62;_5" d="M492.674 29.3301C493.881 21.6117 499.457 15.7867 507.423 16.2571C509.44 16.3694 511.416 16.8785 513.236 17.7549C515.057 18.6314 516.686 19.8582 518.032 21.3649C519.377 22.8717 520.412 24.6289 521.076 26.5358C521.741 28.4427 522.023 30.4619 521.905 32.4778C521.764 34.8216 521.082 37.1009 519.911 39.1369C518.741 41.1728 517.114 42.91 515.159 44.2121C514.885 45.3796 514.48 46.5123 513.952 47.5889C511.116 50.8693 503.633 52.9556 501.159 52.9798C499.023 52.9798 497.176 51.014 495.124 47.6975C490.949 40.7992 492.011 33.1411 492.674 29.3301Z" fill="#FFCEA9"/>
<path id="Vector_3" d="M509.897 16.3901C515.485 17.4876 520.071 19.0554 521.591 24.5427C522.629 28.3174 524.005 35.5052 522.69 38.5443L521.893 40.7272L515.123 44.2125C515.123 44.2125 511.973 41.5834 512.95 33.8771C512.912 32.8342 512.582 31.823 511.997 30.9586C511.577 30.2311 511.264 29.4473 511.067 28.631C510.264 26.5515 508.697 24.8564 506.686 23.8914C501.642 21.0694 494.268 23.5055 493.242 24.5306C494.66 21.4687 497.09 18.9881 500.123 17.5056C503.156 16.0232 506.607 15.6293 509.897 16.3901Z" fill="#3A2C6D"/>
<path id="&#60;&#208;&#154;&#208;&#190;&#208;&#189;&#209;&#130;&#209;&#131;&#209;&#128;&#62;_6" d="M524.995 114.388C526.202 106.574 528.616 101.496 527.505 97.203C525.074 88.5021 521.892 80.0283 517.995 71.877C515.581 67.053 516.269 63.628 518.828 61.7104C521.712 59.5517 524.464 60.5044 527.059 65.8832C530.317 72.6609 533.998 79.6195 535.784 89.7137C536.665 94.6101 537.124 99.3617 535.543 109.42C534.433 116.451 532.2 120.394 529.509 126.991C528.772 128.788 523.86 121.021 524.995 114.388Z" fill="#FFCEA9"/>
<path id="Vector_4" d="M520.047 260.231C517.223 262.534 512.805 260.942 512.612 261.159C509.728 264.042 505.443 266.55 502.245 269.059C500.483 270.446 497.743 272.303 498.238 274.956C499.131 279.72 506.759 278.261 509.631 276.801C512.504 275.342 514.857 272.93 517.585 271.242C519.516 270.036 521.435 269.408 521.736 266.96C521.917 265.477 520.541 260.183 520.047 260.231Z" fill="#38226D"/>
<path id="Vector_5" d="M521.7 265.971C521.326 268.383 519.443 268.962 517.512 270.156C514.748 271.88 512.31 274.352 509.438 275.812C506.771 277.15 500.145 278.489 498.274 275.088C499.288 279.683 506.783 278.236 509.631 276.801C512.479 275.365 514.857 272.929 517.585 271.241C519.516 270.035 521.435 269.408 521.736 266.96C521.758 266.63 521.746 266.298 521.7 265.971Z" fill="#9C73FF"/>
<path id="Vector_6" d="M500.205 256.276C497.623 258.386 493.712 257.204 493.519 257.397C490.888 260.038 486.978 262.306 484.057 264.633C482.44 265.912 479.918 267.6 480.376 270.048C481.197 274.402 488.173 273.063 490.816 271.725C493.459 270.386 495.643 268.179 498.057 266.635C499.831 265.538 501.581 264.959 501.859 262.716C502.064 261.329 500.664 256.227 500.205 256.276Z" fill="#38226D"/>
<path id="Vector_7" d="M501.871 261.775C501.521 263.922 499.795 264.513 498.033 265.61C495.499 267.19 493.206 269.458 490.635 270.784C488.221 271.99 482.187 273.196 480.413 270.133C481.342 274.33 488.209 273.015 490.816 271.689C493.423 270.362 495.643 268.143 498.057 266.599C499.831 265.502 501.581 264.923 501.859 262.68C501.898 262.38 501.902 262.076 501.871 261.775Z" fill="#9C73FF"/>
<path id="Vector_8" d="M484.963 124.858C486.17 115.125 489.79 100.967 489.79 100.967C493.201 102.562 496.891 103.476 500.652 103.656C506.94 103.982 517.005 102.064 517.005 102.064C518.755 105.131 520.673 108.098 522.75 110.952C525.562 114.848 531.017 123.398 529.702 138.317C528.833 148.073 523.366 189.487 523.366 189.487C525.496 196.481 526.63 203.74 526.733 211.05C526.673 217.08 525.092 227.307 523.305 236.774L520.047 260.279C520.047 260.279 515.702 263.415 512.612 261.208L512.999 238.198C512.624 232.566 512.057 224.256 511.707 218.902C511.116 210.267 509.571 196.542 509.124 193.117C508.678 189.692 507.58 183.71 507.049 176.993C506.518 170.276 503.995 136.194 503.995 136.194L503.645 142.586C503.645 142.586 503.319 152.945 501.823 165.741C500.326 178.537 499.807 184.205 499.807 184.205C499.807 184.205 502.402 188.957 502.728 192.466C502.993 195.228 506.156 217.093 504.261 228.212L500.387 256.493C499.419 257.157 498.308 257.584 497.143 257.737C495.979 257.89 494.795 257.765 493.688 257.373L491.407 228.875C489.875 218.021 486.58 195.035 486.133 192.044C485.482 188.112 484.926 186.171 484.202 173.809C483.478 161.448 483.72 134.602 484.963 124.858Z" fill="#FFCEA9"/>
<path id="Vector_9" d="M516.993 98.4701L525.441 115.354C525.441 115.354 538.246 134.095 524.983 182.251L527.409 197.073C527.409 197.073 502.281 213.185 485.469 197.073C485.469 197.073 479.64 152.571 482.742 132.045C484.463 120.241 487.082 108.586 490.574 97.1797C490.574 97.1797 494.69 101.726 515.919 98.7234" fill="#8C50FF"/>
<path id="Vector_10" d="M532.055 75.3277C532.055 75.3277 526.226 81.1285 519.31 80.4049L515.992 69.1168C515.992 69.1168 513.831 63.2074 518.876 60.6748C523.921 58.1422 529.159 63.7621 532.055 75.3277Z" fill="#EDEDED"/>
<path id="Vector_11" d="M497.381 54.4631C497.381 54.4631 490.707 52.4371 483.623 67.1985L486.266 68.8025C486.266 68.8025 493.242 58.262 497.381 54.4631Z" fill="#EDEDED"/>
</g>
<path id="Vector_12" opacity="0.4" d="M48.0461 405.807C74.5812 405.807 96.0922 393.394 96.0922 378.081C96.0922 362.769 74.5812 350.355 48.0461 350.355C21.511 350.355 0 362.769 0 378.081C0 393.394 21.511 405.807 48.0461 405.807Z" fill="#D6D8E5"/>
<g id="Men 13">
<path id="Vector_13" d="M23.4015 369.565C26.8411 372.363 31.91 369.806 32.1634 370.059C36.2037 373.805 40.4419 377.332 44.8599 380.624C46.9961 382.312 50.3391 384.556 49.6874 387.8C48.6012 393.589 39.3323 391.804 35.8324 390.031C32.3324 388.258 29.4721 385.327 26.1773 383.277C23.7635 381.806 21.4825 381.046 21.1204 378.067C20.9273 376.27 22.7859 369.493 23.4015 369.565Z" fill="#38226D"/>
<path id="Vector_14" d="M21.2048 376.863C21.6514 379.722 23.9445 380.481 26.2979 381.965C29.653 384.051 32.622 387.066 36.1219 388.839C39.3564 390.467 47.4184 392.095 49.6873 387.958C48.4804 393.542 39.3443 391.794 35.8805 390.033C32.4168 388.272 29.5203 385.329 26.2255 383.279C23.8117 381.808 21.5307 381.048 21.1686 378.069C21.1358 377.667 21.1479 377.263 21.2048 376.863Z" fill="#9C73FF"/>
<path id="Vector_15" d="M53.2477 358.483C56.6753 361.281 62.6976 358.218 62.9028 358.483C66.4853 362.102 70.2688 365.516 74.2355 368.71C76.3837 370.399 79.7268 372.642 79.063 375.886C77.9768 381.675 68.7079 379.89 65.208 378.117C61.708 376.344 58.8477 373.414 55.5529 371.363C53.1391 369.892 50.8702 369.132 50.5081 366.153C50.3633 364.356 52.6322 358.411 53.2477 358.483Z" fill="#38226D"/>
<path id="Vector_16" d="M50.6891 365.418C51.1478 368.276 53.4408 369.036 55.7822 370.519C59.1494 372.606 62.1183 375.621 65.6062 377.394C68.8407 379.022 76.9147 380.65 79.1837 376.513C77.9768 382.097 68.8286 380.348 65.3649 378.587C61.9011 376.827 59.0166 373.884 55.7098 371.834C53.3564 370.363 51.0271 369.603 50.665 366.624C50.6271 366.222 50.6352 365.818 50.6891 365.418Z" fill="#9C73FF"/>
<path id="&#60;&#208;&#154;&#208;&#190;&#208;&#189;&#209;&#130;&#209;&#131;&#209;&#128;&#62;_7" d="M23.1962 242.718C23.3652 247.916 24.9824 270.456 25.7065 282.432C26.4307 294.408 26.5996 308.964 26.5996 308.964C26.5996 308.964 24.5359 317.671 23.1962 327.898C21.8566 338.125 23.1962 370.41 23.1962 370.41C24.5107 371.252 26.0396 371.7 27.6014 371.7C29.1631 371.7 30.692 371.252 32.0065 370.41C32.0065 370.41 37.5099 344.577 40.0564 332.939C42.6029 321.301 43.0495 314.584 44.3771 307.372C45.9701 298.641 49.4218 257.926 49.4218 257.926L50.7977 258.011L54.4183 303.995C53.2868 307.383 52.5103 310.879 52.1011 314.427C51.0994 321.916 53.1511 359.604 53.1511 359.604C54.6206 360.42 56.2867 360.816 57.9665 360.748C59.6464 360.68 61.275 360.15 62.6734 359.218C62.6734 359.218 71.8699 309.302 71.8699 301.704C71.8699 296.687 71.013 230.441 71.013 230.441L23.1962 242.718Z" fill="#8C50FF"/>
<path id="&#60;&#208;&#154;&#208;&#190;&#208;&#189;&#209;&#130;&#209;&#131;&#209;&#128;&#62;_8" d="M35.6633 142.307C35.6633 142.307 36.2547 153.631 36.0012 154.632C35.7478 155.633 30.7875 158.962 29.3513 160.155C27.9151 161.349 37.196 170.491 41.6977 172.553C46.1994 174.615 60.5131 169.176 60.7665 162.157C61.02 155.138 58.3527 149.241 56.12 148.891C53.8873 148.542 35.6633 142.307 35.6633 142.307Z" fill="#FFCEA9"/>
<path id="Vector_17" d="M66.7165 163.316C67.3803 158.323 64.0855 153.572 67.2838 149.592C78.4716 160.554 77.0475 189.571 79.594 208.131C87.8974 216.814 104.601 225.365 109.308 227.427C110.164 227.813 110.901 228.223 110.732 229.152C110.056 232.77 109.006 234.144 106.845 237.594C95.7904 232.83 87.825 230.092 74.0182 216.983C72.7085 215.57 71.5365 214.036 70.5182 212.4C66.5717 200.678 65.5821 171.939 66.7165 163.316Z" fill="#FFCEA9"/>
<path id="&#60;&#208;&#154;&#208;&#190;&#208;&#189;&#209;&#130;&#209;&#131;&#209;&#128;&#62;_9" d="M34.3961 156.587C34.3961 156.587 42.627 168.84 54.1045 170.046C57.7252 166.428 58.051 153.789 53.0424 149.737C53.0424 149.737 57.6527 146.022 60.8027 146.746C64.1853 148.795 66.7041 152.007 67.8871 155.779C70.8072 164.207 72.177 173.094 71.9302 182.009C71.7371 194.069 71.9302 230.756 71.9302 230.756C71.9302 230.756 70.325 238.522 59.9458 244.299C49.5666 250.076 41.8425 250.643 34.8064 249.003C28.9892 247.652 24.1858 245.602 22.1945 241.393C22.7134 232.951 26.4789 210.977 25.0668 200.389C23.6548 189.8 21.4462 181.877 20.8427 173.314C20.2393 164.751 21.9772 164.872 26.2737 161.869C28.8522 159.918 31.5665 158.153 34.3961 156.587Z" fill="#F4F4F4"/>
<path id="&#60;&#208;&#154;&#208;&#190;&#208;&#189;&#209;&#130;&#209;&#131;&#209;&#128;&#62;_10" d="M61.3219 125.423C59.9702 116.631 53.634 109.962 44.5583 110.468C39.9221 110.727 35.5784 112.814 32.4824 116.272C29.3863 119.73 27.7913 124.275 28.0481 128.908C28.1964 131.577 28.9612 134.176 30.2824 136.5C31.6036 138.825 33.4454 140.812 35.6635 142.307C35.9812 143.64 36.4551 144.932 37.0756 146.154C40.2738 149.905 49.9892 152.184 52.7651 151.822C56.3857 151.316 58.2926 149.82 60.0064 145.913C63.0115 138.978 62.0702 129.752 61.3219 125.423Z" fill="#FFCEA9"/>
<path id="Vector_18" d="M35.6634 142.307L36.4962 134.637C36.4962 134.637 30.1721 118.38 45.053 121.504C54.8287 123.554 57.2908 124.447 60.2718 117.886C63.2528 111.325 52.7408 105.428 40.2737 107.032C35.9794 107.484 32.0115 109.531 29.1552 112.767C26.2989 116.003 24.7624 120.193 24.8497 124.507C25.1756 129.367 26.4669 139.136 35.6634 142.307Z" fill="#3A2C6D"/>
<path id="Vector_19" d="M18.3084 168.2C22.605 166.994 19.3343 167.995 22.605 166.994C33.7928 177.969 32.4049 196.758 34.9393 215.331C41.1186 225.533 64.0494 239.366 64.0494 239.366C64.339 241.344 63.639 241.923 61.1649 245.915C50.1219 241.151 40.8651 237.039 27.0584 223.941C26.5153 223.423 25.7187 223.29 25.4894 222.579C21.5429 210.724 17.1619 176.835 18.3084 168.2Z" fill="#FFCEA9"/>
<path id="Vector_20" d="M120.338 191.078L103.671 248.025L67.1028 262.63L80.4389 207.154L120.338 191.078Z" fill="#F4F4F4"/>
<path id="Vector_21" d="M58.2803 239.753C58.8234 237.811 60.2354 238.293 61.8165 238.776C63.5311 239.47 65.4145 239.633 67.2233 239.246C68.7319 238.776 69.8181 237.485 71.0974 236.629C71.829 236.194 72.66 235.953 73.5112 235.93C73.4388 236.424 72.6784 239.319 72.6784 239.319C72.6784 239.319 80.6921 239.403 81.5128 239.234C81.7845 239.197 82.0611 239.244 82.3057 239.368C82.5503 239.492 82.7515 239.687 82.8824 239.928C83.0133 240.168 83.0679 240.443 83.0389 240.716C83.0098 240.988 82.8985 241.245 82.7197 241.453L83.2628 241.369C84.9042 241.007 85.6042 243.515 83.9507 243.889C83.5162 243.986 83.0697 244.034 82.6111 244.094C83.6852 244.504 83.9507 246.277 82.6111 246.506L82.2007 246.579C82.0123 246.65 81.8103 246.679 81.6094 246.663H81.3559C81.394 246.854 81.3925 247.052 81.3518 247.242C81.311 247.433 81.2317 247.614 81.1187 247.773C81.0058 247.932 80.8615 248.066 80.6948 248.168C80.5281 248.27 80.3424 248.336 80.149 248.364C76.2387 248.882 70.494 250.438 66.9457 247.218C64.4903 246.976 62.0921 246.328 59.8492 245.3C57.6889 244.275 57.6286 242.08 58.2803 239.753Z" fill="#FFCEA9"/>
<path id="Vector_22" d="M98.2886 235.096H98.8317C98.6152 234.927 98.4556 234.695 98.3742 234.433C98.2928 234.17 98.2934 233.889 98.376 233.627C98.4587 233.365 98.6193 233.134 98.8366 232.966C99.0539 232.798 99.3174 232.699 99.592 232.684C100.437 232.684 108.68 230.96 108.68 230.96L109.67 227.571C109.67 227.378 111.106 228.246 111.154 228.282C111.852 228.739 112.438 229.347 112.868 230.061C113.299 230.775 113.562 231.577 113.64 232.407C113.68 233.573 113.487 234.736 113.073 235.827C112.658 236.919 112.031 237.916 111.226 238.763C109.745 240.257 107.743 241.121 105.639 241.175C104.637 241.235 103.671 241.283 102.814 241.356C102.625 241.356 102.437 241.318 102.262 241.245C102.087 241.172 101.928 241.065 101.795 240.931C101.661 240.796 101.556 240.637 101.484 240.461C101.413 240.286 101.377 240.098 101.378 239.908H101.125C100.93 239.954 100.728 239.954 100.533 239.908H100.111C98.711 239.908 98.6024 238.172 99.5558 237.496C99.1093 237.496 98.6506 237.581 98.2041 237.581C96.4541 237.689 96.5507 235.084 98.2886 235.096Z" fill="#FFCEA9"/>
<path id="Vector_23" d="M71.3871 170.745C71.3871 170.745 75.6112 170.528 77.3612 168.068C77.0353 163.859 71.6406 147.879 60.8027 146.686C63.7571 148.753 66.0999 151.578 67.5854 154.862C69.5527 159.674 71.3871 170.745 71.3871 170.745Z" fill="#EDEDED"/>
<path id="Vector_24" d="M16.3532 191.862C16.3532 191.862 27.1428 195.576 34.7462 189.329C35.5789 187.894 30.341 169.551 30.341 169.551C30.341 169.551 25.8152 160.168 18.7308 163.895C11.6464 167.621 16.3532 191.862 16.3532 191.862Z" fill="#EDEDED"/>
</g>
<path id="Vector_25" opacity="0.4" d="M126.361 487.477C129.8 487.477 132.588 485.868 132.588 483.883C132.588 481.898 129.8 480.289 126.361 480.289C122.921 480.289 120.133 481.898 120.133 483.883C120.133 485.868 122.921 487.477 126.361 487.477Z" fill="#D6D8E5"/>
<path id="Vector_26" opacity="0.4" d="M242.994 553.94C246.434 553.94 249.222 552.331 249.222 550.346C249.222 548.361 246.434 546.752 242.994 546.752C239.555 546.752 236.767 548.361 236.767 550.346C236.767 552.331 239.555 553.94 242.994 553.94Z" fill="#D6D8E5"/>
<path id="Vector_27" opacity="0.4" d="M445.16 430.735C448.599 430.735 451.387 429.126 451.387 427.141C451.387 425.156 448.599 423.547 445.16 423.547C441.72 423.547 438.932 425.156 438.932 427.141C438.932 429.126 441.72 430.735 445.16 430.735Z" fill="#D6D8E5"/>
<path id="Vector_28" d="M122.306 362.174V483.16C122.333 483.534 122.46 483.893 122.672 484.203C122.884 484.512 123.174 484.76 123.513 484.921C124.46 485.402 125.509 485.654 126.572 485.654C127.635 485.654 128.684 485.402 129.631 484.921C129.97 484.759 130.259 484.511 130.471 484.202C130.683 483.893 130.809 483.533 130.838 483.16V362.174H122.306Z" fill="#C1C4D3"/>
<path id="Vector_29" d="M239.217 409.256V549.67C239.237 550.034 239.349 550.387 239.54 550.696C239.732 551.006 239.999 551.263 240.315 551.443C241.126 551.923 242.052 552.176 242.994 552.176C243.937 552.176 244.862 551.923 245.674 551.443C245.992 551.263 246.26 551.007 246.454 550.697C246.648 550.388 246.761 550.035 246.784 549.67V409.256H239.217Z" fill="#C1C4D3"/>
<path id="Vector_30" d="M441.37 311.727V426.224C441.391 426.587 441.505 426.939 441.699 427.247C441.893 427.555 442.162 427.809 442.48 427.985C443.289 428.465 444.213 428.718 445.153 428.718C446.094 428.718 447.018 428.465 447.827 427.985C448.145 427.809 448.414 427.555 448.608 427.247C448.802 426.939 448.915 426.587 448.937 426.224V311.727H441.37Z" fill="#C1C4D3"/>
<path id="Vector_31" d="M242.994 445.291L114.751 371.303V362.656L242.994 436.656V445.291Z" fill="#62C8E8"/>
<path id="Vector_32" d="M459.22 312.162L242.97 436.923L114.714 362.935L330.964 238.174L459.22 312.162Z" fill="#6CD4FF"/>
<path id="Vector_33" d="M459.244 320.531L242.994 445.292V436.657L459.244 311.896V320.531Z" fill="#5CBFD6"/>
<path id="Vector_34" d="M397.524 287.269L363.043 316.128L331.543 303.598L366.024 274.738L397.524 287.269Z" fill="#F4F4F4"/>
<path id="Vector_35" d="M389.522 288.608L346.569 313.391L319.523 297.785L362.476 273.002L389.522 288.608Z" fill="#F4F4F4"/>
<path id="Vector_36" d="M349.441 306.697L346.81 308.217L328.973 297.93L331.604 296.41L349.441 306.697Z" fill="#D6D8E5"/>
<path id="Vector_37" d="M355.355 303.285L352.724 304.805L334.898 294.518L337.529 292.998L355.355 303.285Z" fill="#D6D8E5"/>
<path id="Vector_38" d="M361.052 300.004L358.421 301.511L340.595 291.236L343.226 289.717L361.052 300.004Z" fill="#D6D8E5"/>
<path id="Vector_39" d="M374.424 292.286L371.793 293.806L361.414 287.824L364.045 286.305L374.424 292.286Z" fill="#D6D8E5"/>
<path id="Vector_40" d="M380.121 289.006L377.49 290.513L367.11 284.531L369.741 283.012L380.121 289.006Z" fill="#D6D8E5"/>
<path id="Vector_41" d="M351.433 311.51C352.145 311.208 389.522 288.596 389.522 288.596L350.479 311.148L351.433 311.51Z" fill="#D6D6D6"/>
<path id="Vector_42" opacity="0.2" d="M357.54 346.423C362.712 346.423 366.905 344.004 366.905 341.02C366.905 338.036 362.712 335.617 357.54 335.617C352.367 335.617 348.174 338.036 348.174 341.02C348.174 344.004 352.367 346.423 357.54 346.423Z" fill="black"/>
<path id="Vector_43" d="M367.822 340.25V325.838L349.128 326.308V339.574C348.778 341.166 349.659 342.842 351.795 344.073C353.851 345.119 356.126 345.664 358.433 345.664C360.74 345.664 363.015 345.119 365.071 344.073C365.829 343.738 366.484 343.208 366.968 342.536C367.451 341.863 367.747 341.074 367.822 340.25Z" fill="#A6CE28"/>
<path id="Vector_44" d="M358.457 331.239C363.629 331.239 367.822 328.82 367.822 325.836C367.822 322.853 363.629 320.434 358.457 320.434C353.285 320.434 349.092 322.853 349.092 325.836C349.092 328.82 353.285 331.239 358.457 331.239Z" fill="#BCD64D"/>
<path id="Vector_45" d="M366.338 325.837C366.338 326.717 365.614 327.646 364.334 328.369C362.709 329.236 360.902 329.707 359.06 329.744H358.445C356.4 329.787 354.377 329.31 352.567 328.357C351.3 327.633 350.564 326.705 350.564 325.824C350.564 324.944 351.3 324.028 352.567 323.292C354.377 322.339 356.4 321.862 358.445 321.905H359.048C360.89 321.942 362.697 322.413 364.322 323.28C365.614 324.04 366.338 324.956 366.338 325.837Z" fill="#28221C"/>
<path id="Vector_46" opacity="0.07" d="M366.338 325.837C366.338 326.717 365.614 327.646 364.334 328.369C362.72 329.267 360.902 329.738 359.054 329.738C357.206 329.738 355.389 329.267 353.774 328.369C352.507 327.646 351.771 326.717 351.771 325.837C351.771 324.956 352.507 324.04 353.774 323.304C355.389 322.407 357.206 321.936 359.054 321.936C360.902 321.936 362.72 322.407 364.334 323.304C365.614 324.04 366.338 324.956 366.338 325.837Z" fill="white"/>
<path id="Vector_47" d="M366.459 332.507L364.467 331.361L363.502 331.928L364.467 332.483V332.845L366.326 333.918V334.268C366.773 334.907 367.176 335.576 367.533 336.27L367.605 336.209V340.853C367.605 342.059 366.893 341.661 366.579 341.48L364.491 340.274L363.526 340.84L364.491 341.395V341.757L366.579 342.963C366.796 343.09 367.027 343.191 367.267 343.265L367.134 343.855L368.221 343.24C368.451 343.044 368.63 342.794 368.739 342.512C368.849 342.23 368.886 341.925 368.848 341.624V336.8C368.802 335.95 368.563 335.122 368.149 334.378C367.735 333.634 367.157 332.994 366.459 332.507Z" fill="#8DA01F"/>
<path id="Vector_48" d="M365.59 343.529L363.502 342.323V340.839L365.59 342.045C365.891 342.214 366.615 342.624 366.615 341.406V336.582C366.58 336.172 366.453 335.775 366.244 335.421C366.035 335.066 365.75 334.762 365.409 334.532L363.514 333.435V331.951L365.505 333.097C366.2 333.576 366.778 334.205 367.196 334.938C367.614 335.671 367.861 336.488 367.919 337.33V342.154C367.895 343.456 367.291 344.506 365.59 343.529Z" fill="#99B524"/>
<path id="Vector_49" opacity="0.2" d="M172.778 365.864C177.95 365.864 182.143 363.445 182.143 360.461C182.143 357.478 177.95 355.059 172.778 355.059C167.605 355.059 163.412 357.478 163.412 360.461C163.412 363.445 167.605 365.864 172.778 365.864Z" fill="black"/>
<path id="Vector_50" d="M183.06 359.689V345.277L164.366 345.748V359.014C164.016 360.618 164.909 362.294 167.033 363.512C169.089 364.558 171.363 365.104 173.671 365.104C175.978 365.104 178.253 364.558 180.309 363.512C181.068 363.179 181.723 362.649 182.207 361.976C182.691 361.304 182.986 360.514 183.06 359.689Z" fill="#F7B03E"/>
<path id="Vector_51" d="M173.695 350.681C178.867 350.681 183.06 348.262 183.06 345.278C183.06 342.294 178.867 339.875 173.695 339.875C168.523 339.875 164.33 342.294 164.33 345.278C164.33 348.262 168.523 350.681 173.695 350.681Z" fill="#FCC068"/>
<path id="Vector_52" d="M181.576 345.278C181.576 346.159 180.84 347.075 179.572 347.811C177.945 348.671 176.139 349.142 174.298 349.186H173.695C171.65 349.229 169.627 348.752 167.817 347.799C166.538 347.063 165.814 346.147 165.814 345.266C165.814 344.386 166.538 343.457 167.817 342.722C169.628 341.773 171.651 341.3 173.695 341.347H174.298C176.139 341.381 177.946 341.848 179.572 342.71C180.84 343.469 181.576 344.398 181.576 345.278Z" fill="#28221C"/>
<path id="Vector_53" opacity="0.07" d="M181.576 345.279C181.576 346.159 180.84 347.076 179.572 347.811C177.958 348.709 176.14 349.18 174.292 349.18C172.444 349.18 170.627 348.709 169.012 347.811C167.805 347.076 167.009 346.159 167.009 345.279C167.009 344.398 167.745 343.47 169.012 342.734C170.627 341.836 172.444 341.365 174.292 341.365C176.14 341.365 177.958 341.836 179.572 342.734C180.84 343.47 181.576 344.398 181.576 345.279Z" fill="white"/>
<path id="Vector_54" d="M181.684 351.946L179.705 350.801L178.728 351.356L179.705 351.922V352.284L181.564 353.357L181.503 353.707C181.954 354.344 182.358 355.013 182.71 355.709L182.771 355.649V360.292C182.771 361.498 182.059 361.1 181.757 360.919L179.669 359.713L178.691 360.268L179.669 360.835V361.196L181.757 362.402C181.97 362.529 182.196 362.63 182.433 362.704L182.312 363.295L183.398 362.68C183.634 362.485 183.816 362.233 183.928 361.948C184.04 361.663 184.078 361.355 184.038 361.052V356.228C183.994 355.383 183.76 354.559 183.352 353.818C182.945 353.076 182.374 352.437 181.684 351.946Z" fill="#C9883A"/>
<path id="Vector_55" d="M180.828 363.006L178.728 361.8V360.304L180.828 361.51C181.129 361.691 181.841 362.101 181.841 360.883V356.059C181.801 355.649 181.672 355.252 181.464 354.896C181.255 354.54 180.973 354.233 180.634 353.997L178.728 352.911V351.416L180.719 352.622C181.415 353.1 181.993 353.729 182.411 354.462C182.829 355.195 183.076 356.013 183.133 356.855V361.679C183.133 362.897 182.529 363.946 180.828 363.006Z" fill="#E09C3B"/>
<g id="&#60;&#208;&#147;&#209;&#128;&#209;&#131;&#208;&#191;&#208;&#191;&#208;&#176;&#62;">
<g id="&#60;&#208;&#147;&#209;&#128;&#209;&#131;&#208;&#191;&#208;&#191;&#208;&#176;&#62;_2">
<path id="&#60;&#208;&#154;&#208;&#190;&#208;&#189;&#209;&#130;&#209;&#131;&#209;&#128;&#62;_11" opacity="0.2" d="M292.332 324.764L264.573 308.737C264.332 308.594 264.057 308.52 263.777 308.52C263.497 308.52 263.222 308.594 262.98 308.737L214.246 336.861L242.789 353.359L292.332 324.764Z" fill="black"/>
<path id="&#60;&#208;&#154;&#208;&#190;&#208;&#189;&#209;&#130;&#209;&#131;&#209;&#128;&#62;_12" d="M293.647 321.616L265.889 305.588C265.648 305.446 265.372 305.371 265.092 305.371C264.812 305.371 264.537 305.446 264.296 305.588L215.562 333.712L244.141 350.198L293.647 321.616Z" fill="#F4F4F4"/>
<path id="Vector_56" d="M242.825 344.301L240.701 345.507C240.532 345.616 240.557 345.784 240.701 345.905L242.729 347.111C242.834 347.164 242.949 347.192 243.067 347.192C243.184 347.192 243.3 347.164 243.405 347.111L245.517 345.905C245.686 345.809 245.674 345.64 245.517 345.519L243.501 344.313C243.397 344.261 243.282 344.233 243.165 344.231C243.048 344.229 242.932 344.253 242.825 344.301Z" fill="#2B303F"/>
<path id="Vector_57" d="M245.819 342.577L243.706 343.783C243.525 343.88 243.55 344.061 243.706 344.169L245.722 345.375C245.828 345.426 245.943 345.452 246.06 345.452C246.177 345.452 246.292 345.426 246.398 345.375L248.51 344.169C248.691 344.073 248.667 343.892 248.51 343.783L246.494 342.577C246.391 342.521 246.274 342.492 246.156 342.492C246.039 342.492 245.922 342.521 245.819 342.577Z" fill="#2B303F"/>
<path id="Vector_58" d="M248.848 340.827L246.736 342.033C246.567 342.13 246.579 342.311 246.736 342.419L248.751 343.625C248.857 343.676 248.972 343.702 249.089 343.702C249.206 343.702 249.322 343.676 249.427 343.625L251.551 342.419C251.72 342.323 251.696 342.142 251.551 342.033L249.524 340.827C249.42 340.771 249.304 340.742 249.186 340.742C249.068 340.742 248.952 340.771 248.848 340.827Z" fill="#2B303F"/>
<path id="Vector_59" d="M251.817 339.116L249.693 340.322C249.524 340.418 249.548 340.599 249.693 340.707L251.72 341.913C251.824 341.969 251.94 341.999 252.058 341.999C252.176 341.999 252.292 341.969 252.396 341.913L254.508 340.707C254.689 340.611 254.665 340.43 254.508 340.322L252.493 339.116C252.387 339.065 252.272 339.039 252.155 339.039C252.038 339.039 251.922 339.065 251.817 339.116Z" fill="#2B303F"/>
<path id="Vector_60" d="M254.81 337.38L252.698 338.586C252.529 338.682 252.541 338.851 252.698 338.972L254.713 340.178C254.819 340.228 254.934 340.254 255.051 340.254C255.168 340.254 255.283 340.228 255.389 340.178L257.513 338.972C257.682 338.863 257.658 338.694 257.513 338.574L255.486 337.368C255.38 337.317 255.264 337.291 255.146 337.293C255.029 337.295 254.914 337.325 254.81 337.38Z" fill="#2B303F"/>
<path id="Vector_61" d="M257.815 335.655L255.691 336.861C255.522 336.969 255.546 337.138 255.691 337.259L257.718 338.465C257.822 338.52 257.938 338.55 258.056 338.55C258.174 338.55 258.29 338.52 258.394 338.465L260.506 337.259C260.675 337.162 260.663 336.981 260.506 336.873L258.491 335.667C258.386 335.614 258.271 335.586 258.154 335.584C258.037 335.582 257.921 335.606 257.815 335.655Z" fill="#2B303F"/>
<path id="Vector_62" d="M260.808 333.929L258.696 335.135C258.515 335.231 258.539 335.412 258.696 335.521L260.711 336.727C260.817 336.777 260.932 336.803 261.049 336.803C261.166 336.803 261.282 336.777 261.387 336.727L263.499 335.521C263.68 335.424 263.656 335.244 263.499 335.135L261.484 333.929C261.38 333.873 261.264 333.844 261.146 333.844C261.028 333.844 260.912 333.873 260.808 333.929Z" fill="#2B303F"/>
<path id="Vector_63" d="M263.801 332.194L261.689 333.4C261.52 333.508 261.532 333.677 261.689 333.798L263.704 335.004C263.809 335.057 263.925 335.084 264.042 335.084C264.16 335.084 264.275 335.057 264.38 335.004L266.504 333.798C266.673 333.701 266.649 333.532 266.504 333.412L264.477 332.206C264.372 332.153 264.257 332.125 264.14 332.123C264.023 332.121 263.907 332.145 263.801 332.194Z" fill="#2B303F"/>
<path id="Vector_64" d="M266.806 330.445L264.682 331.651C264.513 331.747 264.537 331.928 264.682 332.037L266.71 333.243C266.814 333.296 266.93 333.323 267.048 333.323C267.165 333.323 267.281 333.296 267.385 333.243L269.498 332.037C269.679 331.94 269.654 331.759 269.498 331.651L267.482 330.445C267.378 330.389 267.262 330.359 267.144 330.359C267.026 330.359 266.91 330.389 266.806 330.445Z" fill="#2B303F"/>
<path id="Vector_65" d="M269.799 328.731L267.687 329.937C267.518 330.034 267.53 330.203 267.687 330.323L269.703 331.529C269.808 331.58 269.924 331.606 270.041 331.606C270.158 331.606 270.273 331.58 270.379 331.529L272.503 330.323C272.672 330.215 272.647 330.046 272.503 329.925L270.475 328.719C270.369 328.668 270.253 328.643 270.136 328.645C270.018 328.647 269.903 328.676 269.799 328.731Z" fill="#2B303F"/>
<path id="Vector_66" d="M272.756 327.008L270.632 328.214C270.463 328.311 270.487 328.491 270.632 328.6L272.66 329.806C272.763 329.862 272.88 329.891 272.997 329.891C273.115 329.891 273.232 329.862 273.335 329.806L275.447 328.6C275.616 328.504 275.604 328.323 275.447 328.214L273.432 327.008C273.326 326.958 273.211 326.932 273.094 326.932C272.977 326.932 272.862 326.958 272.756 327.008Z" fill="#2B303F"/>
<path id="Vector_67" d="M275.798 325.27L273.685 326.476C273.504 326.573 273.529 326.742 273.685 326.862L275.701 328.068C275.807 328.119 275.922 328.145 276.039 328.145C276.156 328.145 276.271 328.119 276.377 328.068L278.489 326.862C278.67 326.754 278.646 326.585 278.489 326.464L276.473 325.258C276.368 325.207 276.251 325.182 276.134 325.184C276.017 325.186 275.901 325.215 275.798 325.27Z" fill="#2B303F"/>
<path id="Vector_68" d="M278.791 323.545L276.679 324.751C276.51 324.86 276.522 325.029 276.679 325.149L278.694 326.355C278.799 326.408 278.915 326.436 279.032 326.436C279.149 326.436 279.265 326.408 279.37 326.355L281.494 325.149C281.663 325.053 281.639 324.884 281.494 324.763L279.467 323.557C279.362 323.505 279.247 323.477 279.13 323.475C279.013 323.473 278.897 323.497 278.791 323.545Z" fill="#2B303F"/>
<path id="Vector_69" d="M283.244 320.989L279.623 323.039C279.454 323.136 279.478 323.317 279.623 323.425L281.651 324.631C281.756 324.681 281.872 324.708 281.989 324.708C282.106 324.708 282.221 324.681 282.327 324.631L285.947 322.581C286.116 322.485 286.092 322.304 285.947 322.195L283.92 320.989C283.817 320.931 283.7 320.9 283.582 320.9C283.463 320.9 283.347 320.931 283.244 320.989Z" fill="#2B303F"/>
<path id="Vector_70" d="M244.358 340.091L242.246 341.297C242.077 341.394 242.089 341.563 242.246 341.683L244.262 342.889C244.367 342.94 244.483 342.966 244.599 342.966C244.716 342.966 244.832 342.94 244.937 342.889L247.062 341.683C247.23 341.575 247.206 341.406 247.062 341.285L244.998 340.091C244.898 340.044 244.789 340.02 244.678 340.02C244.567 340.02 244.458 340.044 244.358 340.091Z" fill="#2B303F"/>
<path id="Vector_71" d="M247.412 338.331L245.299 339.537C245.118 339.634 245.143 339.815 245.299 339.923L247.315 341.129C247.421 341.18 247.536 341.206 247.653 341.206C247.77 341.206 247.885 341.18 247.991 341.129L250.115 339.923C250.284 339.827 250.26 339.646 250.115 339.537L248.087 338.331C247.984 338.275 247.867 338.246 247.749 338.246C247.631 338.246 247.515 338.275 247.412 338.331Z" fill="#2B303F"/>
<path id="Vector_72" d="M250.368 336.594L248.256 337.8C248.075 337.909 248.099 338.077 248.256 338.198L250.272 339.404C250.377 339.457 250.492 339.485 250.61 339.485C250.727 339.485 250.843 339.457 250.948 339.404L253.06 338.198C253.241 338.101 253.217 337.921 253.06 337.812L251.044 336.606C250.94 336.554 250.825 336.526 250.708 336.524C250.591 336.521 250.475 336.546 250.368 336.594Z" fill="#2B303F"/>
<path id="Vector_73" d="M253.374 334.858L251.249 336.064C251.08 336.161 251.105 336.33 251.249 336.45L253.277 337.656C253.383 337.706 253.498 337.733 253.615 337.733C253.732 337.733 253.847 337.706 253.953 337.656L256.065 336.45C256.234 336.342 256.222 336.173 256.065 336.052L254.049 334.846C253.944 334.795 253.827 334.77 253.71 334.772C253.593 334.774 253.477 334.803 253.374 334.858Z" fill="#2B303F"/>
<path id="Vector_74" d="M256.355 333.145L254.23 334.351C254.061 334.447 254.086 334.628 254.23 334.737L256.258 335.943C256.362 335.999 256.478 336.028 256.596 336.028C256.714 336.028 256.83 335.999 256.934 335.943L259.046 334.737C259.215 334.64 259.203 334.459 259.046 334.351L257.03 333.145C256.925 333.094 256.809 333.068 256.692 333.068C256.575 333.068 256.46 333.094 256.355 333.145Z" fill="#2B303F"/>
<path id="Vector_75" d="M259.36 331.41L257.236 332.616C257.067 332.725 257.091 332.894 257.236 333.014L259.263 334.22C259.366 334.273 259.48 334.301 259.595 334.301C259.71 334.301 259.824 334.273 259.927 334.22L262.051 333.014C262.22 332.918 262.196 332.749 262.051 332.628L260.023 331.422C259.921 331.37 259.808 331.342 259.693 331.34C259.578 331.338 259.464 331.362 259.36 331.41Z" fill="#2B303F"/>
<path id="Vector_76" d="M262.353 329.673L260.241 330.879C260.072 330.975 260.084 331.144 260.241 331.265L262.256 332.471C262.362 332.521 262.477 332.547 262.594 332.547C262.711 332.547 262.826 332.521 262.932 332.471L265.056 331.265C265.225 331.156 265.201 330.987 265.056 330.867L263.029 329.661C262.923 329.61 262.807 329.584 262.689 329.586C262.572 329.588 262.457 329.618 262.353 329.673Z" fill="#2B303F"/>
<path id="Vector_77" d="M265.358 327.948L263.246 329.154C263.065 329.25 263.089 329.431 263.246 329.539L265.261 330.745C265.365 330.801 265.481 330.831 265.599 330.831C265.717 330.831 265.833 330.801 265.937 330.745L268.049 329.539C268.23 329.443 268.206 329.262 268.049 329.154L266.034 327.948C265.928 327.897 265.813 327.871 265.696 327.871C265.579 327.871 265.463 327.897 265.358 327.948Z" fill="#2B303F"/>
<path id="Vector_78" d="M268.363 326.211L266.251 327.417C266.07 327.526 266.094 327.695 266.251 327.815L268.266 329.021C268.371 329.074 268.487 329.102 268.604 329.102C268.722 329.102 268.838 329.074 268.942 329.021L271.054 327.815C271.235 327.719 271.211 327.55 271.054 327.429L269.039 326.223C268.934 326.171 268.819 326.143 268.702 326.141C268.585 326.139 268.469 326.163 268.363 326.211Z" fill="#2B303F"/>
<path id="Vector_79" d="M271.368 324.475L269.244 325.681C269.075 325.778 269.099 325.947 269.244 326.067L271.272 327.273C271.377 327.324 271.493 327.35 271.61 327.35C271.726 327.35 271.842 327.324 271.947 327.273L274.06 326.067C274.228 325.959 274.216 325.79 274.06 325.669L272.044 324.463C271.938 324.412 271.822 324.387 271.705 324.389C271.587 324.391 271.472 324.421 271.368 324.475Z" fill="#2B303F"/>
<path id="Vector_80" d="M274.373 322.75L272.249 323.956C272.08 324.053 272.104 324.234 272.249 324.342L274.277 325.548C274.381 325.604 274.497 325.633 274.615 325.633C274.733 325.633 274.849 325.604 274.953 325.548L277.065 324.342C277.234 324.246 277.222 324.065 277.065 323.956L275.049 322.75C274.944 322.7 274.828 322.674 274.711 322.674C274.594 322.674 274.479 322.7 274.373 322.75Z" fill="#2B303F"/>
<path id="Vector_81" d="M277.378 321.014L275.254 322.22C275.085 322.328 275.109 322.497 275.254 322.618L277.27 323.824C277.375 323.877 277.49 323.904 277.608 323.904C277.725 323.904 277.841 323.877 277.946 323.824L280.07 322.618C280.239 322.521 280.215 322.352 280.07 322.232L278.042 321.026C277.94 320.974 277.827 320.946 277.712 320.943C277.597 320.941 277.483 320.965 277.378 321.014Z" fill="#2B303F"/>
<path id="Vector_82" d="M241.377 341.794L237.757 343.844C237.588 343.952 237.612 344.121 237.757 344.242L239.784 345.448C239.889 345.501 240.005 345.528 240.122 345.528C240.239 345.528 240.355 345.501 240.46 345.448L244.02 343.385C244.189 343.289 244.165 343.108 244.02 343L241.993 341.794C241.896 341.751 241.791 341.729 241.685 341.729C241.579 341.729 241.474 341.751 241.377 341.794Z" fill="#2B303F"/>
<path id="Vector_83" d="M283.099 320.869L280.975 322.075C280.877 322.123 280.77 322.148 280.661 322.148C280.552 322.148 280.445 322.123 280.347 322.075L278.211 320.869C278.042 320.773 278.042 320.616 278.211 320.508L278.38 320.411C278.537 320.327 278.537 320.17 278.38 320.073L276.123 318.783C275.942 318.674 275.942 318.518 276.123 318.409L277.475 317.637C277.573 317.589 277.68 317.564 277.789 317.564C277.898 317.564 278.005 317.589 278.103 317.637L280.215 318.843L280.649 319.097L280.963 319.277L281.289 319.458L283.099 320.508C283.268 320.616 283.268 320.797 283.099 320.869Z" fill="#2B303F"/>
<path id="Vector_84" d="M231.215 337.585L229.091 338.791C228.922 338.887 228.946 339.056 229.091 339.177L231.119 340.383C231.222 340.433 231.335 340.459 231.45 340.459C231.565 340.459 231.679 340.433 231.782 340.383L233.906 339.177C234.075 339.068 234.051 338.899 233.906 338.779L231.879 337.573C231.775 337.522 231.661 337.496 231.546 337.498C231.43 337.5 231.317 337.53 231.215 337.585Z" fill="#2B303F"/>
<path id="Vector_85" d="M234.196 335.86L232.084 337.066C231.915 337.163 231.927 337.332 232.084 337.452L234.1 338.658C234.205 338.708 234.321 338.735 234.438 338.735C234.555 338.735 234.67 338.708 234.775 338.658L236.9 337.452C237.069 337.344 237.044 337.175 236.9 337.054L234.872 335.848C234.766 335.797 234.65 335.771 234.533 335.774C234.415 335.776 234.3 335.805 234.196 335.86Z" fill="#2B303F"/>
<path id="Vector_86" d="M237.189 334.136L235.077 335.342C234.896 335.438 234.92 335.607 235.077 335.728L237.093 336.934C237.198 336.984 237.314 337.01 237.43 337.01C237.547 337.01 237.663 336.984 237.768 336.934L239.88 335.728C240.061 335.619 240.037 335.45 239.88 335.33L237.865 334.124C237.759 334.072 237.643 334.047 237.526 334.049C237.408 334.051 237.293 334.081 237.189 334.136Z" fill="#2B303F"/>
<path id="Vector_87" d="M262.642 319.458L260.53 320.664C260.361 320.761 260.374 320.942 260.53 321.05L262.546 322.256C262.651 322.307 262.767 322.333 262.884 322.333C263.001 322.333 263.116 322.307 263.222 322.256L265.346 321.05C265.515 320.954 265.491 320.773 265.346 320.664L263.318 319.458C263.215 319.402 263.098 319.373 262.98 319.373C262.862 319.373 262.746 319.402 262.642 319.458Z" fill="#2B303F"/>
<path id="Vector_88" d="M265.636 317.734L263.524 318.94C263.343 319.036 263.367 319.217 263.524 319.326L265.539 320.532C265.645 320.582 265.76 320.608 265.877 320.608C265.994 320.608 266.109 320.582 266.215 320.532L268.327 319.326C268.508 319.229 268.484 319.048 268.327 318.94L266.312 317.734C266.208 317.678 266.092 317.648 265.974 317.648C265.856 317.648 265.74 317.678 265.636 317.734Z" fill="#2B303F"/>
<path id="Vector_89" d="M268.628 315.972L266.504 317.178C266.335 317.274 266.359 317.455 266.504 317.564L268.532 318.77C268.637 318.82 268.753 318.846 268.87 318.846C268.987 318.846 269.102 318.82 269.208 318.77L271.32 317.564C271.489 317.467 271.477 317.287 271.32 317.178L269.304 315.972C269.2 315.916 269.084 315.887 268.966 315.887C268.848 315.887 268.732 315.916 268.628 315.972Z" fill="#2B303F"/>
<path id="Vector_90" d="M271.61 314.284L269.497 315.49C269.329 315.587 269.341 315.768 269.497 315.876L271.513 317.082C271.619 317.133 271.734 317.159 271.851 317.159C271.968 317.159 272.083 317.133 272.189 317.082L274.313 315.876C274.482 315.78 274.458 315.599 274.313 315.49L272.285 314.284C272.182 314.229 272.065 314.199 271.947 314.199C271.829 314.199 271.713 314.229 271.61 314.284Z" fill="#2B303F"/>
<path id="Vector_91" d="M240.955 331.976L238.058 333.64C237.889 333.737 237.913 333.906 238.058 334.026L240.086 335.232C240.191 335.282 240.307 335.309 240.424 335.309C240.541 335.309 240.656 335.282 240.762 335.232L243.646 333.568C243.815 333.471 243.791 333.29 243.646 333.182L241.619 331.976C241.517 331.92 241.403 331.891 241.287 331.891C241.171 331.891 241.056 331.92 240.955 331.976Z" fill="#2B303F"/>
<path id="Vector_92" d="M259.661 321.183L256.765 322.847C256.596 322.944 256.62 323.112 256.765 323.233L258.792 324.439C258.898 324.489 259.013 324.516 259.13 324.516C259.247 324.516 259.363 324.489 259.468 324.439L262.353 322.775C262.522 322.678 262.51 322.497 262.353 322.389L260.337 321.183C260.233 321.127 260.117 321.098 259.999 321.098C259.881 321.098 259.765 321.127 259.661 321.183Z" fill="#2B303F"/>
<path id="Vector_93" d="M255.86 323.34L241.788 331.469C241.606 331.565 241.631 331.746 241.788 331.855L243.803 333.061C243.909 333.111 244.024 333.137 244.141 333.137C244.258 333.137 244.373 333.111 244.479 333.061L258.563 324.944C258.732 324.836 258.708 324.667 258.503 324.546L256.487 323.34C256.389 323.295 256.282 323.271 256.174 323.271C256.065 323.271 255.958 323.295 255.86 323.34Z" fill="#2B303F"/>
<path id="Vector_94" d="M242.27 337.909L240.158 339.115C239.977 339.211 240.001 339.38 240.158 339.501L242.174 340.707C242.278 340.76 242.394 340.787 242.512 340.787C242.629 340.787 242.745 340.76 242.849 340.707L244.974 339.501C245.143 339.404 245.118 339.235 244.974 339.115L242.946 337.909C242.841 337.856 242.726 337.828 242.608 337.828C242.491 337.828 242.375 337.856 242.27 337.909Z" fill="#2B303F"/>
<path id="Vector_95" d="M245.263 336.186L243.151 337.392C242.982 337.5 242.994 337.669 243.151 337.79L245.167 338.996C245.272 339.049 245.387 339.076 245.505 339.076C245.622 339.076 245.738 339.049 245.843 338.996L247.967 337.79C248.136 337.693 248.112 337.524 247.967 337.404L245.939 336.198C245.835 336.146 245.72 336.117 245.603 336.115C245.486 336.113 245.37 336.137 245.263 336.186Z" fill="#2B303F"/>
<path id="Vector_96" d="M248.256 334.459L246.144 335.665C245.975 335.762 245.987 335.943 246.144 336.051L248.16 337.257C248.264 337.313 248.38 337.343 248.498 337.343C248.616 337.343 248.732 337.313 248.836 337.257L250.96 336.051C251.129 335.955 251.105 335.774 250.96 335.665L248.932 334.459C248.827 334.406 248.712 334.379 248.594 334.379C248.477 334.379 248.361 334.406 248.256 334.459Z" fill="#2B303F"/>
<path id="Vector_97" d="M251.262 332.736L249.137 333.942C248.968 334.038 248.993 334.219 249.137 334.328L251.165 335.534C251.268 335.584 251.382 335.61 251.497 335.61C251.612 335.61 251.725 335.584 251.829 335.534L253.953 334.328C254.122 334.219 254.098 334.051 253.953 333.93L251.925 332.724C251.823 332.67 251.708 332.643 251.592 332.645C251.476 332.647 251.362 332.678 251.262 332.736Z" fill="#2B303F"/>
<path id="Vector_98" d="M254.255 330.999L252.131 332.205C251.962 332.301 251.986 332.47 252.131 332.591L254.158 333.797C254.263 333.849 254.379 333.877 254.496 333.877C254.613 333.877 254.729 333.849 254.834 333.797L256.946 332.591C257.115 332.494 257.103 332.325 256.946 332.205L254.931 330.999C254.826 330.946 254.71 330.918 254.593 330.918C254.475 330.918 254.359 330.946 254.255 330.999Z" fill="#2B303F"/>
<path id="Vector_99" d="M257.248 329.239L255.123 330.445C254.954 330.553 254.979 330.722 255.123 330.842L257.151 332.048C257.256 332.101 257.372 332.129 257.489 332.129C257.606 332.129 257.722 332.101 257.827 332.048L259.939 330.842C260.108 330.746 260.096 330.577 259.939 330.457L257.923 329.251C257.819 329.198 257.704 329.17 257.587 329.168C257.47 329.166 257.354 329.19 257.248 329.239Z" fill="#2B303F"/>
<path id="Vector_100" d="M260.241 327.549L258.117 328.755C257.948 328.852 257.972 329.033 258.117 329.141L260.144 330.347C260.248 330.403 260.364 330.432 260.482 330.432C260.6 330.432 260.716 330.403 260.82 330.347L262.932 329.141C263.113 329.045 263.089 328.864 262.932 328.755L260.917 327.549C260.812 327.496 260.696 327.469 260.579 327.469C260.461 327.469 260.346 327.496 260.241 327.549Z" fill="#2B303F"/>
<path id="Vector_101" d="M263.234 325.813L261.122 327.019C260.941 327.116 260.965 327.285 261.122 327.405L263.137 328.611C263.243 328.662 263.358 328.688 263.475 328.688C263.592 328.688 263.708 328.662 263.813 328.611L265.925 327.405C266.106 327.297 266.082 327.128 265.925 327.007L263.91 325.801C263.804 325.75 263.688 325.725 263.57 325.727C263.453 325.729 263.338 325.758 263.234 325.813Z" fill="#2B303F"/>
<path id="Vector_102" d="M266.227 324.088L264.115 325.294C263.934 325.391 263.958 325.56 264.115 325.68L266.13 326.886C266.235 326.939 266.351 326.967 266.468 326.967C266.586 326.967 266.702 326.939 266.806 326.886L268.918 325.68C269.099 325.584 269.075 325.415 268.918 325.294L266.903 324.088C266.798 324.035 266.682 324.008 266.565 324.008C266.447 324.008 266.332 324.035 266.227 324.088Z" fill="#2B303F"/>
<path id="Vector_103" d="M269.22 322.364L267.108 323.57C266.939 323.678 266.951 323.847 267.108 323.968L269.123 325.174C269.228 325.227 269.344 325.254 269.461 325.254C269.579 325.254 269.694 325.227 269.799 325.174L271.923 323.968C272.092 323.871 272.068 323.702 271.923 323.582L269.896 322.376C269.791 322.323 269.676 322.295 269.559 322.293C269.442 322.291 269.326 322.315 269.22 322.364Z" fill="#2B303F"/>
<path id="Vector_104" d="M272.213 320.64L270.101 321.846C269.932 321.942 269.944 322.123 270.101 322.232L272.116 323.438C272.221 323.491 272.337 323.518 272.454 323.518C272.572 323.518 272.688 323.491 272.792 323.438L274.916 322.232C275.085 322.135 275.061 321.954 274.916 321.846L272.889 320.64C272.785 320.584 272.669 320.555 272.551 320.555C272.433 320.555 272.317 320.584 272.213 320.64Z" fill="#2B303F"/>
<path id="Vector_105" d="M275.17 318.903L273.046 320.109C272.877 320.206 272.901 320.374 273.046 320.495L275.073 321.701C275.177 321.751 275.29 321.777 275.405 321.777C275.52 321.777 275.634 321.751 275.737 321.701L277.861 320.495C278.03 320.386 278.006 320.218 277.861 320.097L275.834 318.891C275.73 318.84 275.616 318.814 275.5 318.817C275.385 318.819 275.272 318.848 275.17 318.903Z" fill="#2B303F"/>
<path id="Vector_106" d="M239.277 339.646L234.896 342.166C234.727 342.263 234.751 342.444 234.896 342.552L236.924 343.758C237.026 343.811 237.14 343.839 237.256 343.839C237.371 343.839 237.485 343.811 237.588 343.758L241.968 341.238C242.15 341.129 242.125 340.96 241.968 340.852L239.953 339.646C239.849 339.59 239.733 339.561 239.615 339.561C239.497 339.561 239.381 339.59 239.277 339.646Z" fill="#2B303F"/>
<path id="Vector_107" d="M237.877 337.089L235.765 338.295C235.584 338.391 235.608 338.56 235.765 338.681L237.781 339.887C237.886 339.937 238.002 339.963 238.118 339.963C238.235 339.963 238.351 339.937 238.456 339.887L240.581 338.681C240.749 338.572 240.725 338.403 240.581 338.283L238.553 337.077C238.447 337.026 238.331 337 238.214 337.002C238.096 337.004 237.981 337.034 237.877 337.089Z" fill="#2B303F"/>
<path id="Vector_108" d="M240.87 335.365L238.758 336.571C238.589 336.68 238.601 336.849 238.758 336.969L240.774 338.175C240.878 338.228 240.994 338.256 241.112 338.256C241.229 338.256 241.345 338.228 241.45 338.175L243.574 336.969C243.743 336.873 243.719 336.704 243.574 336.584L241.546 335.378C241.441 335.325 241.327 335.297 241.21 335.295C241.093 335.293 240.977 335.317 240.87 335.365Z" fill="#2B303F"/>
<path id="Vector_109" d="M243.863 333.641L241.751 334.847C241.582 334.943 241.594 335.124 241.751 335.233L243.767 336.439C243.87 336.495 243.987 336.524 244.105 336.524C244.223 336.524 244.339 336.495 244.442 336.439L246.567 335.233C246.736 335.136 246.711 334.955 246.567 334.847L244.539 333.641C244.434 333.591 244.318 333.564 244.201 333.564C244.084 333.564 243.969 333.591 243.863 333.641Z" fill="#2B303F"/>
<path id="Vector_110" d="M246.868 331.915L244.744 333.121C244.575 333.218 244.599 333.399 244.744 333.507L246.772 334.713C246.875 334.763 246.989 334.789 247.104 334.789C247.219 334.789 247.332 334.763 247.436 334.713L249.56 333.507C249.729 333.411 249.705 333.23 249.56 333.121L247.532 331.915C247.431 331.859 247.316 331.83 247.2 331.83C247.084 331.83 246.97 331.859 246.868 331.915Z" fill="#2B303F"/>
<path id="Vector_111" d="M249.825 330.178L247.701 331.384C247.532 331.481 247.557 331.65 247.701 331.77L249.729 332.976C249.832 333.027 249.946 333.053 250.061 333.053C250.176 333.053 250.289 333.027 250.393 332.976L252.517 331.77C252.686 331.662 252.662 331.493 252.517 331.372L250.489 330.166C250.386 330.115 250.271 330.09 250.156 330.092C250.04 330.094 249.927 330.124 249.825 330.178Z" fill="#2B303F"/>
<path id="Vector_112" d="M252.855 328.454L250.73 329.66C250.561 329.756 250.586 329.925 250.73 330.046L252.758 331.252C252.863 331.305 252.978 331.332 253.096 331.332C253.213 331.332 253.329 331.305 253.434 331.252L255.546 330.046C255.715 329.949 255.703 329.78 255.546 329.66L253.53 328.454C253.426 328.401 253.31 328.373 253.192 328.373C253.075 328.373 252.959 328.401 252.855 328.454Z" fill="#2B303F"/>
<path id="Vector_113" d="M255.86 326.731L253.736 327.937C253.567 328.045 253.591 328.214 253.736 328.335L255.763 329.541C255.868 329.594 255.984 329.621 256.101 329.621C256.219 329.621 256.334 329.594 256.439 329.541L258.551 328.335C258.72 328.238 258.708 328.069 258.551 327.949L256.536 326.743C256.431 326.691 256.316 326.662 256.199 326.66C256.082 326.658 255.966 326.682 255.86 326.731Z" fill="#2B303F"/>
<path id="Vector_114" d="M258.841 325.006L256.717 326.212C256.548 326.309 256.572 326.49 256.717 326.598L258.744 327.804C258.848 327.86 258.964 327.889 259.082 327.889C259.2 327.889 259.316 327.86 259.42 327.804L261.532 326.598C261.701 326.502 261.689 326.321 261.532 326.212L259.517 325.006C259.412 324.953 259.296 324.926 259.179 324.926C259.061 324.926 258.946 324.953 258.841 325.006Z" fill="#2B303F"/>
<path id="Vector_115" d="M261.894 323.281L259.77 324.487C259.601 324.583 259.625 324.764 259.77 324.872L261.798 326.078C261.903 326.129 262.019 326.155 262.136 326.155C262.253 326.155 262.368 326.129 262.474 326.078L264.586 324.872C264.767 324.776 264.743 324.595 264.586 324.487L262.57 323.281C262.466 323.225 262.35 323.195 262.232 323.195C262.114 323.195 261.998 323.225 261.894 323.281Z" fill="#2B303F"/>
<path id="Vector_116" d="M264.827 321.544L262.715 322.75C262.534 322.846 262.558 323.015 262.715 323.136L264.73 324.342C264.836 324.392 264.951 324.418 265.068 324.418C265.185 324.418 265.301 324.392 265.406 324.342L267.518 323.136C267.699 323.027 267.675 322.858 267.518 322.738L265.503 321.532C265.397 321.481 265.281 321.455 265.163 321.457C265.046 321.459 264.931 321.489 264.827 321.544Z" fill="#2B303F"/>
<path id="Vector_117" d="M267.82 319.819L265.708 321.025C265.527 321.133 265.551 321.302 265.708 321.423L267.723 322.629C267.828 322.682 267.944 322.709 268.061 322.709C268.179 322.709 268.295 322.682 268.399 322.629L270.511 321.423C270.692 321.326 270.668 321.157 270.511 321.037L268.496 319.831C268.391 319.778 268.276 319.75 268.159 319.748C268.042 319.746 267.926 319.77 267.82 319.819Z" fill="#2B303F"/>
<path id="Vector_118" d="M274.518 315.971L268.701 319.324C268.52 319.421 268.544 319.602 268.701 319.71L270.716 320.916C270.82 320.972 270.936 321.001 271.054 321.001C271.172 321.001 271.288 320.972 271.392 320.916L277.221 317.563C277.39 317.467 277.366 317.286 277.221 317.177L275.17 315.971C275.069 315.92 274.957 315.893 274.844 315.893C274.731 315.893 274.619 315.92 274.518 315.971Z" fill="#2B303F"/>
<path id="Vector_119" d="M234.884 338.887L232 340.552C231.831 340.648 231.843 340.817 232 340.937L234.015 342.143C234.121 342.194 234.236 342.22 234.353 342.22C234.47 342.22 234.586 342.194 234.691 342.143L237.588 340.479C237.757 340.383 237.732 340.202 237.527 340.093L235.512 338.887C235.414 338.839 235.307 338.814 235.198 338.814C235.089 338.814 234.982 338.839 234.884 338.887Z" fill="#2B303F"/>
<path id="Vector_120" d="M286.249 322.713L243.718 347.256C243.549 347.352 243.574 347.521 243.718 347.641L244.732 348.22C244.837 348.273 244.953 348.301 245.07 348.301C245.188 348.301 245.303 348.273 245.408 348.22L287.927 323.678C288.108 323.582 288.084 323.413 287.927 323.292L286.925 322.713C286.82 322.66 286.704 322.633 286.587 322.633C286.47 322.633 286.354 322.66 286.249 322.713Z" fill="#2B303F"/>
<path id="&#60;&#208;&#154;&#208;&#190;&#208;&#189;&#209;&#130;&#209;&#131;&#209;&#128;&#62;_13" d="M236.489 323.811L236.767 323.968L244.117 328.213L257.175 320.676L257.453 320.519L249.825 316.129L236.489 323.811Z" fill="#BFBFBF"/>
<path id="&#60;&#208;&#154;&#208;&#190;&#208;&#189;&#209;&#130;&#209;&#131;&#209;&#128;&#62;_14" d="M236.767 323.969L244.117 328.214L257.175 320.676L249.825 316.443L236.767 323.969Z" fill="#E5E5E5"/>
<path id="&#60;&#208;&#154;&#208;&#190;&#208;&#189;&#209;&#130;&#209;&#131;&#209;&#128;&#62;_15" d="M215.538 333.713V334.365C215.538 334.834 215.662 335.295 215.897 335.702C216.132 336.108 216.47 336.445 216.877 336.68L242.777 351.622C243.183 351.861 243.646 351.986 244.117 351.984C244.587 351.983 245.049 351.858 245.456 351.622L292.308 324.584C292.715 324.35 293.054 324.013 293.289 323.606C293.524 323.2 293.648 322.738 293.647 322.268V321.617L244.165 350.199L215.538 333.713Z" fill="#E5E5E5"/>
<path id="&#60;&#208;&#154;&#208;&#190;&#208;&#189;&#209;&#130;&#209;&#131;&#209;&#128;&#62;_16" d="M244.865 350.596C245.309 350.767 245.785 350.837 246.26 350.799C246.734 350.762 247.193 350.618 247.605 350.379L294.263 323.461C294.667 323.227 295.016 322.907 295.283 322.524C295.55 322.14 295.729 321.703 295.808 321.242L300.913 290.815C300.924 290.642 300.924 290.469 300.913 290.296C300.914 289.878 300.832 289.463 300.673 289.076C300.513 288.689 300.279 288.337 299.983 288.041L251.527 315.972C251.232 316.149 250.978 316.387 250.782 316.669C250.587 316.952 250.454 317.274 250.393 317.612L244.865 350.596Z" fill="#F4F4F4"/>
<path id="&#60;&#208;&#154;&#208;&#190;&#208;&#189;&#209;&#130;&#209;&#131;&#209;&#128;&#62;_17" d="M244.117 350.199L244.43 350.379C244.57 350.461 244.715 350.534 244.865 350.597L250.392 317.649C250.454 317.31 250.587 316.989 250.782 316.706C250.978 316.423 251.232 316.185 251.527 316.008L300.02 288.041C299.824 287.85 299.605 287.684 299.368 287.547L250.779 315.574C250.484 315.751 250.23 315.989 250.034 316.272C249.838 316.555 249.705 316.876 249.644 317.214L244.117 350.199Z" fill="#E5E5E5"/>
</g>
</g>
<path id="Vector_121" opacity="0.4" d="M488.149 603.001C514.684 603.001 536.195 590.587 536.195 575.275C536.195 559.962 514.684 547.549 488.149 547.549C461.614 547.549 440.103 559.962 440.103 575.275C440.103 590.587 461.614 603.001 488.149 603.001Z" fill="#D6D8E5"/>
<g id="Men 1">
<path id="&#60;&#208;&#154;&#208;&#190;&#208;&#189;&#209;&#130;&#209;&#131;&#209;&#128;&#62;_18" d="M527.095 364.561C527.638 369.385 533.359 389.995 532.128 397.062C530.896 404.129 511.381 415.972 511.381 415.972L508.678 403.912L519.54 393.324L516.547 373.22L527.095 364.561Z" fill="#FFCEA9"/>
<path id="&#60;&#208;&#154;&#208;&#190;&#208;&#189;&#209;&#130;&#209;&#131;&#209;&#128;&#62;_19" d="M511.997 344.215C513.895 343.334 516.05 343.181 518.054 343.786C520.057 344.391 521.767 345.711 522.859 347.496C525.731 352.247 528.712 368.553 528.99 371.338C528.99 371.338 524.959 376.898 518.912 375.969L511.997 344.215Z" fill="#EDEDED"/>
<path id="Vector_122" d="M489.693 574.442C485.444 575.619 480.901 575.068 477.057 572.91C474.016 573.006 457.494 565.939 455.249 571.873C453.282 577.071 460.438 581.883 464.264 582.811C472.604 584.825 478.747 588.986 482.126 589.685C484.624 590.216 487.859 590.566 489.85 588.6C492.24 586.248 492.035 577.541 489.693 574.442Z" fill="#38226D"/>
<path id="Vector_123" d="M482.126 588.25C478.783 587.551 472.604 583.426 464.265 581.364C461.054 580.592 455.539 577.083 454.984 572.922C454.235 577.746 460.692 581.955 464.265 582.823C472.604 584.837 478.747 588.998 482.126 589.697C484.625 590.228 487.859 590.578 489.85 588.612C490.364 588.041 490.739 587.36 490.949 586.622C489.707 587.562 488.263 588.198 486.731 588.481C485.199 588.764 483.622 588.685 482.126 588.25Z" fill="#9C73FF"/>
<path id="Vector_124" d="M516.547 562.418C512.299 563.592 507.758 563.046 503.911 560.898C500.869 560.983 484.347 553.915 482.102 559.849C480.135 565.047 487.292 569.859 491.118 570.787C499.457 572.801 505.6 576.962 508.979 577.674C511.49 578.192 514.712 578.542 516.704 576.576C519.033 574.225 518.828 565.517 516.547 562.418Z" fill="#38226D"/>
<path id="Vector_125" d="M508.919 576.227C505.576 575.527 499.397 571.403 491.057 569.34C487.847 568.569 482.331 565.071 481.776 560.898C481.028 565.722 487.485 569.919 491.057 570.788C499.397 572.802 505.54 576.962 508.919 577.674C511.43 578.192 514.652 578.542 516.643 576.576C517.157 576.006 517.532 575.325 517.742 574.586C516.501 575.528 515.057 576.167 513.525 576.452C511.993 576.737 510.416 576.659 508.919 576.227Z" fill="#9C73FF"/>
<path id="&#60;&#208;&#154;&#208;&#190;&#208;&#189;&#209;&#130;&#209;&#131;&#209;&#128;&#62;_20" d="M516.812 517.566C516.106 511.431 514.829 505.375 512.999 499.476C512.999 499.476 514.145 483.871 514.712 469.073C515.364 452.285 521.181 437.512 516.583 424.113L464.747 435.631C464.747 435.631 467.885 502.564 468.585 510.668C468.966 516.965 469.739 523.232 470.902 529.433C473.316 542.422 477.118 573.332 477.118 573.332C482.597 576.515 489.79 574.755 489.79 574.755C489.79 574.755 489.404 535.668 489.042 526.31C488.62 514.877 488.27 515.745 488.27 515.745L489.995 487.308L491.118 473.149C491.118 473.149 492.554 483.545 493.532 492.831C494.34 500.923 496.295 508.244 498.48 523.319C500.375 536.392 503.452 562.659 503.452 562.659C508.931 565.854 516.378 563.201 516.378 563.201C516.378 563.201 518.297 528.903 516.812 517.566Z" fill="#8C50FF"/>
<path id="&#60;&#208;&#154;&#208;&#190;&#208;&#189;&#209;&#130;&#209;&#131;&#209;&#128;&#62;_21" d="M509.305 344.494C505.359 344.687 502.426 345.7 501.931 344.494C501.504 342.46 501.202 340.402 501.026 338.331C501.485 337.185 501.871 335.919 501.871 335.919C506.831 332.868 508.4 327.477 509.052 321.278C510.162 310.617 504.393 301.295 493.737 300.173C483.707 299.136 476.333 306.203 474.366 315.851C473.304 320.675 471.192 329.648 474.052 337.559C475.645 341.949 477.673 345.434 479.749 346.11C481.737 346.059 483.72 345.886 485.687 345.591C485.687 345.591 486.218 348.558 486.592 350.415C486.966 352.273 486.809 353.322 483.032 355.649C479.254 357.977 488.752 362.777 494.968 362.294C501.183 361.812 508.099 358.182 510.005 354.118C512.142 349.643 511.961 344.361 509.305 344.494Z" fill="#FFCEA9"/>
<path id="&#60;&#208;&#154;&#208;&#190;&#208;&#189;&#209;&#130;&#209;&#131;&#209;&#128;&#62;_22" d="M503.536 345.084C504.623 347.798 501.847 351.114 494.437 353.466C487.026 355.818 486.35 352.803 486.35 352.803C486.35 352.803 475.488 357.747 471.94 360.22C467.499 363.331 465.52 372.28 464.916 387.511C464.228 405.083 464.168 431.144 464.747 435.643C464.747 435.643 473.063 443.928 483.707 443.06C494.352 442.191 512.262 432.773 516.607 425.5C516.486 410.1 514.676 407.591 517.174 398.715C522.895 378.394 525.9 370.073 523.124 356.565C520.831 345.434 517.621 344.059 513.228 344.168C509.983 344.301 506.748 344.607 503.536 345.084Z" fill="#F4F4F4"/>
<path id="&#60;&#208;&#154;&#208;&#190;&#208;&#189;&#209;&#130;&#209;&#131;&#209;&#128;&#62;_23" d="M448.189 402.031C456.927 404.238 458.978 398.727 460.125 394.18C462.901 383.145 464.397 373.184 466.473 366.913C468.887 359.532 471.47 358.362 475.054 356.915C479.278 355.226 482.899 358.784 481.499 368.191C479.833 379.31 477.661 387.113 473.497 400.271C472.411 403.708 469.973 409.81 466.328 412.765C461.815 416.383 455.032 416.25 444.761 413.693C440.38 412.608 435.577 409.991 427.298 406.132C425.077 405.095 423.339 404.407 419.079 402.417C414.818 400.427 410.365 397.111 408.132 393.879C405.9 390.647 405.598 389.055 406.056 388.379C406.624 387.451 407.637 387.656 408.832 389.019C410.555 391.324 412.686 393.294 415.12 394.831C415.12 394.831 412.356 391.985 410.86 390.14C409.521 388.495 408.409 386.677 407.553 384.737C406.768 382.856 408.398 380.299 409.629 381.638C410.86 382.977 411.463 384.351 413.72 387.053C414.905 388.499 416.263 389.795 417.763 390.912C416.362 389.004 415.115 386.988 414.034 384.882C413.068 383.246 412.594 381.366 412.67 379.467C412.73 378.478 414.13 377.308 415.434 379.178C416.641 380.854 417.389 383.483 420.129 386.341C422.12 388.403 423.822 389.597 423.87 389.019C423.918 388.44 422.663 387.318 421.951 384.906C421.239 382.494 421.951 379.949 423.291 379.672C424.63 379.395 424.365 379.467 425.427 381.722C426.489 383.977 428.142 385.642 429.398 388.958C430.082 391.281 431.325 393.401 433.018 395.133C435.142 397.424 439.885 399.945 448.189 402.031Z" fill="#FFCEA9"/>
<path id="&#60;&#208;&#154;&#208;&#190;&#208;&#189;&#209;&#130;&#209;&#131;&#209;&#128;&#62;_24" d="M478.288 355.407C472.459 354.551 468.344 357.168 465.761 366.008C463.178 374.848 461.392 382.084 461.392 382.084C463.696 385.413 467.191 387.731 471.156 388.56C478.132 390.249 480.642 386.92 480.642 386.92C480.642 386.92 482.585 377.67 483.792 371.375C484.999 365.08 485.506 356.469 478.288 355.407Z" fill="#EDEDED"/>
<path id="Vector_126" d="M474.644 314.512C474.644 314.512 465.423 300.523 485.397 297.628C499.795 295.578 509.052 304.864 510.114 314.85C511.14 324.438 505.226 334.387 500.966 338.343C498.89 339.079 494.4 339.549 488.523 336.835C488.284 334.226 488.191 331.604 488.245 328.984C488.245 328.984 495.269 314.259 474.644 314.512Z" fill="#3A2C6D"/>
</g>
<path id="Vector_127" d="M288.252 265.934C299.97 265.934 309.47 256.442 309.47 244.733C309.47 233.023 299.97 223.531 288.252 223.531C276.535 223.531 267.035 233.023 267.035 244.733C267.035 256.442 276.535 265.934 288.252 265.934Z" fill="#3D348B"/>
<path id="Vector_128" d="M288.252 254.768C280.202 254.768 272.406 252.935 266.866 249.727C262.244 247.061 259.625 243.697 259.625 240.513C259.625 237.329 262.28 233.964 266.866 231.299C272.406 228.091 280.142 226.258 288.252 226.258C296.363 226.258 304.087 228.103 309.638 231.299C314.261 233.964 316.88 237.329 316.88 240.513C316.88 243.697 314.237 247.061 309.638 249.727C304.135 252.935 296.29 254.768 288.252 254.768Z" fill="#B7C0EE"/>
<path id="Vector_129" d="M288.252 251.113C280.202 251.113 272.406 249.28 266.866 246.084C262.244 243.419 259.625 240.054 259.625 236.87C259.625 233.686 262.28 230.322 266.866 227.644C272.406 224.448 280.142 222.615 288.252 222.615C296.363 222.615 304.087 224.448 309.638 227.644C314.261 230.322 316.88 233.674 316.88 236.87C316.88 240.066 314.237 243.419 309.638 246.084C304.135 249.28 296.29 251.113 288.252 251.113Z" fill="#3D348B"/>
<path id="Vector_130" d="M288.252 247.821C277.825 247.821 267.735 245.409 260.494 241.296C254.46 237.835 251.068 233.481 251.068 229.345C251.068 225.208 254.496 220.903 260.494 217.405C267.675 213.257 277.777 210.881 288.252 210.881C298.728 210.881 308.77 213.293 316.011 217.405C322.045 220.854 325.449 225.208 325.449 229.345C325.449 233.481 322.009 237.787 316.011 241.296C308.782 245.445 298.68 247.821 288.252 247.821Z" fill="#B7C0EE"/>
<path id="Vector_131" d="M288.252 243.094C277.825 243.094 267.735 240.682 260.494 236.57C254.46 233.12 251.068 228.755 251.068 224.63C251.068 220.506 254.496 216.188 260.494 212.679C267.675 208.53 277.777 206.154 288.252 206.154C298.728 206.154 308.77 208.566 316.011 212.679C322.045 216.14 325.449 220.494 325.449 224.63C325.449 228.767 322.009 233.072 316.011 236.57C308.782 240.718 298.68 243.094 288.252 243.094Z" fill="#3D348B"/>
<path id="Vector_132" d="M288.252 238.692C275.532 238.692 263.221 235.798 254.46 230.745C247.158 226.524 242.97 221.217 242.97 216.176C242.97 211.135 247.158 205.829 254.46 201.62C263.221 196.567 275.532 193.66 288.252 193.66C300.973 193.66 313.271 196.567 322.045 201.62C329.347 205.829 333.535 211.135 333.535 216.176C333.535 221.217 329.347 226.524 322.045 230.745C313.283 235.798 300.961 238.692 288.252 238.692Z" fill="#B7C0EE"/>
<path id="Vector_133" d="M288.252 232.926C275.532 232.926 263.221 230.032 254.46 224.979C247.158 220.77 242.97 215.451 242.97 210.41C242.97 205.369 247.158 200.063 254.46 195.854C263.221 190.801 275.532 187.906 288.252 187.906C300.973 187.906 313.271 190.801 322.045 195.854C329.347 200.063 333.535 205.381 333.535 210.422C333.535 215.463 329.347 220.77 322.045 224.979C313.283 230.032 300.961 232.926 288.252 232.926Z" fill="#3D348B"/>
<path id="Vector_134" d="M288.252 226.982C273.649 226.982 259.516 223.666 249.451 217.853C241.063 213.029 236.26 206.926 236.26 201.138C236.26 195.349 241.087 189.258 249.451 184.41C259.504 178.609 273.649 175.293 288.24 175.293C302.832 175.293 316.988 178.609 327.042 184.422C335.43 189.246 340.233 195.349 340.233 201.138C340.233 206.926 335.405 213.017 327.042 217.853C316.988 223.666 302.844 226.982 288.252 226.982Z" fill="#B7C0EE"/>
<path id="Vector_135" d="M288.252 220.373C273.649 220.373 259.516 217.045 249.451 211.244C241.063 206.42 236.26 200.317 236.26 194.529C236.26 188.74 241.087 182.637 249.451 177.801C259.504 172 273.649 168.672 288.24 168.672C302.832 168.672 316.988 172 327.042 177.801C335.43 182.625 340.233 188.74 340.233 194.529C340.233 200.317 335.405 206.408 327.042 211.244C316.988 217.081 302.844 220.373 288.252 220.373Z" fill="#3D348B"/>
<path id="Vector_136" d="M288.253 215.452C320.54 215.452 346.714 200.35 346.714 181.72C346.714 163.091 320.54 147.988 288.253 147.988C255.965 147.988 229.791 163.091 229.791 181.72C229.791 200.35 255.965 215.452 288.253 215.452Z" fill="#FFDF57"/>
<path id="Vector_137" d="M273.335 98.6016H268.158V179.03H273.335V98.6016Z" fill="#D8AA44"/>
<path id="Vector_138" d="M308.782 98.6016H303.604V179.03H308.782V98.6016Z" fill="#D8AA44"/>
<path id="Vector_139" d="M288.108 103.837L280.516 96.8904L271.199 103.125L268.158 98.615L281.023 90.173L288.397 96.9145L297.232 90.0645L308.781 98.615L305.173 102.752L297.22 96.7819L288.108 103.837Z" fill="#D8AA44"/>
<path id="Vector_140" opacity="0.69" d="M346.629 183.481C346.726 175.907 348.029 153.548 365.831 122.735C386.891 86.2772 364.938 0 288.096 0C211.253 0 189.3 86.2772 210.36 122.735C225.748 149.375 229.103 173.013 229.803 183.819" fill="#FFDF57"/>
<g id="Glasses">
<path id="Vector_141" opacity="0.2" d="M247.568 402.973L244.213 399.838C243.788 399.221 243.275 398.669 242.693 398.197C242.438 397.984 242.168 397.791 241.884 397.618L237.539 394.724L232.796 392.626C232.506 392.491 232.207 392.375 231.903 392.276C231.204 392.043 230.478 391.906 229.743 391.866L225.229 390.395C224.976 390.395 225.12 390.853 225.229 391.046L225.663 391.227C226.207 391.432 225.748 391.359 226.315 391.757L228.91 392.421C230.563 392.358 232.198 392.777 233.617 393.627L237.056 395.351L240.363 397.341C241.816 398.14 242.975 399.382 243.67 400.887L245.42 402.298C245.963 402.804 245.649 402.587 246.458 402.708L246.905 403.094C247.231 403.178 247.713 403.19 247.568 402.973Z" fill="black"/>
<path id="Vector_142" opacity="0.1" d="M238.131 396.34C238.399 395.927 238.758 395.58 239.181 395.327C239.795 394.95 240.515 394.785 241.232 394.856C242.079 394.943 242.899 395.197 243.646 395.604H243.731L244.937 396.255C245.251 396.424 245.541 396.617 245.831 396.81L246.386 397.22C247.218 397.883 246.977 399.186 246.241 400.223C245.833 400.802 245.363 401.336 244.841 401.815C244.381 402.214 243.828 402.49 243.233 402.619C242.639 402.747 242.021 402.724 241.437 402.551C240.896 402.381 240.374 402.154 239.881 401.875C239.424 401.609 238.992 401.302 238.589 400.959C238.094 400.497 237.753 399.894 237.61 399.232C237.468 398.57 237.531 397.881 237.793 397.256C237.871 396.939 237.985 396.632 238.131 396.34ZM228.174 390.31C228.826 389.309 229.936 388.549 230.877 388.863L231.481 389.092C231.786 389.211 232.084 389.348 232.374 389.502L233.472 390.069H233.544C234.234 390.432 234.833 390.948 235.294 391.576C235.484 391.831 235.62 392.122 235.697 392.43C235.774 392.738 235.789 393.059 235.741 393.373C235.669 393.839 235.487 394.282 235.21 394.663C234.984 394.936 234.729 395.182 234.45 395.399C233.944 395.892 233.318 396.243 232.634 396.419C231.95 396.594 231.232 396.588 230.551 396.4C230.066 396.246 229.597 396.044 229.151 395.797C228.72 395.532 228.316 395.225 227.944 394.88C227.559 394.521 227.291 394.053 227.177 393.539C227.062 393.024 227.107 392.487 227.305 391.998C227.531 391.409 227.822 390.846 228.174 390.322V390.31Z" fill="black"/>
<path id="Vector_143" d="M226.894 391.781L229.477 391.54C231.113 391.378 232.759 391.706 234.208 392.481L248.461 399.632L249.294 398.426L233.339 391.395C232.38 390.947 231.343 390.689 230.286 390.636L225.217 390.346C225.161 390.336 225.104 390.343 225.053 390.367C225.001 390.39 224.958 390.429 224.93 390.477C224.901 390.526 224.887 390.582 224.891 390.638C224.895 390.695 224.916 390.748 224.951 390.792L225.084 390.973C225.293 391.25 225.569 391.469 225.885 391.61C226.202 391.752 226.549 391.81 226.894 391.781Z" fill="#2B303F"/>
<path id="Vector_144" d="M245.336 402.105L244.261 399.693C243.568 398.188 242.415 396.942 240.967 396.135L227.944 388.344L228.681 387.223L242.451 396.376C243.366 396.956 244.155 397.715 244.768 398.607L247.725 402.925C247.87 403.142 247.653 403.419 247.363 403.371H247.11C246.731 403.326 246.37 403.186 246.06 402.965C245.75 402.743 245.501 402.448 245.336 402.105Z" fill="#2B303F"/>
<path id="Vector_145" opacity="0.3" d="M241.474 394.363C242.319 394.445 243.14 394.695 243.887 395.098H243.96L245.167 395.737C245.481 395.918 245.77 396.099 246.06 396.292C246.35 396.485 246.434 396.57 246.615 396.714C247.436 397.366 247.194 398.68 246.47 399.705C246.065 400.291 245.591 400.825 245.058 401.297C244.604 401.702 244.054 401.983 243.46 402.114C242.866 402.245 242.249 402.221 241.667 402.045C241.127 401.865 240.606 401.635 240.11 401.357C239.648 401.099 239.215 400.792 238.819 400.441C238.322 399.983 237.978 399.382 237.836 398.722C237.693 398.061 237.758 397.373 238.022 396.75C238.112 396.413 238.246 396.088 238.42 395.786C238.692 395.376 239.051 395.03 239.47 394.773C240.076 394.424 240.779 394.28 241.474 394.363Z" fill="url(#paint0_linear)"/>
<path id="Vector_146" d="M228.294 386.969L227.667 387.958C227.614 388.015 227.585 388.091 227.585 388.169C227.585 388.247 227.614 388.322 227.667 388.38C227.774 388.476 227.847 388.605 227.873 388.747C227.899 388.889 227.878 389.036 227.812 389.164L226.774 391.335C226.47 391.95 226.374 392.646 226.501 393.32C226.627 393.994 226.968 394.609 227.474 395.073C228.351 395.855 229.389 396.435 230.515 396.774C231.353 397.03 232.246 397.053 233.096 396.84C233.947 396.628 234.723 396.188 235.343 395.568L236.308 394.591C236.521 394.383 236.65 394.104 236.67 393.807C236.689 393.675 236.739 393.55 236.815 393.441C236.892 393.332 236.993 393.243 237.111 393.18C237.229 393.118 237.359 393.084 237.492 393.082C237.626 393.08 237.757 393.109 237.877 393.168L238.118 393.288L238.36 393.433C238.458 393.504 238.536 393.599 238.588 393.708C238.639 393.818 238.662 393.939 238.653 394.059C238.645 394.18 238.606 394.297 238.539 394.398C238.473 394.5 238.382 394.582 238.275 394.639C238.004 394.783 237.788 395.012 237.66 395.29L237.117 396.496C236.774 397.263 236.689 398.12 236.874 398.94C237.059 399.759 237.504 400.497 238.143 401.043C239.065 401.855 240.145 402.467 241.317 402.84C242.067 403.082 242.871 403.109 243.636 402.92C244.401 402.73 245.099 402.331 245.649 401.766L247.46 399.861C247.581 399.74 247.732 399.654 247.897 399.612C248.063 399.569 248.237 399.572 248.401 399.62C248.488 399.65 248.583 399.652 248.672 399.626C248.76 399.6 248.839 399.547 248.896 399.475L249.632 398.462C249.709 398.371 249.751 398.255 249.751 398.136C249.751 398.017 249.709 397.902 249.632 397.811C248.48 396.666 247.152 395.713 245.698 394.989L244.491 394.338C243.598 393.852 242.618 393.548 241.606 393.445L240.713 393.349C240.514 393.358 240.319 393.289 240.17 393.156C240.082 393.031 239.966 392.928 239.832 392.854L238.843 392.323L237.853 391.781C237.71 391.708 237.554 391.667 237.394 391.66C237.279 391.657 237.167 391.628 237.065 391.576C236.962 391.524 236.873 391.45 236.803 391.359L236.32 390.707C235.763 389.961 235.04 389.355 234.208 388.935L233.11 388.356C231.811 387.586 230.391 387.044 228.91 386.752C228.797 386.728 228.68 386.736 228.572 386.774C228.463 386.812 228.367 386.88 228.294 386.969ZM238.372 395.857C238.644 395.447 239.002 395.101 239.422 394.844C240.036 394.468 240.758 394.307 241.474 394.386C242.319 394.468 243.14 394.718 243.887 395.121H243.96L245.167 395.761C245.48 395.941 245.77 396.122 246.06 396.315C246.349 396.508 246.434 396.593 246.615 396.737C247.436 397.389 247.194 398.703 246.47 399.728C246.065 400.314 245.591 400.848 245.058 401.32C244.604 401.725 244.054 402.006 243.46 402.137C242.866 402.268 242.249 402.244 241.667 402.068C241.127 401.889 240.606 401.658 240.11 401.381C239.648 401.122 239.215 400.815 238.818 400.464C238.321 400.006 237.978 399.405 237.836 398.745C237.693 398.084 237.758 397.396 238.022 396.774C238.1 396.455 238.218 396.147 238.372 395.857ZM228.403 389.827C229.067 388.838 230.165 388.078 231.118 388.392C231.323 388.454 231.525 388.526 231.722 388.609C232.024 388.73 232.325 388.874 232.615 389.019L233.713 389.598H233.786C234.471 389.969 235.068 390.483 235.536 391.105C235.724 391.363 235.86 391.656 235.934 391.966C236.009 392.277 236.021 392.599 235.97 392.914C235.901 393.378 235.719 393.817 235.439 394.193C235.217 394.472 234.961 394.723 234.679 394.941C234.172 395.432 233.546 395.783 232.863 395.958C232.179 396.134 231.461 396.128 230.781 395.941C230.297 395.786 229.832 395.58 229.393 395.326C228.958 395.071 228.553 394.767 228.186 394.422C227.8 394.06 227.533 393.59 227.419 393.073C227.305 392.557 227.349 392.018 227.546 391.528C227.774 390.937 228.061 390.371 228.403 389.839V389.827Z" fill="#2B303F"/>
<path id="Vector_147" d="M234.582 395.132C234.078 395.627 233.452 395.98 232.768 396.156C232.083 396.331 231.364 396.324 230.684 396.133C230.207 395.993 229.746 395.803 229.308 395.566C228.871 395.315 228.466 395.011 228.101 394.662C227.715 394.303 227.448 393.835 227.333 393.32C227.219 392.805 227.264 392.268 227.462 391.78C227.699 391.17 228.003 390.587 228.367 390.043C228.033 390.551 227.754 391.093 227.534 391.659C227.337 392.15 227.293 392.688 227.407 393.205C227.521 393.721 227.788 394.191 228.174 394.553C228.541 394.899 228.946 395.202 229.381 395.458C229.82 395.712 230.285 395.918 230.768 396.073C231.449 396.26 232.167 396.265 232.851 396.09C233.534 395.914 234.16 395.563 234.667 395.072C234.946 394.855 235.201 394.609 235.427 394.336L235.343 394.36C235.122 394.648 234.867 394.908 234.582 395.132Z" fill="#1F232D"/>
<path id="Vector_148" d="M244.901 401.525C244.446 401.927 243.896 402.207 243.302 402.335C242.708 402.464 242.091 402.438 241.51 402.261C240.969 402.091 240.447 401.864 239.953 401.585C239.496 401.319 239.064 401.012 238.662 400.669C238.167 400.207 237.825 399.604 237.683 398.942C237.54 398.28 237.604 397.591 237.865 396.966C237.961 396.634 238.094 396.315 238.263 396.014L238.36 395.881C238.194 396.178 238.065 396.494 237.974 396.822C237.71 397.444 237.645 398.132 237.787 398.793C237.93 399.453 238.273 400.054 238.77 400.512C239.167 400.863 239.599 401.17 240.062 401.428C240.558 401.706 241.079 401.936 241.619 402.116C242.201 402.292 242.818 402.316 243.412 402.185C244.006 402.054 244.556 401.773 245.01 401.368C245.5 400.931 245.941 400.441 246.325 399.909C245.918 400.503 245.44 401.046 244.901 401.525Z" fill="#1F232D"/>
<path id="Vector_149" opacity="0.3" d="M235.536 391.154C235.068 390.532 234.471 390.018 233.786 389.647H233.713L232.615 389.068C232.325 388.923 232.024 388.778 231.722 388.658C231.525 388.575 231.323 388.502 231.118 388.441C230.165 388.127 229.067 388.887 228.403 389.876C228.041 390.421 227.738 391.004 227.498 391.613C227.301 392.103 227.256 392.642 227.37 393.158C227.485 393.675 227.752 394.145 228.137 394.507C228.505 394.852 228.91 395.156 229.344 395.411C229.784 395.665 230.249 395.871 230.732 396.026C231.413 396.213 232.131 396.219 232.814 396.043C233.498 395.868 234.124 395.517 234.63 395.025C234.913 394.808 235.168 394.557 235.391 394.278C235.67 393.902 235.853 393.463 235.922 392.999C235.985 392.682 235.983 392.355 235.917 392.038C235.85 391.721 235.721 391.42 235.536 391.154Z" fill="url(#paint1_linear)"/>
</g>
</g>
</g>
</g>
<defs>
<linearGradient id="paint0_linear" x1="242.415" y1="394.363" x2="242.415" y2="402.274" gradientUnits="userSpaceOnUse">
<stop offset="0.01" stop-color="white"/>
<stop offset="0.88" stop-color="white" stop-opacity="0"/>
</linearGradient>
<linearGradient id="paint1_linear" x1="1889.43" y1="2900.54" x2="1889.43" y2="2951.17" gradientUnits="userSpaceOnUse">
<stop offset="0.01" stop-color="white"/>
<stop offset="0.88" stop-color="white" stop-opacity="0"/>
</linearGradient>
</defs>
</svg>
